P3 24 24 255
118
132
119
116
127
117
128
135
129
138
146
136
139
150
140
152
160
155
151
148
144
110
104
99
147
152
150
156
158
153
151
149
140
209
206
195
185
189
176
164
173
162
155
168
161
154
171
167
158
174
173
162
177
178
165
180
184
172
187
192
175
192
198
169
189
195
158
175
182
152
167
174
127
142
129
131
140
129
128
133
123
134
142
129
130
143
132
139
152
146
128
132
129
87
85
80
140
142
135
159
158
151
158
157
148
189
187
177
183
185
174
170
177
168
163
175
169
160
175
173
160
177
176
166
183
184
173
190
194
178
194
200
182
199
207
176
196
204
171
189
197
170
187
196
136
149
137
135
143
128
141
144
126
137
140
122
136
145
130
139
151
141
127
134
127
75
75
65
130
127
112
125
122
109
111
111
99
178
179
169
154
155
145
172
176
168
170
179
176
167
180
179
161
177
177
161
180
181
165
183
187
163
180
187
167
185
194
163
183
192
161
179
189
160
179
189
138
148
137
131
137
119
136
137
114
139
136
110
142
141
118
126
131
114
116
121
104
78
76
57
136
127
105
135
130
111
103
103
88
168
170
158
134
132
124
171
171
166
177
182
181
170
180
181
159
174
175
152
170
172
152
169
175
150
167
175
160
177
186
160
178
188
154
172
182
155
174
183
138
146
136
160
163
143
165
164
134
182
172
138
188
177
146
143
141
115
108
109
84
143
138
109
192
177
149
142
133
110
117
116
99
145
147
135
114
111
104
168
166
162
183
185
185
176
183
186
154
169
171
145
163
166
147
164
170
144
161
169
145
162
171
148
165
174
137
155
163
135
155
162
151
152
134
221
214
183
237
222
180
242
224
175
237
222
178
174
165
132
127
124
96
220
215
187
190
176
148
110
100
71
170
165
137
147
144
120
73
73
63
137
138
131
172
175
170
159
163
160
158
170
170
147
162
164
142
158
164
137
154
163
143
157
163
151
163
166
145
158
160
146
160
162
111
108
83
199
185
147
248
224
174
247
225
168
238
222
171
163
150
117
86
79
55
173
166
144
177
165
139
142
131
101
212
202
168
184
176
142
70
75
61
113
118
108
165
166
157
128
128
120
165
173
169
147
159
159
136
150
154
137
154
162
139
155
162
141
156
159
133
149
151
135
151
152
65
62
41
123
111
80
228
209
167
250
230
182
235
217
174
128
113
86
75
65
46
114
106
87
158
146
124
183
171
147
174
163
134
162
153
124
80
84
69
79
82
70
153
151
141
119
113
105
155
160
154
144
155
153
139
151
153
144
158
165
137
158
168
135
161
173
127
152
162
127
150
159
60
54
36
70
58
33
168
152
120
243
223
185
201
180
145
94
75
54
59
45
29
100
87
71
119
106
89
131
118
99
128
116
94
89
79
55
58
61
45
51
51
37
153
145
134
109
96
87
141
142
135
138
146
140
134
144
143
137
148
152
137
155
163
133
156
166
128
147
155
131
148
152
52
40
21
62
48
24
103
85
59
197
176
143
147
125
92
103
83
60
102
85
66
100
85
66
83
69
55
79
66
50
101
88
71
83
72
54
50
51
33
55
52
37
116
103
91
101
82
73
120
117
106
134
138
129
139
145
140
140
149
148
143
150
149
144
148
143
145
145
137
152
147
134
64
43
21
80
59
34
74
53
28
140
118
85
137
115
80
173
152
124
220
202
174
163
148
121
58
44
30
85
71
58
77
64
49
84
72
56
54
52
33
70
64
47
93
78
64
84
63
51
126
120
105
116
116
103
121
124
115
140
144
139
142
139
131
150
139
124
156
140
122
162
142
120
148
121
95
136
109
84
112
86
61
128
105
72
160
140
104
162
143
110
166
149
112
164
150
114
99
86
69
122
109
94
91
78
64
98
85
71
83
77
57
106
97
78
76
60
43
62
42
27
135
126
107
111
107
89
93
92
78
132
132
122
133
131
123
139
133
123
137
127
115
144
132
118
116
92
67
88
63
41
95
70
47
90
69
40
106
89
56
105
88
55
137
122
81
171
157
116
159
146
124
122
109
90
90
77
60
105
92
76
165
157
135
110
99
78
107
94
73
88
72
52
119
110
86
159
153
130
124
119
102
152
149
135
146
151
148
141
152
158
145
156
161
155
167
172
106
92
73
42
26
9
51
33
17
55
39
18
87
72
48
114
99
73
199
184
148
238
225
184
238
226
197
226
215
189
156
144
122
120
107
88
172
159
135
159
146
122
148
138
112
132
123
97
147
138
110
209
200
174
216
208
187
186
180
163
149
155
154
140
160
174
137
160
177
145
172
191
128
127
117
71
66
56
38
29
20
48
36
25
75
62
49
86
71
55
170
157
129
237
225
188
245
235
200
251
241
209
228
217
190
173
160
136
172
156
131
218
205
179
200
192
163
172
168
138
196
187
156
235
223
195
243
233
210
227
220
200
177
178
173
150
163
171
134
152
165
133
158
176
132
140
135
109
113
106
42
40
33
37
30
23
60
48
42
71
60
50
118
106
86
198
187
157
250
240
207
246
235
205
234
222
195
190
177
151
163
149
124
163
153
127
142
137
110
119
119
91
131
124
95
136
126
99
148
139
116
164
157
137
168
163
151
135
136
135
148
157
163
143
159
171
123
133
126
127
132
123
70
71
60
27
25
14
42
37
26
73
65
52
89
80
64
135
124
104
163
149
129
141
131
112
117
107
85
105
92
67
84
75
53
71
66
45
58
55
36
67
67
48
53
53
32
53
49
29
64
58
40
67
65
46
76
73
59
86
86
84
146
159
167
140
156
169
115
123
116
120
124
115
93
94
82
36
35
23
35
31
19
63
57
44
68
61
45
81
70
53
62
50
32
43
36
20
50
42
22
64
52
27
61
53
32
55
50
30
89
85
67
97
96
78
29
31
17
26
23
10
46
40
28
60
59
45
59
56
44
70
70
67
132
144
152
112
129
141
102
108
101
122
125
117
117
118
107
70
69
58
33
29
18
54
48
36
70
62
48
87
77
61
68
59
41
39
35
18
43
39
19
63
54
29
84
74
50
92
84
63
68
62
44
57
54
38
51
50
38
46
42
32
46
38
30
74
71
61
75
72
62
71
70
67
129
139
145
113
128
137
95
99
92
113
116
108
121
123
112
106
105
95
45
43
32
50
45
33
71
64
50
111
103
87
81
75
57
48
47
31
46
45
25
64
58
31
69
57
32
74
64
42
94
86
66
109
103
85
107
106
91
92
86
76
63
54
45
57
53
42
48
46
36
62
61
57
124
131
134
132
144
150
88
90
83
100
101
93
103
104
96
97
98
89
63
62
51
34
31
19
58
52
39
99
93
76
78
75
56
90
92
76
92
93
72
83
79
53
136
123
98
61
49
28
78
68
48
70
62
45
104
102
84
95
90
74
145
137
121
110
107
89
72
71
57
49
48
42
59
64
63
136
146
148
63
63
56
72
74
66
86
87
81
83
83
76
83
83
73
40
37
26
33
28
16
72
67
51
86
84
67
119
122
106
96
99
79
95
92
67
176
163
139
94
81
63
63
53
38
69
61
44
122
120
96
117
112
87
192
185
160
165
162
136
115
113
96
57
55
47
30
31
26
100
106
105
56
55
46
63
63
56
79
80
74
77
79
73
73
74
65
71
69
59
34
30
18
51
46
32
86
84
67
120
123
108
52
54
36
91
88
65
97
85
64
70
58
40
57
48
33
99
92
75
135
133
105
184
179
148
172
164
135
164
160
129
107
106
86
58
55
46
44
42
33
106
109
103
57
53
44
59
58
52
69
70
65
69
71
65
51
53
45
68
68
58
48
46
34
36
32
18
74
70
55
93
95
81
30
31
14
71
66
44
90
79
61
76
66
51
52
44
31
51
46
33
108
106
80
172
166
137
151
142
113
132
128
98
94
94
75
72
69
58
64
59
47
87
86
77
