P3 24 24 255
136
146
156
129
140
156
160
174
187
135
150
157
151
162
169
168
179
186
144
156
163
66
80
80
47
63
48
20
28
19
13
18
13
42
51
47
29
40
42
56
73
67
78
95
84
57
67
61
31
36
28
32
36
29
22
25
20
14
19
7
44
49
34
19
24
12
20
25
12
39
44
26
138
148
153
151
162
172
163
177
185
122
135
140
150
159
166
172
181
188
163
172
179
88
98
101
68
79
71
27
30
24
11
12
8
53
59
52
41
52
48
64
81
72
71
90
78
59
70
67
35
39
34
20
22
18
17
19
15
15
18
7
22
25
11
15
18
5
34
38
24
37
41
22
105
115
115
174
185
190
177
191
193
122
134
140
151
161
172
148
158
169
162
172
183
94
105
113
62
72
74
25
28
29
18
21
19
64
71
65
38
46
38
56
72
58
67
85
72
55
66
63
40
45
41
20
22
19
11
13
10
16
19
10
18
22
9
27
31
17
21
25
9
30
35
16
81
94
99
147
163
169
162
178
181
113
126
133
122
133
146
47
57
71
93
101
116
96
107
120
53
70
76
26
38
40
30
40
38
62
73
66
46
54
46
48
62
50
68
82
73
46
57
55
39
46
45
29
32
31
16
17
14
15
14
7
25
24
11
40
41
27
17
22
7
21
25
12
150
170
186
120
143
155
106
126
135
88
103
112
84
96
108
9
18
33
49
55
72
103
114
129
67
91
97
39
61
64
31
50
50
28
44
42
17
28
28
27
39
38
68
80
80
41
52
53
17
26
31
15
21
24
14
14
10
8
3
0
27
19
8
47
43
30
29
31
17
23
24
14
136
156
176
167
190
205
174
193
207
159
176
190
117
133
147
65
78
95
48
58
76
135
148
167
88
110
127
56
77
94
45
65
81
58
78
93
62
81
92
55
72
82
69
85
93
60
74
80
56
68
77
50
59
66
18
22
22
25
25
21
52
45
35
55
48
33
42
38
21
55
46
29
131
151
175
140
164
184
127
146
165
139
157
177
184
204
223
181
199
218
121
136
155
168
184
205
137
156
183
92
114
141
103
127
156
116
142
172
102
130
153
94
119
139
101
122
138
105
122
136
88
103
118
75
88
99
68
77
82
80
86
85
72
71
65
46
41
30
42
38
21
45
33
18
101
122
147
112
136
159
119
139
163
134
155
179
153
178
201
165
187
209
177
197
218
186
204
225
173
192
217
136
159
186
104
132
163
97
127
161
104
136
167
116
146
174
119
144
167
100
121
142
92
110
130
85
103
118
80
96
106
76
89
96
61
69
73
48
54
52
38
43
35
33
28
19
105
128
152
101
126
150
98
120
146
108
131
157
126
153
178
149
174
196
162
185
205
172
193
210
186
207
224
188
213
232
168
197
218
136
167
193
115
147
177
108
138
166
129
154
180
114
137
161
111
131
154
100
121
140
92
110
126
83
101
112
72
90
101
67
85
95
62
78
83
51
59
59
98
124
145
100
128
150
105
127
154
105
128
156
101
128
153
102
128
150
119
143
159
151
173
187
172
195
208
182
206
220
195
221
235
195
222
239
168
192
215
123
148
172
121
146
170
122
145
170
117
138
162
112
133
154
107
127
145
94
115
129
83
104
120
76
99
114
67
91
102
69
87
95
90
117
134
92
120
140
97
120
145
105
128
155
109
135
160
113
137
156
107
129
143
94
117
130
111
133
150
149
170
185
186
207
221
205
224
237
216
231
244
198
215
230
155
177
196
125
150
172
113
134
156
112
131
152
131
152
171
138
159
176
106
124
140
108
127
140
92
114
125
82
101
112
87
113
128
85
114
132
88
112
135
95
118
143
99
124
147
106
128
147
110
131
144
107
129
143
105
128
151
123
141
163
133
148
165
156
169
183
211
219
225
225
236
245
212
231
244
167
191
210
123
141
163
106
123
143
100
118
137
111
132
149
93
107
119
88
99
105
69
86
92
53
68
77
87
105
120
83
106
125
83
108
132
87
110
134
92
112
136
98
119
142
100
122
143
101
127
150
117
141
166
154
166
181
196
204
214
148
159
174
121
129
149
170
180
198
192
206
220
153
168
179
97
107
120
83
95
108
83
90
95
72
88
93
38
53
62
22
26
30
18
23
27
23
29
33
86
93
103
92
104
118
82
100
118
83
102
122
86
104
125
90
110
133
94
116
140
96
121
147
98
121
143
26
31
39
64
67
73
193
207
216
123
153
173
115
143
169
134
149
176
172
170
192
154
148
152
138
141
144
142
141
137
96
103
101
29
40
46
6
7
11
18
19
23
14
15
19
62
59
60
80
81
86
89
95
103
87
98
111
86
101
118
86
103
123
89
108
130
95
116
138
60
76
93
2
4
10
17
18
21
141
150
158
136
167
186
125
152
176
151
150
162
206
165
155
193
160
139
120
115
107
112
110
105
109
107
103
35
38
41
6
7
10
24
25
28
9
10
13
36
28
24
48
43
41
63
62
63
75
80
88
84
95
109
87
100
116
89
104
121
93
109
126
35
45
57
28
28
31
63
61
63
88
91
98
155
165
190
124
134
155
147
125
110
185
112
50
172
121
73
112
105
93
98
101
100
118
115
113
38
37
39
8
9
10
16
18
18
2
3
3
13
10
7
22
19
18
37
37
38
47
50
55
63
70
78
84
92
102
89
100
112
93
103
115
28
33
40
46
44
45
57
52
53
65
65
69
145
157
171
118
135
154
137
127
126
161
103
63
134
90
49
76
76
68
61
73
81
78
80
84
42
42
45
22
24
23
24
25
24
26
28
27
7
9
9
26
30
31
19
23
26
24
27
29
40
42
45
55
59
64
72
78
84
82
88
95
28
29
32
53
51
52
71
68
67
56
57
58
111
131
131
97
126
143
132
146
168
154
135
144
101
79
64
55
65
66
36
54
67
32
41
50
33
38
43
30
32
30
27
29
27
25
27
25
0
0
1
3
6
8
0
3
4
3
3
2
11
9
8
31
30
30
47
49
50
65
67
70
30
30
32
63
62
64
99
98
101
62
62
65
85
89
97
52
62
72
59
65
71
93
87
84
67
62
56
36
51
58
25
40
50
26
36
42
16
25
29
22
24
21
35
37
34
53
55
51
50
50
45
36
34
29
23
21
15
11
7
1
10
5
2
7
4
3
20
20
19
37
36
36
27
26
28
82
83
87
143
144
148
76
77
83
58
62
77
52
50
55
43
38
31
45
43
33
29
35
36
13
26
35
19
22
21
11
15
12
6
14
14
93
95
90
138
140
134
147
149
144
123
119
110
114
109
99
95
88
78
62
54
45
35
29
21
13
9
4
3
0
0
9
7
6
25
23
25
88
90
94
139
142
146
86
91
94
29
49
55
51
62
65
25
30
39
16
27
47
5
15
29
3
11
19
11
9
5
8
8
2
5
10
9
109
113
110
140
144
141
122
125
123
122
121
113
122
121
112
120
118
110
109
106
97
75
71
60
32
28
18
10
6
1
6
3
2
24
22
23
95
95
96
144
148
145
91
97
92
26
32
31
41
48
50
74
85
93
37
53
66
16
26
34
14
23
26
18
25
26
16
24
25
7
13
17
45
50
55
45
50
54
28
34
38
123
123
115
122
123
115
122
122
114
122
121
112
116
112
103
82
78
69
40
36
27
21
17
12
22
20
18
96
96
93
156
158
155
86
90
87
25
26
24
4
7
8
61
70
76
83
98
106
52
61
68
47
55
60
43
50
56
40
47
53
26
31
36
28
33
37
30
35
39
33
38
42
126
126
118
125
125
117
120
120
113
123
120
112
125
121
112
117
113
104
89
85
76
64
61
52
38
36
29
88
87
83
141
142
141
76
78
80
19
20
18
1
3
3
9
14
17
88
99
105
79
86
93
65
70
76
58
63
69
54
59
65
42
47
51
29
33
36
18
22
25
7
10
13
