P3 24 24 255
138
138
138
147
147
147
163
163
163
187
187
187
201
201
201
196
196
196
188
188
188
174
174
174
163
163
163
165
165
165
185
185
185
190
190
190
65
65
65
15
15
15
6
6
6
6
6
6
8
8
8
11
11
11
30
30
30
98
98
98
158
158
158
167
167
167
175
175
175
191
191
191
147
147
147
162
162
162
191
191
191
210
210
210
194
194
194
170
170
170
165
165
165
164
164
164
166
166
166
180
180
180
194
194
194
182
182
182
66
66
66
21
21
21
10
10
10
12
12
12
26
26
26
56
56
56
108
108
108
170
170
170
172
172
172
173
173
173
172
172
172
188
188
188
173
173
173
192
192
192
207
207
207
206
206
206
175
175
175
161
161
161
167
167
167
178
178
178
190
190
190
197
197
197
189
189
189
189
189
189
118
118
118
40
40
40
30
30
30
23
23
23
40
40
40
102
102
102
176
176
176
206
206
206
157
157
157
164
164
164
162
162
162
173
173
173
199
199
199
199
199
199
185
185
185
167
167
167
159
159
159
165
165
165
189
189
189
210
210
210
203
203
203
185
185
185
192
192
192
198
198
198
152
152
152
35
35
35
23
23
23
23
23
23
50
50
50
122
122
122
203
203
203
234
234
234
166
166
166
156
156
156
156
156
156
155
155
155
187
187
187
177
177
177
173
173
173
174
174
174
172
172
172
189
189
189
206
206
206
207
207
207
190
190
190
180
180
180
196
196
196
190
190
190
140
140
140
30
30
30
14
14
14
30
30
30
71
71
71
144
144
144
215
215
215
228
228
228
197
197
197
133
133
133
138
138
138
146
146
146
177
177
177
172
172
172
182
182
182
188
188
188
189
189
189
202
202
202
202
202
202
193
193
193
184
184
184
182
182
182
187
187
187
164
164
164
99
99
99
30
30
30
30
30
30
47
47
47
88
88
88
150
150
150
200
200
200
209
209
209
212
212
212
139
139
139
133
133
133
131
131
131
177
177
177
172
172
172
181
181
181
187
187
187
179
179
179
183
183
183
182
182
182
180
180
180
180
180
180
173
173
173
140
140
140
76
76
76
29
29
29
19
19
19
23
23
23
67
67
67
126
126
126
160
160
160
173
173
173
211
211
211
232
232
232
151
151
151
131
131
131
123
123
123
166
166
166
173
173
173
168
168
168
154
154
154
148
148
148
148
148
148
159
159
159
168
168
168
152
152
152
104
104
104
47
47
47
38
38
38
28
28
28
31
31
31
57
57
57
108
108
108
143
143
143
166
166
166
199
199
199
214
214
214
229
229
229
151
151
151
133
133
133
127
127
127
139
139
139
145
145
145
147
147
147
133
133
133
134
134
134
140
140
140
141
141
141
121
121
121
78
78
78
39
39
39
37
37
37
40
40
40
46
46
46
88
88
88
164
164
164
197
197
197
165
165
165
153
153
153
208
208
208
218
218
218
216
216
216
148
148
148
127
127
127
125
125
125
139
139
139
133
133
133
137
137
137
142
142
142
137
137
137
137
137
137
95
95
95
50
50
50
40
40
40
57
57
57
64
64
64
43
43
43
51
51
51
153
153
153
199
199
199
215
215
215
207
207
207
195
195
195
202
202
202
218
218
218
222
222
222
145
145
145
123
123
123
130
130
130
141
141
141
127
127
127
128
128
128
139
139
139
143
143
143
95
95
95
37
37
37
23
23
23
42
42
42
55
55
55
53
53
53
72
72
72
121
121
121
192
192
192
213
213
213
215
215
215
220
220
220
229
229
229
229
229
229
221
221
221
205
205
205
146
146
146
125
125
125
121
121
121
135
135
135
124
124
124
122
122
122
123
123
123
99
99
99
40
40
40
18
18
18
24
24
24
46
46
46
61
61
61
56
56
56
116
116
116
170
170
170
197
197
197
210
210
210
209
209
209
213
213
213
224
224
224
225
225
225
210
210
210
156
156
156
114
114
114
115
115
115
117
117
117
141
141
141
128
128
128
124
124
124
103
103
103
35
35
35
32
32
32
32
32
32
40
40
40
51
51
51
59
59
59
78
78
78
145
145
145
190
190
190
202
202
202
195
195
195
200
200
200
208
208
208
215
215
215
225
225
225
209
209
209
91
91
91
95
95
95
115
115
115
122
122
122
142
142
142
134
134
134
114
114
114
57
57
57
40
40
40
47
47
47
28
28
28
21
21
21
37
37
37
78
78
78
142
142
142
171
171
171
201
201
201
214
214
214
212
212
212
214
214
214
220
220
220
227
227
227
217
217
217
148
148
148
54
54
54
67
67
67
108
108
108
121
121
121
146
146
146
132
132
132
61
61
61
19
19
19
52
52
52
46
46
46
46
46
46
66
66
66
103
103
103
147
147
147
175
175
175
147
147
147
208
208
208
220
220
220
211
211
211
212
212
212
217
217
217
204
204
204
152
152
152
72
72
72
54
54
54
62
62
62
103
103
103
118
118
118
137
137
137
98
98
98
25
25
25
11
11
11
36
36
36
26
26
26
37
37
37
83
83
83
140
140
140
170
170
170
160
160
160
165
165
165
207
207
207
215
215
215
206
206
206
194
194
194
188
188
188
150
150
150
70
70
70
41
41
41
55
55
55
70
70
70
114
114
114
121
121
121
118
118
118
48
48
48
21
21
21
41
41
41
46
46
46
84
84
84
120
120
120
145
145
145
161
161
161
166
166
166
169
169
169
186
186
186
186
186
186
209
209
209
204
204
204
194
194
194
156
156
156
95
95
95
50
50
50
40
40
40
53
53
53
80
80
80
117
117
117
125
125
125
85
85
85
37
37
37
80
80
80
150
150
150
166
166
166
163
163
163
164
164
164
165
165
165
173
173
173
178
178
178
162
162
162
167
167
167
189
189
189
184
184
184
194
194
194
173
173
173
107
107
107
53
53
53
52
52
52
51
51
51
59
59
59
103
103
103
118
118
118
127
127
127
67
67
67
89
89
89
142
142
142
189
189
189
181
181
181
143
143
143
140
140
140
150
150
150
158
158
158
168
168
168
183
183
183
182
182
182
171
171
171
163
163
163
143
143
143
92
92
92
49
49
49
38
38
38
43
43
43
41
41
41
72
72
72
109
109
109
116
116
116
132
132
132
72
72
72
119
119
119
143
143
143
175
175
175
186
186
186
161
161
161
135
135
135
131
131
131
143
143
143
160
160
160
182
182
182
201
201
201
172
172
172
142
142
142
84
84
84
49
49
49
45
45
45
55
55
55
55
55
55
41
41
41
80
80
80
103
103
103
95
95
95
130
130
130
70
70
70
103
103
103
107
107
107
142
142
142
154
154
154
147
147
147
126
126
126
122
122
122
148
148
148
167
167
167
144
144
144
160
160
160
120
120
120
58
58
58
41
41
41
34
34
34
32
32
32
36
36
36
41
41
41
53
53
53
74
74
74
111
111
111
102
102
102
122
122
122
56
56
56
74
74
74
54
54
54
83
83
83
102
102
102
102
102
102
95
95
95
100
100
100
111
111
111
117
117
117
110
110
110
85
85
85
40
40
40
29
29
29
43
43
43
42
42
42
31
31
31
25
25
25
28
28
28
40
40
40
65
65
65
91
91
91
100
100
100
114
114
114
84
84
84
95
95
95
108
108
108
123
123
123
147
147
147
134
134
134
122
122
122
118
118
118
112
112
112
89
89
89
59
59
59
76
76
76
62
62
62
77
77
77
89
89
89
87
87
87
82
82
82
70
70
70
51
51
51
52
52
52
65
65
65
89
89
89
95
95
95
110
110
110
155
155
155
108
108
108
101
101
101
147
147
147
198
198
198
196
196
196
199
199
199
191
191
191
164
164
164
139
139
139
140
140
140
135
135
135
146
146
146
156
156
156
179
179
179
179
179
179
180
180
180
178
178
178
147
147
147
100
100
100
76
76
76
65
65
65
81
81
81
104
104
104
