P3 24 24 255
86
101
107
93
114
129
130
150
163
171
183
181
192
204
195
158
173
180
90
124
152
67
108
140
56
95
124
53
91
120
51
95
121
47
89
113
54
90
119
64
96
121
53
72
82
35
45
51
25
48
67
38
67
88
42
62
72
63
82
95
101
128
154
91
121
153
91
122
152
109
139
168
47
61
56
71
88
88
108
122
138
139
150
173
167
178
183
191
202
194
168
184
185
105
129
151
59
95
127
49
96
124
55
99
130
56
97
124
53
89
116
50
85
114
68
96
114
39
48
53
13
29
42
36
63
88
39
60
74
56
71
71
109
127
131
106
130
149
92
118
143
107
135
163
34
49
46
42
56
53
57
71
69
82
97
102
113
126
141
144
157
172
181
188
198
178
189
194
127
153
163
71
107
130
52
92
121
60
99
127
61
96
126
52
88
118
58
92
114
53
70
80
15
28
34
35
56
72
46
67
79
63
76
71
76
87
81
96
113
120
104
126
145
105
130
157
28
41
49
37
49
54
50
62
58
55
70
61
64
78
80
81
95
103
117
131
137
155
170
177
180
194
202
156
174
179
88
116
129
57
89
111
62
97
124
64
101
129
53
89
114
58
86
103
40
59
67
34
57
65
44
71
77
29
45
48
31
42
50
63
79
93
101
123
141
114
139
163
16
28
35
35
49
53
60
71
76
70
79
78
70
82
74
39
53
52
55
71
72
83
100
104
118
134
143
159
174
181
165
183
185
115
138
150
69
102
123
65
102
125
59
95
120
45
82
105
55
85
99
36
65
80
37
68
87
30
55
69
45
64
78
78
100
121
92
117
139
109
135
156
21
33
36
40
53
54
64
78
78
81
93
92
65
76
75
30
43
47
64
78
83
66
82
82
68
83
84
92
107
114
134
149
154
165
182
185
134
157
165
80
108
127
60
94
122
49
87
114
48
80
100
35
63
84
32
66
92
37
66
83
41
63
75
60
85
103
82
108
130
100
124
147
26
38
41
48
61
62
66
83
82
83
99
99
47
59
62
38
54
57
85
103
105
88
105
106
81
96
96
75
89
89
76
90
93
100
113
110
148
163
162
143
163
173
83
110
130
55
88
110
45
80
101
50
81
102
41
77
103
36
65
83
44
66
77
46
75
93
70
101
126
96
124
149
27
40
44
49
65
67
67
86
89
77
94
96
37
49
52
55
73
79
94
115
119
100
120
121
97
115
115
94
110
109
88
101
98
78
89
83
87
100
96
128
144
146
136
154
160
77
104
118
44
81
102
47
83
104
53
89
116
44
73
95
38
61
73
42
74
94
57
94
123
88
120
149
29
42
47
50
68
73
65
90
94
65
86
90
34
47
50
68
90
99
93
117
125
102
123
129
104
124
129
106
125
127
105
120
118
100
111
109
88
102
101
77
94
94
112
128
130
125
147
155
66
99
117
47
82
103
55
93
122
83
114
139
93
117
128
70
98
112
57
91
115
87
119
145
32
45
51
50
69
76
62
89
96
53
76
81
34
49
53
70
93
104
84
110
123
94
116
128
100
121
132
107
126
135
107
125
128
109
123
128
105
121
128
91
111
117
83
101
106
98
117
125
97
122
138
56
88
107
61
100
129
110
142
169
147
172
183
158
176
181
112
137
151
94
121
142
36
53
59
48
68
79
57
84
96
46
69
77
36
51
58
66
89
101
74
101
117
82
106
121
92
113
128
101
120
134
103
121
132
107
124
136
92
110
121
99
118
128
98
116
127
82
103
115
81
107
126
60
90
110
56
93
118
98
136
162
141
169
187
174
189
195
185
197
200
145
159
166
55
77
80
55
78
84
56
81
90
46
67
76
37
53
60
60
82
95
66
91
107
73
97
111
85
106
121
94
113
128
99
118
133
85
104
118
73
92
104
99
117
129
103
121
135
91
114
128
78
106
126
60
89
110
51
85
108
84
121
149
131
161
185
166
183
196
190
199
199
178
186
187
81
97
99
68
84
82
64
82
83
52
70
74
38
54
59
51
72
82
60
83
96
68
91
103
79
101
115
88
109
124
90
110
125
75
95
109
74
94
107
96
116
128
99
118
132
91
115
130
81
108
127
64
91
110
46
76
98
70
103
131
118
148
176
158
179
197
184
195
198
187
196
196
106
113
118
90
94
90
68
75
70
48
63
63
38
53
56
44
63
71
52
73
83
63
85
96
74
97
110
83
105
121
86
107
124
69
90
105
69
91
104
91
113
126
86
107
121
89
112
130
79
104
123
63
88
102
47
73
89
64
93
117
104
133
163
145
170
194
175
189
196
193
201
200
118
131
139
111
120
113
77
85
75
45
57
53
35
50
52
39
57
63
47
66
73
58
79
88
67
90
103
76
100
116
82
104
122
67
89
105
81
103
117
88
110
123
84
106
121
86
108
128
78
103
120
74
99
109
65
89
98
74
100
118
92
121
149
132
160
187
170
187
197
195
204
202
107
127
137
108
123
119
83
94
84
53
65
61
38
54
54
39
55
60
50
68
73
59
79
85
67
88
98
69
92
104
78
101
116
83
106
120
86
111
124
84
108
120
82
103
117
82
102
120
81
101
120
82
105
118
78
102
109
64
87
99
84
111
135
118
144
168
130
149
162
172
182
186
97
116
128
100
115
113
80
91
81
55
67
62
37
54
52
45
60
63
58
73
74
61
77
78
75
92
97
77
95
103
72
93
104
80
101
114
84
107
121
84
107
121
83
102
117
80
99
115
80
99
115
77
99
114
75
98
107
62
84
94
72
98
120
119
141
165
114
131
148
103
117
125
108
125
137
106
121
119
79
90
81
67
80
72
51
67
61
40
53
49
63
73
68
57
68
64
53
66
65
80
96
98
82
98
104
74
92
102
80
100
113
84
105
121
85
104
123
80
99
116
77
96
109
76
96
109
70
92
104
51
74
87
61
86
106
115
135
160
148
165
184
144
160
171
107
123
134
111
126
129
93
104
101
73
85
75
74
84
69
75
77
59
81
84
73
82
89
83
56
68
63
71
86
83
103
116
112
90
104
106
75
93
102
76
96
110
83
102
120
83
101
118
77
96
110
73
93
106
62
85
98
46
72
86
51
76
94
101
121
147
138
156
178
163
180
193
110
124
133
111
125
134
111
121
125
89
99
89
89
92
69
111
101
69
88
86
69
107
116
110
91
105
101
79
97
92
100
111
98
89
102
94
85
102
103
74
93
101
73
92
105
80
99
115
78
97
115
75
94
109
61
83
97
50
77
91
43
68
84
77
102
126
125
147
170
154
170
185
111
125
133
111
125
135
113
125
133
113
122
121
103
105
91
111
104
78
97
99
91
112
125
132
100
114
119
87
102
96
80
94
85
59
73
69
79
93
90
92
106
104
56
72
78
69
85
100
75
97
114
71
97
112
61
86
102
55
81
96
45
70
84
53
81
100
104
131
156
145
163
182
108
122
131
108
122
131
106
122
133
103
121
133
103
118
124
104
116
117
105
119
125
106
121
137
106
119
128
89
100
93
70
84
82
67
84
87
67
86
92
95
114
121
72
89
95
76
92
98
72
92
102
65
89
104
62
86
103
60
84
99
53
76
91
47
69
83
80
103
128
130
151
180
109
124
131
109
124
131
108
125
135
105
125
140
102
123
140
102
123
143
108
127
143
111
128
145
118
132
142
109
118
114
74
86
84
49
67
70
54
82
99
81
112
137
78
99
110
86
104
102
87
101
104
68
83
95
65
84
98
65
85
101
60
81
98
50
72
86
59
80
99
117
132
151
109
124
130
109
124
130
110
124
131
113
126
135
111
125
139
110
125
143
111
127
143
114
131
147
118
133
145
120
131
135
100
112
115
71
86
86
77
104
116
87
119
143
64
90
101
58
80
81
81
95
96
83
94
98
74
88
94
69
86
97
67
87
102
56
84
98
53
74
82
105
104
96
