P3 24 24 255
107
172
36
122
162
29
137
167
45
123
170
42
91
154
22
87
150
19
92
150
18
113
155
35
165
168
65
137
132
85
193
200
143
228
237
160
228
233
135
116
120
59
97
122
51
120
167
87
100
159
65
92
152
41
94
154
37
97
157
43
99
155
54
100
149
63
93
140
54
89
139
51
98
166
32
102
157
23
126
150
48
110
141
43
66
128
10
68
134
12
75
131
14
97
135
32
166
165
60
138
134
57
195
201
116
238
247
132
202
206
121
87
89
52
125
150
55
113
167
44
89
156
35
84
145
34
78
139
30
69
130
27
67
128
34
78
133
41
87
138
50
81
129
49
95
164
43
83
148
19
96
130
31
126
135
60
71
117
17
61
121
10
64
117
13
85
121
35
130
130
53
105
105
41
170
175
106
197
201
118
137
139
92
82
83
49
108
128
43
101
150
33
59
124
15
43
109
8
37
103
7
31
99
4
31
100
3
58
118
23
94
145
61
97
142
70
98
160
55
68
132
17
59
103
9
114
127
57
92
121
36
51
102
2
49
106
6
73
117
28
93
98
41
53
51
28
103
108
75
127
133
98
96
97
96
144
150
94
111
124
49
68
107
25
37
101
8
35
105
0
34
105
2
36
108
6
38
109
5
60
120
23
93
143
59
105
149
79
85
139
41
55
116
10
42
98
2
79
108
31
122
132
61
56
96
9
39
99
4
59
110
15
78
95
31
42
35
17
85
89
36
122
132
72
91
92
76
188
196
86
174
177
82
89
108
62
65
119
29
44
114
3
42
116
7
40
115
7
45
116
10
63
124
26
87
138
55
103
146
78
67
117
16
51
108
4
40
102
1
52
96
9
120
126
59
81
110
32
39
96
5
45
100
8
82
111
37
88
81
30
87
82
28
79
81
34
117
115
52
202
204
72
203
201
85
119
123
73
97
130
54
64
124
19
53
121
15
49
121
16
55
123
22
72
131
41
93
142
66
106
148
85
55
103
2
48
100
2
41
99
2
42
94
3
85
109
34
117
133
60
49
99
13
36
99
7
77
121
28
133
135
38
94
88
30
55
52
20
158
155
55
143
139
47
179
181
79
150
154
73
114
127
75
97
138
50
67
125
30
63
127
32
67
129
40
80
136
57
98
146
79
108
149
92
53
102
0
43
90
1
39
91
3
43
95
5
53
101
15
131
138
68
77
116
36
40
107
17
64
117
29
118
131
41
108
107
33
67
68
18
134
130
42
69
63
22
115
124
61
174
187
88
106
108
70
102
127
62
84
131
48
73
131
48
77
133
57
84
137
69
100
147
88
110
151
98
75
129
6
55
103
3
42
93
2
49
97
7
44
101
11
93
122
46
120
129
66
64
112
39
64
119
44
91
120
42
137
131
40
98
96
23
64
62
23
74
68
24
82
81
44
172
183
88
123
125
72
79
94
57
88
132
55
78
131
58
84
132
64
93
139
78
104
146
93
112
151
101
80
133
12
83
133
13
63
114
8
52
105
9
49
106
12
63
108
25
116
126
65
91
121
60
72
122
51
91
122
41
146
135
36
124
118
26
49
49
16
119
117
42
91
85
40
146
152
75
169
174
90
93
102
68
86
124
59
84
134
67
87
135
70
97
140
82
106
147
96
114
152
107
53
98
3
82
131
14
86
138
20
58
116
8
53
104
7
57
100
15
87
111
44
109
122
66
78
111
48
97
116
42
159
142
47
152
145
41
65
64
21
119
117
29
106
102
33
105
107
58
190
197
99
138
144
93
102
130
81
94
141
78
90
139
79
97
142
86
106
148
99
118
157
115
37
75
0
59
104
10
87
140
25
79
137
15
56
105
2
68
99
13
77
98
26
111
104
47
83
94
36
105
108
43
173
147
68
175
166
63
77
73
31
106
100
24
126
121
30
82
80
53
169
173
97
173
177
110
123
141
104
101
142
84
93
143
87
98
144
90
104
146
100
118
158
118
39
75
4
51
96
21
64
119
17
83
141
16
76
126
15
76
100
11
98
105
28
130
109
43
102
95
27
133
118
52
182
149
83
173
163
70
88
83
34
136
126
54
146
142
33
75
72
48
144
146
95
174
178
92
106
115
81
105
137
87
97
144
93
104
150
98
111
154
109
118
159
117
43
80
8
45
95
16
42
100
9
61
120
13
84
139
21
77
108
11
117
111
31
157
133
53
151
141
46
166
139
57
184
148
83
169
161
75
126
125
53
182
176
76
169
164
49
74
71
38
128
132
77
184
191
87
102
106
70
111
135
92
102
144
98
106
152
101
115
159
114
118
160
115
50
93
21
50
102
22
45
102
19
49
109
15
68
125
10
81
124
17
101
99
14
147
116
41
182
164
69
177
147
58
183
149
79
178
167
80
136
135
60
183
181
74
178
176
52
79
75
33
114
118
58
202
212
83
105
112
66
112
133
91
102
145
96
103
152
97
110
155
105
108
153
102
67
115
47
63
114
43
55
109
30
49
103
13
57
110
5
71
120
10
84
92
9
109
71
18
138
104
43
136
104
38
166
135
70
184
164
91
138
132
67
169
168
78
180
180
58
79
74
28
104
103
58
208
214
85
104
115
58
115
133
86
105
151
88
99
150
92
103
150
96
104
150
96
81
127
66
72
120
54
64
116
40
54
106
23
56
106
15
57
104
7
75
89
10
81
53
4
88
45
6
119
84
33
170
145
76
162
139
74
159
151
65
165
161
77
170
163
77
85
81
34
81
81
44
202
204
93
132
143
65
120
132
89
115
153
100
101
148
100
112
156
109
114
158
112
86
130
77
75
121
60
69
117
47
62
109
37
60
106
33
57
103
17
62
85
6
81
70
12
91
55
5
133
104
35
181
164
75
180
162
70
164
152
72
152
142
72
165
158
68
108
108
40
55
54
32
170
170
71
160
172
69
140
147
99
137
166
121
108
151
114
114
155
118
114
155
119
91
133
86
80
122
68
76
119
59
73
115
57
73
115
56
69
114
35
54
89
7
68
81
11
86
73
10
105
89
21
138
127
37
186
172
81
183
170
105
161
149
84
166
160
57
121
122
36
43
41
25
142
142
60
171
183
77
179
184
119
153
178
123
108
148
113
109
149
117
110
149
117
96
137
93
93
132
83
97
135
85
95
132
86
92
132
81
82
128
52
59
103
14
54
90
3
66
86
12
65
65
14
97
87
19
127
117
51
178
174
95
196
188
109
162
151
75
124
122
41
63
64
25
149
154
68
158
169
80
173
176
114
148
167
125
106
143
111
107
145
112
107
145
113
101
141
98
109
147
101
114
150
105
109
144
102
96
137
84
78
125
46
63
113
18
47
97
1
51
98
8
46
63
11
65
59
9
95
90
24
141
140
60
200
198
97
185
176
99
129
122
53
69
67
27
111
116
47
120
127
66
172
173
110
146
163
122
103
139
104
103
141
105
103
141
106
102
144
95
109
151
99
105
147
87
95
139
70
80
128
50
64
115
27
55
107
15
49
101
7
47
98
7
48
84
18
35
47
4
77
69
14
100
86
31
149
149
58
178
183
98
146
143
75
94
87
31
63
63
19
148
146
65
185
167
89
167
179
115
98
133
90
93
133
93
97
139
99
97
142
73
94
140
68
83
130
50
71
121
32
58
112
20
45
98
8
35
88
3
44
98
9
43
98
4
45
94
11
41
68
14
43
43
5
79
68
17
113
112
39
121
126
56
150
153
88
153
154
80
80
85
34
146
140
53
149
116
41
183
178
112
101
131
86
81
122
79
92
135
93
82
131
38
70
119
26
59
108
13
49
101
5
42
97
3
37
91
2
30
84
1
38
91
9
42
101
5
38
96
1
49
91
18
32
51
10
41
42
5
84
81
24
104
101
38
164
168
94
193
201
130
110
118
58
112
109
40
120
93
30
173
163
104
114
144
99
79
122
77
87
130
86
