P3 24 24 255
231
226
238
233
227
239
232
227
238
233
229
240
232
229
241
231
227
240
230
227
240
230
227
240
229
227
235
230
227
233
233
226
231
235
226
228
235
227
224
234
227
221
234
227
221
235
227
222
235
226
222
235
224
221
234
224
223
236
225
227
233
225
223
231
226
219
230
225
220
230
224
222
230
227
241
230
227
238
230
227
236
232
230
236
232
230
238
231
228
241
230
227
241
230
228
239
228
227
236
229
227
233
232
228
228
233
227
224
233
225
223
232
224
223
233
225
224
234
226
225
234
225
224
234
224
224
234
224
225
234
224
226
233
225
223
232
226
219
231
225
219
230
224
218
234
229
242
233
229
239
233
230
236
233
231
233
232
229
233
232
228
240
232
228
240
230
227
235
229
227
234
230
227
232
233
227
229
233
225
225
233
224
226
234
225
227
233
224
227
233
224
227
233
224
225
233
224
225
233
224
225
233
224
225
233
224
223
232
225
219
232
225
219
231
224
218
234
228
236
234
228
235
233
228
234
233
228
232
233
227
233
234
226
240
232
224
240
232
226
235
231
227
231
232
225
231
234
224
231
234
222
231
233
224
229
232
224
228
231
224
227
231
224
227
231
223
225
233
224
225
231
222
223
232
223
224
231
223
222
231
223
219
230
223
218
230
222
217
230
225
232
231
226
233
231
226
235
232
227
234
233
227
235
231
225
240
231
224
240
231
225
236
230
226
230
231
225
231
232
223
232
233
222
234
229
223
230
229
224
229
228
223
228
228
223
229
230
222
225
231
222
223
231
222
223
232
223
224
231
222
222
229
221
219
229
221
219
230
222
220
226
226
234
227
226
237
226
225
239
226
225
236
227
226
235
226
224
240
224
222
239
222
222
234
223
223
232
226
224
233
226
222
229
226
221
228
226
222
228
225
222
228
225
222
228
226
223
229
228
222
225
231
222
222
231
222
223
232
223
224
230
222
222
229
220
220
229
221
221
230
221
221
190
195
207
190
194
210
189
193
212
190
194
208
191
196
205
192
196
213
193
197
214
195
200
213
197
202
216
200
204
215
204
206
212
208
208
211
212
210
216
214
211
219
218
216
222
224
221
228
228
222
225
231
222
222
231
222
223
232
223
224
230
221
222
229
220
221
230
221
222
228
219
220
148
154
180
149
155
180
153
160
185
159
165
187
162
168
188
164
170
193
167
172
196
172
179
200
174
182
200
181
188
205
186
193
207
189
195
207
198
198
209
207
204
214
215
211
219
224
219
225
231
223
226
232
222
223
232
222
223
232
223
224
232
222
222
231
222
221
231
223
222
229
223
221
140
146
177
143
150
178
147
154
180
152
159
184
159
165
191
160
166
192
164
170
196
170
176
201
173
180
200
180
188
207
184
191
211
181
188
207
195
196
211
210
208
219
218
213
221
226
220
225
233
224
226
233
223
224
233
223
224
232
222
224
233
222
223
233
223
221
230
223
220
228
224
220
139
146
175
142
149
176
145
153
177
147
154
178
152
159
184
159
165
191
163
169
196
168
174
199
174
179
200
178
184
204
183
189
209
174
179
198
165
166
183
210
207
220
218
213
221
226
220
222
233
224
224
235
225
225
234
224
224
232
222
223
234
223
223
233
223
221
229
222
219
228
224
220
136
143
171
140
147
172
146
154
175
146
153
176
150
156
182
155
161
187
159
165
191
164
170
195
172
176
197
178
181
202
184
187
208
173
176
197
136
135
155
201
198
213
218
214
221
226
221
220
232
224
221
234
224
222
235
225
223
235
225
223
234
224
221
234
224
220
231
224
219
229
224
218
130
137
163
135
143
165
138
146
166
140
147
169
146
152
178
148
154
181
153
159
185
159
164
189
167
168
190
172
174
194
179
180
201
177
179
200
143
141
163
186
183
199
218
214
219
223
218
215
229
222
217
235
226
221
236
226
222
234
225
221
234
224
219
234
225
218
232
226
218
229
225
217
126
134
158
129
138
159
128
137
156
134
142
163
139
145
170
146
152
177
152
158
184
160
165
190
166
167
188
170
171
192
179
180
201
183
184
205
137
135
159
176
173
191
217
213
219
218
213
209
230
222
216
235
226
221
235
226
221
233
225
220
233
224
218
234
225
217
232
226
217
229
225
215
121
131
156
126
137
160
127
138
160
132
141
161
135
141
160
139
144
165
158
163
185
160
165
186
161
165
183
169
172
193
172
175
199
175
177
205
136
135
164
150
150
174
205
203
216
221
212
212
232
220
216
236
225
223
234
225
222
232
228
223
233
225
220
234
223
217
231
224
217
228
225
217
111
123
145
117
129
153
123
135
161
122
132
155
129
135
153
136
141
161
132
137
160
95
100
122
125
132
148
153
159
179
102
108
133
125
129
159
123
124
158
85
88
119
137
138
158
217
209
215
236
223
222
240
227
226
236
227
224
234
228
225
234
227
223
234
224
220
233
226
220
229
226
219
105
117
134
107
118
141
120
130
158
122
131
157
122
130
154
113
120
146
82
88
117
56
62
90
109
116
134
137
144
164
71
78
104
88
94
125
90
93
131
71
75
112
99
103
129
170
167
180
230
220
223
226
213
214
221
210
210
225
216
215
224
215
213
227
219
214
228
221
216
232
227
221
110
120
137
106
115
136
106
114
141
118
128
154
111
122
148
74
85
113
50
61
92
60
71
100
92
103
121
108
118
140
73
82
110
68
76
108
78
82
122
75
83
122
80
90
120
109
113
132
171
166
174
161
151
156
151
142
147
165
154
160
161
152
153
170
164
158
222
216
210
238
232
226
106
113
134
111
118
138
111
118
138
91
101
121
58
73
97
48
63
88
44
60
87
51
66
93
68
79
99
65
76
100
57
67
96
59
68
102
73
81
119
75
87
124
73
89
118
82
94
113
105
108
121
105
103
115
102
97
111
103
96
111
110
104
110
179
175
169
241
236
229
239
230
225
71
76
102
72
78
97
85
92
105
56
68
82
34
52
71
40
58
79
40
58
82
43
60
84
53
66
87
52
64
89
51
62
93
59
69
103
68
77
112
63
78
111
59
78
105
59
76
94
62
72
89
66
70
89
73
74
93
74
71
93
97
94
104
196
194
187
244
239
233
239
229
225
42
46
69
37
44
62
38
48
64
34
46
68
39
53
77
42
57
73
41
54
74
42
54
82
41
54
85
39
54
90
36
52
91
39
50
90
43
51
90
29
44
77
24
43
68
30
44
62
39
51
69
42
52
69
57
62
75
74
73
87
95
94
97
166
165
155
238
232
226
244
231
230
17
22
40
14
19
35
13
22
42
12
21
51
12
20
48
13
23
38
11
21
40
10
17
50
8
17
61
9
22
73
10
24
80
19
29
83
30
38
84
16
29
64
34
49
70
78
85
98
84
90
104
110
118
129
129
132
134
161
158
161
180
177
175
210
209
198
240
233
227
244
229
230
34
42
59
13
21
35
13
21
41
20
30
58
14
23
48
11
21
38
11
22
42
12
20
52
19
28
70
29
42
94
27
38
99
31
38
99
32
41
93
36
48
84
92
100
116
167
167
168
193
191
196
222
221
226
232
228
226
237
229
228
239
232
230
238
234
226
237
230
224
238
225
224
59
72
87
45
59
72
44
56
76
47
57
83
44
55
76
39
50
70
30
40
65
26
34
64
46
54
82
57
69
106
49
60
104
45
50
97
49
58
102
97
103
134
133
132
143
181
175
169
225
217
215
236
228
229
238
229
223
239
227
224
238
228
226
237
230
225
236
228
223
236
226
222
59
76
91
58
73
86
58
70
90
60
71
93
61
72
91
54
64
86
41
51
80
38
46
75
77
83
101
73
84
107
62
72
98
83
88
112
106
112
137
173
172
192
144
136
143
188
181
176
225
216
213
232
222
220
242
232
226
241
230
227
241
230
230
239
229
228
237
227
224
236
227
221
