P3 24 24 255
180
115
90
183
116
92
189
118
96
192
119
97
189
121
95
187
121
96
188
126
106
162
111
91
114
80
60
96
80
64
119
106
96
129
113
104
145
119
106
146
110
88
158
117
93
171
126
103
166
116
96
147
101
78
112
85
53
100
76
50
98
76
57
104
84
71
106
91
82
131
115
108
188
119
98
188
122
98
187
121
95
187
119
93
184
115
88
186
126
99
158
115
90
110
81
57
86
65
47
97
83
75
121
107
100
121
103
95
123
102
90
124
97
79
129
100
79
139
109
87
120
87
67
100
71
48
93
75
46
99
82
58
103
86
69
96
78
67
92
83
69
115
101
98
183
114
93
185
118
96
186
118
95
186
116
93
181
115
93
158
109
85
103
76
52
86
70
49
75
62
48
93
80
75
112
98
91
103
86
77
103
84
73
111
93
74
116
99
76
99
82
60
87
70
48
103
86
62
116
100
73
114
98
75
114
96
80
104
86
75
92
82
67
109
93
92
185
118
95
186
114
95
190
116
98
190
118
101
163
108
93
96
62
45
65
49
30
67
58
42
81
71
59
101
89
80
89
75
65
83
66
53
93
74
59
100
82
62
105
87
64
91
73
51
95
77
55
115
97
73
122
104
76
116
97
74
107
87
71
96
76
64
93
77
62
114
95
92
189
122
98
193
118
101
193
120
105
171
109
94
112
73
61
69
49
36
62
54
39
68
63
50
91
83
71
92
81
68
81
69
53
91
76
57
98
80
59
97
79
57
109
91
69
107
89
67
99
81
59
110
91
67
114
93
63
112
90
65
106
84
66
94
71
58
119
99
88
135
115
116
189
121
96
196
122
105
182
121
106
124
85
68
83
59
47
87
73
62
75
69
54
80
72
58
85
74
59
88
78
59
91
79
58
95
80
56
101
84
59
111
93
70
112
94
72
101
83
61
97
79
57
107
88
63
115
93
61
122
98
72
116
91
72
105
80
65
117
97
92
95
81
90
187
118
94
203
132
116
148
100
84
78
59
39
73
59
44
74
62
48
66
59
42
77
65
49
85
70
54
87
77
56
84
73
50
95
80
55
106
89
62
109
91
66
102
83
61
99
80
57
103
85
62
116
96
71
120
96
63
129
104
75
124
98
76
102
76
59
69
52
50
33
25
39
177
113
89
166
117
103
93
63
53
66
50
34
78
64
42
69
55
36
74
61
48
85
70
57
83
69
55
71
64
49
89
78
62
101
86
66
103
85
62
111
89
63
116
93
64
120
97
67
127
103
78
143
118
91
135
111
71
134
110
74
120
98
67
98
78
52
67
57
45
48
38
39
132
83
62
99
68
54
80
60
47
96
78
60
103
88
62
81
65
46
77
60
51
87
70
60
85
71
57
81
70
56
87
73
57
100
82
63
115
93
72
121
98
72
108
86
56
101
79
50
117
95
68
130
107
79
127
106
69
99
79
46
82
65
38
92
78
55
87
77
60
95
80
69
92
64
46
78
57
40
96
80
58
127
112
85
104
89
64
73
58
41
80
63
53
90
74
61
94
77
59
96
78
58
103
83
62
118
96
73
109
85
62
100
82
57
91
76
52
77
61
39
79
64
39
96
80
52
103
86
61
76
60
39
64
51
36
63
52
41
109
95
81
167
149
135
76
62
48
81
67
46
99
85
56
95
83
51
79
64
40
73
57
43
85
68
58
90
74
59
94
77
55
119
96
72
117
93
70
103
81
58
97
75
52
98
83
62
102
90
76
100
87
75
89
78
56
96
84
57
98
82
64
66
51
37
55
43
35
63
53
48
165
149
138
153
136
122
79
65
50
110
92
67
109
94
64
73
65
36
66
53
34
69
52
41
79
62
52
108
93
75
113
96
71
118
95
72
100
79
58
94
77
58
98
83
66
107
92
79
104
88
85
104
87
87
99
85
70
118
104
75
107
87
64
95
77
58
117
102
89
111
97
88
134
119
110
52
40
32
124
104
88
149
126
100
91
75
47
62
57
33
67
56
40
64
47
37
73
57
47
101
87
66
106
90
64
97
78
58
95
78
61
90
77
64
92
82
71
97
81
74
121
99
103
128
106
114
115
97
87
132
114
85
122
98
68
169
148
121
171
153
131
94
77
61
54
41
34
24
19
16
161
141
124
103
84
65
61
49
28
66
61
43
62
55
40
65
54
40
70
60
42
72
64
38
82
71
46
87
70
55
95
79
66
90
76
65
84
71
62
96
78
71
122
100
98
151
130
126
141
122
110
125
103
83
124
96
75
153
134
109
144
133
112
108
99
86
31
23
21
15
8
7
113
96
80
56
43
28
62
54
36
62
56
38
67
60
44
71
65
47
69
63
40
70
65
37
76
68
44
79
63
48
89
73
60
93
76
65
105
88
80
117
99
91
127
108
99
151
132
120
162
144
129
148
127
114
112
86
77
92
76
59
120
113
97
81
78
71
9
3
3
15
4
3
94
80
65
76
64
48
69
59
41
68
60
41
76
69
50
67
61
41
64
58
35
63
58
33
72
63
39
77
62
43
82
66
50
107
90
79
140
123
115
124
106
100
126
107
101
157
139
129
153
136
123
110
93
81
94
75
69
92
75
64
71
58
48
23
15
12
9
0
0
56
41
37
82
70
58
88
77
61
81
70
51
69
58
36
65
58
35
62
57
33
71
64
42
72
67
44
75
66
43
78
64
39
78
63
43
113
96
84
144
126
119
126
110
106
125
109
104
142
126
118
126
112
100
94
80
70
78
64
61
62
40
34
52
29
22
51
34
30
68
52
47
102
82
74
57
48
38
62
51
36
76
64
44
84
70
45
75
67
40
77
71
46
84
77
55
77
70
52
82
74
51
83
70
39
72
58
34
92
76
62
117
99
93
114
99
97
110
96
93
124
111
104
119
106
96
58
46
38
31
16
12
70
37
29
108
68
58
114
81
72
114
89
79
113
88
76
55
48
39
60
50
36
76
63
43
100
85
60
97
89
60
90
84
57
86
79
57
73
67
50
75
67
44
85
73
38
75
61
35
75
59
44
109
92
86
107
92
90
114
102
99
124
112
107
109
97
89
69
57
48
56
36
27
112
70
58
131
79
65
128
83
70
127
95
81
149
121
107
58
51
42
54
45
33
67
55
39
79
65
45
94
80
57
92
81
57
75
66
46
83
76
59
92
86
62
98
92
55
85
78
47
65
54
34
83
70
57
116
102
91
132
118
116
141
127
134
132
122
121
113
102
91
82
58
45
113
78
59
132
90
71
133
92
78
165
133
117
170
143
124
56
50
42
53
45
35
58
47
35
61
48
33
71
55
38
90
74
57
67
56
38
80
73
55
114
110
87
95
91
60
58
53
28
53
45
27
54
44
31
100
86
71
116
99
96
140
124
135
166
156
159
125
114
103
106
83
69
116
91
70
136
108
87
150
118
105
170
139
124
140
110
91
43
39
32
57
51
42
51
42
31
53
42
29
59
45
32
78
64
50
80
68
52
75
66
49
97
89
69
105
97
76
54
46
32
20
13
7
20
11
7
50
35
24
93
75
71
126
110
116
148
135
136
132
120
112
115
97
85
131
112
92
154
132
113
141
114
104
132
101
88
141
106
90
26
24
20
62
58
51
52
45
36
49
40
29
52
41
32
72
59
50
93
81
68
81
70
53
82
70
53
104
91
79
78
67
61
15
7
7
12
6
8
37
21
14
73
53
46
114
95
96
145
131
129
139
126
120
130
113
105
141
124
109
152
132
117
149
124
118
142
111
102
125
90
77
8
8
6
51
48
43
59
54
46
49
42
32
47
38
32
61
50
44
70
58
47
69
55
39
76
60
44
93
76
67
99
86
81
40
33
32
8
4
6
44
27
21
69
46
37
87
67
61
120
104
99
130
114
111
135
114
112
129
107
98
136
111
103
173
144
144
171
142
136
148
118
106
