P3 24 24 255
207
209
201
158
165
153
132
141
128
129
138
125
122
131
118
126
135
122
128
136
124
121
129
118
73
82
74
22
30
25
13
22
22
29
41
44
55
76
80
91
135
137
119
172
170
137
190
186
150
197
192
168
204
201
158
182
179
207
218
216
248
254
253
246
249
248
254
254
254
255
254
255
160
163
141
119
125
103
125
130
109
153
158
137
143
148
127
139
144
123
135
139
119
145
148
131
116
119
106
34
40
30
14
22
18
26
36
36
33
48
49
47
75
73
64
101
97
79
124
118
97
144
139
126
171
168
158
192
188
192
209
205
217
227
224
245
249
248
255
255
255
255
253
255
190
196
164
150
154
125
170
172
145
197
200
172
184
186
158
175
177
149
172
174
146
173
171
148
163
162
143
108
111
97
24
28
21
11
19
16
22
30
29
35
43
40
51
68
64
62
91
86
76
114
110
91
132
130
113
146
145
148
167
163
154
166
162
216
223
221
253
254
254
254
250
252
183
186
172
162
160
135
201
198
166
234
230
195
222
217
178
218
211
169
217
210
167
211
203
166
195
190
162
165
162
145
83
84
76
12
16
12
18
27
22
28
40
35
34
50
45
36
57
51
56
80
75
72
97
93
73
94
91
112
122
122
204
210
211
237
242
243
233
236
238
230
231
234
206
209
206
190
187
175
171
165
148
178
171
150
200
191
164
225
215
183
240
230
195
234
225
191
193
185
161
119
115
103
131
131
125
56
60
55
1
9
4
17
31
25
22
37
32
24
40
34
19
32
27
39
51
45
127
138
135
208
213
215
228
231
234
224
228
231
224
228
231
224
228
231
245
249
248
236
236
238
228
227
229
218
215
214
197
192
187
179
172
164
175
167
155
168
160
143
67
59
49
0
0
0
95
95
94
132
137
132
21
26
20
0
7
4
16
25
22
60
67
64
138
147
143
197
207
203
204
212
211
201
206
208
200
204
207
199
203
206
198
202
205
198
203
206
207
212
212
221
226
234
229
233
242
232
235
242
241
242
246
246
245
247
240
237
238
220
213
211
172
166
168
94
91
97
109
109
113
186
190
187
103
108
102
74
78
75
137
141
140
182
186
185
190
194
193
191
195
193
184
188
188
171
175
177
163
167
170
152
156
159
155
159
162
157
161
164
186
190
190
186
195
198
196
206
208
192
201
202
196
203
203
212
216
215
233
235
234
244
242
245
250
247
251
232
231
237
228
227
233
227
230
228
197
201
195
158
159
157
133
134
134
118
119
118
114
114
114
124
125
124
147
149
149
162
165
168
149
153
156
127
131
134
117
120
124
117
121
124
191
196
195
181
192
186
184
197
189
191
202
194
185
194
187
185
191
184
189
194
188
192
193
195
203
202
209
222
221
231
237
237
244
246
248
248
237
241
236
225
228
226
209
210
210
173
175
174
132
133
133
103
104
104
99
102
102
100
103
106
113
117
120
125
129
132
114
118
121
97
101
104
153
158
156
159
168
162
158
169
161
151
160
153
167
172
168
177
180
177
182
184
181
188
193
189
191
195
197
189
191
198
196
198
204
202
204
206
222
225
223
201
206
204
169
174
172
187
192
190
202
207
205
159
163
162
125
129
129
103
107
110
72
76
79
93
97
100
88
92
95
100
104
107
111
116
114
120
128
126
138
145
144
145
149
151
150
152
155
155
154
160
156
156
160
158
165
158
160
168
163
172
176
179
176
180
185
185
187
190
152
155
155
49
54
52
8
13
10
18
24
21
89
95
93
193
201
198
199
205
204
161
165
168
123
127
130
128
131
134
69
71
74
85
89
92
135
137
136
119
121
121
115
117
118
130
131
133
145
145
148
145
145
148
145
146
148
145
152
148
160
169
164
173
181
179
164
171
171
145
152
151
77
82
80
6
9
7
10
13
11
17
20
18
6
10
8
72
77
75
193
201
202
203
213
217
199
198
199
180
169
166
97
90
88
84
89
92
127
127
127
118
118
118
123
123
123
118
118
118
131
131
131
141
141
141
138
139
139
134
141
139
135
144
141
148
157
154
151
160
157
111
121
117
44
51
49
11
15
13
81
84
83
109
113
112
58
61
61
11
13
12
123
129
129
160
166
167
139
130
123
140
117
106
128
109
100
114
114
111
237
237
237
225
225
225
202
202
202
176
176
176
152
152
152
125
125
125
122
123
123
134
139
137
130
137
135
139
146
143
147
154
152
103
110
108
34
39
37
34
38
37
120
124
123
122
126
125
100
104
103
21
24
23
79
83
80
155
153
146
120
103
91
134
104
87
126
100
84
87
76
67
251
251
251
253
253
253
252
252
252
254
254
254
249
249
249
233
232
232
216
216
216
192
196
195
163
167
166
152
156
155
136
140
139
114
118
117
50
53
52
52
55
54
139
143
142
190
194
193
135
140
139
36
39
39
48
51
49
119
117
112
111
98
87
117
93
80
108
87
74
93
85
76
254
254
254
254
254
254
255
255
255
254
254
254
254
254
254
255
255
255
255
255
255
253
255
255
254
255
255
247
249
248
229
231
231
216
218
218
147
150
149
82
85
84
136
140
139
202
206
205
172
176
175
82
85
84
27
32
31
87
94
95
100
99
98
93
82
81
91
83
82
88
91
91
255
255
255
255
255
255
255
255
255
255
255
255
255
255
255
255
255
255
255
255
255
255
255
255
255
255
255
254
255
255
253
254
254
251
252
252
253
254
253
151
154
154
134
138
137
165
169
168
136
140
139
71
74
73
34
40
41
127
140
145
129
137
144
100
102
109
83
86
94
83
94
100
255
255
255
255
255
255
255
255
255
255
255
255
255
255
255
255
255
255
255
255
255
255
255
255
255
255
255
255
255
255
254
254
254
251
251
251
255
255
255
197
200
199
96
100
99
162
166
165
159
163
162
43
46
45
42
47
47
129
138
139
153
158
162
155
154
161
160
161
167
197
204
206
255
255
255
255
255
255
255
255
255
255
255
255
255
255
255
255
255
255
255
255
255
255
254
255
255
254
255
255
254
255
255
254
255
255
254
255
251
251
251
245
247
247
170
173
172
123
127
126
124
128
127
134
137
137
214
217
214
249
249
243
254
251
248
254
249
249
253
249
248
254
252
247
253
253
253
252
252
252
252
252
252
252
252
252
253
253
253
253
253
253
252
252
252
253
252
253
253
253
253
252
251
252
251
251
251
248
248
248
250
250
250
249
250
250
249
250
250
249
250
250
249
250
250
251
252
252
250
250
249
251
251
247
253
251
249
254
252
251
252
251
249
252
251
248
251
251
251
249
249
249
245
245
245
250
250
250
251
251
251
247
247
247
249
249
249
251
251
251
251
251
251
246
246
246
242
242
242
242
242
242
252
252
252
248
248
248
249
249
249
252
252
252
251
251
251
252
252
252
252
252
252
246
246
246
248
248
248
251
251
251
250
250
250
247
247
247
245
245
245
245
245
245
246
246
246
247
247
247
246
246
246
222
222
222
204
204
204
242
242
242
234
234
234
177
177
177
164
164
164
203
203
203
246
246
246
248
248
248
246
246
246
243
243
243
245
245
245
243
243
243
244
244
244
247
247
247
242
242
242
248
248
248
244
244
244
212
212
212
138
138
138
166
166
166
172
172
172
161
161
161
166
166
166
137
137
137
140
140
140
165
165
165
194
194
194
152
152
152
200
200
200
238
238
238
157
157
157
174
174
174
146
146
146
140
140
140
152
152
152
158
158
158
149
149
149
187
187
187
162
162
162
171
171
171
173
173
173
142
142
142
196
196
196
158
158
158
174
174
174
174
174
174
162
162
162
195
195
195
185
185
185
166
166
166
165
165
165
176
176
176
203
203
203
216
216
216
183
183
183
180
180
180
139
139
139
185
185
185
160
160
160
146
146
146
185
185
185
158
158
158
147
147
147
131
131
131
207
207
207
207
207
207
