P3 24 24 255
252
253
254
251
251
253
249
250
252
249
249
252
250
248
253
247
247
252
243
245
250
239
243
248
233
239
247
225
231
245
212
220
241
200
208
236
190
198
233
180
192
233
174
189
231
174
186
225
175
188
224
178
194
230
189
204
236
206
215
238
224
228
244
237
239
251
244
246
253
248
250
251
250
251
253
249
250
252
248
249
251
247
247
250
246
245
251
243
244
251
238
241
250
231
236
247
221
229
242
210
219
238
196
207
233
183
195
228
171
185
223
161
179
224
155
175
226
155
169
220
155
168
212
163
179
220
166
185
225
183
196
229
204
212
237
223
228
247
235
239
251
244
246
251
250
251
253
249
250
252
247
248
250
245
246
249
243
244
250
238
240
251
231
235
251
220
227
246
207
217
239
195
206
234
182
196
230
170
185
226
158
178
220
149
172
220
147
167
223
130
143
200
128
134
181
179
189
226
158
174
222
164
181
226
183
196
233
205
214
241
224
230
249
239
242
251
250
251
253
248
249
251
246
247
249
243
245
248
238
242
249
230
235
249
221
227
248
209
217
243
192
206
235
181
196
231
169
186
229
160
178
226
152
172
220
147
168
220
141
159
212
125
133
183
93
93
135
154
159
198
156
173
221
152
172
222
167
185
230
188
201
236
210
219
244
232
234
248
249
249
251
247
248
250
244
246
248
241
243
247
234
238
246
223
230
245
211
219
244
197
207
237
182
195
231
169
185
227
159
177
225
153
171
223
149
165
220
145
163
217
145
159
207
115
118
159
83
79
117
132
136
178
153
169
217
147
170
220
157
177
223
173
188
228
197
206
238
223
225
244
249
248
251
246
247
250
241
244
248
235
240
245
227
233
243
214
223
241
197
210
238
185
198
232
175
185
228
159
176
227
151
170
223
149
164
216
145
162
217
144
164
216
137
151
197
83
81
125
71
65
109
125
130
178
149
166
218
146
168
220
153
172
219
167
180
223
187
196
233
212
218
241
247
247
251
243
245
251
237
241
249
230
236
247
220
227
243
204
215
238
187
201
234
174
189
229
163
177
226
150
169
223
143
165
221
143
162
217
142
161
217
144
163
214
119
128
175
60
56
101
66
63
107
133
142
190
147
166
219
146
168
222
151
170
220
161
176
221
179
189
229
203
210
236
244
246
251
239
243
252
232
238
252
223
230
247
210
219
240
193
205
235
177
192
231
162
180
226
153
171
223
148
166
219
142
163
219
139
162
220
140
161
217
147
161
214
105
108
157
53
48
93
89
90
134
146
160
208
144
165
220
146
167
223
149
168
221
156
172
221
171
184
228
196
205
235
239
243
249
232
237
251
223
230
251
212
219
244
197
207
234
181
194
229
167
183
228
154
173
224
149
165
216
135
147
195
138
153
203
142
164
220
143
165
222
139
149
203
85
81
133
57
50
96
107
113
157
149
167
217
143
165
222
145
166
224
148
167
223
152
170
223
166
179
227
189
200
234
230
235
243
220
226
242
209
216
240
195
205
236
181
195
231
168
185
227
157
177
226
152
172
226
147
162
214
58
68
112
87
95
141
140
152
207
128
142
196
103
109
161
65
61
110
65
62
103
147
154
190
151
170
215
141
164
219
149
166
223
153
167
222
151
168
221
161
176
224
183
194
230
215
225
241
202
213
237
191
203
234
182
196
234
171
189
232
161
178
224
148
165
213
133
149
201
124
135
190
90
97
139
80
83
124
76
74
126
69
68
118
68
69
117
58
60
103
96
99
131
207
210
234
167
179
215
155
172
222
128
136
186
108
114
162
150
165
217
157
174
222
174
188
227
195
204
231
173
183
217
151
163
204
133
141
183
118
120
159
98
100
141
79
80
123
60
59
106
67
61
109
93
89
126
65
61
96
45
42
83
50
49
95
61
62
110
61
63
109
106
109
145
126
124
157
85
86
126
102
109
153
101
103
139
112
115
152
155
171
223
149
170
221
165
182
226
148
146
172
113
113
146
87
88
128
73
72
113
64
60
99
57
53
93
51
47
90
48
42
88
51
42
87
52
45
84
51
46
82
53
50
87
55
55
99
61
62
111
64
65
114
74
75
118
53
49
90
40
35
77
47
45
84
106
102
133
156
157
189
147
159
210
151
170
222
161
179
226
168
170
200
141
145
182
114
119
163
101
108
153
95
102
146
86
93
139
76
82
131
79
85
135
84
90
138
57
59
107
49
48
94
50
48
91
59
59
102
62
63
112
65
65
118
66
67
114
58
55
99
52
47
89
47
42
81
68
64
100
72
70
111
72
75
125
116
127
178
158
172
218
196
207
238
179
193
231
166
182
229
159
176
224
156
172
218
149
166
215
143
161
213
143
161
215
143
161
213
122
138
193
109
121
175
91
98
148
66
69
115
60
61
106
68
67
116
74
77
128
61
66
113
63
67
110
76
78
121
61
63
107
54
55
98
57
58
99
56
59
102
94
97
136
208
216
237
191
202
233
178
193
233
168
185
228
160
178
222
154
174
222
151
172
225
147
169
223
146
166
220
147
170
227
150
171
227
139
154
204
77
80
127
57
56
99
89
90
135
131
142
195
125
141
192
122
137
185
137
149
198
117
126
177
97
106
151
91
97
138
73
74
118
85
82
121
223
228
244
208
216
242
192
203
238
177
191
230
166
182
224
158
176
222
152
172
224
148
169
222
146
166
221
143
165
222
148
167
220
127
136
185
72
66
115
67
62
110
126
133
181
152
173
223
147
171
223
149
170
223
149
167
221
154
169
224
151
166
219
148
161
212
144
153
204
147
152
198
237
238
249
223
228
248
207
214
243
188
199
234
173
187
227
163
179
224
157
174
223
151
170
222
146
167
223
145
166
222
150
166
217
116
119
164
69
59
106
79
75
127
138
151
204
145
170
221
143
168
220
144
168
222
147
168
223
151
169
225
154
172
226
159
178
230
171
184
235
184
194
235
246
244
250
234
236
251
218
223
247
199
207
239
180
193
232
170
184
227
162
178
226
157
175
227
153
174
229
150
171
226
148
161
209
105
106
147
69
61
106
99
101
155
149
166
223
147
169
221
147
169
220
148
169
220
151
169
222
157
172
226
160
177
227
166
184
229
179
194
235
196
208
237
248
247
250
241
242
252
228
231
248
209
217
242
190
203
235
175
188
226
162
172
219
146
157
207
127
140
189
109
118
167
103
105
149
88
83
123
74
70
112
135
141
189
160
177
230
148
171
225
148
170
222
152
170
221
157
173
222
164
178
225
171
184
228
181
194
232
197
207
238
214
222
241
249
249
251
243
245
252
235
238
250
220
227
245
202
214
239
164
174
207
121
128
170
94
101
148
76
83
129
68
71
116
77
73
117
84
77
119
85
80
119
108
106
146
136
140
182
158
168
211
161
177
226
158
175
226
164
179
225
172
186
227
182
193
231
196
203
237
212
218
242
227
233
247
250
250
252
246
248
253
241
244
252
231
237
250
215
223
244
193
200
228
168
177
212
152
161
202
140
148
195
136
141
189
127
128
176
107
106
153
119
118
163
96
95
138
90
89
129
111
109
147
142
152
194
164
180
226
172
186
226
180
193
229
193
203
234
208
215
240
222
228
246
236
241
250
251
251
253
248
251
253
245
249
252
239
243
250
229
233
248
214
220
242
200
209
237
187
198
232
179
190
231
178
186
230
170
177
224
162
170
218
168
180
232
161
175
225
153
165
211
142
152
195
142
155
196
172
187
225
183
196
229
192
204
233
206
215
238
220
227
242
233
238
248
242
245
250
252
252
254
250
252
253
247
252
251
245
248
251
240
240
251
226
231
247
212
221
243
197
210
237
188
200
234
182
194
231
178
191
231
178
191
234
178
190
232
179
191
233
180
193
233
180
196
234
183
197
233
187
201
234
196
207
236
206
216
241
219
227
244
231
237
245
241
245
249
247
249
250
