P3 24 24 255
173
162
104
174
164
112
143
138
101
112
109
88
120
119
106
118
120
109
117
119
109
125
126
116
122
127
119
115
119
112
125
122
116
135
132
124
160
160
154
207
209
204
216
218
212
217
217
210
202
204
200
118
125
123
129
139
136
160
175
170
166
183
177
152
167
162
109
124
120
139
153
152
175
167
109
151
147
102
123
125
96
129
130
114
139
136
127
130
129
120
129
130
120
133
137
129
115
132
131
67
83
83
97
98
98
124
124
117
168
171
164
218
219
213
215
217
208
213
218
206
177
179
174
103
105
104
146
154
151
159
172
168
166
180
176
137
149
145
107
120
117
133
145
144
149
149
99
140
140
105
144
146
125
150
149
136
146
140
129
133
129
118
136
134
122
123
127
117
124
155
152
102
132
133
65
75
77
94
102
98
150
155
150
179
182
177
202
205
198
199
202
193
132
133
129
102
104
104
151
158
156
155
166
162
163
176
171
123
134
130
124
135
133
138
148
148
137
143
105
141
143
120
141
141
127
142
138
126
141
132
120
137
130
118
142
138
124
117
118
107
95
121
119
91
116
121
29
35
43
58
64
65
82
90
88
116
122
119
192
196
191
205
208
201
167
168
165
170
172
171
191
196
194
193
201
199
199
207
204
183
191
188
191
199
198
194
202
203
148
154
127
145
146
133
144
143
133
145
140
128
142
135
124
141
136
124
146
143
130
149
148
138
154
162
163
138
150
156
83
81
90
109
111
114
161
171
171
191
201
200
219
224
222
223
225
222
227
229
227
230
232
232
228
230
229
228
231
230
229
233
231
229
234
233
227
231
232
222
227
229
167
166
147
161
158
151
151
151
140
146
145
132
149
146
137
167
165
156
196
197
187
217
217
208
228
230
229
224
232
235
191
193
198
168
179
178
189
204
203
210
221
222
222
227
228
223
224
224
224
226
225
224
227
226
224
226
225
224
225
224
225
226
225
223
225
224
219
220
221
219
220
223
164
161
146
158
156
147
149
150
138
150
151
140
185
184
180
220
219
216
226
228
223
222
224
219
217
219
217
213
220
219
210
215
216
196
207
204
193
206
205
192
201
202
198
203
204
209
210
211
209
210
210
209
210
209
207
209
209
207
211
209
195
199
198
196
200
198
200
203
203
206
207
209
146
144
132
145
145
133
146
148
137
167
168
163
223
224
224
222
223
223
204
206
205
196
199
198
195
199
198
194
198
196
192
195
194
194
199
197
195
203
202
162
170
169
174
180
180
200
204
205
201
202
203
202
203
202
200
203
202
198
206
203
162
171
168
171
179
176
195
200
199
201
204
203
149
147
135
150
150
140
152
153
145
194
195
191
228
229
229
216
219
218
201
207
205
196
204
201
197
205
202
197
205
202
198
206
203
200
208
205
200
211
209
192
202
201
193
202
201
205
212
212
207
212
211
207
212
210
205
212
210
205
214
211
199
207
205
194
200
198
213
217
216
221
223
223
151
149
138
149
149
140
161
162
155
147
148
144
159
161
160
212
219
217
192
203
199
183
197
192
184
198
193
183
196
191
183
196
191
184
198
193
185
200
197
188
202
199
186
198
196
192
202
201
194
204
201
194
205
201
195
205
202
198
209
205
195
203
201
199
204
202
222
225
224
225
225
225
152
149
141
156
156
149
145
145
140
44
45
42
49
51
50
177
186
183
179
195
189
165
185
178
172
190
184
174
192
186
175
193
187
177
195
189
176
195
190
175
193
189
176
191
188
184
197
194
184
199
195
185
201
196
188
201
196
190
202
197
193
201
198
217
220
219
228
230
229
232
230
231
157
154
147
154
153
148
108
109
105
13
14
12
11
14
13
122
132
129
141
159
154
119
142
135
129
151
144
134
156
149
137
158
152
141
162
155
141
163
157
140
160
155
143
161
157
158
174
171
165
183
178
171
190
184
177
193
188
184
197
193
195
202
200
155
156
156
127
127
127
203
200
201
158
157
149
155
156
151
103
105
103
10
12
12
1
4
4
75
83
83
118
132
132
105
124
123
110
134
129
107
131
126
109
130
126
111
131
128
111
132
129
113
134
131
112
132
129
118
137
134
127
145
141
133
152
148
139
158
154
168
183
179
153
159
159
35
35
37
5
5
7
87
86
88
153
153
144
154
155
150
79
81
80
5
7
8
11
14
15
55
63
64
113
125
127
109
124
126
117
132
132
121
135
135
124
135
137
126
136
138
126
136
138
127
137
139
126
137
138
130
141
142
135
146
146
136
150
148
136
154
150
157
171
169
87
94
94
0
0
2
5
5
7
18
18
20
156
156
147
141
142
136
35
37
35
9
11
12
38
42
43
71
79
81
59
71
73
51
65
68
58
70
72
60
71
73
63
71
74
66
73
76
68
74
78
70
76
80
74
80
84
83
89
93
86
91
94
89
98
99
92
107
106
102
116
115
40
46
47
0
0
0
4
4
6
7
7
9
162
162
153
126
127
121
23
25
24
20
22
24
54
58
59
87
95
96
76
87
90
75
92
94
70
95
94
67
91
91
67
88
88
67
87
88
69
87
88
68
86
87
65
83
84
67
84
86
67
80
82
64
77
78
60
77
77
66
79
80
22
28
30
0
0
2
30
30
32
30
30
32
163
163
154
106
107
102
17
19
17
37
40
41
91
95
96
122
131
132
93
104
106
73
91
93
66
97
96
65
95
95
67
94
94
69
95
96
73
96
97
77
98
100
80
101
103
84
105
107
83
105
105
83
107
106
88
110
110
81
95
98
17
21
25
10
10
12
51
51
53
69
69
71
169
170
161
96
97
92
23
25
24
61
62
64
91
94
95
91
98
100
98
109
110
58
75
76
57
84
84
56
83
83
56
80
82
57
79
81
60
79
82
64
82
86
66
84
87
66
85
88
63
88
88
61
92
89
71
96
96
69
82
86
15
18
23
25
25
27
95
95
97
137
137
139
173
175
165
92
93
88
42
43
42
84
83
85
129
128
131
101
104
105
103
113
112
66
80
79
57
79
79
53
75
76
50
72
73
50
72
73
52
72
73
54
73
75
58
77
78
58
77
79
58
80
80
58
84
83
66
89
89
65
79
82
16
20
24
47
47
49
135
135
137
170
170
172
178
180
171
96
97
92
59
59
58
115
114
116
182
181
183
169
171
173
138
146
146
147
159
158
123
141
141
100
118
119
84
103
103
73
91
91
64
82
82
59
76
76
56
73
74
55
72
73
55
73
73
54
75
74
59
80
79
59
73
75
22
26
30
75
75
77
127
127
129
137
137
139
176
177
168
108
109
103
59
59
58
138
138
140
156
156
158
186
187
189
128
132
133
160
167
167
172
184
185
176
188
189
174
186
187
171
182
184
162
174
175
152
164
165
140
153
154
129
141
142
119
132
132
107
123
123
100
117
116
89
101
103
43
47
49
123
122
125
168
168
170
141
141
143
172
173
164
127
128
122
44
44
43
140
140
142
114
114
116
80
80
82
54
54
56
37
39
41
51
56
57
78
83
85
103
108
109
130
135
137
156
163
163
175
183
184
191
198
199
202
210
211
210
218
218
207
219
218
201
215
213
169
180
179
67
71
72
159
159
161
219
219
221
188
188
190
164
165
156
146
147
142
42
42
41
94
95
96
149
149
151
95
95
97
62
61
63
1
0
3
0
0
0
0
0
1
23
23
25
37
37
39
35
38
39
47
50
51
66
70
71
91
95
95
111
115
116
128
136
136
149
161
159
141
150
149
58
61
62
163
163
165
219
219
221
184
183
185
161
162
154
161
162
157
82
82
81
26
26
27
102
102
106
110
109
113
32
31
36
1
0
3
2
2
3
7
6
7
87
86
87
125
125
126
107
108
106
100
102
99
103
105
102
96
97
95
87
87
87
78
81
81
68
73
73
54
59
58
32
34
35
157
158
160
201
201
203
151
151
153
