P3 24 24 255
239
224
214
231
210
200
226
208
205
160
153
164
125
122
139
181
171
181
213
198
197
211
195
190
194
182
180
185
171
169
183
168
165
182
167
164
184
169
165
163
152
155
140
143
165
137
133
149
180
167
172
193
176
176
170
153
152
182
167
166
193
178
177
182
166
165
172
157
156
173
155
156
245
225
215
235
214
205
229
211
210
145
137
148
77
73
100
97
91
122
155
146
166
192
183
198
143
136
151
136
127
135
180
168
166
179
164
158
176
160
156
157
145
151
133
135
158
96
96
112
154
147
153
161
149
150
159
145
145
172
158
158
175
161
161
173
159
158
170
156
155
173
155
156
239
221
210
224
209
204
213
200
202
198
185
188
101
95
119
69
72
115
87
93
134
101
107
143
65
69
100
70
71
94
157
150
155
183
166
155
175
157
148
154
143
151
119
122
146
64
68
86
126
126
132
150
142
142
167
154
153
165
152
151
165
152
150
163
151
148
163
151
148
165
149
149
223
210
205
154
145
155
122
114
132
203
194
201
136
134
158
63
73
119
71
85
131
66
79
123
48
57
97
47
54
89
108
106
121
193
183
174
193
183
168
161
157
156
95
101
126
39
45
66
110
109
117
171
159
159
178
162
158
177
161
158
171
155
152
167
152
148
167
151
148
164
149
148
167
163
167
78
76
104
63
63
99
151
151
169
125
132
157
56
71
118
60
79
128
71
89
136
46
60
104
35
46
89
62
68
95
174
174
182
191
191
190
137
141
150
59
68
98
33
40
66
116
113
126
189
173
173
194
173
167
204
186
179
206
187
182
186
167
162
181
162
157
183
167
162
99
101
118
57
62
101
53
61
104
79
88
113
78
90
119
50
69
115
57
79
129
63
85
134
41
59
105
42
58
101
51
63
100
77
84
117
82
88
124
78
85
126
63
75
114
46
54
88
94
93
115
194
179
185
205
185
179
195
177
168
201
183
175
204
185
180
211
192
188
219
201
193
65
70
98
47
59
97
39
53
92
38
51
81
50
64
97
49
68
111
47
70
117
38
60
109
42
60
107
58
75
119
54
69
115
49
61
112
54
64
121
74
83
140
82
94
139
64
75
116
61
63
95
138
129
145
201
186
185
191
175
166
189
172
166
198
181
179
209
192
192
213
198
196
49
56
93
41
56
87
32
50
78
31
46
78
44
58
94
39
57
96
26
47
93
27
48
96
47
64
111
54
69
118
54
69
122
58
73
126
55
69
120
65
78
125
85
98
143
84
96
143
73
79
120
88
86
111
167
158
164
181
169
163
170
159
156
183
171
172
171
159
164
146
141
153
41
52
89
33
49
77
26
44
69
28
44
77
31
47
79
22
39
75
23
41
89
38
56
108
49
66
114
61
75
126
55
68
122
61
75
126
65
78
121
69
82
119
83
95
139
97
108
153
101
108
147
110
112
143
116
114
137
95
94
112
78
82
96
99
104
118
95
98
117
72
81
115
35
51
85
28
45
73
24
41
67
20
36
68
17
34
64
18
36
70
32
49
98
49
65
118
61
77
125
63
78
124
48
60
109
62
73
122
85
95
138
96
106
143
100
110
149
115
123
161
124
131
166
122
127
162
68
74
110
43
54
89
46
64
95
81
98
130
76
88
124
56
67
110
30
47
79
25
42
70
22
39
65
17
33
64
14
32
65
21
40
77
44
58
106
69
80
130
76
85
130
70
83
120
84
98
136
88
98
141
95
104
144
111
120
154
123
130
160
120
127
160
107
115
152
66
74
114
48
61
95
48
66
97
58
73
112
83
92
134
85
85
123
98
94
119
26
43
74
23
40
66
19
36
61
16
33
62
17
35
67
39
57
93
76
88
131
95
101
146
107
110
151
123
134
164
111
125
155
77
87
123
92
101
137
133
140
170
134
140
162
119
125
155
77
84
123
52
62
105
53
69
106
53
71
107
65
73
118
87
86
123
122
114
133
157
143
146
24
41
70
20
38
63
17
34
58
16
33
60
47
63
92
104
117
147
132
141
175
144
147
184
154
155
191
139
148
176
67
80
107
59
68
101
114
122
154
162
169
195
144
151
170
94
101
131
64
72
111
69
78
118
66
78
115
74
81
119
106
105
139
142
135
152
160
151
147
166
154
144
22
39
66
18
36
60
13
31
54
21
39
66
121
134
157
169
177
196
156
162
185
153
157
185
154
156
188
102
111
140
37
48
79
95
103
136
146
152
181
158
165
187
126
135
158
68
76
110
73
80
119
82
91
123
99
102
128
135
128
146
168
155
160
176
163
156
170
160
149
133
132
126
19
36
63
16
34
57
8
26
48
40
57
83
180
191
210
200
204
216
155
159
174
154
158
181
129
134
164
70
78
112
69
78
112
138
145
177
157
163
190
149
156
179
84
96
124
70
79
114
93
99
132
119
125
147
157
154
162
190
175
169
200
183
165
184
170
155
128
121
120
45
54
63
18
34
62
12
30
55
15
31
55
82
94
121
181
189
212
191
197
212
166
169
186
144
149
173
82
92
124
63
70
103
120
126
152
156
162
183
154
156
183
108
110
145
84
92
125
113
120
141
142
143
151
124
121
124
129
121
121
130
121
118
121
116
117
96
98
108
42
50
70
16
32
53
18
34
62
11
29
55
33
49
74
118
127
154
179
185
209
183
188
206
175
178
196
104
112
132
37
51
76
45
56
74
144
151
166
158
162
183
122
121
152
103
99
136
132
131
154
171
169
175
162
157
151
94
84
80
101
89
89
99
91
92
72
71
81
41
48
67
21
35
60
15
33
57
16
32
61
15
32
60
43
57
85
130
137
163
181
182
206
179
179
200
168
171
187
74
84
98
20
35
48
24
37
42
144
152
163
140
140
165
123
118
145
162
152
172
197
185
186
209
197
189
162
149
138
97
82
78
107
92
92
127
116
114
111
107
111
58
62
76
31
42
64
18
35
59
14
30
59
20
37
68
53
65
95
150
153
178
183
181
203
168
167
189
148
152
169
49
60
71
26
40
47
75
86
92
149
152
167
146
142
160
182
173
180
221
208
199
234
215
198
231
211
193
215
197
182
177
158
152
143
125
122
122
107
103
114
107
105
99
100
108
71
79
97
25
40
64
15
32
61
34
50
83
71
81
113
172
172
195
183
181
200
163
164
185
144
150
169
71
79
92
101
108
115
170
169
180
174
168
180
191
181
184
218
205
190
233
217
189
238
219
195
240
220
199
242
223
207
238
220
210
225
205
198
188
170
162
174
164
155
166
164
166
96
101
117
24
38
61
21
39
69
48
63
98
88
96
130
181
179
201
184
183
198
163
168
186
151
158
179
121
125
145
143
141
155
187
175
178
208
193
185
220
204
187
216
199
177
226
208
187
238
222
204
239
224
207
238
222
207
237
221
206
238
218
206
218
197
186
190
178
164
169
165
161
85
88
101
23
36
59
31
48
78
61
75
110
109
118
150
189
191
210
174
177
193
151
157
178
117
121
140
124
120
135
175
162
169
211
194
184
220
202
180
222
204
178
221
202
181
223
204
191
228
213
199
236
222
209
239
224
210
235
219
205
232
214
202
212
193
183
188
176
162
183
176
169
121
118
124
34
44
61
41
56
85
89
102
133
136
145
171
196
202
217
166
172
187
138
141
159
143
139
147
193
179
174
219
197
183
223
204
183
221
204
182
220
203
181
219
202
184
221
202
188
220
201
187
227
209
196
231
213
201
222
205
194
212
196
187
200
186
178
191
178
169
193
181
173
176
166
161
86
90
98
72
85
115
118
128
158
159
163
185
199
200
211
174
173
177
172
167
166
208
198
188
220
204
183
222
201
175
222
204
180
221
204
184
219
202
184
220
204
187
221
203
187
219
199
184
218
200
187
214
196
185
200
183
173
192
177
169
191
178
170
188
175
167
194
180
172
192
179
172
145
145
147
