P3 24 24 255
83
52
54
86
54
59
99
78
82
101
101
102
73
74
75
101
100
101
114
125
134
99
143
173
101
151
190
100
146
185
100
140
175
95
139
173
103
150
187
115
165
205
109
160
195
94
144
175
91
141
177
108
158
198
120
172
212
123
145
169
194
171
170
230
201
190
239
232
207
222
229
177
94
77
73
91
76
77
61
59
62
23
36
45
26
41
49
23
37
45
55
77
90
90
134
165
96
149
190
97
148
193
99
144
184
93
137
171
93
139
176
108
157
197
112
163
200
101
151
185
94
144
179
102
152
190
116
166
203
131
156
176
185
170
167
225
199
190
229
221
194
208
217
158
91
81
73
78
74
75
31
37
43
28
32
48
31
34
51
29
31
48
33
44
62
71
107
132
96
144
181
99
148
191
99
144
183
95
138
172
88
134
171
96
145
185
112
162
202
107
156
195
93
143
179
96
146
179
110
160
191
138
168
182
182
177
172
221
196
191
233
223
200
206
214
156
135
124
114
121
118
117
40
49
55
34
46
57
25
37
48
24
36
47
19
33
44
35
60
76
95
133
161
108
151
188
102
146
182
96
141
177
89
136
174
85
135
175
99
149
191
110
160
203
98
149
186
92
145
177
107
157
187
148
180
192
181
181
174
219
195
193
233
221
206
213
220
174
108
103
87
141
138
127
50
52
52
37
48
58
30
43
53
27
39
50
17
29
38
26
43
52
113
141
158
95
134
160
89
134
167
97
144
182
95
140
179
92
134
175
94
138
180
107
156
198
110
162
202
99
154
193
103
155
190
166
195
211
199
196
192
213
191
190
235
215
213
240
237
221
67
69
46
93
93
79
56
56
57
38
45
55
34
42
52
32
40
51
21
30
40
35
48
56
62
79
89
28
48
61
40
65
83
56
85
107
63
88
112
63
84
109
59
81
107
59
86
112
74
105
129
91
125
148
100
141
171
161
190
208
211
209
206
199
177
172
222
197
199
226
213
212
103
116
82
67
71
57
47
46
53
32
36
46
33
38
47
32
36
45
26
32
41
29
38
46
17
24
30
15
18
21
13
18
22
9
18
25
14
19
27
14
15
24
15
17
25
15
19
26
16
25
31
22
34
38
36
59
75
147
171
185
222
227
225
160
145
137
111
100
95
115
118
111
138
160
116
62
71
57
40
39
50
33
35
41
31
33
38
28
30
36
30
32
38
21
23
30
12
15
22
15
18
25
17
22
28
21
27
33
17
20
28
15
15
23
23
22
28
24
24
28
17
21
24
27
35
37
125
132
136
230
240
243
143
156
155
50
52
50
73
64
57
72
71
55
140
159
111
54
61
49
39
41
49
33
36
47
35
35
40
33
33
37
25
28
33
11
13
20
11
14
21
14
24
32
17
32
39
22
35
44
18
26
37
18
21
34
21
22
33
18
22
28
28
36
41
146
153
157
246
248
249
178
182
186
61
71
76
37
46
47
130
111
100
160
142
120
165
175
119
60
63
43
39
40
48
36
41
54
36
34
38
50
50
51
37
44
48
14
21
27
16
19
26
19
31
34
21
39
43
23
37
47
19
29
39
26
30
43
27
28
39
39
45
51
141
152
155
242
247
250
187
190
194
46
50
59
32
36
46
44
50
50
137
128
105
191
186
148
217
224
162
103
106
69
42
40
48
39
41
50
35
33
33
60
63
63
63
75
78
25
36
40
21
25
32
23
32
37
29
43
48
31
42
50
27
36
45
30
39
48
18
24
32
62
71
76
219
233
234
244
252
255
117
121
126
22
26
36
30
35
45
49
54
54
131
141
111
172
186
138
208
220
167
154
164
122
54
58
46
35
34
35
53
49
46
119
125
123
141
158
161
49
64
67
22
27
34
21
27
33
31
40
45
31
37
43
54
63
69
51
64
68
34
44
49
121
133
137
230
248
249
232
243
247
100
105
111
26
30
39
35
39
49
32
38
38
86
100
78
186
199
155
142
160
123
132
151
114
90
106
70
48
47
39
105
102
95
192
201
197
193
212
214
66
83
85
25
31
37
21
26
33
25
30
36
33
37
41
117
128
129
120
137
136
144
158
159
220
234
236
232
251
251
228
241
244
103
110
114
30
35
44
29
34
44
20
26
27
72
78
69
208
211
177
134
158
119
130
155
115
114
135
97
109
116
98
164
173
159
200
216
207
176
193
191
58
70
73
31
41
47
23
32
42
23
29
39
67
75
80
177
196
194
181
202
197
212
228
224
229
244
242
215
231
229
220
232
231
98
108
108
25
34
40
18
26
36
37
46
49
87
95
83
176
187
152
130
155
115
129
154
114
121
144
107
139
156
133
185
203
187
187
206
197
163
180
177
55
64
66
25
34
39
26
35
44
21
29
40
90
103
111
203
226
227
205
227
225
214
229
227
203
215
214
186
197
196
206
219
217
109
121
119
29
39
42
24
33
41
50
60
61
125
138
129
149
170
142
124
149
109
122
147
107
122
146
108
127
148
117
149
168
144
162
178
162
139
152
144
39
45
45
12
18
21
22
26
34
31
36
46
109
122
129
197
216
218
194
208
208
190
195
192
171
168
164
155
149
146
184
192
184
140
154
145
35
45
45
31
40
45
62
73
71
160
177
172
168
192
173
116
141
101
116
141
101
119
143
101
125
143
99
120
133
95
130
137
109
135
138
121
53
55
53
19
21
24
27
28
34
43
44
50
117
121
122
158
165
162
156
155
151
164
153
144
169
147
135
162
135
125
156
151
132
148
160
144
76
86
84
33
43
45
66
77
71
161
175
169
153
173
154
118
142
102
121
141
103
122
138
100
121
136
93
108
124
83
108
117
81
135
139
115
95
102
97
30
34
35
32
36
42
51
57
59
92
95
87
110
106
94
135
118
104
166
142
124
191
156
139
188
148
133
160
144
120
128
135
112
120
130
118
46
54
50
29
37
36
106
120
111
130
150
126
120
143
104
124
142
104
125
139
103
112
130
93
101
124
86
93
109
72
124
132
104
134
142
130
40
40
36
31
33
33
48
60
54
69
81
64
83
83
63
108
98
73
152
135
110
185
156
137
186
153
135
143
130
106
113
120
94
124
133
114
116
123
114
32
37
40
78
92
82
127
149
122
116
140
101
120
143
104
119
140
102
110
131
95
103
128
91
101
120
85
131
140
112
149
152
135
72
67
54
58
57
43
56
68
48
75
95
69
91
107
79
89
101
69
105
109
80
133
126
103
141
131
109
110
112
85
100
110
82
126
136
113
186
193
182
71
77
76
55
68
58
110
129
103
115
141
101
117
146
104
112
141
100
110
134
100
107
136
101
116
138
105
136
148
122
163
169
152
156
154
138
104
107
86
90
103
75
103
123
89
111
133
98
96
122
85
100
122
90
102
119
92
108
125
97
105
122
95
106
121
91
131
141
115
178
186
172
162
168
165
59
70
60
103
119
94
119
146
105
114
147
104
116
149
108
126
152
118
120
148
114
117
140
107
139
156
129
184
200
182
179
189
171
122
135
110
124
139
109
120
135
100
123
144
108
117
145
109
122
152
118
110
139
108
115
144
114
122
148
118
120
137
107
122
134
107
163
173
156
217
226
217
124
135
121
136
150
124
123
152
111
118
153
109
119
155
112
124
152
115
121
148
111
117
143
106
126
154
118
130
161
128
127
152
121
127
149
118
135
153
123
136
151
122
124
145
114
134
162
128
134
161
128
130
155
123
135
160
128
135
159
128
132
154
127
138
157
134
168
184
163
152
165
146
122
136
109
127
142
110
121
148
110
123
154
114
117
151
110
118
152
112
114
149
109
112
147
106
111
145
106
119
149
115
128
155
122
129
154
121
133
155
124
140
160
129
131
153
122
137
162
130
142
167
135
137
161
129
133
157
125
134
158
126
134
157
128
140
161
135
139
157
132
126
141
117
120
135
105
124
139
106
