P3 24 24 255
194
144
139
199
148
140
204
151
142
211
155
144
216
159
144
224
167
147
230
173
151
234
177
153
238
185
155
240
190
154
246
195
158
251
202
164
252
206
165
250
205
162
250
203
159
251
203
159
250
203
160
248
199
157
247
195
155
245
192
154
240
187
151
236
183
152
232
179
152
228
173
151
203
150
142
207
154
143
213
157
144
219
161
145
223
166
146
227
171
148
231
176
150
236
181
153
232
181
148
230
186
148
246
200
159
250
205
163
252
209
165
252
212
166
254
216
167
255
217
168
254
216
167
253
211
165
251
206
161
250
201
159
245
196
155
241
190
153
237
184
152
232
178
152
196
145
138
202
148
138
206
150
138
213
154
140
218
159
141
222
163
142
227
167
145
232
173
148
197
146
120
203
163
134
231
186
150
247
201
161
251
207
164
254
213
166
254
217
169
251
217
170
253
217
169
253
212
163
251
205
157
247
199
155
243
193
152
240
184
149
235
177
147
229
171
146
183
136
132
189
138
132
196
142
134
202
146
136
208
150
137
213
154
138
219
158
141
227
163
145
201
147
128
160
120
101
219
169
139
246
194
158
249
200
159
253
207
161
246
208
161
227
197
151
243
207
161
254
208
160
250
201
154
245
193
151
239
184
147
236
175
144
229
168
142
222
161
141
168
128
130
175
130
130
182
133
131
188
137
133
194
140
134
200
143
134
205
146
138
214
150
138
209
153
138
148
106
93
217
159
135
241
181
148
245
188
149
252
197
154
241
198
153
197
165
123
233
194
150
254
202
156
248
192
150
241
182
146
234
171
142
227
163
139
219
156
137
210
151
136
154
121
127
160
121
126
165
124
127
170
126
127
175
128
127
182
131
128
187
134
131
198
137
130
199
143
132
157
112
102
212
148
130
232
164
138
238
173
140
247
185
146
235
184
144
174
140
101
235
188
147
251
188
148
240
177
142
232
166
140
223
157
136
212
149
133
203
144
131
193
139
130
140
113
123
142
113
123
146
115
124
150
117
125
155
119
125
160
122
125
165
125
124
175
126
125
179
129
127
147
105
98
183
127
118
213
149
135
224
155
134
238
168
141
219
165
132
184
146
108
241
186
147
240
170
138
226
159
134
215
150
133
204
141
130
192
136
128
182
132
127
172
128
125
126
106
119
128
106
119
130
107
120
133
109
121
137
111
120
141
115
120
144
118
121
152
118
122
159
121
125
145
112
112
117
87
82
146
106
99
199
140
132
205
141
131
168
119
96
210
167
131
233
177
143
217
152
129
202
141
126
189
134
124
176
127
121
166
123
122
158
120
122
150
117
120
112
101
115
115
101
116
116
101
118
119
103
119
121
107
118
109
96
102
98
86
92
111
94
102
122
98
106
133
110
116
113
95
97
64
45
45
114
85
85
111
71
72
151
102
96
218
162
140
211
150
131
188
132
124
171
123
119
159
119
118
149
116
118
141
113
120
136
111
120
131
110
119
102
95
112
103
94
113
105
95
115
107
97
115
90
83
94
37
33
36
16
13
17
26
20
26
32
23
28
55
43
47
102
86
92
36
29
33
13
9
10
71
52
57
160
117
122
175
124
121
171
120
119
156
114
119
142
110
116
134
107
116
127
107
117
122
105
118
118
103
117
115
102
116
94
89
110
97
89
111
99
90
113
95
88
106
36
33
41
2
2
3
2
1
2
2
1
2
1
1
0
4
2
1
24
18
20
9
11
11
5
6
8
89
75
81
134
107
115
133
107
117
134
107
117
127
104
114
120
101
113
116
99
113
112
98
114
109
98
114
106
97
113
105
97
111
88
85
108
89
85
111
90
87
111
83
82
98
19
19
25
0
1
0
2
2
2
2
2
2
2
2
1
2
2
2
1
1
1
0
2
0
10
10
12
87
79
90
105
90
107
106
93
108
111
98
113
108
95
111
105
95
109
99
89
103
100
90
109
99
93
111
97
93
109
96
92
109
85
83
105
85
83
107
85
84
108
77
78
94
16
17
22
0
0
0
1
1
1
1
1
1
0
0
0
1
1
1
2
2
1
1
1
0
11
10
16
80
76
92
91
83
101
92
84
100
99
90
109
95
89
109
93
89
105
84
79
94
88
83
104
91
87
109
89
86
107
89
85
106
81
79
101
81
80
102
81
81
103
76
77
93
19
19
25
0
0
0
1
1
1
1
1
1
0
0
0
0
0
0
2
2
0
1
1
3
35
34
45
86
83
101
85
82
98
79
76
92
89
85
105
87
85
106
84
84
102
74
74
93
83
82
104
86
84
108
85
83
106
84
81
105
78
79
99
78
79
98
78
79
99
77
79
95
26
26
32
0
0
0
1
1
1
1
1
1
1
1
1
1
1
1
0
0
0
8
7
14
69
67
82
88
85
104
85
84
100
69
69
81
62
61
76
64
65
82
63
66
84
73
75
97
81
83
104
81
81
104
82
81
105
81
80
104
69
72
91
66
68
85
69
71
89
75
77
93
27
28
33
0
0
0
0
0
0
0
0
0
0
0
0
0
0
0
8
7
11
44
42
54
82
79
95
84
81
98
82
80
98
48
47
56
18
17
23
28
29
38
67
69
85
79
80
101
79
81
99
78
80
100
78
79
100
78
79
100
53
55
72
29
32
44
37
39
52
69
69
84
25
26
30
0
0
1
18
18
25
32
32
39
19
19
24
3
3
7
44
42
54
80
77
94
81
78
96
81
79
96
70
68
84
17
17
20
0
0
0
19
20
27
75
76
93
77
78
99
77
79
96
77
78
97
76
77
97
76
77
97
30
32
45
14
17
25
17
19
27
50
49
63
22
22
28
28
29
35
63
64
80
74
75
89
51
51
61
19
18
26
71
68
85
79
76
96
78
75
94
78
75
95
55
52
66
6
6
6
0
0
0
18
18
27
70
72
88
74
75
95
74
76
93
74
76
91
73
74
90
72
74
90
7
9
14
9
11
17
14
16
22
32
32
43
22
23
30
56
56
68
72
72
94
72
73
90
46
46
56
21
20
27
68
66
83
71
68
88
70
67
87
71
68
87
48
46
57
3
3
4
0
0
0
12
12
19
63
63
78
69
68
88
69
69
87
68
69
86
67
68
85
67
68
85
0
1
1
4
5
9
21
21
26
28
28
37
13
14
19
41
40
51
56
57
76
59
60
74
33
33
41
19
18
24
57
55
69
65
62
78
63
60
76
63
61
75
47
46
54
5
4
6
0
0
0
18
18
22
67
66
79
70
68
88
68
66
86
67
67
89
67
67
91
66
66
89
1
1
1
3
3
5
10
10
14
6
7
13
2
3
4
9
11
14
18
20
28
22
25
31
12
12
17
12
11
16
31
29
38
40
38
48
31
29
39
28
26
34
19
19
23
2
2
4
0
0
0
20
20
22
59
58
68
68
65
84
71
68
88
63
63
79
46
47
62
44
46
61
0
0
1
0
0
1
0
0
2
0
0
3
0
1
0
0
1
0
0
1
1
0
1
1
0
1
3
1
1
4
3
3
6
5
4
8
2
1
5
1
1
4
2
2
4
1
1
2
0
0
0
3
3
4
12
11
17
33
31
44
55
53
67
30
31
35
4
6
7
4
7
8
0
0
0
0
0
0
0
0
0
0
0
1
0
0
0
0
0
0
0
0
0
0
0
0
0
0
0
0
0
1
1
1
1
1
1
1
2
2
2
2
2
2
2
2
2
2
2
2
2
2
2
2
2
2
1
1
1
5
5
6
16
16
18
6
6
6
1
1
1
1
1
1
0
0
0
0
0
0
0
0
0
0
0
0
0
0
0
0
0
0
0
0
0
0
0
0
0
0
0
0
0
0
1
1
1
1
1
1
3
3
3
3
3
3
2
2
2
2
2
2
3
3
3
2
2
2
0
0
0
3
3
2
3
3
2
2
2
2
0
0
0
0
0
0
