P3 24 24 255
215
215
248
216
215
243
224
225
245
234
236
249
243
246
254
240
243
252
212
218
236
210
217
240
229
236
253
232
237
249
190
190
200
222
222
243
229
231
251
231
233
248
238
239
249
246
246
255
213
209
220
193
188
201
206
211
236
215
219
240
236
235
243
239
243
247
246
247
249
251
251
253
200
203
241
202
203
239
209
211
242
219
222
247
228
231
252
219
223
244
201
209
233
198
207
236
200
209
239
202
207
230
180
180
193
202
204
233
206
210
247
206
210
238
211
214
236
223
224
247
204
201
220
199
196
209
206
213
239
217
222
243
242
242
250
239
245
250
243
247
250
249
251
254
204
210
247
206
212
247
208
214
248
209
215
247
211
217
246
208
215
243
205
216
243
201
213
244
201
211
242
203
209
233
176
177
191
202
207
238
204
211
249
203
211
242
205
211
238
206
210
239
190
191
213
186
185
198
205
213
240
230
236
255
246
246
255
247
254
255
244
250
254
245
250
253
206
216
247
207
217
247
210
219
251
210
219
252
208
218
250
209
219
249
207
218
249
201
214
248
204
216
249
206
212
238
171
172
187
204
211
240
203
215
250
205
216
246
203
213
241
202
210
239
185
187
210
180
179
190
204
213
242
209
215
247
223
224
246
230
237
249
222
230
241
217
224
237
210
224
251
211
223
250
212
223
251
212
223
253
212
223
253
207
219
249
209
222
251
203
218
250
209
222
252
208
216
240
171
172
188
213
221
247
215
226
255
217
228
254
207
221
244
202
215
242
183
189
212
179
182
191
211
220
249
207
214
249
211
215
240
212
221
240
208
219
237
206
217
236
210
227
252
214
227
250
219
228
252
225
233
254
217
229
251
215
229
250
218
228
250
207
220
242
215
229
248
205
214
232
150
151
167
170
173
196
163
164
194
169
173
197
190
205
220
207
220
245
183
188
214
177
185
189
214
222
246
212
220
250
212
223
243
211
223
241
208
223
245
209
224
248
223
235
249
224
234
244
227
234
246
231
237
249
228
236
249
227
236
247
228
227
239
227
228
242
228
231
250
187
185
209
138
129
156
145
142
164
148
143
168
140
135
159
133
142
154
172
179
198
179
177
195
178
179
177
225
224
239
225
227
243
212
216
227
216
221
235
219
226
245
219
227
247
233
237
237
237
242
238
240
241
239
239
239
240
236
239
239
223
225
223
213
201
197
222
211
212
210
200
212
185
172
196
193
175
207
175
167
188
170
161
181
140
128
150
84
83
96
110
109
120
140
129
136
170
159
153
212
200
202
212
204
203
217
210
208
219
211
222
218
213
227
222
218
231
225
223
212
227
226
211
216
210
200
214
208
200
207
203
197
208
205
196
209
195
178
214
201
188
196
184
183
115
102
116
112
96
122
65
59
79
66
57
74
93
77
98
65
58
74
102
95
103
121
105
104
164
146
136
196
178
169
201
187
171
203
189
179
184
168
179
180
168
181
199
188
198
204
198
183
205
198
181
202
190
179
182
168
161
174
164
160
187
179
175
192
184
175
191
185
177
164
159
158
99
96
106
62
59
79
49
51
72
67
61
78
123
108
128
71
61
82
102
93
105
127
111
108
167
148
139
194
176
163
195
180
157
190
176
162
128
110
125
119
104
122
139
126
141
193
186
172
194
182
169
195
180
171
153
136
135
159
144
148
159
150
162
143
141
172
144
145
173
130
134
159
96
102
130
77
85
118
74
83
114
74
71
90
98
86
102
85
78
101
111
107
123
130
120
119
172
156
148
201
187
175
196
186
164
173
162
151
116
102
121
106
93
118
103
92
114
189
182
168
186
174
163
170
153
150
141
123
129
146
129
141
124
114
142
89
90
159
95
97
162
102
104
160
103
108
162
93
102
159
87
96
140
113
109
126
146
134
140
107
100
119
120
117
138
132
125
128
155
144
135
183
173
162
189
182
164
138
130
123
105
94
115
101
92
122
97
88
117
190
185
167
173
163
151
130
115
113
111
94
101
100
85
99
95
85
117
75
73
146
74
70
139
78
72
133
77
72
133
72
72
137
67
66
118
96
85
97
152
134
125
82
71
81
70
64
86
105
98
101
138
127
111
145
134
124
160
151
139
138
130
125
132
121
138
102
92
121
97
87
119
155
149
128
150
144
128
109
97
91
98
83
89
88
75
89
90
81
106
74
70
114
75
64
104
77
61
98
77
61
103
72
58
111
70
57
107
99
79
85
155
130
106
126
109
109
84
73
94
103
91
94
137
125
101
138
123
111
133
120
111
133
121
115
122
109
119
98
85
112
91
78
109
131
126
99
131
126
108
100
90
85
92
80
87
89
76
88
88
74
89
77
57
75
78
51
63
84
52
60
82
53
66
77
54
78
77
59
86
111
86
81
165
135
104
161
134
123
125
102
113
117
97
91
155
139
102
175
160
140
162
152
141
140
132
123
125
117
116
117
104
117
103
88
109
126
120
90
129
121
104
104
94
95
97
84
94
97
81
87
94
72
75
97
60
72
107
58
61
114
59
52
119
70
62
99
61
59
89
65
62
123
101
84
165
136
109
141
106
84
148
112
105
132
101
86
167
150
106
175
164
140
134
131
124
117
117
112
115
114
104
126
112
105
125
108
111
138
123
95
145
128
111
109
95
94
107
91
96
107
82
83
111
84
79
146
121
119
130
84
72
137
69
51
145
72
59
140
74
73
117
72
74
131
101
89
172
148
123
108
83
58
108
76
64
131
99
91
163
147
130
142
129
128
99
87
101
78
63
76
100
81
84
127
106
98
139
120
117
154
127
105
140
112
98
102
84
79
106
88
87
122
91
86
134
98
87
172
148
133
143
93
68
153
74
43
171
86
68
154
77
79
131
73
83
140
101
98
170
147
126
124
104
79
107
78
65
137
105
104
139
123
128
119
100
117
127
101
125
118
84
104
131
90
99
134
102
95
134
111
107
138
103
89
110
76
68
107
90
86
107
92
88
126
94
86
131
84
73
147
97
85
154
84
57
179
96
60
166
93
69
102
52
49
92
50
57
123
82
80
139
103
85
117
83
59
107
70
55
121
87
81
128
107
104
118
93
99
120
87
96
128
85
90
132
85
80
146
109
98
127
100
94
131
95
87
112
78
77
127
112
110
118
109
103
133
107
97
120
71
62
137
64
59
160
76
54
194
116
81
129
82
55
76
66
57
71
59
57
94
59
51
134
78
61
142
79
59
127
75
58
130
92
75
121
91
69
119
88
71
133
98
86
134
94
82
112
71
54
146
110
95
149
121
112
127
96
89
110
82
83
133
124
122
170
165
159
160
142
132
115
76
67
131
65
61
162
90
73
175
115
87
106
79
58
140
149
141
101
114
101
86
61
45
151
78
63
162
73
58
132
67
52
115
73
54
99
60
34
120
83
61
136
101
84
130
100
87
96
70
58
140
110
97
146
120
110
91
68
58
84
62
58
86
76
70
102
96
87
119
106
93
111
88
72
113
75
61
133
91
73
133
96
76
104
83
71
187
184
182
134
148
135
81
63
46
144
70
57
160
68
58
135
70
60
98
58
47
104
62
54
125
87
79
110
80
73
91
70
69
69
55
56
109
86
79
124
103
92
104
87
68
114
95
80
111
94
80
103
89
73
90
78
58
91
80
55
100
85
59
101
85
62
105
87
73
109
90
84
184
165
164
150
147
142
81
63
53
131
76
66
136
69
62
124
74
71
109
76
79
93
61
70
115
85
88
107
84
83
87
74
74
88
83
85
116
102
96
203
192
180
219
207
178
226
206
179
229
204
182
228
205
182
208
194
166
189
180
147
190
175
142
172
163
139
128
121
109
114
101
94
203
181
173
171
150
152
78
56
58
95
68
60
90
60
54
76
46
51
64
40
54
66
49
62
102
85
87
158
145
134
213
208
192
242
242
226
245
240
230
255
251
239
