P3 24 24 255
209
212
214
202
210
212
196
207
207
190
204
204
184
199
199
178
194
193
176
190
190
173
185
185
168
178
179
159
168
170
151
158
161
150
158
160
147
155
157
141
149
151
138
145
147
134
143
144
129
137
139
127
136
138
127
135
137
127
135
135
131
136
134
136
141
141
164
172
173
179
190
191
209
212
214
202
210
212
194
205
206
188
202
202
182
197
196
178
193
192
175
189
188
171
181
182
165
172
174
158
163
166
147
154
155
139
146
147
129
136
137
123
130
131
122
129
130
127
133
136
130
136
139
129
135
137
125
132
134
121
127
129
120
123
122
125
129
130
158
165
168
167
176
180
208
211
213
202
209
212
194
205
206
187
201
201
182
197
196
180
192
192
175
185
186
161
168
171
159
164
167
164
167
170
164
168
168
147
151
150
126
129
129
119
123
122
111
115
115
109
112
115
122
125
128
130
133
136
127
130
133
124
128
130
123
128
129
148
154
157
177
186
190
157
170
175
209
212
214
202
209
212
195
206
207
188
202
202
183
198
197
182
193
194
168
176
178
147
152
155
166
168
172
173
173
176
175
176
175
170
171
169
157
158
156
135
136
133
126
127
126
115
115
118
116
116
121
135
135
140
149
148
153
134
136
140
137
144
147
158
168
171
158
170
175
121
136
144
211
214
216
204
211
214
197
207
208
189
202
202
184
197
197
184
191
193
161
165
168
141
143
147
177
176
181
196
194
198
188
188
185
175
175
170
160
160
156
149
149
144
130
129
127
119
118
122
123
122
127
144
143
147
127
125
130
93
94
98
108
117
121
113
125
130
97
111
117
93
109
118
212
216
219
208
213
216
201
207
209
194
201
203
189
195
197
185
188
189
162
163
164
146
147
148
184
184
185
209
208
208
191
189
184
170
168
161
160
157
151
153
150
144
134
132
127
117
119
118
125
127
128
132
134
135
89
91
92
63
68
69
79
91
94
84
97
101
96
110
114
105
120
125
213
217
220
210
214
217
203
207
210
197
201
204
192
196
198
180
181
182
165
165
164
166
166
165
182
182
182
206
206
205
200
198
193
186
184
178
175
173
167
160
158
152
155
155
149
136
139
137
125
129
128
135
139
138
87
91
90
74
80
80
89
102
105
92
107
110
128
142
145
131
145
148
212
216
219
209
213
216
203
207
210
197
201
204
184
188
190
162
163
163
153
153
153
165
165
165
175
175
175
194
194
193
189
189
186
174
175
171
166
166
162
134
134
130
168
169
165
160
164
162
141
145
144
143
147
146
84
88
87
68
74
74
86
99
101
102
116
120
134
148
151
142
156
159
212
216
219
210
214
217
202
206
209
176
181
184
148
152
154
139
139
140
141
141
141
153
153
153
150
150
150
159
160
159
138
139
138
127
129
127
145
146
145
82
84
82
141
143
141
188
192
191
142
146
145
95
99
98
77
81
80
54
60
60
83
96
98
99
113
116
120
134
137
144
158
161
215
219
221
209
213
216
169
173
176
136
139
142
132
135
138
134
134
135
133
133
133
145
145
145
145
145
145
149
149
149
157
160
160
152
156
156
130
133
133
111
114
114
135
138
138
190
194
193
154
158
157
102
106
105
67
70
69
50
56
56
93
105
107
115
129
133
124
139
143
126
140
144
220
220
219
192
193
195
133
134
135
127
129
130
134
135
136
134
134
134
129
129
129
132
132
132
158
158
158
163
163
163
169
169
170
167
168
169
141
142
142
155
157
157
175
176
176
148
148
146
150
151
149
118
122
121
54
60
60
57
63
63
113
124
124
132
153
162
113
141
155
116
138
147
206
205
204
150
150
150
125
125
125
128
128
128
131
131
131
132
132
132
137
137
137
136
136
136
140
140
140
170
170
170
196
196
196
214
214
214
215
214
214
209
209
209
202
201
201
164
164
160
171
171
169
117
120
119
48
54
55
56
64
66
135
150
153
131
160
174
114
151
173
124
154
169
173
173
172
126
126
126
130
130
130
132
132
132
131
131
131
134
134
134
148
148
148
149
149
149
133
133
133
140
140
140
172
172
172
200
200
200
214
214
214
217
217
217
206
206
205
179
179
175
151
151
149
124
127
126
81
88
88
85
96
98
139
161
169
130
162
178
113
151
172
129
163
182
134
134
134
117
116
116
120
120
120
130
130
130
132
132
132
134
134
134
154
154
154
165
165
165
154
154
154
150
150
150
153
153
153
162
162
162
171
171
171
181
181
181
180
180
179
168
168
165
164
165
162
152
155
154
123
130
130
123
134
138
139
162
172
149
177
191
133
164
181
152
184
202
112
113
113
115
115
115
116
116
116
123
123
123
132
132
132
134
134
134
148
148
148
161
161
161
171
171
171
179
179
179
180
180
180
170
170
170
174
174
174
182
183
182
185
184
184
181
181
178
172
173
170
176
178
178
149
155
156
137
147
151
146
165
173
169
189
197
177
198
207
151
177
189
109
110
111
114
114
114
119
120
120
139
139
139
137
137
137
133
133
133
150
150
150
161
161
161
175
175
175
183
184
184
175
178
177
188
190
190
196
198
198
205
208
207
203
206
205
169
172
172
176
174
177
201
197
201
155
159
161
145
159
162
137
158
168
177
192
197
213
223
226
171
186
193
117
118
119
127
126
126
126
126
126
147
147
147
152
152
152
138
138
138
145
145
145
157
157
157
155
155
155
169
170
170
175
179
178
183
187
186
206
210
209
211
215
213
202
207
206
165
171
173
172
171
176
171
167
173
172
174
177
162
175
179
146
166
176
179
191
197
228
234
236
213
222
226
118
121
122
134
134
133
141
141
141
144
144
144
152
152
152
166
166
166
161
161
161
174
174
174
178
178
178
194
194
194
204
207
206
185
189
188
189
193
192
195
199
198
186
191
191
141
151
152
135
142
144
174
177
180
193
196
199
168
175
179
149
164
171
159
171
177
198
207
210
224
232
234
129
131
133
161
161
160
157
157
157
147
147
147
155
155
155
189
189
189
199
199
199
176
177
176
159
159
159
153
154
154
155
158
158
164
168
167
171
175
174
158
162
161
148
153
152
129
142
141
141
156
156
170
182
182
189
193
196
180
180
185
148
156
161
149
161
166
172
183
187
206
211
212
133
135
137
159
158
157
151
151
151
138
137
137
153
152
152
187
186
187
221
221
221
205
205
205
178
178
178
156
156
156
160
164
163
175
179
178
176
180
179
147
151
150
124
129
128
151
166
165
158
179
177
158
176
175
180
184
187
184
180
185
163
168
169
162
173
177
173
186
191
212
215
214
135
132
133
163
157
155
155
151
150
148
144
144
159
156
157
179
178
180
215
214
217
220
219
222
197
196
200
188
187
190
169
172
172
143
147
146
161
165
164
161
165
164
108
114
112
136
150
147
167
183
180
183
196
193
191
196
196
191
190
191
175
176
176
163
168
169
190
195
197
231
232
232
136
137
141
154
152
155
165
163
166
185
183
185
182
180
182
171
173
176
185
188
190
193
196
199
186
189
192
180
183
185
178
182
182
172
176
175
156
160
159
151
155
154
143
149
147
156
167
164
192
203
199
211
218
215
228
232
231
237
239
238
219
219
219
202
202
202
217
217
217
238
238
238
117
120
123
153
157
162
181
184
187
197
198
202
191
192
194
170
176
175
156
163
161
176
184
182
195
203
201
199
205
204
202
206
205
198
202
201
161
165
164
143
147
146
159
165
163
184
193
190
208
217
214
223
229
227
234
236
235
244
244
244
245
245
245
232
232
232
225
225
225
242
242
242
118
102
86
149
138
126
183
177
169
202
200
196
207
208
207
193
196
194
166
169
167
177
180
177
200
203
200
215
218
216
218
222
221
210
214
213
189
193
192
170
174
173
173
178
177
187
193
191
206
211
209
228
230
229
234
233
233
237
235
235
234
234
234
231
231
231
229
229
229
233
233
233
