P3 24 24 255
110
110
108
130
131
130
121
126
127
173
177
175
146
149
142
88
96
91
88
97
102
91
100
103
78
86
80
88
89
85
81
82
73
57
59
45
62
65
46
135
138
122
207
208
198
215
216
209
209
209
205
193
194
189
203
204
201
137
140
142
101
105
107
95
99
99
97
99
95
100
100
97
93
95
85
110
113
104
75
81
72
104
98
89
121
103
93
96
93
86
60
66
72
88
93
102
75
79
79
76
77
71
78
80
69
47
49
33
58
61
43
97
99
84
158
160
150
167
168
161
146
147
140
128
129
122
113
114
109
91
95
96
86
89
93
93
96
103
82
84
83
88
89
81
80
83
65
87
90
72
113
115
96
88
81
60
90
72
50
102
98
77
104
107
102
97
98
102
91
91
95
93
92
100
96
95
99
80
81
79
70
72
60
102
104
93
129
130
125
100
101
96
79
80
73
77
78
71
80
82
73
88
94
84
109
113
112
126
129
136
96
98
96
86
87
81
103
107
78
106
109
80
150
151
118
143
144
107
125
126
84
136
140
97
148
151
126
157
158
147
157
159
144
153
154
138
158
160
139
139
142
113
125
133
83
154
162
109
152
159
112
140
148
100
134
143
93
133
141
93
130
138
87
132
145
80
139
151
95
133
144
97
125
135
84
101
109
64
156
164
88
158
167
89
157
168
84
162
175
92
158
172
91
161
173
88
153
161
97
144
152
99
148
158
88
153
160
83
161
166
87
158
166
83
155
171
83
163
173
84
162
173
79
158
173
81
165
176
94
167
174
101
163
167
98
163
170
90
156
162
84
136
141
67
129
143
68
108
126
63
142
161
54
146
164
57
150
165
58
151
164
62
153
165
69
150
174
63
150
175
59
153
165
65
163
166
80
169
175
91
164
178
98
164
183
108
163
172
114
163
169
112
168
171
109
164
170
97
162
169
87
162
164
82
159
160
75
148
159
66
136
145
71
123
128
76
105
120
59
87
105
48
136
161
49
137
162
47
142
168
44
143
167
47
143
167
53
146
167
59
153
171
50
155
163
60
159
144
98
183
153
144
194
175
176
219
194
207
233
208
211
225
226
214
230
235
223
234
232
215
220
222
188
203
202
155
180
180
119
148
163
83
134
151
64
123
142
48
124
143
45
122
141
48
137
158
51
142
158
53
157
150
58
161
151
64
169
157
76
187
155
92
186
156
107
127
122
86
86
80
56
117
92
69
127
90
76
169
90
97
189
112
127
179
175
172
192
217
208
214
225
229
231
240
247
241
247
242
241
245
232
230
231
206
204
208
155
183
193
109
160
175
72
150
169
51
160
135
66
187
147
92
202
122
104
186
99
89
178
91
83
171
90
77
136
85
87
73
64
74
59
66
60
79
83
68
83
60
55
146
40
52
142
39
56
94
101
91
108
134
127
119
135
138
152
173
176
178
195
194
226
223
224
245
237
234
227
224
220
239
237
227
210
214
171
163
175
88
196
68
65
217
91
98
230
110
125
224
93
112
208
80
97
152
49
53
75
31
23
38
40
30
38
42
34
17
28
24
21
12
20
140
28
44
126
48
60
50
86
75
66
81
89
63
85
89
76
109
103
87
107
104
152
108
120
223
194
192
226
239
241
248
247
255
246
251
251
214
215
184
194
31
42
197
58
66
188
56
66
180
36
50
181
33
48
175
28
43
130
23
30
93
34
33
77
37
34
49
29
24
74
30
34
168
38
50
169
41
60
133
53
67
113
50
66
75
64
67
61
73
71
66
81
81
107
68
83
192
124
138
229
242
241
237
246
253
234
248
254
238
247
241
160
24
28
169
44
45
191
62
64
175
35
40
182
25
36
187
25
41
183
27
45
186
26
47
178
33
54
159
53
66
173
52
64
205
39
53
216
39
61
224
51
77
210
71
88
175
73
84
146
64
77
101
62
69
90
65
70
154
60
77
226
199
198
234
253
251
244
246
254
242
246
249
138
30
27
155
20
21
155
33
27
156
28
23
174
21
24
185
24
36
189
29
44
195
30
44
197
33
51
197
40
60
196
41
50
205
45
49
210
52
59
219
59
66
217
75
74
224
82
85
226
83
96
208
80
100
172
70
87
186
53
70
233
117
126
241
186
193
246
204
216
234
178
190
110
34
25
153
16
15
135
17
8
139
18
10
153
15
14
161
18
24
168
25
30
171
26
27
176
22
25
180
20
31
152
23
29
137
30
26
166
32
37
195
30
33
202
32
33
198
39
40
204
52
51
217
61
66
214
60
69
215
49
64
213
47
58
214
94
105
209
109
121
164
45
55
65
35
27
100
20
20
104
21
17
115
18
18
128
14
19
144
10
17
150
12
14
147
14
10
157
14
8
144
20
19
66
19
15
54
23
20
83
22
23
141
28
24
188
28
27
196
26
27
194
33
30
198
42
37
203
55
50
203
56
59
201
43
47
183
47
55
143
35
41
134
37
34
30
31
30
38
27
30
50
41
34
74
49
47
85
40
45
96
29
27
111
22
16
130
17
15
150
11
13
116
17
15
35
38
32
50
58
61
59
59
56
71
36
25
151
30
24
197
22
24
196
24
25
194
27
27
192
31
31
199
39
43
201
45
44
161
41
40
139
42
43
144
46
44
21
23
24
16
23
22
14
29
23
29
39
35
46
49
47
54
54
47
66
44
37
93
30
33
116
21
25
92
21
17
56
54
51
69
73
73
82
84
81
59
64
55
104
26
23
181
21
25
191
20
21
188
23
22
188
26
26
193
21
26
192
26
25
173
47
45
165
56
60
167
57
58
38
32
31
38
32
29
33
25
27
26
20
22
22
20
21
26
28
30
36
36
38
49
46
46
73
58
52
64
40
32
76
72
67
99
102
93
111
99
94
69
77
71
71
24
25
159
19
24
186
15
14
182
20
16
188
37
31
181
38
28
189
18
15
191
21
27
168
50
55
138
51
47
42
41
41
42
41
41
40
38
39
38
36
37
33
32
32
26
26
26
23
23
23
23
24
24
38
40
39
37
37
36
90
90
90
140
140
139
103
103
99
63
72
61
50
27
22
130
18
20
181
13
12
174
15
12
174
20
15
180
23
19
185
16
16
166
23
15
128
50
40
142
88
82
44
44
44
43
44
44
43
43
43
41
41
41
40
40
40
39
39
39
36
35
35
30
30
30
23
22
23
18
18
18
53
53
53
137
136
136
126
126
125
61
72
63
28
28
18
75
20
16
113
18
17
116
16
17
125
15
19
140
10
21
129
15
21
92
26
16
67
47
32
112
99
88
49
49
49
48
48
48
47
47
47
45
45
45
45
45
45
43
43
43
40
40
40
38
39
38
34
34
34
27
27
26
26
26
26
76
76
76
84
85
87
37
44
41
17
23
15
31
28
19
38
29
21
35
18
13
39
17
14
37
18
14
41
19
16
38
24
18
31
34
28
37
49
40
54
54
54
52
52
52
51
51
51
51
51
51
49
49
50
48
48
48
44
44
45
42
42
42
39
39
39
37
37
37
34
34
34
26
27
27
19
23
26
20
19
21
24
17
16
30
26
23
32
33
30
20
24
20
17
25
20
13
27
19
16
29
22
25
31
27
35
31
38
35
41
43
55
56
55
56
57
59
56
55
60
55
55
59
54
53
57
51
51
54
49
48
51
46
46
49
45
45
48
44
43
46
43
42
45
41
41
44
33
35
37
28
26
29
30
24
25
31
23
25
32
24
26
29
25
26
28
26
26
31
25
26
28
29
28
29
34
31
38
35
41
43
41
42
71
72
69
58
58
61
61
60
66
59
58
63
58
57
63
56
55
60
53
52
57
50
49
54
50
49
54
48
47
52
46
45
50
46
45
50
44
44
45
39
39
39
38
38
38
35
35
35
34
34
34
33
33
33
33
33
33
34
34
34
35
35
35
38
38
38
41
42
44
52
51
48
