P3 24 24 255
251
230
224
252
232
224
253
234
227
252
234
230
250
235
232
249
234
232
252
240
236
150
136
132
121
104
100
142
123
119
201
183
180
250
232
230
250
233
231
251
233
232
252
235
233
253
235
233
251
233
230
250
232
225
252
234
226
252
234
227
250
232
225
251
232
225
248
227
220
250
228
220
253
233
226
254
234
227
253
235
228
254
239
234
251
237
234
249
234
232
255
242
238
195
180
176
87
70
66
68
50
47
134
114
111
226
207
205
236
217
216
247
229
228
253
235
234
253
235
234
252
234
231
251
232
226
251
233
226
251
233
226
254
235
228
251
232
225
249
228
220
250
227
219
255
236
231
253
235
230
251
234
226
254
238
232
252
236
233
253
236
237
252
232
230
224
206
202
95
84
80
21
9
6
96
76
72
190
167
165
178
157
158
229
209
213
249
230
233
251
233
231
251
233
227
249
230
222
253
236
228
250
231
224
251
232
225
252
234
227
249
229
221
247
225
217
253
235
231
252
235
231
252
235
227
252
235
227
252
233
231
253
233
235
250
227
228
180
163
161
53
49
45
17
12
7
84
64
58
177
151
148
144
121
123
171
148
156
215
193
201
240
221
221
236
218
212
238
220
213
251
234
227
249
230
223
249
230
223
248
229
222
246
228
219
245
225
216
250
233
230
249
231
225
253
237
227
253
237
228
252
235
232
255
236
239
227
209
211
87
78
79
13
14
14
39
34
32
114
92
89
192
165
162
182
161
160
160
139
145
163
144
153
220
203
210
202
187
189
203
189
188
250
237
234
250
233
228
250
231
224
252
231
223
249
230
221
246
226
217
249
233
229
254
235
227
254
236
224
253
236
225
249
232
228
249
233
237
141
133
138
20
22
26
8
12
16
40
33
36
142
117
119
197
170
167
209
191
186
205
185
188
170
153
163
178
163
176
205
194
206
179
170
177
191
182
185
236
222
221
249
229
223
253
230
222
252
232
222
243
223
214
252
234
228
251
231
220
246
225
212
245
225
213
249
231
228
209
194
199
50
51
57
4
13
19
23
28
34
75
66
71
144
117
119
161
131
128
195
172
166
208
187
185
201
184
191
175
161
176
150
140
158
176
171
183
164
157
165
175
162
166
244
226
226
251
230
226
248
228
220
250
231
222
247
220
209
247
220
207
241
218
202
244
225
212
251
234
230
193
179
184
37
40
46
17
25
33
58
59
66
136
124
128
141
114
113
135
102
97
159
128
123
159
133
129
168
148
149
194
178
189
180
168
184
157
152
165
172
166
176
162
152
160
172
158
163
240
225
227
248
231
225
242
223
214
236
204
188
246
216
201
250
226
209
248
228
215
250
233
229
161
148
153
37
39
45
26
31
37
56
52
59
125
109
111
138
111
106
126
90
85
131
94
89
115
84
76
127
104
97
170
151
154
212
198
209
188
180
191
143
135
146
164
155
166
161
151
161
184
174
183
246
232
229
246
227
217
247
217
199
244
215
198
242
217
201
246
227
215
225
209
206
123
109
113
80
76
83
75
73
79
105
96
101
149
132
131
133
108
100
128
94
88
115
78
74
82
52
43
91
68
59
133
114
112
191
174
180
210
199
208
164
154
164
144
135
146
183
175
186
162
154
165
191
178
178
242
223
216
252
231
218
250
228
212
247
228
214
244
230
221
189
176
174
118
106
108
125
116
123
140
129
136
152
137
140
160
141
139
121
99
92
121
96
90
80
55
51
46
28
21
62
46
40
105
86
86
166
145
150
209
195
202
196
183
190
155
143
150
153
141
149
184
172
179
170
159
161
204
188
187
252
236
228
250
233
222
251
236
227
225
211
207
180
167
167
175
162
166
147
135
142
137
123
129
137
121
122
134
116
113
124
105
99
106
88
81
48
35
28
26
16
10
38
27
23
77
59
59
135
113
117
192
175
181
209
194
199
172
157
162
128
114
119
167
152
158
193
182
184
186
172
172
253
239
235
252
237
232
227
212
210
171
156
157
174
160
164
207
193
200
169
155
160
122
107
110
104
88
88
109
92
89
119
101
95
97
85
77
44
39
31
18
15
7
26
20
13
52
37
37
98
78
81
156
139
143
196
181
185
186
170
174
135
120
124
152
137
141
162
150
152
175
163
163
253
241
239
247
234
234
157
143
145
116
101
106
184
169
176
186
170
178
167
150
154
126
109
110
92
76
74
75
59
55
105
89
82
152
143
133
122
121
111
23
24
15
21
19
11
40
29
28
73
55
57
124
106
109
169
152
154
185
168
170
169
152
154
167
150
153
128
115
117
113
102
103
255
243
240
236
226
227
109
98
99
84
71
75
178
164
169
213
198
203
154
137
137
102
84
82
121
104
101
129
115
110
185
172
166
228
219
210
203
198
188
54
53
45
10
10
2
39
32
29
68
54
54
108
91
92
143
124
125
167
148
149
184
166
167
186
168
169
142
128
130
68
59
61
255
244
240
232
225
225
108
99
99
82
71
71
157
143
145
208
192
193
133
114
111
124
105
100
196
180
174
230
217
211
244
233
227
248
235
229
233
220
212
94
88
81
5
4
0
35
32
28
68
58
57
99
82
82
121
102
102
147
128
128
172
153
154
198
179
180
175
161
163
61
54
57
251
237
230
227
222
220
110
103
100
101
90
87
155
141
138
189
172
169
170
151
145
194
176
169
242
227
220
244
231
225
244
233
226
249
231
226
246
224
220
132
120
114
11
8
2
24
24
19
59
54
51
88
71
71
101
81
82
133
113
115
163
143
144
186
167
168
177
163
165
62
57
59
251
234
226
237
223
217
192
178
171
140
125
118
149
132
125
223
205
199
200
183
176
207
193
189
251
240
238
247
235
232
252
236
228
250
229
219
250
228
221
173
159
153
24
21
16
12
16
10
46
48
43
83
72
71
93
77
77
127
111
113
153
138
143
160
147
153
113
109
110
20
20
22
252
235
229
244
226
219
249
231
224
233
216
209
221
203
196
247
229
222
196
180
174
214
202
199
252
243
242
250
237
234
253
234
225
245
221
210
242
220
210
207
192
185
51
47
42
4
9
3
31
36
30
70
64
63
89
78
79
129
116
119
141
127
132
149
135
141
62
59
58
1
3
3
250
234
228
251
232
225
253
237
231
249
235
228
241
224
217
242
226
219
199
183
177
231
218
214
253
241
238
248
233
228
244
224
215
245
221
211
244
221
211
231
213
204
96
87
80
5
6
1
18
21
18
29
25
28
62
54
57
89
76
77
77
58
58
108
84
83
55
44
41
6
6
4
249
233
229
248
230
222
251
235
228
242
226
219
235
216
209
238
222
215
192
176
171
234
220
215
252
237
231
250
233
226
248
228
218
251
231
220
251
231
220
246
226
215
150
135
126
18
14
8
25
25
24
34
30
36
40
33
37
82
70
68
133
111
105
181
148
141
105
86
79
15
11
8
251
236
231
252
235
228
250
232
225
246
227
220
251
233
226
241
225
218
205
191
186
242
226
220
251
234
225
252
234
223
250
231
220
243
223
213
248
227
216
250
228
214
197
178
166
47
37
31
45
41
43
65
57
64
25
17
19
85
73
68
178
152
143
234
195
184
151
125
115
31
23
17
248
228
223
252
234
227
250
231
224
245
228
221
250
232
225
247
229
222
227
213
208
236
218
211
242
221
209
252
233
220
249
230
219
237
218
209
242
221
209
250
225
209
237
212
197
95
81
75
44
36
39
65
52
56
24
13
12
57
44
36
131
105
94
210
168
158
163
131
120
45
33
25
243
219
212
247
228
220
252
233
226
252
235
228
252
234
227
245
227
220
228
213
208
234
215
206
239
214
201
246
222
208
244
223
212
244
227
218
241
219
207
243
213
195
249
219
203
146
128
121
52
41
43
73
54
55
44
29
24
51
37
26
86
60
49
168
127
118
153
119
108
54
40
30
