P3 24 24 255
40
42
30
51
48
34
61
57
43
53
50
39
38
40
31
25
31
26
65
74
74
73
85
90
54
68
79
86
110
130
155
182
195
207
222
227
174
193
204
159
183
194
157
186
200
112
144
157
84
104
112
123
155
168
126
153
161
104
123
129
124
141
147
115
134
139
65
73
73
94
89
66
35
31
23
66
56
43
58
52
42
46
41
34
31
30
23
28
30
25
48
48
47
93
96
101
105
114
123
136
155
170
193
211
225
202
217
226
189
207
219
170
191
202
149
170
174
111
123
123
69
75
81
82
91
91
89
95
98
67
78
81
105
102
93
117
113
102
69
67
63
89
83
62
40
33
28
43
35
30
43
37
32
44
36
32
27
23
20
40
36
36
96
93
97
161
164
170
178
179
186
184
190
204
188
198
213
180
191
204
179
191
204
178
194
208
152
162
171
125
119
113
86
81
80
85
83
80
86
86
84
76
84
92
110
109
106
115
119
113
64
66
63
86
81
59
55
53
46
30
24
22
41
34
31
65
59
60
93
90
92
120
117
122
170
170
174
190
191
193
182
177
177
189
192
198
191
197
205
194
201
210
196
205
214
201
212
222
200
212
226
171
176
186
100
104
112
79
87
90
68
77
82
69
81
90
83
95
98
83
96
99
56
60
57
101
96
69
98
96
82
41
38
32
64
59
58
123
119
120
174
169
170
191
184
185
191
188
186
181
177
175
177
166
160
181
174
169
187
185
183
199
203
205
203
209
214
202
209
212
205
216
225
203
216
229
148
162
177
71
83
92
52
60
68
63
74
81
83
96
97
78
88
92
67
68
62
121
113
83
140
136
113
69
70
65
85
81
81
159
150
148
188
176
170
186
174
166
183
173
163
172
157
145
161
139
123
167
146
129
180
164
147
194
186
176
196
192
188
195
196
194
207
215
220
208
221
230
195
208
221
106
115
127
43
49
59
62
71
77
81
92
95
68
78
84
61
62
55
126
119
85
133
132
113
76
81
78
92
89
88
174
160
152
182
163
150
183
172
159
176
159
145
132
109
93
110
83
67
148
117
93
180
151
124
188
169
150
191
181
169
195
193
186
203
208
212
209
217
223
209
219
228
166
179
189
76
86
88
63
73
67
65
73
67
57
67
60
55
56
45
120
112
80
83
86
74
69
73
70
117
112
106
171
153
139
176
155
142
187
176
162
150
130
111
60
46
39
55
37
31
137
104
82
185
155
129
191
167
145
187
172
155
190
185
173
197
200
198
207
212
210
208
214
215
201
212
221
117
125
127
45
46
39
45
45
37
40
41
34
50
46
31
125
116
83
55
45
32
56
50
40
119
106
97
160
139
124
181
163
151
185
169
151
143
117
94
48
36
31
60
41
35
159
131
114
196
174
156
177
149
129
154
132
115
170
160
148
195
194
188
208
211
207
209
213
211
208
217
222
164
173
182
50
50
48
35
34
30
29
30
26
43
37
25
116
106
73
74
57
38
68
53
41
112
98
83
158
138
120
181
166
150
175
151
128
160
130
106
116
98
87
126
103
91
180
152
136
200
175
159
149
118
102
90
72
66
108
101
96
187
182
173
211
213
207
212
219
216
208
216
218
199
211
220
120
128
117
87
91
58
89
95
65
76
72
44
112
101
70
212
190
144
203
180
140
198
171
137
174
149
125
177
159
138
173
149
125
184
163
141
192
181
168
184
173
167
185
170
161
202
182
168
167
146
131
89
76
75
69
62
60
174
166
153
199
198
188
205
210
207
207
214
215
201
212
221
205
212
198
218
211
143
221
211
139
161
150
94
118
110
74
201
167
135
217
181
145
214
179
144
175
148
121
169
146
123
181
155
127
176
149
120
184
164
146
172
162
157
166
156
149
194
179
169
191
173
155
160
147
135
154
147
139
189
179
167
190
182
168
202
204
198
206
214
214
201
211
214
199
208
210
215
206
176
222
198
154
202
176
131
191
176
134
130
112
102
139
120
108
148
126
112
156
129
108
165
137
111
165
133
102
173
140
109
130
107
91
65
57
58
95
83
85
166
151
139
195
177
153
197
186
170
195
191
183
181
173
163
177
163
148
190
188
180
201
209
210
197
205
205
188
198
204
176
169
169
164
145
135
155
133
119
148
127
107
106
97
93
99
91
90
105
95
96
139
118
101
162
132
105
160
127
96
164
130
106
73
55
47
21
15
16
49
40
45
135
122
113
192
175
153
185
166
138
188
175
153
174
163
150
166
153
139
177
171
160
191
195
195
188
195
197
181
190
196
150
148
152
130
118
115
130
114
107
128
110
96
105
95
90
98
89
87
102
94
93
133
117
105
158
128
104
153
121
93
146
113
89
72
52
41
16
10
9
41
32
35
140
129
119
181
161
137
164
139
99
162
137
96
153
134
107
152
132
115
176
142
121
186
167
152
180
190
191
163
171
181
129
130
140
113
104
105
114
103
101
113
101
97
109
99
96
112
101
101
112
103
103
133
118
110
144
118
95
134
102
74
123
87
60
97
74
58
48
38
37
78
66
63
144
126
108
140
113
76
147
118
64
155
128
67
152
131
78
155
117
78
185
108
63
197
140
106
180
186
190
154
166
178
120
112
118
117
104
106
121
106
103
119
103
99
115
102
96
112
101
97
105
97
97
106
98
98
115
102
93
121
93
71
121
84
55
115
86
64
95
78
67
113
96
86
113
86
61
135
100
39
176
143
52
178
149
54
179
153
54
186
155
63
192
135
66
197
133
89
179
179
177
167
174
167
140
130
105
117
101
83
109
94
91
118
103
99
105
91
86
100
88
85
92
83
84
91
86
92
91
86
94
117
96
83
131
98
70
128
95
70
124
99
79
116
92
72
104
69
28
155
115
33
183
144
42
180
143
40
186
152
42
190
163
49
182
156
61
177
140
79
162
137
111
160
125
53
176
141
42
165
137
59
125
112
83
101
92
89
103
86
81
98
82
80
93
79
79
95
84
83
94
84
85
109
90
81
118
90
66
113
82
58
110
80
56
110
76
49
121
78
20
159
116
26
179
139
36
180
140
34
186
148
36
187
155
44
171
144
44
149
127
46
134
95
38
146
92
11
169
123
20
183
142
32
182
154
59
120
107
81
93
75
70
96
79
75
94
78
76
93
78
76
91
77
75
95
79
76
113
92
76
113
86
63
100
70
46
97
59
31
126
78
18
158
112
25
172
130
31
179
137
33
182
142
31
189
153
38
178
146
39
135
106
22
121
81
14
136
81
9
155
106
14
173
128
22
194
153
33
139
121
69
86
71
65
95
80
74
93
79
76
92
78
76
88
74
74
91
77
77
113
96
85
114
89
66
98
69
47
92
56
30
125
78
19
155
109
25
165
121
26
174
131
28
181
140
29
190
151
34
189
156
40
144
110
21
111
73
11
130
78
8
148
98
10
165
117
18
188
144
24
144
120
59
91
76
70
98
81
76
92
76
74
86
70
68
81
64
65
81
66
65
101
84
73
109
85
62
94
65
43
84
51
29
119
73
17
146
100
21
160
116
24
168
125
24
180
138
29
191
152
34
194
159
42
165
131
28
116
76
13
123
71
9
141
88
8
156
107
15
184
139
23
155
131
65
92
75
68
92
75
71
87
71
69
83
67
66
80
64
64
74
58
57
93
76
64
109
86
63
96
67
44
87
58
36
112
69
20
137
90
17
155
110
21
166
122
23
174
132
27
188
149
35
196
160
41
185
150
35
148
108
19
125
74
8
128
73
6
142
91
11
171
123
15
162
137
67
97
79
73
92
75
72
86
70
69
81
67
68
78
65
65
83
70
67
103
86
74
111
88
67
101
72
48
89
62
40
101
65
25
126
79
15
147
102
19
163
119
21
171
129
25
182
141
31
190
151
32
188
150
31
175
135
28
158
112
19
146
97
11
138
87
8
147
96
7
153
118
45
