P3 24 24 255
41
45
39
43
48
38
98
104
95
92
96
88
43
45
39
37
38
33
36
36
33
18
18
19
10
10
12
11
11
12
10
10
10
15
15
14
22
22
20
18
19
18
15
16
13
19
20
13
29
31
21
27
28
18
24
25
18
37
39
34
81
79
86
119
113
136
112
115
144
137
149
169
89
88
86
57
59
56
53
57
56
33
36
35
18
20
18
15
15
15
16
15
15
17
17
17
13
13
13
15
15
15
16
16
16
16
16
17
19
19
19
22
22
22
27
28
24
27
29
19
36
38
24
42
45
29
37
40
25
41
46
34
59
61
62
108
106
123
134
140
165
149
164
182
87
88
86
46
49
47
28
32
33
18
21
21
19
21
19
20
21
18
20
20
16
16
16
12
25
25
22
26
26
25
22
22
22
17
17
19
17
16
19
24
24
23
34
35
29
37
38
28
43
45
32
38
40
27
31
32
23
30
32
26
63
61
65
106
101
120
145
148
171
161
173
189
72
73
78
22
24
24
22
23
28
35
35
41
28
28
30
18
19
15
19
19
16
15
15
15
21
21
20
20
20
20
12
12
13
12
11
14
10
9
15
13
13
14
17
18
13
27
29
21
37
39
33
22
24
21
20
22
17
21
24
20
37
33
39
77
68
86
150
149
170
154
162
174
98
98
107
32
32
31
37
36
41
67
65
75
35
34
37
18
19
15
18
18
18
16
15
20
15
15
17
14
14
14
11
11
11
10
10
14
32
31
39
25
24
30
15
15
12
19
20
14
40
42
41
70
74
75
34
39
35
21
28
18
33
31
30
61
51
63
151
149
163
136
143
149
113
113
124
86
87
87
78
78
81
61
60
66
23
23
22
16
17
12
16
15
17
15
14
19
12
12
14
12
12
12
14
13
14
10
10
14
57
56
64
64
63
72
17
17
18
18
20
14
24
26
25
79
82
86
80
84
85
33
39
29
40
39
32
64
55
59
149
146
153
137
142
144
117
115
136
127
125
138
105
103
116
71
70
79
29
29
28
25
26
21
21
21
23
14
13
18
13
13
15
10
10
10
10
10
11
9
8
12
45
43
52
91
89
103
34
33
39
17
18
14
17
19
18
38
40
47
96
100
105
61
67
60
32
32
24
89
80
81
148
144
148
78
79
83
108
106
129
130
128
151
128
126
150
111
110
128
49
49
51
24
24
20
21
20
20
14
13
17
14
13
17
12
12
14
11
10
13
12
11
16
33
32
41
97
96
112
72
72
82
20
20
21
18
18
19
26
26
33
91
92
100
96
101
101
35
36
36
103
98
104
137
133
143
51
48
59
85
86
79
116
120
128
134
137
159
119
120
139
38
38
45
14
13
12
18
15
16
16
14
17
14
14
16
12
12
15
11
10
15
12
11
17
24
23
30
83
87
100
88
93
106
33
33
41
15
11
16
31
27
35
97
94
106
123
122
134
63
61
74
102
99
114
122
116
133
102
95
109
105
110
76
104
109
96
106
107
117
116
115
130
78
77
87
36
34
41
19
15
26
12
10
16
11
11
11
7
7
10
5
4
8
7
6
11
28
27
33
88
90
101
74
77
89
28
29
37
15
14
19
33
30
38
98
94
105
141
138
152
128
126
140
146
143
156
141
138
149
87
86
94
55
59
37
47
49
32
45
43
45
67
63
77
107
104
117
113
109
122
96
93
108
73
71
81
60
59
65
57
56
64
49
48
57
45
44
53
70
68
79
93
90
99
57
54
61
21
19
24
29
25
29
60
53
57
123
111
117
200
199
202
187
190
192
148
146
147
90
87
87
59
58
59
47
49
35
62
63
47
35
32
29
12
8
17
24
20
31
46
42
53
69
65
77
92
88
101
97
94
107
108
105
118
111
107
122
115
111
127
113
108
123
101
89
94
101
85
83
72
57
53
81
66
61
116
98
94
191
173
169
193
183
176
112
104
95
109
91
85
85
61
60
101
80
84
60
62
43
59
60
41
53
53
36
48
47
36
42
41
36
16
14
15
29
26
32
93
87
99
97
90
99
74
68
74
78
69
83
80
68
87
96
83
97
125
105
106
145
116
107
131
94
81
149
111
94
179
149
131
221
201
185
206
191
180
162
144
138
133
106
105
107
79
82
125
105
110
62
64
35
63
66
44
83
86
68
56
59
44
37
38
30
21
21
19
22
21
22
45
42
46
113
108
110
136
130
132
76
67
81
78
66
87
84
72
89
110
98
107
136
118
121
144
117
114
154
124
114
185
159
145
223
203
189
222
208
201
160
145
145
121
102
105
115
97
100
92
82
82
94
94
66
54
54
36
36
36
25
23
22
13
16
15
11
20
18
18
20
17
21
16
14
18
30
28
28
74
71
70
68
62
72
59
50
68
61
52
66
74
65
77
96
84
95
102
84
90
107
84
84
163
142
135
229
210
200
209
196
189
78
67
68
39
31
35
32
27
31
27
26
25
76
70
54
45
37
31
36
27
26
30
21
23
27
18
22
27
17
25
28
20
28
29
24
32
23
20
23
19
16
17
25
20
28
24
17
30
45
37
46
87
77
85
92
79
87
94
78
84
102
84
89
138
122
122
206
192
187
179
168
163
35
28
26
9
8
10
11
14
18
20
24
24
38
25
27
39
21
27
40
20
28
39
18
27
36
17
26
32
17
26
30
19
26
27
15
23
25
15
21
23
16
21
22
17
23
24
17
25
43
33
42
93
82
94
93
83
91
81
72
77
86
78
92
102
95
116
142
138
152
132
126
130
64
56
55
56
46
42
51
42
36
31
26
20
32
16
22
39
20
27
43
21
30
43
20
29
40
18
27
35
17
24
29
16
22
27
13
19
26
12
18
22
13
18
20
13
19
21
12
20
27
16
25
70
58
74
98
88
102
88
80
92
97
89
105
75
66
83
64
56
66
143
130
128
183
163
152
184
156
141
186
154
136
166
138
121
30
15
20
35
17
23
41
20
26
46
22
30
49
25
32
45
24
31
38
21
26
36
19
23
32
17
21
24
13
17
19
11
15
22
12
18
24
13
20
54
42
49
92
82
92
101
95
105
149
145
148
165
159
152
187
179
168
236
223
207
228
203
181
221
183
157
228
181
153
223
177
149
29
13
18
34
15
20
42
21
26
48
24
30
54
28
35
57
33
39
50
29
34
43
24
28
37
21
24
30
17
20
24
14
17
26
14
20
31
17
23
50
34
39
94
83
96
135
131
148
224
227
229
253
255
243
255
254
240
255
251
232
247
230
203
232
198
168
225
177
146
218
170
138
42
21
27
41
19
23
47
23
28
58
31
37
64
35
41
69
42
48
70
46
49
62
38
41
54
32
35
41
23
28
32
16
22
35
18
23
38
18
22
54
30
35
90
74
88
104
100
119
164
163
172
236
232
224
244
237
222
244
234
213
252
237
212
250
228
202
231
201
173
227
190
162
140
129
138
117
100
104
98
74
76
93
63
64
97
64
63
104
71
67
108
76
71
102
74
72
86
61
62
57
34
37
45
23
26
46
22
24
57
30
30
78
50
48
91
74
80
87
82
97
90
86
97
164
155
154
218
209
199
236
221
203
245
226
203
248
229
205
242
221
196
240
214
190
188
196
206
198
197
205
195
185
188
174
158
157
156
133
129
143
118
113
140
113
109
140
117
111
131
108
101
89
62
59
61
31
28
69
38
33
91
60
51
102
71
61
106
87
88
102
97
111
85
83
98
116
112
119
188
183
184
234
225
217
239
224
208
243
225
205
231
210
186
222
198
174
182
198
207
164
169
173
172
166
164
185
174
167
178
162
152
174
155
149
145
126
123
122
105
95
129
107
94
123
93
84
86
50
42
89
51
38
120
82
65
119
83
72
110
87
91
109
103
119
88
88
105
93
92
103
156
158
163
219
224
225
232
234
227
235
226
210
224
204
180
209
181
157
