P3 24 24 255
188
229
255
186
231
254
185
233
254
189
234
253
195
236
254
200
240
255
183
223
240
180
220
236
200
239
253
202
240
250
208
247
250
208
246
246
211
245
252
213
248
247
206
243
248
203
243
250
210
248
249
214
249
250
213
249
252
222
250
255
225
251
253
227
253
249
231
255
250
237
255
251
193
233
255
191
236
255
189
239
254
190
240
254
194
240
254
198
240
254
182
222
238
182
221
233
207
246
254
205
243
251
207
246
249
206
248
247
205
244
254
210
251
248
190
232
238
191
229
239
222
253
252
224
250
249
222
250
252
230
252
254
233
252
250
235
252
248
234
249
250
228
244
245
202
238
255
201
240
254
199
241
251
199
242
251
201
244
255
208
248
255
192
227
240
190
221
234
221
252
255
216
251
255
216
252
253
208
238
247
188
218
234
203
235
241
197
226
234
189
214
224
236
253
253
238
251
247
233
250
248
236
254
248
237
255
248
212
229
232
183
200
217
174
197
212
214
246
253
215
245
251
217
247
251
214
247
253
198
237
250
172
210
225
148
175
189
163
184
198
185
208
222
186
216
229
143
173
187
115
123
147
122
132
153
124
136
159
144
148
170
153
165
180
211
219
223
245
249
245
241
250
245
241
254
243
241
255
247
200
217
225
159
178
207
153
179
205
227
254
255
229
252
251
211
231
229
188
211
222
130
165
193
85
119
152
70
89
111
116
128
144
121
137
158
92
114
146
55
79
119
69
78
103
91
111
117
59
78
110
102
107
143
157
165
189
187
191
204
242
243
244
244
250
248
246
255
248
240
254
247
201
219
229
162
182
214
144
166
198
205
227
220
190
208
200
120
133
130
117
134
151
92
123
162
79
110
151
64
77
102
112
118
132
123
136
163
65
87
134
50
77
132
88
113
132
126
164
161
56
91
121
83
105
143
166
183
210
202
213
231
217
224
232
209
218
222
223
232
229
238
252
248
199
220
229
157
182
211
141
164
196
143
159
142
105
121
106
83
91
91
104
116
134
93
119
157
89
116
155
68
77
95
107
109
121
122
137
171
68
99
154
53
88
140
95
120
140
114
137
150
58
79
106
95
114
148
165
190
214
189
213
232
179
198
216
141
156
172
140
150
153
182
197
195
179
203
214
151
180
209
147
174
206
115
132
115
82
101
85
95
104
102
104
115
129
90
112
145
90
111
144
72
79
93
110
113
128
98
112
151
58
85
140
47
77
126
56
75
100
57
72
94
26
40
69
66
81
115
114
135
163
130
152
178
135
153
182
122
137
166
119
125
143
137
145
156
156
170
188
164
181
213
155
173
206
118
137
126
113
133
126
141
153
152
112
122
133
50
66
90
57
71
95
65
70
80
106
111
125
78
92
127
38
58
105
27
47
86
28
40
66
27
37
61
20
29
58
24
33
65
33
47
78
41
57
90
43
58
95
56
70
109
85
90
122
132
136
158
181
186
206
176
180
209
169
178
209
127
146
149
120
140
148
169
181
188
116
126
135
41
49
65
35
40
55
52
55
60
74
82
89
76
90
115
48
64
95
34
43
66
48
54
73
39
44
64
19
24
44
21
27
47
33
42
68
45
56
87
36
50
88
32
46
89
51
63
100
107
116
139
185
189
202
183
183
199
167
175
201
135
154
170
150
168
190
174
187
202
117
127
134
34
39
49
31
32
41
54
56
57
84
94
95
116
131
144
55
66
83
30
34
41
41
44
53
32
35
46
29
32
41
22
27
35
28
34
52
46
55
81
50
63
96
55
72
110
87
108
143
107
124
142
191
200
203
199
201
204
155
167
187
116
129
151
154
168
189
172
187
199
116
124
128
34
37
46
33
34
44
51
54
57
73
79
83
98
105
113
47
54
57
15
21
17
13
22
22
22
23
30
38
37
46
21
29
36
21
32
39
43
54
72
48
61
88
60
77
104
106
130
155
116
137
153
193
205
210
181
188
188
145
161
178
58
66
82
87
94
108
106
115
118
82
87
88
50
52
62
42
44
56
44
47
51
44
49
54
31
36
41
27
33
32
13
20
17
20
29
38
35
36
54
29
28
50
20
27
48
19
30
40
68
78
95
42
52
76
47
60
80
98
118
143
111
129
152
176
188
200
154
163
170
111
126
143
39
43
50
45
49
56
45
47
40
39
42
39
51
54
63
45
47
58
39
42
46
37
42
45
10
15
18
9
14
15
13
19
20
21
28
37
18
23
38
23
28
47
21
28
48
43
52
68
130
136
158
48
52
75
47
52
69
102
117
144
96
113
139
142
155
173
120
130
144
67
79
96
53
59
61
53
61
62
65
65
50
36
38
33
34
36
46
33
35
47
38
41
44
44
50
48
17
23
23
14
19
22
14
19
23
9
19
17
13
27
25
17
32
34
17
26
34
33
39
60
109
111
140
63
61
83
63
59
71
106
116
137
96
111
134
114
128
146
82
96
111
53
62
77
54
66
69
55
70
72
67
70
52
42
44
38
52
55
65
54
56
67
31
35
38
66
72
68
104
110
108
74
79
83
30
34
42
10
19
24
27
45
48
19
38
45
17
26
40
35
39
68
77
77
109
93
85
108
106
96
104
109
116
129
117
132
148
129
146
158
107
123
133
87
94
106
38
47
50
42
53
56
46
50
40
29
30
28
25
26
33
30
31
38
11
12
16
54
60
61
134
141
148
96
102
114
26
33
41
13
24
31
71
90
108
57
75
98
12
21
36
61
65
81
150
151
170
151
147
162
141
136
144
137
141
145
160
168
171
168
177
179
171
179
181
154
157
163
30
35
39
26
31
36
13
19
17
13
16
15
19
21
22
20
21
22
13
15
16
34
41
47
95
103
119
91
98
116
41
50
57
29
45
45
86
106
127
84
101
127
18
28
33
67
72
71
162
166
169
142
145
153
146
148
159
149
153
156
160
164
165
170
174
175
162
166
167
148
149
155
32
41
48
31
40
48
23
33
33
17
25
21
15
22
18
15
21
17
15
22
19
23
32
36
44
52
63
60
68
81
55
65
71
36
51
52
76
95
112
89
104
126
25
33
39
65
69
69
129
133
136
115
118
125
115
117
129
106
114
127
106
116
129
106
115
129
103
111
125
92
95
111
28
42
52
34
48
60
33
48
52
28
41
41
26
38
37
22
34
33
15
26
26
9
18
24
6
15
20
17
26
31
41
50
57
27
39
43
50
66
78
51
65
81
22
27
33
34
37
38
47
51
54
44
47
54
81
84
96
102
111
128
104
115
133
99
109
128
86
96
114
69
74
91
29
48
61
28
47
62
28
47
55
26
43
51
28
44
52
31
47
56
28
43
52
24
34
42
20
30
30
20
30
28
31
39
46
16
26
31
27
42
51
22
34
45
17
19
27
15
17
19
4
8
11
18
21
29
78
80
92
76
80
92
65
69
82
55
60
72
34
39
50
20
28
36
38
57
71
35
54
70
33
52
64
33
50
64
33
50
65
32
49
63
33
50
64
36
47
59
34
45
48
28
40
41
24
34
43
14
22
27
11
21
25
11
19
24
16
16
20
14
16
18
6
11
13
9
14
18
20
26
31
20
26
28
12
18
19
9
14
18
10
16
21
16
27
33
54
67
80
47
62
79
46
63
81
44
61
78
42
59
76
39
56
73
36
53
70
37
53
70
35
51
68
32
48
65
30
45
62
25
39
48
16
27
31
9
17
19
12
17
18
12
18
24
14
22
29
16
28
33
21
36
40
25
41
46
25
42
50
31
47
59
37
53
69
40
58
79
69
83
96
54
71
87
52
71
90
49
67
89
50
67
90
49
66
89
45
62
85
42
60
83
40
58
81
39
57
80
36
55
78
32
56
73
30
54
67
32
53
64
38
55
64
47
56
69
45
54
71
39
51
73
40
55
81
45
61
92
46
62
94
49
66
95
51
68
94
53
68
91
