P3 24 24 255
127
164
179
136
170
182
145
177
182
142
175
182
138
174
183
138
174
187
142
177
188
161
190
196
146
182
192
139
178
191
151
184
194
150
188
199
146
190
201
151
189
201
171
200
206
167
197
202
165
194
200
172
199
199
165
195
200
151
185
197
155
186
197
157
188
195
157
188
193
157
186
193
136
168
182
142
175
184
142
175
184
135
173
183
136
176
185
148
180
190
146
178
187
145
178
186
147
180
193
144
179
193
141
175
189
146
180
193
147
183
195
149
184
196
155
189
196
163
195
198
161
192
198
152
187
192
152
185
193
151
181
194
156
186
197
159
190
197
157
188
195
156
186
195
129
164
180
134
169
183
136
171
186
133
173
187
134
175
188
144
179
190
143
178
189
137
176
186
140
178
187
142
179
188
139
176
188
141
178
191
141
178
191
142
179
192
143
180
191
149
184
192
149
185
194
147
184
194
147
184
196
147
183
197
148
183
196
150
184
196
151
185
198
146
182
196
114
155
177
119
159
180
122
163
186
124
165
189
126
168
188
127
169
185
128
169
186
127
171
187
129
171
185
131
171
186
131
172
185
133
174
187
134
175
188
134
174
187
137
174
187
139
177
193
139
179
197
140
180
197
139
180
197
138
180
197
138
180
196
141
181
198
142
182
199
139
181
200
84
122
159
89
126
162
93
130
166
93
131
168
92
131
167
90
131
167
90
131
168
92
135
168
94
137
167
96
139
169
96
140
172
94
138
170
95
137
166
98
136
165
100
136
163
102
139
167
104
143
175
104
145
178
99
143
176
99
144
178
103
146
179
107
147
180
109
149
182
108
148
182
63
93
143
68
98
146
69
99
148
68
100
149
65
100
150
64
99
150
65
97
150
69
103
151
73
107
151
73
107
152
70
106
154
69
105
153
70
107
149
73
106
147
74
105
147
75
107
148
76
107
151
74
108
155
69
107
156
69
108
159
73
110
162
76
111
163
76
111
164
76
111
163
56
87
144
61
90
142
64
91
141
64
93
144
63
95
147
64
96
148
64
96
147
68
101
148
71
103
150
69
102
149
67
102
148
70
105
150
72
106
146
72
102
142
72
100
143
72
101
144
74
100
141
71
99
144
66
97
150
67
99
153
70
102
154
72
103
155
72
104
156
72
103
155
49
78
144
53
82
140
57
86
139
59
88
141
62
91
144
62
94
147
61
96
149
65
101
148
67
104
149
67
104
149
69
105
149
73
109
153
77
112
151
79
113
150
78
114
151
81
115
154
83
110
142
83
107
138
84
119
157
80
120
160
82
117
157
79
113
153
77
110
149
75
106
148
41
68
137
43
71
136
45
73
138
46
74
138
49
77
139
50
79
142
51
82
143
56
89
142
63
97
144
65
98
145
66
100
149
67
101
151
68
102
148
72
107
151
74
107
151
76
111
158
70
98
132
73
95
120
85
115
151
85
122
164
93
130
171
94
131
169
96
134
167
97
134
165
40
67
135
43
70
136
44
71
137
43
71
136
45
73
137
46
73
138
47
74
139
52
80
140
57
86
142
58
87
143
60
92
147
60
93
147
60
94
146
62
96
147
67
98
145
68
98
147
68
91
125
71
90
116
76
98
133
78
107
149
87
120
163
89
121
161
94
128
162
101
137
167
39
67
135
43
69
135
44
69
135
44
69
136
47
72
139
47
71
139
47
70
140
52
76
143
49
78
140
51
80
142
53
82
144
54
84
142
53
85
139
55
85
139
64
96
146
61
88
130
74
86
94
91
102
101
81
96
116
77
105
149
84
114
159
88
116
159
87
115
154
90
119
155
36
64
132
41
66
133
42
65
133
43
66
135
45
68
138
45
68
137
45
68
137
46
70
137
48
76
137
51
79
139
50
78
138
52
80
141
52
81
142
54
80
139
63
86
145
56
76
122
57
61
59
91
91
78
87
88
86
78
91
115
83
101
131
97
111
134
97
110
129
100
109
122
34
61
130
38
63
130
40
63
131
42
65
133
41
64
134
43
66
134
45
69
134
46
70
136
47
73
136
51
76
137
64
84
137
66
86
131
70
91
125
75
93
119
78
91
113
69
77
95
76
78
70
112
111
97
96
92
79
94
87
79
108
107
103
125
125
116
129
129
115
120
120
106
35
60
132
36
62
129
42
64
131
41
63
130
38
62
131
43
66
138
47
70
133
49
74
133
45
65
119
67
81
116
101
109
117
76
81
79
71
72
66
77
77
68
103
105
90
118
120
108
127
127
111
121
120
101
111
110
95
118
114
101
122
119
107
118
114
103
105
102
89
94
91
80
30
56
129
33
59
132
36
60
131
39
59
128
40
60
125
44
63
121
61
75
109
73
83
92
80
87
89
112
115
105
115
122
106
104
107
93
82
82
72
85
85
70
112
111
92
118
115
100
117
112
96
117
111
93
115
111
93
102
102
87
93
95
86
87
89
83
75
78
73
66
71
69
35
57
120
47
64
117
58
73
115
70
81
112
86
95
112
104
114
119
123
127
119
126
126
113
123
126
108
121
124
106
107
110
95
122
121
107
110
111
91
106
108
87
103
103
85
99
98
84
91
90
81
82
81
71
77
78
67
67
73
65
72
81
78
74
85
86
70
81
82
69
79
84
86
94
107
102
110
106
134
139
128
137
141
124
135
139
118
126
129
107
113
114
96
108
111
92
95
97
82
80
79
71
70
72
63
76
77
67
78
81
69
70
74
64
59
65
59
63
70
66
60
67
68
53
63
65
69
80
79
93
102
104
91
102
108
110
123
129
71
79
87
42
47
56
112
113
99
96
101
86
91
96
84
85
89
79
78
82
74
69
73
65
64
67
61
65
69
62
82
88
81
90
93
85
71
77
74
54
60
59
47
51
51
50
54
55
50
57
58
60
69
70
82
90
91
115
127
126
135
146
146
91
99
104
70
79
86
62
71
77
27
31
39
12
14
22
55
59
56
52
57
54
48
56
55
56
63
62
57
65
64
65
73
71
62
71
71
71
80
79
108
118
112
99
106
101
71
79
81
68
76
79
60
65
69
47
50
54
47
52
57
64
71
76
65
70
74
94
101
102
80
87
89
27
31
37
23
28
35
11
16
19
5
6
11
4
4
10
32
41
59
51
59
62
56
65
67
71
79
78
70
76
73
62
68
69
61
68
71
80
88
90
49
58
60
31
38
44
53
62
67
98
105
108
55
56
64
13
13
23
16
19
26
21
26
31
4
8
15
3
8
15
2
5
11
7
7
13
3
5
11
4
8
11
5
7
12
3
2
8
30
37
58
30
35
40
25
31
35
30
35
40
30
33
40
16
18
30
20
22
34
34
37
50
15
18
35
15
20
35
16
22
32
17
20
27
8
7
15
3
2
11
2
3
9
0
1
6
2
4
10
3
6
12
4
5
11
6
5
11
7
7
13
4
7
12
4
6
12
3
2
9
15
19
37
5
6
15
5
6
15
9
11
20
12
14
27
13
14
31
15
17
31
16
18
32
22
22
38
20
20
35
11
13
24
3
3
10
3
2
7
4
3
8
3
2
8
2
1
7
2
2
6
2
2
5
1
1
5
2
1
7
3
3
8
4
4
9
4
4
10
3
2
9
12
14
31
8
8
18
11
10
22
12
13
26
13
16
28
14
18
30
14
18
29
14
16
27
15
14
24
11
10
19
4
4
10
3
2
6
2
2
4
2
2
3
2
1
5
2
0
7
2
1
4
2
2
3
2
2
3
1
1
3
2
1
5
2
1
7
3
1
8
2
1
8
16
17
37
12
11
24
14
14
26
14
14
28
11
14
25
9
12
22
6
9
17
5
7
15
5
5
11
3
2
9
2
1
6
2
1
5
2
1
6
2
1
6
2
1
6
2
1
6
2
2
3
2
2
2
2
2
2
2
2
2
2
2
4
2
1
7
2
1
7
2
1
7
