P3 24 24 255
107
114
112
107
108
108
107
107
110
111
113
115
118
123
120
116
125
115
111
122
108
105
115
99
99
109
92
87
97
74
64
77
40
65
80
29
84
103
41
82
104
31
75
98
19
68
88
13
62
78
21
53
64
28
39
44
23
38
45
19
51
63
22
56
73
20
51
69
13
50
67
14
90
94
100
96
98
104
83
82
89
108
105
110
132
130
131
135
137
133
127
133
127
113
121
118
116
124
127
129
136
140
141
150
144
116
127
106
75
88
49
68
83
23
78
95
18
78
96
14
71
86
22
61
71
32
56
60
33
57
64
29
57
73
24
56
77
19
56
75
16
54
68
16
106
108
112
115
109
114
102
92
98
119
108
112
138
130
131
148
147
143
132
137
131
108
116
115
107
114
121
113
119
131
139
146
154
179
188
185
139
147
132
75
85
53
72
85
31
79
93
27
60
74
17
45
56
16
37
41
13
41
47
13
49
63
16
60
79
20
62
80
17
53
68
9
118
119
119
115
101
106
92
73
80
103
84
91
136
125
128
131
129
128
123
127
123
116
125
119
115
124
125
109
116
123
103
110
116
141
150
151
186
192
190
156
162
151
93
102
71
74
86
38
70
82
31
53
64
20
43
47
20
43
47
22
51
60
23
64
77
27
63
79
17
59
75
11
106
107
108
100
90
95
90
75
83
117
102
111
131
121
129
115
114
120
122
128
129
106
116
109
94
104
98
106
115
112
107
116
114
103
112
108
124
131
128
173
177
173
138
145
127
88
97
66
103
114
75
89
100
59
57
63
37
44
45
28
46
48
23
58
64
28
67
79
29
69
85
27
131
134
138
139
141
147
156
155
164
178
175
187
160
158
172
147
150
165
153
160
174
140
147
159
131
138
147
146
154
159
149
157
160
143
151
153
138
144
148
161
164
169
166
169
173
135
140
139
186
191
184
186
192
179
103
108
92
36
35
22
32
28
16
49
46
28
59
65
33
59
73
29
209
213
219
211
220
225
211
217
226
208
211
223
206
208
222
205
210
224
198
202
222
195
197
223
192
194
216
189
192
209
192
195
210
194
198
212
196
199
214
191
192
210
184
185
205
180
181
202
184
186
204
187
189
203
164
167
169
117
117
113
91
88
84
66
64
53
48
52
30
42
53
20
231
234
241
235
239
245
235
238
245
230
233
240
228
231
238
231
235
242
229
231
241
225
225
240
222
222
238
216
215
231
212
212
227
210
210
225
204
205
222
199
201
220
192
193
213
186
187
207
184
185
205
184
185
205
186
187
205
187
189
202
190
193
199
185
189
184
150
156
142
97
105
83
208
211
218
223
226
233
228
231
238
230
233
240
231
234
240
225
229
235
226
228
236
232
232
243
234
234
246
233
232
245
233
232
244
230
230
242
226
227
239
217
220
231
217
219
231
217
219
231
213
215
227
209
212
224
209
211
227
201
203
220
201
204
217
219
222
229
230
234
237
213
217
216
169
172
179
200
203
210
203
206
213
189
192
199
193
196
203
229
232
238
225
227
233
199
199
206
187
187
195
181
181
190
177
177
185
171
171
179
163
165
171
151
155
160
147
150
155
157
160
165
162
166
171
167
170
175
175
179
182
179
182
186
185
188
193
184
187
193
179
182
189
174
177
184
211
214
220
207
210
217
195
198
205
189
192
199
156
159
166
183
186
192
201
204
208
116
117
121
86
87
91
91
91
96
87
88
92
86
87
92
94
96
100
99
103
106
78
82
85
85
89
92
88
92
95
84
88
90
88
93
89
85
90
83
116
121
116
154
158
157
157
161
162
176
179
184
232
235
240
224
227
232
211
214
221
213
216
223
192
195
202
174
177
184
216
219
223
174
175
177
90
91
92
77
78
80
77
78
79
77
78
80
82
84
87
91
94
99
90
93
98
91
94
99
84
87
91
71
74
78
75
79
82
74
78
81
108
111
116
170
173
180
171
174
182
168
171
180
223
226
230
221
223
228
220
222
229
224
226
233
213
215
221
210
212
216
237
238
242
242
243
247
205
206
208
180
181
183
174
175
176
166
168
168
158
161
164
153
157
163
157
161
167
154
158
163
143
147
152
146
150
156
153
157
166
160
163
174
179
182
194
202
205
218
191
194
207
177
180
192
191
194
197
189
190
196
190
190
200
192
192
202
190
190
199
196
197
203
203
203
209
208
209
215
224
225
230
228
229
232
223
224
226
221
223
222
221
225
226
222
227
232
222
227
231
216
221
226
211
216
221
211
216
221
211
216
222
214
219
226
213
217
224
206
211
218
204
209
216
211
215
222
114
117
119
111
112
118
110
111
118
115
115
122
124
124
132
130
130
139
133
134
142
142
143
148
148
149
153
151
152
154
154
156
155
160
162
159
165
168
168
170
174
177
175
179
182
179
183
186
183
187
190
182
187
189
180
185
185
182
187
186
184
188
188
188
192
192
196
200
200
205
209
208
63
67
64
85
88
81
118
121
111
96
100
88
79
82
73
81
83
81
97
98
100
117
118
122
112
113
115
108
110
110
110
112
109
112
114
109
112
115
111
113
116
115
119
122
121
120
122
121
118
121
120
117
120
118
115
119
114
116
119
113
115
119
112
147
151
144
150
153
147
130
133
127
16
21
15
90
94
82
195
199
179
123
128
105
36
41
23
34
36
30
77
78
79
74
75
76
34
35
35
29
31
28
30
32
28
30
32
26
30
32
26
31
33
28
31
32
28
30
31
26
29
30
26
29
30
25
28
29
24
28
29
23
19
21
15
63
64
58
114
116
110
79
81
75
121
126
121
143
145
141
181
184
173
147
151
136
107
110
102
116
117
123
121
121
131
71
73
73
41
43
40
36
38
34
30
33
27
28
31
23
29
31
23
31
31
25
30
30
24
30
30
24
29
30
24
30
31
25
34
34
29
40
40
36
45
46
41
75
75
71
147
147
143
134
134
131
125
128
126
124
124
125
115
115
114
109
110
107
109
109
109
114
114
120
119
120
125
110
113
113
100
103
101
94
97
94
90
93
89
84
88
83
81
83
80
79
78
77
78
77
76
76
75
74
76
75
74
78
78
76
86
86
84
96
96
94
105
105
103
110
110
108
109
108
106
102
101
100
37
38
36
37
37
34
36
36
32
35
35
31
33
34
30
35
36
31
39
40
35
41
43
38
44
46
42
51
52
48
60
61
57
67
68
64
69
70
67
65
65
64
63
63
62
62
62
61
64
64
63
64
65
63
49
49
46
44
45
41
46
47
43
44
44
40
36
37
33
26
27
23
26
29
22
26
28
20
26
27
19
27
28
20
28
29
20
27
29
20
27
28
20
28
27
19
30
28
20
33
31
24
35
34
26
39
38
30
44
44
37
49
49
43
56
57
51
59
60
54
66
67
61
70
70
64
46
48
40
29
30
21
30
32
23
29
30
22
28
29
21
29
30
22
23
26
18
24
26
16
25
27
17
24
26
16
24
25
15
24
26
16
25
26
16
26
24
16
26
23
15
26
23
15
25
22
14
24
21
13
23
22
14
24
25
17
26
27
19
26
27
20
30
31
23
33
34
27
34
35
26
24
26
16
22
24
14
22
24
13
23
24
14
22
24
15
46
48
43
46
48
42
47
48
42
48
49
43
48
49
42
48
48
42
48
49
43
48
48
42
47
47
41
48
48
42
52
52
47
59
59
53
62
63
58
61
61
58
60
60
57
60
60
57
60
60
57
60
60
57
61
62
57
66
66
60
68
69
62
68
69
63
69
70
64
70
71
65
107
109
110
110
111
110
113
114
113
120
120
119
122
123
122
124
124
123
126
127
126
125
129
127
125
128
126
128
132
130
136
139
137
146
150
147
160
162
161
169
169
170
172
172
173
173
174
175
173
173
174
174
174
175
177
178
177
179
180
178
180
181
179
181
182
180
179
180
178
176
177
176
