P3 24 24 255
165
186
173
163
185
172
164
187
174
160
183
170
160
183
170
160
183
170
154
177
164
153
175
163
153
170
161
149
165
156
143
160
151
138
154
145
130
141
128
113
125
110
135
149
135
139
151
137
146
162
149
137
159
145
126
147
133
135
156
142
148
164
151
132
142
131
133
144
132
135
146
134
154
171
160
156
176
164
162
186
173
165
189
176
161
184
171
161
184
171
162
185
173
166
188
177
169
190
182
165
185
178
165
185
178
174
193
185
160
175
163
131
154
139
168
197
184
164
186
178
165
185
175
156
177
165
155
177
165
164
186
174
165
182
171
138
149
137
130
144
131
142
159
146
137
153
143
158
176
165
162
184
172
166
189
176
165
187
175
162
184
172
168
190
178
168
189
178
167
188
181
164
185
178
163
184
177
170
190
183
160
176
164
141
163
149
166
194
182
155
180
172
165
186
177
170
192
180
171
193
181
174
196
184
173
191
180
142
154
144
137
152
141
156
175
163
151
167
157
163
182
171
167
190
177
167
190
178
163
185
173
157
179
167
170
192
180
172
194
183
170
191
184
170
191
184
168
189
182
169
189
181
152
169
158
142
160
148
170
191
182
165
188
181
163
185
176
166
188
176
162
184
172
162
185
172
158
176
166
131
145
137
149
167
157
158
179
168
172
188
178
168
187
176
161
183
171
162
186
173
159
181
169
153
175
163
165
187
175
171
193
182
177
198
191
178
199
192
174
195
188
178
199
191
163
180
168
135
148
137
175
188
182
185
206
199
182
205
195
173
195
183
169
191
179
178
200
187
153
172
163
123
140
134
164
184
176
154
178
169
165
181
171
168
186
175
156
179
167
154
177
165
157
179
167
153
175
163
163
185
173
155
177
166
162
183
176
171
192
185
165
186
179
165
186
179
159
177
165
133
142
133
147
155
150
174
194
187
170
194
184
162
184
171
169
191
179
170
192
179
129
150
140
144
163
157
173
195
188
155
180
172
161
180
168
163
182
169
153
174
160
155
177
163
156
178
166
157
179
167
154
175
166
160
179
172
164
184
176
159
180
172
151
173
165
151
173
164
148
165
155
143
155
145
120
132
121
144
162
147
152
172
157
154
169
156
160
172
161
128
143
133
128
146
138
163
183
178
155
177
170
150
174
167
163
185
174
166
188
175
163
185
170
157
180
164
152
176
161
164
186
174
164
185
178
167
186
181
166
187
178
163
183
174
163
183
174
168
187
178
166
180
171
144
155
145
111
123
107
123
137
116
158
170
151
156
162
149
130
133
124
116
126
118
158
176
168
168
189
182
144
166
158
147
168
161
158
178
174
161
183
174
162
188
174
158
183
167
159
181
165
171
193
179
168
191
181
158
181
172
163
188
175
170
190
178
171
183
174
154
161
153
133
137
129
128
132
122
124
129
116
92
96
81
97
105
90
84
88
78
88
91
84
116
127
121
157
178
170
165
189
180
151
175
167
159
183
174
167
188
187
168
188
180
170
191
176
145
162
144
125
138
122
157
173
160
162
182
170
155
178
166
169
192
177
157
174
161
111
118
108
69
68
61
56
55
45
60
58
47
77
75
65
70
68
58
40
41
32
49
50
43
66
68
63
125
139
134
163
187
180
163
190
181
163
190
181
166
193
184
182
204
198
180
192
180
150
152
133
101
98
80
73
71
58
79
82
71
100
110
100
99
113
102
107
120
106
92
102
88
68
72
60
56
56
45
54
55
41
54
55
41
52
53
43
50
50
43
46
45
40
58
55
52
82
84
83
165
181
179
172
200
193
165
195
185
162
192
182
165
194
184
188
212
200
149
152
134
103
88
65
83
62
44
62
48
38
63
55
46
73
74
64
78
83
72
82
84
72
81
84
70
73
77
64
70
74
61
65
70
52
62
67
51
56
60
49
45
48
43
43
42
38
59
54
53
60
62
63
146
165
163
180
210
203
174
205
195
171
202
192
174
205
194
165
185
170
103
92
66
84
66
40
66
53
37
64
53
45
83
75
65
88
83
70
94
91
76
91
91
76
83
84
70
79
81
69
78
79
69
73
74
62
68
71
55
57
62
50
41
46
45
51
49
44
50
48
43
37
46
47
127
153
149
182
214
205
178
208
198
177
209
198
173
208
196
159
176
162
106
93
68
93
79
55
67
61
45
77
71
60
96
90
76
97
91
73
100
96
75
99
99
78
90
91
72
86
86
71
87
85
74
84
82
71
76
76
61
62
65
53
47
51
52
47
46
43
36
37
33
38
52
53
139
168
162
178
210
200
177
207
197
180
211
201
175
211
199
169
185
174
108
99
82
83
72
54
62
57
42
84
78
64
102
96
78
102
97
75
105
101
77
106
104
78
98
96
73
95
92
72
93
90
73
92
87
76
81
79
65
72
72
61
46
48
49
31
32
31
29
34
33
59
75
77
164
192
187
179
210
199
182
211
201
179
211
200
171
207
195
172
189
180
104
101
91
62
56
45
51
47
36
73
67
55
84
78
63
91
85
67
102
97
75
106
101
77
105
100
78
99
93
74
95
89
74
96
88
78
88
82
69
76
74
63
52
51
54
27
31
33
18
29
32
66
84
88
168
196
191
180
211
199
166
196
186
161
193
182
168
204
192
147
164
157
87
89
85
47
46
40
47
44
39
53
45
41
56
49
42
64
57
46
76
69
55
95
87
68
102
93
76
94
84
71
87
77
68
90
80
71
84
76
63
67
62
52
54
50
53
31
36
42
28
42
49
69
88
95
170
198
192
177
207
194
152
181
171
166
198
187
177
213
201
135
156
151
116
127
126
42
46
44
42
40
40
44
39
42
40
37
36
35
32
28
45
39
34
64
57
50
67
60
54
57
49
46
52
41
41
60
50
49
55
50
44
38
37
33
56
58
62
118
131
135
137
157
161
144
168
170
164
192
185
141
171
158
150
180
170
174
205
194
176
210
198
170
201
194
168
193
189
82
93
93
39
38
42
36
37
41
42
52
52
53
63
63
29
32
35
29
31
36
32
39
42
49
52
57
59
54
62
37
32
43
35
38
47
69
81
87
130
151
155
177
204
200
180
208
200
173
202
194
136
165
156
142
172
161
169
198
188
173
204
194
178
208
198
172
204
198
187
215
210
123
135
136
41
39
44
34
35
39
88
103
102
151
173
170
97
115
114
91
105
107
111
131
131
145
161
162
125
130
135
34
34
44
40
46
55
151
168
173
177
204
206
171
201
195
179
209
199
152
182
172
146
176
166
179
209
199
178
208
198
178
208
198
180
210
200
170
202
195
176
204
199
108
121
121
34
33
38
54
58
61
135
157
154
165
199
192
158
190
183
161
188
183
171
203
196
178
208
201
136
153
151
34
39
44
41
49
54
147
166
167
172
200
198
170
201
194
167
197
187
139
169
159
153
183
173
166
196
186
172
202
192
175
205
195
179
209
199
176
208
201
173
200
196
84
96
97
26
29
33
101
115
115
175
205
199
171
211
202
171
207
199
167
201
191
165
205
192
182
218
206
150
174
167
36
46
46
34
46
47
150
173
170
182
213
207
173
205
196
144
174
164
146
177
166
158
188
178
163
193
183
179
209
199
184
214
204
179
209
199
180
212
206
183
211
206
86
98
98
36
45
46
145
173
168
176
215
206
174
215
206
181
215
207
185
219
207
176
214
201
181
216
204
164
187
179
51
62
60
48
62
59
159
184
178
184
218
209
153
186
176
141
171
161
162
192
182
174
205
194
174
204
194
180
210
200
184
214
204
175
205
195
176
213
205
180
210
205
96
110
110
43
54
54
155
184
176
174
212
201
166
204
194
178
210
201
177
210
198
174
208
196
179
213
200
174
200
191
80
91
90
77
93
90
161
187
178
176
203
193
136
159
148
149
172
160
152
180
166
157
189
174
162
195
180
167
197
183
162
189
176
154
178
166
