P3 24 24 255
171
151
131
167
146
126
160
142
120
168
151
133
168
151
131
164
142
119
162
140
114
150
133
100
157
140
114
166
149
124
158
140
111
162
139
111
166
142
112
168
147
111
165
142
108
160
146
115
171
144
116
193
112
85
205
65
49
193
52
41
187
109
94
135
114
104
124
141
145
167
183
182
163
140
99
163
139
103
157
134
106
161
142
118
161
144
124
161
142
120
162
143
118
161
144
121
145
130
97
145
128
99
161
140
113
161
140
114
166
146
116
159
137
101
161
135
101
159
132
100
149
130
98
143
130
99
162
142
111
180
122
95
216
130
120
234
88
76
205
82
61
182
134
107
173
147
103
167
142
102
162
138
102
161
136
105
160
141
115
161
145
121
158
140
117
172
155
137
174
158
140
158
142
118
144
127
96
151
132
98
161
140
108
161
139
105
158
137
100
163
142
106
157
139
108
144
123
92
157
132
100
162
142
111
158
137
112
183
139
116
219
94
76
231
56
37
175
147
101
172
147
102
166
141
101
168
141
104
164
138
100
159
135
105
161
139
112
159
138
113
164
144
124
163
140
114
149
127
93
156
138
106
161
141
115
158
137
107
157
137
103
160
136
105
160
138
107
161
142
110
161
138
102
163
135
100
167
133
104
165
135
101
161
142
110
185
123
89
176
148
109
173
145
99
170
143
99
171
145
101
167
140
95
164
140
98
163
141
103
162
139
101
160
136
103
160
137
112
162
140
114
167
142
119
166
138
114
170
149
127
157
139
112
148
129
93
151
129
98
161
139
106
166
143
110
160
139
105
159
139
106
159
133
99
171
142
109
149
136
113
170
145
107
173
144
104
170
144
107
176
150
116
175
148
115
169
142
106
170
145
106
174
147
106
167
139
98
165
143
108
155
138
107
168
110
80
187
99
77
161
139
116
168
152
127
172
155
136
163
143
113
154
131
98
160
134
102
161
138
108
162
146
117
155
138
109
159
136
105
160
139
107
178
158
132
172
149
115
168
147
116
166
143
103
171
145
105
168
139
94
164
135
92
173
144
102
175
146
103
168
140
97
155
134
95
161
120
84
175
122
90
157
136
108
168
145
119
179
163
146
169
151
134
156
133
107
161
134
105
160
139
112
161
141
115
165
148
125
163
140
113
162
142
112
177
160
126
179
157
124
181
159
131
176
153
120
173
148
114
169
143
106
168
138
96
167
137
92
173
146
103
172
145
104
171
146
111
159
139
98
161
143
104
163
140
105
150
125
86
145
119
83
154
132
102
162
141
116
164
144
122
163
144
124
154
136
108
157
137
106
161
139
107
163
142
117
176
154
110
174
148
110
173
146
112
170
140
102
166
139
100
174
153
118
170
140
104
162
133
92
170
147
105
172
152
116
173
153
131
172
153
120
176
150
112
172
143
102
175
162
138
192
181
168
168
150
127
148
125
95
155
134
103
161
144
120
158
140
116
141
125
95
156
133
102
153
129
99
170
145
97
173
146
98
181
154
110
196
187
175
202
191
173
193
179
148
185
168
131
169
144
103
166
131
90
174
141
102
166
138
97
169
143
107
170
144
101
158
152
141
156
156
155
151
152
146
198
205
206
208
210
206
182
174
156
165
141
112
164
142
110
159
146
119
143
124
95
153
136
114
184
161
120
181
158
118
173
151
108
213
214
212
217
223
222
182
190
181
180
188
176
197
198
186
204
196
182
188
169
146
172
146
114
148
124
91
137
140
139
160
162
158
77
75
78
75
72
69
133
114
87
164
153
133
199
201
195
208
214
210
189
180
164
163
147
124
153
133
109
163
147
132
179
153
105
182
160
122
173
155
128
180
187
186
239
246
243
252
254
251
218
222
215
163
173
159
150
162
144
187
195
186
215
212
209
163
170
181
121
127
140
78
77
74
88
85
88
159
142
119
163
138
111
138
122
103
82
84
77
158
156
152
186
191
192
215
216
215
180
172
155
151
131
101
176
150
104
181
152
103
167
148
111
176
182
184
235
238
239
175
175
178
202
201
202
253
253
252
223
228
220
162
173
156
133
146
125
159
168
157
182
185
185
125
129
148
112
108
110
132
115
101
165
143
111
120
114
111
94
111
135
116
117
125
54
58
76
151
143
139
207
211
211
203
201
193
188
155
108
190
158
108
153
132
94
166
171
170
132
135
134
62
68
70
65
71
73
146
147
148
247
247
248
251
252
254
220
224
221
160
172
158
125
143
119
151
166
142
189
196
189
175
173
179
139
134
127
69
71
85
91
104
125
78
84
97
86
92
83
114
104
90
154
139
120
221
223
229
98
96
99
155
134
109
185
155
111
125
119
107
57
61
67
127
132
140
113
122
129
74
76
79
213
215
214
240
241
241
235
236
235
245
245
246
233
238
234
178
186
175
121
138
114
134
151
130
180
190
184
170
173
177
155
157
162
81
89
101
97
99
90
120
109
87
150
134
119
212
213
212
67
77
94
54
63
79
76
72
73
141
123
102
99
95
86
119
131
137
121
131
140
77
80
87
174
177
177
236
241
241
231
235
237
241
242
243
242
244
244
252
251
251
243
245
242
187
195
183
126
140
118
118
134
114
178
184
174
201
204
205
163
162
160
119
108
93
113
107
98
182
179
173
86
92
101
81
91
101
65
73
85
47
48
61
45
45
51
105
109
115
116
123
129
53
56
60
136
139
139
228
235
234
225
232
230
234
239
239
237
241
240
240
242
241
192
192
192
232
233
235
245
246
243
193
200
195
127
142
125
111
133
106
167
179
167
203
206
208
169
169
178
152
150
144
97
102
112
90
98
108
89
97
105
85
93
99
67
71
75
50
53
57
39
41
45
8
9
12
96
99
101
216
224
224
226
235
233
232
240
239
232
239
239
236
241
240
168
170
170
226
227
230
242
243
244
249
249
248
203
216
209
183
174
168
131
146
123
115
137
109
168
183
165
218
221
220
117
119
118
107
111
118
99
103
112
94
99
107
93
96
106
85
90
99
67
71
77
33
35
36
35
37
41
106
111
117
161
166
168
206
213
215
226
232
233
234
240
240
235
241
241
235
239
240
237
239
241
234
237
237
221
228
224
232
196
197
232
180
182
203
202
194
142
159
136
118
138
112
128
119
89
119
118
117
112
116
122
106
111
115
99
104
109
94
99
108
92
97
104
91
96
100
73
78
81
44
48
51
49
51
57
98
101
105
156
161
161
196
201
203
222
228
226
232
238
237
233
240
238
228
232
231
236
239
241
238
242
242
233
229
230
245
244
246
244
245
246
206
213
204
155
137
92
142
143
134
121
124
129
115
117
121
114
116
120
109
110
117
100
103
110
93
98
105
93
98
106
93
98
104
75
78
81
50
52
54
57
59
61
78
81
85
136
140
141
186
191
194
220
227
226
224
231
231
227
236
232
230
236
232
241
244
243
229
231
228
241
242
239
251
251
250
171
148
105
181
163
134
174
173
162
144
150
151
118
121
126
110
112
118
113
114
120
107
109
117
99
103
111
94
99
106
95
99
106
94
97
103
75
77
81
45
46
52
38
41
48
74
78
82
123
128
130
185
192
192
227
235
237
231
241
242
200
203
205
96
99
101
108
112
117
185
188
186
164
152
106
171
154
106
176
154
121
179
172
157
175
173
170
143
145
148
121
121
125
118
118
123
114
116
121
108
110
116
100
103
112
93
99
107
94
99
104
92
96
101
73
75
79
44
47
51
34
37
44
56
59
62
120
121
121
176
176
176
107
111
113
113
121
129
104
113
123
70
77
82
162
148
99
154
141
93
164
150
101
168
153
114
171
156
128
179
169
154
173
173
167
145
147
147
122
122
129
118
117
124
113
116
119
104
109
114
98
103
109
95
99
106
96
99
105
91
95
99
70
73
79
46
49
54
46
46
46
117
106
95
102
96
85
132
141
146
129
141
152
96
107
115
