P3 24 24 255
107
120
122
85
103
107
85
108
110
168
183
181
254
255
247
255
253
246
255
254
250
255
253
249
254
253
248
247
245
240
238
233
226
236
233
230
210
217
220
239
246
249
252
252
251
251
248
243
249
252
252
245
247
252
216
218
228
247
249
253
251
253
253
253
253
253
254
254
254
254
254
254
80
95
99
86
108
112
84
114
115
118
137
133
230
232
222
240
234
223
245
240
230
249
245
234
251
246
236
228
221
210
217
207
198
167
162
159
76
84
91
165
175
183
235
233
232
247
244
237
247
254
254
232
240
245
212
220
230
246
253
255
250
255
255
255
255
255
255
255
254
253
253
253
91
109
112
78
102
105
84
115
114
96
114
107
189
189
175
212
201
185
215
203
186
218
206
188
199
187
169
208
197
179
207
197
183
111
110
105
50
61
67
95
107
116
167
169
168
165
164
157
150
162
164
131
143
151
130
142
153
164
178
184
197
208
211
222
225
227
244
246
249
255
255
255
96
116
115
71
91
88
73
91
82
83
90
69
180
172
140
221
207
174
222
206
173
220
201
164
193
174
138
196
182
149
142
146
125
57
77
71
39
56
57
47
64
68
95
113
114
83
102
105
62
79
91
96
114
129
39
57
78
36
57
79
54
74
96
87
104
120
134
150
174
190
204
222
71
85
83
49
62
58
54
64
54
99
101
77
192
182
146
219
209
174
219
207
174
214
197
158
202
184
143
185
172
135
106
114
92
44
68
63
25
42
41
45
60
63
166
186
190
107
132
137
62
84
97
104
127
143
43
69
90
33
60
86
31
59
86
59
87
109
57
85
117
60
85
119
40
44
42
51
55
54
117
124
117
183
185
166
190
185
154
158
158
132
134
135
110
155
146
114
195
183
148
176
166
133
90
96
78
26
45
42
28
39
40
51
60
65
185
200
204
130
152
158
63
91
101
99
128
142
55
87
105
24
57
80
33
67
91
42
79
101
47
85
115
48
84
116
64
58
53
76
71
70
114
116
110
153
156
139
101
99
72
52
61
41
109
120
102
182
182
156
191
185
156
144
139
111
45
52
36
25
40
37
37
45
47
51
57
63
187
198
203
132
154
159
73
106
113
96
132
142
109
147
161
77
116
135
42
83
105
26
71
93
82
130
157
97
144
174
148
134
123
57
46
40
68
66
57
81
82
66
61
59
36
39
50
34
50
64
50
148
153
132
187
188
163
146
149
126
35
46
33
21
36
33
45
52
55
70
75
82
173
183
190
116
138
143
58
95
99
101
140
146
141
182
192
125
168
184
74
118
137
32
80
100
96
148
172
116
170
194
183
168
145
109
98
80
100
95
80
77
74
55
104
98
74
90
96
78
25
37
21
61
66
46
159
165
144
133
144
127
31
49
39
23
40
37
44
53
55
76
84
90
132
146
153
82
107
111
53
89
90
77
115
120
117
157
166
91
132
147
65
107
125
42
85
105
112
162
180
110
163
180
179
164
130
172
162
133
129
124
100
121
113
91
177
163
138
143
141
118
62
67
45
50
53
31
68
76
57
74
91
80
28
52
45
22
45
40
40
55
55
44
57
61
85
103
108
70
96
99
57
90
91
54
88
92
98
135
144
48
87
101
38
76
93
35
71
89
64
106
120
82
129
142
180
168
125
165
158
121
125
119
91
125
115
89
165
146
118
164
155
127
136
133
107
140
140
115
49
57
40
40
61
53
30
59
53
10
36
30
24
43
41
31
48
50
32
54
58
44
72
74
47
76
77
51
81
85
119
152
161
53
89
103
31
65
82
35
65
81
37
73
84
41
82
92
179
166
127
157
149
120
123
116
94
129
119
90
167
149
106
185
165
122
183
168
133
138
134
107
64
75
59
36
62
55
23
52
46
12
33
26
29
44
41
32
44
45
30
48
50
34
57
58
43
62
64
63
80
86
89
124
126
50
96
99
36
77
84
47
90
98
50
86
95
46
76
87
199
185
151
160
152
129
127
121
103
169
160
132
196
181
134
190
167
122
186
165
131
144
137
110
102
112
94
34
56
46
19
42
34
32
46
40
33
42
40
24
34
35
25
43
44
24
49
48
30
48
49
49
62
66
49
87
86
47
99
96
49
94
95
44
93
95
58
92
99
60
83
94
189
177
148
138
132
111
127
122
106
166
158
134
200
186
147
191
172
135
164
147
117
138
129
103
91
92
71
35
44
27
18
30
19
27
34
31
31
36
36
54
65
66
26
49
49
19
50
47
13
37
35
23
42
43
37
78
75
41
95
90
35
80
79
48
90
88
109
137
140
120
137
144
158
149
126
132
129
112
128
126
113
138
132
113
175
162
133
162
147
120
131
118
96
129
118
96
77
71
48
99
95
73
49
49
35
40
41
40
48
49
50
50
61
61
24
50
48
15
51
45
18
47
42
23
46
44
24
66
60
21
76
69
23
67
64
41
78
73
109
130
130
125
135
138
65
58
44
62
61
49
73
74
63
97
94
80
112
101
83
112
101
85
119
109
94
121
112
94
92
82
60
131
121
97
114
108
94
43
39
40
37
36
37
32
41
42
20
45
43
15
52
45
15
47
40
22
46
43
21
63
56
17
68
60
26
66
62
46
78
72
108
124
124
121
126
129
31
27
20
25
27
19
14
18
11
22
23
15
41
32
24
40
32
25
57
51
42
67
60
47
110
101
85
148
139
118
129
122
110
25
23
23
11
9
11
26
32
34
32
51
52
17
50
45
19
50
41
23
44
41
23
61
54
20
67
59
30
63
61
46
76
71
108
123
123
113
117
121
50
49
46
35
40
34
19
27
19
10
12
9
18
11
12
18
11
10
26
21
18
35
30
24
53
48
38
48
44
33
29
28
19
7
9
8
27
27
28
29
33
36
43
57
59
22
48
44
21
48
37
30
46
41
30
62
55
33
72
65
36
62
61
43
73
71
108
125
127
127
133
138
70
70
71
62
67
63
38
48
42
17
21
21
18
12
19
22
15
19
23
20
20
26
24
21
16
16
11
6
7
1
19
24
18
33
38
36
65
65
66
50
50
54
58
65
70
34
53
52
27
50
41
54
65
62
43
69
64
113
144
139
72
93
92
42
72
72
99
116
121
98
106
114
91
91
92
92
95
94
80
84
82
37
39
39
19
17
20
15
15
15
9
11
9
14
16
13
28
30
27
52
55
51
32
39
36
47
52
49
55
49
44
49
42
39
57
61
64
44
59
63
33
49
45
50
62
61
53
72
69
163
186
183
86
105
105
36
57
60
87
100
106
57
66
74
106
106
105
97
97
97
85
85
85
45
45
45
10
10
10
12
14
12
11
15
13
10
14
12
55
60
58
126
131
129
46
53
52
58
60
56
104
94
84
74
64
53
46
51
50
31
47
51
16
30
30
24
38
38
38
53
52
80
96
95
51
67
66
28
39
42
31
39
44
19
25
30
98
98
98
65
65
65
66
66
66
73
73
73
51
51
51
33
35
37
22
25
28
24
28
30
44
48
50
67
71
74
43
49
49
86
88
81
154
145
131
136
128
114
46
51
46
47
63
65
21
40
38
15
31
30
25
38
38
30
40
41
36
43
45
23
30
30
12
17
18
9
11
13
197
197
197
149
149
149
174
174
174
216
216
216
208
208
208
152
153
158
116
119
126
93
96
103
68
71
78
56
59
66
41
45
46
87
89
79
125
119
101
130
126
108
41
46
38
49
66
65
43
66
63
35
53
51
29
40
41
32
36
39
23
24
27
13
16
14
12
14
12
11
10
9
254
254
254
254
254
254
255
255
255
255
255
255
255
255
255
252
253
255
246
249
252
232
235
239
205
208
215
137
140
149
30
33
35
77
77
68
116
113
95
147
145
127
49
54
46
17
31
31
15
38
35
24
41
40
17
25
27
20
21
25
23
21
25
12
14
11
10
10
8
15
12
11
