P3 24 24 255
221
235
247
220
233
246
220
233
245
219
232
244
218
232
244
219
233
245
219
233
245
219
232
246
219
232
246
219
232
246
219
232
246
216
231
244
225
238
247
172
182
188
35
42
47
60
61
64
108
100
95
63
59
56
174
181
187
223
234
246
217
229
242
216
229
244
214
230
243
212
232
240
220
234
244
219
233
243
219
232
243
218
232
242
218
231
242
218
231
242
218
231
242
218
231
242
218
231
242
218
231
242
217
231
243
216
231
244
214
226
235
97
103
107
34
37
40
60
59
62
90
84
81
64
60
59
117
119
123
216
224
229
218
229
235
215
228
236
214
229
236
214
229
234
219
232
241
219
231
241
218
231
240
217
230
239
217
230
239
217
230
239
217
230
239
217
230
238
217
230
238
217
230
238
216
229
237
223
235
244
159
167
175
30
33
38
42
41
45
55
53
55
50
45
45
76
72
73
67
69
70
168
178
178
218
231
232
211
225
229
211
226
231
214
225
231
219
230
238
219
229
237
219
229
237
218
228
236
218
228
236
218
228
236
217
227
235
217
228
232
218
229
233
218
229
233
217
228
232
216
225
230
82
86
92
28
27
33
45
40
45
43
39
40
61
59
61
72
69
71
58
56
57
107
111
116
213
219
226
214
223
232
211
223
232
210
224
233
219
227
235
217
226
233
217
226
234
217
225
233
216
225
232
217
226
233
219
228
235
217
227
229
213
224
225
214
225
227
218
228
229
173
179
181
36
36
41
47
42
50
49
40
46
40
35
34
143
146
151
160
160
164
59
55
53
75
75
71
181
183
182
191
196
197
197
202
203
204
210
208
215
221
221
209
215
216
207
213
213
211
216
213
213
217
217
203
207
209
187
192
192
173
179
175
169
173
167
177
178
170
179
179
171
83
82
82
30
27
29
56
49
53
54
46
53
42
35
41
153
141
135
218
197
182
166
143
121
155
134
105
189
170
138
191
174
142
197
177
143
205
181
142
184
187
171
172
176
159
167
170
152
175
178
159
151
152
143
107
107
105
81
81
78
88
88
82
131
128
118
156
146
131
138
125
111
54
47
46
58
52
52
53
47
47
51
48
47
42
40
28
165
141
92
219
182
110
221
187
115
222
189
115
222
192
107
225
196
107
229
196
111
234
198
115
176
177
140
170
170
133
160
160
125
121
124
99
57
58
49
52
52
54
49
48
52
41
40
41
78
74
71
100
91
86
78
68
62
76
70
69
85
79
79
76
70
69
59
55
57
49
44
44
153
137
105
182
162
107
179
162
111
166
146
103
177
159
106
184
166
110
192
175
118
194
176
115
167
166
112
168
167
112
160
159
109
73
75
51
31
32
27
47
46
51
34
33
39
55
53
58
64
60
63
59
53
54
56
49
49
70
64
64
78
72
72
85
79
78
78
73
76
54
49
50
113
107
81
133
129
84
136
134
92
108
103
72
135
130
91
142
138
95
146
143
103
149
147
108
158
160
98
164
166
103
145
147
91
48
49
33
28
28
28
35
35
37
30
30
29
48
46
46
35
33
34
30
28
30
31
28
29
42
36
36
64
58
58
67
61
61
86
81
80
62
61
49
80
82
50
105
107
59
106
106
60
96
96
58
111
112
64
111
114
61
103
105
55
113
116
59
154
158
96
162
168
101
137
142
87
40
41
32
27
27
29
25
25
26
31
31
25
34
33
28
26
24
21
26
26
24
24
23
22
30
25
24
51
46
44
49
43
41
72
67
67
70
70
65
64
66
45
83
82
52
92
87
56
94
91
60
106
104
65
98
97
55
98
96
59
97
95
55
153
154
93
154
160
87
123
128
74
36
36
28
36
35
33
35
33
39
24
23
19
23
22
17
25
24
20
26
24
24
26
23
24
26
21
20
42
37
33
40
35
30
46
42
41
57
57
48
98
100
68
110
108
74
99
96
58
85
82
48
97
96
55
85
83
44
82
79
51
70
68
46
154
155
94
156
162
91
109
112
66
31
30
23
39
38
35
32
29
34
22
22
12
37
37
24
23
22
15
21
19
20
24
20
26
23
17
19
32
26
27
33
28
28
29
23
25
43
44
31
131
134
90
151
152
101
139
140
84
124
124
72
138
139
82
128
129
74
106
104
60
85
81
46
154
155
92
153
158
92
89
91
55
22
21
17
30
29
27
16
15
15
67
69
44
129
131
88
80
81
47
44
43
22
34
31
17
30
25
17
22
17
17
33
27
29
27
22
23
57
58
39
147
153
94
150
153
87
151
154
85
153
156
89
156
159
88
152
155
86
147
148
87
141
138
86
154
156
92
148
152
90
66
67
41
25
24
21
24
23
22
17
17
13
108
112
70
163
167
98
152
154
91
135
136
81
123
124
74
116
117
77
71
68
52
28
23
20
24
20
17
77
80
52
154
161
91
153
157
86
151
154
86
149
152
83
149
153
78
148
152
80
149
151
85
154
155
92
154
156
91
135
139
81
49
48
31
22
21
20
16
14
14
40
40
31
127
133
81
143
148
75
149
152
81
152
155
87
157
160
91
161
166
98
110
110
76
29
25
16
36
33
25
104
108
74
160
168
94
153
156
88
153
155
93
153
156
90
153
157
87
153
156
88
148
152
87
144
150
83
150
154
87
117
121
73
38
38
26
19
18
20
11
10
11
74
76
53
142
149
88
137
141
71
140
143
74
142
145
76
145
148
80
148
153
86
106
106
66
48
44
36
62
59
48
116
120
83
155
163
91
154
158
91
157
160
95
151
156
88
151
156
86
155
160
91
155
161
93
152
158
91
149
152
86
100
104
60
29
29
18
21
20
17
17
16
10
96
100
64
142
151
80
142
145
79
141
143
80
136
138
75
137
139
77
144
149
82
106
108
61
68
65
47
75
73
53
118
122
85
152
160
88
150
153
87
156
159
92
156
162
92
151
157
87
149
156
85
150
156
87
154
158
92
148
151
87
87
91
49
33
33
23
40
40
27
29
30
14
103
109
67
138
148
73
140
146
77
144
149
83
142
147
81
142
147
82
147
152
83
110
113
61
80
78
50
81
81
50
111
115
77
153
161
89
152
155
89
153
156
89
151
157
86
147
153
83
150
156
86
151
157
88
153
158
92
143
146
84
103
107
68
53
53
43
77
78
58
42
43
25
95
99
66
132
140
80
135
143
76
137
145
79
136
144
78
132
139
77
143
147
88
115
117
70
89
88
59
91
91
57
104
108
70
141
149
78
146
149
83
155
159
92
154
160
89
145
151
81
146
152
82
149
155
86
152
157
91
146
149
89
97
100
63
47
46
38
64
66
43
38
38
25
65
66
50
92
96
60
94
99
58
92
97
57
90
95
55
91
95
57
104
106
61
88
88
53
87
85
63
78
78
48
106
111
73
142
150
80
141
144
78
140
143
77
145
151
81
149
155
85
148
154
84
142
148
79
143
148
82
145
148
90
77
77
45
42
38
35
66
65
44
50
48
32
64
63
46
72
72
43
71
71
42
67
67
39
68
68
40
71
72
42
72
74
37
56
56
35
70
69
54
53
53
33
90
92
68
135
142
86
134
141
74
130
137
71
127
135
69
132
140
72
145
154
81
146
154
81
140
145
79
148
152
90
101
102
60
71
68
48
110
111
71
113
114
72
121
122
77
120
122
70
118
120
68
113
116
64
112
114
63
101
104
53
89
94
54
50
51
36
50
49
43
43
43
32
53
55
33
110
117
66
130
139
73
130
139
73
128
137
72
118
127
62
124
134
67
140
148
80
142
148
82
151
156
87
134
138
77
126
128
78
138
142
82
135
140
77
139
144
78
138
144
74
136
141
72
133
138
69
132
137
68
130
136
68
118
125
72
61
65
33
60
61
43
81
82
62
87
92
55
115
123
67
130
139
73
129
138
71
132
141
75
124
133
70
112
120
62
108
115
59
102
108
53
