P3 24 24 255
160
157
160
160
158
164
154
153
158
168
166
166
167
161
163
164
160
164
173
170
176
144
131
130
122
98
92
156
144
143
169
163
166
165
159
163
166
158
159
155
126
112
133
96
77
162
147
145
180
180
185
158
155
160
164
159
164
180
176
181
181
177
181
164
161
166
155
153
156
146
141
148
155
153
158
138
136
140
131
131
135
171
170
176
172
170
177
162
159
164
172
169
172
143
126
125
106
65
61
126
93
85
158
151
150
157
151
151
163
152
148
153
122
103
133
97
79
155
143
141
164
162
167
153
148
151
156
154
156
167
165
168
170
166
172
161
156
158
150
144
144
147
143
146
159
156
158
155
151
150
154
152
155
161
158
161
163
160
164
175
172
175
175
172
177
136
114
115
102
60
61
110
69
62
143
123
118
160
153
155
180
163
155
175
141
124
151
119
105
165
157
154
163
158
162
167
161
164
164
160
162
164
160
161
151
146
149
166
160
163
167
160
163
161
155
159
161
152
151
158
151
153
177
173
177
156
153
155
149
145
146
170
166
165
162
161
165
130
109
110
100
54
56
99
54
50
129
91
80
196
171
165
207
182
174
209
185
173
202
179
170
184
177
177
172
168
174
164
161
167
171
167
172
186
180
182
160
154
154
159
153
157
170
165
170
170
168
176
167
139
132
172
151
147
170
158
159
167
160
164
164
158
161
175
168
169
184
175
176
156
133
129
99
59
60
91
57
54
116
81
65
180
146
125
192
160
142
192
161
147
205
179
169
183
172
172
171
170
176
164
162
168
169
166
171
173
167
169
172
166
170
171
165
168
169
165
172
165
164
173
158
127
116
166
134
125
167
134
124
172
144
136
173
147
139
182
161
152
200
176
166
180
150
139
114
83
74
98
75
65
125
103
91
163
132
112
169
132
108
168
131
109
183
151
133
189
171
166
175
171
175
168
165
170
165
163
170
168
162
165
171
165
165
167
161
164
178
177
183
169
165
169
150
119
106
156
125
110
169
137
122
191
162
150
182
151
137
186
161
148
191
164
149
185
157
141
139
114
99
121
99
83
142
121
111
157
129
115
155
120
100
150
115
90
160
126
104
179
156
145
178
172
174
171
167
173
168
165
172
165
161
162
163
157
159
164
160
166
176
172
177
157
151
153
143
112
95
149
118
102
177
150
135
191
162
149
173
141
126
180
158
145
182
157
143
165
136
118
135
115
102
127
106
91
131
109
96
139
113
101
145
115
98
138
104
80
137
103
81
168
141
124
177
167
167
164
162
168
169
168
174
172
168
174
172
168
174
171
168
174
165
160
164
159
153
157
137
104
86
144
113
97
172
147
132
171
141
124
164
131
115
173
151
137
176
152
137
143
116
100
122
102
92
115
95
80
118
96
82
140
115
104
150
122
107
126
95
74
116
86
68
125
97
82
140
128
128
163
162
167
172
171
177
174
172
180
168
164
170
177
174
179
170
168
173
168
164
169
126
91
74
133
103
85
155
129
113
148
118
101
152
122
106
155
131
116
154
131
116
124
101
87
104
90
82
111
92
79
118
95
82
126
101
92
110
87
80
109
82
68
130
102
86
100
75
68
133
125
128
182
179
184
178
174
179
170
169
176
175
170
175
172
167
171
163
159
164
166
164
171
116
82
64
118
89
69
139
113
95
129
101
83
141
113
97
136
109
95
137
112
99
119
96
83
83
76
73
109
91
79
117
96
81
100
78
67
75
55
51
109
85
76
166
140
129
143
123
116
166
160
162
186
183
188
170
167
171
172
172
178
178
174
179
165
157
158
155
147
147
166
161
165
109
77
61
109
81
62
123
96
77
115
88
70
130
104
88
131
104
90
123
102
85
124
101
84
86
73
67
103
85
72
108
83
70
92
69
60
104
81
67
134
109
96
164
140
134
176
158
159
184
174
181
179
174
177
166
166
166
165
164
170
169
167
175
163
158
160
154
149
150
158
155
159
104
75
59
106
77
59
114
86
67
108
80
62
122
96
80
136
111
96
113
90
75
116
95
76
95
79
66
79
73
65
97
74
61
77
54
49
97
75
67
140
113
101
133
111
108
113
99
109
151
144
150
168
163
163
168
164
168
169
167
172
179
177
181
170
168
172
167
165
171
160
158
163
101
74
59
106
78
61
110
82
64
107
79
61
116
91
74
137
111
95
122
96
81
108
88
72
103
84
68
77
68
63
74
63
57
79
59
51
69
53
52
92
72
68
93
76
71
68
59
64
127
125
129
171
167
168
162
158
161
159
157
163
170
168
173
168
165
170
175
172
176
171
169
174
101
77
62
105
79
63
107
80
63
108
81
63
116
91
73
123
97
81
125
100
81
110
88
71
99
78
64
96
78
68
69
61
60
93
83
78
119
105
105
72
51
55
64
46
47
99
79
86
152
147
154
165
163
166
158
156
161
161
159
166
176
174
178
163
161
165
166
160
165
175
169
171
101
79
65
105
81
66
109
83
68
113
86
69
121
94
76
123
99
83
116
92
74
106
82
67
91
72
60
99
80
69
93
78
69
114
106
103
147
143
145
114
94
99
83
49
58
115
79
90
175
165
172
170
168
173
157
156
161
161
159
164
176
173
176
169
165
170
172
166
168
169
162
161
102
80
67
106
84
71
110
87
73
116
90
73
124
97
79
130
107
92
116
92
76
101
77
63
92
73
61
92
80
72
77
74
75
115
109
108
152
150
151
155
149
155
137
114
124
150
130
138
182
179
184
175
172
178
165
165
172
152
152
155
159
156
157
164
159
162
167
163
164
170
167
168
100
79
67
105
85
73
109
88
75
115
91
75
123
97
80
126
104
88
117
91
74
100
76
61
93
71
58
73
76
82
35
69
98
106
117
129
161
159
164
157
157
164
171
166
170
166
166
155
172
173
168
170
166
171
160
160
167
166
163
169
169
163
163
161
156
157
158
154
156
163
157
159
95
75
68
96
76
69
106
87
76
116
93
78
120
94
78
120
96
79
114
87
71
99
74
60
94
71
56
71
77
86
16
69
110
93
115
135
176
172
176
171
167
171
166
161
161
148
151
133
154
157
146
170
166
170
172
171
176
180
176
182
174
165
163
160
155
156
163
158
163
163
155
158
120
103
103
94
74
71
95
76
68
114
92
79
117
91
75
113
89
72
105
80
63
98
74
58
106
83
67
96
82
77
51
82
110
113
127
144
167
161
163
167
163
166
162
156
156
134
134
134
152
151
155
168
165
171
174
172
180
181
178
183
175
169
170
158
153
156
161
158
163
162
158
161
154
148
151
126
113
112
102
83
76
109
86
74
107
85
70
106
82
67
105
82
67
107
84
73
103
75
62
105
77
66
146
138
141
172
167
173
145
141
145
157
154
156
180
174
172
166
161
163
163
159
163
157
155
160
163
159
164
174
171
177
158
155
162
163
160
160
136
133
131
132
125
125
137
135
137
131
129
133
133
119
117
107
84
71
100
78
64
101
78
63
142
128
126
138
122
122
88
61
50
102
80
70
169
162
161
169
165
166
164
159
162
159
157
160
166
163
165
168
166
169
166
162
166
176
173
175
172
170
175
170
168
176
164
161
166
170
164
166
151
149
150
148
145
147
142
139
146
132
130
133
127
115
112
113
91
79
102
77
64
110
90
77
156
152
153
120
110
108
79
55
44
99
82
74
152
150
151
149
146
147
166
162
163
174
171
175
166
164
170
166
164
171
158
155
159
150
147
149
158
153
154
159
154
158
160
157
159
168
162
166
158
154
156
166
161
164
149
145
150
144
134
132
133
119
116
114
91
79
106
80
67
124
108
101
143
141
141
109
95
91
74
53
43
106
91
85
153
150
153
156
152
155
160
155
156
175
172
176
170
166
172
158
156
162
148
145
148
146
143
145
152
148
151
160
156
160
162
158
161
164
161
165
154
148
149
156
152
156
