P3 24 24 255
199
197
184
199
197
184
200
196
184
200
200
186
141
144
135
91
97
92
94
100
97
102
108
109
134
150
154
125
158
175
110
147
169
100
138
162
92
130
155
86
121
144
87
118
134
93
121
130
103
121
126
105
118
121
101
111
111
94
100
101
92
94
96
107
101
96
129
111
96
138
120
99
199
197
184
199
197
184
199
196
184
191
190
179
147
150
145
92
99
97
98
104
104
95
103
109
96
113
121
86
114
131
84
108
120
93
111
117
104
116
119
114
119
116
123
122
108
132
125
103
138
126
106
145
128
106
147
124
98
141
123
96
132
123
96
138
124
95
145
122
90
152
121
92
199
197
184
200
198
185
172
172
160
115
114
108
80
83
84
56
63
64
93
99
101
100
108
114
99
110
115
99
107
112
123
118
108
139
125
104
145
130
107
148
133
108
147
132
105
146
131
103
151
131
105
149
128
103
148
127
102
147
125
99
146
126
99
143
127
101
140
127
104
137
127
113
199
197
184
198
197
183
122
123
113
65
64
61
62
65
68
30
39
43
75
84
88
82
89
95
67
77
79
92
104
109
142
131
115
159
137
106
157
133
102
154
127
99
152
130
103
148
129
102
153
128
98
146
128
103
136
129
113
137
129
123
136
130
133
125
140
147
114
145
157
103
145
163
199
197
184
197
196
183
122
123
115
61
60
60
75
78
85
66
76
86
34
45
58
16
24
37
20
27
34
88
93
91
143
125
104
155
135
105
144
134
112
140
134
119
138
137
125
133
138
130
127
141
140
121
143
150
111
142
156
103
143
158
97
142
158
91
136
160
84
129
157
82
122
145
199
197
184
199
197
185
130
132
126
63
63
66
48
52
61
51
61
76
16
26
49
15
21
45
22
29
47
79
93
103
128
138
140
128
146
150
116
149
159
110
148
160
104
145
162
98
141
161
96
134
155
91
127
148
85
120
140
80
115
133
76
109
124
77
102
116
79
98
112
79
95
111
198
196
183
201
199
187
116
118
115
62
63
69
71
76
88
44
53
70
29
37
60
25
33
59
27
36
58
68
91
111
102
137
162
90
134
160
85
126
146
86
122
137
81
117
135
76
110
130
76
102
120
79
101
115
83
100
111
87
98
113
90
96
117
86
97
111
83
96
106
81
92
106
201
198
186
203
201
189
107
109
108
47
48
56
72
77
91
50
59
72
16
22
35
14
23
41
27
39
56
70
80
92
80
104
123
81
103
118
85
100
108
84
99
110
86
99
110
90
100
111
93
105
117
93
106
118
90
104
116
87
100
110
85
97
104
81
93
104
77
90
102
77
92
101
190
185
178
163
159
156
80
86
90
32
37
47
42
48
59
73
82
87
15
18
21
19
24
34
29
44
61
63
75
84
87
100
113
93
104
117
98
106
116
97
108
119
95
108
117
93
106
115
92
103
111
87
98
108
82
94
107
78
92
103
78
92
99
81
92
101
83
92
102
80
94
103
113
117
117
81
85
92
44
52
63
18
27
43
36
45
58
87
91
94
23
23
23
20
24
34
34
45
60
52
65
71
91
101
112
96
105
120
95
105
117
92
102
113
86
99
109
82
97
107
81
96
105
81
94
106
80
94
108
81
95
109
81
94
107
81
92
103
81
92
102
80
92
102
47
58
67
41
53
65
30
37
56
11
23
48
31
43
61
89
93
98
23
30
39
13
28
49
35
46
61
45
55
61
83
93
104
87
97
110
86
96
108
85
95
108
84
95
108
83
96
108
83
96
107
82
96
108
81
95
108
81
94
107
80
93
105
80
91
102
78
88
97
73
80
88
34
43
59
30
39
59
19
28
53
7
23
49
25
39
56
85
97
108
41
66
90
42
75
111
61
82
103
50
60
65
83
93
103
87
98
110
86
98
109
87
97
110
87
97
110
85
95
108
84
96
106
83
95
105
82
93
104
80
92
102
74
85
94
61
70
78
40
48
54
28
32
36
24
36
61
32
47
74
38
58
86
44
60
77
59
72
82
94
113
129
112
145
173
125
162
198
107
132
153
47
58
62
83
92
101
87
100
109
85
99
107
86
96
106
86
95
106
86
94
105
84
90
100
77
84
92
65
72
79
46
54
60
24
31
35
8
13
16
11
14
16
16
18
17
72
105
139
88
124
160
96
132
160
93
107
112
122
132
134
143
162
174
171
192
207
185
205
220
163
177
183
50
58
60
80
89
97
84
99
107
82
97
103
82
93
99
77
85
92
63
68
77
47
49
56
30
31
36
19
21
23
11
14
15
4
6
6
2
3
2
20
20
17
36
38
33
138
169
194
158
188
214
116
142
160
81
90
88
150
156
152
209
218
223
237
242
246
236
239
240
207
209
207
50
54
55
74
81
86
73
84
89
55
68
70
48
58
60
42
48
51
19
21
24
9
9
12
11
11
12
22
22
20
18
18
16
9
9
9
10
9
8
23
22
18
68
71
64
191
202
210
205
214
220
191
197
202
107
114
111
153
158
149
238
238
240
254
254
255
238
238
238
201
202
200
35
36
36
32
36
37
41
47
47
44
53
52
60
69
67
72
75
73
31
30
28
9
9
9
16
16
14
45
46
41
81
82
79
31
31
31
29
29
28
30
31
26
90
93
85
114
125
136
111
121
126
189
198
202
165
175
173
154
159
148
203
202
201
200
200
202
173
173
173
103
104
101
24
25
21
54
56
54
99
103
104
123
130
129
147
154
150
138
141
137
96
96
91
56
56
54
17
17
14
77
78
73
158
158
155
80
80
80
38
39
36
32
34
28
158
160
152
40
50
73
44
55
68
97
110
120
116
128
135
97
102
97
111
110
110
115
117
117
116
118
115
83
85
80
65
67
58
113
115
109
159
162
161
157
162
160
151
156
150
139
141
134
155
156
149
109
110
105
24
25
20
104
105
99
170
170
166
94
94
91
64
65
60
35
36
29
110
112
104
31
39
66
23
30
48
29
39
56
43
53
70
50
54
57
103
103
105
121
124
122
128
131
127
113
116
109
116
118
106
112
113
104
139
141
137
122
126
120
111
113
104
107
109
98
158
160
149
130
132
124
32
33
26
105
106
100
183
184
178
66
67
61
110
111
104
73
75
66
33
34
26
29
34
48
19
21
31
24
29
40
45
51
65
72
75
77
103
104
104
130
135
132
133
138
132
121
125
117
157
158
147
96
97
86
84
87
77
99
101
91
119
121
109
133
136
122
164
166
152
158
159
149
67
68
60
43
44
39
73
74
69
66
67
60
148
149
140
139
140
129
111
111
103
25
30
26
27
25
21
23
25
23
57
62
64
115
119
111
105
107
100
126
131
126
120
124
118
127
131
123
171
171
161
114
115
102
111
114
100
160
162
149
188
188
176
186
188
174
172
174
159
170
172
159
133
135
126
48
49
43
51
52
45
136
137
128
166
168
157
167
169
157
173
174
164
56
62
60
112
118
112
41
44
42
66
69
65
152
154
143
103
104
92
104
107
96
121
124
113
149
152
140
180
180
168
172
172
160
177
178
165
192
192
180
200
200
188
193
193
181
177
178
165
171
173
160
168
170
158
153
155
144
159
161
150
173
175
163
171
173
160
170
172
159
173
175
163
101
107
106
169
176
173
70
73
71
87
88
83
169
170
159
136
138
124
140
142
129
173
175
162
188
190
177
184
184
172
180
180
168
183
182
171
190
190
178
194
194
183
189
189
177
179
180
168
175
177
164
175
177
164
178
180
167
181
183
170
177
179
166
174
176
163
174
176
163
178
180
167
105
109
107
162
167
166
73
76
73
106
107
100
177
177
166
176
176
163
178
179
166
184
185
172
189
190
178
183
183
171
181
181
169
183
183
171
187
187
175
188
188
176
185
185
173
181
181
169
179
181
168
178
180
167
180
182
169
186
188
175
182
184
171
176
178
165
177
179
166
181
183
170
