P3 24 24 255
169
178
190
170
180
192
168
178
189
169
179
190
170
180
191
171
182
192
171
183
192
173
181
193
172
183
193
172
184
195
176
185
197
176
185
197
174
184
194
175
185
196
177
187
198
176
186
198
176
186
197
176
186
198
177
187
199
177
186
198
176
186
199
176
186
199
177
186
199
179
189
199
168
177
189
169
179
190
167
177
187
168
178
190
169
179
190
170
181
191
170
182
192
172
181
192
171
182
192
173
183
193
175
184
195
175
184
195
174
184
194
175
185
195
177
186
197
176
186
197
176
185
197
175
185
197
176
186
198
176
186
198
175
186
198
176
186
198
177
186
198
178
188
198
167
176
189
169
179
190
167
177
187
168
178
189
168
178
190
170
181
191
170
181
191
172
180
192
172
181
192
173
182
192
175
183
194
175
184
195
173
183
193
173
183
194
176
186
197
175
185
197
175
185
196
175
185
197
177
187
199
176
186
198
175
186
198
175
186
198
176
186
198
177
187
197
167
176
188
168
178
189
166
176
186
168
177
189
168
177
188
169
180
189
169
181
190
171
180
190
171
180
190
172
182
192
174
184
194
174
184
194
173
183
194
173
183
193
176
185
196
175
185
197
174
184
195
173
183
194
176
186
198
176
185
197
176
186
197
176
186
196
176
185
196
176
186
197
167
175
188
167
177
187
166
176
185
168
177
189
169
177
188
170
180
189
169
180
190
170
180
189
171
180
190
171
182
193
173
184
195
174
183
194
172
182
193
173
183
193
175
185
196
175
185
197
174
184
195
174
184
194
176
186
198
176
186
196
176
186
195
175
185
195
176
185
196
176
186
196
166
175
187
167
177
187
166
176
185
167
177
189
168
176
188
169
179
189
169
180
190
170
180
190
171
180
190
170
181
191
172
182
193
173
183
193
173
183
194
173
183
193
175
185
196
174
184
196
174
183
194
173
183
193
175
185
197
175
185
196
176
186
196
175
185
195
176
185
196
176
186
196
166
174
187
167
177
187
166
176
185
167
177
189
168
176
187
167
177
187
167
179
188
168
178
187
169
177
188
169
180
190
173
184
194
175
184
194
173
183
194
173
183
193
175
185
196
174
184
196
173
183
194
173
183
193
175
185
196
175
185
196
176
186
196
175
185
195
176
185
195
176
186
196
166
175
187
167
178
189
164
176
186
166
176
188
170
179
190
178
189
198
178
191
201
178
189
198
177
188
199
179
191
202
167
176
187
166
175
186
164
173
185
164
176
186
169
180
190
171
181
192
173
183
194
172
184
193
173
185
195
174
184
195
175
185
196
174
184
194
175
185
195
176
186
196
165
173
184
168
177
187
165
175
185
168
177
186
160
168
177
121
130
137
93
96
103
76
76
83
73
74
76
78
83
88
136
145
156
121
133
150
146
154
169
164
169
177
170
175
186
167
176
186
165
177
187
170
182
193
174
185
195
174
183
194
175
185
196
175
185
195
175
185
195
176
186
196
164
173
185
169
179
191
169
180
192
172
183
195
88
91
99
43
43
45
30
32
31
40
48
50
50
59
72
57
65
80
134
143
157
169
177
187
165
170
178
176
185
190
170
182
186
170
177
183
164
170
179
164
175
187
173
183
195
174
183
193
175
185
195
175
185
195
175
185
195
175
185
195
157
164
175
157
165
173
152
161
170
130
137
145
83
86
94
72
78
84
90
100
115
82
96
121
94
111
133
139
152
169
177
183
193
167
173
176
171
179
181
181
195
197
186
204
206
184
197
201
172
180
185
159
167
176
169
179
191
173
183
193
175
185
195
174
184
194
175
185
194
175
185
195
124
131
141
106
115
130
83
93
108
59
66
78
90
101
115
105
114
134
129
136
150
147
154
160
167
170
178
196
201
205
203
208
211
172
183
186
203
214
217
186
195
197
191
206
210
185
202
206
189
205
208
164
173
177
149
157
164
165
175
183
174
184
194
175
184
194
174
185
195
174
186
196
95
90
99
95
87
97
98
90
99
104
99
106
104
113
124
106
119
138
155
168
179
172
176
181
172
177
182
205
209
211
207
211
215
179
184
191
187
195
201
167
175
181
173
188
193
172
188
193
179
194
198
155
165
168
87
92
98
142
151
160
172
182
194
173
184
195
174
184
195
176
188
197
106
117
128
116
128
141
122
133
146
126
136
152
124
137
156
103
113
129
107
104
117
125
125
137
171
181
189
168
173
180
170
174
181
192
195
201
207
211
215
173
178
182
168
174
179
192
198
203
181
188
193
122
128
134
81
85
91
129
137
145
144
153
165
146
156
167
148
158
170
154
165
177
121
135
154
121
132
149
123
134
149
125
140
158
119
127
144
92
60
70
93
48
58
119
120
137
207
214
220
203
208
213
211
214
218
239
240
240
238
238
237
240
241
239
203
202
203
182
181
183
225
224
226
230
231
234
219
219
221
217
219
221
200
203
207
200
203
207
199
203
210
181
187
193
98
113
134
100
115
138
98
112
134
99
115
138
90
108
135
84
70
96
105
73
83
136
143
166
188
195
201
182
186
190
206
207
209
160
160
157
99
99
97
167
166
164
213
215
213
199
201
199
232
233
231
248
247
246
249
249
247
250
249
247
245
244
242
238
238
236
241
241
240
245
244
242
84
109
150
85
110
146
86
110
148
90
110
147
90
113
149
91
117
153
89
111
145
158
176
195
214
219
222
194
198
205
178
180
181
106
105
103
132
131
130
83
83
82
186
188
186
221
223
222
231
233
232
224
224
224
224
224
224
227
227
227
223
223
223
197
198
198
177
179
178
207
209
207
97
105
117
97
104
115
99
106
117
113
121
130
130
139
149
127
137
149
124
138
157
149
162
175
197
203
210
210
215
219
139
141
142
100
99
100
134
133
135
95
95
97
129
131
131
189
191
190
193
195
194
195
197
196
195
197
196
196
198
197
195
197
196
186
188
187
173
175
174
177
178
177
75
83
95
86
96
107
89
98
109
72
78
85
107
113
118
112
118
123
111
122
128
118
125
135
164
170
177
199
203
206
107
109
109
120
120
123
108
108
111
103
104
107
120
122
121
200
202
201
187
189
188
185
187
186
186
188
187
185
188
187
186
188
187
186
188
187
177
179
178
150
152
150
76
84
97
87
97
110
83
90
102
75
78
88
99
101
108
104
106
109
99
98
101
106
106
107
137
140
146
181
185
187
86
87
88
174
174
175
122
123
126
148
150
151
116
118
119
202
204
203
208
210
209
212
213
211
209
210
209
205
206
205
197
198
198
196
197
196
207
208
207
153
154
153
43
50
56
40
43
49
42
43
48
44
48
47
63
66
68
75
76
83
108
111
116
100
104
106
116
120
122
155
158
160
66
66
67
92
91
91
159
160
164
94
98
101
124
126
130
185
187
185
177
178
180
183
183
185
196
195
199
210
209
212
213
214
214
210
210
211
180
180
181
92
93
93
47
48
56
48
46
52
46
47
55
51
51
59
45
44
48
32
31
34
73
77
87
86
91
97
100
104
105
124
126
124
51
51
49
110
109
112
144
144
146
143
145
151
117
119
122
170
172
170
172
174
175
145
148
147
130
131
131
122
123
122
120
122
121
127
128
130
159
160
162
150
150
150
41
43
43
33
35
34
41
46
46
36
39
39
70
70
68
106
105
102
106
106
102
98
98
93
109
109
103
66
66
64
41
41
40
130
130
131
80
80
81
157
157
162
102
103
104
151
151
151
157
158
158
191
192
189
192
192
188
192
191
187
186
185
181
182
181
177
129
129
127
131
131
130
67
70
74
20
23
22
24
28
27
35
38
41
105
106
108
116
117
117
113
114
112
108
108
109
107
107
107
57
57
57
29
29
31
64
65
63
176
176
178
137
137
137
32
31
29
14
14
13
41
41
38
87
87
79
97
95
86
108
104
96
122
118
110
137
133
122
96
94
87
64
63
60
