P3 24 24 255
181
128
116
197
142
129
226
165
153
233
196
186
171
155
157
105
84
89
80
61
70
65
51
59
66
54
61
66
56
63
66
58
66
69
62
68
120
121
120
117
117
117
111
106
106
103
91
90
88
68
67
130
115
111
74
59
65
73
59
67
80
66
72
77
62
68
97
81
83
127
110
107
94
56
54
88
54
52
139
109
107
206
174
169
118
117
128
81
68
84
77
63
79
66
55
67
71
62
71
84
79
87
87
84
93
89
89
100
130
134
143
136
136
142
146
150
156
123
122
123
87
76
75
133
122
116
73
63
67
80
70
77
83
72
77
77
64
68
99
81
82
123
103
99
85
52
46
99
60
53
81
64
65
148
127
127
132
136
144
66
59
71
68
57
72
71
59
71
74
62
71
79
71
81
58
47
59
59
49
60
70
63
75
70
59
70
103
107
118
103
108
116
93
87
94
131
118
115
75
62
64
108
98
103
128
119
120
136
127
122
148
137
131
151
136
127
85
50
48
105
67
66
94
75
76
148
126
122
154
155
160
62
56
71
58
46
60
68
56
69
82
72
80
88
82
93
57
46
56
52
38
48
48
38
48
69
62
70
106
113
123
103
109
120
99
96
104
115
101
101
70
54
57
91
79
85
114
107
111
120
111
114
125
115
118
141
128
124
72
38
34
110
73
69
80
63
69
142
116
117
154
159
164
71
64
80
60
48
63
65
53
64
70
59
66
67
57
69
54
40
50
52
39
51
53
43
54
69
59
72
90
87
101
101
103
117
97
97
108
96
81
86
68
58
57
90
77
84
111
103
108
114
105
111
113
103
108
131
119
118
135
111
103
127
105
99
82
68
68
139
111
109
153
158
162
72
69
85
58
48
60
49
38
50
54
43
57
57
49
59
81
68
74
78
65
74
76
66
72
69
60
67
88
84
89
88
86
92
86
83
90
94
91
95
157
145
140
109
95
98
106
95
101
105
96
101
104
96
100
125
116
116
232
166
149
172
134
131
148
132
131
171
142
134
176
176
179
92
95
107
84
77
88
110
92
97
142
113
118
145
114
114
151
110
101
154
117
112
164
127
116
178
135
123
186
137
127
174
129
120
157
112
104
129
92
89
119
95
98
78
61
69
92
80
87
109
99
104
110
104
108
113
107
108
225
152
134
187
136
126
149
118
111
217
171
159
228
206
197
209
177
171
220
179
169
238
184
171
221
156
143
227
163
151
241
173
158
241
173
162
240
175
165
237
177
168
234
175
163
237
174
161
240
169
157
233
161
149
201
154
144
168
140
135
113
100
99
98
90
93
104
100
104
110
105
108
223
151
134
241
173
159
243
193
181
240
202
191
244
209
196
240
198
188
236
185
181
235
182
175
235
181
170
234
179
170
232
178
170
235
180
169
235
182
172
235
188
181
237
197
186
235
185
174
240
203
190
238
199
186
238
180
167
232
169
156
235
205
195
208
198
188
153
142
136
114
103
103
229
160
138
231
162
146
232
164
147
234
171
152
242
213
206
243
215
206
233
185
174
233
195
186
241
208
200
240
212
201
245
217
208
245
219
209
244
222
212
243
223
215
242
217
210
241
210
204
236
211
203
235
200
188
231
187
176
230
176
163
228
182
173
242
216
208
248
226
213
214
189
181
222
143
123
232
171
155
236
165
145
233
151
124
233
168
149
244
218
208
245
227
215
239
202
193
240
206
201
244
221
214
241
217
209
240
209
203
242
210
205
240
212
207
235
202
193
236
196
189
238
206
201
238
200
196
233
176
164
222
148
132
219
150
137
222
170
163
234
202
197
249
222
212
209
121
96
222
142
117
230
167
153
234
166
145
233
155
124
231
165
145
241
219
212
246
230
223
238
207
200
240
202
199
238
206
199
238
199
192
236
198
190
232
191
183
228
180
176
226
174
171
228
168
166
226
164
159
218
147
142
212
133
127
207
119
107
201
107
91
207
134
123
237
214
207
148
92
87
225
142
115
224
143
114
222
154
133
232
180
160
236
162
134
235
169
149
245
224
217
237
224
216
188
177
173
221
185
183
231
184
178
227
170
166
229
161
157
225
154
144
221
145
135
216
135
126
211
134
125
192
107
102
181
99
94
175
98
93
171
93
94
176
91
92
220
168
161
94
66
74
189
116
106
231
152
122
228
149
118
234
163
144
230
180
163
234
169
146
235
188
171
207
197
196
149
144
144
169
136
136
218
155
150
227
150
141
223
145
134
219
140
130
208
127
118
198
113
106
190
138
134
154
130
132
162
84
87
156
82
85
153
83
84
154
85
84
173
98
91
88
62
71
111
69
69
216
139
123
221
150
128
198
137
116
232
153
122
232
167
145
214
159
139
190
176
170
175
162
157
166
144
140
156
89
91
209
131
126
211
131
124
200
121
117
186
108
104
174
97
96
163
100
101
152
108
115
163
88
90
161
88
92
161
89
92
163
88
90
151
78
76
82
53
52
90
58
58
153
92
84
171
114
106
73
43
36
217
142
115
232
152
127
206
150
131
178
174
173
202
199
195
175
156
151
150
82
83
171
95
96
187
108
109
178
102
103
172
97
97
175
101
98
180
99
92
179
92
87
174
89
81
173
89
83
168
90
88
169
101
98
169
101
94
61
33
33
87
57
60
104
62
62
105
62
55
63
38
30
205
150
128
235
155
126
203
125
107
130
114
117
126
120
123
156
110
109
157
81
73
161
86
76
170
90
81
167
95
91
171
102
99
187
122
114
180
119
109
169
109
99
162
109
100
163
112
107
159
115
109
156
112
107
151
92
82
44
14
7
68
38
35
93
61
60
80
44
39
67
41
33
178
137
124
229
150
118
196
107
88
140
81
74
148
93
90
155
80
74
151
78
68
139
86
76
138
99
91
159
127
118
164
134
125
153
135
126
147
131
127
146
125
116
142
114
102
163
106
96
168
95
79
156
79
69
136
71
62
51
25
16
52
22
16
79
50
47
81
49
44
56
31
21
147
117
109
225
146
116
190
103
85
146
71
62
136
71
64
149
74
62
144
72
64
152
80
67
172
99
77
177
102
83
168
93
78
139
83
65
160
106
79
169
112
82
160
106
76
160
90
72
152
74
67
124
65
59
93
57
53
76
61
63
66
50
48
59
37
31
74
46
39
54
30
20
131
114
110
214
139
114
178
91
75
136
99
87
172
142
125
135
68
60
124
70
57
134
81
73
157
84
74
158
87
77
144
78
67
138
86
67
167
114
88
172
119
91
169
115
86
151
89
73
121
63
56
95
49
42
72
38
34
76
67
73
77
71
77
69
54
52
57
31
23
61
36
26
83
70
71
167
104
91
181
97
84
143
90
89
144
86
79
121
69
61
110
74
64
115
98
92
126
74
63
144
80
70
129
72
61
136
86
63
177
118
86
153
98
73
132
80
60
99
53
44
83
49
44
84
64
55
86
80
72
82
71
75
79
69
77
74
59
59
62
41
33
61
38
29
72
57
58
87
43
35
133
69
57
118
57
50
121
60
47
107
57
51
90
52
47
129
111
108
104
63
54
108
64
57
100
62
55
102
70
61
122
98
88
116
109
99
115
121
115
126
136
134
136
150
149
140
152
151
119
115
115
86
76
80
81
71
74
80
69
69
68
52
51
60
41
36
67
49
48
57
36
30
145
119
113
156
134
121
146
124
114
135
119
107
119
114
109
150
144
140
125
128
123
151
159
150
157
169
159
154
165
162
147
156
157
136
136
134
115
107
109
92
79
79
72
54
53
58
35
32
56
36
33
85
75
81
84
78
82
88
84
89
82
74
79
68
53
52
63
44
42
54
36
34
123
109
114
176
169
170
141
133
138
123
117
125
119
113
120
128
120
122
122
116
113
129
119
114
107
90
86
81
56
54
63
37
30
53
25
16
45
19
14
43
19
10
45
18
5
48
21
11
64
58
62
