P3 24 24 255
173
140
137
187
147
141
198
152
149
201
150
155
207
148
163
221
153
172
226
165
184
230
175
192
234
181
202
226
166
186
217
135
158
209
122
146
196
115
137
181
107
130
165
106
127
149
106
120
119
89
103
91
85
89
68
76
75
52
64
62
50
68
57
43
62
53
38
56
49
35
50
49
121
123
115
120
117
106
104
96
88
103
74
74
150
67
76
139
70
80
138
78
91
143
88
105
168
103
121
177
89
112
153
83
99
147
88
100
134
74
89
128
68
87
124
66
88
125
66
87
124
66
89
124
77
99
108
78
95
62
68
66
47
64
57
36
52
50
38
52
52
71
79
83
97
117
127
89
99
100
69
76
79
94
60
64
123
54
64
88
87
81
79
77
81
98
105
114
154
121
133
163
93
108
166
164
164
132
147
161
75
80
101
77
76
92
55
52
73
59
55
78
56
53
76
72
67
84
73
60
82
72
72
73
83
92
68
101
109
93
109
110
90
112
124
137
90
109
101
76
87
74
59
59
54
104
55
52
122
63
64
91
105
88
72
78
79
98
118
110
142
140
131
163
110
116
133
141
148
98
120
145
65
82
115
70
78
103
69
77
98
88
99
118
81
91
107
103
124
123
100
128
131
91
105
112
146
151
94
152
159
110
125
139
114
76
109
105
115
121
100
106
110
80
70
60
55
118
49
55
118
69
60
111
123
87
65
65
63
101
109
81
147
146
103
160
98
99
115
114
110
107
116
121
54
72
109
44
54
86
58
66
85
109
120
110
89
91
102
56
79
117
82
111
126
100
122
134
121
130
99
135
148
95
82
103
102
72
114
103
114
99
94
96
79
76
84
65
62
131
48
52
76
37
44
64
55
55
54
49
54
74
70
60
112
104
86
155
85
91
129
117
113
115
128
128
58
71
105
51
58
85
67
72
83
123
137
115
91
95
103
48
63
102
76
99
113
107
132
136
102
116
113
110
126
104
57
80
95
74
107
103
187
108
111
167
117
116
136
97
94
156
51
59
104
48
59
80
59
65
64
53
60
49
36
46
57
41
53
140
60
78
108
82
96
76
82
99
63
65
91
60
61
85
71
72
88
119
126
117
90
92
104
71
75
103
100
115
124
125
146
142
99
112
137
89
109
139
81
109
153
86
113
143
233
68
89
223
87
103
177
93
100
200
102
115
206
101
118
175
86
101
143
70
82
110
58
72
83
54
66
144
61
78
129
68
88
64
58
79
64
54
72
65
54
71
77
61
78
110
89
97
98
77
94
83
64
86
112
96
107
131
123
126
96
95
122
77
84
126
70
91
144
72
101
152
225
37
51
224
49
65
188
59
70
208
86
98
236
97
118
243
112
136
233
115
136
213
97
117
185
80
99
193
75
98
190
74
100
154
59
81
153
49
70
155
48
69
167
59
81
174
65
89
169
64
86
171
65
89
179
83
109
175
88
114
156
84
111
128
90
124
65
61
106
35
44
87
219
44
48
203
46
50
183
42
45
220
34
49
230
47
66
239
73
95
242
95
120
246
114
139
248
124
151
233
117
144
229
126
152
237
101
131
236
68
98
234
59
88
240
67
98
241
74
104
237
80
111
239
94
128
237
108
143
232
108
144
231
123
160
215
138
173
176
109
142
138
82
114
215
45
46
193
49
47
177
45
45
224
39
49
222
39
51
226
41
59
233
46
67
237
61
86
240
89
119
231
99
127
238
135
158
249
158
183
248
147
173
247
127
155
245
103
134
243
96
130
245
109
146
245
118
156
243
122
162
243
126
167
242
128
171
240
131
172
237
130
170
222
129
164
208
43
44
188
46
44
173
41
41
219
38
43
214
44
51
216
52
64
219
42
55
229
33
53
205
38
59
189
51
68
230
66
92
246
102
131
249
144
171
252
167
193
252
167
195
252
152
183
250
130
165
247
123
160
247
119
157
250
113
150
247
110
147
242
103
141
237
98
136
234
96
134
197
47
42
183
53
46
172
48
43
218
49
49
210
45
47
211
42
47
211
38
48
217
34
49
220
34
53
215
39
60
226
39
63
235
37
64
240
56
84
244
96
124
248
135
164
250
169
194
249
197
213
249
143
171
234
98
134
223
94
129
236
67
102
226
57
90
213
48
80
204
46
78
182
66
55
178
58
48
169
49
42
215
50
48
207
46
45
209
46
45
208
41
45
214
30
42
217
29
44
218
33
51
219
35
57
228
32
54
228
31
55
231
36
61
236
52
79
239
89
115
243
131
157
239
117
147
185
129
151
134
117
137
171
50
77
174
32
58
154
34
56
136
32
55
108
64
45
150
76
57
166
48
43
210
48
46
203
46
42
206
43
43
207
37
41
209
29
39
207
27
40
209
32
45
212
36
53
216
33
51
220
33
51
222
31
53
222
32
53
224
35
57
224
44
69
195
76
98
143
146
151
115
125
117
104
60
69
116
41
63
124
70
92
115
66
85
28
19
14
68
42
30
135
47
43
197
51
51
200
46
43
202
41
40
202
35
38
202
31
38
203
27
38
210
31
44
168
33
46
123
25
38
147
32
48
201
39
56
213
29
47
209
28
45
203
26
43
144
47
55
98
112
117
123
146
154
109
102
114
101
82
100
108
103
120
100
99
114
34
36
25
28
23
16
58
26
24
121
40
39
174
47
47
198
45
45
199
39
39
199
38
42
206
43
54
193
38
48
84
23
28
42
24
29
61
41
48
125
40
52
200
30
46
201
26
40
179
24
36
120
38
38
82
90
98
108
134
160
114
130
146
72
81
84
68
75
75
63
68
68
104
111
64
68
69
42
29
29
18
35
19
16
83
29
29
153
48
50
193
50
51
194
41
42
182
45
51
137
35
40
55
29
29
79
65
67
93
83
87
77
56
65
145
34
46
182
27
39
156
29
39
115
34
34
83
41
39
103
96
105
85
96
97
48
47
41
53
52
49
56
58
54
124
135
68
115
121
69
80
84
51
35
37
24
25
19
16
50
22
23
111
35
38
171
43
46
188
44
47
104
30
31
54
43
42
66
56
56
75
67
66
81
78
82
90
45
55
165
31
42
150
30
38
104
30
32
90
38
42
96
84
86
61
65
62
47
47
43
52
56
52
52
59
56
125
137
73
125
135
78
121
129
75
95
101
55
52
54
32
24
23
16
26
14
13
60
22
22
107
34
33
69
33
31
52
47
45
60
54
46
92
84
77
88
85
88
65
49
59
135
29
39
132
26
28
100
31
33
100
52
48
78
67
61
51
57
52
50
53
50
52
58
57
53
60
58
131
142
82
126
135
66
124
134
65
119
130
70
111
120
66
75
78
47
32
32
22
13
13
11
16
14
11
34
28
25
58
51
47
93
90
78
182
182
181
115
111
115
45
44
47
93
38
44
123
42
46
105
25
31
86
18
19
66
31
37
64
48
53
63
44
52
64
47
61
64
51
71
125
135
69
128
136
71
135
141
78
130
139
74
127
138
70
120
129
68
92
98
56
48
50
32
21
23
17
19
18
16
57
55
53
95
93
86
127
129
135
95
93
98
46
42
49
107
98
102
192
167
173
125
92
115
85
69
99
66
69
98
58
75
115
74
95
132
90
113
145
72
105
143
127
137
71
120
128
66
127
134
70
130
139
72
127
137
68
123
133
58
123
131
65
112
120
68
68
76
48
37
41
29
61
60
59
106
108
106
91
90
73
74
71
65
49
49
53
67
65
69
115
121
125
90
116
131
71
98
127
66
85
109
56
71
91
57
67
77
63
71
71
48
57
54
121
130
71
113
125
62
118
128
63
126
135
69
131
140
67
127
135
61
126
134
66
134
140
81
122
131
75
95
102
62
79
79
63
141
140
142
127
126
113
72
69
63
41
43
46
19
22
23
21
16
21
22
21
22
30
22
23
36
20
19
25
13
14
17
15
16
30
36
31
31
35
33
