P3 24 24 255
107
126
123
123
139
138
122
137
136
107
122
122
108
123
126
110
128
135
123
145
160
128
157
179
128
165
190
152
185
205
179
215
190
164
206
128
169
196
143
151
170
143
164
189
152
74
108
57
79
114
65
131
166
127
89
134
76
106
156
75
128
168
102
193
219
173
170
205
152
119
170
108
114
135
128
124
142
136
116
132
127
105
119
115
105
119
119
115
133
137
114
138
147
106
134
143
114
143
155
122
157
181
148
186
193
194
228
202
229
245
217
200
214
190
143
168
135
76
119
64
122
171
110
131
178
126
108
157
105
89
132
74
79
115
61
118
144
101
106
148
91
127
190
126
109
130
123
113
131
125
112
128
122
95
109
104
98
113
109
104
123
121
80
102
104
76
99
102
70
89
93
67
93
100
102
133
147
166
195
210
211
229
212
203
219
186
182
209
170
123
169
116
113
169
112
90
148
92
101
153
100
72
112
61
39
72
26
77
114
65
87
145
78
118
191
121
98
119
112
104
122
116
101
117
111
85
100
96
91
107
103
86
103
100
68
87
85
69
87
87
49
61
64
33
49
41
53
77
70
109
136
141
170
192
180
145
167
134
158
188
143
127
170
122
94
147
97
95
152
98
104
155
103
99
135
91
47
76
35
78
125
62
97
165
82
105
175
97
88
109
102
92
110
104
85
101
95
90
105
102
102
118
119
96
111
111
81
96
96
58
73
72
39
52
48
43
52
44
52
64
54
69
88
84
133
163
161
138
169
143
126
156
109
149
183
140
124
164
122
112
158
108
105
150
100
95
130
91
105
132
98
96
146
91
118
183
112
106
154
93
80
102
93
97
116
111
128
145
141
154
170
169
133
149
151
100
116
116
85
98
98
54
67
63
33
47
35
36
42
38
50
54
55
55
66
69
82
111
115
156
190
181
154
189
152
159
194
156
175
208
178
113
149
112
99
136
94
111
145
106
113
144
108
107
159
110
127
191
134
136
184
137
89
111
99
145
166
163
176
196
195
148
169
166
111
131
126
101
119
113
70
85
77
44
57
48
24
34
26
18
28
20
42
51
43
53
64
51
59
75
68
117
145
158
152
202
180
145
204
164
147
200
169
125
169
139
102
143
101
115
162
101
124
176
108
93
152
81
103
175
111
129
208
148
104
125
118
167
187
184
151
171
165
118
139
131
102
121
115
91
107
99
65
79
69
47
59
49
30
39
32
27
36
26
41
51
38
49
60
43
49
61
49
79
105
109
127
182
151
125
197
139
127
202
143
105
174
119
101
165
101
124
193
110
141
206
122
136
196
118
110
176
109
106
170
115
109
127
121
160
177
173
126
145
134
85
104
92
67
84
76
70
85
75
80
92
81
48
58
47
27
34
25
37
44
33
55
62
49
62
69
53
62
72
58
67
90
82
93
144
107
115
192
122
113
191
119
98
168
111
100
166
105
109
172
99
131
190
112
162
221
134
122
178
102
107
151
91
108
125
114
142
158
152
95
112
103
58
75
63
56
71
61
68
81
70
75
86
73
47
55
42
28
32
22
49
53
41
71
75
61
85
91
74
74
84
69
70
88
75
83
122
95
93
159
100
101
169
103
104
163
119
99
155
110
94
138
89
109
153
96
117
171
93
90
140
65
107
141
80
130
148
128
129
145
138
81
97
92
52
68
60
70
83
73
80
92
80
68
78
64
44
50
36
42
45
33
70
73
59
59
63
47
80
85
68
80
90
76
94
107
94
94
120
105
84
133
94
83
144
84
79
137
93
76
129
89
75
115
74
69
105
69
92
138
92
102
144
94
124
154
111
151
175
137
132
151
137
81
98
96
57
73
70
66
82
73
67
81
71
58
70
58
47
55
42
82
85
67
96
101
82
82
86
69
62
65
50
66
71
58
77
88
77
95
119
106
94
134
107
87
134
91
97
136
103
121
149
130
156
179
162
158
181
166
178
206
191
188
218
201
193
221
207
177
204
157
180
204
171
93
113
102
58
75
73
43
59
52
27
42
33
34
47
36
67
77
64
93
101
83
65
74
57
71
79
65
81
88
76
61
67
56
61
73
66
88
112
106
164
199
187
192
225
207
183
207
194
200
215
212
216
233
228
208
229
221
217
239
234
208
232
229
194
222
220
157
182
140
157
183
136
115
137
116
67
84
81
51
67
60
53
68
58
53
65
54
78
89
77
96
110
94
100
110
98
95
104
95
93
106
96
71
84
73
72
88
84
105
127
131
185
213
216
203
227
228
202
219
221
171
186
187
188
210
205
206
231
224
216
238
236
207
231
231
201
229
231
120
142
117
79
103
69
86
107
88
87
105
99
92
109
101
110
125
116
88
101
89
82
94
80
110
121
100
169
171
154
159
160
147
107
116
102
59
73
60
48
63
59
69
84
88
170
186
190
217
237
242
224
242
247
214
229
229
198
218
216
217
240
236
217
238
236
197
221
220
201
229
230
93
111
108
81
100
95
74
94
85
70
88
79
89
105
97
100
115
106
93
106
95
82
92
76
161
163
134
178
166
142
160
147
126
118
119
96
47
58
41
20
30
22
35
42
38
118
123
116
200
221
219
221
245
246
228
244
241
210
224
224
194
213
212
206
229
222
201
226
220
206
234
230
118
139
142
117
137
140
111
131
127
85
103
94
66
82
73
87
100
90
74
86
74
92
99
81
168
160
127
173
158
131
204
187
168
140
130
111
46
50
36
9
20
13
26
34
21
89
83
63
172
171
157
232
247
240
221
241
239
224
237
236
192
204
203
189
212
209
188
215
212
197
225
221
151
176
175
141
164
161
131
152
147
113
131
125
85
100
90
88
100
89
94
105
92
127
131
114
161
149
119
140
127
101
139
125
106
148
134
116
59
61
48
11
24
19
30
39
19
90
76
48
149
122
101
196
191
180
208
225
226
230
238
238
214
219
218
176
197
201
171
200
201
182
210
210
149
174
173
134
158
155
128
149
145
120
138
132
103
118
109
107
119
109
115
126
113
140
144
128
162
152
127
126
113
84
136
123
92
169
160
130
93
98
82
28
37
31
55
58
34
139
127
94
159
134
114
135
128
119
178
191
193
222
230
233
232
237
238
172
191
194
164
192
192
160
190
191
146
171
170
137
161
158
133
154
149
126
144
138
108
122
113
108
121
110
108
119
106
118
124
109
141
134
113
146
132
102
165
153
116
133
130
95
71
78
60
51
55
47
72
73
48
162
162
132
223
223
209
185
201
195
188
218
218
207
232
233
232
245
245
193
210
210
161
188
188
138
169
171
133
158
157
132
155
153
127
148
143
126
144
137
120
135
125
106
119
108
107
118
105
112
119
105
131
127
108
141
127
97
135
121
88
89
87
59
43
50
33
49
50
42
74
78
57
142
162
142
184
213
214
183
219
226
187
227
232
207
236
238
224
240
239
199
214
213
138
165
164
125
158
161
129
153
152
127
150
147
128
149
145
135
153
148
134
149
140
116
128
117
117
126
111
115
120
104
117
115
95
143
131
102
143
131
101
94
93
71
52
59
41
58
60
46
96
106
89
151
185
176
160
200
211
185
221
236
175
211
222
187
211
217
213
226
227
213
227
225
149
174
174
134
166
171
130
150
149
131
151
150
117
137
136
118
138
136
134
150
146
128
141
130
122
128
111
112
116
96
87
90
70
122
118
92
147
141
113
126
125
101
84
89
67
77
86
66
110
129
118
122
157
157
134
170
175
173
206
213
170
205
213
179
208
211
201
219
219
223
236
237
163
184
187
140
170
175
128
148
147
141
161
160
127
147
146
121
142
141
134
154
153
129
146
140
116
129
116
102
113
98
80
91
80
109
112
94
106
102
80
99
94
71
108
108
86
94
110
101
95
127
130
93
125
129
107
137
140
115
149
156
155
190
197
171
202
204
179
199
197
219
232
232
169
189
191
133
160
164
