P3 24 24 255
160
153
103
158
154
106
159
155
109
161
157
113
164
159
117
167
162
123
169
169
127
170
174
126
168
172
118
163
168
109
157
162
104
151
153
97
149
147
89
150
151
90
151
158
92
150
161
91
149
164
91
149
162
96
147
158
98
146
157
99
148
158
102
153
163
109
162
171
118
170
176
122
160
154
97
157
154
100
158
156
103
161
158
107
162
158
110
166
162
116
172
170
128
175
175
130
174
174
124
169
169
118
158
157
111
151
147
106
148
138
98
144
138
92
150
150
95
155
163
98
153
165
94
150
161
90
149
158
92
151
160
95
152
160
97
155
163
103
162
170
110
168
176
115
161
156
94
155
155
93
156
156
95
159
159
101
160
158
105
164
163
112
171
172
128
175
176
134
176
173
130
170
164
125
156
147
115
150
138
111
134
118
93
116
105
78
130
128
86
149
154
94
154
161
93
152
160
89
151
160
88
154
163
93
153
161
93
155
163
96
161
169
103
165
174
110
162
160
97
154
157
92
153
156
94
155
158
100
157
159
105
162
164
114
166
174
127
171
176
134
178
172
137
171
157
130
158
141
120
151
132
113
131
111
95
103
90
77
106
103
72
132
136
78
155
160
93
155
162
95
153
162
94
155
164
97
154
163
96
156
164
98
159
168
102
161
171
105
163
162
100
154
159
94
151
155
94
153
156
100
156
158
107
161
163
115
164
171
125
171
173
133
174
164
132
161
142
118
154
132
114
144
123
104
131
111
92
116
104
88
113
112
77
145
151
87
158
163
94
159
165
100
157
166
102
157
166
102
155
164
100
156
165
101
157
167
102
157
168
101
164
163
101
155
159
96
151
155
95
151
155
100
155
158
108
160
162
115
165
167
124
169
165
127
154
139
108
129
107
82
130
106
85
137
115
93
129
112
87
111
101
78
129
130
87
160
169
100
158
164
93
161
167
103
159
168
107
157
166
105
155
164
103
154
163
102
154
163
100
154
164
97
162
161
100
155
159
97
151
155
97
150
153
100
155
157
109
159
161
116
166
166
127
153
144
111
123
105
77
109
85
62
118
94
73
131
111
87
132
117
91
133
125
100
146
150
103
157
167
97
156
163
95
158
165
105
158
166
108
156
164
106
154
162
104
152
160
102
150
159
99
150
160
95
162
160
100
156
159
100
153
156
100
151
154
102
156
158
111
162
163
121
161
158
125
126
116
90
102
83
60
99
77
57
111
90
71
114
97
76
123
109
88
136
130
107
151
156
112
152
163
98
152
160
101
152
158
106
153
160
106
152
160
105
150
158
103
149
156
102
150
157
102
149
158
99
162
160
101
157
160
102
154
157
102
153
156
105
158
159
113
162
163
122
140
137
111
102
92
74
92
74
59
92
73
58
98
83
66
103
90
73
100
86
74
115
109
94
146
151
115
148
158
103
147
154
108
147
152
108
148
155
103
147
154
103
145
152
101
146
153
101
149
156
105
147
155
102
161
160
102
155
158
102
153
156
103
152
155
106
157
159
115
148
149
110
97
95
73
81
72
61
90
76
65
86
70
59
85
74
60
88
77
65
75
62
57
102
96
88
144
149
120
150
159
114
149
154
119
149
154
116
149
155
106
145
151
102
142
149
99
143
150
101
145
152
104
143
150
103
154
158
107
149
157
110
148
155
107
149
156
109
157
161
124
126
127
102
87
80
67
91
79
70
87
74
65
75
64
54
75
66
54
66
60
49
71
66
58
99
99
88
149
152
131
157
162
132
152
156
129
155
159
127
152
157
116
145
151
104
142
148
98
143
149
101
144
150
106
142
150
108
150
152
104
147
154
110
148
156
107
155
162
115
151
156
123
99
101
84
87
77
69
98
84
77
74
63
54
71
61
52
68
60
50
71
66
55
80
81
68
112
114
100
159
162
144
157
160
139
154
158
134
157
160
134
153
157
123
146
152
108
143
149
100
144
150
103
145
150
111
143
149
114
165
158
104
152
149
96
152
151
96
161
162
112
138
140
107
81
81
67
99
89
83
95
82
76
68
58
51
66
57
49
78
71
62
76
73
63
78
80
67
137
140
125
165
168
151
159
162
142
159
162
141
158
161
139
153
156
129
146
150
114
144
149
108
146
152
109
148
152
114
146
151
118
186
171
111
170
158
97
161
153
92
164
160
107
136
134
102
71
68
57
87
78
74
86
74
70
64
54
49
66
59
52
76
70
63
70
67
58
109
111
98
163
165
151
167
170
155
166
169
152
165
168
150
163
164
147
157
159
138
150
153
125
146
150
116
147
152
113
150
155
115
151
156
117
183
165
102
187
170
106
183
171
108
183
175
121
139
132
101
73
67
58
78
69
65
76
67
60
71
64
56
58
53
44
63
60
51
91
90
79
152
154
140
172
174
160
173
175
161
171
173
160
169
171
158
166
168
153
160
161
144
154
156
134
149
152
122
150
154
116
155
161
116
161
166
113
172
160
94
177
163
101
179
168
107
177
168
116
135
125
95
102
92
83
90
81
74
79
72
60
56
51
38
54
51
37
87
86
72
143
144
129
175
178
163
175
177
163
177
179
166
174
176
165
172
174
164
169
171
158
164
165
148
157
158
138
151
154
125
151
157
115
155
161
110
156
161
103
155
151
85
161
155
95
159
152
94
155
147
98
138
127
99
123
110
102
114
106
95
94
88
71
90
87
69
107
107
88
150
151
131
178
180
161
179
182
165
178
181
166
178
180
168
176
178
169
174
175
169
171
172
158
165
167
148
155
157
136
143
146
116
136
142
97
136
143
88
139
142
90
133
136
73
140
139
85
151
147
98
172
165
126
152
141
119
110
96
87
120
113
100
123
121
102
146
144
125
157
157
137
163
164
143
181
183
162
180
182
165
179
181
166
178
180
167
177
179
170
172
174
168
165
167
155
154
156
137
137
140
119
125
129
99
124
130
86
133
139
89
146
149
107
122
129
69
134
138
89
158
157
121
188
182
160
147
136
125
102
90
82
95
91
78
89
90
73
103
102
87
149
147
132
158
155
137
178
176
158
179
180
163
178
181
161
177
181
161
173
178
162
161
166
156
146
149
138
131
133
118
122
125
106
124
128
102
137
142
107
147
153
116
157
162
128
116
123
66
131
133
82
160
159
122
162
156
135
114
103
92
101
89
80
72
69
55
51
52
34
63
62
45
114
110
92
131
126
106
170
166
145
177
177
155
172
175
149
170
175
146
159
166
141
145
152
133
130
134
121
126
128
115
131
133
116
141
144
122
152
157
129
156
160
131
159
163
134
119
124
70
130
130
74
155
151
107
140
132
103
100
89
71
100
88
75
67
63
46
64
65
42
88
87
61
90
88
59
91
87
57
143
138
111
165
164
138
157
159
128
154
159
126
145
151
121
141
148
125
141
144
129
146
148
135
147
150
134
152
155
136
157
161
138
158
162
138
160
164
139
107
109
60
132
128
72
149
144
95
133
126
89
107
98
72
98
88
69
64
61
39
82
82
52
117
117
79
114
112
70
110
106
65
122
117
84
146
143
118
150
150
122
145
147
118
147
150
126
154
158
140
157
159
147
158
160
148
153
156
142
157
160
144
163
166
148
162
165
146
164
167
147
80
82
40
110
106
56
144
140
91
130
127
83
117
113
78
95
91
64
66
64
36
94
93
56
130
130
81
139
137
82
140
136
83
140
134
92
155
151
122
162
160
131
159
159
132
161
162
143
161
162
153
160
161
153
159
160
150
155
157
146
161
163
151
168
170
157
167
169
155
167
170
154
106
107
74
76
73
33
108
107
62
121
123
76
118
122
79
93
97
61
75
76
43
104
102
59
128
128
69
138
137
71
150
146
84
161
156
103
164
161
115
159
158
115
159
159
123
163
163
141
160
161
151
159
159
153
162
164
155
160
161
153
166
167
159
173
174
165
172
173
164
172
174
162
