P3 24 24 255
136
120
114
151
133
128
157
140
137
191
176
174
191
178
178
200
189
189
210
200
198
221
211
209
219
209
207
197
187
184
186
176
174
181
170
169
133
121
123
157
147
147
190
182
182
175
170
169
190
187
186
223
222
223
235
229
233
233
224
229
228
221
225
215
213
216
208
206
208
196
187
187
101
88
83
172
156
154
197
182
180
206
192
189
202
189
186
200
188
184
205
197
193
214
207
203
215
208
204
202
196
192
192
185
181
171
162
160
125
115
115
155
147
146
170
164
162
174
170
167
204
201
199
230
228
229
236
232
234
234
228
231
228
223
226
218
216
218
214
211
214
203
194
196
66
53
47
124
107
104
187
171
168
208
194
190
202
191
186
200
190
185
207
200
197
213
208
205
208
203
200
201
196
193
203
198
195
174
167
166
141
132
133
152
146
145
178
174
171
199
199
194
215
215
210
228
227
227
230
228
229
233
230
232
230
227
228
223
221
222
218
213
214
204
198
198
76
62
57
124
107
105
178
164
161
203
190
187
197
186
182
204
196
192
216
209
207
225
220
219
213
207
206
195
190
189
212
206
205
191
185
184
173
167
167
181
177
176
209
207
205
210
210
207
216
217
214
223
222
222
227
225
226
237
235
236
237
235
236
228
225
226
219
215
215
201
195
195
89
73
71
161
146
145
205
192
191
209
199
197
197
187
185
203
196
193
215
211
210
226
222
223
225
221
222
199
195
195
207
202
203
197
193
192
199
195
193
220
217
216
207
207
207
191
193
193
217
219
220
224
223
224
230
228
229
238
236
237
238
236
237
230
228
229
223
218
219
202
195
195
117
101
100
188
175
175
220
208
208
217
208
206
203
195
193
202
197
194
196
194
195
170
169
170
166
164
165
189
187
189
204
202
204
196
194
192
207
205
202
231
231
230
213
215
216
201
205
209
222
225
230
229
228
229
234
232
233
238
236
237
237
235
236
230
228
229
225
220
221
206
200
200
174
155
157
217
205
206
224
214
214
221
212
212
215
209
207
205
202
200
152
150
153
88
87
91
80
80
83
140
140
143
210
209
213
203
203
202
213
213
208
238
240
238
214
216
220
150
154
162
166
170
178
217
216
218
236
234
234
240
238
239
239
237
238
236
234
235
234
230
230
226
220
220
203
185
187
221
211
212
227
218
219
223
216
217
230
225
224
223
221
220
129
129
132
56
56
61
83
84
88
127
127
131
216
216
220
218
218
216
222
223
218
241
243
242
159
164
168
77
84
94
85
91
101
159
158
162
231
229
231
243
241
242
248
246
247
247
246
246
249
245
246
237
231
231
202
192
189
211
207
206
218
214
213
226
223
222
239
237
235
239
237
237
130
130
135
57
60
65
90
94
96
152
152
152
213
207
207
210
201
201
220
216
216
216
217
220
106
115
121
64
81
90
84
101
111
139
141
149
225
224
230
246
246
249
250
250
250
251
250
249
244
242
242
239
235
236
198
192
187
204
203
201
206
205
203
218
217
215
229
228
226
234
233
232
169
168
171
130
132
133
150
152
151
161
158
155
153
141
139
146
131
131
174
164
164
184
181
183
113
120
124
86
103
108
92
109
116
144
146
154
235
233
239
250
249
253
249
249
249
245
245
244
239
238
238
237
234
235
189
183
179
196
195
193
202
201
199
206
205
203
208
207
205
211
209
207
206
202
200
212
210
207
224
222
217
194
186
181
109
92
89
100
81
79
121
106
104
189
180
179
188
188
187
170
178
178
142
152
154
185
186
190
247
246
249
250
250
252
248
248
249
242
242
241
239
238
238
237
234
235
185
181
175
200
199
197
202
201
199
196
195
193
196
195
193
204
202
199
222
217
211
232
229
222
239
235
229
238
228
223
149
131
129
95
74
73
151
133
131
234
221
219
231
225
222
212
212
209
200
203
201
223
224
223
242
242
241
248
248
248
251
251
251
248
248
248
244
242
243
235
232
233
184
181
175
206
205
203
204
203
202
193
192
190
198
197
195
209
207
205
223
221
215
232
232
224
235
234
229
238
231
230
170
154
157
103
84
87
204
187
188
248
236
236
241
233
232
234
232
228
230
230
226
233
234
229
243
244
240
249
250
247
254
254
253
253
253
253
247
246
247
234
231
232
185
183
177
206
205
203
206
205
203
187
186
184
188
187
185
200
199
196
209
210
205
215
219
213
222
224
222
205
202
204
126
113
121
88
72
80
176
163
167
230
220
223
243
237
238
248
246
245
249
249
245
250
251
243
251
252
245
253
253
249
255
255
254
252
252
253
243
241
243
233
231
232
176
169
164
199
196
195
205
204
202
192
192
190
180
177
176
189
184
183
196
196
191
197
200
194
201
203
201
178
176
179
143
136
143
131
122
130
154
147
153
204
198
203
231
228
231
241
240
242
250
250
249
251
252
247
249
250
245
250
250
248
248
248
248
244
244
245
236
236
236
226
223
224
179
164
162
198
192
192
204
202
200
200
201
198
190
184
184
183
174
174
179
177
171
176
176
169
173
172
169
176
175
175
203
201
204
207
205
210
181
180
185
187
186
191
219
218
223
233
232
237
245
245
248
248
248
249
246
246
246
247
247
247
242
242
242
236
236
236
229
229
229
218
213
215
183
167
165
203
194
195
205
203
201
206
206
204
198
193
192
183
175
175
174
171
167
168
167
162
166
165
161
185
183
183
205
203
204
214
213
215
217
217
219
200
200
203
203
203
206
219
218
221
233
233
235
238
238
239
240
240
240
242
242
242
240
240
240
233
233
233
224
224
224
215
210
212
149
132
131
175
164
166
187
184
183
197
197
195
204
202
200
209
203
203
194
191
188
177
176
172
176
175
172
183
182
180
186
185
183
198
197
197
217
217
217
219
219
219
212
212
212
212
212
213
221
221
221
227
227
227
232
232
232
234
234
234
227
227
227
218
218
218
210
210
210
207
202
204
121
102
101
148
135
137
172
166
166
188
188
186
208
207
205
216
212
211
203
201
200
189
188
187
184
183
181
190
189
185
186
185
181
187
187
185
205
205
205
217
217
217
220
220
219
220
220
220
227
227
226
227
227
227
225
225
225
226
226
226
220
220
220
212
212
212
200
200
200
192
187
189
121
101
101
146
130
133
161
154
154
176
177
175
197
198
195
194
194
192
208
206
208
204
202
204
189
188
186
197
196
192
204
204
197
197
197
192
200
200
197
212
213
209
214
214
211
219
220
216
232
232
230
231
231
231
224
224
224
223
223
223
219
219
219
213
213
213
199
198
198
181
176
178
105
85
85
121
103
107
134
127
127
165
165
163
179
180
177
190
190
189
210
208
211
201
199
201
184
183
181
188
187
183
214
214
207
218
219
213
198
199
194
195
196
191
200
201
196
210
211
206
225
226
222
226
226
226
224
224
224
222
222
222
216
216
216
206
206
206
189
189
189
173
168
170
84
70
70
106
93
97
130
121
124
163
158
159
184
181
181
201
200
200
204
204
206
197
197
200
187
188
189
183
184
183
206
207
206
216
217
214
187
188
183
177
178
173
183
184
179
193
194
189
204
205
201
210
210
211
215
215
216
214
214
216
210
210
211
199
199
201
178
176
177
162
155
157
104
93
96
123
115
118
140
134
136
165
161
162
187
186
187
197
197
198
199
200
201
199
200
202
198
199
201
197
198
200
208
209
211
215
215
214
194
195
191
179
180
176
176
176
173
183
183
179
192
192
189
198
198
199
207
207
210
207
207
209
206
206
208
194
194
196
172
170
171
156
149
151
120
111
115
138
134
135
150
149
149
168
170
169
182
185
184
191
195
194
200
202
203
205
205
208
211
212
214
216
217
219
220
221
223
225
226
226
217
217
216
194
194
193
183
183
182
186
187
185
192
192
191
195
195
197
202
202
204
205
205
207
203
203
205
191
191
192
165
162
164
138
130
133
