P3 24 24 255
49
41
44
44
40
44
70
70
76
42
42
50
65
65
72
164
164
170
236
237
242
244
247
250
243
248
248
246
249
248
245
248
249
244
248
251
244
247
251
243
246
250
242
246
248
243
247
248
245
248
249
245
247
249
247
250
249
247
251
248
246
250
248
247
251
248
246
250
249
244
248
249
43
40
47
50
48
54
70
71
73
32
32
35
22
22
27
37
37
45
134
133
141
232
233
238
244
247
249
242
246
246
242
247
247
241
245
248
242
246
249
243
247
250
243
247
249
241
246
247
232
238
238
204
211
211
219
224
225
247
248
252
246
247
250
247
248
251
244
247
249
243
249
249
40
42
55
52
53
61
45
45
44
27
26
28
22
21
25
22
20
26
30
28
36
126
125
132
237
238
243
242
248
249
240
246
247
245
250
253
243
248
251
240
246
249
242
247
249
231
237
237
189
199
198
151
163
161
179
189
188
228
235
235
242
249
249
237
244
244
237
243
244
237
244
243
32
37
52
33
37
44
28
28
26
30
28
33
24
22
27
23
21
23
24
22
26
35
32
40
115
116
121
147
152
155
174
183
185
193
202
203
213
223
223
234
243
244
236
244
244
214
223
221
140
153
150
121
137
133
134
151
143
163
179
170
158
173
165
130
145
137
212
221
218
222
231
229
37
42
52
77
84
88
38
44
43
22
21
23
32
27
31
25
19
24
23
20
25
23
21
26
25
26
30
40
43
48
77
81
84
94
101
97
119
134
125
171
187
180
181
199
192
138
157
148
79
98
88
88
108
96
89
105
93
113
124
114
88
97
88
70
81
74
146
155
151
202
213
212
84
96
100
135
150
148
63
77
68
17
19
16
33
28
31
28
22
26
23
20
24
22
22
25
22
20
26
25
22
29
37
28
36
59
47
49
71
73
67
85
95
88
102
115
108
91
103
95
61
72
63
71
80
70
82
82
76
83
74
73
90
78
80
87
78
81
90
88
89
111
117
118
78
99
84
73
98
77
57
76
52
29
35
25
26
23
23
33
27
29
31
27
26
28
25
26
29
23
27
34
24
31
42
31
37
52
41
42
63
50
49
70
55
57
74
60
61
75
63
62
78
63
63
82
65
66
69
53
55
66
48
52
73
55
61
67
54
60
63
56
60
65
61
67
44
69
47
38
64
42
55
73
51
39
50
36
23
22
22
35
30
30
38
33
26
43
33
28
40
30
27
38
28
27
42
34
34
49
40
40
59
42
42
61
40
44
56
37
39
57
38
37
63
42
44
73
49
54
68
48
50
66
47
48
66
49
51
52
42
44
47
41
45
56
47
56
59
76
51
70
88
65
87
99
74
75
86
59
30
30
25
36
31
30
43
35
30
47
36
30
42
31
27
41
32
29
45
35
35
51
36
37
49
34
34
45
34
34
44
33
31
44
32
29
47
34
35
60
42
44
69
49
51
68
47
47
69
49
48
51
39
40
40
35
40
40
33
40
143
157
105
146
163
111
155
168
114
151
163
113
65
69
50
38
33
29
45
37
35
44
34
31
43
33
31
45
35
35
47
35
35
46
32
32
43
31
30
40
30
28
42
31
29
45
33
35
53
41
46
67
50
53
67
48
53
65
43
45
69
47
43
52
41
40
39
32
34
36
29
31
152
173
99
149
172
97
149
169
94
152
171
100
106
114
75
41
37
31
46
36
34
47
36
33
49
38
35
56
45
42
55
43
41
43
29
27
40
28
27
40
29
28
45
34
36
56
43
50
68
55
65
72
58
65
69
52
60
70
46
50
73
48
43
59
43
38
44
33
33
43
32
31
143
168
92
142
167
92
141
166
89
144
169
86
113
126
71
38
35
29
46
36
33
51
38
35
58
45
41
65
53
48
58
45
40
43
29
25
37
25
23
39
29
30
46
35
38
63
49
57
67
52
63
54
44
51
49
37
42
60
40
41
71
47
40
59
43
38
51
39
39
44
33
32
138
166
87
142
168
89
141
168
90
144
171
86
120
137
73
32
29
22
46
34
33
57
43
42
68
54
53
60
47
41
46
33
26
45
32
28
37
26
25
41
30
33
48
38
41
62
49
54
61
47
54
42
34
35
31
24
22
36
22
17
50
32
25
44
31
28
56
46
48
41
32
33
139
169
84
144
169
87
144
167
88
141
168
82
130
157
76
44
48
26
35
21
24
57
43
46
69
55
58
55
42
38
50
36
29
49
36
31
37
24
21
42
29
28
48
36
36
57
46
49
55
42
47
40
29
28
33
24
19
22
16
11
21
16
12
23
15
16
47
37
42
36
28
28
122
158
71
128
161
74
129
161
76
124
161
71
122
160
69
82
104
50
34
35
16
52
39
36
49
36
31
48
36
33
41
29
26
38
26
19
32
20
14
32
20
16
37
25
23
45
34
35
43
32
37
30
19
22
29
30
16
49
63
29
46
58
25
22
23
17
30
23
28
31
24
24
109
150
67
113
154
67
115
155
67
113
156
67
113
157
64
119
156
73
80
98
54
51
43
40
47
35
34
24
18
15
16
16
9
16
14
6
16
14
8
16
14
9
17
15
11
25
24
17
35
38
22
51
58
27
81
102
49
108
142
63
112
143
64
67
85
43
21
22
11
27
22
19
101
142
67
107
149
69
112
153
69
119
157
76
115
152
69
115
153
63
106
132
75
44
46
35
35
30
30
50
56
32
75
96
46
74
96
47
67
89
43
67
88
44
71
93
47
84
107
58
99
127
70
113
147
76
120
155
75
116
155
63
115
156
61
108
141
66
49
59
27
23
20
11
91
126
59
91
128
59
90
127
53
103
135
61
102
134
55
102
135
52
101
128
64
42
50
28
24
24
17
78
95
48
115
149
69
114
149
68
109
144
64
109
144
65
114
148
72
117
151
76
113
148
72
106
144
69
108
145
71
110
147
69
111
150
66
116
152
68
102
126
64
31
37
19
84
116
55
80
113
50
83
116
49
97
128
64
101
132
64
99
131
64
94
122
61
43
54
30
22
23
16
76
95
45
102
137
61
99
134
57
81
115
40
77
110
37
99
131
62
103
134
65
102
134
60
105
136
67
106
140
72
99
136
64
99
133
58
103
136
58
107
139
63
72
90
48
84
116
58
86
118
55
90
122
53
98
130
65
95
127
62
88
120
55
95
125
61
46
60
33
23
25
19
81
99
52
92
126
52
85
118
47
82
115
45
81
113
45
91
122
56
95
125
57
96
127
56
94
125
57
96
128
61
96
129
60
97
130
60
93
125
56
93
126
54
94
121
53
94
129
67
99
130
66
95
125
54
93
124
52
96
127
58
92
123
53
94
125
52
48
66
34
24
28
23
81
99
54
92
125
52
92
125
54
97
130
60
92
125
56
91
122
57
88
119
52
89
120
51
90
121
54
86
115
50
85
114
48
91
122
52
88
121
48
89
125
47
95
129
53
94
131
59
106
138
68
104
133
61
88
113
45
97
121
58
104
127
64
95
121
52
46
64
31
27
32
29
82
101
57
100
132
59
95
129
53
94
127
54
93
126
55
94
125
59
94
123
58
98
128
60
97
127
62
106
133
71
105
132
68
100
130
59
96
128
51
94
130
48
90
125
53
90
125
51
94
128
53
94
126
53
98
123
56
106
126
62
109
128
66
103
127
63
59
72
39
25
28
23
82
103
59
96
125
56
93
123
51
96
126
58
100
129
66
95
122
61
95
121
59
105
130
69
106
131
70
108
134
71
107
132
68
107
131
65
106
129
61
101
126
59
95
123
55
96
127
57
98
129
59
92
124
53
95
129
53
98
126
53
103
130
59
105
135
64
69
85
46
21
27
16
86
111
59
95
126
54
95
127
58
101
132
66
98
128
66
96
125
60
97
125
56
102
130
61
107
135
67
100
128
58
92
120
49
96
123
51
95
120
48
95
120
54
95
126
55
