P3 24 24 255
98
58
53
94
55
50
90
55
49
97
59
51
117
75
66
144
99
92
148
103
98
127
83
81
110
74
73
107
77
75
97
66
66
101
68
70
91
58
61
75
42
47
70
39
44
67
37
42
63
35
38
68
40
43
78
50
51
92
62
61
105
75
71
136
98
96
145
100
98
121
84
75
97
57
52
93
55
50
88
53
45
92
55
44
103
60
48
115
69
57
130
85
75
119
76
70
104
68
64
93
62
59
73
42
40
66
35
35
59
27
29
55
23
27
57
26
31
58
27
31
60
30
33
71
40
42
76
43
44
83
49
48
119
84
82
140
100
99
135
91
89
125
85
78
96
56
52
90
52
46
86
50
41
91
53
42
115
74
60
129
87
73
118
78
66
102
65
56
87
54
49
77
46
43
72
41
39
61
29
29
55
23
25
66
34
38
67
35
40
66
35
38
72
41
42
76
43
44
64
29
28
77
41
39
127
90
87
148
110
107
140
101
98
121
81
77
94
54
49
88
49
45
84
47
42
93
53
47
128
87
78
141
101
91
114
78
70
82
51
44
65
34
30
68
37
34
63
32
30
53
21
22
68
36
38
82
50
54
73
41
45
83
49
51
86
51
51
78
43
42
59
22
20
73
34
31
121
82
78
127
89
87
102
67
65
84
44
41
87
48
43
84
44
42
81
41
43
92
51
51
116
75
72
126
89
85
102
68
65
74
44
43
65
35
34
56
25
23
52
20
19
69
37
38
77
45
48
63
31
35
77
45
49
85
52
53
76
42
40
80
44
41
79
40
37
85
46
42
92
52
47
71
34
32
58
24
25
61
21
21
85
43
39
85
43
40
90
52
49
104
67
64
112
77
74
114
80
78
88
56
55
81
51
51
68
37
37
54
22
23
74
42
44
89
57
59
74
42
44
71
39
41
83
52
54
79
50
49
81
50
46
96
59
55
120
80
75
127
86
83
101
61
60
78
44
43
58
26
24
75
35
34
80
37
34
91
49
44
113
75
68
118
82
76
120
85
80
100
66
63
77
44
42
80
48
47
65
33
33
72
41
41
91
59
60
84
52
53
87
55
56
86
54
55
71
39
40
75
42
42
90
53
52
105
64
60
127
82
77
144
99
97
149
106
108
129
93
93
84
53
50
95
57
55
76
32
29
85
42
38
95
55
48
108
69
62
113
75
68
86
50
45
90
55
52
71
37
35
63
31
29
89
58
56
103
72
70
83
52
50
93
62
60
84
53
50
71
39
37
84
45
47
98
55
55
105
58
56
110
62
58
115
68
67
126
83
84
117
81
81
77
45
42
75
40
37
75
32
29
88
45
40
86
44
36
87
47
39
77
38
32
90
53
46
89
53
47
73
38
33
84
51
47
110
79
75
117
85
82
87
56
53
106
75
71
89
58
54
84
51
49
97
58
59
107
64
65
110
65
62
106
61
56
103
61
58
101
65
64
104
71
70
104
73
70
89
57
53
75
32
29
104
60
55
102
59
51
87
44
36
79
38
31
102
62
55
84
45
39
77
40
35
93
60
54
121
92
84
122
92
85
96
66
59
96
65
59
94
64
57
110
78
73
119
83
81
120
81
79
116
76
72
118
79
73
117
82
77
115
85
82
124
95
92
137
106
103
130
101
97
99
59
56
102
60
57
93
50
46
84
39
34
83
37
31
92
47
42
90
49
46
86
49
48
107
78
70
143
120
104
135
110
97
85
58
47
85
57
46
69
40
30
112
81
71
118
84
73
114
77
70
118
81
76
125
90
88
135
103
100
138
108
103
144
111
106
150
115
112
141
116
111
153
120
119
125
90
89
91
53
50
80
40
34
85
43
36
88
46
39
92
55
51
100
68
67
139
111
109
183
157
152
108
81
75
61
32
25
104
75
65
101
70
59
123
91
78
116
81
68
121
84
75
118
82
78
115
80
79
122
90
88
131
100
95
141
107
100
147
111
106
141
115
109
166
138
140
144
114
114
107
74
69
85
48
41
84
46
37
107
70
61
117
83
77
128
98
96
151
121
124
138
105
110
104
71
72
108
75
71
105
70
63
111
75
64
112
75
62
114
77
65
133
96
87
151
114
110
152
117
116
134
102
99
114
83
78
116
82
75
124
89
82
127
97
90
168
139
138
164
134
132
139
102
98
106
65
59
102
60
53
124
82
75
138
100
96
151
118
117
137
103
102
106
70
68
116
78
75
125
87
81
105
66
59
103
62
54
108
67
58
122
84
73
140
103
94
164
128
124
181
147
146
176
144
141
161
131
125
147
115
106
136
102
92
139
104
96
161
129
124
165
130
126
163
120
116
136
90
84
106
59
52
115
69
63
122
81
78
121
84
84
105
70
63
122
86
73
120
83
71
107
67
58
99
57
49
115
71
64
141
97
90
154
115
104
169
131
122
177
139
134
168
131
129
174
141
137
173
142
135
153
122
113
144
113
103
159
125
116
140
102
93
148
107
99
156
110
98
154
106
92
132
84
70
106
60
49
95
55
48
114
79
76
147
116
110
160
129
118
138
105
95
120
84
75
126
89
81
138
98
91
154
114
107
163
126
116
170
132
121
167
124
117
158
115
109
160
121
113
154
122
112
147
115
107
149
118
112
144
111
102
116
75
65
122
79
71
135
89
76
154
106
92
168
119
105
131
85
73
130
89
81
175
139
135
181
148
144
161
130
124
152
122
116
142
112
106
147
119
113
154
127
121
164
137
130
168
139
129
159
126
115
145
109
99
149
110
101
170
132
122
171
137
126
160
117
110
144
87
85
120
62
57
117
73
64
116
72
64
125
81
71
137
91
78
148
101
87
147
100
87
152
110
100
167
128
122
174
137
135
174
139
138
182
149
147
183
153
150
188
162
158
187
164
159
183
160
155
177
150
142
167
135
126
159
124
115
157
118
108
147
105
94
127
83
72
119
58
54
121
39
42
122
40
41
121
74
65
121
75
68
119
77
70
125
81
71
118
71
58
111
63
49
137
93
82
152
111
103
161
121
116
170
129
126
174
134
131
177
137
134
180
141
137
182
143
140
174
135
132
165
122
121
157
112
111
145
99
96
140
89
83
128
68
63
122
53
47
129
53
51
135
55
59
135
56
59
129
80
72
131
84
78
125
83
77
126
83
74
116
69
56
89
42
27
94
48
36
118
74
64
141
94
87
134
83
77
118
65
60
120
65
61
119
61
58
122
61
59
117
55
54
113
52
53
118
57
58
117
56
55
124
58
57
141
66
66
149
63
64
154
73
76
150
83
88
159
97
100
129
81
76
123
76
71
131
86
81
156
112
104
146
101
88
96
49
34
81
32
19
88
39
28
103
47
39
104
40
34
98
32
26
100
29
25
102
27
25
113
35
34
128
47
46
123
41
37
129
46
42
131
49
47
131
51
52
129
49
53
132
51
58
144
71
80
164
109
119
181
139
144
100
56
51
82
37
32
97
53
50
158
115
108
162
118
106
115
70
56
88
41
29
80
31
22
88
36
28
96
42
33
100
41
33
100
35
29
102
31
27
111
34
33
119
38
37
123
34
33
129
39
40
119
35
37
123
47
49
136
68
71
157
95
98
175
120
127
182
138
148
177
142
148
60
21
17
57
18
14
65
25
23
113
72
66
138
97
86
131
88
75
117
72
61
89
42
35
75
31
23
90
49
39
109
63
54
112
59
53
111
52
48
113
48
46
120
51
50
132
62
63
137
72
72
139
82
81
147
99
96
157
119
114
169
139
132
174
144
141
168
135
139
155
123
125
48
14
10
51
15
13
58
19
18
70
31
27
91
51
42
124
83
72
143
100
91
139
94
89
113
71
65
86
47
38
101
60
52
117
74
67
130
85
79
134
88
82
144
97
92
159
117
114
161
123
121
164
128
126
160
126
123
152
120
116
150
120
116
139
108
103
123
88
83
116
80
75
