P3 24 24 255
226
221
207
226
220
205
224
218
203
222
216
202
223
217
202
224
219
201
225
220
201
223
218
199
222
217
198
226
220
202
227
220
205
228
220
207
229
221
207
226
218
204
226
219
205
225
222
205
224
223
207
224
221
209
224
221
211
225
223
215
221
222
216
219
220
214
222
223
217
224
225
219
226
221
205
225
219
203
224
218
202
223
217
201
223
218
201
224
219
200
225
220
200
223
218
199
222
217
197
225
220
201
228
220
205
229
221
206
230
221
207
227
218
204
227
220
205
226
224
206
224
223
206
223
221
208
225
222
211
225
224
215
222
223
216
221
222
216
223
224
218
224
225
219
229
225
207
227
223
205
226
222
202
226
220
201
225
220
200
224
222
203
226
222
205
227
220
205
225
218
204
225
220
206
225
220
208
225
220
208
225
220
208
224
219
207
225
220
207
225
222
207
224
222
208
223
221
210
223
222
212
223
223
214
222
224
216
223
225
217
224
226
220
224
226
221
232
228
209
231
227
207
232
227
207
232
226
205
227
222
200
224
224
202
225
224
205
226
221
205
224
219
206
225
221
209
222
221
207
221
221
206
221
221
206
221
221
206
221
220
206
225
220
208
226
222
211
227
224
214
226
224
215
225
225
216
224
226
216
224
226
217
225
227
220
226
227
223
235
229
211
236
229
211
236
229
211
237
229
211
235
228
208
229
229
205
229
231
206
228
228
207
226
225
207
227
227
210
227
227
207
226
227
206
226
226
206
226
227
206
227
227
207
232
227
213
233
228
215
233
228
216
234
229
217
232
229
217
228
229
217
227
229
219
227
228
222
227
228
223
239
229
213
241
230
215
242
233
219
239
232
218
234
227
214
228
226
209
224
227
209
219
225
209
215
220
207
215
216
205
215
215
201
214
215
200
216
217
202
221
221
206
224
224
209
225
222
209
232
227
213
236
231
215
237
231
215
236
231
215
231
232
218
230
231
220
230
230
222
229
229
224
240
230
214
241
230
217
228
222
211
199
196
187
177
174
168
163
157
157
133
136
135
123
134
133
122
132
134
129
132
138
132
133
138
131
133
137
136
137
142
142
144
148
152
154
156
160
162
153
181
182
169
229
227
211
237
232
213
237
231
213
233
231
216
233
231
218
232
230
221
232
229
222
239
233
217
218
213
200
172
171
162
146
150
144
160
163
162
133
127
134
109
113
120
109
126
131
109
124
133
113
119
133
109
116
133
103
111
128
112
120
137
124
132
150
129
137
151
158
168
165
148
156
148
179
183
170
230
229
212
234
231
213
234
231
214
234
231
216
235
231
220
236
232
223
223
221
203
171
173
159
167
174
165
146
159
154
170
182
181
138
135
134
147
155
151
161
186
179
154
176
173
154
166
170
122
138
149
98
117
129
121
140
152
145
163
176
113
132
142
166
185
186
180
197
192
146
157
148
193
198
185
235
235
219
234
230
213
235
230
214
236
231
219
239
233
223
188
190
176
153
159
148
170
177
169
142
153
148
161
170
165
133
129
120
151
160
146
191
219
202
189
216
202
196
215
206
137
159
160
94
118
122
106
130
133
143
166
170
107
130
134
133
156
158
186
207
206
173
189
183
152
162
153
210
213
200
238
233
215
236
229
213
235
230
217
237
232
222
156
160
154
175
179
175
164
161
155
136
127
119
143
130
119
123
112
101
129
131
122
166
185
176
147
172
161
149
171
159
112
129
129
89
105
109
95
111
115
133
148
152
125
140
144
125
141
142
170
189
187
185
203
197
156
166
161
160
160
152
209
202
183
229
222
203
236
231
216
235
234
222
139
141
137
177
178
176
131
122
116
95
78
67
100
78
65
116
96
86
133
125
120
126
132
129
101
113
107
108
119
110
111
116
115
112
115
117
121
124
126
144
148
150
155
158
158
162
163
157
173
179
170
182
190
180
179
181
172
149
143
133
161
150
132
213
203
186
238
231
217
236
233
220
139
136
131
156
152
146
120
109
100
91
73
61
79
56
43
102
75
65
155
136
131
146
138
136
142
138
134
152
145
138
171
161
155
175
164
160
170
159
154
170
159
155
177
164
158
192
173
160
187
175
158
182
176
158
186
176
161
185
170
156
181
167
152
204
193
177
223
212
199
228
219
207
145
136
128
142
133
122
131
116
104
131
111
98
116
91
77
113
82
71
150
124
118
150
132
131
150
131
129
154
131
124
165
142
132
168
146
135
160
138
127
148
126
116
145
120
107
161
127
108
168
142
119
168
152
129
179
163
143
187
169
152
182
170
156
179
168
155
177
167
152
182
172
158
142
129
117
127
113
98
117
99
85
139
117
102
134
108
94
133
105
89
137
114
103
142
122
117
136
110
106
124
93
85
140
112
97
164
137
121
162
136
119
152
126
109
131
102
84
133
95
73
142
112
89
125
109
86
125
113
92
130
118
102
120
114
101
117
112
98
124
117
102
149
140
123
133
116
99
128
109
90
122
100
83
130
105
90
126
101
85
127
108
86
128
114
96
102
85
77
114
89
82
123
91
81
174
148
130
201
178
158
198
174
155
198
174
155
185
158
138
139
105
84
109
87
65
70
65
44
63
64
47
70
71
58
65
69
56
59
62
47
77
76
59
154
151
131
121
101
80
122
100
79
120
97
79
117
92
76
106
83
66
111
99
74
94
87
67
39
30
20
78
58
48
119
90
76
176
153
133
190
169
147
188
166
145
181
159
137
181
156
135
137
108
88
100
84
64
57
59
41
46
57
43
54
66
55
58
67
53
46
53
36
65
68
48
134
132
110
121
103
84
115
95
74
112
92
73
111
90
72
99
79
60
101
87
69
69
64
51
38
38
29
68
56
43
96
69
52
104
72
53
117
82
62
116
77
53
112
68
40
115
67
38
111
64
41
114
79
57
104
84
65
88
81
66
91
89
75
92
88
71
90
84
65
103
90
68
100
75
53
115
97
79
105
84
63
100
80
60
98
78
57
90
69
49
88
71
58
60
56
48
84
87
79
107
99
87
93
66
49
112
68
54
127
78
63
132
79
60
133
74
50
135
73
47
130
72
46
116
68
43
126
91
69
127
105
85
118
104
86
121
111
95
116
105
87
119
101
81
100
65
47
86
68
50
81
60
39
75
54
33
72
51
30
68
48
29
68
55
44
65
63
55
118
121
112
149
143
131
76
52
38
91
46
36
113
64
54
112
63
52
108
58
47
109
58
45
108
60
38
95
54
31
137
107
87
141
122
102
121
110
92
131
125
113
120
115
101
137
127
112
81
57
45
59
42
26
64
44
26
59
40
22
58
38
20
58
40
23
54
46
37
86
87
79
144
148
137
185
182
169
80
64
52
45
15
6
52
20
13
47
16
11
43
14
10
42
14
10
42
16
6
37
16
5
82
68
56
100
94
82
90
87
77
93
90
81
90
90
80
85
84
74
38
27
20
48
36
23
55
41
27
52
38
24
53
39
24
50
38
25
46
44
38
112
116
108
173
178
165
177
177
164
93
86
77
25
17
9
21
15
7
18
12
7
16
12
7
17
14
10
16
14
10
15
15
11
20
24
20
20
28
24
17
22
19
22
20
13
18
20
12
12
17
9
17
15
10
28
23
15
36
31
23
35
30
22
36
31
22
33
29
22
33
38
35
109
116
108
153
158
143
163
165
152
100
101
93
15
22
17
7
16
10
8
14
8
11
16
10
15
20
13
13
19
12
12
18
12
13
19
13
10
17
12
12
14
9
19
13
7
14
14
6
8
16
7
11
15
10
9
9
6
18
18
16
19
20
18
20
20
17
18
19
17
19
28
27
83
92
84
145
150
135
135
138
126
78
83
78
13
21
22
3
9
9
7
8
4
22
19
12
56
50
40
58
56
38
58
55
37
59
53
36
60
53
35
64
54
38
45
34
24
13
11
2
9
16
7
12
19
12
