P3 24 24 255
183
161
151
196
180
166
203
197
176
206
206
180
204
206
176
206
206
174
207
207
174
206
209
174
203
207
170
200
204
166
198
200
161
199
201
163
203
204
168
208
209
178
208
213
183
204
212
186
195
205
185
160
171
159
111
123
121
57
71
80
43
59
79
45
63
92
52
74
108
36
59
93
178
149
138
184
157
145
194
174
159
203
188
169
205
197
172
204
199
169
203
201
165
201
201
162
199
200
159
197
199
158
196
198
157
197
200
159
198
201
162
200
201
167
202
204
172
200
204
176
192
200
177
162
174
159
119
139
134
72
100
108
59
86
106
51
75
100
53
71
97
88
99
116
175
145
135
180
150
139
187
155
145
195
165
153
204
182
163
200
192
162
197
196
159
196
196
153
196
196
154
196
197
155
195
198
155
195
199
157
195
199
159
196
198
161
200
202
167
199
201
171
191
196
172
164
176
158
131
150
141
96
122
123
86
111
121
105
119
129
143
142
144
195
179
166
176
135
127
182
145
138
185
149
142
189
155
147
196
166
153
199
183
160
200
195
164
199
200
164
199
200
163
199
201
164
200
202
165
199
201
165
198
201
165
197
201
166
197
199
166
191
194
164
180
185
161
154
163
143
153
161
144
170
174
158
189
183
168
206
191
172
219
195
171
220
191
160
183
142
135
185
147
143
184
149
145
184
151
147
187
157
149
197
180
165
207
200
180
214
214
193
215
216
192
215
217
190
213
216
185
213
216
184
213
217
184
214
218
186
214
216
187
210
212
185
204
204
182
191
189
168
197
187
165
215
192
167
217
188
165
219
185
161
219
181
155
214
174
144
171
134
128
173
138
136
176
147
146
181
156
154
186
163
160
200
186
178
212
207
194
219
220
207
221
223
206
221
224
203
220
223
198
221
225
197
222
226
198
224
227
200
226
227
204
228
227
206
231
226
206
225
213
191
219
195
172
213
177
153
213
176
153
214
175
153
214
173
150
208
164
138
176
145
139
175
147
145
180
160
158
188
173
172
199
185
183
208
200
194
216
214
202
222
224
209
223
226
209
223
226
207
223
226
204
226
229
206
227
230
206
226
228
206
226
227
207
228
225
206
230
222
203
225
209
189
217
193
173
208
177
158
201
170
152
200
166
148
202
165
145
204
165
141
186
165
161
190
173
169
193
180
178
197
188
185
201
194
190
209
203
196
217
213
203
224
225
213
227
229
214
228
230
214
228
230
213
229
232
214
228
231
211
226
228
206
225
223
202
224
218
199
222
213
195
218
205
187
214
196
179
208
186
168
200
170
152
194
158
139
192
150
129
200
159
135
191
181
177
193
186
180
198
190
182
203
193
185
205
196
188
209
203
198
215
213
207
224
225
217
227
229
219
230
231
220
231
233
221
232
234
219
231
232
214
228
229
206
219
217
194
214
209
187
213
205
185
217
207
187
217
203
184
213
196
176
207
182
162
202
170
149
198
162
139
204
169
144
195
192
187
190
186
180
189
185
180
190
187
184
197
192
191
203
199
198
210
208
206
220
220
217
225
226
221
229
230
224
231
232
225
230
231
222
229
228
216
227
224
207
216
212
195
214
208
191
219
211
195
219
211
194
218
208
190
215
203
182
210
192
169
203
180
156
198
170
145
204
179
154
187
184
180
157
148
143
123
121
122
103
108
116
110
118
131
150
152
159
186
184
187
211
210
210
221
220
220
227
226
225
230
228
226
227
226
221
224
220
214
221
213
205
212
204
194
209
201
189
209
201
188
212
203
189
215
204
188
218
206
185
218
203
180
215
197
172
210
191
163
206
189
162
191
191
188
176
168
161
126
120
117
84
83
88
62
73
92
95
98
111
141
139
144
199
196
197
215
209
211
223
215
218
226
218
218
219
212
207
207
198
190
190
175
167
157
143
128
134
123
101
121
113
86
129
113
89
154
134
113
189
169
151
217
203
181
224
214
188
220
210
182
216
206
179
197
200
198
204
202
196
190
184
178
168
159
157
140
131
134
144
129
127
164
147
144
200
192
189
210
200
198
215
204
201
216
205
200
210
199
190
185
170
155
141
117
96
107
82
58
94
71
43
99
82
49
120
98
70
159
137
114
206
187
170
223
211
191
226
218
195
222
217
190
219
215
187
192
197
200
201
206
209
204
207
209
204
203
204
201
195
195
195
185
183
195
183
179
202
192
188
203
191
185
204
191
182
205
191
181
203
190
177
186
168
154
155
127
111
155
123
110
161
131
119
174
151
138
201
179
165
218
201
187
228
217
202
224
217
199
220
215
194
215
212
189
215
213
187
186
187
190
195
194
198
201
201
204
205
205
207
205
203
201
198
195
194
192
187
185
191
180
175
192
177
167
193
176
163
194
177
163
195
182
167
195
184
168
193
184
166
203
191
179
212
203
193
220
217
208
222
222
211
222
222
209
219
219
204
213
212
195
211
208
189
211
207
185
211
208
183
176
176
178
179
179
182
187
189
192
194
196
199
198
197
199
195
190
190
189
177
174
179
155
151
180
149
140
179
147
135
178
149
135
183
162
150
192
179
166
204
198
184
210
203
191
215
210
199
220
219
208
213
215
204
206
208
196
200
200
187
202
200
185
205
202
184
208
205
183
207
204
178
173
172
171
172
170
172
178
177
181
184
184
188
188
188
191
189
184
184
183
166
164
166
132
127
174
124
118
177
122
114
170
123
113
179
153
141
191
178
164
203
197
182
204
200
184
204
201
185
202
200
185
191
191
176
187
187
173
190
188
175
198
196
181
203
200
183
204
202
181
204
202
179
180
174
172
178
173
173
178
175
177
178
177
181
179
178
182
183
179
181
181
168
168
169
141
138
160
117
113
162
113
110
175
133
129
187
164
159
192
183
174
192
187
175
193
190
177
189
188
173
182
181
165
181
178
163
185
181
167
192
187
175
195
192
178
198
196
180
201
199
182
201
200
182
181
172
169
182
174
173
179
174
175
175
172
175
169
167
170
166
163
165
161
154
155
151
138
137
142
120
119
148
122
121
172
148
149
175
161
162
177
170
168
178
174
168
180
179
170
181
181
170
182
181
169
189
185
173
194
189
177
198
193
181
199
195
183
199
197
183
197
197
182
191
194
178
179
169
167
179
169
167
177
168
166
174
168
165
173
168
165
166
162
159
159
154
150
152
144
138
147
133
128
146
129
126
151
135
131
154
145
140
158
155
149
164
164
158
172
173
166
179
180
172
184
185
176
185
186
176
188
188
178
191
191
181
191
192
181
188
191
178
183
187
173
171
178
163
168
161
159
168
162
160
170
164
161
171
165
162
170
165
161
164
161
156
161
158
152
161
158
153
160
154
150
160
153
149
161
154
150
161
158
153
163
163
158
166
168
164
170
172
167
172
174
168
173
175
168
170
172
165
173
175
168
178
181
174
178
182
173
175
181
170
169
176
164
154
161
148
158
156
155
162
160
159
163
160
158
162
158
155
157
153
147
156
152
145
155
153
147
157
157
153
160
159
156
161
160
158
161
161
158
159
160
157
159
161
159
161
164
164
162
165
164
161
165
162
160
163
159
161
165
161
163
168
163
165
171
166
162
169
163
155
163
156
144
154
144
126
136
125
153
154
152
157
157
156
157
157
155
155
154
150
152
149
144
154
151
145
157
155
149
161
160
158
162
161
160
160
160
159
155
155
154
156
156
155
155
157
157
153
157
158
151
157
156
152
158
156
155
160
158
157
163
160
156
164
160
153
162
158
145
157
150
126
140
133
101
117
112
79
97
97
152
153
151
153
154
153
153
153
152
151
151
150
148
148
147
148
148
146
149
149
148
152
152
151
152
152
151
152
153
152
154
156
155
151
153
152
149
152
151
147
153
151
144
151
148
143
150
146
143
152
145
147
157
151
143
154
148
131
142
137
106
120
115
73
91
94
39
64
79
29
59
88
