P3 24 24 255
176
162
120
184
168
130
187
172
132
173
161
118
163
153
108
161
153
107
170
163
117
172
160
120
159
144
102
169
159
117
160
158
137
140
140
123
165
160
128
184
170
131
191
174
132
179
167
128
169
161
125
170
156
118
167
151
112
175
159
120
187
172
133
178
163
124
163
150
109
168
157
113
183
170
128
183
168
127
179
167
122
167
159
109
158
154
98
156
152
94
170
162
109
176
161
114
173
155
107
180
168
122
157
154
131
136
137
113
158
154
110
165
151
102
176
157
109
172
157
115
169
158
120
167
156
112
161
149
103
162
150
104
170
159
112
163
151
104
158
145
97
165
153
101
180
169
127
172
162
119
166
158
111
153
147
95
145
141
81
149
146
80
160
153
94
176
164
111
183
170
114
176
167
117
153
149
127
136
132
105
159
151
101
167
154
105
173
158
112
172
157
117
166
154
117
167
155
113
170
158
111
169
158
104
167
157
100
166
156
101
165
156
104
163
155
100
162
151
110
162
154
114
163
155
114
151
144
98
144
137
82
154
149
87
151
143
87
153
144
91
158
150
93
162
157
106
154
150
129
146
138
113
172
161
114
176
165
120
170
158
117
155
143
104
153
140
103
154
140
102
170
158
112
176
165
110
171
161
102
168
157
101
159
150
98
156
149
95
162
151
109
159
149
112
163
153
118
164
154
118
149
140
98
138
129
82
144
135
89
139
128
82
142
133
80
158
152
104
154
151
129
149
141
119
167
155
115
166
154
114
162
150
109
152
141
98
152
140
98
150
136
95
160
147
101
163
152
99
162
150
97
163
151
99
151
140
89
154
144
91
164
154
109
155
143
106
156
144
111
161
148
118
158
145
112
133
122
85
127
116
76
148
136
95
158
148
99
157
151
103
156
152
129
145
137
117
162
149
114
161
149
111
161
150
108
158
147
101
152
141
93
155
142
98
161
148
103
160
148
100
154
142
94
149
137
89
153
140
91
160
147
95
157
146
97
158
146
104
156
143
107
157
143
111
164
151
116
149
137
99
141
131
90
159
147
105
167
157
108
157
151
104
151
147
125
141
133
113
162
149
113
158
146
106
156
145
100
159
149
98
159
149
97
156
143
96
159
146
101
160
146
104
144
131
89
139
126
84
147
134
87
154
140
92
153
143
88
162
150
100
161
148
103
165
152
110
168
156
111
165
153
105
164
154
107
167
156
109
164
155
102
161
155
106
146
142
121
135
127
104
160
148
105
159
148
102
153
143
92
157
148
93
158
148
93
150
138
87
150
138
93
149
135
97
134
120
83
139
125
88
139
127
84
140
129
85
160
150
91
160
149
91
163
152
97
168
156
103
164
153
95
160
151
89
154
146
90
154
145
92
150
142
86
147
142
92
118
114
93
119
112
85
157
147
96
161
151
99
157
148
93
160
151
95
149
140
82
147
136
83
150
136
92
138
123
87
119
104
71
132
117
83
130
119
80
136
126
87
155
147
86
155
148
86
157
150
90
159
151
91
159
152
90
151
145
80
147
142
82
151
145
86
147
139
88
116
110
75
64
62
45
98
95
63
153
146
95
147
139
89
156
147
98
155
145
95
144
134
83
155
143
90
151
136
89
138
120
82
125
108
74
126
112
79
125
115
82
133
122
87
158
150
91
151
146
87
152
146
88
147
142
84
148
142
84
148
143
84
153
149
89
153
147
87
139
130
87
85
78
59
36
35
24
87
86
56
147
142
95
144
137
92
152
144
100
148
138
94
148
137
90
159
146
94
158
140
92
146
126
85
152
134
97
131
119
86
127
116
85
141
128
94
154
143
89
153
143
92
157
147
96
151
141
90
150
140
89
154
144
93
161
152
95
161
151
94
131
120
84
57
50
40
29
28
25
87
86
61
150
144
101
148
141
97
154
145
100
152
142
95
152
140
92
160
146
96
159
141
94
149
130
88
154
137
101
136
123
89
137
124
91
155
139
102
134
122
71
151
138
89
152
139
91
156
142
94
152
139
90
153
140
92
159
146
95
161
148
100
106
95
68
39
32
30
26
25
28
88
85
66
154
145
108
150
142
99
151
142
94
155
144
95
159
146
97
159
144
96
150
133
88
145
128
87
138
122
86
157
143
108
170
155
120
169
151
111
128
119
73
144
133
87
143
131
86
139
127
82
143
131
85
147
135
90
144
131
92
120
110
75
59
52
35
29
25
28
26
25
28
92
87
69
150
140
104
154
144
100
151
140
90
157
144
96
154
139
93
154
135
92
151
134
91
150
135
94
141
127
90
157
143
108
163
148
113
164
146
105
117
113
78
115
108
76
112
104
72
95
88
56
100
93
60
110
102
71
90
81
59
55
50
31
31
30
22
25
24
28
29
28
25
101
95
73
152
140
103
160
149
103
163
150
100
160
146
100
159
142
101
158
138
98
156
139
99
154
141
102
155
142
105
152
137
102
155
140
106
146
130
90
84
85
63
66
64
53
53
50
39
41
38
27
38
35
24
40
38
28
29
27
22
21
23
17
22
27
26
20
22
26
33
32
23
114
107
79
153
141
101
156
144
95
161
149
98
167
151
109
168
148
114
167
145
109
162
144
106
152
140
102
147
136
98
150
134
100
153
138
107
141
128
89
45
46
38
38
37
39
30
29
30
25
24
25
24
23
24
22
21
23
19
20
21
18
21
20
18
23
24
17
19
21
31
30
22
123
113
86
160
145
101
147
135
84
155
142
96
162
147
111
162
145
112
163
142
107
152
135
96
150
138
97
137
127
86
146
133
96
150
136
104
137
124
89
37
35
36
31
31
31
23
23
24
21
21
22
22
22
23
21
21
21
20
20
21
20
21
21
18
19
19
15
15
16
19
19
17
107
96
75
157
140
94
139
126
75
143
130
91
151
138
108
156
142
109
155
138
102
150
134
94
149
136
94
140
130
89
143
133
96
139
126
91
125
111
78
33
32
33
23
23
23
22
22
22
21
21
20
20
20
20
20
20
20
21
21
21
22
22
22
19
19
19
14
14
14
12
12
11
70
63
46
138
124
83
146
134
87
138
124
89
140
125
99
149
133
104
157
138
107
153
136
101
146
132
93
133
120
83
127
115
81
126
113
78
128
113
81
29
31
29
20
20
20
21
21
21
19
19
19
19
19
19
20
20
20
20
20
20
20
20
20
19
19
19
14
14
14
10
10
10
39
36
23
119
111
77
136
124
82
136
120
88
136
116
94
140
121
96
153
135
109
147
131
100
134
119
84
121
106
72
117
102
71
123
108
75
124
109
77
26
29
27
22
22
22
20
20
20
18
18
18
18
18
18
19
19
19
19
19
19
20
20
20
17
17
17
15
15
15
12
12
12
18
18
10
90
87
59
119
109
70
127
109
79
144
123
101
146
127
104
147
129
107
147
130
103
146
129
97
141
123
90
133
115
84
136
118
85
123
104
73
25
27
26
24
24
24
19
19
19
16
16
16
18
18
18
19
19
19
19
19
19
19
19
19
19
19
19
15
15
15
12
12
12
12
12
7
80
77
54
137
126
88
137
118
86
149
130
105
147
131
107
139
121
99
139
122
96
148
129
97
145
125
92
129
108
77
150
130
97
140
121
90
24
25
25
19
19
19
14
14
14
14
14
14
16
15
15
16
16
16
17
17
17
18
18
18
16
16
16
13
13
13
12
12
12
14
13
10
82
78
57
143
130
92
147
128
93
145
131
102
124
114
85
125
109
86
124
107
79
125
106
73
139
118
83
140
117
84
135
114
80
138
118
88
20
18
18
15
16
16
10
11
12
11
12
13
13
13
13
13
13
12
12
13
13
13
14
15
12
13
13
12
12
11
13
11
8
25
22
14
90
84
59
136
123
84
146
128
91
136
123
91
114
106
75
110
95
69
118
100
72
126
108
75
138
118
83
144
122
88
122
101
70
128
107
81
