P3 24 24 255
109
115
93
140
141
121
118
106
91
132
109
96
140
109
98
68
39
31
22
3
0
10
2
1
20
15
12
86
79
74
117
106
102
126
116
108
146
140
127
130
129
111
102
103
86
58
56
46
18
15
12
6
3
1
11
7
4
33
26
24
61
54
55
26
27
50
14
19
42
6
12
18
106
86
57
168
156
134
175
169
158
152
135
123
142
114
101
93
63
50
47
24
15
32
18
12
76
63
52
83
68
54
75
56
42
128
110
92
130
117
96
106
102
76
132
130
109
156
153
140
116
115
106
46
46
42
8
11
11
26
31
35
53
60
69
21
27
55
7
14
36
4
14
17
109
87
58
135
122
101
163
162
151
191
183
169
181
163
145
126
103
83
84
60
41
103
82
65
141
121
106
98
76
58
91
66
44
93
68
44
80
61
38
96
83
63
134
125
110
172
168
158
171
170
164
130
134
132
56
65
69
31
45
52
49
64
75
19
29
46
6
12
26
22
31
32
159
150
135
167
160
145
164
160
144
169
163
142
162
152
127
121
107
82
97
81
60
138
119
104
153
133
122
117
95
79
88
64
41
78
54
29
129
110
91
186
172
163
207
198
194
205
200
197
189
186
183
168
169
166
131
135
134
87
95
93
76
85
84
58
61
62
44
44
43
52
53
47
178
170
156
177
167
150
176
164
142
174
165
138
154
147
119
121
114
89
114
105
86
144
132
120
149
134
125
118
101
87
82
63
42
113
94
72
179
163
149
209
198
197
221
214
218
219
216
218
208
204
204
187
183
179
159
155
146
121
118
105
103
99
83
103
97
82
94
86
71
91
84
69
176
166
151
174
164
148
173
161
146
167
155
138
151
139
121
128
115
96
115
100
81
129
113
96
128
114
99
101
88
72
98
84
69
157
143
131
208
196
188
225
214
210
227
220
218
222
221
219
219
215
215
206
199
199
175
167
162
131
123
110
109
101
82
112
101
81
113
102
82
115
106
86
173
164
149
170
161
147
166
155
143
158
146
133
151
137
122
135
119
102
118
100
81
118
100
80
105
91
75
85
74
61
124
114
105
199
191
186
233
227
225
238
233
234
237
234
233
232
230
230
228
224
227
217
210
213
185
177
175
134
125
114
111
102
85
117
105
86
115
104
84
114
105
84
172
163
148
167
157
144
163
152
139
163
151
137
152
138
123
132
116
99
121
103
84
103
85
65
85
69
54
105
91
79
180
169
162
238
231
228
245
241
244
243
242
249
241
239
245
235
233
236
228
224
230
223
216
222
205
196
197
151
142
134
105
96
81
106
95
77
107
96
76
107
98
77
186
177
162
180
171
157
177
166
154
167
155
142
144
130
115
125
110
93
117
100
82
107
89
69
98
75
56
101
78
63
157
138
129
222
209
205
242
234
238
246
242
249
243
240
246
233
231
236
222
217
225
222
214
223
223
213
218
185
175
170
119
109
97
104
92
75
106
95
75
106
96
76
199
191
176
193
184
170
183
173
159
166
154
140
146
131
116
135
118
101
128
109
89
112
90
69
89
59
36
69
37
16
74
46
31
94
72
64
151
137
137
215
207
213
240
236
241
234
230
237
214
209
219
216
208
218
224
214
220
209
199
198
148
138
129
112
101
85
117
106
87
120
111
90
196
191
179
197
190
174
186
178
157
174
161
143
162
144
126
145
122
101
122
95
68
109
79
47
97
68
37
90
59
31
86
52
29
107
77
62
199
182
176
238
235
236
239
239
243
231
226
230
212
205
211
217
211
216
218
211
215
213
206
209
190
183
183
145
136
128
135
126
110
142
134
113
133
127
113
149
143
125
158
151
130
156
143
124
145
126
105
126
103
75
115
87
49
134
102
57
158
125
84
148
112
76
123
81
50
144
106
82
216
192
178
244
236
230
233
230
229
220
212
213
215
207
208
209
201
202
186
178
179
185
177
178
197
189
189
182
173
169
159
150
139
154
147
127
111
103
87
104
96
77
105
97
76
108
95
76
113
95
73
116
92
63
130
103
63
137
105
57
174
138
90
204
162
117
205
159
120
187
143
113
190
160
139
230
216
203
216
208
201
191
181
177
190
179
176
175
165
161
154
143
140
149
138
135
158
148
145
181
174
171
178
172
165
157
152
137
126
115
98
119
110
88
110
103
78
112
99
80
107
88
72
88
63
45
112
82
59
135
102
71
165
130
86
195
154
107
210
165
123
205
162
129
200
172
148
218
206
191
177
170
159
153
141
132
162
150
141
162
150
142
160
147
139
153
140
131
135
123
116
142
136
136
174
171
169
161
159
149
127
114
96
121
111
88
117
110
84
111
99
78
112
92
75
92
65
50
119
85
72
161
122
109
173
141
107
191
159
118
199
165
130
213
182
155
229
209
190
175
167
154
120
113
103
124
111
102
128
114
104
123
110
96
121
108
93
122
108
97
110
96
93
105
99
100
147
144
143
174
172
166
129
116
99
125
115
95
119
111
92
122
109
95
132
112
88
130
105
70
160
126
98
197
158
147
223
197
183
233
216
202
234
224
217
239
234
232
209
203
201
142
134
130
136
125
120
143
130
125
145
132
125
143
131
113
142
132
107
139
126
114
128
114
118
118
107
104
122
113
108
165
157
154
126
115
99
126
117
98
129
119
108
157
142
149
195
179
184
208
191
182
226
208
195
247
228
225
247
227
233
241
223
231
241
231
239
236
230
237
181
174
177
138
128
127
144
133
125
149
137
125
150
136
132
149
135
135
149
136
133
148
136
124
142
131
113
133
124
109
121
111
102
140
131
127
125
117
102
124
116
99
111
101
94
140
127
142
209
197
215
236
229
232
240
238
231
201
197
193
159
144
147
136
117
120
186
170
167
232
219
211
168
158
146
142
134
119
145
135
124
137
125
116
122
110
97
124
110
109
135
118
131
144
129
134
144
133
116
139
130
111
132
123
111
126
118
112
127
121
108
115
109
95
61
54
45
68
61
53
168
164
140
215
216
172
220
221
178
143
141
116
115
102
98
119
99
99
143
121
116
208
185
178
161
145
139
135
125
120
108
98
98
138
128
105
188
187
105
191
191
100
166
159
110
131
118
109
142
128
126
144
134
117
139
130
113
131
123
115
135
131
120
124
119
110
83
79
66
94
92
54
189
192
116
232
236
145
247
247
175
158
151
118
83
67
79
133
111
134
145
119
137
160
133
151
109
86
110
72
56
87
56
43
66
152
146
100
239
251
90
239
255
59
226
233
101
146
140
97
136
122
126
148
139
126
140
133
116
139
132
124
152
145
139
141
133
133
115
108
103
112
111
71
198
201
131
237
239
171
240
238
200
149
140
140
67
51
82
95
77
108
108
92
110
114
98
112
97
81
102
86
69
103
68
52
81
121
115
81
209
218
88
217
229
75
192
196
99
138
130
103
141
129
132
143
137
131
136
133
123
137
133
124
167
161
156
158
151
151
139
132
136
101
96
90
107
103
92
132
127
122
130
123
133
105
96
118
121
110
123
143
133
132
144
136
126
144
137
122
140
132
123
138
128
129
119
110
110
108
102
81
132
128
89
136
130
109
127
116
125
133
122
127
143
137
114
140
139
122
138
138
128
133
133
123
173
170
163
171
169
158
163
163
151
153
151
149
133
129
140
118
113
131
120
115
132
139
134
146
159
154
154
160
155
147
156
152
139
154
150
135
155
151
139
153
148
141
149
143
141
144
137
136
136
129
128
135
126
137
140
131
147
142
135
137
139
137
117
137
138
123
137
139
129
132
134
123
171
171
163
169
170
158
169
171
156
167
169
156
164
165
156
160
161
154
159
160
155
158
158
153
155
154
150
156
153
150
154
151
148
154
152
148
155
152
149
154
151
148
151
148
148
151
148
149
150
148
139
150
150
127
149
150
121
144
144
124
140
138
132
136
139
130
133
138
126
131
135
123
