P3 24 24 255
19
26
21
25
34
27
34
45
34
53
64
52
71
82
70
78
89
77
72
83
71
42
53
41
33
43
32
39
46
35
36
43
32
35
40
30
25
29
21
33
37
32
78
80
79
140
143
142
203
205
204
117
120
117
33
36
32
22
25
20
13
16
10
20
23
16
26
30
22
23
28
19
20
25
29
27
32
33
36
44
36
47
55
44
54
62
51
50
58
47
51
59
49
48
55
45
50
56
49
40
44
41
32
36
29
49
51
40
56
58
46
104
103
98
172
168
172
223
221
223
248
248
244
142
143
138
27
28
23
22
23
18
19
19
14
18
19
14
22
23
18
22
23
18
18
23
26
23
29
30
26
33
27
33
40
32
39
46
38
35
42
34
33
40
32
34
41
33
35
41
36
35
39
37
24
28
24
45
46
39
132
133
125
175
174
169
198
195
194
206
204
202
210
211
206
145
146
141
34
35
30
17
18
13
19
20
15
20
21
16
29
29
24
32
33
28
14
19
22
20
25
26
25
31
28
24
31
26
22
29
24
23
29
24
25
32
27
23
29
24
22
28
25
24
28
27
18
21
20
51
51
50
151
151
148
134
133
128
112
109
101
128
127
120
157
158
153
162
163
158
40
41
36
14
15
10
17
18
13
22
23
18
29
30
25
34
35
30
30
35
38
32
37
39
30
36
35
30
36
34
30
36
34
24
30
28
23
29
27
27
33
31
26
31
29
19
23
23
27
30
32
107
107
111
147
147
148
113
112
106
101
99
86
107
107
95
152
153
147
160
161
155
37
38
33
13
14
9
16
17
12
19
20
15
20
21
16
16
17
12
35
42
44
34
41
43
32
38
38
37
43
42
41
47
45
34
40
37
24
30
28
24
30
29
25
30
30
16
19
21
68
70
73
138
137
143
104
103
105
99
98
92
105
104
88
102
102
88
114
115
109
72
73
69
15
16
13
15
15
11
16
17
13
20
21
17
17
18
13
12
14
9
28
36
40
30
37
41
35
40
42
40
45
42
40
46
39
39
44
36
30
35
31
18
22
27
39
40
47
76
75
77
117
114
115
118
116
114
85
82
78
95
93
83
94
93
79
75
74
65
61
61
59
30
30
29
15
15
14
17
17
16
16
16
15
18
18
17
17
19
15
16
20
14
18
19
31
26
27
37
34
36
41
33
35
35
31
34
30
29
32
29
21
23
25
59
60
69
126
125
135
129
126
127
100
96
94
103
99
95
107
104
97
98
95
86
85
83
73
67
66
59
46
46
45
25
25
25
18
18
18
20
20
20
18
18
18
18
19
18
33
36
33
27
32
26
41
36
35
32
28
27
29
28
29
23
23
27
19
18
22
13
12
17
41
41
48
129
127
138
134
132
139
97
94
92
81
77
72
89
86
81
92
89
83
85
82
76
85
82
75
92
91
87
55
55
55
27
27
27
27
27
27
22
22
22
24
24
24
32
32
32
43
46
42
31
36
30
94
91
71
98
95
76
84
83
74
48
47
45
19
17
20
25
23
29
105
103
109
126
124
129
96
93
93
84
81
74
78
75
67
75
72
64
69
66
61
51
48
44
81
78
74
163
161
160
145
144
144
65
65
65
37
37
37
29
29
29
37
37
37
40
40
39
38
41
38
38
43
37
63
63
52
104
104
89
116
115
99
93
91
80
71
68
65
94
90
93
123
119
121
103
100
96
83
81
71
80
78
66
80
78
67
84
81
73
66
63
57
31
27
24
74
70
69
167
165
165
216
216
216
151
151
151
52
52
52
35
35
35
51
51
51
47
47
47
51
54
50
55
60
54
28
40
28
44
54
37
83
85
60
99
92
79
97
84
85
102
86
87
93
80
71
100
90
76
94
87
71
80
73
59
86
80
68
96
90
80
78
72
65
60
55
50
93
89
86
123
125
122
161
167
165
173
178
179
97
99
104
71
72
77
100
99
102
110
109
110
119
123
120
101
108
103
66
91
49
61
83
38
78
89
44
110
107
83
113
97
92
98
76
67
98
76
56
104
85
65
103
88
73
90
77
64
91
80
67
100
91
79
97
89
79
106
100
91
112
108
100
108
111
104
113
123
119
135
143
145
124
129
136
132
133
141
150
149
154
140
139
139
134
138
136
122
131
127
140
169
87
133
161
79
131
157
81
113
128
73
116
118
80
131
124
86
120
105
67
111
90
68
109
88
76
103
88
74
101
88
73
105
93
80
104
95
83
110
103
92
114
107
98
107
106
98
105
110
106
110
113
115
124
125
132
165
165
172
187
186
190
192
192
190
188
191
188
173
178
174
168
199
87
166
199
88
162
197
97
126
156
71
120
142
66
161
172
96
164
162
96
154
139
102
139
119
102
111
94
78
102
86
69
109
94
79
106
95
80
109
99
87
111
103
92
106
101
92
105
103
98
99
97
99
112
110
115
162
160
166
179
179
179
173
174
169
177
179
174
184
186
182
170
200
83
171
201
85
170
202
95
158
191
90
156
190
85
167
196
85
172
189
90
170
171
109
160
149
118
136
119
99
109
92
73
108
91
74
107
91
76
113
100
87
114
103
90
111
101
92
93
85
80
71
64
65
91
86
90
96
94
97
108
109
107
134
136
128
130
132
125
141
141
137
176
205
91
174
203
89
172
199
91
166
197
90
164
202
84
160
201
71
164
195
76
155
170
89
129
127
83
128
113
89
113
97
80
101
87
72
106
94
78
118
108
91
112
104
87
82
74
59
55
46
37
65
57
53
79
72
74
34
29
32
22
21
20
83
86
79
125
127
119
126
126
120
149
182
69
150
182
69
159
189
78
161
193
85
156
195
82
152
193
70
156
190
75
155
175
91
106
109
60
70
60
38
87
78
72
98
96
91
94
100
80
94
102
69
88
95
62
75
80
50
58
60
35
69
65
52
76
67
65
32
23
27
15
10
15
64
64
66
121
123
120
121
123
117
113
147
50
110
143
46
121
152
57
132
164
73
128
163
69
127
165
59
135
167
62
129
151
71
101
107
59
69
62
42
96
91
85
101
105
97
89
102
72
88
104
57
85
99
52
80
90
53
65
71
44
67
66
51
71
64
61
31
23
27
15
10
15
53
53
57
110
113
119
121
123
131
87
120
43
74
108
29
73
107
29
66
99
27
64
95
23
81
113
28
99
128
39
82
107
34
74
86
39
79
75
55
93
91
82
98
106
88
84
100
59
74
93
38
53
69
21
29
42
8
40
47
25
67
68
56
68
62
60
31
25
27
13
11
12
24
29
26
79
85
85
112
118
119
64
99
28
53
89
15
70
110
32
77
112
45
55
84
23
59
85
16
80
107
32
81
109
44
72
89
46
88
88
67
106
107
94
98
109
85
61
81
37
41
62
11
26
44
7
12
26
2
15
25
7
62
64
54
65
63
60
25
22
22
11
12
9
7
15
6
23
34
21
63
75
58
76
114
36
72
112
30
80
125
35
99
139
62
88
118
55
58
83
19
55
81
12
52
82
22
56
77
35
78
81
56
101
105
87
83
96
72
47
67
28
32
54
14
25
41
19
21
35
21
22
33
17
60
65
55
62
61
58
26
26
25
16
20
14
12
22
11
11
23
13
17
29
19
86
122
47
85
121
45
92
131
49
100
137
57
102
134
60
96
127
51
100
132
52
98
132
54
88
115
53
80
92
55
92
103
74
67
82
53
37
55
24
32
52
23
28
47
28
27
41
28
30
41
27
65
72
60
68
73
64
36
41
32
24
31
20
22
31
19
19
29
19
25
35
27
62
90
34
69
97
40
85
114
51
83
112
47
73
103
36
74
104
36
81
111
43
90
120
50
87
111
54
85
99
65
99
112
84
71
85
58
40
55
29
36
53
27
33
52
26
32
48
26
30
42
25
54
66
49
63
75
58
35
47
30
26
38
21
25
37
20
25
37
20
29
41
23
