P3 24 24 255
21
21
22
22
22
24
23
24
23
25
25
23
29
28
30
36
36
40
50
49
57
66
65
74
82
82
90
52
53
60
7
7
9
1
1
2
6
5
10
73
71
82
97
97
111
93
93
106
94
94
108
92
92
106
84
84
99
77
77
92
66
66
81
48
48
60
24
24
31
4
4
7
62
62
66
62
61
66
62
62
64
65
65
66
71
70
74
83
82
88
94
93
102
95
93
103
93
93
103
82
82
91
28
27
31
0
0
0
18
17
20
80
79
89
95
94
107
92
92
104
93
93
105
89
89
102
83
85
99
84
86
99
81
83
97
80
80
95
73
72
85
43
43
51
90
89
94
93
92
97
93
92
98
94
93
100
99
98
104
97
96
101
97
96
102
99
97
104
97
93
101
97
93
101
63
62
66
14
14
14
46
45
49
88
87
96
91
90
101
96
95
106
96
95
106
91
91
103
87
88
100
91
92
104
87
88
100
84
83
96
85
84
97
82
80
93
88
87
93
92
91
96
89
87
95
87
85
95
89
87
96
89
88
95
90
89
96
93
92
98
93
92
99
95
94
101
83
83
86
36
36
36
40
39
43
83
81
90
92
90
99
91
89
97
89
87
95
90
88
97
90
90
99
76
75
85
76
75
85
90
88
98
86
84
94
85
82
95
89
87
95
89
88
96
89
88
96
83
82
91
82
80
92
78
76
90
80
77
89
83
82
93
80
86
94
84
91
98
91
92
95
49
49
49
29
28
32
73
71
79
92
90
96
89
87
92
88
86
91
88
86
92
74
73
80
33
32
39
30
29
36
83
81
88
93
90
97
92
89
96
90
90
96
84
83
90
88
86
93
82
80
88
80
77
88
76
73
87
80
77
87
80
80
88
79
85
94
78
89
96
86
91
95
66
67
69
30
29
34
54
53
59
85
82
88
84
82
90
83
83
89
74
74
78
42
41
46
22
20
26
50
48
54
83
82
90
89
85
94
92
89
94
88
88
92
87
86
91
87
86
92
84
83
90
81
80
87
79
79
85
83
83
86
81
79
84
81
82
90
83
91
100
81
91
97
73
75
81
35
34
40
38
39
44
74
73
82
80
78
91
71
73
81
45
46
52
22
22
29
43
43
51
78
77
86
81
80
90
84
79
89
83
79
87
91
88
92
89
87
93
86
86
91
83
86
89
80
83
87
79
82
86
82
82
87
87
83
90
82
80
89
71
76
86
79
88
96
75
80
87
40
42
47
32
36
42
73
78
92
83
87
101
50
53
61
22
23
32
38
38
50
75
75
86
80
79
89
82
79
86
79
74
81
77
75
83
89
86
91
87
86
91
86
84
91
83
81
88
81
80
87
81
79
86
83
82
90
68
65
74
42
39
50
21
24
34
41
50
60
84
92
101
61
65
70
32
36
43
69
77
93
60
67
79
21
26
34
31
30
39
76
70
80
81
76
84
88
84
89
86
83
88
75
74
81
70
72
82
84
84
88
90
94
97
90
94
101
76
78
88
72
74
84
74
76
86
76
81
90
76
78
88
68
69
79
61
66
76
49
58
71
71
82
91
83
90
94
35
38
44
44
49
60
34
40
46
23
29
35
60
63
75
77
80
93
76
79
88
80
84
89
80
86
95
74
84
94
75
83
94
81
84
88
105
113
116
99
111
118
74
87
101
73
87
101
74
89
101
76
90
101
86
96
107
91
100
110
86
97
107
60
71
85
46
59
69
73
81
87
39
39
44
32
32
40
33
38
44
60
68
77
78
91
107
75
91
111
78
95
110
78
95
107
76
92
108
77
92
107
83
93
105
87
89
94
116
125
131
81
93
103
69
83
101
73
91
111
74
96
111
76
98
112
77
97
112
76
94
108
69
86
99
49
64
78
43
58
73
59
68
78
33
33
39
32
31
40
61
71
85
72
88
105
71
90
108
72
93
111
76
96
112
79
97
113
76
93
109
80
89
104
88
90
101
106
106
110
116
121
126
69
76
83
57
65
76
66
77
92
68
82
96
71
87
102
73
90
106
69
86
103
62
78
95
48
59
76
44
58
75
62
76
90
37
44
52
31
36
43
61
76
89
64
85
102
66
88
104
75
94
108
80
93
107
79
88
101
78
84
94
75
77
86
86
85
92
126
123
125
94
94
99
84
85
90
74
75
79
64
67
74
44
48
57
66
72
84
69
77
92
64
77
94
53
67
86
42
50
69
39
49
66
69
86
101
80
95
107
65
77
85
67
86
99
69
90
105
76
95
107
82
94
105
73
76
86
51
51
59
79
75
78
79
75
78
79
76
80
115
109
109
89
84
88
92
88
94
86
84
88
63
61
63
46
44
48
77
76
81
53
55
64
41
50
63
49
61
78
33
38
53
31
36
50
41
53
69
84
103
118
94
113
126
82
101
115
66
79
90
51
60
69
67
69
78
69
63
69
55
52
53
74
68
69
68
63
65
67
64
66
92
84
83
83
76
79
71
66
73
68
67
73
61
60
58
66
64
62
87
83
82
35
35
38
13
19
29
44
55
69
24
28
40
25
26
35
24
30
44
64
80
99
93
115
133
90
105
120
52
56
64
73
75
81
88
83
91
78
66
70
59
56
53
71
67
68
71
68
71
71
67
68
88
83
83
74
72
75
70
69
73
73
72
75
68
68
68
70
69
69
80
79
79
53
57
63
27
30
36
46
51
63
21
22
34
20
21
29
24
28
39
68
78
95
87
104
121
88
93
106
62
61
71
115
124
131
113
113
121
75
63
69
65
62
65
71
68
70
76
71
73
76
70
72
82
75
77
64
62
65
72
70
71
91
86
85
90
85
84
88
84
83
82
83
85
76
84
91
42
41
45
52
51
59
20
21
33
18
21
30
42
48
58
86
96
111
90
105
119
78
79
90
56
52
62
99
111
120
126
130
138
77
66
72
75
69
71
72
68
69
73
67
69
75
69
71
85
76
79
83
76
79
82
74
74
92
82
79
98
88
85
92
82
79
81
80
83
75
81
90
57
53
54
69
64
66
26
27
38
14
18
30
59
67
79
108
120
134
113
127
139
82
81
90
61
53
61
83
91
101
126
129
139
81
71
74
82
73
72
75
69
70
72
66
68
72
66
68
90
82
85
93
86
88
91
83
82
95
84
81
95
84
81
95
84
81
85
81
84
82
84
92
77
71
70
79
74
73
28
32
41
12
19
33
62
72
86
130
143
155
127
140
150
84
81
88
72
60
67
74
75
84
118
119
127
74
66
68
81
73
71
79
73
73
76
70
72
76
70
72
85
81
83
84
81
80
88
81
80
92
82
82
90
80
80
88
78
77
88
80
82
89
87
92
82
76
74
77
74
73
35
41
50
55
64
80
114
127
142
147
162
173
122
134
143
83
78
83
82
67
73
77
73
80
95
91
97
73
67
68
73
69
68
71
66
68
77
71
73
67
61
63
77
77
78
81
81
80
82
78
77
84
76
78
91
82
84
84
72
75
82
72
72
86
80
80
82
75
74
73
69
69
41
45
53
84
96
110
137
154
162
151
164
175
117
124
135
83
75
77
86
72
73
80
72
73
77
69
69
76
69
68
74
68
68
72
64
67
69
62
64
29
26
27
78
75
75
82
80
77
81
77
74
83
76
75
85
76
76
82
71
72
83
72
72
88
78
77
89
79
79
78
70
70
46
46
53
68
80
93
111
129
134
143
154
165
108
110
120
84
74
74
85
73
72
87
77
76
87
75
74
79
69
69
79
70
71
75
66
68
39
32
34
3
3
3
90
81
78
89
80
77
84
77
73
84
78
75
86
79
76
81
73
70
86
75
75
94
82
82
99
85
84
95
82
81
56
53
58
43
53
65
84
101
106
116
126
136
92
92
100
85
75
76
84
72
71
91
78
77
96
81
81
83
71
71
79
70
71
45
39
41
6
3
4
1
1
1
