P3 24 24 255
117
85
54
122
93
63
122
90
76
111
80
67
128
90
66
132
92
72
157
115
98
140
101
85
121
78
58
120
73
51
119
73
51
140
87
68
167
101
87
173
81
74
170
72
70
159
65
62
160
65
62
158
62
60
154
60
55
162
67
60
160
79
65
187
136
100
204
158
104
202
154
101
161
130
90
154
121
97
150
115
110
95
72
68
91
62
57
103
73
69
110
84
79
104
77
71
103
75
63
113
75
57
110
68
48
120
73
56
161
100
83
164
93
82
158
78
78
157
69
66
160
69
65
160
70
67
154
65
62
163
69
64
169
92
76
188
138
103
202
154
107
200
153
101
178
141
103
134
104
83
118
89
83
114
87
84
97
69
66
94
64
61
94
67
63
110
84
79
112
87
80
102
76
69
81
58
51
74
51
44
103
68
61
102
71
66
101
70
68
140
82
79
164
76
74
170
76
74
172
76
74
171
74
71
157
83
68
182
128
97
202
153
110
201
153
102
156
120
92
104
75
64
93
65
61
113
83
80
100
73
68
96
65
62
116
85
81
128
101
97
128
100
97
121
94
91
113
86
84
110
80
78
111
82
78
112
86
81
112
90
88
102
76
72
104
61
58
140
67
65
162
65
60
159
58
51
145
69
53
178
124
92
207
159
112
205
157
107
120
92
78
91
63
59
108
77
70
129
98
90
123
94
90
117
84
82
110
78
76
97
71
66
83
56
52
103
74
70
116
87
83
101
74
71
93
66
62
99
71
68
80
59
55
93
71
69
87
66
64
100
68
64
112
61
55
137
49
45
122
39
31
134
84
59
206
161
113
209
161
111
103
77
71
109
84
80
103
76
69
94
71
61
115
87
79
120
89
84
124
94
91
108
80
73
104
75
67
149
111
102
139
105
95
114
88
82
101
76
73
86
62
59
88
61
58
123
92
90
108
79
76
93
68
63
74
52
46
104
50
47
124
44
37
120
59
41
190
137
102
215
167
120
121
87
83
143
111
104
131
101
92
73
54
45
71
52
42
121
92
84
145
113
108
99
71
67
143
108
97
197
152
140
164
125
113
113
81
76
92
65
62
107
79
76
102
76
72
92
65
62
99
71
67
91
65
60
79
52
48
87
60
57
117
65
52
144
64
48
146
85
62
189
135
96
142
106
94
147
107
101
155
114
111
98
66
66
82
58
56
137
104
100
150
114
109
114
87
85
105
78
70
146
111
99
186
145
137
152
115
109
92
62
59
97
68
66
95
71
67
94
67
64
107
79
76
94
67
63
78
55
51
79
57
55
113
73
64
167
88
67
151
92
55
181
133
85
152
120
92
136
99
85
134
93
87
139
104
103
124
94
95
114
81
82
147
108
106
163
127
127
93
68
69
78
52
48
150
115
110
160
122
113
83
53
49
79
52
49
105
78
75
110
83
79
108
80
77
99
70
68
80
55
52
81
57
53
94
65
61
166
118
78
218
179
107
224
193
121
150
130
89
124
101
70
117
77
60
141
100
86
149
116
105
97
68
66
121
90
87
157
127
119
113
86
82
69
49
44
90
62
55
139
102
93
92
64
58
78
50
47
125
96
93
99
73
69
94
68
64
110
82
79
106
78
73
82
57
53
82
59
57
98
74
58
138
111
70
215
184
113
135
111
76
85
67
45
78
49
31
110
69
50
141
95
80
117
80
70
128
95
86
167
135
122
119
91
85
99
73
67
107
78
72
126
96
87
120
94
87
120
92
87
91
68
63
98
69
67
122
92
89
98
70
67
104
75
71
108
81
77
109
84
81
90
65
62
91
65
57
179
148
93
119
92
64
63
44
30
66
37
24
81
45
31
78
43
30
98
59
42
124
82
68
162
123
105
124
93
86
121
88
81
153
118
111
127
101
94
101
77
73
143
114
107
89
66
59
96
73
69
100
76
71
84
61
57
92
65
60
103
75
72
102
77
75
84
59
56
86
60
59
134
104
76
86
61
41
48
28
21
64
35
26
81
46
33
66
37
22
77
42
29
111
67
50
124
83
63
126
91
78
128
96
85
133
104
94
123
101
91
86
63
59
125
96
89
145
115
105
119
93
87
74
54
48
73
53
47
111
80
78
101
73
70
94
71
68
91
64
62
94
68
67
98
71
60
57
34
22
39
22
15
55
31
22
74
43
27
90
53
36
117
76
58
150
105
83
144
101
84
113
81
68
130
97
83
138
109
96
148
119
106
107
81
72
102
80
74
119
94
87
166
133
124
94
74
70
101
81
75
108
83
79
99
76
71
82
62
57
89
66
64
94
71
70
102
77
70
44
25
15
40
23
15
57
30
22
59
32
21
79
49
37
147
102
84
159
113
92
141
106
91
103
78
71
117
92
83
169
135
112
105
79
68
76
56
51
96
74
67
74
54
50
105
81
79
166
136
130
158
128
126
102
79
74
128
104
100
144
119
115
121
95
88
96
72
67
86
61
56
66
36
26
48
29
24
52
27
20
38
22
12
31
18
10
93
59
46
163
115
91
143
107
87
112
85
75
135
106
97
187
151
127
157
124
108
120
94
85
120
94
83
90
63
61
79
56
55
130
102
95
146
117
111
157
128
119
160
131
123
149
123
114
151
122
109
115
90
84
114
92
87
129
92
77
88
64
55
77
53
42
44
26
15
35
19
11
44
24
14
130
88
66
167
123
100
125
92
79
124
94
83
129
99
94
147
115
103
155
123
107
148
116
107
114
84
81
83
59
57
93
70
65
115
88
80
113
87
80
107
80
75
140
114
106
134
108
96
138
113
106
123
101
95
168
119
90
154
113
88
134
102
87
71
41
28
49
26
19
32
15
11
54
29
21
148
101
79
150
105
85
118
86
74
118
88
83
128
98
89
158
129
115
131
102
96
114
84
81
108
79
74
82
60
59
102
73
69
84
61
59
86
63
60
86
63
55
91
66
58
110
87
80
110
89
76
177
103
63
177
115
81
175
124
96
152
91
61
108
63
43
49
27
18
28
13
10
64
36
26
106
65
50
111
68
52
117
81
71
121
90
84
132
102
94
149
122
111
113
85
80
139
104
90
117
88
77
122
88
81
111
80
74
100
73
66
93
65
54
78
54
44
73
55
49
124
98
80
177
97
57
179
101
63
170
102
70
176
101
66
171
103
68
127
72
47
53
23
15
30
14
10
41
19
14
73
43
35
139
103
89
124
90
83
115
82
73
143
115
105
157
125
109
147
109
91
112
77
68
135
98
89
125
89
77
104
71
59
83
54
40
84
59
48
110
86
73
179
150
97
196
119
81
181
106
73
147
85
60
181
103
71
196
114
83
188
107
74
125
72
53
81
56
44
55
27
18
86
53
48
136
99
85
122
88
80
117
84
78
139
107
95
140
100
85
130
85
72
137
90
78
116
70
56
93
54
37
82
46
33
100
69
40
120
90
73
159
128
89
231
204
115
195
120
83
193
123
92
185
119
90
205
126
91
207
121
88
200
119
90
167
105
81
149
105
88
148
114
97
117
84
72
103
68
61
118
81
75
120
86
79
152
110
91
122
75
59
117
59
44
148
85
54
139
89
48
122
76
39
140
97
55
194
159
89
176
140
103
201
169
104
237
211
115
168
93
60
195
118
87
199
126
91
210
131
95
223
142
108
228
144
115
194
119
95
172
111
94
165
127
109
126
90
80
91
51
48
118
73
64
145
100
84
130
84
68
117
63
48
149
76
57
178
105
62
214
168
94
225
198
111
237
207
115
239
203
118
208
166
104
225
195
113
235
208
116
195
116
83
207
135
97
212
141
103
219
139
105
221
138
110
218
118
98
195
108
84
179
129
104
151
108
93
130
89
76
107
68
59
119
70
61
104
57
45
90
45
33
180
96
80
239
142
118
231
137
110
223
140
101
227
178
115
234
203
119
234
207
115
229
197
110
231
201
108
232
200
110
