P3 24 24 255
60
102
51
52
96
39
74
108
62
72
98
60
58
88
47
56
92
45
62
94
50
55
86
41
57
82
42
113
124
98
128
122
114
103
92
86
120
111
101
134
125
115
139
130
120
163
154
143
183
174
164
187
179
173
194
194
186
124
138
120
47
79
41
51
95
40
50
94
36
42
82
27
63
104
53
49
93
36
57
91
45
73
101
62
68
98
57
62
97
51
64
95
51
57
88
42
54
80
37
106
117
89
119
110
103
103
90
85
117
111
98
126
122
109
138
135
121
151
145
133
171
163
153
192
183
177
206
205
197
169
182
165
68
100
63
60
105
50
58
103
42
50
92
30
77
119
65
56
100
48
44
82
35
50
83
40
57
90
46
58
93
46
60
96
46
61
93
46
77
98
60
111
117
95
114
104
98
112
100
94
123
117
105
132
128
117
148
144
134
153
147
139
159
152
146
175
170
164
201
200
195
200
208
198
126
150
124
77
116
69
62
106
48
55
101
37
52
94
38
52
96
46
55
96
47
53
92
43
57
93
45
58
94
45
70
110
56
67
101
52
84
103
70
116
119
102
119
110
104
124
113
107
132
126
116
141
134
127
162
155
151
161
153
151
147
141
138
128
129
123
145
144
141
194
196
191
188
201
183
115
142
106
62
100
49
51
96
34
58
99
44
49
94
40
49
91
37
58
97
45
77
114
63
79
115
63
90
131
75
76
111
62
85
106
72
113
118
99
109
101
95
131
123
117
145
140
131
145
140
133
165
160
156
165
159
157
142
138
137
94
97
92
80
79
77
167
163
160
209
210
198
163
174
150
89
114
73
65
102
46
64
105
51
54
99
43
59
101
46
73
112
58
84
121
67
82
120
66
85
129
72
86
124
74
104
126
91
114
120
102
101
95
88
130
124
118
155
153
145
148
145
140
165
161
158
162
158
158
136
134
135
96
100
99
103
101
101
164
154
155
206
196
192
196
192
181
141
152
125
92
119
73
85
126
74
46
90
37
75
117
65
93
132
81
91
128
77
81
119
67
75
120
63
82
122
71
101
126
91
117
125
106
109
105
97
131
126
121
162
162
156
157
156
151
165
164
162
158
156
158
136
136
139
124
129
131
152
150
152
164
152
153
202
188
189
222
211
212
173
172
161
124
138
109
94
134
87
81
124
76
85
126
79
82
120
74
90
126
81
84
120
74
77
123
67
78
119
68
96
122
86
120
130
110
121
120
111
137
134
129
168
169
163
168
168
165
168
168
168
158
157
160
145
146
151
141
146
150
165
163
165
161
151
151
189
177
180
235
226
235
209
202
207
163
167
156
102
142
98
94
137
95
79
119
79
89
124
86
92
126
89
77
112
71
67
114
59
69
112
60
89
117
80
117
129
109
133
133
124
145
144
140
173
174
171
173
173
173
175
175
177
167
166
172
158
158
165
147
150
157
170
168
170
160
154
154
154
149
152
210
207
218
225
215
231
183
179
182
105
145
101
79
122
78
125
155
127
176
197
180
138
164
142
109
144
112
71
114
66
71
112
64
82
112
74
110
125
102
140
140
132
155
150
153
148
146
154
123
120
130
139
136
148
174
170
185
180
177
190
154
154
156
169
166
171
160
155
156
150
147
145
202
200
208
230
224
237
187
183
188
122
162
117
117
160
114
193
215
195
228
238
234
191
212
199
153
188
158
79
118
76
85
124
79
79
111
72
105
123
98
144
144
137
132
125
134
98
92
108
99
92
111
102
94
116
142
134
159
189
182
201
167
163
165
175
169
180
158
153
158
173
170
162
215
211
214
242
240
246
206
205
207
123
162
119
150
193
151
213
235
214
237
249
239
168
191
169
95
130
93
80
118
75
86
125
80
74
106
67
104
122
97
121
121
115
88
82
90
125
120
135
162
157
174
154
149
168
124
118
140
152
147
165
170
164
174
170
162
182
153
148
156
168
165
157
190
186
187
239
238
245
222
221
227
108
149
104
139
181
141
200
226
201
196
215
194
118
144
111
69
105
60
94
132
88
70
109
64
60
92
53
94
112
87
85
85
78
99
95
100
174
172
182
178
175
188
189
186
201
170
167
184
122
118
135
148
142
159
149
141
167
145
139
150
157
154
144
155
152
149
216
215
224
226
225
235
122
164
115
133
175
131
147
181
144
111
140
104
91
122
79
74
110
62
72
110
65
48
87
42
45
77
38
82
100
75
89
89
83
135
132
135
181
181
186
174
173
180
187
186
196
201
199
212
126
123
136
124
118
133
138
130
155
151
145
155
149
147
135
137
134
129
189
189
197
230
230
239
116
159
103
144
188
135
119
160
109
71
108
61
62
97
50
69
104
58
69
106
62
53
92
47
53
86
46
92
110
85
107
107
100
153
150
151
176
178
178
164
165
168
185
186
192
211
212
221
148
147
155
103
99
105
140
133
149
180
175
178
143
141
126
128
125
119
161
162
168
220
221
227
99
143
81
121
167
103
106
151
91
79
121
66
62
99
52
53
86
45
71
108
66
71
110
65
68
101
61
120
138
113
103
104
96
139
137
136
163
167
164
144
148
148
162
166
168
205
208
213
166
168
170
117
115
109
147
143
147
179
176
173
139
138
121
122
119
113
136
138
142
201
203
203
104
151
88
120
171
101
138
186
123
152
193
141
97
135
91
77
111
75
111
147
109
71
111
67
62
99
53
115
140
102
98
108
83
120
123
114
132
137
135
122
126
126
123
127
129
173
177
181
171
174
174
125
125
116
134
132
130
157
156
150
139
138
126
115
114
109
123
125
126
184
186
185
125
175
115
138
194
125
153
204
142
164
208
158
110
150
106
72
108
71
93
130
92
49
90
44
49
91
37
88
122
69
99
121
75
105
115
96
93
97
99
99
103
106
92
96
99
112
116
120
153
156
158
102
102
99
104
104
102
141
141
138
141
141
138
109
109
106
116
116
116
172
172
173
125
175
119
137
191
129
140
191
132
156
203
149
146
189
139
79
120
73
50
90
43
40
84
30
44
88
30
77
114
59
106
130
85
78
89
71
63
67
69
75
79
81
71
75
77
55
60
61
96
99
100
83
84
82
92
93
89
133
133
130
147
147
143
109
110
106
110
110
111
162
161
165
114
162
109
115
164
111
131
180
125
168
214
159
165
211
153
109
154
95
53
97
37
43
90
27
49
96
33
72
111
58
91
117
78
51
62
46
45
48
48
45
49
49
46
50
49
28
32
32
61
65
63
85
87
82
94
95
90
123
124
118
147
148
142
114
115
109
106
106
106
156
155
160
108
154
103
118
164
115
153
200
146
159
207
147
153
204
138
161
211
143
87
135
67
41
91
22
52
101
35
75
115
62
77
104
67
44
56
41
35
39
38
34
38
37
35
39
38
24
29
28
68
72
69
125
127
120
110
111
104
113
114
107
143
144
137
120
121
114
102
102
99
144
144
144
90
135
83
113
156
104
167
213
157
172
222
159
168
220
153
177
230
160
109
160
90
58
110
39
65
116
47
75
118
61
80
110
69
57
71
53
40
44
41
37
42
39
38
43
39
35
40
37
91
95
90
150
152
142
120
121
111
108
110
99
128
130
119
115
116
106
93
95
87
103
104
98
86
130
76
136
177
120
186
231
172
175
224
161
175
228
162
153
208
141
116
168
101
98
152
82
68
122
51
64
109
48
75
107
60
78
93
70
59
64
58
43
48
43
44
49
44
53
58
52
107
111
105
131
133
122
99
101
89
85
87
75
91
93
80
89
91
79
86
88
74
91
93
79
89
135
74
138
187
118
164
214
146
157
210
143
168
222
157
163
217
153
144
197
131
130
184
116
93
145
79
77
120
62
77
109
61
84
99
75
76
80
73
55
59
52
56
60
53
68
72
65
90
94
85
90
93
80
71
73
60
73
75
62
81
83
70
82
84
71
87
90
74
96
99
81
