P3 24 24 255
80
16
22
68
9
17
65
15
22
74
42
41
76
58
49
87
78
62
87
76
57
105
91
68
129
114
89
123
107
91
92
76
71
59
45
43
61
50
43
77
68
54
97
86
72
118
106
90
128
113
93
150
132
108
157
136
113
125
100
83
130
113
97
84
73
59
51
34
26
87
58
52
74
17
25
68
12
21
59
12
19
68
36
37
65
47
42
50
40
32
92
80
70
118
105
91
115
104
83
135
122
105
128
113
100
80
66
55
64
53
40
77
69
54
83
76
64
101
90
76
121
103
83
150
127
104
167
144
124
138
117
103
101
88
80
26
16
13
53
37
34
97
71
68
46
9
14
51
10
16
49
11
15
67
40
41
77
61
58
30
19
17
34
24
23
105
94
89
113
103
88
121
109
90
126
111
89
91
76
54
76
64
44
80
72
55
78
72
59
93
80
64
116
94
71
149
121
98
158
134
115
115
98
87
40
30
28
13
4
6
70
54
53
110
86
84
27
6
8
31
5
7
41
14
16
75
55
55
87
75
71
51
43
38
17
10
5
59
49
40
106
91
71
125
105
81
158
135
108
156
134
107
167
147
124
177
160
139
181
166
143
179
159
133
179
153
124
181
154
125
141
119
97
75
60
45
32
22
14
56
46
40
95
79
71
114
92
84
11
6
6
15
5
5
36
20
20
67
54
53
78
68
65
73
65
59
54
48
40
59
50
38
131
111
90
155
130
105
174
146
118
200
172
144
196
171
146
202
181
157
206
186
157
205
182
150
181
156
124
172
148
119
164
145
122
89
75
58
70
60
45
99
87
72
99
83
67
90
71
57
9
13
14
13
12
12
32
24
25
53
42
42
61
49
47
76
64
58
73
64
55
95
85
73
157
139
120
114
91
69
123
97
73
162
137
112
150
127
105
139
120
100
136
117
91
152
132
103
121
101
74
100
81
57
171
155
136
137
124
107
87
74
56
106
91
71
94
77
58
83
65
50
6
8
13
22
22
25
42
37
38
50
38
39
62
45
44
67
49
44
54
39
29
112
100
88
129
116
104
48
32
18
94
75
58
128
110
93
112
97
82
102
89
76
97
84
68
116
104
86
93
82
66
42
29
16
105
91
78
139
123
110
74
57
39
77
60
38
92
74
54
99
81
67
23
22
29
23
21
26
35
31
34
47
36
38
57
40
39
55
37
33
38
22
14
73
61
50
73
63
53
47
36
24
107
91
78
120
104
93
94
84
75
79
73
68
86
78
71
104
95
87
104
95
88
51
41
34
63
50
41
95
79
69
77
59
43
87
70
52
88
73
61
72
60
56
35
32
41
43
41
45
52
49
52
63
57
58
68
60
58
64
55
50
45
35
28
80
71
60
131
121
107
118
104
88
136
119
104
111
95
85
68
58
54
46
42
42
67
58
54
102
90
83
129
118
110
107
95
86
106
93
82
96
82
69
83
68
53
108
93
82
63
55
56
21
21
33
40
38
47
67
65
70
82
81
83
90
88
87
94
90
87
82
77
70
62
56
47
152
145
133
198
188
172
151
138
121
130
115
99
106
93
80
66
57
50
36
31
27
65
58
45
119
110
92
142
132
113
156
146
126
180
172
149
169
160
136
111
99
81
91
78
71
36
31
35
9
11
25
40
40
51
63
63
69
80
79
82
90
88
89
95
92
89
89
85
80
94
89
81
160
154
143
142
134
120
127
118
103
137
127
113
128
118
105
117
109
98
88
81
72
101
93
80
135
128
111
129
122
104
118
111
91
146
139
117
183
176
153
132
121
108
63
52
51
22
18
23
5
8
20
15
17
29
31
32
42
50
50
58
58
57
63
55
54
57
57
54
54
81
77
74
79
73
68
63
56
48
74
67
59
88
81
73
109
103
94
126
118
107
134
125
113
124
114
111
102
92
92
71
62
60
78
69
65
72
63
58
82
73
67
93
83
82
42
33
38
10
7
14
3
7
15
5
8
23
12
15
29
25
26
42
26
25
39
23
21
32
24
22
29
27
23
28
21
16
19
23
16
18
39
35
36
30
27
29
66
62
60
121
112
104
162
150
139
126
115
118
59
50
58
46
38
45
64
56
61
34
26
30
30
23
25
48
39
46
31
22
33
8
7
15
3
8
14
4
9
25
11
15
33
24
25
47
25
26
46
32
30
48
32
30
44
26
23
36
15
10
20
14
7
16
24
20
30
16
15
24
37
34
37
123
113
108
169
154
145
107
97
99
41
35
41
45
39
43
46
41
42
27
22
21
28
22
21
39
30
38
23
15
29
7
6
15
4
9
13
7
13
30
8
14
31
13
18
37
20
23
42
34
35
54
33
32
50
22
21
39
26
24
38
33
29
41
23
20
38
7
8
22
31
28
28
118
108
97
163
146
135
92
84
81
36
33
38
37
36
39
58
56
51
68
62
53
64
54
51
34
23
29
13
5
15
8
5
13
5
5
12
4
11
26
5
11
25
9
15
30
9
14
30
15
18
34
18
18
36
15
14
32
21
20
34
25
23
35
19
17
35
10
8
22
47
43
39
131
120
105
165
147
135
115
102
97
48
41
45
38
35
40
52
50
46
63
59
49
65
55
56
27
19
25
9
6
11
8
7
11
4
6
10
0
7
18
1
8
19
6
12
25
4
9
22
14
17
31
23
23
38
12
11
27
12
11
23
10
9
19
10
7
23
18
13
23
92
85
76
163
150
133
155
137
123
160
143
133
96
81
82
44
35
41
41
37
35
50
46
40
49
41
44
17
13
21
6
8
13
6
8
12
5
8
11
1
8
18
1
8
17
2
8
19
1
7
17
14
18
29
25
26
38
11
11
23
11
11
21
11
10
18
8
4
16
29
20
24
126
115
101
180
165
145
148
130
114
170
150
135
130
111
107
56
42
47
44
36
35
56
49
44
58
49
49
22
16
27
12
11
25
11
9
20
8
5
13
6
12
27
3
9
19
1
8
15
1
8
15
4
9
16
7
9
17
6
6
14
6
7
14
9
9
15
11
5
14
48
36
35
155
140
121
182
166
143
161
143
126
181
163
143
142
124
114
64
50
51
43
32
28
73
61
50
99
85
74
52
39
41
27
18
26
31
19
23
41
25
25
8
11
33
3
8
21
1
9
12
2
9
12
3
7
11
4
6
11
6
6
11
5
7
11
12
12
17
15
7
14
68
53
49
188
170
148
201
185
159
181
165
146
200
185
162
155
140
126
73
59
56
49
36
26
80
65
44
120
100
78
110
91
75
105
88
75
117
97
80
127
100
77
6
10
31
3
7
21
3
6
12
3
7
12
4
7
11
5
7
9
6
7
8
7
8
10
18
14
21
30
21
24
93
78
68
200
183
162
187
172
149
165
152
134
199
188
167
166
153
136
83
70
59
61
46
32
83
66
44
108
88
63
143
120
97
181
156
131
177
148
120
155
122
89
5
11
27
4
7
21
5
5
16
5
5
15
6
6
13
5
6
10
6
7
9
9
8
13
15
10
19
40
31
33
125
112
103
163
149
135
103
91
79
80
71
62
118
109
97
141
131
117
105
94
79
75
62
47
80
66
48
90
75
54
108
87
64
147
119
96
153
124
98
143
110
83
3
9
23
5
8
22
8
7
23
12
12
26
12
13
24
7
8
18
6
7
16
7
8
18
7
7
18
43
39
45
94
86
84
65
55
52
44
35
36
34
28
33
39
34
33
48
41
36
79
71
62
72
64
49
69
59
41
71
60
40
67
52
32
100
82
62
133
112
91
134
109
86
2
8
20
4
8
22
8
9
26
14
15
32
13
15
31
8
10
26
7
10
25
10
12
28
10
13
27
37
37
45
49
45
47
15
9
11
13
7
16
10
7
21
12
8
15
16
12
12
57
51
44
68
62
48
62
54
38
57
48
32
43
33
19
65
55
41
89
76
61
93
77
59
