P3 24 24 255
138
137
143
139
138
143
134
132
139
124
121
126
128
124
127
137
133
134
140
139
141
143
138
140
128
118
121
104
89
92
91
74
77
122
110
114
143
136
140
146
144
148
145
143
148
145
142
148
143
140
148
138
136
145
137
134
144
133
130
139
129
124
134
124
118
129
128
122
132
130
124
134
140
141
146
142
141
146
139
134
140
114
103
108
111
98
100
121
110
110
136
133
134
139
133
136
120
109
113
86
70
74
53
35
39
90
75
79
126
116
120
148
144
146
146
144
148
148
144
150
148
143
150
144
140
148
142
138
146
138
133
141
132
126
135
126
119
129
128
122
131
132
126
136
140
141
147
141
140
145
138
133
140
109
96
101
90
71
73
88
67
68
115
98
99
128
112
113
115
97
99
82
63
66
42
28
30
60
46
48
94
78
82
127
112
116
127
114
117
131
114
119
135
116
121
138
119
123
140
122
126
138
122
126
135
120
125
133
119
124
132
122
128
135
126
133
141
141
148
139
139
145
137
134
141
123
112
117
96
76
79
77
48
50
90
58
60
90
60
61
83
54
55
68
42
43
45
29
28
46
30
32
62
41
45
87
57
60
89
58
57
101
62
59
112
66
63
118
71
66
121
75
71
122
79
75
123
83
79
126
88
85
128
94
92
130
101
101
141
141
148
140
140
146
140
140
146
142
133
137
122
102
105
94
65
66
77
45
45
79
44
44
85
45
46
89
45
48
78
43
43
65
36
37
65
36
37
76
42
41
77
41
35
90
46
39
104
53
46
113
58
52
109
55
50
104
53
47
99
50
44
96
47
42
104
54
49
112
62
59
143
144
151
138
138
145
137
138
145
145
138
143
133
112
115
110
77
79
90
52
52
94
54
54
99
53
53
101
49
51
96
51
49
93
49
48
90
46
45
87
43
42
79
40
39
83
42
41
91
46
45
101
53
48
97
50
46
91
47
42
85
43
39
79
40
36
78
38
35
84
40
39
155
159
168
142
145
155
135
135
148
142
136
144
129
107
113
111
73
76
100
62
60
97
60
57
97
56
55
97
50
51
90
48
46
98
51
49
100
51
49
94
47
46
82
42
42
73
38
39
73
38
39
81
42
41
80
41
40
77
39
38
75
38
37
72
37
36
69
34
36
71
35
37
147
152
164
138
140
153
142
139
152
134
119
130
117
90
97
98
62
67
87
52
55
86
53
55
85
50
53
84
47
50
87
51
54
92
53
57
92
51
52
86
44
42
75
41
39
59
34
33
49
30
30
52
31
31
59
36
36
61
36
36
62
34
34
62
33
33
60
31
34
60
32
34
120
116
129
110
102
115
109
95
105
101
73
80
89
58
61
79
47
48
72
41
43
76
46
51
66
43
49
51
35
43
52
35
45
59
40
48
72
45
49
87
48
48
80
40
40
65
34
36
49
28
32
35
22
26
37
23
27
43
27
29
49
30
31
52
31
32
52
30
32
54
30
33
142
112
124
132
103
114
126
96
102
106
70
74
89
55
54
77
47
44
75
45
45
69
42
47
54
37
45
38
33
42
43
34
45
63
43
51
81
49
53
91
50
50
81
41
41
67
36
38
51
30
35
36
22
30
31
20
27
32
21
27
37
24
28
43
27
30
47
28
32
51
29
34
184
142
149
178
140
146
170
133
138
120
84
87
91
56
58
79
44
45
81
46
48
72
42
47
61
39
46
53
38
46
63
43
50
84
52
54
93
54
52
89
47
44
76
39
38
65
35
36
52
31
34
38
24
30
28
20
27
27
20
27
31
22
29
39
25
30
43
27
32
53
31
37
213
196
200
209
192
196
194
173
177
119
92
95
87
56
58
81
46
48
85
47
49
86
49
52
81
49
52
75
48
52
81
51
55
91
54
53
94
53
49
88
46
42
75
38
37
62
34
36
51
31
35
40
28
32
29
22
27
26
20
26
32
23
28
43
28
31
56
35
38
70
43
46
230
231
235
213
209
213
168
155
159
99
77
80
76
48
50
79
46
47
87
51
51
95
55
55
94
56
55
87
53
53
86
50
52
92
52
50
94
52
47
89
47
43
73
39
38
60
34
36
50
31
35
44
28
32
35
24
30
34
23
28
40
26
30
57
35
38
77
46
48
88
52
53
227
227
232
196
188
193
125
103
108
88
59
62
77
44
46
82
47
48
93
57
56
97
59
58
96
59
57
91
56
54
89
52
52
93
54
51
93
52
49
86
47
44
72
40
39
58
34
36
61
42
46
83
68
73
86
73
78
71
55
59
62
39
42
78
46
48
89
53
53
93
54
54
219
215
221
181
166
172
107
76
82
89
57
60
84
51
54
87
53
56
91
59
61
90
59
62
91
60
62
94
61
62
94
59
59
94
55
53
92
52
50
87
49
47
72
40
40
63
40
43
91
75
79
161
152
157
184
175
179
150
134
137
106
81
82
90
54
53
93
55
54
94
55
54
202
196
203
151
135
144
81
55
63
71
48
54
71
47
54
74
50
59
76
55
64
75
56
65
80
59
66
89
63
67
96
65
65
85
51
51
76
43
43
74
43
44
75
52
54
109
94
99
159
151
157
216
215
220
223
219
223
177
163
165
123
97
97
100
61
59
100
60
59
100
59
59
168
162
173
104
92
105
55
40
53
53
44
55
52
44
56
54
43
58
58
48
64
64
54
68
73
59
70
82
61
67
82
53
55
74
48
51
78
58
62
102
87
90
149
140
145
193
189
196
221
221
228
229
230
235
214
208
212
161
143
145
116
83
83
114
70
68
110
67
66
106
64
64
141
132
144
80
68
84
52
47
65
42
41
59
45
44
63
52
50
70
53
51
73
60
54
70
64
51
61
69
48
54
87
61
67
134
115
122
179
169
176
214
213
218
226
229
233
231
233
237
232
233
237
228
229
232
195
186
187
149
123
124
116
75
75
117
73
70
114
71
68
111
70
67
141
134
146
82
72
87
55
51
69
44
42
62
45
45
64
50
51
70
51
51
71
66
57
74
88
75
87
119
106
114
163
156
162
194
193
198
210
213
218
212
219
223
211
217
221
212
215
220
213
214
219
210
210
214
165
151
153
132
101
102
112
69
70
109
67
65
109
67
65
111
68
66
165
162
173
104
98
112
59
55
73
50
48
67
46
45
65
45
47
65
49
50
68
107
104
118
157
154
165
192
191
199
200
203
211
199
204
211
197
203
210
196
202
209
199
205
211
200
204
211
200
202
209
196
194
200
146
128
130
120
86
87
108
65
65
104
63
64
105
63
63
109
65
62
195
196
207
158
158
171
91
90
106
65
64
82
53
53
71
57
58
75
80
82
96
151
154
166
191
195
205
204
208
217
206
209
219
207
209
219
206
209
218
204
207
216
205
209
217
204
209
217
203
206
214
199
196
203
142
122
126
115
80
82
105
62
62
104
63
63
106
63
62
110
64
61
178
181
195
176
180
193
161
164
178
137
139
153
125
126
140
131
132
145
166
169
178
198
201
209
214
217
225
217
220
228
219
222
230
219
222
230
219
222
230
217
220
228
217
220
228
216
220
227
214
217
224
208
207
212
147
128
134
114
81
85
101
59
61
103
61
59
107
61
60
111
64
60
185
189
203
175
179
193
187
190
202
199
202
212
208
211
218
218
220
226
232
236
240
235
238
243
236
240
244
237
240
245
237
240
245
237
240
245
236
239
245
236
239
245
235
238
244
234
238
243
232
235
240
226
226
231
160
143
149
119
88
92
100
59
61
104
59
58
107
60
59
111
63
60
203
207
219
188
193
204
192
196
204
196
199
206
212
215
219
230
232
236
239
242
246
240
243
247
240
243
248
240
244
248
240
244
248
241
244
248
241
244
248
241
244
248
240
244
248
239
243
247
238
240
245
233
231
236
164
148
154
120
91
95
100
60
62
106
61
60
107
60
58
109
62
58
