P3 24 24 255
41
53
70
45
60
75
64
82
96
61
83
97
73
97
111
109
128
144
105
119
137
91
99
118
104
111
128
116
129
146
108
122
136
89
98
107
78
83
93
79
85
95
67
74
82
60
68
72
50
55
60
68
71
78
86
89
96
79
82
89
78
85
92
55
67
73
47
57
63
43
50
58
45
60
75
49
65
80
72
86
102
106
124
138
122
145
158
131
151
164
109
127
141
97
112
126
105
119
132
132
149
167
142
160
177
123
136
150
97
108
120
100
111
121
98
106
115
77
83
91
58
62
69
67
70
77
81
84
91
76
79
86
71
77
84
67
76
83
70
79
86
51
60
67
49
67
81
66
81
96
91
103
119
110
122
137
121
135
148
123
136
149
99
112
125
92
106
118
108
126
136
132
155
171
161
183
203
158
175
193
131
148
161
136
150
162
140
149
160
97
101
112
71
74
82
77
80
87
86
89
96
78
81
88
79
82
90
86
92
100
88
96
103
77
89
95
75
94
110
88
104
120
91
104
120
76
86
100
69
77
88
83
90
99
99
107
117
94
106
116
114
133
144
150
174
192
176
201
222
183
204
224
178
198
215
173
192
206
163
179
191
127
139
150
94
101
110
95
98
107
96
100
108
88
92
98
90
95
101
101
106
115
108
113
122
103
113
121
89
105
123
92
106
122
77
89
104
51
61
72
39
45
51
45
47
48
75
79
82
101
110
118
128
142
156
168
189
209
190
214
237
200
221
240
203
224
239
196
217
231
185
206
219
167
188
201
139
152
166
132
140
154
122
131
141
116
126
133
114
123
130
120
127
136
123
126
139
114
121
135
83
92
107
77
84
98
64
69
81
46
51
59
38
40
42
39
37
35
44
43
42
76
82
87
117
130
142
170
189
208
198
219
240
208
227
244
215
233
240
215
233
240
210
226
238
200
216
231
188
204
220
177
192
208
163
178
194
151
167
182
133
146
158
128
137
148
125
130
144
125
134
150
66
76
86
57
64
73
50
56
62
49
54
60
43
47
50
43
43
42
40
41
41
48
54
60
93
103
114
145
162
179
198
217
236
214
230
245
222
236
242
229
242
247
230
243
250
228
240
249
223
238
250
208
225
239
194
210
226
176
192
210
156
170
186
136
147
160
122
129
145
125
136
154
56
68
74
59
68
74
54
62
66
50
59
64
44
51
57
45
48
52
55
61
67
44
55
63
83
95
105
149
165
179
190
208
223
212
227
241
224
235
245
235
245
253
240
250
254
240
250
251
239
250
253
229
240
248
214
227
239
203
217
233
185
200
215
162
175
189
154
164
181
151
164
182
36
40
50
42
45
55
51
55
64
47
50
58
47
49
55
57
58
66
70
78
87
74
90
100
96
112
127
155
171
185
193
210
221
208
225
234
216
230
239
226
236
245
231
240
247
234
241
246
238
242
246
230
236
240
225
235
243
217
230
241
207
223
235
196
214
226
184
200
215
172
188
205
43
46
54
36
38
46
35
38
46
43
46
52
52
53
59
69
70
79
84
93
102
107
123
133
124
139
155
159
174
188
184
200
210
201
216
224
211
223
232
217
227
234
215
222
228
217
222
227
224
231
236
222
231
238
224
232
238
213
220
226
214
223
230
209
222
233
203
217
231
191
207
222
44
47
52
38
41
46
37
40
45
44
47
52
53
55
61
71
72
81
100
109
118
119
135
145
150
161
178
165
175
190
172
184
196
191
202
212
206
215
223
209
216
222
200
205
209
199
202
204
210
214
218
214
219
224
176
182
186
143
148
152
176
181
188
208
216
226
209
220
232
202
217
230
58
62
66
67
71
75
58
62
66
54
57
62
56
57
64
70
71
80
106
114
123
137
153
162
161
171
187
173
182
198
174
184
196
178
188
198
192
198
205
197
202
205
188
191
193
182
183
183
197
195
193
181
180
180
118
122
125
120
127
134
141
147
155
202
206
216
224
232
243
219
233
243
68
71
76
83
87
91
83
87
91
72
73
79
59
59
68
70
74
82
106
117
123
140
155
162
168
177
190
177
186
197
182
192
198
182
191
195
184
184
187
184
184
184
175
175
172
171
165
162
179
168
167
169
167
169
111
120
125
125
130
137
127
128
135
196
201
208
234
241
248
223
232
239
63
66
71
82
85
90
84
87
92
75
77
84
70
71
81
82
87
96
111
121
128
152
164
169
183
188
195
188
193
198
167
172
175
160
164
166
179
178
180
174
172
173
156
150
149
160
142
143
170
147
150
200
189
196
193
199
206
184
192
197
177
184
188
209
216
222
223
230
235
217
224
230
70
73
78
66
69
74
61
64
69
59
62
69
76
80
89
101
106
115
126
134
141
166
174
180
196
199
202
162
164
167
94
96
100
74
76
80
107
108
113
163
163
166
157
150
153
166
145
149
177
149
155
200
181
190
217
215
225
216
227
231
213
225
227
214
221
227
216
223
229
217
224
230
61
64
68
57
60
65
50
53
57
56
61
67
90
97
105
130
137
145
160
166
175
190
196
203
178
187
188
105
113
116
104
112
119
109
116
126
94
96
103
172
175
178
191
193
195
188
182
184
181
162
165
164
145
154
196
188
200
212
217
223
210
221
224
212
219
225
212
219
225
213
220
226
91
97
108
74
81
87
56
65
65
62
72
74
101
111
118
141
148
153
173
178
181
199
204
207
159
169
176
91
102
110
97
107
117
96
106
117
127
133
141
198
204
208
200
204
206
199
199
201
186
175
178
127
107
115
160
141
151
193
189
193
201
207
208
215
219
223
219
223
230
216
222
232
91
97
101
77
82
88
52
55
64
80
86
94
120
129
134
151
159
162
184
189
190
196
200
202
191
201
210
154
164
174
136
146
155
144
155
163
185
196
201
210
218
222
203
206
209
190
189
192
194
187
190
164
146
152
149
129
136
168
162
164
182
185
185
192
193
196
203
206
213
203
208
221
100
109
111
106
116
116
82
94
92
97
107
106
137
143
146
167
174
177
188
195
197
197
204
208
201
211
217
204
215
221
204
215
221
208
220
226
209
222
226
207
218
222
200
205
208
195
196
198
196
193
195
175
166
169
171
161
164
166
162
163
164
165
166
172
173
177
179
182
189
185
190
202
144
135
128
137
138
140
102
111
121
108
117
126
146
150
151
164
170
172
191
199
204
201
212
217
205
216
220
206
217
220
207
218
222
208
220
223
205
221
224
204
218
220
199
207
209
194
198
199
184
186
186
182
183
183
187
187
187
184
184
184
175
175
176
176
177
181
183
186
193
188
194
206
196
167
87
186
162
107
144
140
130
134
137
136
143
144
144
162
166
169
191
199
204
203
214
220
207
216
220
206
215
219
205
215
218
207
217
220
204
216
220
197
208
211
193
199
201
185
187
187
174
175
174
181
183
182
184
186
186
188
188
190
186
187
191
188
191
198
194
198
207
197
205
217
191
155
80
197
156
90
161
155
146
144
147
146
162
162
163
185
189
192
194
201
207
201
209
216
206
213
219
206
213
219
206
213
219
207
214
220
201
207
212
188
193
196
183
185
186
180
180
179
176
176
174
178
178
178
183
182
185
189
188
192
190
193
200
191
197
207
196
201
213
199
211
224
185
149
95
202
162
105
161
157
147
158
162
167
174
177
180
183
187
190
190
195
199
196
201
205
207
212
216
211
216
220
206
211
215
200
205
209
189
193
197
175
178
180
171
172
174
182
184
185
181
183
183
180
181
183
183
185
188
190
191
197
194
198
206
194
201
211
198
203
215
200
211
225
189
154
110
204
166
106
172
174
147
174
182
185
174
180
186
175
180
184
174
177
179
182
184
185
188
190
192
189
191
193
186
188
190
179
181
183
169
169
169
163
164
165
171
173
176
181
186
190
183
187
190
184
188
191
186
190
196
191
194
202
192
198
207
194
201
211
198
203
215
200
212
225
