P3 24 24 255
54
52
47
56
53
48
55
52
47
55
53
48
57
55
50
58
55
51
59
56
54
58
56
52
53
54
45
52
53
46
55
51
46
75
61
49
108
85
66
121
92
70
122
91
70
128
97
76
127
98
77
103
82
65
74
60
47
47
40
33
29
25
19
33
31
28
45
46
44
59
54
47
58
55
50
58
54
49
58
55
50
60
56
51
60
57
52
60
57
52
61
57
54
59
55
50
57
54
45
58
52
43
74
61
52
114
91
74
130
98
74
130
94
69
127
90
66
123
86
62
125
89
65
120
87
62
114
87
66
97
76
61
48
37
24
19
17
10
37
32
30
83
65
61
61
58
53
61
58
53
61
58
53
61
59
53
62
59
54
62
59
54
60
59
53
60
56
48
62
54
44
75
59
46
116
90
73
136
104
83
137
98
72
138
97
71
130
88
63
112
70
45
124
82
56
124
84
56
118
81
55
110
75
52
91
69
47
50
41
27
42
29
25
107
80
76
61
58
53
63
60
55
62
59
54
63
60
55
63
60
56
64
62
57
64
64
55
69
63
53
71
58
47
102
76
59
137
97
73
146
102
76
153
106
78
153
105
78
133
85
60
110
62
36
121
75
49
123
82
57
117
75
50
113
71
46
110
74
49
90
65
49
54
34
27
85
60
54
63
60
54
64
61
55
64
61
55
64
61
55
65
62
56
67
64
58
68
65
57
70
64
54
83
66
54
125
92
72
145
102
75
161
120
93
173
126
95
168
119
91
153
103
76
117
66
39
116
70
46
124
91
71
119
86
64
118
79
56
124
80
55
104
65
47
71
46
38
52
33
26
64
61
53
66
63
55
66
63
54
64
61
53
64
61
52
67
62
55
73
63
61
68
64
60
98
81
67
142
104
81
127
98
75
136
120
101
174
137
108
171
126
95
177
129
96
139
91
59
109
73
53
150
135
121
150
136
116
125
94
73
130
87
62
110
68
45
97
65
54
47
30
25
63
60
51
66
63
54
67
64
55
68
65
56
68
65
56
70
66
58
73
69
64
68
70
62
96
82
65
136
101
78
96
72
53
81
67
52
147
112
88
185
134
99
192
142
105
167
127
98
147
123
105
186
175
163
165
146
131
134
93
77
128
82
60
116
76
52
109
73
57
67
47
35
67
64
55
67
64
55
67
64
55
69
66
57
70
67
58
71
68
59
71
71
62
69
73
62
94
77
58
111
74
52
88
60
42
100
79
60
181
144
121
206
154
120
196
152
120
206
182
159
235
224
208
219
210
201
138
113
103
126
84
71
130
93
74
128
96
75
102
68
50
88
65
47
66
63
54
69
66
57
70
67
58
70
67
58
70
67
58
72
69
59
75
72
61
73
71
60
94
66
49
107
60
39
114
76
53
155
120
93
195
149
122
191
146
121
199
174
157
241
235
220
245
242
226
199
189
182
135
111
103
141
116
100
188
174
158
161
145
134
95
69
56
89
68
51
68
65
58
72
69
61
74
71
63
74
71
63
73
70
62
75
71
64
78
72
63
85
72
57
107
68
49
124
71
52
129
81
56
165
113
80
185
133
106
208
177
162
237
229
220
247
247
234
245
241
225
220
211
204
212
197
188
229
220
207
237
237
224
209
206
196
116
104
93
96
80
64
75
72
67
74
71
66
76
73
68
77
74
69
75
72
67
75
73
68
81
76
68
97
78
57
120
80
57
134
86
70
147
95
69
169
110
77
184
142
122
230
215
205
234
231
218
233
226
209
224
206
193
224
201
193
227
213
199
243
236
229
235
231
222
208
209
194
167
166
155
110
98
84
79
76
71
78
75
70
77
74
69
77
74
69
75
72
67
77
74
70
78
74
69
83
67
52
115
81
62
132
92
70
161
121
90
181
144
115
191
174
159
226
221
211
233
230
216
228
214
200
214
175
167
216
155
151
192
143
130
189
159
146
208
192
180
207
200
190
154
149
143
114
100
88
84
81
76
83
80
75
82
79
74
81
78
73
80
77
72
81
79
74
58
55
52
66
53
47
105
79
65
126
96
72
161
136
107
197
180
158
212
210
200
229
230
220
235
235
220
248
237
223
231
194
185
230
165
159
217
149
135
211
157
141
196
160
146
191
168
158
152
134
127
119
95
82
86
83
78
87
84
79
85
82
77
84
81
76
83
80
75
87
84
80
69
67
67
56
45
48
96
76
67
124
103
82
182
168
150
216
209
196
221
218
208
245
244
232
232
236
220
245
245
227
246
234
217
223
195
181
219
160
145
241
173
160
242
184
170
218
174
160
200
164
152
177
139
121
87
84
77
90
87
81
87
84
77
85
82
75
85
82
75
95
92
85
134
130
126
102
93
92
104
92
82
165
155
138
198
191
180
180
172
165
168
155
150
235
231
222
237
241
226
232
232
213
245
243
224
242
239
223
235
200
184
226
167
157
229
170
158
235
182
165
230
183
167
223
176
156
93
90
81
92
89
80
89
86
77
90
87
78
91
89
79
105
102
93
168
162
153
192
186
175
192
187
172
202
196
184
166
158
152
124
109
104
103
80
77
193
185
177
240
237
225
210
202
185
215
204
187
246
231
217
244
209
192
227
181
168
219
171
158
215
165
147
224
174
157
228
178
160
96
93
84
93
90
81
96
93
84
97
94
85
95
92
83
123
119
110
182
175
167
211
204
193
248
243
228
200
191
182
105
90
89
112
91
83
108
81
67
140
121
106
193
178
163
158
143
126
154
132
116
224
181
168
243
189
168
225
171
151
219
170
153
218
171
153
206
159
141
208
160
142
96
93
84
93
90
81
92
89
80
97
94
85
97
94
85
126
122
114
188
181
173
196
189
178
215
209
195
204
196
185
125
112
104
111
91
77
122
95
75
140
111
90
158
129
110
130
104
87
142
113
97
192
142
128
229
172
150
237
183
160
227
181
161
224
180
161
213
169
150
200
156
137
96
94
84
94
92
83
94
91
82
97
94
85
97
94
85
113
110
101
183
176
168
199
192
181
203
197
183
220
215
197
196
191
168
153
140
119
137
117
97
163
127
105
174
134
112
154
118
100
151
119
104
168
133
118
209
163
141
228
182
160
219
177
158
209
168
148
202
160
140
191
150
130
99
99
89
99
100
90
100
99
90
101
98
92
101
98
91
100
97
90
139
133
122
192
186
174
202
196
182
208
203
187
193
187
168
157
144
125
147
127
108
155
123
99
164
128
103
165
129
107
168
134
115
162
131
117
189
148
130
209
160
141
193
150
131
184
147
127
177
140
120
174
137
117
97
100
88
98
101
90
100
99
92
103
99
95
103
100
95
98
94
88
96
91
79
142
135
123
185
179
167
187
180
169
167
158
147
121
105
89
135
113
92
142
116
91
148
119
93
156
122
98
170
135
114
169
135
120
175
133
117
189
139
120
187
141
122
177
139
121
168
129
111
163
125
107
94
94
84
95
95
85
101
99
92
103
100
95
104
101
96
97
94
88
94
88
78
100
93
83
150
143
133
174
167
157
159
150
139
103
87
71
125
103
82
130
105
82
129
102
79
145
114
92
165
132
111
169
137
118
183
147
128
179
137
119
172
129
112
169
128
113
167
126
111
164
123
108
95
91
83
93
89
80
100
96
90
104
101
96
102
100
95
102
99
93
105
98
91
102
95
89
112
105
99
150
142
135
125
116
105
99
84
68
132
110
89
123
101
78
117
93
72
130
102
82
148
117
97
148
119
95
158
127
106
156
123
105
145
112
96
144
111
95
143
110
94
139
107
91
97
91
83
94
88
79
103
99
92
104
101
96
95
92
87
96
93
88
103
95
91
107
99
95
109
101
97
115
108
101
103
94
83
109
93
77
136
114
93
122
100
79
105
84
65
118
92
75
127
98
78
133
106
79
134
108
84
131
105
86
122
99
82
115
94
77
119
98
81
119
98
80
