P3 24 24 255
177
171
168
178
172
169
169
164
163
152
149
148
156
153
152
155
152
151
120
117
116
110
106
105
128
123
122
137
131
130
153
151
148
166
163
160
161
155
154
134
126
124
142
136
134
148
143
142
143
139
140
180
179
179
199
200
199
183
183
183
170
168
163
146
144
132
136
136
114
115
119
81
120
107
99
156
145
139
157
151
147
156
153
151
127
123
121
84
79
78
96
91
89
100
96
94
106
99
96
122
112
106
142
135
129
150
144
138
106
95
93
123
113
114
151
144
146
145
140
142
156
152
153
186
184
185
207
205
207
194
192
194
176
175
172
158
158
147
179
181
168
146
151
123
101
90
84
116
107
102
132
124
121
110
104
101
81
74
72
104
98
95
103
97
94
120
114
111
112
105
100
107
97
89
120
115
107
127
121
117
110
99
99
139
128
134
132
124
130
139
134
137
162
158
159
164
161
160
173
170
166
196
194
194
182
181
183
174
174
172
161
160
159
110
112
97
121
115
114
119
112
110
155
149
146
136
131
127
120
115
111
150
144
140
163
156
153
133
125
122
107
98
94
106
98
92
107
102
97
135
129
127
146
137
138
133
122
127
137
127
133
144
137
140
165
161
162
176
174
171
171
167
161
202
199
198
207
205
209
194
193
197
183
180
183
157
154
150
115
110
112
147
139
140
139
135
133
123
124
119
112
112
107
105
102
97
115
111
106
113
107
103
72
64
61
88
79
76
104
95
92
124
115
113
130
120
118
130
116
115
149
135
135
145
136
136
209
205
204
209
207
206
190
186
183
164
160
157
179
175
173
211
207
205
213
209
210
209
205
207
99
96
100
130
124
127
137
132
133
143
143
140
117
114
110
102
97
92
120
115
111
122
116
112
72
64
61
60
52
49
95
88
85
106
98
95
118
110
107
113
101
99
88
77
75
114
107
105
178
175
173
188
187
185
183
181
179
163
161
158
151
149
145
151
149
144
155
153
147
172
171
164
80
78
84
81
74
81
114
107
113
148
144
147
138
131
129
104
95
92
114
106
103
128
121
118
83
78
74
51
46
42
89
85
80
91
86
82
83
78
74
55
48
42
34
27
21
107
102
97
155
152
147
162
160
159
178
177
182
204
203
207
191
190
192
169
169
167
155
156
148
180
181
174
137
136
144
109
103
112
106
98
106
153
147
152
141
131
131
105
94
92
107
98
95
129
123
119
102
97
93
61
57
53
73
69
65
79
75
70
78
74
69
60
56
49
48
43
36
144
140
135
183
181
176
162
161
156
162
163
158
173
175
166
167
170
156
147
149
133
148
151
130
155
158
140
146
145
150
144
141
148
141
136
142
148
143
144
129
121
119
93
84
81
75
67
64
86
78
75
108
101
98
82
75
73
52
45
43
64
57
54
66
59
55
58
54
47
94
92
88
200
199
201
206
208
204
156
159
148
125
128
109
117
121
95
113
118
90
111
115
88
114
119
91
122
126
102
146
145
147
112
110
116
116
113
117
115
111
109
108
101
98
88
79
77
72
64
61
56
48
45
61
53
50
64
56
52
53
46
41
55
48
41
52
46
37
61
59
52
129
128
127
200
200
202
195
197
195
151
153
145
126
128
116
145
147
133
139
141
128
148
149
139
151
153
138
130
133
117
167
167
168
116
115
119
94
91
93
72
68
65
76
69
65
89
80
77
83
75
72
67
59
56
64
56
52
72
65
60
67
60
54
53
46
38
44
38
28
71
70
64
139
140
139
178
178
179
173
173
172
136
137
131
147
149
137
198
200
191
180
181
175
166
166
161
177
178
172
164
166
157
164
164
163
132
130
133
100
97
97
77
73
69
67
60
56
74
66
63
76
68
65
74
66
63
73
64
62
70
62
60
69
61
58
58
51
46
66
59
53
83
82
80
137
139
139
167
167
167
159
157
158
153
152
150
156
156
152
169
169
168
177
177
176
161
162
156
163
163
159
163
164
157
164
166
160
155
155
156
114
111
113
75
71
67
49
43
39
48
42
39
54
47
43
50
44
38
54
49
42
63
58
54
66
61
58
76
71
67
95
89
86
95
94
94
96
98
102
96
98
104
87
87
94
87
84
92
81
79
86
68
69
79
77
79
87
110
110
112
151
150
146
158
158
151
156
159
150
153
153
154
116
113
116
84
79
77
57
53
49
51
47
43
55
52
46
57
53
46
45
42
34
45
42
36
65
62
57
84
81
77
98
95
92
98
98
98
73
77
83
44
50
60
39
41
53
41
39
50
44
42
50
41
43
53
40
43
51
53
52
57
85
84
87
142
142
145
148
151
142
140
141
141
110
107
110
87
82
79
73
69
65
65
62
57
59
56
51
46
42
38
29
26
21
49
47
42
73
72
67
83
82
79
88
87
86
84
84
84
67
71
77
43
50
60
39
45
55
29
32
41
30
32
39
39
41
47
47
47
52
47
46
50
54
55
61
79
81
85
142
145
136
133
134
134
106
103
106
86
81
78
73
71
65
70
68
64
61
59
56
43
41
39
39
38
36
66
67
62
76
76
74
70
70
69
73
73
73
80
79
81
71
74
80
49
57
66
41
50
59
22
30
38
19
26
30
29
31
33
44
41
43
40
38
42
47
47
51
50
50
50
128
130
125
122
123
123
105
103
104
87
84
81
66
63
59
46
44
40
46
45
43
46
45
45
52
51
51
70
70
66
66
66
64
66
66
66
79
79
80
89
89
90
71
74
78
59
66
73
49
57
64
33
41
47
21
28
32
18
19
21
35
33
34
42
41
44
38
36
42
44
41
48
126
126
128
98
98
99
85
85
84
63
63
61
39
36
34
23
19
16
29
28
26
32
32
32
40
40
39
60
58
56
80
80
78
80
81
81
72
73
75
75
76
77
60
60
62
48
51
54
53
58
62
36
41
45
15
19
22
13
15
18
20
20
25
32
32
36
34
33
39
39
38
46
119
119
121
103
103
104
58
58
57
34
33
31
25
22
19
18
14
11
22
20
19
43
42
42
60
60
60
82
82
81
82
81
81
72
73
74
76
79
82
79
81
83
62
64
67
47
51
54
45
49
52
30
34
37
17
21
23
19
21
23
20
20
23
20
20
23
32
32
33
42
42
43
83
83
85
107
107
108
100
100
99
80
80
78
77
74
72
77
73
71
74
73
71
96
96
95
91
91
91
58
58
59
31
33
34
58
61
64
88
93
96
80
84
88
46
50
53
35
39
42
42
44
47
21
23
24
27
31
31
29
31
31
41
42
42
46
46
47
44
44
44
54
54
54
82
83
84
81
81
82
93
93
92
102
102
100
112
109
107
105
103
100
95
94
92
76
76
76
51
52
53
28
29
31
45
48
50
81
85
89
83
88
92
57
62
66
50
54
58
56
58
61
43
43
44
19
21
20
29
33
32
31
34
33
52
54
53
66
67
66
55
55
56
59
58
62
124
126
125
108
108
108
69
68
69
51
50
50
60
60
57
50
50
47
35
35
34
24
24
24
36
36
37
65
66
68
96
99
102
96
100
103
73
78
81
57
61
65
55
59
61
46
49
50
35
38
37
21
25
23
25
32
31
34
40
39
45
49
49
57
60
60
61
60
64
63
62
67
133
135
138
112
113
114
80
80
78
36
34
31
33
31
26
37
35
29
40
37
33
55
51
49
85
83
83
103
104
106
87
90
92
70
74
77
64
69
73
63
67
70
56
60
63
47
51
52
30
34
34
20
25
26
21
28
31
34
40
44
40
44
49
47
50
55
61
61
66
68
68
72
113
114
119
99
99
101
107
107
105
99
98
94
85
82
76
86
82
76
92
88
83
97
92
89
98
95
94
77
77
79
56
59
61
54
59
62
61
66
69
54
58
63
60
65
69
50
55
58
37
42
43
16
22
24
17
24
31
39
44
51
45
48
56
43
45
53
57
58
64
63
65
68
