P3 24 24 255
115
129
148
112
132
149
134
157
174
113
138
158
95
123
144
101
130
152
102
130
151
107
134
156
104
131
156
93
119
147
97
123
153
117
141
169
109
133
157
104
128
152
99
123
147
109
132
156
119
144
170
89
121
155
71
103
142
81
110
148
101
128
159
118
145
167
114
141
162
109
136
161
115
128
149
110
129
147
129
152
171
115
141
162
97
126
148
102
132
155
108
136
158
96
123
146
94
121
147
80
107
136
89
116
146
116
142
169
106
131
155
105
130
153
108
133
156
110
135
158
116
143
168
89
122
155
74
107
146
89
119
158
115
144
175
123
151
173
120
145
168
116
140
168
106
123
140
98
121
136
102
131
148
101
134
155
83
112
139
95
119
150
105
130
154
84
109
132
92
118
144
79
107
136
77
106
135
114
142
168
113
140
161
105
131
151
105
131
149
105
129
147
105
131
152
90
124
153
79
114
146
97
129
161
129
159
186
126
155
177
127
153
176
117
143
168
116
136
154
123
147
161
114
146
162
87
123
143
79
106
135
103
122
155
107
129
154
80
105
128
103
129
154
101
130
157
76
107
136
105
133
158
114
139
159
116
141
161
105
130
150
89
113
132
96
122
144
102
136
163
94
129
156
110
143
168
134
164
187
131
160
182
122
149
170
114
142
163
119
142
164
131
151
173
107
133
155
80
109
131
97
121
146
113
132
158
118
140
163
105
129
152
113
139
164
97
125
153
81
111
140
110
134
158
115
133
154
117
139
162
107
132
158
87
115
144
99
130
159
116
149
177
102
135
162
122
152
177
137
164
187
128
154
175
129
156
177
112
139
160
100
125
150
107
127
155
101
124
149
108
131
154
131
153
175
112
133
154
106
128
150
107
131
154
102
128
153
102
131
158
104
135
164
120
141
165
118
132
154
112
131
156
105
130
160
86
116
152
98
132
167
108
138
167
114
142
168
134
160
185
141
165
188
137
159
181
134
158
179
113
138
161
83
112
134
88
113
139
103
125
150
118
139
163
117
141
162
90
115
135
103
127
149
102
126
149
88
114
140
104
133
161
102
133
162
105
127
151
121
135
157
114
133
158
107
132
161
87
118
153
94
126
162
118
145
173
129
154
179
133
156
179
141
162
184
149
168
188
141
162
184
123
146
169
78
111
126
81
115
132
92
118
139
96
119
143
89
118
141
69
101
124
102
128
151
102
126
149
89
115
140
92
121
148
92
123
152
96
121
145
111
130
151
103
125
148
120
145
170
104
132
160
93
121
149
123
147
173
128
149
173
132
151
174
146
163
183
148
163
182
145
162
184
134
155
179
86
121
129
68
109
118
82
114
130
81
108
131
73
106
132
65
103
129
110
138
161
112
136
159
88
114
139
91
120
147
97
128
156
97
125
149
107
132
152
115
140
159
145
170
190
120
145
164
100
123
144
115
135
158
123
142
166
130
146
168
139
153
172
135
147
166
118
134
156
110
130
154
124
150
156
82
117
123
86
115
127
90
115
133
93
122
144
103
135
157
136
163
184
139
164
185
105
132
153
107
135
157
108
137
160
106
133
152
116
141
157
159
183
197
175
198
212
130
152
167
123
145
159
118
140
155
119
139
155
124
140
158
135
147
165
131
140
159
104
120
142
99
121
145
159
176
180
141
164
166
107
130
134
115
137
144
155
176
187
171
194
207
143
169
185
121
148
166
118
145
162
126
152
170
129
156
174
127
152
168
135
158
173
154
177
191
151
174
188
134
157
172
134
157
172
124
149
160
122
145
156
128
146
160
136
148
165
136
144
164
115
131
153
102
126
150
152
169
170
161
183
177
168
189
186
195
215
214
212
232
234
179
199
206
153
177
194
144
169
190
131
156
177
132
157
178
132
157
178
127
153
174
132
158
179
134
160
181
130
156
176
126
152
173
123
150
170
129
157
174
134
159
176
137
157
176
138
153
174
129
140
162
122
137
161
105
126
150
156
176
180
159
181
183
201
221
225
226
244
249
200
220
228
149
170
183
145
170
192
143
169
193
134
161
184
125
152
176
128
154
178
123
151
177
126
156
184
137
168
196
133
164
191
135
166
194
149
180
206
147
179
203
145
174
198
123
148
172
121
141
165
120
136
160
116
131
155
109
127
150
136
158
170
113
138
157
119
144
164
125
149
172
121
144
170
106
130
158
96
126
152
72
104
130
71
103
129
70
101
127
70
101
127
69
103
132
66
102
133
68
104
135
70
106
137
87
123
154
100
136
166
93
131
158
97
133
158
85
115
140
102
127
150
130
152
173
127
147
167
125
145
165
109
138
153
44
77
104
25
58
86
25
58
89
25
58
91
27
61
95
27
66
94
27
67
93
31
71
97
31
71
98
31
71
98
32
72
100
32
73
102
31
73
102
33
74
103
35
77
105
36
78
106
36
80
106
38
80
104
41
78
100
92
124
142
142
171
186
138
164
179
141
167
183
121
156
168
67
110
128
34
77
97
38
80
102
36
77
102
33
76
102
32
80
106
35
85
111
43
92
118
46
95
121
44
93
119
46
94
119
53
99
123
55
102
126
56
103
127
57
103
127
61
108
132
60
108
131
65
111
132
70
112
129
103
140
152
138
171
180
139
171
181
131
163
176
123
159
169
89
135
146
92
135
147
116
156
169
109
149
162
88
132
146
80
129
148
75
125
146
76
126
146
76
126
146
77
127
148
81
130
149
86
132
151
97
141
160
97
141
160
97
142
161
104
151
170
100
147
167
106
151
169
112
153
168
112
150
161
128
163
171
131
166
176
116
152
165
127
162
173
105
146
158
140
174
186
179
208
219
167
198
206
134
170
177
116
160
173
106
151
166
103
148
163
101
146
160
105
150
165
105
151
165
108
151
165
127
164
181
125
161
178
118
158
174
122
167
182
115
159
176
115
157
174
116
155
171
117
153
167
122
157
169
119
155
169
109
147
162
123
158
170
111
147
161
150
178
192
189
211
224
182
207
216
151
183
189
130
171
183
118
163
176
112
156
169
110
154
167
114
158
171
112
157
170
117
159
173
143
179
195
139
174
190
122
161
176
123
167
181
115
159
175
113
155
171
114
154
169
119
156
170
122
158
170
117
155
169
109
148
163
118
154
165
116
150
164
150
176
190
185
204
218
181
204
214
155
186
193
133
174
186
120
164
177
112
156
169
110
154
167
111
155
168
112
157
170
116
158
173
145
180
197
144
178
195
121
161
175
119
164
178
112
158
174
109
154
170
113
155
169
120
159
172
121
159
170
116
156
169
108
149
164
112
150
161
125
159
173
154
180
194
174
195
208
174
197
207
154
184
191
134
175
187
120
165
178
111
155
168
108
152
165
108
152
166
113
158
171
117
159
173
143
178
195
142
177
193
119
158
173
115
160
174
109
156
172
106
153
167
110
155
168
118
160
172
119
159
169
113
155
168
106
150
163
106
150
159
108
148
160
134
165
178
161
187
199
160
189
196
141
177
182
129
171
182
118
162
175
109
153
166
106
150
163
106
150
163
111
156
169
116
158
172
141
176
193
140
174
191
117
156
171
113
159
172
106
155
170
102
151
165
107
154
167
115
159
170
116
158
168
111
156
167
105
151
164
101
149
156
101
148
158
121
159
170
143
175
185
141
177
182
128
169
172
122
166
177
114
158
171
107
151
164
103
147
160
104
148
161
108
154
166
112
154
168
135
170
186
136
170
187
115
154
169
110
156
169
102
153
167
98
149
162
104
152
165
113
158
169
114
157
167
110
155
167
104
152
164
100
149
156
100
149
158
114
156
165
126
164
173
126
166
172
120
164
168
116
162
172
110
156
168
104
150
163
100
146
158
100
146
159
108
154
167
111
153
167
127
164
180
129
166
182
113
152
167
109
154
167
100
152
165
95
149
161
100
152
164
108
157
169
111
156
168
109
155
167
104
152
164
