P3 24 24 255
103
98
41
109
104
49
112
106
52
119
109
56
121
109
57
135
121
69
143
124
71
153
134
80
151
134
80
150
136
81
157
145
90
139
131
81
131
125
75
131
124
70
123
119
70
114
116
83
91
101
84
80
94
92
67
80
80
15
25
21
10
18
12
27
34
27
15
22
28
16
20
22
102
97
40
110
105
50
117
111
57
124
115
62
128
116
64
139
125
73
142
123
70
153
133
81
153
136
82
153
139
84
154
143
88
135
128
77
129
124
74
129
124
71
123
120
79
117
121
104
131
142
145
143
156
168
74
85
93
11
19
19
17
25
17
73
80
68
54
65
66
59
67
65
101
97
42
113
107
56
121
115
62
125
118
64
130
120
67
141
129
79
141
123
74
148
130
81
151
135
86
153
141
90
153
143
91
133
125
77
130
124
75
130
124
73
123
122
88
119
127
128
127
141
170
147
162
193
89
101
120
15
23
26
47
55
46
135
143
131
136
146
145
162
169
169
102
99
46
113
108
60
119
114
61
121
117
61
127
121
69
139
131
83
136
123
77
142
127
81
146
133
85
155
143
95
155
145
95
132
123
77
119
112
66
116
111
66
118
120
96
112
125
142
103
125
172
117
139
181
77
94
115
55
66
65
115
123
110
157
167
156
180
186
186
203
208
213
106
106
49
110
107
56
114
112
56
115
113
56
120
117
67
135
130
87
132
123
76
137
127
75
134
123
70
142
129
75
153
138
82
123
115
67
100
97
61
101
99
71
110
115
107
107
124
143
88
115
151
81
105
137
61
78
91
123
133
128
165
173
159
178
188
179
204
209
209
196
200
206
106
110
50
105
106
50
111
112
54
115
115
60
115
114
70
137
134
98
136
132
90
131
125
78
126
116
66
136
120
68
144
124
69
122
114
70
121
123
101
128
130
126
127
135
146
112
131
146
93
119
134
85
107
119
109
123
125
148
155
147
170
176
165
207
215
209
201
207
204
161
168
170
102
109
53
99
104
49
109
114
58
112
116
65
119
121
83
161
161
134
170
170
143
163
160
132
151
142
112
162
145
112
155
133
98
145
136
108
159
165
156
146
152
165
154
165
188
149
166
178
144
166
165
150
167
165
175
185
179
171
175
166
172
174
166
212
218
215
179
187
182
148
158
156
99
108
63
95
102
58
108
115
69
107
114
71
126
131
99
169
172
152
173
175
164
173
172
164
187
181
173
202
190
182
205
188
180
203
196
189
203
209
211
176
185
202
178
189
211
188
200
209
196
208
204
194
204
198
200
205
199
203
202
198
210
210
207
206
210
209
181
190
182
180
192
186
138
148
121
139
147
119
151
159
127
159
167
134
155
163
137
163
169
153
140
145
138
141
144
142
187
187
188
213
210
216
221
216
225
227
224
233
228
232
240
214
224
235
210
222
232
222
227
234
230
231
232
209
212
210
204
203
203
219
213
216
238
235
237
216
220
219
156
167
155
127
142
132
162
171
158
157
164
149
159
168
146
159
168
142
145
153
132
155
162
146
142
149
135
149
156
147
186
194
192
205
213
219
217
223
235
226
227
242
233
234
246
224
233
236
226
236
235
240
239
244
246
237
247
227
225
230
215
210
216
232
223
232
246
241
247
217
220
220
156
167
153
106
121
109
92
101
74
84
92
68
97
103
80
100
105
83
99
101
83
129
129
114
144
143
124
148
156
140
177
193
188
206
221
227
220
225
239
226
225
239
225
225
235
224
227
232
234
237
240
242
240
247
245
240
250
234
235
241
218
218
224
234
232
237
247
246
248
226
226
225
195
200
189
167
177
167
98
107
74
97
107
73
112
118
89
121
123
100
128
128
109
139
135
118
141
136
115
134
141
125
156
175
171
202
219
225
224
228
242
229
228
240
218
220
227
209
210
218
229
231
238
238
240
247
240
242
249
235
240
246
217
222
227
229
232
235
243
243
244
231
230
230
204
205
198
208
214
206
170
178
155
173
183
151
171
178
149
176
180
155
185
186
165
166
164
144
140
137
116
115
122
108
144
162
158
183
198
205
219
223
235
222
225
235
182
190
195
168
176
181
197
205
210
225
232
238
233
241
247
232
240
245
208
215
219
209
214
216
243
245
245
183
183
182
119
120
113
169
175
169
94
103
85
94
105
77
86
95
69
105
111
87
156
159
137
166
166
145
132
131
111
120
127
115
169
183
181
177
191
197
201
207
217
147
155
161
66
80
83
99
113
116
146
159
162
183
197
200
203
217
220
201
210
215
147
156
159
161
168
170
236
240
240
181
183
181
140
142
136
179
185
180
67
77
62
77
89
69
75
85
65
93
100
80
163
167
148
186
188
169
161
163
145
161
167
157
192
202
202
192
203
208
185
194
200
130
142
145
105
122
124
120
137
140
123
140
142
122
140
142
155
170
173
130
141
145
108
118
121
139
147
148
200
205
204
222
226
223
212
214
209
202
207
204
126
137
128
138
150
141
145
155
145
150
159
146
173
178
166
185
188
174
184
188
173
192
196
188
204
211
212
207
216
221
180
190
193
145
159
160
139
154
157
136
151
154
96
110
113
68
82
85
85
99
102
43
56
59
92
103
106
142
152
152
109
116
114
176
181
178
203
205
201
154
159
158
92
103
106
92
103
105
90
100
99
80
87
84
110
115
110
144
148
139
130
135
122
128
133
126
195
199
202
175
182
186
175
186
186
105
117
118
22
34
37
16
27
31
13
24
27
18
29
33
17
28
31
8
20
23
49
62
64
118
129
129
30
39
36
74
81
78
200
203
200
160
165
166
15
23
35
15
25
33
18
27
32
17
24
27
35
41
42
69
74
71
57
60
51
88
92
86
185
192
192
109
117
119
130
137
137
102
106
105
24
25
25
22
24
23
27
29
28
42
47
46
30
37
36
14
25
25
70
81
79
124
134
130
25
33
27
28
35
28
137
140
136
151
154
155
19
25
31
20
28
34
24
32
36
27
34
38
26
34
37
31
37
39
31
29
26
72
77
71
156
169
162
61
70
66
69
64
63
103
86
83
72
51
42
59
42
30
63
51
38
89
83
71
64
64
55
27
31
25
86
91
84
120
125
115
37
42
29
41
46
31
87
90
83
134
136
134
22
28
29
22
29
29
25
32
32
25
33
32
27
35
34
31
37
37
30
28
27
66
71
64
132
142
131
66
67
56
71
53
45
88
55
44
88
51
35
82
52
35
89
68
53
105
94
79
73
68
56
41
42
34
97
99
90
115
118
106
42
44
30
47
50
34
67
69
59
140
141
135
27
32
29
26
33
26
30
36
30
32
38
32
30
36
30
34
39
34
33
34
31
65
68
61
139
141
127
97
86
67
100
69
51
101
54
33
97
47
25
99
61
43
107
82
68
89
74
62
63
55
45
54
53
45
109
109
101
122
124
112
48
50
36
48
49
34
59
59
45
141
140
127
41
46
41
44
49
39
46
51
41
45
49
39
37
42
32
38
42
34
34
36
32
62
63
55
143
137
120
112
90
66
110
71
43
114
57
29
109
53
28
108
67
50
86
62
51
65
49
40
62
52
42
56
54
44
96
95
84
132
132
118
63
63
47
56
56
38
69
67
47
136
133
112
45
49
43
51
54
44
53
56
46
50
52
43
44
47
37
43
46
37
42
45
40
72
72
63
121
109
92
108
81
56
116
75
44
114
60
29
112
59
36
102
68
55
55
37
31
50
37
29
65
54
42
58
54
39
69
68
50
102
101
81
71
70
47
64
63
38
76
73
45
103
98
68
40
43
37
45
46
39
46
47
40
47
48
41
43
44
37
40
42
35
41
45
38
58
55
45
75
60
44
94
67
44
127
90
61
114
69
42
109
69
51
85
65
57
28
22
19
43
37
29
71
62
46
68
64
40
67
65
38
73
70
42
75
73
42
85
84
50
99
93
58
99
92
54
