P3 24 24 255
209
209
206
149
149
149
198
198
200
224
223
221
222
221
219
225
224
222
225
224
222
227
226
224
228
227
225
228
227
225
229
228
226
230
229
226
230
229
228
232
231
230
229
229
225
221
220
216
226
223
221
219
218
217
162
161
161
223
222
220
231
230
228
232
231
229
233
232
230
233
232
230
206
207
204
147
147
147
204
204
206
222
222
219
223
222
220
225
224
222
225
224
222
227
226
224
228
227
225
229
228
226
230
229
226
229
228
226
231
229
229
215
211
206
165
159
150
125
120
113
129
126
120
166
163
159
166
163
162
231
230
229
234
233
232
233
232
230
233
232
230
233
232
230
204
204
201
147
147
148
209
208
209
221
220
219
222
222
220
224
223
221
226
225
223
227
226
224
228
227
225
230
228
225
229
228
226
233
233
233
205
201
196
135
127
115
102
91
81
85
75
69
82
78
71
87
84
77
132
126
122
211
210
208
223
222
219
233
231
228
233
232
230
233
232
230
200
200
197
147
146
148
212
211
212
220
220
218
221
221
220
223
223
221
225
225
223
228
227
225
228
227
225
228
227
226
231
231
230
219
216
208
145
136
122
100
89
74
91
80
70
83
75
68
75
71
65
71
69
64
96
84
75
124
112
102
172
164
156
226
224
221
233
233
232
233
232
230
193
193
190
150
149
152
215
215
215
220
219
218
221
221
219
223
223
221
225
224
222
228
227
225
228
227
225
230
230
228
212
209
204
146
140
127
107
96
82
99
87
75
93
85
73
81
74
65
85
78
69
94
88
76
128
117
105
203
197
191
232
230
228
233
231
229
233
232
230
233
232
230
186
185
182
159
158
162
218
217
217
219
219
217
221
221
219
223
223
221
226
225
223
227
226
224
228
227
227
222
219
213
156
149
137
108
100
90
100
92
84
94
83
74
90
81
69
92
84
70
101
92
73
119
112
91
173
168
157
234
233
231
234
235
233
234
233
230
233
232
230
233
232
230
177
176
172
168
168
171
220
219
219
220
219
218
222
222
220
223
223
221
226
225
223
226
225
223
229
228
225
185
180
168
115
104
90
104
94
84
98
89
81
95
85
75
90
79
64
99
91
72
111
102
78
125
117
93
192
188
179
233
232
230
231
230
227
233
232
230
233
232
230
233
232
230
168
167
164
179
178
182
222
221
221
221
219
218
223
222
220
224
223
221
226
225
223
227
226
225
223
221
216
154
146
132
110
98
83
106
96
84
95
87
77
95
87
73
96
87
69
106
99
79
121
113
91
129
119
97
196
191
183
235
234
232
233
231
229
233
232
230
233
232
230
233
232
230
162
161
159
188
188
191
223
222
221
220
219
218
223
222
220
224
223
221
225
224
222
229
228
227
214
210
203
135
125
112
100
90
80
89
80
71
88
81
70
98
90
75
104
96
75
109
103
81
119
113
91
125
116
96
200
194
187
235
235
232
232
231
229
233
232
230
233
232
230
233
232
230
157
156
155
196
196
198
223
222
220
220
219
218
223
221
220
224
223
221
224
224
222
229
229
228
188
182
173
111
100
88
82
74
67
72
65
59
87
79
66
105
95
76
108
101
79
110
104
81
115
108
85
118
111
92
202
195
189
235
234
232
232
231
229
233
232
230
233
232
230
233
232
230
158
158
157
205
205
205
221
221
219
220
218
219
222
221
220
223
222
220
226
225
223
220
217
214
139
129
118
86
75
66
74
67
61
79
70
59
99
89
69
106
99
76
106
100
79
108
101
81
112
105
84
111
106
89
199
195
193
235
234
232
232
231
229
233
232
230
233
232
230
233
232
230
160
159
159
212
213
212
219
219
216
220
219
219
222
221
220
222
221
219
228
226
223
188
181
172
105
90
79
74
65
61
70
62
56
99
84
65
106
94
70
97
92
69
95
91
69
100
97
75
111
109
87
109
104
93
197
195
196
236
234
233
232
231
228
233
232
230
232
231
229
232
231
229
163
161
163
219
220
218
218
218
215
220
219
218
222
220
219
221
221
218
222
221
218
145
137
122
91
77
65
69
60
57
81
68
57
101
86
65
96
84
63
88
82
62
85
83
63
86
85
64
122
119
102
139
136
132
199
194
194
236
235
233
231
230
228
232
231
229
232
231
229
232
231
229
168
167
169
224
223
221
217
217
214
220
219
217
221
220
218
224
223
222
208
207
202
115
108
93
70
62
54
73
61
52
90
74
58
88
77
59
80
74
57
79
75
60
84
83
66
92
92
75
166
165
156
155
153
151
195
190
190
237
235
234
231
230
227
232
231
229
232
231
229
232
231
229
178
177
178
224
223
220
217
216
214
220
219
217
220
219
217
226
225
223
201
200
193
95
91
81
52
47
43
78
64
52
87
71
57
79
70
57
74
70
58
76
76
65
81
80
65
118
110
99
180
170
166
133
121
119
189
180
179
236
234
232
231
229
227
232
231
229
232
231
229
232
231
229
179
178
179
222
221
219
217
216
214
220
219
217
220
219
217
226
225
223
201
199
196
105
102
96
59
56
49
76
64
53
81
67
56
76
68
57
77
73
63
80
78
67
115
111
100
174
161
153
161
141
135
107
92
88
175
163
161
232
230
227
230
229
227
231
230
228
231
230
228
231
230
228
152
150
151
217
215
212
217
215
212
219
217
215
221
219
217
226
225
222
202
200
196
125
122
116
60
58
53
93
86
77
99
85
76
84
76
67
98
92
83
134
127
121
196
190
187
230
225
223
198
193
190
127
118
115
177
166
163
232
229
227
230
229
227
231
230
228
231
230
228
231
230
228
142
141
140
204
204
203
222
221
219
219
218
215
218
218
215
220
219
217
212
211
205
108
109
104
59
59
58
161
157
153
164
154
148
160
154
149
183
178
174
210
205
203
229
227
225
227
226
224
161
162
161
127
123
122
204
198
194
233
232
229
229
228
226
231
230
228
231
230
228
231
230
228
138
139
138
182
183
185
214
215
213
216
217
215
223
222
219
228
225
224
200
199
195
65
70
67
97
93
93
223
218
216
214
206
202
216
211
208
233
232
229
229
229
226
228
227
224
217
217
214
121
119
118
101
99
96
190
189
185
232
230
228
230
228
227
231
230
228
231
230
228
230
230
227
101
99
100
118
117
123
128
129
131
147
150
155
189
191
193
223
223
223
153
154
151
40
44
44
134
131
132
223
220
222
211
207
205
202
195
193
210
207
206
222
221
219
232
231
229
222
222
221
139
138
136
141
139
135
157
154
151
225
223
221
227
227
224
227
226
224
230
229
227
231
230
228
136
131
132
201
197
197
187
184
180
151
146
145
109
106
108
108
111
116
85
93
96
66
72
73
99
100
102
121
123
127
130
133
136
119
118
120
105
98
96
135
128
130
178
179
181
185
189
189
137
138
137
162
161
158
151
148
146
217
214
214
236
235
234
235
233
230
230
228
226
228
226
225
194
192
191
220
219
216
219
217
214
216
216
214
209
207
203
135
135
128
44
48
47
97
95
93
197
194
191
202
198
195
198
194
191
170
165
161
129
116
112
155
148
145
153
150
147
131
132
128
95
97
94
111
109
107
112
112
108
164
166
162
193
194
193
212
212
211
228
227
224
233
232
227
212
211
208
209
208
205
213
212
209
214
214
213
220
219
216
125
127
121
55
55
53
155
150
149
228
225
223
226
223
222
229
227
226
219
216
213
183
173
169
217
214
211
228
226
222
175
175
170
105
109
107
106
107
104
144
141
137
172
171
166
155
156
149
154
155
150
175
177
174
192
194
191
213
212
209
212
210
207
215
212
210
214
213
211
205
201
198
101
96
90
97
90
85
198
196
193
224
223
220
221
218
217
223
222
220
223
222
220
204
200
195
214
210
208
232
232
229
148
150
146
69
73
71
125
122
119
211
207
203
229
227
224
224
223
220
207
208
202
174
174
168
165
165
160
