P3 24 24 255
124
159
225
138
137
166
119
109
104
114
109
99
161
150
127
227
206
161
236
218
170
243
227
182
250
240
193
254
254
206
254
255
225
254
254
248
254
254
254
254
255
255
254
254
246
247
238
202
243
234
185
235
208
159
217
183
136
210
178
134
208
175
127
208
169
121
199
155
102
112
63
38
152
172
230
168
161
179
138
120
103
86
84
85
179
174
150
246
223
174
250
227
175
252
232
181
252
242
188
254
255
208
254
254
236
253
253
249
255
254
253
255
255
255
253
254
246
244
235
200
241
230
179
233
204
144
203
166
108
201
162
107
216
180
133
210
176
133
199
160
113
123
72
47
154
150
169
165
154
158
144
129
115
73
66
63
153
152
131
209
188
149
210
187
146
217
195
150
229
217
167
255
254
215
253
254
242
252
253
248
252
252
248
253
253
253
253
252
242
242
234
200
215
202
162
190
164
124
156
130
100
146
117
81
155
131
111
157
138
111
157
127
98
139
109
82
66
55
62
74
64
67
75
65
66
77
63
56
81
68
56
104
84
70
106
89
74
129
110
98
191
181
152
248
248
215
249
249
238
251
252
247
255
255
251
252
254
252
252
252
241
238
224
193
170
160
144
124
119
115
111
108
108
109
97
92
101
79
76
121
108
94
91
74
60
75
58
42
50
40
43
49
37
37
48
40
38
50
39
38
61
47
43
74
57
51
81
67
63
110
94
95
183
173
153
252
252
222
252
254
245
250
250
245
239
239
235
238
234
230
227
222
213
186
181
168
146
137
128
110
109
105
100
102
99
87
96
96
90
91
92
118
103
104
78
62
60
65
54
46
48
40
42
44
35
33
45
38
36
43
34
38
59
48
47
97
84
80
124
121
126
110
106
108
163
159
151
242
227
206
249
220
196
239
207
183
207
171
148
191
160
134
198
142
123
159
123
116
138
119
116
118
91
90
110
101
103
99
98
105
99
85
89
100
89
92
102
71
78
103
60
57
54
32
36
34
26
27
38
28
31
49
35
37
77
70
75
123
124
132
152
160
177
148
157
169
164
169
177
200
168
165
212
141
125
190
141
124
192
128
109
161
113
92
169
106
89
198
112
104
200
112
116
145
83
86
99
73
79
116
84
96
144
55
63
143
52
60
146
57
66
185
61
55
101
52
59
78
50
63
94
58
70
97
60
59
110
102
108
116
122
138
136
147
166
155
167
183
147
151
165
152
139
147
146
112
109
124
107
100
132
102
91
127
100
94
113
94
89
143
94
94
170
119
123
144
112
114
111
101
102
89
85
90
109
49
53
158
46
54
175
45
53
174
52
55
152
71
83
157
75
101
171
96
123
171
87
93
160
86
89
146
98
114
158
124
146
157
120
138
155
109
121
155
104
112
145
87
85
133
86
86
124
96
95
114
98
101
100
85
88
90
71
75
118
115
118
103
98
100
104
100
103
100
101
104
73
55
60
123
68
81
173
73
89
166
62
74
190
68
83
198
76
98
204
79
106
208
69
86
207
62
72
199
66
83
196
74
91
196
98
109
189
86
94
180
63
70
172
58
60
163
61
66
157
80
91
153
89
102
152
107
124
137
61
70
139
54
65
131
45
57
131
52
61
132
53
67
91
33
45
108
63
80
164
78
100
172
51
67
212
67
92
216
68
91
215
55
76
207
51
69
203
46
61
197
45
62
193
49
66
186
70
88
175
63
77
167
44
54
159
42
48
152
42
49
145
48
60
145
76
89
150
104
124
128
49
61
119
27
40
114
26
38
113
26
36
107
24
35
85
20
30
98
37
52
115
35
52
124
50
64
161
73
108
157
60
92
167
35
58
180
33
58
173
28
50
164
32
49
156
37
55
147
38
55
140
44
51
132
42
43
128
44
43
120
33
40
112
31
40
106
60
70
106
73
86
98
36
47
92
24
32
87
21
31
86
20
31
78
21
30
74
21
30
88
24
35
90
26
34
95
27
39
112
57
92
129
64
107
150
40
68
177
39
61
175
34
56
176
32
50
171
37
58
159
36
53
143
42
53
128
43
46
120
37
39
111
27
36
107
27
36
103
29
41
102
30
41
97
24
35
92
20
31
89
18
28
87
18
28
82
17
27
81
17
26
84
21
30
86
21
32
85
19
30
148
49
81
148
53
86
170
44
72
180
34
52
182
34
52
174
33
52
152
36
57
137
37
51
132
45
57
119
32
44
109
25
36
109
22
34
104
22
36
101
23
37
100
23
37
98
21
34
95
21
31
92
22
32
89
22
32
86
22
32
87
22
33
87
21
33
86
22
33
76
24
33
177
37
61
168
33
55
169
34
56
177
31
53
159
31
50
109
28
43
70
28
40
58
31
39
73
32
40
92
26
38
97
23
35
105
26
38
108
32
45
103
34
46
103
37
49
103
39
49
102
41
50
104
44
55
104
49
59
104
54
64
106
57
68
107
60
70
108
60
70
78
46
55
158
31
56
160
28
51
169
31
53
161
30
53
91
27
40
46
36
43
62
62
69
72
74
87
53
55
64
61
32
40
97
33
46
108
47
58
115
66
76
114
62
72
117
66
77
118
73
82
120
78
87
123
83
94
127
91
101
129
98
107
129
102
112
131
107
116
132
108
116
80
72
82
147
37
63
151
28
50
160
30
53
110
28
44
51
38
45
74
78
90
98
107
119
113
129
151
95
111
132
53
47
56
96
52
63
118
71
82
124
84
96
126
87
98
127
91
102
131
98
110
129
97
110
125
94
106
130
102
114
134
107
121
130
105
119
124
102
114
117
97
109
64
68
81
138
51
79
141
31
54
134
32
52
60
28
38
60
65
74
99
114
130
111
131
149
116
140
164
117
139
160
70
75
85
91
64
74
130
93
105
125
89
103
129
97
110
125
92
107
133
102
117
132
104
119
119
96
110
108
92
103
93
84
95
79
77
89
73
76
88
69
74
85
52
71
85
121
56
79
131
43
62
107
38
55
43
41
49
77
89
100
112
132
150
136
158
175
132
156
177
117
140
156
83
94
106
97
79
91
133
102
118
128
101
118
129
109
124
111
93
108
96
83
96
83
76
88
77
76
90
76
80
93
76
84
97
81
95
108
102
120
133
127
148
163
143
169
183
101
69
92
116
65
85
85
51
68
45
55
69
90
106
120
118
141
159
138
161
175
138
162
182
115
140
157
89
104
118
94
81
97
102
89
104
84
81
95
75
78
91
74
79
93
77
85
99
83
94
109
99
113
128
128
145
158
164
185
194
195
215
219
220
234
237
228
239
243
231
244
247
69
85
101
78
87
105
62
72
90
52
70
88
97
120
136
121
152
175
135
164
188
125
150
174
121
147
168
89
110
125
62
70
82
67
79
91
74
90
102
88
103
118
113
130
147
154
171
187
192
210
220
219
236
241
238
252
252
242
255
253
240
255
253
236
250
249
229
239
240
219
231
236
57
77
95
58
79
94
54
76
92
58
83
99
97
123
143
136
170
197
122
152
174
124
151
174
128
157
176
88
111
126
88
107
121
111
130
146
151
168
184
198
214
223
227
242
245
238
252
253
242
255
253
242
254
254
240
250
250
236
246
248
220
234
240
214
229
236
203
218
228
208
227
237
100
131
148
87
116
133
76
104
124
70
103
122
84
114
136
114
142
166
123
150
173
124
157
180
119
149
167
133
156
170
173
192
202
212
227
233
235
248
249
240
254
254
240
254
253
238
253
252
230
244
247
224
237
243
214
230
239
204
223
235
207
225
236
215
233
241
212
233
240
217
241
244
191
225
233
169
200
213
156
187
202
149
181
195
137
168
185
117
147
167
138
166
182
158
182
199
191
209
221
223
239
243
238
251
251
242
254
253
241
255
253
238
253
252
237
252
251
235
251
249
215
232
240
203
221
234
206
224
233
206
226
234
213
234
242
219
240
246
220
242
246
217
239
241
