P3 24 24 255
87
116
74
107
139
93
110
144
96
107
144
94
80
111
64
74
98
56
94
117
78
51
72
38
52
73
42
46
61
43
26
29
28
54
59
58
96
118
89
88
121
68
106
134
87
91
120
73
83
114
66
68
99
52
106
146
97
139
187
135
132
181
127
142
191
137
126
176
122
148
200
154
54
79
42
64
92
50
77
105
59
80
110
59
81
105
60
58
77
39
35
55
18
51
71
34
58
80
42
48
66
41
45
25
27
93
63
72
72
75
55
77
103
56
104
129
85
75
103
58
77
108
63
80
114
72
97
133
96
128
167
130
145
188
145
150
196
150
159
208
161
180
228
185
63
90
46
53
80
36
56
82
40
54
81
39
81
101
63
60
75
40
39
58
20
51
75
36
68
96
55
61
64
41
106
57
64
129
78
88
63
60
41
49
78
33
90
118
77
77
103
68
87
111
85
102
123
105
112
131
116
126
146
130
153
181
160
166
203
176
186
229
197
178
223
184
94
122
75
68
96
51
38
65
26
43
69
35
58
77
43
55
71
34
42
63
24
43
71
30
75
105
64
123
106
88
200
122
132
156
82
93
59
42
26
38
63
24
83
109
75
104
122
106
97
108
108
82
87
95
66
66
73
45
46
51
50
59
65
70
89
88
124
151
138
156
194
160
64
92
49
61
88
47
44
71
34
46
72
39
36
60
24
24
49
9
32
57
18
33
60
22
67
92
53
97
71
54
162
67
77
175
74
88
80
36
28
42
45
19
82
93
75
93
99
102
63
63
82
32
29
48
15
8
22
26
16
34
57
49
76
51
48
68
72
76
79
113
141
110
60
87
53
80
106
71
59
85
48
59
85
46
66
98
56
78
115
71
79
110
68
61
85
46
59
76
40
68
42
23
104
7
12
164
47
58
143
70
70
101
73
62
90
82
80
57
51
68
48
43
69
35
34
48
21
17
24
65
53
74
77
60
96
79
58
90
72
54
66
88
107
77
92
127
84
121
153
116
130
161
127
98
127
89
76
114
70
114
164
115
122
168
119
106
137
98
57
69
45
89
58
48
135
45
50
122
15
23
151
65
67
146
87
83
84
65
61
40
29
41
50
42
64
18
16
29
18
14
22
51
39
58
40
23
55
62
41
69
50
33
42
85
105
68
91
134
79
77
116
73
138
172
138
132
163
126
95
130
83
105
148
93
105
148
90
88
110
70
64
53
38
159
102
105
221
133
146
120
47
53
98
52
48
92
55
49
78
63
59
33
23
32
28
21
39
6
3
18
12
7
18
26
16
29
26
15
35
38
26
45
43
36
42
109
130
98
112
150
104
49
83
43
102
133
95
104
132
91
82
107
62
90
114
66
84
102
56
61
52
23
100
56
46
210
124
135
255
165
184
156
109
119
71
77
74
118
132
133
82
76
91
25
19
39
13
9
29
7
6
20
9
6
14
18
9
18
18
7
23
13
2
19
37
29
42
123
135
129
141
173
136
70
98
62
79
104
69
100
122
89
77
98
73
63
86
68
76
91
78
80
65
65
85
35
46
184
97
114
217
131
152
100
68
81
63
70
83
120
124
147
65
59
91
31
27
52
12
8
27
29
25
40
27
20
32
21
11
22
25
15
27
15
5
19
32
22
39
89
91
103
64
88
59
39
60
33
34
51
30
39
50
42
68
83
86
115
138
148
145
163
181
107
101
127
108
71
99
155
85
106
98
35
49
24
5
14
35
30
48
60
39
70
33
21
53
34
25
47
23
12
28
54
39
57
79
64
88
59
47
70
59
49
61
39
30
37
61
51
61
135
131
139
60
82
57
63
82
59
46
59
51
67
72
88
140
142
162
138
145
165
134
143
171
101
93
124
125
93
120
130
73
94
46
1
15
11
8
15
11
20
29
22
9
30
22
9
33
32
18
33
28
10
21
38
15
33
70
48
80
82
68
99
100
90
101
71
64
64
80
75
75
134
132
127
128
158
132
125
154
141
87
103
111
80
77
104
78
60
85
55
38
58
91
81
106
84
68
93
102
73
94
86
53
73
21
0
20
9
8
25
23
26
39
16
9
23
20
8
33
26
11
26
26
8
11
26
2
6
33
10
25
58
43
59
82
79
76
105
114
101
111
127
117
109
126
116
152
182
155
138
163
154
79
89
100
34
24
47
25
6
23
25
8
22
68
54
75
61
42
63
64
37
53
54
33
45
12
1
17
11
6
27
29
23
43
18
8
27
15
3
30
19
5
21
26
7
12
35
10
12
38
13
24
32
15
26
89
86
81
129
145
127
137
165
147
126
154
138
155
176
148
103
117
104
34
35
39
15
4
15
14
3
10
11
5
11
45
34
49
38
21
36
23
1
9
24
5
6
13
2
8
12
8
24
24
19
39
12
2
24
32
22
43
35
22
35
26
7
14
34
9
18
47
20
37
59
39
54
130
126
126
142
158
142
142
172
147
164
194
170
176
192
166
71
78
67
13
9
11
10
1
6
8
3
3
8
4
5
17
7
16
21
9
17
21
11
11
18
5
2
13
5
6
11
8
19
45
40
55
23
16
29
99
98
105
83
80
81
6
0
0
20
4
12
21
5
15
29
17
25
71
69
71
116
128
118
146
169
148
198
225
202
159
179
157
36
41
36
6
1
6
4
3
6
5
5
1
11
4
2
12
1
6
28
23
25
81
86
78
65
57
52
45
35
37
36
34
40
80
76
82
73
69
68
114
127
112
133
145
127
59
63
50
9
6
7
26
25
22
54
58
50
59
62
63
54
58
59
91
98
90
208
229
213
115
131
121
17
22
23
3
1
9
2
5
9
5
6
4
14
4
4
12
1
5
39
40
38
110
126
114
113
111
104
97
84
87
97
96
98
113
116
110
133
137
123
148
169
145
169
191
164
142
158
137
18
23
20
72
78
70
179
191
173
195
203
198
158
159
164
78
75
82
152
160
160
71
74
80
9
10
18
3
4
11
5
7
13
20
21
25
17
11
17
13
6
9
64
67
64
119
133
124
122
123
115
119
103
103
141
142
139
144
163
147
163
175
155
167
179
162
164
181
161
162
177
161
46
50
51
75
78
75
172
184
166
167
182
166
116
122
121
54
49
64
71
62
78
51
45
57
7
3
13
15
15
20
82
83
86
103
105
108
29
27
31
25
21
23
118
124
119
145
162
151
131
137
125
123
109
106
149
154
147
137
162
141
139
155
130
147
154
134
147
160
136
163
175
154
72
72
68
62
68
60
164
188
162
179
204
178
147
162
149
39
38
44
44
40
44
49
37
53
10
2
12
40
39
41
99
104
99
77
84
80
14
17
17
48
50
47
99
110
101
123
145
130
133
145
129
115
108
100
143
152
141
160
190
165
174
197
167
168
192
160
165
196
159
186
216
182
114
131
115
64
83
66
173
206
174
188
222
187
203
224
201
95
101
94
77
85
73
35
23
39
13
8
16
67
72
69
102
116
102
60
74
62
10
18
13
97
105
97
139
156
142
149
178
158
167
185
164
130
129
116
161
177
161
182
217
188
188
219
184
170
211
173
164
212
168
174
220
181
146
181
158
68
92
73
173
201
172
174
206
172
164
189
162
136
150
137
151
165
149
27
20
36
30
31
37
108
123
114
152
178
156
141
164
146
69
82
74
64
75
65
165
187
170
177
210
187
178
200
176
151
154
139
175
195
177
171
211
178
162
195
158
159
189
157
161
197
162
174
207
177
166
189
174
63
73
65
134
146
130
188
210
185
161
186
163
174
193
179
186
201
191
34
25
42
81
83
90
151
168
160
131
162
140
136
165
147
137
155
146
40
52
45
112
126
118
196
213
204
212
227
219
204
211
207
210
226
219
204
230
216
196
215
201
173
184
177
162
175
167
193
206
199
196
204
204
51
52
57
15
18
17
127
138
131
211
224
218
205
217
215
207
221
220
