P3 24 24 255
129
142
136
108
118
111
165
167
163
198
200
201
195
197
199
156
167
166
141
155
156
107
130
128
92
120
116
104
127
125
102
125
123
93
119
116
107
131
126
175
184
183
182
191
190
101
128
121
146
161
158
100
126
119
114
136
133
113
138
135
127
145
145
108
129
128
110
133
130
138
155
151
203
200
195
119
127
120
139
142
137
198
197
198
171
179
179
93
121
114
135
151
149
116
136
133
128
147
144
119
139
136
124
144
140
118
140
136
114
137
132
176
182
182
136
154
150
95
123
115
139
157
153
91
119
112
122
144
140
128
146
143
155
167
167
107
130
126
105
130
124
125
143
139
163
166
157
115
132
122
136
139
134
191
191
191
182
185
187
146
159
157
174
182
182
170
177
177
187
190
191
171
182
180
178
187
186
177
183
183
168
178
177
195
200
201
170
181
179
164
175
173
179
185
185
159
169
168
147
163
160
90
118
111
128
147
143
159
171
169
157
171
168
165
174
173
111
125
117
102
118
108
127
131
125
188
188
188
182
186
187
148
160
158
175
181
181
171
179
178
152
164
162
179
187
186
170
179
178
195
197
198
153
166
164
174
183
182
176
183
183
157
168
167
194
196
198
205
206
208
177
184
184
153
164
162
171
180
179
198
201
202
200
202
203
201
201
203
55
85
76
84
102
92
141
144
135
188
188
188
182
189
189
92
120
113
140
157
153
174
184
183
95
124
118
152
165
165
171
182
181
196
202
202
121
141
136
141
157
154
169
179
178
141
158
154
177
184
185
168
182
181
141
155
155
160
169
170
173
182
183
182
189
191
170
180
180
164
175
173
123
133
126
135
138
132
162
159
154
189
193
192
204
205
207
128
147
143
111
135
129
201
203
205
79
108
104
105
129
127
196
199
200
206
205
207
151
165
163
108
134
127
179
186
186
128
145
142
123
148
144
129
146
146
107
129
127
127
145
145
119
137
137
129
147
146
110
130
128
128
146
142
151
148
140
161
157
151
177
176
177
199
199
201
195
198
199
150
165
162
89
119
111
166
176
176
95
120
117
90
116
113
150
164
162
206
203
206
176
183
183
104
128
122
180
183
184
114
137
131
93
121
116
159
170
172
124
145
144
119
140
138
111
133
131
111
133
131
117
137
135
185
192
192
169
169
168
181
184
182
195
199
201
201
202
205
179
186
187
164
176
175
134
152
149
146
159
158
134
149
149
143
157
157
137
150
149
198
198
201
195
197
199
160
171
170
190
192
195
144
156
155
134
149
148
147
162
162
147
163
163
147
163
164
139
154
154
147
161
161
146
157
157
193
195
196
201
202
205
199
200
203
197
198
201
196
198
200
192
196
197
192
196
197
193
196
198
191
195
196
192
196
197
194
197
199
193
194
196
195
196
198
197
198
200
198
199
202
196
197
200
194
195
197
194
197
198
189
193
194
194
197
199
194
196
200
191
194
197
193
196
197
196
198
199
170
174
177
183
189
199
185
191
201
186
193
202
187
194
203
187
196
205
187
195
204
187
196
205
190
198
207
192
197
207
192
197
207
192
198
208
190
196
206
190
197
207
190
196
206
191
197
207
193
199
209
193
199
209
197
201
212
199
202
212
202
203
213
205
206
215
208
210
217
210
212
220
197
203
211
172
186
202
177
191
208
180
195
213
185
199
216
186
200
217
186
199
216
185
199
215
183
196
212
184
195
213
189
200
218
189
202
219
190
202
220
190
202
220
189
202
219
190
202
220
190
203
220
194
204
222
198
207
226
202
210
227
208
213
229
215
218
234
220
223
238
222
226
240
223
228
241
168
182
201
173
188
206
177
192
209
180
194
212
180
193
211
179
191
208
176
187
201
173
184
198
180
192
208
187
199
215
192
204
221
192
203
221
190
201
219
190
201
219
190
201
220
191
202
220
193
203
221
192
201
218
189
199
215
194
202
217
203
207
224
204
209
225
210
215
230
216
218
232
142
153
172
147
158
175
152
164
179
162
174
189
169
181
196
160
171
185
153
160
172
144
152
164
157
167
180
177
187
201
191
201
219
194
205
223
194
205
223
194
204
222
195
206
224
195
206
224
195
205
222
194
203
220
179
188
206
156
166
184
151
164
180
154
166
183
164
176
192
175
186
201
129
136
144
122
130
138
127
136
145
156
163
172
160
165
171
149
154
159
141
144
152
118
122
130
140
146
154
169
176
185
184
195
209
190
203
221
194
206
223
194
206
224
194
207
226
195
207
226
194
206
224
193
202
218
193
201
218
160
171
188
131
145
162
116
129
148
112
128
147
114
133
154
163
165
167
158
162
164
163
167
171
167
170
176
150
151
154
134
136
135
128
128
132
107
108
110
122
127
126
143
148
147
160
167
172
173
182
195
185
195
210
188
201
218
191
206
225
192
206
226
188
202
217
174
184
195
176
182
192
177
183
193
162
168
181
117
127
143
101
114
128
101
114
130
154
155
161
159
160
163
145
146
151
140
140
147
133
134
137
98
99
98
86
85
90
103
103
104
74
76
71
89
90
87
95
93
94
100
101
104
118
122
130
141
149
160
177
188
204
193
205
223
175
186
200
136
143
152
117
120
128
116
118
126
129
132
142
122
129
140
109
119
129
105
112
123
156
156
163
149
149
155
136
136
142
119
120
127
112
114
118
83
84
85
78
77
81
125
124
128
88
87
90
88
87
91
96
94
100
112
113
117
139
140
148
161
164
176
184
191
207
197
205
223
199
206
223
196
201
216
195
198
212
194
200
213
200
204
218
202
205
221
195
200
215
192
194
208
157
158
164
164
165
173
172
174
183
171
173
182
168
170
179
127
129
135
113
112
116
156
156
163
157
157
166
155
155
165
162
162
172
169
170
179
178
179
191
187
189
203
199
203
220
207
212
230
215
220
237
218
223
239
218
221
238
203
205
222
193
195
210
202
204
217
209
212
225
209
211
225
187
187
197
196
197
209
196
198
211
190
192
205
182
184
197
159
161
172
154
156
165
173
175
188
176
180
192
175
179
190
172
171
184
166
165
178
157
159
168
151
154
162
158
160
172
178
180
194
209
211
224
213
215
229
206
209
223
195
197
211
171
173
185
153
156
163
156
158
167
164
166
177
183
183
195
191
193
205
200
202
215
206
208
222
207
209
223
206
208
222
201
204
218
203
208
224
205
210
224
205
210
226
209
209
226
193
193
208
184
186
197
184
186
198
170
170
180
148
148
156
145
145
155
159
158
169
167
168
179
171
172
183
178
180
192
178
180
193
156
158
170
150
152
162
131
132
140
138
139
148
149
151
159
161
163
172
172
175
186
183
186
198
189
193
205
198
206
222
208
211
229
214
216
237
161
161
178
93
95
103
97
99
107
167
168
180
227
227
238
208
208
216
163
161
173
131
130
140
123
122
130
126
125
133
130
130
140
142
144
155
158
159
171
150
150
162
97
95
101
99
97
103
103
102
108
108
108
113
114
116
120
122
124
127
130
131
136
147
146
155
162
164
176
156
156
170
48
47
52
10
10
9
19
19
17
54
54
57
186
186
192
242
242
252
215
215
230
172
173
185
139
139
150
101
99
107
66
65
71
86
85
92
136
135
143
138
138
148
80
76
79
80
76
79
82
78
81
84
81
83
86
85
84
88
88
88
90
89
92
111
102
95
123
114
109
68
67
72
10
7
8
37
34
35
50
47
47
23
20
22
79
79
82
212
211
224
219
221
240
204
207
221
179
179
192
90
89
98
51
50
52
91
87
92
71
69
74
111
111
117
70
70
70
72
70
70
75
71
72
76
73
73
76
74
74
75
73
74
76
74
76
84
79
77
92
85
84
38
38
38
18
18
18
77
76
80
78
78
82
44
42
44
33
31
34
131
128
138
181
177
180
184
184
188
186
188
198
135
135
143
87
87
90
106
104
110
66
64
70
81
80
85
