P3 24 24 255
145
179
223
148
179
223
148
180
222
154
186
225
149
182
219
127
158
192
65
89
119
85
115
150
141
178
218
145
184
225
146
183
223
144
183
225
146
182
221
143
182
224
137
183
230
136
169
206
142
164
191
136
172
213
138
176
217
138
176
217
138
175
217
136
174
216
132
174
216
130
173
216
149
183
223
150
182
223
150
182
222
150
182
220
147
180
215
141
171
203
60
83
111
98
128
160
148
184
222
147
185
224
150
185
223
148
186
225
149
185
222
146
184
224
140
186
231
146
177
212
153
173
199
142
178
215
143
181
219
144
182
220
144
181
220
142
180
219
138
181
220
136
180
219
157
191
229
158
191
230
159
190
228
159
192
227
158
191
224
162
192
222
100
123
149
135
164
195
150
186
222
157
195
233
162
197
235
159
196
234
159
194
230
155
193
231
147
192
235
153
184
218
160
181
205
152
187
223
154
190
227
153
189
226
152
188
225
150
187
224
146
188
225
143
187
224
158
194
226
158
195
226
164
194
226
168
196
226
163
195
224
160
193
220
110
135
162
135
163
193
154
187
222
161
197
235
160
198
236
159
198
234
157
197
232
154
196
231
151
192
227
157
189
217
159
187
211
153
191
223
154
192
227
154
191
228
153
190
228
152
190
228
151
191
227
149
190
226
166
200
228
166
202
228
173
201
228
173
198
225
162
192
216
164
197
220
103
130
155
149
177
204
167
198
229
162
197
232
159
195
233
162
199
234
159
200
233
157
199
233
158
195
227
163
193
218
160
189
213
156
192
224
157
194
226
157
193
229
156
193
230
156
192
231
155
193
228
153
192
226
174
203
228
173
204
227
179
202
226
176
197
219
166
190
209
164
192
209
119
148
165
160
188
209
177
207
232
174
205
233
172
203
236
172
204
236
168
204
235
166
203
235
167
200
230
173
198
221
167
191
214
162
198
226
163
199
229
163
199
231
162
198
233
162
198
234
162
198
229
161
197
227
185
209
229
181
206
224
184
203
220
186
202
217
189
205
217
150
169
179
116
141
151
157
183
195
183
207
224
183
206
228
185
208
234
181
208
235
177
207
235
175
206
235
176
203
229
182
201
221
174
193
211
168
202
225
169
203
228
169
203
229
168
202
231
169
203
233
171
203
229
169
201
225
198
214
228
197
214
227
197
211
221
194
204
211
207
212
217
190
197
200
130
146
148
176
192
197
197
212
222
196
211
225
197
212
230
191
211
230
187
210
231
184
208
230
186
206
225
191
203
216
183
196
206
178
206
220
176
204
221
175
203
222
178
206
227
167
194
217
162
188
208
177
203
221
198
208
217
198
207
216
199
208
212
191
195
195
203
199
196
186
179
175
132
131
127
179
182
180
203
207
210
194
201
207
205
214
223
198
211
221
194
211
221
192
210
221
195
210
217
198
203
205
188
195
195
185
206
210
187
208
215
188
208
218
187
207
218
169
189
202
156
177
189
185
205
217
189
192
196
183
187
192
191
195
194
211
210
204
205
193
184
194
174
164
127
107
101
160
146
141
179
171
169
126
125
124
190
194
195
190
199
199
189
202
201
187
201
201
190
200
197
176
177
168
177
177
166
173
185
180
169
182
179
164
176
176
173
185
186
142
154
157
138
154
159
154
170
177
168
167
169
178
177
180
169
170
166
193
189
178
191
174
160
194
166
153
157
123
116
209
181
175
192
174
170
88
81
77
103
104
100
133
139
131
185
195
185
173
184
175
150
157
145
141
139
122
155
152
133
149
156
143
149
155
145
108
114
107
114
119
114
88
94
90
96
109
110
97
111
115
125
117
120
131
124
123
140
141
136
121
121
114
123
112
102
164
140
132
136
105
97
179
144
130
201
164
146
143
114
95
138
117
102
145
133
118
143
136
120
114
119
104
95
111
101
94
105
92
106
112
96
81
96
90
75
93
90
64
84
83
64
84
83
66
84
82
55
74
82
55
73
84
146
137
142
163
153
149
132
133
131
98
103
100
129
124
121
168
153
148
135
114
103
197
162
140
199
151
120
153
106
75
182
143
118
235
210
192
157
140
121
132
136
121
111
139
137
104
130
128
113
130
123
101
126
131
89
121
131
79
117
129
81
121
131
81
119
126
80
110
127
86
113
133
106
110
113
161
153
148
147
149
146
122
126
123
155
150
147
189
176
170
141
123
109
206
176
152
201
160
127
183
142
110
228
200
173
245
233
216
167
158
141
141
148
136
163
192
194
103
131
136
105
123
123
103
128
135
89
122
135
74
117
134
73
120
137
70
115
130
75
113
131
82
119
138
38
52
53
66
61
55
100
102
99
120
122
121
161
156
152
177
165
158
156
141
124
199
176
151
191
159
127
182
150
118
220
196
169
239
228
211
178
168
150
140
143
129
193
214
215
136
157
165
127
137
139
126
142
145
102
129
138
86
124
140
82
126
144
80
124
141
84
122
140
85
126
145
46
59
58
27
26
19
52
54
51
50
51
50
104
100
96
125
115
107
159
147
130
165
148
124
141
118
90
186
163
135
191
171
146
187
171
152
149
131
109
140
131
110
200
208
204
169
176
178
143
138
134
141
139
132
132
142
142
118
140
148
114
144
154
112
143
153
107
136
152
98
133
153
55
61
57
25
28
20
108
111
107
71
70
69
57
52
48
55
46
39
96
87
72
85
73
55
81
66
46
102
88
68
134
123
103
169
153
137
165
141
118
170
150
125
223
218
205
206
200
194
172
155
143
164
147
132
166
159
151
145
150
148
141
153
153
132
145
145
115
133
144
96
124
144
88
85
77
23
31
21
115
119
115
88
87
86
101
95
92
110
102
94
137
131
119
84
77
65
94
87
75
38
33
21
60
54
43
64
54
49
95
74
62
143
122
102
173
166
153
159
151
143
155
136
123
150
130
115
179
168
159
176
173
168
159
160
156
129
132
127
105
121
123
94
125
138
134
127
112
43
56
45
42
48
44
56
54
54
73
68
65
117
111
104
136
131
124
94
91
86
114
113
109
88
87
82
122
120
115
40
39
50
21
11
16
21
9
1
17
17
11
20
20
16
31
20
13
46
33
28
52
46
43
48
48
48
47
49
48
39
41
36
73
97
92
89
131
136
138
126
104
60
63
47
51
44
33
55
39
32
70
52
42
105
87
76
110
95
86
94
86
80
100
98
95
74
73
73
117
115
117
36
39
55
17
15
26
22
19
17
13
17
14
10
15
13
15
13
10
12
9
8
8
9
10
5
9
11
3
7
7
17
22
18
77
106
103
87
132
136
203
186
162
177
160
135
158
127
105
150
109
89
121
79
60
124
86
67
129
97
80
116
96
81
105
97
85
77
72
69
133
125
131
39
34
41
14
12
14
21
20
15
25
24
18
22
21
19
19
18
19
20
22
21
19
22
19
18
20
16
16
19
13
21
27
19
75
105
111
88
129
139
160
149
133
212
195
176
228
200
183
228
193
175
218
184
165
214
182
163
197
171
148
152
136
111
163
156
132
153
147
127
166
157
142
104
96
87
59
53
44
38
32
19
23
17
5
16
9
3
15
9
8
17
14
9
15
12
6
18
15
7
20
17
7
41
42
30
72
106
105
73
121
124
100
95
88
204
188
177
219
197
188
213
189
177
150
128
112
173
153
132
165
147
116
176
164
129
188
181
143
196
190
149
202
194
153
207
199
165
204
197
165
177
170
137
158
151
122
135
126
107
105
95
85
80
71
62
61
52
42
52
44
31
43
35
19
77
71
54
85
97
90
83
102
100
115
110
108
156
144
140
143
130
127
98
83
77
101
89
75
151
140
117
133
120
85
143
133
93
127
119
72
132
125
71
140
134
76
146
140
85
153
149
93
165
161
106
180
174
126
188
181
143
189
179
154
190
178
166
200
188
175
188
177
162
176
165
148
180
170
151
183
166
152
176
157
146
