P3 24 24 255
90
110
84
156
157
139
96
94
85
49
54
51
41
44
41
43
48
49
49
60
60
41
48
45
31
35
32
59
69
63
73
90
80
91
117
105
83
108
97
90
113
107
87
102
93
124
144
133
121
125
107
124
116
73
128
124
81
143
142
91
137
137
87
119
112
73
116
105
77
135
120
110
140
151
128
195
195
168
133
126
108
50
50
47
45
43
39
41
40
37
42
40
39
43
42
39
35
35
29
59
51
46
60
60
51
77
93
83
87
107
97
81
105
98
107
124
121
124
133
121
125
133
106
98
98
79
64
60
57
79
74
68
92
85
83
111
99
89
143
125
113
184
166
162
133
153
129
165
174
156
106
104
96
66
63
65
65
64
75
59
56
64
49
44
46
46
42
42
48
47
43
60
56
50
41
37
32
83
97
91
99
123
111
93
115
106
122
143
143
136
145
144
109
108
102
44
43
41
34
32
33
44
40
44
48
45
50
89
78
82
168
150
149
209
193
191
139
166
141
145
168
152
116
123
121
74
73
87
71
71
92
81
79
101
69
66
81
82
79
84
98
97
83
70
71
60
38
38
40
55
57
62
95
99
109
92
89
104
87
83
102
76
70
87
41
38
44
30
28
28
32
30
31
38
36
37
38
37
34
65
57
61
150
135
139
201
185
180
133
172
141
115
147
123
99
107
106
64
64
79
68
68
90
80
78
104
83
80
107
92
87
119
95
90
110
101
98
107
85
80
96
73
68
83
70
67
88
77
72
99
60
57
74
38
37
42
31
30
30
35
33
34
36
34
35
33
32
32
34
32
30
49
44
48
93
84
92
162
149
152
136
171
137
151
177
152
108
119
117
63
66
81
65
67
87
79
79
102
83
82
106
84
81
109
93
89
118
89
84
110
86
79
103
95
87
114
105
98
128
79
74
98
42
40
53
36
34
38
31
28
32
35
33
36
39
37
40
36
34
36
34
32
32
46
43
46
69
66
75
102
94
106
101
145
105
134
164
138
86
98
94
45
50
61
56
59
75
59
61
79
56
57
76
66
67
86
78
76
100
64
61
78
50
48
60
83
79
103
127
118
149
127
120
146
51
50
61
37
35
43
37
34
41
37
35
41
42
40
45
40
37
43
39
36
40
43
41
43
61
59
65
89
84
93
136
167
130
120
147
118
56
66
63
42
44
51
45
47
56
43
43
51
43
45
53
45
46
53
45
44
54
39
37
44
44
43
52
71
67
88
85
77
100
126
116
142
72
68
82
43
40
49
41
39
46
39
37
42
43
41
47
47
46
52
45
44
50
42
41
43
51
50
52
86
81
89
143
174
129
94
120
94
41
48
49
32
35
37
35
36
41
28
27
32
29
28
33
33
32
36
34
32
38
33
32
36
45
44
52
62
59
75
73
67
85
81
73
92
61
56
69
44
41
49
34
32
37
38
36
41
42
40
46
49
48
54
52
51
57
46
46
50
52
51
55
69
66
73
118
146
99
91
116
88
38
43
42
33
34
35
33
33
37
24
22
25
25
22
25
25
23
26
30
28
31
29
29
31
37
36
43
52
51
62
51
48
61
57
51
62
53
48
58
44
41
48
35
33
36
36
34
39
42
40
46
51
50
57
54
53
60
54
53
60
51
50
56
48
47
53
118
145
97
107
127
93
41
46
38
31
32
36
38
38
43
27
24
28
21
18
20
23
22
25
28
28
31
28
28
31
36
34
43
48
46
60
42
41
50
39
35
41
42
38
45
42
39
45
32
30
35
35
33
38
41
39
45
47
46
53
57
56
64
58
57
66
53
52
59
43
43
49
106
135
87
108
128
96
53
58
51
32
31
31
37
36
40
46
44
53
45
43
51
32
33
38
38
38
46
30
29
34
37
36
46
43
42
54
40
39
47
35
32
37
34
31
36
35
33
38
39
37
42
36
34
39
39
37
42
47
45
50
57
55
63
65
62
71
52
52
58
36
37
40
109
136
103
127
146
128
60
66
58
24
24
23
45
45
53
51
49
62
55
52
66
46
44
52
36
35
41
28
27
32
36
35
43
38
38
48
34
33
40
32
29
32
35
33
36
37
35
40
39
37
42
34
32
36
42
40
45
48
46
52
54
53
61
64
62
73
57
57
63
33
34
34
139
165
140
113
136
113
57
66
55
29
29
31
54
55
65
84
80
96
85
79
97
51
49
60
32
30
35
27
26
30
25
24
29
28
26
33
31
29
35
28
26
28
35
33
36
41
38
44
41
39
45
34
32
36
41
39
44
54
52
60
55
55
63
67
65
76
81
77
86
46
44
50
97
128
98
76
102
74
55
65
53
30
29
28
38
38
43
96
88
108
83
78
95
42
43
56
35
34
42
22
21
25
24
22
25
25
23
25
25
23
26
25
23
26
32
30
35
40
37
43
46
43
51
41
40
45
40
40
43
53
52
60
56
56
64
88
82
89
194
188
190
170
167
169
73
101
66
47
72
46
54
66
51
35
34
33
37
35
38
106
100
113
94
88
102
37
37
43
31
30
34
23
22
25
26
25
29
28
26
30
28
26
30
32
30
34
34
32
38
38
37
43
42
41
47
44
42
49
43
42
48
52
51
57
50
48
56
133
127
135
240
237
237
236
235
235
77
106
70
80
99
73
60
68
57
35
34
38
32
33
35
45
45
48
60
56
64
24
23
25
20
18
22
26
25
30
35
34
40
32
30
35
34
32
37
32
30
35
33
32
38
35
34
40
36
35
41
41
40
46
42
40
46
50
50
55
44
43
49
153
149
156
218
212
212
161
153
153
95
123
96
81
106
79
101
114
103
190
183
183
93
87
89
85
82
94
93
86
95
27
25
27
27
25
30
35
34
40
35
34
40
28
26
31
29
27
32
35
33
38
37
36
42
36
35
41
37
36
42
39
39
44
38
36
41
52
51
54
67
64
67
131
126
129
179
168
168
182
168
167
76
105
97
59
78
52
171
174
167
255
253
254
186
177
183
107
102
117
101
92
106
32
28
32
26
24
28
31
30
35
25
24
29
25
24
27
30
28
33
31
29
34
35
34
39
39
38
44
41
41
46
42
42
47
53
51
55
76
71
72
123
114
112
156
144
143
181
169
168
190
178
176
78
112
113
108
122
113
177
168
161
241
238
241
198
189
194
112
104
112
111
102
114
36
33
37
24
23
28
27
25
30
25
24
26
25
24
28
28
26
31
29
27
32
31
29
33
40
36
40
40
38
44
36
35
39
56
53
56
113
103
103
163
149
148
180
166
165
189
177
175
188
177
176
69
98
103
92
114
128
141
138
138
215
199
198
195
175
176
127
110
117
133
121
133
46
41
45
24
21
24
27
25
28
26
24
27
29
27
32
28
26
31
27
25
30
27
26
30
37
35
40
40
37
43
44
39
42
85
76
76
148
134
132
176
162
162
187
172
172
187
173
172
187
174
172
77
105
105
57
80
82
106
116
139
195
187
196
206
195
202
120
108
118
157
146
161
64
60
70
24
23
27
26
24
28
28
25
31
30
28
33
29
28
33
31
29
34
36
35
42
43
40
47
54
48
50
94
83
84
151
137
134
178
163
160
188
174
173
186
172
171
193
177
176
192
179
176
99
127
133
54
68
59
72
81
96
124
124
153
171
159
172
145
123
130
117
98
109
84
76
87
40
39
43
33
31
38
36
33
43
33
31
39
32
31
37
34
33
38
36
36
42
70
64
70
140
126
125
183
167
165
194
178
177
188
174
173
187
173
170
189
175
174
188
175
174
193
182
181
106
132
141
85
98
89
63
62
60
74
79
103
113
110
140
145
127
143
146
123
129
106
87
94
103
93
95
164
158
159
151
145
148
89
83
92
95
89
103
52
49
57
33
31
39
94
86
83
192
162
154
223
194
197
208
195
192
190
178
173
189
177
172
194
181
178
190
179
174
192
182
178
