P3 24 24 255
48
51
51
49
53
53
35
39
39
38
41
42
35
39
42
53
59
62
29
36
40
42
46
51
55
54
59
73
72
76
129
128
128
151
150
149
168
167
166
173
172
171
172
171
169
165
165
162
162
161
159
160
159
158
151
150
151
171
171
173
154
151
148
133
127
118
127
123
121
73
72
73
50
55
56
55
59
60
38
42
43
38
42
44
48
52
56
83
87
91
48
52
56
100
104
108
139
137
139
158
156
156
172
171
167
167
166
160
156
155
151
155
155
150
156
155
150
150
150
145
150
147
143
150
148
146
132
132
131
178
181
183
153
151
147
92
82
73
170
163
163
97
96
99
49
53
54
55
59
60
39
43
43
49
53
55
51
56
58
69
72
73
117
119
118
160
160
157
167
164
159
158
155
149
153
150
145
148
145
140
147
145
141
150
149
145
143
142
138
134
133
129
131
128
124
135
133
131
121
121
121
174
177
179
159
158
154
73
63
54
157
150
150
122
121
123
34
38
39
62
66
67
68
72
73
56
60
62
52
58
58
108
110
107
153
151
145
145
140
131
151
145
134
143
137
127
141
134
126
142
136
130
151
149
144
150
149
145
132
131
127
119
118
114
108
105
102
112
110
108
118
118
118
176
178
181
170
168
164
85
75
66
146
140
139
131
130
132
32
36
38
51
55
56
79
83
84
49
54
54
71
77
75
136
138
132
150
146
136
149
142
129
143
137
120
136
130
116
137
130
120
141
134
128
145
142
138
137
136
132
116
115
111
105
104
100
105
102
98
109
107
104
121
121
120
179
182
185
197
196
193
109
100
91
125
119
118
123
122
124
26
30
32
44
50
53
68
72
71
44
47
43
109
110
104
136
133
123
136
132
122
137
134
124
128
121
103
129
119
102
143
134
123
145
141
136
142
143
139
123
123
119
102
99
95
98
93
89
110
108
104
113
114
110
133
134
133
173
180
187
209
214
218
138
132
127
113
107
101
101
101
98
39
41
44
65
71
74
78
82
79
81
81
75
126
124
115
131
124
113
116
111
101
127
126
118
125
116
104
113
101
85
141
131
118
147
144
135
143
142
134
116
114
108
108
106
102
109
106
105
115
115
112
111
111
106
136
138
135
175
184
191
207
216
224
135
135
134
111
106
99
112
110
102
66
67
68
84
89
90
94
95
91
126
125
117
136
132
122
130
121
109
116
109
97
136
132
125
148
139
132
123
110
98
122
113
97
134
132
118
126
121
109
119
114
105
140
139
136
141
143
146
132
133
131
113
112
105
124
124
121
177
184
189
211
222
230
147
151
153
126
122
117
127
121
111
68
67
65
80
82
81
120
120
113
146
143
133
137
131
120
129
119
104
121
112
99
123
118
109
135
126
117
152
140
126
120
111
96
118
115
103
139
136
125
145
142
134
161
159
156
161
161
162
136
136
131
101
98
88
118
116
110
162
167
171
200
208
216
192
195
196
149
145
139
116
111
102
99
96
95
112
113
110
137
135
128
133
129
117
121
113
101
95
82
67
67
56
42
70
64
52
94
86
70
120
108
92
115
105
93
143
140
134
167
168
162
152
152
146
167
164
160
163
158
156
129
125
118
96
91
81
105
102
96
168
172
175
194
198
203
183
179
177
135
130
122
110
109
103
73
73
71
135
135
130
134
132
122
124
118
106
111
100
86
82
69
55
67
55
41
90
81
68
78
71
55
108
100
86
151
143
134
163
158
152
141
138
129
116
114
106
138
136
130
155
153
150
128
121
113
126
118
108
103
102
96
157
161
161
186
186
186
166
160
153
136
133
119
104
101
91
78
79
76
127
126
119
139
136
124
130
123
110
109
99
84
82
71
57
84
74
59
106
96
82
91
84
71
89
83
71
151
144
135
130
123
115
90
84
71
107
102
90
110
107
99
150
149
146
142
135
127
150
141
131
105
102
96
120
122
119
173
172
169
177
171
162
154
149
134
132
127
114
99
98
95
132
129
121
142
137
125
116
110
94
93
86
70
101
93
77
93
85
69
80
73
57
68
62
49
81
75
63
141
134
125
131
124
116
104
97
82
118
112
96
101
97
86
137
135
128
171
166
158
158
149
139
138
130
120
111
108
102
160
159
155
189
184
174
186
178
164
150
143
131
126
123
118
127
122
112
119
112
98
95
88
71
132
126
110
154
148
132
141
135
119
131
125
109
133
127
113
115
109
97
151
144
135
149
142
133
118
110
92
115
108
88
117
111
96
143
139
128
153
150
143
183
174
165
169
155
141
134
126
118
141
141
135
189
186
176
189
177
164
152
143
132
149
144
137
130
123
112
114
106
91
139
133
115
149
145
128
147
143
126
153
149
132
148
144
127
133
128
113
135
128
117
162
155
146
181
174
165
138
128
108
119
110
87
120
113
96
151
146
132
147
146
139
189
180
170
158
141
124
125
114
103
115
114
107
139
135
125
149
135
123
155
145
134
144
138
127
140
134
121
146
141
125
150
146
126
144
139
119
133
128
109
156
151
134
145
141
122
130
128
109
138
131
122
146
139
129
173
169
162
145
135
119
137
127
104
139
132
114
145
140
130
151
146
139
168
159
149
129
117
103
127
118
107
121
114
105
128
119
109
157
145
136
166
158
150
141
138
126
148
143
128
155
149
129
150
144
120
150
144
118
141
135
112
127
120
100
135
130
109
141
141
123
152
144
139
154
148
138
182
178
175
153
144
132
141
132
111
130
124
106
123
118
110
152
145
137
162
153
141
138
131
119
147
140
128
142
133
121
137
125
114
138
129
119
170
163
156
148
149
138
155
150
130
143
133
108
157
147
119
159
154
124
161
155
127
143
137
112
130
126
103
134
132
121
141
134
129
129
123
112
178
175
173
164
157
147
117
109
89
149
142
124
162
155
144
172
164
154
151
143
129
147
139
125
148
140
126
143
134
120
147
136
123
134
126
114
170
164
154
154
154
140
150
147
120
140
131
104
150
142
116
151
146
117
149
143
117
159
153
129
146
141
120
144
143
134
140
134
125
129
123
105
171
170
163
195
191
181
143
137
118
145
138
119
178
168
156
177
168
155
130
123
105
134
127
110
151
144
127
150
141
125
134
123
107
132
124
110
164
158
146
156
152
133
158
156
124
157
153
128
164
159
139
160
154
130
153
146
125
164
157
138
153
148
131
160
159
147
166
161
144
142
138
110
146
145
132
186
183
173
151
146
128
148
141
122
172
161
147
145
135
120
130
124
105
130
123
105
139
132
113
140
132
114
126
116
99
128
120
104
132
126
112
170
167
151
178
177
157
187
187
171
188
186
172
186
181
164
185
180
163
178
174
155
169
165
146
174
169
148
178
172
150
174
167
143
167
162
144
169
165
146
159
156
132
174
168
144
153
146
124
132
126
104
133
128
106
152
146
125
155
150
128
144
138
120
151
144
130
137
131
117
125
119
106
171
171
159
187
187
175
187
187
175
183
181
169
193
190
176
191
188
172
174
171
152
184
181
160
193
189
164
192
187
165
183
178
158
191
186
167
176
172
147
173
169
141
175
171
144
160
156
129
158
154
128
159
154
128
160
156
130
160
156
129
158
154
130
155
150
131
143
138
119
148
143
124
155
153
142
175
173
161
168
166
154
171
169
157
173
169
157
177
173
160
179
176
160
188
186
166
190
191
167
189
190
168
187
188
168
197
197
179
183
180
157
191
187
162
195
191
166
184
180
155
189
185
158
171
167
139
165
161
132
162
158
130
165
161
131
162
158
127
161
157
127
160
157
126
156
150
140
162
157
146
162
156
146
162
157
148
156
152
143
162
158
147
191
188
174
192
189
172
161
160
139
178
177
158
176
174
158
177
175
160
178
174
155
178
173
152
189
184
163
188
183
162
191
186
163
169
165
140
179
174
150
183
178
154
177
173
146
172
168
138
173
170
140
172
169
139
