P3 24 24 255
38
36
41
41
39
40
72
65
63
109
95
90
129
113
105
143
126
115
154
137
125
143
130
119
84
75
66
26
21
15
12
8
6
9
6
6
2
1
1
0
0
0
0
0
0
2
3
3
7
5
6
7
4
6
8
5
7
6
8
7
3
9
6
2
9
5
3
8
4
5
4
2
37
35
40
38
35
37
65
57
54
102
88
81
124
107
96
145
126
111
162
141
123
164
143
124
154
133
114
122
102
84
106
87
70
97
80
64
77
65
50
68
60
46
61
55
42
47
41
29
46
39
29
54
44
36
52
44
37
38
34
26
23
23
14
13
15
6
16
15
8
35
29
23
38
35
40
38
35
36
62
53
48
103
86
73
132
112
95
156
134
116
173
148
128
187
159
136
194
162
137
195
161
135
192
160
132
191
163
133
197
173
144
205
186
157
186
169
141
165
147
122
170
150
126
173
150
126
169
143
116
152
127
99
128
106
78
108
86
60
108
85
61
130
105
83
41
39
44
47
44
46
83
73
65
129
109
89
153
131
108
163
141
121
160
135
116
158
130
109
183
150
127
196
160
135
204
171
145
194
166
139
205
179
150
211
187
156
187
162
130
198
170
137
199
166
134
194
158
124
199
163
125
199
164
125
196
162
124
191
157
122
180
147
114
171
140
109
50
44
44
76
66
60
108
92
78
109
85
65
96
71
52
109
85
69
141
120
104
155
134
117
180
155
136
200
169
149
210
184
162
218
196
175
229
206
185
207
183
161
167
140
117
161
130
104
166
132
104
182
147
116
196
163
129
199
167
131
198
165
131
198
165
133
197
167
137
196
169
141
74
59
48
124
100
79
139
111
86
96
66
44
73
37
20
106
67
53
149
114
100
173
147
128
191
166
145
197
168
146
208
182
157
210
187
163
191
166
146
134
107
90
82
54
38
80
52
35
105
76
55
128
97
70
174
141
110
195
160
126
193
155
120
193
155
120
194
159
126
199
168
138
85
63
46
113
82
58
137
108
80
142
114
88
122
80
63
131
74
64
138
83
73
142
99
84
169
137
116
187
160
135
190
161
131
164
133
101
160
128
97
147
114
83
144
110
78
155
120
85
176
141
103
169
134
95
184
148
111
199
161
125
195
157
120
191
153
116
196
159
123
195
160
125
98
77
58
117
90
70
140
118
100
167
153
139
182
154
150
166
123
127
188
146
152
215
186
186
220
203
196
211
197
185
202
178
155
193
161
131
184
151
119
177
144
107
170
137
97
174
140
98
183
148
106
186
151
111
187
153
116
197
163
127
205
172
137
196
163
128
192
158
122
200
165
128
119
105
92
149
133
123
158
144
138
162
152
149
169
151
154
152
128
136
171
152
160
203
194
197
216
210
209
205
195
192
201
181
171
209
184
167
213
187
164
203
177
147
191
164
129
182
154
118
185
156
121
191
162
128
198
169
135
215
188
156
234
208
177
226
201
170
196
169
136
194
162
126
130
116
104
141
127
120
140
125
120
128
110
107
117
96
96
122
102
103
139
122
123
156
143
143
182
168
167
192
174
173
191
172
164
196
177
163
218
200
183
225
208
186
218
200
177
204
186
161
188
167
140
179
155
127
181
155
124
183
157
127
197
173
144
225
201
172
222
197
168
190
163
132
112
91
78
111
93
80
106
88
81
113
95
92
143
125
124
172
155
154
180
164
164
171
154
155
156
141
142
157
142
143
167
153
144
180
168
154
194
183
170
216
207
194
231
223
207
232
220
202
210
196
174
190
171
146
186
163
135
181
156
127
170
145
115
187
161
131
218
190
161
217
189
159
96
74
59
94
74
61
93
76
67
117
103
99
154
141
139
176
165
163
200
190
190
212
204
206
196
190
193
167
162
165
150
145
142
160
156
148
164
162
155
191
189
181
226
223
213
238
232
217
221
212
193
205
190
168
193
173
148
192
169
143
190
166
138
177
150
120
181
151
119
197
164
130
94
71
55
101
79
65
113
95
84
129
115
105
141
130
122
155
146
140
182
176
172
198
195
193
206
206
206
210
211
213
204
205
203
211
212
208
206
208
204
211
213
208
239
239
230
247
242
228
230
219
201
214
198
176
192
169
144
180
155
127
184
157
127
183
154
122
174
142
109
167
133
98
92
67
51
98
75
60
111
92
77
122
106
90
127
113
99
131
121
108
145
137
128
158
155
148
162
162
157
175
177
174
192
194
191
214
215
212
219
221
217
226
227
220
237
234
224
237
229
213
226
213
192
212
193
167
193
166
136
180
150
119
180
150
118
184
154
122
191
161
128
192
162
130
97
71
56
95
69
56
99
75
62
105
87
72
112
96
82
120
106
93
124
114
102
131
123
112
141
135
126
152
148
139
170
169
161
180
180
171
192
189
177
207
200
185
215
204
186
213
200
179
204
190
168
203
188
164
205
187
160
209
189
162
209
187
160
209
187
160
211
188
160
209
184
157
108
83
66
110
82
69
106
80
66
102
79
64
108
87
71
116
97
82
119
103
88
124
111
96
132
121
106
152
142
128
169
162
147
172
165
149
187
176
158
185
172
151
194
179
156
213
200
178
215
203
184
222
212
192
229
217
194
229
216
192
224
209
184
221
203
179
219
199
173
211
188
162
102
77
58
111
84
68
110
82
66
110
84
65
120
94
74
124
101
82
126
106
87
127
110
91
122
105
87
122
106
89
122
108
90
139
124
106
148
132
111
138
121
98
160
143
121
175
161
141
182
170
153
208
198
180
222
209
187
221
206
182
210
194
170
201
182
158
200
179
153
200
178
151
91
66
45
101
74
56
103
76
59
110
84
65
126
101
82
137
114
94
139
119
100
141
123
105
138
122
104
131
116
99
129
115
98
141
126
108
135
117
96
127
107
84
147
126
103
140
119
98
149
132
112
181
167
146
183
169
147
183
169
145
190
175
150
193
175
150
197
177
151
196
173
147
94
68
47
99
72
53
102
76
59
110
87
71
128
107
90
145
126
108
151
134
116
153
137
121
156
142
125
158
145
129
161
149
135
173
160
145
173
156
138
153
133
111
157
135
111
153
129
104
158
136
111
157
137
113
164
148
124
186
171
147
205
188
163
209
190
165
207
186
160
204
181
154
93
64
46
103
75
55
113
88
68
113
92
75
122
102
85
138
119
99
154
137
115
179
163
141
187
171
151
177
162
145
164
148
133
174
158
142
190
176
160
190
177
158
194
180
158
179
163
136
174
156
125
169
148
117
177
154
126
178
155
127
182
157
129
189
163
135
194
167
137
190
162
132
107
75
57
113
84
62
115
87
63
120
92
70
137
110
87
159
135
110
177
157
131
193
176
152
202
187
167
196
181
165
185
172
154
184
170
151
188
175
156
208
195
175
193
179
156
196
177
150
199
175
144
198
171
137
192
162
129
186
155
122
181
149
116
177
144
110
174
140
105
180
145
110
119
86
66
122
91
67
129
97
70
138
103
75
142
108
80
150
120
90
169
144
115
190
170
143
198
181
159
199
183
165
204
190
168
211
197
174
207
193
170
194
178
154
185
166
141
203
178
149
198
167
134
199
165
130
202
167
131
197
161
124
192
154
117
195
157
118
202
163
123
208
168
127
120
85
64
131
98
73
136
103
74
138
101
73
141
105
75
153
119
87
167
137
103
181
154
122
187
161
133
196
171
145
211
188
163
201
180
156
187
167
143
205
186
160
194
173
144
190
165
132
195
165
129
201
168
130
208
172
135
211
175
138
208
170
133
198
159
121
187
147
108
187
146
106
144
113
91
151
122
97
150
122
94
152
121
93
161
129
99
173
142
110
182
151
117
188
157
124
187
157
125
183
153
123
189
161
135
193
167
143
188
164
138
213
189
163
206
182
153
196
172
139
199
173
136
211
181
144
217
183
148
217
181
147
210
174
138
197
161
123
195
158
119
200
163
121
