P3 24 24 255
17
13
9
16
10
6
13
7
3
14
7
3
15
10
8
13
10
9
12
9
8
13
10
9
14
10
8
22
15
14
57
46
45
112
96
97
101
82
82
103
82
76
91
70
61
85
64
53
92
71
60
101
80
69
99
78
67
90
69
59
88
67
57
104
84
74
80
65
60
44
34
32
12
8
7
12
8
7
11
7
6
8
4
3
13
5
7
16
7
9
14
7
8
11
7
5
11
7
4
34
27
24
95
82
80
135
114
112
125
99
98
122
99
91
108
88
75
91
72
58
89
70
56
99
80
66
104
85
71
97
78
64
96
77
63
101
82
68
69
55
46
37
25
21
10
6
5
13
9
8
14
10
9
10
6
5
16
10
9
20
13
13
16
11
9
15
10
7
21
14
10
47
37
32
104
89
85
149
130
125
134
111
107
122
101
92
113
94
81
100
81
67
99
80
66
102
83
69
95
76
62
95
76
62
103
84
70
92
73
59
64
50
41
32
22
18
10
6
5
12
8
7
18
14
13
15
11
10
13
11
8
21
19
14
21
17
12
20
12
8
28
18
13
53
39
33
90
74
67
124
107
100
116
98
90
114
95
84
105
86
73
100
81
67
106
87
73
110
91
77
101
82
68
95
76
63
106
87
73
88
70
56
62
50
40
28
21
16
8
4
3
7
3
3
14
10
9
14
11
9
11
11
6
11
12
5
12
8
3
18
8
4
34
20
14
56
39
32
75
57
50
99
83
73
116
101
90
123
105
93
119
100
86
107
88
74
101
82
67
100
81
67
97
77
62
86
66
52
82
62
48
77
58
43
65
54
43
40
34
27
10
6
6
10
6
5
10
6
5
12
8
7
9
11
5
12
14
5
16
11
4
26
14
8
41
24
18
55
36
28
67
49
40
87
72
61
112
100
87
156
139
126
166
147
133
141
122
109
114
97
84
113
97
85
128
113
101
119
105
94
113
99
88
113
99
89
126
120
113
108
109
104
10
6
6
10
6
6
9
5
5
9
6
6
5
6
2
8
7
1
17
8
3
30
14
10
44
23
21
53
32
30
57
41
36
65
56
49
65
62
53
100
95
85
134
130
120
141
144
137
142
156
151
149
173
170
153
183
183
147
180
181
142
175
177
141
173
175
133
167
169
126
158
160
6
2
3
6
2
3
6
2
3
8
5
6
8
10
7
17
17
15
24
19
18
28
16
18
34
18
21
40
24
27
40
29
31
41
38
36
43
47
44
42
50
48
47
59
59
60
82
83
89
126
127
124
173
175
140
196
198
128
187
188
122
180
179
108
162
161
120
168
168
139
179
179
9
5
6
13
9
10
18
15
16
31
28
29
33
36
38
37
41
44
41
41
45
37
34
39
33
27
33
35
29
35
36
33
38
25
27
31
26
31
33
34
31
37
31
27
35
25
29
37
46
62
70
97
124
131
145
178
184
152
187
190
113
147
147
45
77
75
83
121
120
123
163
162
37
33
34
37
33
34
36
32
33
38
35
36
34
35
38
33
36
40
32
34
39
34
35
39
37
36
42
39
39
44
41
42
47
42
45
49
41
45
49
40
44
46
35
44
45
23
39
42
25
52
57
60
100
108
112
163
173
122
177
188
96
149
160
53
105
115
69
125
135
92
149
159
30
26
27
22
18
19
18
15
16
15
12
13
10
8
9
10
8
10
10
9
10
10
9
11
11
10
12
13
12
14
18
18
20
35
34
36
43
41
44
37
40
47
32
44
55
21
43
62
16
50
77
22
71
106
34
95
139
42
110
162
40
109
168
37
106
165
47
123
164
61
139
168
7
3
3
6
2
2
5
2
2
3
0
0
3
0
0
4
0
0
5
1
2
5
2
2
4
2
2
5
2
2
4
1
2
5
1
1
5
0
2
7
1
9
9
5
17
10
12
31
17
29
60
23
43
97
18
47
126
18
55
151
17
60
161
16
64
159
21
84
162
29
107
170
12
8
6
11
7
6
10
6
5
8
4
3
6
3
3
7
3
4
7
3
4
7
3
4
7
3
4
7
3
4
8
4
5
10
6
7
12
8
9
7
5
5
4
5
2
1
4
5
5
11
28
14
26
73
20
40
120
23
49
152
19
55
158
12
57
149
16
70
161
20
91
174
11
7
6
10
6
5
10
6
5
10
6
5
11
7
7
9
5
6
7
3
4
7
3
4
6
2
3
6
2
3
8
4
5
10
6
7
13
9
9
11
9
7
7
9
8
6
11
21
12
23
52
15
35
89
12
39
117
16
50
143
23
65
159
12
59
147
12
66
154
19
84
165
8
4
3
10
6
5
12
8
7
10
6
5
10
6
7
10
6
7
9
5
6
7
4
4
7
3
4
7
3
4
8
4
5
9
5
6
10
6
7
10
8
5
7
9
13
11
19
41
21
38
82
20
48
111
12
49
123
24
67
148
22
68
151
15
64
148
20
74
160
23
82
160
8
4
4
8
4
3
8
4
3
8
4
3
7
3
4
8
4
5
8
4
5
7
3
4
7
3
4
8
4
5
9
5
6
10
6
7
10
7
7
6
6
3
5
9
16
21
32
65
28
50
108
24
59
130
28
74
146
30
81
150
17
66
138
25
75
154
22
78
160
25
78
155
12
8
7
12
8
7
11
7
6
9
5
4
7
3
4
6
3
4
7
3
4
6
2
3
5
2
2
5
2
3
5
2
3
6
3
4
6
4
4
5
4
4
17
21
35
38
52
93
32
59
124
20
61
135
32
82
154
26
80
148
21
75
147
23
74
158
22
72
151
28
70
137
11
7
6
12
8
7
10
6
5
9
6
5
8
7
7
7
6
6
6
5
5
4
3
4
3
2
3
2
2
2
1
2
1
1
2
1
1
3
4
9
5
19
29
31
62
34
53
101
27
65
127
23
71
141
23
73
146
21
69
146
21
67
153
17
63
156
33
63
126
42
57
94
8
5
4
13
9
8
12
8
7
8
4
3
6
4
4
5
5
5
4
4
4
3
4
3
3
3
3
2
3
2
2
2
2
3
3
3
6
4
6
18
14
29
35
39
71
34
54
105
34
69
135
33
74
149
23
61
136
24
57
128
19
51
119
26
58
123
43
57
92
41
41
54
8
5
4
12
8
7
12
8
7
9
5
4
7
3
3
5
2
3
3
3
3
2
4
3
2
4
3
2
3
3
4
1
2
9
2
4
15
4
9
29
21
36
36
39
71
37
53
104
38
62
128
34
59
129
22
42
105
20
33
81
14
28
62
27
43
67
39
39
46
45
34
32
9
5
4
9
5
4
9
5
4
9
5
4
9
4
5
6
2
3
4
4
4
3
7
6
4
7
6
5
5
5
8
3
4
14
1
5
32
12
20
47
31
52
44
39
74
38
45
92
34
47
99
24
36
84
13
18
53
20
19
38
23
22
29
20
24
25
37
27
22
46
28
21
11
7
6
12
8
7
13
9
8
13
9
8
11
5
6
8
4
5
8
8
8
6
10
8
3
8
6
3
4
4
9
2
4
18
2
5
47
20
31
59
33
63
52
35
77
40
35
77
25
27
61
14
16
36
17
13
19
25
17
13
28
21
17
17
16
15
35
23
21
44
26
24
15
10
10
16
11
10
15
10
9
12
7
7
9
6
8
10
8
12
11
9
13
7
8
10
3
6
6
4
6
5
11
5
6
22
1
5
62
23
35
67
26
53
59
29
60
42
26
52
23
18
35
14
12
19
18
12
13
23
13
10
25
17
14
11
9
9
23
15
16
34
21
23
15
9
9
15
9
9
14
8
8
13
8
8
10
9
12
11
10
15
10
7
12
7
5
9
5
7
7
6
9
8
14
8
8
28
4
7
76
26
39
81
26
47
72
29
51
45
20
36
21
12
21
13
11
16
13
9
13
13
7
9
8
6
6
3
5
2
9
7
6
22
14
16
