P3 24 24 255
30
54
67
33
58
75
30
56
77
27
57
81
31
66
92
33
73
102
29
73
106
29
74
109
45
87
120
35
77
110
26
68
102
27
69
102
28
69
102
27
67
100
26
63
97
27
62
96
27
67
98
29
69
96
32
69
93
33
65
86
31
62
80
30
62
78
33
63
77
31
58
70
48
76
85
55
81
96
30
53
75
23
46
69
27
55
73
33
66
87
27
66
92
31
72
100
91
127
154
66
101
129
36
72
100
36
72
99
38
76
104
30
68
97
29
64
93
30
63
94
28
63
91
31
65
90
31
61
82
31
55
73
30
54
69
28
56
70
34
60
72
33
56
67
56
87
93
78
102
114
55
75
95
52
76
99
38
67
85
31
64
86
31
70
97
36
77
104
106
140
162
99
128
154
62
92
118
45
79
104
40
77
108
36
70
98
38
70
95
34
65
96
32
64
90
34
64
84
32
57
76
36
57
74
29
50
64
28
54
64
29
55
66
32
53
62
95
121
129
119
139
150
102
120
142
78
111
144
53
93
126
39
82
117
42
89
127
43
92
130
67
112
145
75
114
153
68
108
147
50
96
131
46
88
128
54
88
117
59
89
107
57
89
115
62
95
119
60
91
109
54
83
105
53
80
104
45
70
89
42
69
82
37
69
87
49
75
91
98
126
156
108
133
165
87
118
157
53
99
153
43
94
147
41
92
145
41
92
146
39
93
148
31
95
153
29
95
157
35
99
159
37
96
152
50
102
149
66
107
133
74
106
117
80
110
126
70
107
132
63
104
133
58
97
131
51
89
129
75
109
140
66
100
126
42
84
122
51
90
132
43
84
141
67
103
153
70
109
158
32
84
146
36
89
150
49
99
159
50
99
155
52
99
156
44
98
161
27
93
154
31
92
148
71
114
167
104
143
183
75
111
131
92
122
128
98
124
136
50
87
116
48
95
132
38
83
127
30
76
126
84
126
166
70
112
149
27
82
139
27
84
151
18
76
147
87
127
172
124
155
186
75
115
160
93
136
181
98
137
179
94
129
168
99
128
167
100
124
167
91
131
169
98
131
163
115
123
152
159
163
185
138
150
160
117
136
143
71
94
113
54
86
115
71
109
143
42
81
123
23
62
112
59
98
139
59
105
143
29
91
150
22
91
164
16
79
143
115
149
180
197
210
218
161
180
197
169
192
211
159
180
197
150
169
184
146
159
176
146
158
183
141
165
188
165
183
201
140
136
150
157
135
142
212
200
201
168
175
182
85
102
127
84
104
129
88
109
131
57
82
112
28
55
95
86
116
148
102
142
170
47
106
155
44
112
173
73
119
161
183
202
219
235
234
233
215
220
221
211
219
222
204
212
215
202
210
214
195
203
208
191
205
217
185
201
217
197
212
226
188
193
202
164
144
145
204
188
185
225
227
230
203
210
224
189
196
208
145
154
163
83
97
116
40
57
87
131
149
174
155
182
204
62
108
149
55
111
157
193
213
232
233
236
243
244
237
237
239
238
241
240
239
242
237
238
242
232
236
243
225
233
237
218
230
227
220
224
228
218
222
227
213
222
220
199
194
196
217
212
213
240
243
239
246
244
243
225
224
224
211
216
219
174
184
194
107
123
142
115
128
151
106
120
147
115
147
184
75
114
151
229
241
250
241
233
235
220
200
200
225
206
213
236
224
231
245
237
240
246
242
242
243
244
240
239
246
234
242
243
228
241
240
225
235
236
223
237
232
229
245
240
242
246
246
246
243
246
242
204
203
200
204
204
205
235
245
243
223
240
235
210
221
221
193
198
212
198
213
235
155
174
195
100
123
148
189
190
200
229
215
224
226
208
209
214
201
182
216
205
178
223
217
181
234
224
184
249
222
176
248
225
173
245
231
184
244
234
193
239
240
183
237
239
186
243
241
203
243
242
208
244
234
203
244
231
208
239
238
222
238
240
233
240
239
234
242
240
236
234
238
241
223
229
234
27
70
115
41
63
93
97
102
131
158
156
174
204
199
197
228
224
213
238
235
214
241
232
208
247
223
198
243
222
182
238
228
173
234
231
169
235
231
164
240
231
164
242
225
157
243
218
143
238
218
147
229
223
147
217
219
145
208
204
166
186
187
179
157
176
178
132
158
169
113
141
157
33
88
147
20
58
103
36
59
101
51
63
112
69
74
126
93
97
142
126
127
164
155
157
186
172
185
197
191
202
204
204
211
204
213
218
205
225
224
208
233
229
214
236
230
212
239
227
203
239
231
205
229
232
196
225
232
190
227
229
202
223
223
214
208
219
221
191
213
223
180
204
219
49
106
167
27
72
123
26
57
103
32
57
109
32
58
116
37
61
115
47
66
117
56
72
116
73
80
113
86
85
113
95
86
108
116
101
115
138
118
121
144
131
131
144
144
137
145
146
131
165
162
152
147
142
148
140
132
147
143
129
136
151
134
134
146
139
145
132
144
159
135
151
175
54
113
173
47
99
150
22
61
107
23
56
101
27
63
110
30
65
112
32
65
112
34
65
113
43
67
116
68
71
118
99
74
114
128
84
112
137
87
101
126
95
97
135
124
110
143
140
108
144
135
103
155
146
106
148
135
92
116
84
74
114
77
92
89
77
97
66
82
112
76
102
141
48
112
173
52
114
168
40
91
138
22
58
103
26
55
100
29
58
108
31
61
117
34
64
122
38
64
122
44
64
125
53
65
124
64
69
118
80
70
107
69
69
102
75
90
121
93
104
131
91
94
104
152
156
125
136
135
85
116
92
86
146
107
132
121
99
115
90
104
129
79
110
144
45
112
177
46
113
171
52
111
165
46
84
132
35
57
100
32
54
102
33
55
109
33
58
114
30
63
122
30
64
125
29
63
118
32
64
111
37
62
117
33
63
121
30
64
121
38
63
118
42
64
110
77
101
135
62
80
107
83
87
116
120
110
137
108
104
126
51
77
106
34
76
114
44
113
175
46
115
173
50
115
171
52
104
155
41
79
123
35
69
112
35
65
106
33
62
104
27
64
109
28
64
110
30
64
107
30
64
104
30
63
109
29
62
110
28
62
109
31
62
107
31
62
107
31
62
111
33
62
111
41
68
111
60
83
118
82
106
136
56
90
123
59
99
136
36
110
171
41
113
171
42
112
169
39
104
158
36
96
144
35
90
135
36
86
127
37
81
120
41
75
120
40
73
119
40
73
119
39
72
117
40
72
110
40
71
107
40
70
107
40
71
108
41
72
105
43
74
105
43
74
105
49
80
111
68
100
133
78
110
148
89
123
163
102
138
179
39
105
175
43
107
175
41
104
169
36
99
163
35
99
161
36
96
156
38
94
151
40
91
146
45
88
144
45
87
144
45
87
143
48
90
146
54
91
145
55
91
145
58
95
148
60
96
150
61
99
145
62
101
142
59
98
139
60
98
139
68
107
152
69
110
161
68
112
165
78
125
178
41
105
169
42
103
166
41
100
161
39
99
161
37
99
163
40
99
161
42
99
159
41
98
155
39
102
153
40
103
153
40
103
154
45
107
159
54
110
169
57
110
172
61
115
176
61
115
177
63
117
174
63
118
172
60
115
169
56
111
166
54
112
163
53
116
163
50
115
164
54
122
172
31
106
168
29
102
162
30
101
159
33
100
161
40
106
170
47
111
175
47
110
173
49
113
174
54
123
177
59
128
181
58
128
181
59
127
181
65
130
185
67
130
185
69
133
188
69
133
188
69
133
190
70
133
192
67
130
189
63
126
185
60
126
182
61
132
184
61
133
187
57
132
188
30
103
164
29
99
159
34
101
159
47
111
170
60
120
182
63
123
184
61
121
183
65
125
186
74
128
187
80
134
192
80
133
192
79
132
189
80
135
183
81
136
181
81
136
181
81
136
181
80
134
184
80
133
187
78
131
185
75
129
182
70
124
179
69
124
184
67
124
186
63
122
185
