P3 24 24 255
181
185
192
190
192
199
180
186
192
163
171
180
170
174
178
185
188
190
184
186
190
178
183
185
182
187
192
175
184
190
151
150
156
136
79
79
129
49
44
111
47
43
88
65
63
91
97
92
121
123
113
157
158
148
174
175
166
179
180
175
185
187
183
169
172
171
84
88
89
54
58
56
189
191
197
187
188
193
173
175
180
160
167
172
153
158
160
141
145
147
135
136
134
147
148
145
155
158
159
142
146
148
88
89
90
66
46
46
68
36
35
48
28
27
32
29
29
77
79
73
163
163
154
187
187
183
188
189
185
191
192
188
191
193
188
171
175
172
107
111
112
43
45
46
183
187
190
189
189
191
182
185
191
177
182
183
161
164
164
137
142
144
121
123
118
139
139
134
161
162
164
106
107
107
39
40
39
29
30
30
28
29
28
26
28
26
24
26
25
91
90
86
189
189
182
202
202
200
195
196
193
191
191
186
190
191
186
162
165
161
77
80
79
33
36
36
166
169
174
185
186
189
191
193
197
180
183
185
177
178
177
162
164
164
126
128
124
112
113
107
120
122
121
59
61
60
35
38
37
40
39
39
40
38
38
41
40
38
41
40
39
98
97
93
183
183
177
205
205
202
200
200
198
181
182
177
180
181
176
157
158
156
65
66
66
27
28
28
153
153
158
158
163
164
140
154
166
131
142
152
165
166
164
177
177
175
155
155
153
97
99
92
62
63
60
51
52
53
46
48
49
44
45
45
43
43
43
47
46
45
45
45
44
120
120
116
190
190
183
204
205
201
203
203
201
179
180
175
182
183
179
149
150
150
48
49
50
22
22
22
160
155
160
155
160
162
129
143
155
119
130
141
161
162
158
177
174
171
147
147
144
70
72
68
54
54
54
96
97
99
92
92
94
73
73
75
63
63
62
60
60
59
72
72
71
149
149
145
189
189
182
197
198
193
203
204
202
182
182
178
181
181
176
145
146
147
42
44
44
19
20
19
148
106
113
159
156
159
171
175
178
158
162
164
154
155
151
146
144
141
101
102
99
44
45
44
46
46
46
126
126
127
171
170
172
144
143
144
108
108
107
101
102
100
123
124
121
169
170
164
182
183
175
187
188
181
197
197
195
179
179
174
177
177
172
144
145
146
39
41
42
18
20
20
92
81
107
111
114
133
128
140
151
146
151
157
130
133
134
97
98
96
56
57
55
38
38
38
44
44
44
104
104
104
198
197
196
198
196
193
166
166
161
157
158
153
166
167
162
175
176
168
173
174
164
176
178
170
184
184
182
174
175
170
179
180
175
135
136
137
35
37
36
23
25
24
57
95
138
60
92
134
65
95
128
70
95
122
69
82
99
55
59
58
42
42
41
53
53
52
73
73
73
131
131
131
201
201
196
204
203
194
193
191
182
182
182
172
179
180
172
177
178
170
171
173
164
166
167
160
167
167
165
165
166
163
167
169
167
124
125
125
49
50
50
25
27
26
57
95
139
57
94
136
53
89
130
44
73
108
39
50
62
32
36
34
60
61
59
119
119
116
152
152
150
185
185
182
208
208
199
201
199
186
192
189
177
183
182
173
180
180
172
175
176
168
171
172
166
155
157
152
139
140
135
141
143
138
135
137
136
98
100
99
80
84
83
35
38
38
54
93
137
55
92
134
51
85
123
50
69
89
50
54
56
64
64
66
122
121
121
166
164
158
197
196
189
203
203
195
204
203
191
197
195
181
183
182
169
183
182
175
177
177
171
169
170
163
164
166
160
142
144
139
106
109
105
100
106
110
119
124
127
74
75
74
59
63
64
65
69
70
56
93
137
53
90
136
68
97
130
113
119
126
134
135
136
162
162
160
198
194
191
199
195
189
201
198
188
205
202
192
196
194
182
191
189
178
182
181
170
172
173
164
159
160
154
147
149
142
148
150
144
118
123
120
57
69
77
63
79
98
166
169
173
102
101
100
25
32
38
56
68
75
47
85
130
44
82
127
131
148
171
210
209
207
211
209
207
205
204
198
211
209
204
215
212
208
206
202
194
199
195
183
187
184
173
176
175
166
171
171
162
157
158
148
139
140
131
125
128
120
113
118
116
76
90
100
39
64
91
62
89
118
157
164
173
89
99
110
29
50
73
44
67
95
64
100
139
114
137
162
191
197
203
214
214
210
210
210
205
209
207
202
210
208
203
212
210
205
206
203
197
191
188
178
176
174
161
161
159
147
153
152
141
140
141
129
121
123
112
102
107
103
67
81
92
48
73
100
48
81
119
55
88
129
71
100
136
51
81
116
44
76
116
48
80
120
150
166
184
199
201
202
204
204
202
207
207
202
207
206
200
210
208
202
210
207
201
209
206
200
198
195
189
187
184
176
178
176
165
168
167
154
142
142
128
105
108
98
79
85
81
59
73
82
45
72
99
50
83
121
52
90
132
54
92
137
55
93
139
54
92
139
53
90
137
49
88
131
194
197
199
196
196
192
190
189
182
198
195
186
205
202
193
207
206
197
206
204
197
203
199
193
192
190
183
182
181
173
182
182
172
186
186
176
155
156
146
75
82
80
37
51
61
44
66
87
50
81
115
53
90
131
53
95
139
55
97
142
57
98
143
56
97
144
55
95
142
51
92
138
184
184
179
191
192
187
180
181
171
171
168
153
190
186
171
201
199
188
200
199
190
193
191
183
188
187
178
181
181
170
184
184
174
196
195
188
183
184
176
101
107
109
36
51
64
43
68
92
50
83
120
54
92
135
54
96
142
56
97
145
56
98
146
55
97
144
55
95
145
54
94
143
169
162
155
190
190
184
175
175
164
154
152
132
160
154
133
186
180
167
190
187
175
184
182
170
179
177
164
171
172
156
180
179
168
197
196
190
193
194
187
148
152
148
57
71
77
39
62
85
48
81
119
54
92
136
54
95
143
55
96
145
55
97
145
54
96
144
53
94
144
52
93
143
127
121
116
176
176
170
168
169
155
144
143
122
134
128
104
164
157
138
179
174
158
178
175
159
171
169
154
163
163
149
167
168
159
148
149
146
118
118
118
136
137
132
96
105
103
41
61
79
46
77
113
52
89
133
53
94
143
54
95
144
55
97
146
54
96
145
51
93
143
49
91
141
72
70
68
171
171
165
164
165
149
132
132
112
122
119
97
138
133
113
163
159
141
169
168
154
165
166
157
158
159
152
148
149
142
97
97
95
39
40
41
75
75
75
126
130
124
53
70
82
40
70
102
51
88
129
51
92
140
51
92
143
51
93
144
51
93
144
48
90
141
46
88
138
51
51
52
161
157
153
166
163
147
134
136
115
127
126
110
129
123
100
147
141
123
155
153
142
161
163
156
160
161
153
157
157
150
163
163
157
76
80
76
39
41
39
127
128
123
92
103
106
31
59
85
45
79
121
49
88
136
47
89
137
49
89
140
49
89
141
46
87
139
44
86
137
84
84
82
134
129
124
149
144
132
163
163
149
132
134
118
123
118
97
139
134
119
142
143
134
142
146
142
122
128
131
112
122
132
192
193
195
180
180
174
62
65
62
94
95
93
153
156
153
75
90
102
46
76
110
44
82
127
47
86
133
48
88
138
48
88
139
46
87
139
44
85
137
149
148
144
150
147
136
164
160
151
183
180
168
106
110
99
69
75
74
83
90
94
76
88
96
61
77
91
48
70
95
47
77
112
149
161
177
214
212
206
130
131
129
77
79
78
172
172
168
174
176
174
123
132
140
58
84
113
44
82
129
47
88
137
47
87
138
46
86
138
44
85
137
134
134
131
153
151
140
181
177
171
155
149
144
68
77
78
30
48
63
35
57
76
35
61
85
37
68
98
44
78
116
45
84
130
105
131
165
202
203
205
178
178
171
111
114
107
148
148
144
171
169
166
156
156
149
81
97
109
41
78
122
47
88
138
46
86
137
45
85
137
43
84
136
