P3 24 24 255
59
59
33
44
44
27
30
30
13
49
49
26
71
69
32
56
55
24
44
41
18
49
47
21
42
42
19
41
41
15
46
46
19
39
37
14
37
32
13
48
47
17
55
52
20
50
48
19
46
45
13
60
52
19
89
62
32
80
67
34
73
71
31
80
78
39
125
118
85
122
119
77
48
48
28
37
37
15
48
49
18
63
63
26
48
43
20
42
41
15
49
49
18
54
54
21
53
55
24
45
45
20
38
38
15
46
44
18
39
37
12
47
45
13
52
55
17
55
53
19
47
43
14
62
58
23
80
70
33
64
59
28
60
56
25
76
73
36
100
95
57
94
93
48
52
52
28
73
78
31
86
89
35
72
69
30
60
60
27
51
51
17
53
55
21
48
48
18
64
66
24
70
75
25
58
61
21
51
52
19
64
67
23
71
68
28
57
56
22
52
53
19
50
49
19
53
54
20
70
68
36
60
56
25
57
47
19
63
57
22
69
67
32
86
85
50
66
63
34
71
72
35
81
79
30
71
75
28
79
83
27
53
54
18
43
43
19
40
42
13
68
74
22
87
89
27
67
66
22
64
69
23
74
77
29
72
75
27
55
57
16
68
73
24
59
62
24
46
47
16
52
48
21
64
58
27
64
57
25
61
55
24
64
60
31
71
70
37
61
64
33
76
82
27
69
75
26
66
69
20
79
81
26
66
67
24
68
65
27
50
49
17
53
56
20
65
67
21
69
66
20
79
82
26
71
72
22
65
65
16
69
73
23
75
77
28
75
76
28
40
39
17
55
51
24
53
51
17
60
59
21
53
50
20
50
45
19
60
57
25
44
43
21
64
67
26
67
69
27
68
69
20
73
75
23
70
72
20
79
78
23
59
60
19
58
59
19
62
61
18
63
64
23
61
64
18
67
67
22
70
68
25
67
72
15
78
80
28
72
71
30
42
40
18
39
36
18
56
55
24
51
52
17
44
44
16
63
60
24
54
49
21
36
35
18
54
54
23
87
95
35
79
80
27
63
68
20
62
66
18
63
68
18
67
75
21
78
87
26
72
72
24
56
53
17
54
56
16
59
57
18
58
57
18
68
73
17
76
82
22
87
92
32
75
78
28
60
62
20
56
57
20
51
52
16
57
59
18
77
76
25
63
58
25
65
69
26
85
92
30
83
92
28
65
68
24
57
58
20
53
53
15
71
79
24
87
97
24
80
90
23
59
63
16
52
52
14
51
49
16
78
85
24
73
77
21
76
78
18
79
86
19
87
94
28
79
84
24
71
74
24
50
52
18
61
59
20
66
66
21
62
64
21
75
69
27
85
90
25
87
92
29
81
86
32
76
80
29
74
75
29
44
44
17
72
79
26
75
84
22
59
65
18
55
58
15
52
53
10
58
61
20
74
79
20
76
81
22
76
78
26
63
69
19
68
73
18
73
73
22
72
70
25
49
47
15
59
53
17
68
60
17
60
53
13
64
60
23
83
86
31
67
68
24
79
85
29
90
96
33
73
75
23
63
70
22
82
92
25
65
71
23
54
59
15
108
91
53
145
112
71
60
68
18
74
83
21
42
42
12
63
67
18
62
68
17
64
69
19
61
64
19
58
59
19
53
55
13
84
89
27
76
75
25
60
50
16
75
55
14
52
58
14
61
66
26
50
52
19
66
71
22
62
64
17
60
65
24
59
65
20
68
76
23
46
49
11
158
115
90
228
171
143
130
105
65
86
72
36
108
83
62
61
56
27
62
66
20
60
57
27
86
84
46
54
49
23
76
59
34
108
95
39
96
78
34
85
64
35
65
45
19
50
58
14
50
55
15
54
61
17
58
59
22
49
48
17
41
45
13
30
29
13
52
52
26
41
41
20
122
106
77
168
115
93
200
135
106
167
110
85
208
141
119
54
41
22
36
35
8
89
84
67
121
116
89
78
72
39
63
54
34
87
72
50
80
80
34
75
59
28
60
50
36
45
46
18
62
66
21
40
45
15
57
63
16
44
41
15
20
23
7
18
15
5
16
10
6
18
11
14
167
167
169
156
143
142
188
119
107
153
98
68
188
112
92
169
128
102
105
79
56
116
111
100
145
134
121
112
112
74
85
82
33
69
55
25
61
66
24
62
64
27
55
46
30
47
52
14
48
55
16
45
49
15
24
35
14
44
48
16
63
45
18
52
45
38
47
40
32
54
47
42
214
216
220
211
207
216
209
162
164
121
87
83
127
71
50
215
161
140
156
110
90
73
64
60
181
161
148
145
139
125
106
105
73
113
83
65
118
41
18
131
48
23
135
47
32
31
27
8
50
61
16
54
55
29
125
42
32
211
21
6
133
43
38
61
56
52
62
53
45
56
50
45
113
114
112
204
179
178
200
145
142
135
97
84
110
75
58
170
117
102
150
102
85
148
105
88
126
113
102
119
94
79
132
130
111
171
126
109
249
136
131
254
136
128
253
145
137
8
8
9
83
45
34
210
80
76
253
100
105
255
78
88
178
44
44
49
51
45
50
48
42
52
47
43
55
43
38
162
138
125
163
114
95
179
139
108
213
183
173
200
183
176
195
183
169
93
75
60
115
111
100
130
130
109
157
129
120
217
136
126
248
176
165
248
217
212
250
255
255
118
31
22
234
37
39
249
55
56
245
53
54
249
20
22
249
11
15
151
26
22
69
39
36
53
40
33
47
44
36
111
72
64
131
73
67
190
93
89
217
115
115
212
96
94
224
87
89
190
34
43
209
35
43
224
43
41
236
28
29
241
27
26
249
20
20
250
44
44
251
81
86
241
33
30
244
67
66
248
98
108
249
42
52
248
12
11
249
12
18
249
10
14
228
28
29
209
41
48
197
47
49
230
54
61
248
69
80
249
78
83
250
84
87
249
94
99
252
108
111
255
129
130
255
139
143
254
149
151
252
153
157
249
149
151
247
151
152
251
169
172
254
171
175
247
40
41
249
82
89
249
53
58
250
21
25
250
56
68
251
104
115
251
133
142
255
149
159
255
156
165
255
148
158
253
128
135
253
109
114
250
103
110
252
112
122
253
110
116
250
98
106
251
95
104
250
101
106
249
102
102
248
95
98
247
88
89
246
90
90
245
104
103
248
112
118
248
15
17
246
12
14
236
36
37
238
60
63
238
99
105
238
124
128
240
110
109
238
84
92
241
68
79
238
61
71
202
60
60
216
53
56
234
44
48
241
38
46
239
45
50
240
40
47
240
35
43
241
41
50
239
41
47
240
36
44
242
39
48
241
39
45
241
40
42
242
32
42
245
10
13
241
10
9
244
20
22
254
16
21
253
6
10
252
4
5
247
3
2
242
2
1
243
2
3
242
5
4
234
8
9
239
10
13
242
9
9
241
8
7
241
8
10
240
7
8
241
6
6
241
4
3
242
4
3
242
3
4
244
1
3
244
0
2
245
1
4
245
1
6
242
3
3
244
2
3
236
2
1
186
7
6
175
33
23
176
27
18
201
14
10
237
2
2
238
2
4
238
1
1
239
1
0
239
1
0
239
0
1
240
0
1
239
0
2
239
1
2
238
1
2
239
1
2
238
1
2
238
1
1
238
1
1
235
1
1
236
2
1
242
2
3
237
3
4
231
3
5
104
13
10
56
42
32
86
83
72
107
107
104
87
69
61
123
9
8
237
2
4
240
1
2
238
1
3
237
1
3
238
1
3
236
2
2
237
2
3
239
1
3
238
1
2
240
1
2
241
0
2
240
1
2
239
1
2
236
1
3
240
0
1
227
1
2
243
1
1
165
7
10
34
31
27
80
62
44
92
83
60
126
119
113
99
88
73
48
38
29
177
5
6
239
3
3
235
3
3
241
2
2
239
2
2
239
1
1
241
1
2
241
1
1
238
1
1
239
2
1
240
1
1
240
1
1
240
1
1
239
1
2
211
31
19
181
22
14
