P3 24 24 255
110
129
106
128
147
122
124
142
116
122
140
114
123
143
116
137
156
129
133
151
126
134
152
134
175
199
202
171
198
210
103
128
141
118
137
150
152
171
171
135
154
150
145
158
161
218
222
225
235
233
236
134
132
137
68
66
77
62
61
76
67
67
83
65
62
77
66
64
75
75
76
86
115
135
113
134
152
127
134
151
124
125
143
118
113
132
115
114
132
114
123
139
119
128
145
127
129
154
147
138
168
165
114
141
141
144
164
169
158
174
171
146
160
155
183
192
195
237
240
244
197
198
201
94
93
99
62
60
73
66
66
81
58
60
74
50
49
60
56
55
59
66
64
74
117
136
111
140
157
128
149
165
130
135
152
116
141
158
128
163
179
148
175
188
155
172
185
152
154
175
144
155
182
148
163
190
150
178
200
157
180
195
165
204
213
199
236
240
233
238
238
231
164
163
158
66
64
71
59
58
71
66
67
81
46
49
60
39
40
44
39
39
37
46
46
52
134
151
114
172
188
146
192
208
160
196
211
160
204
219
169
211
224
173
213
224
171
215
225
171
211
225
170
206
226
170
205
226
172
213
229
177
230
238
209
243
245
235
240
238
233
230
224
217
157
152
147
74
73
80
73
72
85
58
59
70
42
46
52
61
64
60
88
91
81
72
73
73
144
159
118
179
193
150
207
218
173
221
232
185
224
235
188
217
227
179
207
215
165
200
207
155
187
195
142
171
182
137
172
185
152
229
236
218
246
248
241
241
240
240
235
230
234
226
217
217
171
164
163
114
113
121
79
78
90
55
56
65
52
56
57
110
116
103
140
147
127
98
102
95
169
178
156
213
220
201
238
242
226
242
245
232
237
243
232
223
229
216
136
140
126
115
117
101
118
117
100
132
137
122
176
185
176
236
241
242
237
239
238
231
232
230
228
225
224
219
212
207
180
174
170
119
118
126
68
67
78
57
59
66
68
73
71
116
125
105
136
146
119
92
99
86
239
245
241
249
252
253
210
212
216
147
148
154
129
131
140
183
186
196
126
127
137
80
77
85
80
73
78
89
88
90
157
160
160
230
231
228
229
230
224
222
223
215
219
218
211
208
204
199
152
149
150
82
82
94
59
56
68
51
53
57
70
78
74
81
92
76
105
117
95
89
100
85
221
226
227
165
169
175
99
103
109
61
62
67
55
53
61
101
103
115
148
148
160
130
124
133
122
115
119
128
126
129
182
182
182
234
232
224
222
217
210
217
214
206
212
210
204
167
166
170
99
100
113
75
76
91
60
58
69
60
63
66
75
85
80
67
78
71
83
98
85
83
97
83
128
131
132
74
76
84
65
67
74
57
58
62
58
55
62
80
80
91
159
159
170
215
212
219
212
209
212
217
217
221
226
229
229
225
224
218
216
208
199
217
209
203
187
184
184
106
107
118
74
77
94
70
72
85
60
61
67
84
89
88
69
79
74
64
74
70
70
83
75
74
86
77
67
69
70
61
61
69
57
57
65
53
52
57
58
54
60
83
80
91
155
155
164
226
229
233
225
228
231
219
225
229
221
226
227
218
218
212
212
204
194
214
204
199
146
143
147
75
78
92
73
77
95
61
64
74
58
65
63
87
97
89
53
64
57
53
63
61
58
72
65
63
75
67
56
56
58
53
52
61
49
48
56
49
47
52
56
52
57
80
74
84
126
125
133
213
220
221
218
228
228
215
225
228
215
223
224
214
214
210
207
202
191
199
192
186
109
106
111
65
65
75
66
68
80
54
58
66
55
67
58
80
95
80
55
66
57
49
59
54
54
68
58
53
66
55
53
53
55
47
45
54
45
43
51
46
44
48
58
53
57
74
67
77
97
97
104
197
208
207
210
222
223
208
220
223
206
215
217
205
206
203
199
197
185
183
181
173
85
82
85
54
53
57
57
56
62
50
53
59
45
59
46
62
77
60
55
65
56
51
60
53
62
76
63
67
80
66
52
51
50
44
42
49
47
44
52
46
44
48
60
56
58
60
57
64
74
80
83
184
197
194
203
214
214
199
207
209
200
205
204
197
198
194
180
181
168
161
159
148
68
62
63
43
41
45
44
47
49
46
49
51
45
52
46
48
56
47
60
65
59
57
63
58
58
66
59
63
70
63
53
52
50
41
39
43
42
40
45
37
34
35
48
43
43
44
40
44
61
61
63
168
171
168
194
200
194
185
190
185
185
187
182
181
181
177
162
164
151
126
125
114
46
42
42
35
36
38
37
44
43
46
54
52
44
52
48
44
54
47
54
63
55
55
60
56
50
56
52
48
55
51
51
50
47
37
35
36
38
37
36
54
55
48
51
54
47
35
34
33
52
50
49
135
133
126
170
172
158
164
167
153
164
165
155
156
155
149
138
139
127
99
101
90
41
42
40
41
45
45
48
57
54
54
68
62
60
75
66
54
69
59
52
66
56
48
54
48
44
50
44
46
55
48
47
46
44
42
41
39
81
81
72
117
122
106
86
100
84
61
71
61
60
65
57
95
98
85
120
120
103
127
125
109
131
129
117
126
125
115
105
104
93
74
74
66
40
41
39
52
54
52
60
65
60
51
61
54
62
73
64
70
81
71
75
85
74
65
65
59
58
59
53
65
71
64
48
47
46
66
66
61
120
121
106
128
133
110
101
107
89
83
88
76
83
85
73
86
86
71
95
88
78
120
112
102
123
118
107
128
126
113
137
130
121
77
70
66
36
35
34
57
55
53
60
57
53
56
56
51
55
56
50
59
60
52
71
70
61
79
70
66
85
79
74
91
92
85
77
75
68
100
99
89
128
125
109
120
115
95
131
123
109
131
121
112
123
114
104
120
111
99
125
114
108
131
121
115
132
125
115
127
123
111
128
119
109
70
61
61
41
39
40
79
74
71
91
81
78
88
79
76
85
77
71
82
75
67
80
72
64
86
72
69
88
75
72
81
74
69
146
137
117
135
127
109
150
134
120
145
124
113
135
119
108
134
120
111
120
107
99
119
107
100
120
107
103
118
105
101
113
100
96
111
99
94
99
88
81
59
52
57
53
50
56
102
96
92
103
90
88
90
75
73
94
81
77
94
83
78
92
82
76
86
74
72
85
72
71
90
78
77
178
160
140
153
137
120
162
140
127
168
143
131
147
129
116
139
123
110
139
125
113
127
114
105
119
105
103
104
89
89
103
88
87
97
82
82
94
82
78
63
53
62
62
56
65
98
91
87
92
80
76
87
73
70
93
81
79
89
79
79
94
85
86
89
85
80
84
82
75
92
89
82
168
156
135
155
145
124
154
145
124
150
143
120
142
140
114
137
136
112
136
137
114
130
133
112
121
123
105
107
108
91
112
113
96
102
104
86
111
114
94
83
85
78
66
71
64
99
108
84
98
106
81
100
106
83
100
106
87
91
99
84
90
100
88
91
102
86
93
103
87
90
100
84
157
155
132
149
150
124
141
149
118
124
139
104
115
133
95
119
139
101
117
139
103
114
137
101
109
133
92
109
132
90
110
133
92
107
131
89
124
144
105
119
133
111
84
100
75
101
126
81
97
126
79
97
123
80
96
123
83
91
120
83
88
117
83
90
112
86
89
109
85
86
106
82
156
149
128
141
137
112
133
142
109
118
137
97
110
131
87
107
130
86
108
133
91
109
135
94
101
127
84
102
128
85
107
133
90
104
130
86
130
147
113
172
178
165
119
126
108
95
114
75
87
112
70
91
115
77
100
124
87
94
120
82
93
121
83
93
119
87
94
119
90
92
117
87
132
132
106
120
124
95
117
132
98
108
129
90
106
129
87
107
130
90
107
130
92
108
131
95
103
124
90
104
124
90
107
127
92
103
123
89
125
136
112
181
178
170
143
141
128
98
111
82
95
119
85
99
121
89
96
118
86
94
118
84
98
123
88
93
120
89
91
120
89
94
120
92
