P3 24 24 255
68
55
46
87
73
65
101
79
72
105
79
72
104
79
74
115
93
88
123
103
100
108
91
89
105
91
91
88
75
81
85
74
83
90
81
90
67
59
72
65
57
70
80
72
85
61
53
66
35
25
30
60
44
36
94
75
63
144
128
126
179
161
156
172
154
147
75
54
47
68
33
19
76
62
56
82
65
61
89
70
66
108
83
79
114
88
84
110
86
84
103
82
82
102
84
84
101
88
87
98
88
88
112
104
106
101
95
100
74
68
78
73
67
78
78
72
82
53
46
57
34
22
29
47
31
25
101
84
73
174
161
159
202
182
184
151
133
133
50
38
35
37
21
20
100
86
81
98
81
76
98
79
75
116
93
88
122
98
93
112
90
87
104
84
84
106
90
90
107
93
93
112
101
101
129
121
122
120
114
119
89
82
92
89
81
91
93
86
96
59
52
61
52
41
44
67
51
42
128
112
98
189
177
169
190
173
169
140
126
123
80
71
70
66
54
59
105
91
86
112
95
91
112
93
89
128
106
101
132
110
104
122
103
99
123
105
103
129
114
113
120
106
105
98
88
88
121
113
115
136
129
134
89
81
89
101
92
100
109
101
109
98
90
97
76
64
62
85
70
60
120
103
90
171
160
148
163
149
141
107
96
91
96
91
91
96
86
95
95
81
75
115
98
93
117
98
94
139
118
113
149
130
124
107
89
85
102
86
84
144
130
129
99
86
85
86
76
76
99
91
93
136
129
133
84
74
80
93
82
88
127
117
123
124
114
119
89
78
76
102
85
80
106
88
81
138
126
116
121
110
105
71
64
62
101
99
100
117
112
119
90
76
71
110
93
89
121
102
98
128
109
103
151
133
126
104
88
83
85
72
68
130
118
116
84
70
70
113
102
101
86
77
79
99
91
95
98
87
93
101
90
96
144
133
139
100
89
94
91
79
79
110
93
93
110
92
91
111
98
92
77
68
68
100
95
98
131
132
132
122
121
121
84
69
67
62
46
44
92
75
74
114
99
92
144
127
119
110
91
86
100
84
77
128
116
111
77
64
63
149
135
129
109
99
95
52
46
48
93
83
84
99
88
91
94
83
90
71
60
67
94
82
83
114
101
101
110
96
93
104
93
88
91
83
86
156
152
156
149
148
145
106
105
97
55
40
36
62
47
43
101
86
82
148
135
128
144
128
119
125
105
97
153
136
126
146
134
127
91
78
74
174
159
145
145
135
123
89
83
80
95
86
83
88
78
78
55
45
48
91
80
86
104
93
94
110
99
97
111
100
95
117
107
101
103
96
97
147
143
145
122
118
113
86
83
72
94
80
72
105
91
83
101
86
78
144
131
123
157
142
132
120
100
89
169
152
142
189
176
169
145
131
121
175
159
140
152
141
123
147
140
132
120
109
106
112
100
99
84
73
72
117
105
106
104
92
92
111
100
98
106
95
90
123
112
106
98
91
89
111
106
104
89
84
79
76
72
62
118
104
95
120
106
98
94
79
71
97
83
77
146
130
121
144
125
110
135
118
108
180
166
161
214
199
187
193
175
154
157
144
125
143
135
126
136
123
120
140
127
122
148
136
130
132
119
114
101
89
88
128
117
115
113
102
97
123
112
106
88
80
74
89
82
77
102
95
89
72
65
57
79
65
61
132
117
113
102
87
82
92
78
75
110
94
85
162
144
126
141
125
114
148
134
132
201
183
175
218
199
180
159
144
128
151
140
133
141
127
123
150
136
130
174
161
151
131
118
107
113
101
99
122
111
110
124
113
109
113
102
95
77
68
59
97
88
80
102
93
86
50
41
34
66
50
46
90
74
70
100
85
84
99
86
86
96
82
73
142
125
108
180
160
144
126
106
99
161
141
136
216
196
179
154
138
125
144
133
130
136
122
115
156
140
132
189
174
165
172
161
151
169
157
153
132
120
118
113
102
98
94
83
78
66
57
48
107
98
89
92
82
75
50
40
33
93
73
63
92
75
63
100
83
81
100
87
86
87
76
69
94
78
66
168
143
120
152
125
108
130
108
104
185
165
146
146
130
117
145
134
134
127
116
105
170
152
142
196
180
174
166
157
153
161
148
143
142
128
124
103
92
89
53
44
42
53
44
39
101
92
84
82
73
66
62
53
46
79
54
48
133
112
98
129
110
99
103
85
78
84
70
66
89
75
69
106
87
73
112
88
78
89
68
63
155
134
115
155
137
123
154
142
139
131
121
111
168
151
143
135
118
112
96
83
76
116
102
95
142
128
124
101
90
87
48
39
37
54
46
40
96
87
80
80
71
64
77
68
61
80
51
51
132
107
97
167
146
129
136
114
101
123
104
99
128
114
111
119
104
98
96
77
70
95
73
63
158
133
111
170
146
127
158
140
127
140
128
115
120
104
97
156
138
132
172
154
145
142
127
119
101
87
83
67
56
53
37
28
26
70
61
56
97
88
81
83
74
67
77
68
61
106
78
82
128
104
101
185
166
151
167
144
128
156
133
124
149
132
125
143
126
115
133
111
97
134
106
88
164
130
104
173
139
111
163
134
108
141
120
100
100
84
76
172
156
153
157
140
131
93
77
70
78
64
60
57
45
43
35
26
24
81
72
67
88
79
72
75
66
59
77
68
61
84
60
66
123
101
106
185
169
163
179
158
143
152
128
113
154
133
117
186
161
139
178
148
122
138
102
76
157
115
82
170
125
88
166
125
87
144
112
84
117
98
89
124
112
111
101
88
82
75
61
54
78
65
60
60
49
47
62
52
50
98
89
84
86
77
70
76
67
60
83
74
67
76
49
51
91
70
73
157
144
143
185
165
154
169
146
128
147
126
109
184
155
130
191
148
118
137
92
64
136
94
64
164
113
71
164
113
70
135
94
65
158
141
133
153
146
148
105
93
89
69
56
50
61
51
47
72
63
59
96
87
79
100
90
81
77
68
59
82
73
63
80
70
61
94
65
64
91
71
70
147
136
135
170
153
143
167
144
127
164
144
124
186
157
129
192
150
117
119
80
56
112
80
58
153
107
74
148
101
69
127
89
65
211
198
193
192
188
191
106
95
92
72
60
55
98
92
89
126
122
117
115
107
96
88
78
67
74
65
55
78
70
59
75
66
56
101
77
77
121
104
104
172
161
161
182
168
160
172
151
134
187
163
140
210
182
148
206
173
136
125
94
70
118
86
69
151
107
84
125
88
68
160
133
117
247
238
237
210
207
211
135
126
124
130
121
119
171
169
168
159
158
155
118
113
104
93
85
76
78
71
62
70
62
53
73
66
57
122
105
104
189
176
176
198
188
190
187
177
173
167
148
136
194
164
147
218
190
164
224
197
167
175
143
120
147
106
88
156
106
84
122
91
76
216
201
195
248
244
247
221
219
223
185
178
177
201
196
197
218
219
222
197
199
200
147
145
139
107
103
95
71
66
58
75
70
62
73
68
60
174
162
161
223
212
213
207
199
202
186
181
182
141
123
120
155
120
116
211
181
176
236
218
210
207
186
178
139
101
92
159
115
97
191
174
164
241
237
240
235
235
241
199
198
204
189
183
185
217
215
218
223
228
233
217
223
227
161
163
160
110
107
101
95
90
85
80
76
70
60
56
50
215
207
207
227
219
221
213
206
209
187
184
187
125
105
109
138
93
103
191
151
165
216
199
211
204
195
205
137
112
117
192
167
160
240
240
239
234
236
243
198
199
207
149
149
154
186
182
185
219
219
224
218
223
230
200
207
211
136
139
138
85
84
80
82
80
76
69
67
63
45
43
39
217
211
213
219
212
214
219
213
215
202
200
201
171
150
157
191
136
154
211
156
175
203
168
182
189
163
174
181
154
164
212
195
199
198
196
198
170
169
172
122
120
123
104
102
105
148
146
148
161
161
165
147
149
153
113
115
119
75
76
79
64
65
65
58
58
57
44
44
43
39
40
38
