P3 24 24 255
255
255
255
255
255
255
254
254
254
255
255
255
254
253
254
254
254
254
255
255
255
255
255
255
255
255
255
255
255
254
254
254
253
247
247
247
225
228
229
214
218
219
216
217
222
237
236
238
255
255
253
254
254
254
254
254
255
255
255
255
255
255
255
255
255
255
255
255
255
255
255
255
254
253
255
252
252
251
254
255
251
243
243
244
212
218
228
210
216
231
241
242
246
232
239
244
220
229
242
208
216
236
194
206
228
163
179
205
124
141
175
135
154
185
136
145
179
136
140
165
217
220
230
253
253
253
254
254
253
253
253
252
254
254
253
255
255
255
255
255
255
255
255
255
251
252
250
254
252
249
231
235
237
144
162
182
129
150
185
119
131
177
118
125
173
112
129
190
89
112
174
79
94
161
76
85
152
74
82
135
69
72
131
69
72
133
65
66
135
53
55
122
78
89
146
178
184
205
248
248
243
249
250
246
251
253
251
255
255
255
255
255
255
255
255
255
251
254
251
223
230
236
124
141
179
62
87
150
60
65
141
60
46
124
61
59
120
68
68
127
59
58
111
46
37
86
43
33
75
45
32
71
47
34
83
43
29
86
46
67
123
49
51
119
42
48
118
85
115
167
179
188
207
244
247
244
251
253
251
255
255
255
255
255
255
255
255
255
230
237
241
121
138
187
51
73
137
47
70
137
52
55
132
52
35
109
54
60
108
54
64
115
58
70
116
59
72
117
43
35
75
35
22
61
50
58
107
54
58
102
49
78
128
53
76
134
52
62
121
78
123
181
112
137
180
197
202
215
253
251
249
253
252
252
253
254
254
254
254
254
165
187
210
53
86
153
46
79
142
54
88
150
56
82
151
54
49
117
70
93
130
93
133
181
102
150
198
108
155
204
57
67
105
35
26
57
55
71
112
44
39
75
46
55
97
63
106
163
80
92
137
79
121
169
98
142
189
130
147
181
224
225
229
254
254
250
254
254
249
255
255
252
104
146
193
50
93
153
63
100
165
68
104
162
66
110
174
56
52
118
36
37
55
65
87
110
123
172
220
119
169
218
63
82
114
29
24
39
36
32
53
32
17
37
36
38
65
59
108
164
104
122
164
85
113
164
97
154
204
97
141
189
165
174
195
219
224
229
216
219
233
248
248
248
75
123
184
55
94
152
71
111
172
76
111
165
70
101
169
50
42
117
32
33
50
33
35
44
99
130
167
125
173
220
60
76
101
25
18
27
30
24
37
32
25
41
34
38
67
43
75
122
59
90
135
59
88
137
74
117
163
74
111
158
98
107
148
118
132
171
109
121
169
219
218
231
59
110
172
60
102
157
82
116
177
91
118
176
76
100
169
50
39
116
42
41
63
22
19
22
41
53
67
89
120
150
50
60
85
41
34
55
52
51
76
51
53
81
52
57
101
47
57
106
39
51
103
43
55
112
51
65
122
51
65
128
54
72
137
58
92
156
96
124
168
229
235
235
56
100
165
61
100
158
68
92
158
121
139
186
98
113
147
44
35
100
40
30
75
30
23
50
37
29
69
46
41
94
49
42
103
54
50
116
59
59
131
59
62
138
55
64
144
52
62
145
50
60
139
52
62
142
54
62
145
55
62
148
56
61
149
55
56
146
71
91
162
175
186
210
51
76
148
58
82
152
46
55
115
54
58
99
43
46
65
50
38
91
57
25
115
57
29
118
62
36
133
62
41
138
62
47
139
60
49
142
57
50
139
55
53
141
55
55
142
56
58
143
59
55
139
60
51
140
58
51
140
57
51
135
58
45
132
60
36
131
54
40
134
89
103
165
52
70
147
57
60
140
57
48
123
47
37
113
42
32
98
48
28
95
58
20
120
62
19
122
59
28
127
58
42
132
56
52
139
57
56
142
55
56
144
52
63
148
56
68
152
55
73
153
57
76
155
58
78
159
56
82
161
56
85
161
57
83
160
59
81
160
107
122
175
172
182
205
57
85
159
60
81
155
58
73
143
56
65
144
57
56
138
58
40
120
57
26
121
57
17
115
65
47
127
120
122
172
118
130
180
112
136
184
87
118
176
78
118
182
96
133
194
106
143
195
109
144
192
103
139
188
94
131
178
87
123
170
83
117
165
107
142
183
181
195
212
206
206
213
62
105
173
59
106
173
57
100
164
60
100
168
66
98
165
71
77
147
57
33
127
56
20
121
89
69
141
212
208
199
212
211
215
209
214
224
189
196
216
170
184
217
150
165
188
126
136
156
100
110
127
114
129
153
81
92
115
55
62
78
71
77
96
145
151
174
165
176
202
119
141
180
66
111
176
65
116
178
65
112
176
63
113
175
66
114
175
61
96
156
55
43
123
57
24
121
66
38
117
159
140
150
177
177
188
202
202
212
222
220
226
198
204
212
151
163
174
129
139
151
123
135
152
152
165
186
142
153
178
138
146
171
151
162
187
153
170
197
127
150
188
73
100
149
70
112
178
76
122
178
71
118
177
67
115
171
69
117
174
53
83
123
32
32
64
51
37
117
49
29
108
63
42
112
88
98
143
165
175
193
204
206
215
197
203
213
189
201
220
182
190
209
222
227
236
229
232
242
228
231
241
231
234
244
209
215
230
108
136
186
66
91
147
47
63
110
76
115
165
79
119
172
75
112
166
67
104
157
73
108
161
52
67
89
13
14
17
46
45
106
39
31
79
34
29
75
51
61
103
89
103
134
113
126
160
113
131
175
103
129
188
133
136
185
241
239
242
244
244
244
239
239
241
238
237
239
205
209
218
81
99
155
54
74
144
57
78
139
105
119
147
128
146
184
109
132
171
100
124
165
97
121
162
62
71
87
33
37
47
43
46
91
40
37
90
41
43
101
42
59
126
44
67
134
57
78
146
53
76
151
45
74
144
91
99
148
156
156
172
140
144
153
116
121
127
93
98
103
66
73
79
29
36
51
26
38
71
75
92
132
108
117
134
162
169
193
149
158
186
138
152
183
132
146
181
87
94
112
83
96
117
52
62
102
40
32
86
42
35
91
70
79
125
92
105
144
63
80
131
49
65
111
38
41
59
30
35
45
27
30
33
32
35
42
36
38
44
35
36
41
31
34
39
28
32
35
27
33
49
59
64
113
96
107
126
142
154
178
145
157
182
137
152
181
133
145
178
102
109
129
109
122
147
76
88
125
39
26
74
42
30
75
112
116
143
141
148
172
66
80
128
55
66
94
60
61
66
52
56
64
50
56
65
53
59
72
51
55
69
44
47
59
36
39
54
35
37
55
36
38
56
30
27
53
75
88
112
119
132
161
141
150
179
132
145
174
125
140
166
102
111
131
132
146
176
79
89
115
39
30
66
36
28
64
61
65
93
75
82
110
56
64
98
58
66
83
52
58
68
50
53
65
42
46
57
31
35
45
26
29
35
28
28
34
37
37
41
23
24
25
12
12
12
14
12
11
73
91
117
84
106
140
130
139
171
126
134
160
115
125
149
101
107
129
117
137
178
65
82
107
24
23
26
16
14
17
7
6
10
10
10
13
20
20
24
32
32
33
17
17
14
8
8
6
13
13
10
73
73
69
109
108
106
145
145
144
193
193
192
94
94
93
10
10
9
20
19
17
59
73
96
49
64
80
87
93
110
113
117
127
114
119
130
96
101
116
96
119
159
77
91
118
11
10
9
32
31
30
108
104
104
122
118
118
145
141
143
176
172
171
54
53
50
3
3
2
36
36
35
212
212
210
252
252
251
252
252
252
255
255
255
167
167
168
18
18
18
11
10
8
58
65
80
10
12
10
85
85
85
181
182
181
199
201
200
148
150
157
83
100
132
76
81
100
2
0
0
74
73
73
234
234
234
250
249
249
252
250
252
249
249
249
115
115
114
8
8
7
87
87
86
242
242
241
255
255
254
253
253
253
255
255
255
230
230
230
114
113
113
69
69
68
