P3 24 24 255
207
203
209
182
180
183
168
166
172
156
152
164
134
128
127
142
128
107
151
133
100
147
129
96
157
132
97
176
141
94
174
141
91
162
138
98
149
129
103
146
123
103
140
116
100
195
177
157
188
170
157
53
47
45
39
38
47
115
116
128
158
159
172
127
127
139
108
108
120
71
71
84
176
174
180
206
203
210
187
183
189
144
139
145
140
136
140
128
115
108
118
99
89
110
92
93
99
80
86
103
85
87
87
73
79
67
58
74
64
60
80
53
53
79
47
48
76
126
123
124
163
139
124
91
75
61
48
42
48
115
114
125
150
151
163
141
140
149
114
116
123
71
69
80
148
145
150
161
157
164
154
151
152
157
155
151
123
123
133
74
71
93
75
72
95
60
61
84
59
59
87
59
60
83
56
54
89
44
43
88
43
50
88
39
53
86
41
53
88
119
126
136
103
87
78
59
46
33
52
45
54
119
118
133
152
156
167
138
140
146
133
135
144
64
62
75
134
128
133
113
106
111
120
114
119
165
161
170
119
118
132
74
78
98
80
87
105
49
54
69
53
58
77
56
61
76
51
58
77
42
52
80
35
49
80
35
51
85
42
54
92
125
134
153
94
82
85
60
46
42
55
45
59
127
126
143
166
173
185
129
136
142
106
108
119
58
56
71
118
110
115
87
79
83
79
72
80
122
115
128
83
75
82
52
51
53
78
83
91
77
79
99
68
70
94
70
72
92
60
66
89
59
66
95
65
68
95
69
68
95
86
81
95
149
148
145
102
86
82
66
50
44
44
34
44
119
120
135
164
173
190
152
161
175
96
98
112
53
50
67
78
66
61
59
47
40
63
51
45
68
54
44
75
56
44
77
61
52
71
68
67
109
115
129
113
120
141
111
120
134
104
112
129
99
104
116
120
115
107
129
113
78
157
137
94
200
191
149
165
147
119
106
87
68
24
15
16
52
53
65
116
126
146
139
149
169
142
144
159
96
93
111
144
110
60
131
95
48
136
99
54
138
99
51
140
100
51
151
111
65
158
134
96
112
101
111
103
96
127
98
101
115
97
100
122
97
98
116
100
88
93
141
109
58
188
150
83
233
216
167
236
218
179
143
120
95
18
8
5
15
16
23
60
66
82
56
59
76
82
80
94
115
114
129
144
94
36
137
88
40
134
88
45
133
90
44
135
92
38
148
103
40
209
174
104
182
158
120
158
142
116
143
136
104
137
127
119
130
120
104
119
98
73
149
103
44
192
145
75
232
210
157
243
222
178
151
127
99
27
13
10
23
18
25
58
58
72
39
38
52
20
18
31
52
51
65
148
102
49
142
101
64
124
88
56
132
96
61
158
116
70
161
115
48
211
169
81
228
195
106
231
204
113
206
183
104
176
152
96
210
188
108
211
178
93
177
123
41
193
141
66
229
202
139
245
221
168
150
127
95
37
19
16
29
19
26
63
59
73
47
41
55
29
26
39
28
28
41
156
120
69
145
113
74
130
98
59
143
103
64
166
121
75
168
120
50
212
166
76
228
186
89
236
198
101
220
183
101
198
162
85
225
191
87
226
182
85
184
125
47
195
140
63
229
195
123
237
207
146
147
123
88
34
16
11
32
21
27
61
56
69
48
41
55
36
33
46
47
47
60
132
87
42
140
95
52
139
94
40
143
92
40
146
95
46
155
106
39
208
164
68
227
188
75
238
198
97
236
197
102
234
199
93
232
196
82
221
174
79
180
126
43
197
144
58
232
192
113
234
199
131
146
124
85
33
19
11
31
24
26
61
59
68
51
47
58
43
40
53
46
46
60
123
70
26
147
94
40
145
94
36
149
96
38
152
100
45
158
108
46
210
163
80
211
173
78
212
174
87
228
188
97
227
192
88
223
184
94
198
153
75
156
105
34
194
144
66
235
196
117
234
202
133
151
129
94
39
25
20
29
22
25
57
54
61
60
55
62
89
87
101
69
70
86
141
89
40
160
110
47
160
110
55
164
114
56
166
116
57
167
117
56
212
162
86
191
152
77
172
135
68
197
151
80
199
164
79
195
160
89
185
148
80
176
135
77
196
151
97
213
173
117
195
164
110
146
119
95
62
43
41
26
16
19
40
32
36
54
45
50
151
152
164
120
124
138
144
91
44
156
104
43
158
106
47
159
109
48
159
109
47
161
111
47
198
151
63
206
171
78
205
169
85
216
170
86
215
180
89
213
180
95
233
201
116
216
185
121
122
85
53
108
70
41
121
87
46
107
73
45
51
28
22
23
11
12
36
25
28
84
74
76
182
184
192
157
160
169
113
63
24
146
97
40
151
97
40
150
99
39
150
100
39
153
103
40
190
144
65
213
178
108
230
194
111
239
195
91
238
198
104
228
183
99
238
197
111
195
162
109
105
79
60
95
67
48
134
101
55
180
144
97
75
51
40
31
19
22
39
29
33
90
79
82
131
130
134
127
124
126
97
55
23
136
93
43
149
96
43
150
98
44
150
99
44
149
98
41
182
139
70
187
160
111
210
182
110
237
200
95
239
201
114
231
189
105
234
196
110
184
162
116
152
145
137
141
129
121
149
121
80
189
153
102
92
72
63
46
40
46
48
44
52
100
94
100
130
122
126
134
120
118
111
71
33
118
79
37
141
94
50
141
91
42
144
93
38
146
94
36
186
142
75
184
156
113
209
178
123
233
193
121
229
194
131
226
190
115
215
189
115
150
144
123
134
138
146
131
124
127
156
135
114
173
140
99
67
50
45
60
55
65
55
52
63
98
91
100
128
111
107
129
108
101
164
118
55
112
75
38
94
62
37
136
96
50
165
122
51
169
121
46
185
135
62
198
151
79
205
158
81
210
160
84
206
160
82
211
163
75
190
162
91
112
108
109
135
130
135
140
124
108
166
157
151
183
163
127
61
44
38
57
47
56
49
38
50
85
72
83
140
112
87
131
110
98
164
117
48
130
92
41
114
83
43
140
103
51
157
118
47
161
115
45
170
120
48
194
142
54
194
143
51
196
145
56
198
148
61
205
150
62
186
154
88
101
90
101
141
130
127
159
137
105
161
150
146
173
155
129
54
37
34
46
35
43
41
29
40
75
62
73
153
132
111
141
127
119
165
113
46
163
115
48
164
117
54
162
113
52
164
114
46
167
113
49
173
119
52
192
140
58
195
144
58
197
146
63
195
147
63
205
151
67
182
148
85
86
73
79
147
133
120
191
163
121
164
148
143
142
125
114
60
46
47
39
31
37
31
21
31
67
57
69
164
154
147
136
129
131
134
84
33
136
84
28
139
82
25
140
83
31
144
87
33
145
87
34
148
93
38
158
109
45
161
113
45
163
114
51
159
116
47
169
118
45
166
134
77
72
61
60
134
119
101
185
153
108
156
141
137
157
146
147
115
105
109
37
31
37
27
19
29
63
54
66
133
130
136
95
91
100
70
43
27
78
45
25
91
48
24
95
51
29
94
52
29
96
56
28
103
62
29
116
72
35
129
86
43
124
80
41
119
80
42
122
76
39
116
86
56
61
52
62
114
100
90
177
146
105
106
95
92
44
40
48
34
27
33
21
16
21
15
10
18
42
34
45
102
101
113
118
113
124
13
7
9
17
8
8
35
20
19
37
19
21
45
28
30
44
29
29
51
31
25
67
38
27
98
70
55
77
49
36
61
37
30
47
24
21
46
29
28
51
42
53
100
89
87
182
164
149
124
117
119
67
65
74
67
64
72
63
60
67
63
60
68
72
68
77
138
137
148
187
184
193
13
11
16
6
5
9
6
3
8
18
12
19
32
25
33
26
19
27
28
18
23
35
21
22
55
41
42
58
43
44
46
35
39
33
24
30
38
29
34
49
40
45
89
79
84
157
149
154
157
152
156
163
160
165
163
162
170
167
166
174
175
174
182
178
178
186
183
182
190
189
188
196
