P3 24 24 255
92
105
76
89
104
78
76
96
72
74
97
68
71
95
59
89
109
74
97
115
87
76
95
62
77
98
58
80
105
70
95
116
87
91
111
72
82
103
70
85
106
76
90
107
77
86
99
70
92
100
69
108
113
79
99
103
73
65
68
45
45
55
32
63
77
52
95
109
82
102
117
84
93
108
81
88
106
81
74
97
70
73
97
63
70
95
56
99
119
88
98
115
86
75
92
57
81
102
62
88
113
77
85
107
76
91
110
68
83
104
66
78
100
66
86
107
75
88
102
73
119
126
95
126
129
98
101
107
81
61
67
45
25
34
15
25
36
17
50
62
40
92
108
76
98
114
89
87
109
84
75
101
71
72
96
59
71
96
54
101
122
96
89
107
80
74
90
56
83
104
64
85
111
75
84
107
77
96
113
73
79
101
60
77
100
62
96
113
81
124
132
105
134
138
115
83
87
68
54
62
41
58
66
45
35
44
26
30
39
23
35
45
25
62
77
49
84
104
82
79
102
79
74
99
70
70
94
59
73
97
60
96
119
92
76
97
69
74
94
60
80
102
63
81
106
70
86
109
77
90
106
68
77
102
59
82
108
66
123
133
100
130
130
104
105
109
90
64
72
57
47
54
34
49
56
35
36
46
26
40
51
31
37
49
26
47
62
34
79
101
80
76
98
74
76
99
70
69
93
61
75
99
67
83
107
80
70
95
65
79
104
71
74
99
61
81
107
69
80
102
69
83
97
61
79
101
58
98
120
77
122
130
97
104
106
82
77
83
64
67
77
59
53
63
42
44
54
32
49
62
38
48
62
37
54
69
42
73
91
58
84
102
80
76
94
66
74
94
63
72
95
63
77
102
70
78
102
74
88
112
82
84
109
77
74
100
62
86
106
70
91
102
72
96
103
70
99
110
73
113
123
88
101
107
79
71
74
52
58
63
44
57
69
50
56
70
50
48
61
41
46
60
38
53
68
44
75
93
65
85
108
72
80
99
76
76
94
66
78
96
65
83
101
71
83
106
75
86
113
78
95
117
83
93
108
77
116
126
93
129
126
98
121
116
90
114
111
83
101
101
71
80
85
54
72
76
51
57
59
40
43
49
28
39
50
30
38
51
34
37
49
33
26
39
22
58
74
57
89
110
88
101
125
94
78
98
75
77
95
70
85
101
72
93
107
78
89
108
77
90
118
80
101
119
82
138
137
106
141
132
110
112
111
87
88
93
65
80
86
60
68
73
48
53
57
34
59
63
44
65
68
50
53
60
39
47
58
37
48
62
40
52
65
44
35
48
33
50
65
52
71
90
77
105
127
101
84
106
84
87
103
86
95
112
88
97
121
86
83
108
68
110
125
87
148
149
116
126
122
93
89
90
66
76
82
59
55
64
37
41
50
26
26
34
15
19
25
9
34
40
24
52
60
41
47
56
35
48
59
37
50
64
41
56
71
48
46
59
42
38
50
37
60
73
61
93
110
90
88
109
88
95
111
95
101
118
90
91
115
74
92
117
73
145
148
109
160
146
113
96
96
62
65
73
45
67
70
40
50
57
28
34
42
19
32
40
22
42
49
33
60
68
51
61
70
50
40
49
27
46
55
34
49
62
39
60
73
51
41
53
37
28
40
26
60
73
58
93
109
96
87
106
84
95
112
89
93
113
77
94
113
78
137
141
104
159
149
118
106
105
79
73
80
49
63
71
45
56
62
41
51
60
36
41
50
29
50
60
43
69
81
63
68
80
62
64
75
58
46
57
37
41
52
28
51
59
38
55
63
43
43
56
39
40
57
38
67
84
64
98
112
102
88
108
76
93
113
77
87
109
74
118
127
89
171
154
117
149
137
107
88
95
74
74
82
62
73
80
61
65
71
57
55
64
44
54
63
44
71
80
66
74
86
74
66
78
65
60
75
62
50
66
50
48
64
43
53
66
44
54
67
45
34
50
28
44
61
41
74
91
76
96
114
103
85
111
69
83
110
69
100
118
82
137
135
96
149
138
103
115
112
80
68
73
49
58
66
48
56
64
44
52
61
41
58
69
49
75
85
78
78
89
83
65
78
67
63
76
66
56
73
62
50
70
58
54
72
58
58
73
56
57
71
54
54
70
54
61
77
63
80
97
85
99
119
108
92
116
78
104
122
84
113
119
85
109
106
79
96
97
69
88
90
62
63
66
46
61
67
54
67
75
60
77
86
70
94
105
92
84
95
91
71
83
77
58
74
67
56
72
66
52
71
61
50
70
59
54
73
62
59
76
66
53
70
60
54
73
64
68
88
80
89
109
99
101
122
107
126
135
104
138
139
109
104
99
72
80
75
54
83
81
59
113
111
92
101
102
86
93
100
84
94
106
89
95
106
93
92
103
94
83
94
87
80
92
85
71
86
81
64
81
77
57
77
70
57
77
70
61
81
72
59
79
69
55
75
64
62
82
75
76
96
93
94
115
107
103
124
102
96
110
76
101
107
77
133
132
106
152
147
125
144
138
116
151
141
120
142
133
111
127
129
106
97
110
92
84
97
85
80
92
84
83
93
86
83
94
86
78
91
83
70
88
77
66
86
76
64
84
74
66
87
76
67
88
76
68
88
76
75
95
84
86
106
97
99
119
107
107
127
109
102
117
90
133
138
116
160
161
139
156
156
134
137
137
115
127
124
103
125
125
106
106
112
94
96
109
91
87
100
84
78
90
77
77
89
77
76
89
75
75
88
71
68
83
68
65
80
66
71
86
71
73
88
74
75
90
79
79
94
83
83
102
85
85
108
82
94
114
97
109
123
113
96
101
78
104
107
85
113
116
95
104
107
87
113
116
95
126
129
107
106
113
94
88
99
82
80
93
75
72
85
67
67
81
62
67
80
62
62
75
54
61
76
50
58
71
50
57
70
52
66
79
60
70
82
65
80
92
77
92
105
91
80
99
74
74
98
67
98
118
104
105
118
102
79
83
57
111
118
89
109
117
87
114
117
93
151
153
132
126
132
110
92
103
81
77
92
72
69
82
63
68
79
60
66
76
56
60
72
50
59
70
46
59
73
44
56
72
49
59
74
52
66
80
55
77
91
64
93
107
81
91
105
80
65
89
49
83
108
70
118
136
117
104
116
94
114
122
95
116
126
94
112
121
87
100
108
77
101
108
83
89
95
74
87
97
76
75
90
66
67
81
56
71
79
55
71
78
57
75
84
64
74
83
60
65
77
49
70
83
55
74
88
60
72
87
55
73
89
52
80
96
59
69
85
48
68
91
47
87
108
75
97
109
91
93
102
82
114
121
97
107
115
88
94
104
74
77
88
60
75
86
61
79
88
65
79
91
68
79
93
68
78
91
63
79
88
62
79
88
66
77
88
66
72
84
59
72
82
55
84
84
56
80
86
55
72
86
50
67
83
44
70
87
47
63
80
40
62
82
43
82
97
70
96
105
88
85
95
69
102
108
89
89
97
76
82
91
69
80
90
66
76
87
63
77
89
68
70
84
65
79
91
70
81
91
67
76
87
63
80
92
71
68
83
57
64
78
48
72
79
53
80
80
56
68
70
44
77
79
52
90
93
65
92
105
69
65
80
43
58
76
42
78
94
68
97
108
85
81
93
57
85
92
71
70
78
57
76
85
62
74
84
59
65
75
50
69
81
56
71
84
58
69
81
55
74
84
58
78
87
62
71
81
61
72
86
61
66
78
50
65
73
48
65
75
50
53
61
37
52
59
36
59
67
41
57
68
33
53
64
28
51
66
34
62
77
51
85
96
73
71
82
49
64
74
48
56
67
40
63
73
47
69
79
52
75
85
59
76
86
58
70
81
48
71
83
50
82
94
58
80
86
53
68
75
56
66
75
55
66
74
51
61
68
47
55
68
46
50
64
41
36
51
21
28
43
18
33
47
23
36
50
26
28
42
19
42
56
31
56
69
44
72
81
54
