P3 24 24 255
132
164
153
101
126
128
59
78
77
69
84
79
81
97
87
87
104
98
47
62
66
43
54
60
89
103
102
127
155
137
122
160
127
116
160
116
113
161
112
112
162
110
114
160
111
116
158
112
112
157
110
109
155
109
109
154
109
105
150
107
102
147
105
99
148
105
99
150
108
100
150
111
116
158
123
123
163
147
88
117
125
57
78
92
51
67
69
41
56
51
49
63
63
35
44
49
45
52
57
79
90
90
110
129
121
128
158
137
123
163
123
115
162
107
114
163
109
114
160
115
113
159
112
111
157
109
110
156
109
109
155
109
109
154
110
108
153
108
108
153
107
108
153
109
110
157
104
113
159
121
115
151
151
78
103
122
50
66
83
39
52
57
47
59
56
25
35
35
20
28
30
28
34
38
56
62
67
92
103
104
125
148
131
128
164
127
117
161
114
116
161
112
114
161
110
113
159
109
111
157
109
111
157
110
111
157
110
111
155
109
111
155
109
111
155
109
111
155
107
113
156
118
127
164
155
95
121
136
66
83
97
72
85
86
66
78
73
32
42
38
17
26
24
18
26
28
25
31
37
34
38
46
69
80
84
120
142
132
129
164
132
117
161
111
116
161
110
114
160
111
112
159
110
111
159
110
112
158
111
111
158
112
111
157
113
112
157
112
109
152
113
108
154
107
124
165
136
115
142
153
83
100
118
80
96
98
82
97
97
75
85
83
41
46
44
36
41
42
28
37
39
23
34
35
37
45
53
72
82
87
118
143
127
121
160
122
118
161
113
116
162
113
112
162
111
112
161
110
114
160
110
114
159
112
114
159
114
114
159
113
160
191
177
124
164
128
115
155
119
119
151
143
95
116
129
81
102
115
68
91
102
83
100
106
79
91
91
54
62
57
55
63
57
41
48
47
39
43
48
60
66
70
97
112
106
125
151
130
120
160
117
115
163
110
114
163
109
115
162
109
118
160
112
117
160
110
116
161
110
116
161
111
110
133
132
145
173
163
138
172
153
121
155
146
100
129
141
94
120
143
76
102
122
65
89
106
69
88
99
53
68
71
50
60
60
50
57
60
51
58
60
52
60
60
77
86
86
113
127
123
128
161
132
117
161
117
116
163
112
116
162
110
118
161
113
117
161
113
115
163
114
113
162
117
62
89
71
70
94
85
131
162
151
144
178
169
112
147
147
103
132
147
97
122
146
81
107
131
72
97
119
66
86
104
59
74
88
62
73
82
78
89
93
68
80
79
68
77
77
86
95
97
128
149
140
132
164
137
118
161
116
116
164
113
116
164
116
113
163
121
110
162
124
107
162
127
105
143
107
74
105
77
52
80
61
111
139
132
146
178
175
114
147
155
99
128
153
85
113
139
71
97
123
77
101
126
83
104
127
82
102
122
98
116
132
97
113
122
87
101
101
80
92
88
109
118
123
141
161
150
124
163
126
113
161
116
109
158
119
104
155
122
102
156
125
96
154
124
105
149
105
107
147
100
74
110
62
52
83
49
102
129
120
138
168
173
109
142
156
85
116
144
93
122
159
85
113
147
95
123
152
97
124
156
102
127
157
105
127
151
101
120
134
96
114
119
94
109
112
115
136
131
122
155
136
106
150
118
103
153
113
103
157
116
101
160
121
96
158
122
102
149
99
105
152
94
105
151
76
81
121
48
45
73
39
77
102
96
120
151
151
97
131
149
99
134
169
119
151
188
126
157
192
119
151
188
110
140
177
120
147
178
120
145
167
117
140
152
104
129
128
99
122
122
116
142
140
122
160
140
111
163
123
113
173
131
116
178
144
114
180
149
103
147
97
106
151
97
108
157
79
96
144
47
74
110
42
43
67
44
92
116
108
118
152
149
106
145
154
112
146
173
125
156
192
120
154
183
104
136
164
110
139
163
119
146
163
115
139
149
121
144
150
121
139
145
120
141
141
130
168
150
116
176
139
115
182
145
115
182
152
112
180
152
104
148
95
105
148
97
122
168
113
122
176
101
98
149
66
63
97
41
42
65
43
87
115
102
117
153
136
121
160
154
121
157
177
120
153
184
110
140
169
89
116
139
85
108
125
88
109
119
106
125
131
137
163
162
129
169
156
118
174
149
114
182
148
112
182
146
112
180
144
112
176
138
102
149
100
103
146
98
111
156
104
138
193
126
133
188
102
115
156
80
96
123
87
61
83
74
95
121
105
108
143
119
96
135
123
106
143
142
86
121
122
68
99
103
88
116
122
95
121
127
97
129
121
122
166
149
123
182
157
118
185
154
115
181
148
114
177
140
112
171
130
113
167
122
102
148
102
104
148
99
106
150
95
134
184
124
159
201
145
150
181
139
147
174
149
87
109
92
57
79
60
72
95
84
64
93
81
90
131
88
97
140
95
101
143
109
126
167
147
130
171
159
118
170
145
124
183
152
123
183
152
119
177
148
111
163
137
115
162
128
116
161
118
116
160
112
100
148
96
102
148
96
104
145
97
122
165
120
110
141
106
93
122
83
98
135
90
91
119
93
46
66
55
55
73
66
69
94
74
97
136
91
110
155
103
104
154
102
114
167
125
127
184
150
124
188
150
121
181
146
101
151
124
64
101
84
92
120
109
111
141
120
119
154
117
120
158
111
115
164
103
117
163
105
113
154
103
110
147
97
82
111
58
119
153
95
124
168
106
106
140
82
62
88
51
44
66
47
60
83
66
89
123
94
104
148
103
115
167
116
127
185
136
127
189
139
118
180
132
110
162
124
82
119
95
37
58
49
62
73
73
97
116
107
120
150
120
123
160
113
156
203
125
153
202
124
145
191
123
124
155
97
99
126
69
154
191
136
147
185
128
104
134
69
94
125
73
57
86
60
53
79
62
95
134
98
119
168
114
130
186
132
123
181
134
114
171
118
106
159
107
107
155
109
106
143
110
84
112
94
73
92
90
91
114
108
110
144
111
120
162
109
152
202
122
137
189
112
129
176
106
110
142
84
119
145
93
162
196
146
117
151
100
93
122
64
105
140
90
82
117
81
45
76
44
94
134
90
135
182
130
115
168
114
102
155
102
100
152
99
102
153
107
107
156
106
112
156
105
115
151
116
105
134
122
109
134
129
126
158
132
115
156
109
117
168
101
115
169
104
133
183
118
115
148
92
108
134
85
122
153
106
97
127
77
99
129
74
102
143
93
97
139
95
84
117
74
76
102
64
91
122
89
102
143
102
100
144
96
103
146
101
104
149
106
107
152
101
110
154
97
113
154
106
115
151
122
106
134
125
127
159
139
120
160
123
121
175
113
129
187
117
141
194
120
107
143
73
120
148
82
127
156
96
90
117
63
97
130
77
99
143
98
97
144
101
99
138
95
61
92
62
58
95
74
103
151
120
103
158
116
102
159
122
105
161
125
105
160
123
107
162
126
107
162
126
110
164
131
113
162
143
118
168
146
118
175
142
131
191
122
131
192
116
138
190
112
105
139
66
127
157
88
140
167
103
98
124
70
97
139
94
101
151
109
98
151
112
98
153
119
98
151
120
90
141
110
91
141
113
99
151
123
102
158
124
104
158
125
104
156
125
103
156
124
104
157
123
105
158
123
109
162
130
101
152
126
105
155
132
132
189
119
126
183
110
135
186
112
101
136
68
105
138
74
133
163
100
116
145
88
102
148
95
113
161
106
111
158
106
94
142
100
100
145
107
69
107
76
20
50
33
72
104
87
105
143
109
101
142
100
103
144
101
104
145
100
105
147
100
106
148
100
111
150
105
94
127
99
96
125
118
117
169
102
119
174
104
130
183
113
106
144
80
96
128
71
111
142
84
117
151
88
118
166
98
142
189
115
138
179
111
94
137
82
93
137
91
83
121
84
31
60
41
66
94
78
111
144
113
100
140
97
101
144
99
102
145
99
103
146
98
105
148
98
107
146
100
112
145
120
128
158
159
