P3 24 24 255
187
203
200
189
204
199
191
205
200
193
207
202
194
209
204
197
211
207
195
205
205
183
197
197
175
198
195
176
200
196
183
203
201
193
207
202
199
211
203
199
211
202
199
210
202
196
208
199
195
207
199
197
208
203
199
210
206
199
210
206
200
211
207
200
211
207
198
210
206
194
206
202
182
199
196
186
202
197
187
203
198
189
205
200
190
206
201
191
206
201
193
204
203
188
203
202
183
206
202
182
207
202
188
208
205
195
209
204
197
210
202
195
208
200
194
207
199
193
206
197
193
206
198
197
209
204
200
211
207
198
211
206
199
211
206
201
212
208
202
212
208
202
210
207
182
199
195
185
198
196
183
197
196
184
199
198
184
200
200
184
199
199
188
199
197
190
202
199
191
206
201
192
207
203
193
206
203
197
205
204
197
208
207
192
211
208
194
207
206
189
202
198
184
202
195
186
200
195
187
205
198
178
202
194
167
190
182
180
197
191
184
200
191
182
199
189
180
199
198
184
200
202
184
201
203
182
200
203
180
200
203
182
201
204
187
203
201
189
204
199
190
205
201
190
205
201
190
205
201
197
206
202
189
205
198
176
202
193
176
192
185
150
164
154
113
137
123
112
133
124
116
143
134
99
133
122
84
116
106
99
123
115
104
130
116
101
130
112
155
182
183
154
181
183
155
182
184
156
182
185
155
181
183
154
180
182
157
182
180
161
187
183
162
187
184
162
187
184
161
186
183
156
178
167
119
149
127
96
132
108
116
137
118
113
131
112
76
105
85
78
107
96
77
109
98
66
102
90
65
99
87
67
96
86
68
98
84
71
103
86
116
148
150
113
149
150
113
147
148
111
144
143
112
142
140
108
138
135
101
133
129
109
142
138
114
147
143
113
145
141
99
131
127
82
114
103
65
105
83
60
100
76
86
108
91
92
112
100
59
94
82
62
100
87
66
103
90
62
99
87
63
97
86
65
97
86
66
100
86
66
101
85
111
143
145
110
146
146
103
136
135
86
117
112
88
115
108
91
117
109
82
113
106
85
118
111
102
134
127
106
139
132
75
108
101
62
93
89
56
94
85
53
90
77
80
100
93
79
101
105
43
84
86
54
97
86
61
99
86
59
93
81
61
91
81
62
92
82
61
94
81
59
94
80
140
168
167
142
171
168
133
159
153
119
140
131
120
137
124
123
138
124
119
142
131
115
141
131
133
158
148
141
166
156
111
136
127
101
124
122
96
124
122
94
122
111
108
124
120
99
123
132
67
116
123
82
129
118
89
125
112
90
117
108
93
116
108
95
120
112
93
123
113
93
124
113
151
173
169
151
172
167
153
170
161
151
162
148
157
162
144
154
157
137
155
167
153
146
161
149
150
166
153
153
169
156
148
163
151
149
163
157
141
161
152
141
162
143
151
163
150
131
159
158
77
131
131
102
148
135
136
166
155
139
158
151
142
157
152
142
161
155
139
164
156
139
165
157
152
172
166
151
169
161
156
169
158
157
163
148
162
162
142
157
155
133
161
165
150
153
160
147
156
163
150
155
165
151
157
168
154
156
167
155
142
157
142
144
159
138
167
178
159
159
178
164
115
147
134
140
165
149
166
184
170
156
169
161
152
166
160
149
167
163
147
169
162
148
170
161
139
158
152
129
146
139
141
154
143
149
156
140
167
168
148
166
164
143
168
171
156
150
154
141
156
161
147
158
163
150
163
168
155
156
166
152
151
165
150
161
174
156
174
184
165
171
179
159
159
166
146
182
188
169
185
193
177
165
176
164
150
166
159
149
168
164
148
169
162
150
172
160
124
143
137
112
129
122
124
138
128
141
150
137
154
158
141
160
162
143
171
178
160
158
165
148
161
164
149
159
159
145
151
148
135
145
150
137
158
172
157
175
187
171
175
184
167
166
172
153
164
168
149
189
193
176
188
194
179
170
181
169
153
169
162
152
171
166
151
173
164
151
173
161
100
119
114
105
123
117
109
125
117
106
118
107
106
115
101
121
129
114
133
147
127
145
157
138
157
161
145
157
154
140
126
117
105
118
120
109
145
158
146
171
183
169
173
182
166
160
165
149
165
169
152
188
192
177
186
192
179
175
186
175
160
176
167
157
176
169
155
176
167
153
175
163
81
101
96
55
75
70
64
83
77
82
98
90
99
114
105
109
124
113
94
111
95
104
119
102
116
123
109
136
136
124
140
133
124
118
120
112
114
127
117
147
158
147
159
167
155
165
170
156
187
190
176
188
191
179
183
189
178
172
184
173
154
170
159
150
170
159
150
172
160
151
173
161
118
138
133
87
108
103
63
84
79
51
71
66
50
71
65
65
85
79
75
95
85
101
118
109
109
122
114
100
108
101
101
106
100
96
104
98
101
114
105
136
147
138
153
162
150
155
161
148
173
177
164
170
172
163
157
163
153
148
159
148
137
153
141
141
162
149
143
165
152
144
166
154
140
160
154
130
151
147
110
132
128
82
105
102
56
80
77
41
65
62
39
58
56
46
65
62
63
81
79
64
82
80
54
72
69
54
69
65
72
84
77
101
112
104
118
127
117
107
113
101
106
109
98
110
113
106
103
109
101
99
110
100
97
114
101
128
149
134
142
164
151
142
164
152
142
163
156
137
158
152
131
153
147
121
144
138
101
125
119
75
99
94
54
74
74
38
57
58
29
49
49
21
43
43
17
40
39
23
41
40
33
46
43
42
53
50
48
58
54
48
56
51
48
56
50
53
61
55
70
80
73
58
71
62
49
66
55
120
140
128
141
164
151
138
162
149
141
162
154
138
160
149
134
156
145
130
152
141
124
146
135
114
136
126
97
118
115
79
99
98
58
79
78
37
58
56
23
44
43
19
38
37
18
34
33
15
31
30
13
29
28
11
26
25
17
32
29
35
51
44
66
82
73
57
73
65
64
81
72
125
143
134
135
158
145
134
161
146
137
158
149
136
158
146
134
156
144
131
153
141
129
151
139
126
147
136
120
141
133
113
134
126
101
122
114
80
101
94
54
75
68
41
63
56
33
55
47
28
50
42
25
47
39
24
47
39
33
54
45
77
97
84
122
141
127
105
125
111
102
121
107
128
148
134
134
158
143
137
164
147
134
155
146
134
156
144
134
156
144
133
155
143
132
154
142
130
153
140
128
151
137
123
146
132
117
140
126
103
126
112
78
100
86
61
87
70
57
88
68
58
88
69
54
85
65
52
83
63
57
86
67
82
106
85
123
146
125
135
158
137
128
151
130
127
150
129
127
153
133
127
154
136
133
155
146
133
155
143
133
155
143
133
155
143
132
154
142
130
152
140
128
151
135
125
148
130
120
143
125
110
133
116
92
115
98
77
106
84
75
111
84
78
113
87
75
110
84
71
107
81
75
109
83
89
116
90
98
123
97
115
141
115
143
169
143
143
169
143
126
153
130
120
148
127
131
152
143
130
151
140
130
152
140
130
152
140
129
151
139
127
149
137
127
150
134
125
148
132
125
148
132
117
140
124
98
121
104
80
109
87
78
112
86
86
119
93
87
120
94
85
119
92
92
125
99
98
127
102
102
130
105
108
136
111
120
148
123
129
157
132
126
154
130
127
155
133
127
148
139
126
148
136
127
149
137
129
151
139
129
151
139
128
150
137
128
151
138
129
151
138
128
151
138
119
141
128
102
124
111
92
119
101
93
123
100
94
124
102
94
124
102
93
123
101
96
126
103
100
129
107
103
132
110
110
138
116
114
143
120
116
145
123
115
144
121
121
149
125
124
147
137
125
148
136
124
148
135
125
148
136
124
148
135
124
147
134
125
147
136
127
148
137
125
147
136
118
140
129
108
130
118
102
127
112
100
128
109
97
125
106
96
123
103
95
122
102
97
125
104
105
132
112
110
137
118
112
139
119
119
146
127
122
149
129
117
144
123
116
143
120
