P3 24 24 255
153
118
118
148
106
97
148
98
80
153
102
81
160
110
91
162
112
93
160
109
91
160
110
92
159
109
92
152
102
88
151
106
100
154
117
120
154
131
140
114
113
141
79
99
141
56
86
137
39
76
132
37
75
133
39
78
135
47
86
143
56
95
153
60
98
155
61
97
150
59
93
146
156
120
114
153
107
92
156
105
86
169
121
107
181
138
129
179
136
128
174
131
123
182
140
132
177
134
125
156
108
97
153
106
96
157
116
111
171
147
153
135
130
150
89
104
141
58
87
134
37
74
126
30
69
125
36
75
132
51
90
149
60
98
158
59
98
154
61
98
150
62
96
149
161
124
115
155
110
96
157
113
101
162
126
122
179
147
148
194
161
163
193
160
162
188
157
159
160
128
130
153
114
109
160
116
107
158
117
108
162
137
140
126
118
135
86
98
133
57
87
134
39
78
131
35
74
129
43
82
140
55
94
155
59
97
157
55
92
148
55
90
143
57
91
144
157
114
103
161
112
97
155
114
105
131
102
101
136
112
114
177
147
148
191
156
157
165
139
139
124
100
105
141
112
113
167
127
119
158
111
96
152
117
110
120
105
121
83
93
131
57
86
137
48
88
146
54
93
150
61
99
156
60
100
159
57
95
151
56
90
142
55
88
142
57
90
146
137
90
77
146
94
77
161
117
105
167
132
125
164
131
124
171
130
125
175
128
124
171
132
126
175
138
133
170
132
125
153
108
95
147
94
75
146
100
84
117
93
102
85
91
127
62
91
142
57
95
152
61
100
157
68
106
163
62
101
158
55
91
146
55
88
140
58
91
144
62
95
151
115
72
62
130
81
67
140
98
89
159
126
119
180
147
140
183
140
138
175
127
128
179
140
139
183
149
147
162
126
121
146
102
91
139
88
70
128
89
79
101
84
99
77
89
129
64
96
149
62
98
153
65
103
160
68
107
164
63
99
154
59
93
145
62
95
147
67
100
154
72
104
160
116
79
74
133
91
81
149
114
108
163
136
134
177
152
153
181
148
154
172
134
145
173
145
155
172
151
158
162
135
136
152
114
106
140
92
78
129
87
75
101
74
80
83
75
98
75
82
115
71
88
131
73
102
155
67
103
160
61
96
150
62
95
146
68
101
153
76
110
164
80
114
170
121
90
90
144
107
99
155
123
116
160
135
133
161
140
143
165
141
149
169
142
154
166
140
150
161
137
138
162
131
123
153
112
100
141
93
82
122
76
60
109
64
51
101
57
49
102
60
56
97
66
74
88
81
108
71
87
129
64
90
137
65
95
145
65
100
154
68
105
162
72
110
167
102
86
96
134
108
107
153
126
122
162
138
134
164
141
139
164
139
139
165
137
139
160
130
129
150
116
107
146
104
89
144
92
73
137
80
59
122
66
42
111
54
32
106
49
30
109
53
37
108
58
48
106
63
57
97
67
72
84
76
97
72
87
125
60
92
144
55
93
151
58
96
154
104
88
98
141
116
116
161
134
131
172
141
136
176
142
136
173
137
130
171
133
124
173
134
122
169
128
113
160
110
94
149
90
68
136
72
43
126
63
34
115
53
25
116
53
28
122
60
37
123
64
41
125
65
41
117
64
46
100
63
60
82
71
89
67
83
122
53
87
140
48
86
144
116
90
91
146
112
105
162
129
124
172
134
129
170
125
118
165
117
106
166
118
105
166
120
104
168
124
107
165
114
96
150
90
67
131
68
38
123
59
29
123
59
31
131
68
42
128
65
40
127
68
40
121
67
43
116
64
47
110
62
51
98
65
66
79
74
97
59
83
129
50
88
147
113
91
97
150
110
103
168
130
123
175
140
137
170
130
124
164
118
107
166
119
107
165
120
105
159
108
85
149
91
62
141
78
47
132
69
39
127
60
30
123
58
29
130
66
39
130
68
41
131
69
40
128
70
43
124
69
49
120
68
54
112
67
59
95
72
80
80
88
123
76
108
164
100
97
119
149
126
132
174
148
150
180
155
158
181
152
152
177
143
138
170
130
121
166
122
108
165
112
89
157
96
67
146
81
50
138
74
44
129
61
30
127
61
32
129
65
37
135
72
47
132
70
45
133
73
51
130
74
56
123
70
56
116
67
53
104
68
63
90
81
103
87
106
155
88
102
137
138
131
150
176
159
170
182
164
170
180
159
161
179
152
150
176
139
129
173
126
109
169
113
91
157
93
65
141
74
43
128
62
32
127
59
28
127
60
32
129
65
38
132
70
44
131
69
44
138
79
55
137
82
59
125
75
54
112
66
47
102
65
56
94
78
95
85
101
150
79
102
143
120
121
145
162
148
160
175
156
162
175
154
155
178
151
146
179
141
127
171
122
102
160
102
80
145
80
52
132
62
33
122
52
25
134
64
35
131
64
36
129
63
36
129
65
38
127
64
36
129
69
39
130
74
44
124
71
42
117
64
35
110
59
37
99
65
66
84
85
121
72
104
151
98
108
137
139
129
142
164
145
151
171
148
150
173
144
137
170
133
118
165
119
100
157
100
78
143
78
51
129
56
31
122
45
24
125
54
28
122
52
25
123
53
26
128
59
32
129
61
34
133
67
40
137
73
45
130
67
39
120
59
32
113
56
33
102
60
50
84
78
98
73
109
158
84
102
137
122
119
137
156
141
150
166
146
151
168
140
137
164
126
114
156
107
88
155
97
75
141
78
53
125
56
31
116
44
21
118
51
25
130
65
38
134
68
42
134
67
41
135
65
39
139
71
44
141
76
48
133
72
43
123
63
36
115
56
34
104
56
44
90
72
84
69
108
158
73
100
142
101
106
132
135
124
136
153
136
143
166
140
143
171
130
121
158
104
85
146
87
65
135
73
52
120
56
32
124
60
32
136
75
49
149
88
63
159
98
73
155
94
68
146
81
54
139
74
46
133
68
40
126
61
33
120
55
30
116
53
32
109
53
39
96
61
65
65
105
157
66
99
146
90
101
131
125
117
131
148
131
139
160
133
136
167
123
116
162
107
88
165
109
87
153
95
75
129
70
46
142
82
53
156
97
72
156
98
72
158
99
73
153
94
67
147
89
59
141
80
50
129
63
35
119
48
23
113
44
20
110
45
25
108
48
32
100
55
52
72
111
164
74
109
158
101
113
143
133
122
135
151
126
130
163
125
119
165
118
104
162
112
96
167
118
100
160
108
88
136
79
55
149
90
63
154
92
67
147
83
56
147
81
53
144
77
46
139
75
41
133
69
36
125
60
29
117
50
22
113
46
20
110
44
23
107
45
29
102
51
41
74
115
167
79
113
162
111
120
149
142
127
138
151
124
125
158
119
112
165
119
106
168
120
104
161
111
92
144
90
68
137
78
52
150
88
61
147
84
59
142
77
50
136
70
41
135
66
35
131
62
27
126
55
21
123
52
19
123
53
23
121
54
26
112
47
23
105
43
25
102
48
36
77
120
174
81
115
163
122
129
155
158
140
148
170
140
139
183
144
137
189
146
135
182
138
125
164
117
102
142
91
72
149
93
70
160
101
76
154
92
67
144
80
53
137
71
42
132
64
33
125
56
23
119
49
18
118
48
19
121
52
24
124
60
31
119
57
30
108
46
26
102
45
30
74
118
174
82
115
162
126
130
154
161
139
144
172
139
135
185
144
135
189
145
135
179
139
129
160
122
112
152
110
98
151
103
86
151
95
74
156
94
68
147
83
54
142
77
48
135
69
39
129
64
35
122
57
31
126
60
36
127
63
39
124
62
35
118
57
29
110
48
27
104
46
30
74
109
157
92
110
145
130
122
137
161
135
134
176
141
133
187
147
137
185
146
138
168
134
129
146
117
112
154
125
119
148
106
93
136
76
56
138
75
45
135
72
41
126
64
33
128
66
36
129
66
36
129
65
37
125
61
35
119
55
31
116
51
28
111
47
27
104
43
26
96
40
27
