P3 24 24 255
205
215
240
206
216
241
206
216
240
206
216
241
207
218
240
210
221
241
211
223
242
212
223
243
213
224
244
214
224
242
215
224
241
214
223
240
215
224
241
215
225
241
212
225
240
212
225
240
212
225
239
211
225
239
211
225
240
210
223
241
209
222
242
209
221
243
209
220
244
209
219
241
208
218
241
210
219
242
210
220
243
211
221
244
211
221
242
212
223
242
214
225
245
214
225
244
215
226
244
216
226
243
217
226
243
217
227
244
218
228
244
218
228
244
219
228
241
219
228
241
219
228
241
219
228
241
218
227
243
217
227
245
216
226
246
215
224
246
213
222
245
212
222
243
209
219
241
209
220
242
210
220
242
210
221
243
213
224
244
214
225
245
211
222
243
211
222
241
212
224
241
213
225
241
213
225
241
214
226
242
214
226
243
215
226
243
217
226
243
217
226
243
218
226
243
218
227
244
219
226
244
219
225
244
219
225
244
218
223
243
217
222
242
215
223
243
210
219
241
212
220
242
212
221
242
216
225
246
209
217
237
203
212
230
219
229
245
218
228
243
218
229
243
218
228
244
217
227
244
216
226
243
216
226
242
216
225
242
216
224
241
216
224
241
217
224
242
217
225
242
217
224
242
218
223
242
218
223
242
216
221
240
215
220
239
214
222
241
161
169
190
157
164
185
154
162
182
160
168
189
119
126
147
130
138
156
203
213
225
206
215
225
209
218
229
213
221
236
216
223
239
218
225
241
219
226
242
219
226
243
219
226
242
219
226
242
220
226
243
220
227
243
221
227
243
221
227
243
221
227
243
220
226
242
219
225
242
218
225
242
176
183
202
171
178
197
170
177
196
170
177
195
94
100
124
113
120
142
195
204
215
195
204
211
199
208
218
205
211
226
204
209
224
210
215
231
222
227
243
223
228
243
224
229
245
224
230
245
223
229
244
224
230
245
224
230
245
223
229
244
223
229
244
222
228
243
222
228
244
220
227
244
216
222
241
217
223
241
220
226
245
220
226
244
126
131
158
115
119
147
216
223
237
220
228
237
219
226
239
221
225
240
219
221
236
221
224
239
226
229
244
226
230
245
226
231
245
226
231
246
225
230
244
225
230
244
224
230
244
224
230
244
224
229
244
223
229
243
224
230
244
223
229
245
217
223
242
217
222
241
218
223
242
223
228
246
138
142
172
102
105
139
210
216
232
228
235
246
226
232
247
230
232
247
233
233
247
232
233
246
231
231
244
231
231
245
228
231
244
227
230
243
228
231
243
228
231
244
227
231
244
225
231
243
225
231
243
225
231
243
223
229
242
222
228
243
216
225
246
219
224
246
222
225
246
224
232
248
148
156
183
93
98
132
197
204
222
227
236
248
224
232
245
229
232
246
230
230
243
232
233
244
236
235
245
234
234
244
234
236
249
234
237
247
232
235
245
231
234
248
230
233
247
227
234
244
228
235
245
226
234
243
224
233
242
224
231
243
209
220
243
214
221
243
216
222
242
218
229
244
155
165
191
84
90
124
169
176
198
221
230
246
214
222
238
215
220
238
215
219
238
203
208
229
201
207
229
209
215
239
193
200
224
166
174
193
156
164
181
178
186
206
211
218
237
223
230
245
223
230
246
222
229
245
221
228
244
222
228
247
191
205
225
189
200
220
188
199
217
182
196
212
144
153
180
105
110
143
137
143
168
161
168
188
142
148
170
135
139
160
122
126
150
104
111
142
111
122
159
117
128
169
93
101
138
68
76
106
65
74
98
96
105
129
160
168
190
218
225
243
225
232
250
205
211
231
217
221
241
221
225
246
120
134
152
111
125
142
109
124
141
78
92
109
65
74
99
66
70
101
64
69
93
63
69
92
55
59
85
58
56
76
51
47
68
59
59
89
69
74
113
61
66
111
58
58
97
54
55
84
48
51
72
62
63
84
91
96
114
169
178
190
193
201
213
175
181
193
214
219
231
229
233
245
90
101
118
160
174
190
158
173
191
75
86
107
46
52
76
40
44
67
76
81
101
82
87
109
74
76
103
72
68
87
51
44
62
59
55
79
69
68
99
69
68
102
64
58
90
55
50
73
38
34
52
45
41
60
54
56
74
98
110
122
121
131
139
103
110
114
110
114
115
174
177
181
68
74
91
153
164
181
195
208
227
163
171
194
117
120
142
56
60
76
74
78
93
92
95
115
79
81
108
72
73
98
62
64
86
54
56
79
57
60
83
66
68
93
63
62
90
55
54
78
46
46
67
58
56
81
79
83
111
118
129
155
156
164
182
98
103
111
37
39
40
50
52
57
58
59
74
79
85
99
189
198
215
212
220
244
144
149
170
66
69
81
34
36
45
76
77
90
82
85
105
76
83
106
80
87
109
80
87
108
73
79
99
60
66
86
64
67
92
64
66
90
60
62
87
58
60
88
61
64
96
84
91
121
149
159
184
147
152
170
65
65
68
27
29
32
72
70
81
48
48
57
166
171
183
199
208
227
143
150
169
75
77
88
41
40
46
68
67
75
76
79
91
66
70
86
69
72
89
74
77
93
67
70
87
55
57
74
56
56
75
62
62
81
66
65
86
67
66
89
63
60
85
56
58
79
80
90
112
149
155
177
83
82
82
35
35
32
112
110
121
103
102
109
163
163
170
174
174
186
159
161
174
85
87
96
44
42
47
48
46
52
44
46
56
30
31
41
29
28
38
28
27
37
29
28
38
30
29
39
31
29
38
32
29
38
34
31
42
38
35
48
40
36
50
40
39
50
30
36
48
98
100
114
137
133
127
78
74
69
165
164
174
185
183
188
215
211
213
212
205
209
221
219
225
149
150
156
55
51
57
32
29
35
20
22
27
18
16
20
18
14
16
17
13
16
18
15
17
19
15
17
19
14
14
19
14
14
20
15
17
20
14
18
22
17
22
23
20
22
21
22
25
83
82
87
148
143
130
165
158
145
160
160
169
169
168
171
176
172
170
180
171
172
194
190
192
124
124
126
67
61
67
52
48
54
44
45
47
26
24
25
23
19
19
26
22
22
24
20
20
25
20
20
26
21
17
30
25
20
32
27
24
41
35
34
45
41
42
77
76
73
86
85
81
105
102
102
135
130
116
203
196
175
94
94
102
96
96
98
100
98
96
103
98
100
108
106
106
77
76
76
33
27
33
44
38
43
89
88
87
84
82
83
70
67
71
73
70
73
51
48
52
36
33
35
35
31
27
70
66
62
107
103
101
93
89
88
106
104
106
137
138
135
186
185
181
163
160
162
146
142
133
200
195
174
159
158
165
141
140
142
116
116
117
94
94
98
63
63
63
46
45
43
27
21
27
18
13
17
37
36
34
46
45
48
42
41
47
42
40
46
34
32
39
34
32
37
38
37
34
59
57
55
95
93
93
75
73
75
62
62
65
59
62
61
116
116
113
125
122
126
126
125
120
123
120
105
249
250
252
246
247
248
242
243
245
230
231
234
207
207
208
183
183
182
153
151
152
123
122
122
94
93
92
72
71
72
59
57
60
54
52
55
54
52
55
57
55
58
60
57
57
66
63
63
82
78
79
86
82
83
74
72
71
81
79
75
94
92
87
98
95
92
109
107
101
99
96
88
234
233
233
238
237
238
233
231
232
221
219
220
226
225
224
225
223
220
203
201
198
185
183
180
166
164
161
139
137
137
113
111
112
110
108
108
109
107
108
106
104
105
108
104
105
108
104
105
112
108
109
115
111
112
115
111
109
117
113
109
115
111
107
113
109
105
113
109
106
115
111
108
182
177
175
158
152
151
140
135
133
126
121
119
133
127
124
136
131
126
127
122
117
123
117
112
120
115
110
117
113
111
114
111
112
121
117
117
122
119
119
122
118
119
121
117
117
123
119
119
123
119
119
123
119
119
121
117
117
116
112
112
116
112
112
114
110
110
112
108
108
112
107
107
