P3 24 24 255
106
121
102
103
121
100
101
121
98
102
124
98
102
125
92
103
124
93
104
124
92
102
122
90
99
119
90
98
118
89
99
119
85
101
117
93
101
116
96
102
118
94
103
122
98
102
120
98
105
120
105
106
122
102
104
122
96
103
122
96
104
123
95
105
124
96
105
123
98
107
122
100
105
123
99
107
123
105
108
123
110
109
124
111
110
123
108
108
121
101
105
124
93
101
119
90
100
114
92
98
117
93
97
121
87
101
121
90
103
117
96
102
120
95
105
127
100
106
124
99
108
120
101
109
123
103
102
120
94
98
118
89
103
122
92
106
122
97
105
121
98
102
119
96
107
125
95
106
126
94
106
127
94
108
128
98
111
126
106
109
122
106
106
126
94
105
121
95
108
118
105
105
122
98
94
115
83
92
108
78
99
111
84
98
113
83
100
119
85
103
123
90
105
126
92
102
121
89
94
111
81
94
111
77
101
121
79
105
127
89
103
124
92
100
118
94
108
126
97
105
127
93
103
129
89
105
131
94
105
127
95
103
121
88
100
120
82
101
123
86
104
124
96
103
125
91
100
121
87
98
112
86
101
112
84
94
109
75
89
107
72
93
115
75
96
121
78
94
114
76
100
114
88
104
119
89
102
122
82
100
126
82
102
128
85
105
127
90
113
129
102
111
129
99
107
132
95
107
128
96
102
120
90
96
112
76
93
112
74
98
123
81
103
128
84
102
126
87
106
130
95
108
129
97
108
128
93
100
122
87
98
116
90
98
118
85
101
123
84
104
122
87
111
125
96
110
126
92
106
126
90
105
132
86
107
135
89
108
134
93
116
127
109
112
123
101
110
126
99
111
125
98
110
127
95
106
126
88
107
123
95
110
124
100
107
126
90
110
128
91
110
126
99
104
125
92
107
129
93
109
131
100
107
126
101
105
123
96
109
129
101
113
129
104
113
128
99
110
126
96
107
127
92
105
132
87
101
128
90
104
128
95
116
124
109
111
118
103
112
119
107
113
118
110
113
125
109
113
127
106
112
121
112
113
119
115
109
120
106
101
109
94
116
121
108
113
119
108
99
107
95
101
119
89
100
116
87
99
115
87
105
120
100
109
119
110
110
119
105
111
122
106
105
119
97
96
116
87
93
116
88
101
125
93
114
120
111
113
117
112
114
116
115
114
111
117
114
117
112
116
117
113
110
114
115
110
114
113
107
112
110
92
91
91
112
106
108
110
104
110
94
96
89
98
113
90
99
110
95
98
107
93
102
112
101
107
112
112
109
111
113
110
114
113
107
112
109
105
113
106
108
122
107
110
126
103
112
118
108
112
114
115
113
111
115
111
107
108
107
111
103
110
112
109
112
113
115
113
112
112
109
110
110
99
93
94
94
82
85
94
89
94
99
106
96
101
111
103
104
107
106
104
107
105
103
111
105
104
110
105
108
109
110
107
108
110
109
107
115
112
111
118
114
120
117
112
125
109
107
113
102
106
109
107
110
110
105
103
108
89
99
112
88
108
115
106
113
113
113
116
114
110
110
112
112
108
101
104
84
75
88
87
87
99
107
116
105
107
113
109
106
110
109
106
113
105
106
122
103
105
120
98
109
113
103
107
112
106
107
112
111
113
116
115
113
125
111
104
127
97
108
110
103
104
108
101
105
110
101
96
106
82
96
105
84
107
104
112
110
106
120
108
110
109
109
112
116
108
99
104
83
72
77
85
87
92
111
119
105
114
117
109
112
116
109
110
116
104
103
121
97
101
125
93
108
120
101
111
122
108
108
124
104
109
125
102
104
124
94
95
119
78
106
117
95
103
115
90
101
113
91
100
111
91
96
96
90
96
82
100
103
88
115
107
93
109
106
94
101
106
85
84
88
72
64
94
96
94
112
116
112
114
114
112
113
113
109
109
111
108
106
114
104
108
123
100
109
123
103
109
125
103
106
123
95
104
116
95
94
110
86
88
107
73
105
120
94
102
118
88
103
117
91
107
116
102
99
90
94
96
79
90
95
76
87
98
74
82
94
71
68
99
73
65
94
78
69
104
110
101
112
121
112
111
118
109
112
120
108
111
120
112
111
118
110
111
119
104
110
118
107
110
120
104
106
114
101
104
106
102
99
103
99
95
104
94
104
117
101
106
116
101
109
120
103
111
117
107
105
94
99
103
86
96
97
78
84
100
75
78
104
78
70
92
71
57
92
85
70
103
116
99
105
121
103
106
123
96
107
126
94
110
123
105
107
117
105
106
117
104
108
114
112
111
114
117
109
110
115
107
105
113
107
106
114
105
106
113
104
115
98
107
110
105
107
113
104
109
114
105
105
94
100
102
85
93
98
80
82
104
79
79
109
81
71
88
71
56
93
96
81
102
117
102
103
114
104
104
115
101
109
120
108
109
110
108
106
104
105
109
108
114
110
108
116
109
107
118
109
107
118
110
109
116
108
107
113
110
108
114
105
107
106
105
105
105
103
107
99
104
111
103
102
95
96
98
82
84
97
81
79
102
80
79
105
80
74
91
78
69
101
103
96
104
109
105
105
108
105
107
109
113
109
109
115
107
106
109
103
101
106
106
103
111
106
104
112
108
107
112
113
112
119
113
115
115
109
111
109
109
112
109
107
107
110
103
101
100
104
104
103
105
108
106
103
95
96
95
82
84
95
82
82
98
81
81
94
75
72
96
88
81
109
111
104
107
109
107
105
107
107
110
111
114
107
109
107
108
112
106
108
114
110
108
115
111
108
112
113
109
112
112
112
116
116
112
119
109
109
116
110
110
120
106
105
106
101
103
100
93
105
102
102
106
106
104
105
98
96
94
85
86
86
77
77
101
88
89
83
70
68
100
97
91
114
118
113
109
111
111
109
109
113
110
110
113
106
106
106
110
109
108
110
111
111
110
112
114
111
115
113
109
115
108
108
115
111
104
115
100
105
118
101
104
121
99
103
104
94
101
98
90
101
101
95
106
107
99
105
102
95
87
80
79
90
85
81
105
97
96
95
84
82
105
101
97
110
115
111
107
108
110
109
108
112
109
109
112
106
106
109
110
109
108
108
108
109
105
105
106
109
112
106
108
113
106
107
114
111
103
113
103
105
117
100
103
117
101
101
102
92
100
97
92
99
99
98
101
100
99
99
96
94
87
81
79
93
92
86
103
100
97
102
94
92
102
102
96
103
109
102
104
106
103
103
106
104
105
109
107
106
110
103
107
111
103
104
111
106
102
111
96
106
114
99
109
113
110
108
114
112
105
115
108
106
117
105
106
116
106
100
99
97
99
96
93
100
100
94
99
99
94
95
94
90
92
91
84
92
93
87
101
100
96
100
98
93
96
98
93
100
105
99
104
105
103
102
105
103
99
105
99
99
108
93
103
112
98
101
112
101
101
116
93
105
116
97
107
116
102
108
118
104
106
119
102
104
116
104
102
110
105
96
97
94
95
94
88
94
94
84
94
95
85
87
89
79
84
86
76
88
88
84
93
95
88
94
96
88
94
96
93
99
101
100
103
104
103
104
104
106
100
104
100
97
107
94
101
112
98
104
116
98
100
114
91
102
115
97
106
120
96
106
122
97
99
119
93
98
114
99
97
107
98
94
99
91
87
88
79
85
85
75
86
87
78
78
79
73
77
79
72
79
80
76
83
84
78
84
87
79
92
95
91
98
100
95
103
105
99
106
107
105
101
105
103
98
107
100
99
110
99
104
116
100
102
115
99
100
113
94
102
114
100
100
114
98
96
113
95
96
107
101
97
105
94
86
95
82
80
82
74
77
77
70
77
78
71
71
73
68
72
74
68
72
73
67
74
76
68
79
82
73
88
91
84
93
97
89
101
104
99
103
104
103
99
103
102
99
106
99
100
107
100
101
109
100
103
111
103
98
108
98
96
106
100
98
104
100
102
107
102
101
106
107
101
109
102
