P3 24 24 255
163
183
230
165
184
232
166
185
233
166
186
234
166
186
234
167
186
234
167
187
233
168
187
233
167
187
233
167
187
233
167
187
233
166
188
231
166
188
232
167
187
234
168
187
233
169
187
228
165
183
223
166
185
231
168
187
235
167
187
234
167
186
234
166
186
234
164
186
233
162
186
232
168
186
234
170
188
235
171
189
236
172
190
237
172
190
238
172
190
238
172
191
236
172
191
235
172
191
235
173
191
236
173
191
236
171
192
235
170
193
235
171
192
237
172
192
236
173
192
231
168
187
225
170
189
234
173
191
239
172
190
238
171
189
237
171
190
237
168
191
237
166
190
236
171
192
235
172
192
236
173
193
237
174
195
238
175
195
239
175
195
239
176
196
238
177
196
238
177
196
238
177
196
239
177
196
239
176
197
237
175
197
235
175
197
236
175
197
234
175
198
231
169
194
226
170
196
231
176
196
238
178
193
240
176
193
239
171
196
237
171
196
237
171
194
237
175
197
237
177
199
238
178
200
239
178
200
239
178
200
239
178
200
239
180
200
240
181
200
240
181
200
240
181
200
240
181
200
240
181
200
239
181
200
237
181
200
236
179
200
233
178
200
232
173
196
227
173
198
229
179
199
237
182
196
241
181
196
240
177
199
236
176
200
238
176
199
240
181
202
239
182
203
240
183
204
241
184
204
241
184
205
241
184
205
242
186
205
242
187
205
242
187
205
242
187
205
242
187
205
243
187
204
243
188
204
244
188
204
242
187
204
240
187
204
238
181
197
231
184
200
237
186
204
244
183
203
244
185
202
242
187
202
238
184
203
240
180
202
241
187
206
240
189
207
241
190
208
242
190
209
242
190
209
242
191
209
242
193
209
243
193
209
243
193
209
244
193
209
243
193
208
243
191
208
244
190
208
244
190
208
243
190
207
240
191
207
239
185
199
232
189
201
239
189
208
244
184
210
243
186
209
241
190
207
239
189
207
241
187
207
242
193
210
241
195
211
241
196
212
242
196
213
243
196
213
243
197
212
243
199
213
243
199
212
244
200
213
244
199
213
244
199
212
243
198
212
242
198
213
242
198
212
240
200
211
238
200
208
235
191
197
224
196
203
234
199
211
241
193
214
239
191
215
240
191
213
240
192
212
242
193
211
243
199
213
241
200
215
242
201
216
243
202
216
243
201
216
243
201
215
243
204
215
243
204
215
243
205
216
244
204
215
243
205
216
244
199
203
229
177
175
197
168
163
185
165
156
178
168
155
177
146
133
155
150
139
164
167
158
182
186
183
206
201
211
233
196
217
242
196
216
243
198
214
243
203
216
242
204
217
243
205
219
244
205
219
244
206
219
244
207
220
244
209
221
246
210
221
246
209
220
246
202
212
238
207
216
242
182
174
197
132
105
125
113
82
101
106
72
91
109
71
90
82
45
65
69
38
59
92
55
77
121
87
111
194
181
205
208
220
245
201
219
245
204
219
245
209
221
244
210
222
246
206
224
246
206
225
246
209
223
242
212
221
238
209
221
237
205
220
237
209
223
242
210
218
241
213
216
241
189
172
194
160
120
139
124
78
95
113
69
84
101
57
71
56
19
32
47
20
37
75
21
45
90
34
57
179
157
175
216
221
237
204
217
234
205
217
236
207
210
223
212
214
230
214
218
235
225
224
242
197
183
200
159
133
148
160
135
151
147
126
143
198
184
202
215
207
226
162
159
177
123
107
122
106
70
84
88
45
59
75
42
51
75
43
52
45
18
27
38
19
30
81
22
42
94
35
49
144
126
129
180
183
182
169
177
176
143
152
151
146
133
128
165
148
146
176
154
160
180
150
161
120
80
92
73
26
37
105
48
63
118
57
75
154
100
117
146
114
125
53
45
49
34
26
28
43
20
26
49
22
30
42
24
30
42
26
33
52
30
37
44
18
21
76
15
23
89
35
36
123
107
96
117
115
101
100
102
81
81
86
61
103
80
62
136
111
97
130
107
99
78
61
57
23
13
9
15
8
4
31
17
14
54
18
20
73
23
28
83
42
45
78
62
59
50
44
39
59
46
44
64
50
53
63
59
60
64
58
60
78
55
59
72
30
31
79
16
19
93
43
38
137
118
102
122
113
94
82
77
47
103
100
66
85
68
49
86
74
57
79
71
60
47
44
36
32
27
21
26
20
14
49
44
36
59
33
28
60
15
14
92
48
49
124
100
99
113
103
96
114
102
95
112
102
101
113
111
108
129
117
115
115
79
80
84
32
34
89
29
33
81
31
30
130
102
93
165
150
134
136
125
101
143
131
108
62
53
38
61
61
48
68
66
58
73
55
53
88
38
41
95
22
29
104
36
39
113
39
40
104
27
26
114
54
54
145
112
112
147
128
123
150
130
123
148
130
128
150
136
132
169
136
131
139
83
79
105
50
50
105
49
52
81
26
30
92
54
49
127
110
93
143
131
110
131
115
97
65
51
42
64
58
53
62
58
51
86
60
55
115
35
38
136
12
21
134
15
18
131
18
18
129
28
23
123
50
43
109
65
63
102
72
67
101
70
65
102
72
71
108
78
74
128
72
65
147
69
61
114
64
54
107
54
51
108
48
49
84
35
31
83
66
43
93
85
54
102
86
58
76
55
44
66
55
46
62
55
43
87
59
47
117
35
30
147
18
19
150
17
12
130
6
1
127
19
15
124
43
38
76
24
25
53
16
15
53
18
16
57
24
25
50
14
13
76
12
9
118
38
32
87
41
31
108
56
53
130
66
66
89
37
31
65
45
22
68
58
24
83
67
33
88
59
48
69
56
42
68
56
43
88
59
48
121
50
43
163
53
50
145
27
21
121
8
4
115
13
14
106
28
30
70
20
22
48
12
13
72
41
41
63
41
42
30
8
8
46
7
6
65
13
12
55
14
13
85
33
36
97
37
39
90
40
36
95
69
52
108
90
63
130
107
80
86
55
51
70
57
48
73
58
51
92
60
57
114
47
48
132
38
41
100
18
20
70
2
2
82
16
15
102
44
41
99
50
44
88
42
40
110
72
74
78
57
58
21
11
10
22
9
6
31
8
6
36
4
4
47
6
8
56
13
13
83
44
38
107
78
66
115
90
72
143
117
97
75
46
41
66
54
45
64
51
44
71
50
44
76
34
32
81
22
23
68
16
19
46
6
7
90
57
52
151
118
109
140
97
88
119
61
62
112
54
62
87
47
53
40
15
18
32
12
14
35
12
15
42
15
16
42
15
14
42
17
14
39
13
7
62
34
27
65
41
29
136
116
101
92
63
52
81
55
44
77
54
42
68
46
33
66
42
31
100
69
62
83
38
36
56
19
16
68
49
42
130
113
106
126
97
96
86
41
45
71
21
26
80
36
41
56
20
24
35
3
9
31
2
7
34
11
12
34
20
17
40
29
23
52
38
32
91
69
64
124
109
99
202
197
182
77
64
47
88
78
57
98
83
62
92
73
56
77
61
49
86
67
58
87
42
35
81
42
35
40
22
16
32
22
20
26
13
15
18
5
5
18
7
4
57
40
34
58
39
34
51
33
31
77
59
56
99
85
79
139
129
120
184
177
166
218
211
201
237
225
216
248
243
230
251
252
236
23
12
6
73
50
39
91
65
53
70
48
40
41
35
31
17
17
12
44
16
11
55
25
20
32
16
12
38
29
25
62
55
51
85
82
77
100
96
90
127
117
105
158
146
132
181
170
158
217
208
197
236
225
212
249
238
225
254
245
232
255
251
238
254
253
239
253
252
237
253
251
236
59
51
45
92
73
66
106
82
75
76
56
50
57
48
44
41
39
36
65
50
45
91
72
65
120
105
96
155
144
132
193
186
172
224
213
202
235
219
210
242
223
210
252
234
219
251
237
221
249
240
224
249
241
224
252
241
225
251
242
227
250
244
228
246
246
228
248
245
230
253
247
233
