P3 24 24 255
215
234
235
227
250
250
227
254
250
227
254
250
228
254
251
230
254
252
231
253
253
232
253
253
230
254
253
228
255
252
228
254
252
229
255
253
229
255
253
228
254
252
226
253
251
223
254
254
222
255
255
222
255
255
221
254
255
220
254
255
220
254
255
219
254
255
216
255
254
215
255
254
214
230
230
219
241
240
229
255
252
227
255
252
224
254
252
224
254
253
223
253
254
223
253
255
224
254
254
225
254
252
225
254
252
225
254
252
226
254
253
225
254
252
225
254
253
225
254
255
224
255
255
224
254
255
223
254
255
222
253
255
222
253
255
221
253
255
219
253
254
218
254
254
200
212
208
212
228
225
211
233
227
219
245
240
227
255
252
221
253
253
217
253
254
214
253
254
217
253
254
220
253
252
221
254
253
221
254
253
221
254
254
221
254
254
222
254
254
222
254
255
222
254
255
221
253
255
222
253
255
222
253
255
222
253
255
222
253
255
222
253
255
221
254
255
105
112
106
195
204
197
139
152
139
99
117
105
180
204
195
224
255
250
222
255
255
215
255
255
212
252
252
213
251
251
214
251
252
216
253
253
218
254
254
218
255
255
219
255
255
218
255
255
217
255
254
216
254
253
216
254
254
216
255
254
216
255
254
216
254
254
217
254
254
217
255
255
39
42
34
155
162
153
163
177
165
65
79
66
61
76
61
152
172
159
183
212
201
200
238
229
214
253
250
215
253
252
219
255
255
215
255
255
215
255
255
214
255
255
211
253
254
211
255
254
210
255
254
211
255
253
212
254
253
213
254
253
214
254
252
214
253
252
215
254
252
215
255
254
14
14
6
91
100
92
175
198
194
119
135
127
24
28
13
31
35
17
38
51
34
76
101
86
118
148
136
136
164
155
174
205
198
203
237
233
204
240
238
210
248
248
214
255
255
207
254
252
206
254
252
207
253
253
209
253
253
211
253
253
213
253
253
214
253
252
216
254
251
217
254
253
10
10
1
37
44
38
134
153
149
169
184
177
66
71
60
15
15
2
14
17
5
7
15
4
15
26
10
22
35
16
35
50
31
70
88
70
96
116
99
118
139
124
181
205
193
215
252
242
217
255
252
217
255
255
215
255
255
212
255
255
205
255
255
204
252
254
208
252
253
210
254
254
15
15
5
15
19
11
78
90
85
163
177
170
136
145
135
35
40
27
14
16
4
14
14
5
15
17
2
19
24
1
19
24
2
20
26
3
29
35
13
30
37
16
55
65
46
109
131
113
143
171
155
149
180
167
145
181
170
163
204
195
197
240
233
207
253
250
207
255
255
205
255
253
6
6
1
9
10
3
34
39
35
132
142
136
179
195
185
92
109
95
17
28
13
12
17
5
9
13
3
9
14
2
11
16
3
16
20
6
13
16
3
13
16
3
13
17
3
13
23
2
15
29
7
14
30
10
15
34
12
38
61
34
98
123
95
134
161
136
158
188
163
157
191
163
12
14
4
8
10
1
13
15
9
74
84
78
174
193
187
156
177
169
54
71
58
11
21
4
15
20
6
11
15
4
9
13
2
10
13
3
9
12
3
8
10
3
9
12
3
10
14
2
7
14
0
4
12
0
8
17
0
16
26
0
21
32
2
25
36
3
43
54
15
67
81
39
11
13
2
11
13
2
9
10
3
19
26
21
117
133
131
175
195
192
123
140
129
38
47
32
12
16
2
11
13
3
10
12
1
17
19
6
19
21
7
18
20
5
14
17
4
11
15
7
10
15
7
9
15
5
10
16
4
12
19
2
19
27
5
18
26
3
19
28
2
28
36
9
5
6
2
7
8
2
7
8
3
0
2
0
39
50
47
144
160
157
160
177
168
109
121
110
21
28
21
2
4
2
5
8
3
7
10
2
13
17
3
18
23
3
15
20
2
9
14
3
5
11
3
9
15
5
13
19
7
6
12
2
9
16
1
10
16
2
6
12
2
5
11
1
3
4
1
3
4
1
4
5
1
1
4
0
0
4
1
81
92
89
160
177
172
166
185
179
95
106
102
5
8
6
3
7
3
5
9
4
4
9
0
10
17
1
13
20
2
7
13
2
3
8
1
5
11
2
8
13
5
6
12
3
4
10
1
7
13
3
10
15
6
7
13
4
3
4
0
4
5
0
2
2
0
2
3
1
0
0
0
23
31
28
123
139
137
174
195
193
158
173
168
91
99
91
14
19
13
1
6
0
1
6
1
2
8
1
8
15
5
8
14
5
4
10
1
3
8
1
0
4
0
2
6
0
5
10
3
6
12
3
9
16
4
12
19
3
3
2
0
3
3
0
1
2
0
0
1
0
3
3
2
3
6
4
55
66
62
144
164
158
161
183
179
168
186
183
94
104
99
14
19
12
2
6
0
3
8
2
3
12
5
7
16
4
8
16
2
8
15
3
4
11
1
3
10
1
2
7
1
2
9
0
5
15
0
9
20
0
5
6
1
5
8
3
1
6
2
1
4
1
2
2
0
5
6
4
10
14
11
80
91
85
155
177
174
164
190
189
161
180
174
88
98
90
11
16
10
5
10
3
5
10
3
3
9
0
8
15
2
12
19
5
9
16
4
4
11
1
2
8
0
1
8
0
4
14
0
5
16
0
7
10
2
4
8
2
0
5
1
0
4
1
0
3
0
3
5
3
3
4
2
21
23
21
109
123
121
166
192
188
165
191
184
157
178
169
86
99
90
16
21
13
11
11
3
10
12
3
7
12
2
11
16
5
7
12
3
2
6
0
2
5
0
2
6
1
5
11
3
7
14
5
9
8
1
7
5
1
4
1
0
2
2
0
1
3
1
1
3
1
2
3
1
0
0
0
30
35
34
137
153
150
172
198
193
166
196
189
157
182
171
86
99
87
12
15
5
6
7
0
4
6
2
3
5
1
3
5
1
2
3
1
1
2
1
1
3
1
4
7
2
10
13
6
8
1
0
15
6
0
13
2
1
7
1
0
1
3
0
0
0
0
0
0
0
0
0
0
0
0
0
39
44
41
140
162
157
165
197
189
166
199
187
164
188
172
83
96
80
12
15
7
0
0
0
0
0
0
0
0
0
0
0
0
0
0
0
0
0
0
0
0
0
3
6
0
72
68
61
73
70
62
71
68
59
74
72
63
69
71
60
64
68
57
64
69
58
64
69
58
63
68
58
61
67
59
111
124
116
167
187
178
174
200
190
165
193
183
150
176
167
105
116
111
64
66
63
59
58
55
58
56
53
56
58
53
52
60
54
50
61
55
54
52
50
57
57
50
137
140
136
137
141
137
137
141
135
137
143
136
136
142
135
134
143
135
136
146
138
137
148
140
137
147
141
136
145
140
137
149
145
152
169
165
172
193
189
169
195
191
167
195
191
172
196
190
157
176
170
140
156
152
139
152
151
138
153
151
135
153
150
132
153
143
110
109
95
120
111
97
139
147
147
139
148
148
141
150
150
142
152
151
143
154
153
137
150
148
132
147
145
135
151
149
138
151
150
139
150
152
142
155
156
144
161
160
153
173
171
162
185
182
170
195
190
173
205
192
171
205
192
151
181
176
138
163
163
141
163
162
139
157
155
142
160
151
137
130
122
135
111
104
140
146
145
139
147
146
142
149
150
142
149
150
144
153
153
142
153
153
139
151
151
139
152
151
143
157
157
146
161
160
146
162
160
147
165
160
146
166
159
142
164
155
147
171
159
163
190
174
172
201
186
168
194
186
148
169
162
150
162
151
152
154
136
136
130
110
132
95
86
129
87
77
136
140
137
137
142
140
143
148
147
140
145
144
138
145
143
136
146
143
135
146
143
138
150
146
139
153
149
140
156
152
136
151
147
134
149
143
137
152
140
140
156
138
137
152
128
136
143
116
152
156
131
151
153
133
132
130
112
129
120
96
125
108
77
118
86
50
128
69
38
128
80
50
