P3 24 24 255
104
99
110
121
108
121
119
123
139
119
143
162
132
172
195
129
176
202
134
171
201
137
171
202
137
169
201
139
169
201
122
150
183
74
98
125
39
60
83
29
49
70
30
49
69
30
47
66
30
49
68
31
53
76
35
59
85
38
67
94
50
83
113
65
99
132
87
120
150
111
144
173
194
182
186
138
118
125
96
90
102
79
91
109
123
151
174
140
175
203
137
171
200
141
174
203
139
173
202
101
135
164
53
87
116
35
62
88
32
53
77
30
49
72
29
46
66
31
45
63
33
48
66
26
43
64
27
47
71
30
55
81
42
72
102
47
80
112
29
60
89
73
104
131
255
250
248
158
145
143
86
78
86
70
70
89
104
112
140
153
168
201
146
175
205
143
176
204
114
149
177
55
94
120
45
86
112
44
73
99
30
52
77
38
57
80
35
52
73
25
39
57
25
38
55
26
40
59
35
53
75
50
73
99
49
77
106
65
96
127
40
70
98
50
78
105
248
237
240
188
175
178
77
68
77
44
40
57
68
70
92
147
156
182
151
179
202
127
164
190
81
125
154
67
115
144
70
118
145
42
71
95
33
53
74
50
68
88
37
54
72
29
45
61
29
44
64
25
40
66
43
58
84
54
71
97
47
72
98
66
97
125
52
82
109
51
79
106
233
220
227
171
155
162
58
49
57
64
63
75
65
71
84
123
135
150
147
177
194
98
139
163
73
122
154
85
136
169
73
121
151
30
59
80
43
61
78
39
58
75
22
41
58
47
66
83
72
90
111
26
41
71
52
65
90
45
59
79
65
87
107
60
92
114
55
84
111
51
78
107
225
222
218
153
141
139
81
76
77
68
69
75
82
88
99
109
122
137
107
134
157
69
104
133
66
106
140
43
83
117
28
64
95
18
43
68
35
56
78
30
51
73
23
44
66
29
50
72
40
60
81
30
45
64
44
57
73
35
49
63
47
67
84
51
81
102
58
85
115
50
74
106
215
216
209
168
161
157
185
182
184
62
65
74
69
77
92
87
99
120
75
98
128
67
94
127
55
83
117
43
69
102
37
61
91
35
57
85
29
51
79
29
51
79
27
49
77
22
44
72
26
45
70
35
48
64
24
36
49
18
33
47
28
48
68
37
63
90
42
71
103
45
71
104
232
226
227
143
139
146
155
155
167
60
64
84
63
70
97
66
76
108
56
74
107
49
68
101
44
61
94
38
53
83
35
49
78
24
43
73
21
44
75
19
42
73
17
40
71
18
41
72
21
40
68
33
45
67
32
45
65
49
66
88
54
74
105
54
77
116
61
93
124
84
118
145
180
161
176
149
148
169
77
79
103
52
57
88
42
48
85
32
41
79
24
38
68
27
38
65
32
40
66
35
42
69
35
45
72
47
64
92
51
71
101
55
75
105
75
95
125
99
119
148
118
135
165
121
133
164
122
139
167
107
130
159
99
123
161
100
125
170
79
112
137
112
147
164
121
101
123
69
72
98
34
39
66
21
27
58
18
26
59
30
39
70
50
59
80
79
84
101
122
126
141
155
161
177
161
173
191
136
152
175
118
135
157
123
140
163
132
149
171
148
165
187
158
174
200
150
165
198
114
138
165
90
121
146
111
143
174
107
136
173
101
125
139
101
124
130
77
72
89
53
60
80
46
55
74
47
57
76
46
58
75
110
122
137
198
203
213
238
240
245
247
249
251
210
217
224
151
168
185
128
144
162
139
153
168
154
168
182
155
169
183
145
159
173
135
150
168
132
153
176
99
132
148
100
143
152
95
138
151
72
108
127
112
117
122
124
123
124
58
69
80
54
64
77
61
71
82
68
80
89
67
81
87
168
180
184
243
246
248
250
252
253
196
201
204
142
152
162
93
110
125
103
113
121
168
173
179
206
215
223
167
178
187
132
143
152
128
142
153
110
135
149
114
146
150
106
142
137
86
119
116
96
122
124
138
130
129
135
119
120
53
69
78
63
71
84
68
76
89
68
76
88
92
101
112
192
199
207
237
238
238
191
199
206
133
149
162
129
144
156
115
122
128
146
135
126
175
162
154
190
189
194
74
80
91
34
41
49
76
89
97
95
117
129
121
129
128
137
128
117
135
118
108
145
128
124
130
118
122
119
110
118
44
63
73
58
68
83
64
74
89
60
69
84
118
127
143
199
207
219
190
195
199
147
162
173
139
160
176
150
166
178
149
153
156
181
167
155
202
187
178
102
99
104
19
21
33
9
11
18
20
29
33
94
111
120
122
120
120
138
118
110
132
107
101
123
102
103
104
97
107
108
107
119
46
66
79
60
72
89
64
76
93
62
74
91
140
152
169
175
187
202
128
141
151
118
137
152
133
155
172
152
168
179
170
174
176
222
215
208
178
170
165
56
54
60
47
48
57
43
43
47
12
16
16
82
91
95
124
121
120
125
113
109
114
102
105
110
105
115
118
121
136
130
136
150
72
87
104
68
83
100
67
82
98
73
89
105
128
144
160
140
156
171
123
142
156
116
138
156
125
147
164
160
174
184
225
227
229
231
231
228
119
118
119
55
55
62
49
49
56
49
46
48
20
19
16
75
75
75
122
117
115
129
122
124
144
143
154
141
149
167
125
138
156
99
112
128
119
126
145
119
133
148
123
137
153
129
142
158
137
151
167
145
160
176
149
169
185
161
182
199
195
213
227
219
229
237
215
218
220
175
179
179
78
81
85
54
53
61
68
65
72
84
82
83
37
35
32
72
68
65
113
108
107
132
129
134
125
131
144
88
102
122
70
86
102
53
68
81
105
107
124
107
117
131
118
127
141
126
135
149
132
142
156
140
151
165
146
163
176
160
177
190
186
199
209
184
192
199
162
165
168
143
148
152
59
63
69
59
57
65
56
54
60
67
66
68
55
54
54
70
64
63
101
96
99
90
89
95
74
80
91
65
76
91
49
61
71
30
40
47
66
70
82
74
80
90
83
89
100
90
96
106
98
104
114
105
111
122
106
116
123
111
120
127
120
126
131
126
131
136
150
155
158
124
130
134
45
48
54
62
59
65
74
72
78
67
71
75
47
51
54
66
62
66
98
95
100
85
84
90
63
64
71
31
33
40
13
17
18
16
20
19
33
43
50
42
44
52
49
52
60
73
76
84
85
87
95
83
85
92
81
83
86
86
88
89
91
91
92
129
132
135
154
160
164
97
103
106
39
40
44
53
50
55
70
69
75
61
68
75
41
49
57
55
53
60
69
68
75
36
35
40
15
12
13
23
17
15
67
64
56
82
81
73
43
50
58
46
48
58
70
72
82
97
99
110
133
135
146
123
124
133
66
67
70
90
91
93
91
92
94
127
129
133
137
141
146
68
71
76
34
34
39
51
50
55
88
87
93
65
68
75
58
63
69
21
21
24
10
9
12
13
12
14
46
43
42
92
88
84
118
115
105
122
121
112
67
69
78
74
78
90
101
105
117
139
143
154
152
156
168
122
126
136
74
77
82
83
86
91
102
105
110
120
124
128
113
116
121
39
40
45
32
31
37
68
67
73
132
131
137
96
95
101
61
61
65
13
13
11
40
40
38
83
83
81
111
111
109
118
118
115
118
118
111
120
121
114
61
63
72
78
82
92
94
98
108
120
124
135
124
128
139
121
125
134
127
130
135
127
129
134
120
123
128
107
109
114
74
77
82
18
17
23
27
26
32
70
69
75
108
107
113
92
91
97
63
62
66
70
70
68
107
107
105
118
118
116
119
119
117
120
120
117
121
121
113
126
126
119
16
18
25
17
21
29
22
25
34
28
32
41
40
44
52
51
54
61
59
59
64
63
63
68
63
63
68
47
47
52
15
15
20
10
9
15
23
22
28
64
63
69
74
73
78
70
69
75
89
89
92
115
115
114
117
117
115
118
118
116
117
117
115
121
122
119
124
124
117
124
125
119
