P3 24 24 255
188
205
231
190
205
231
190
205
231
190
205
231
190
205
231
190
205
229
190
205
227
186
202
223
176
191
213
180
196
217
187
205
228
187
206
231
187
206
230
188
207
231
188
207
231
188
207
231
188
207
231
188
207
231
186
205
229
185
204
228
185
204
229
185
204
231
185
204
231
185
203
231
189
205
231
190
206
231
189
207
230
188
207
229
188
207
229
194
205
229
194
201
223
186
197
213
162
177
192
161
178
195
183
199
223
190
205
234
190
205
233
190
206
233
190
206
232
190
206
231
190
206
230
190
206
230
189
205
229
188
205
228
188
204
229
188
203
230
187
202
229
187
202
229
189
206
231
190
206
231
189
207
231
188
207
231
188
207
231
193
204
233
194
201
227
194
203
217
159
169
179
115
124
136
169
180
202
194
207
236
192
205
234
191
205
232
191
204
231
191
205
230
190
205
228
190
205
228
190
205
228
190
205
228
190
205
229
189
203
230
187
201
228
188
202
228
190
205
231
190
206
231
191
206
232
192
205
233
191
204
235
190
204
238
190
203
232
196
205
221
171
174
183
106
101
110
166
168
185
197
209
233
190
202
226
191
202
228
191
203
229
190
203
228
189
204
227
189
204
227
190
205
228
190
205
228
190
205
229
189
203
230
188
201
229
188
202
229
190
204
231
191
205
231
192
203
230
196
203
230
197
203
230
194
205
231
189
203
222
194
202
210
194
192
197
127
114
123
171
167
181
202
214
230
187
198
217
189
200
222
190
200
225
190
202
227
188
203
226
188
203
226
190
205
228
189
204
227
188
203
227
188
202
228
187
201
228
187
201
228
191
203
233
193
204
232
194
201
223
200
203
219
198
198
209
186
188
190
176
179
174
180
181
174
165
163
161
105
97
108
134
134
146
166
176
185
178
188
201
192
201
219
187
195
219
190
200
225
187
201
225
186
201
224
187
202
225
187
202
225
186
200
224
186
200
226
186
200
227
186
200
227
193
204
237
183
192
222
190
195
213
196
197
200
180
178
168
174
164
139
177
165
133
151
145
120
89
90
83
45
50
64
58
66
79
83
93
96
142
151
160
175
183
199
186
192
214
190
199
224
184
198
222
183
198
221
183
198
221
182
196
219
182
197
221
184
198
225
184
198
225
184
198
225
194
204
229
170
178
195
177
182
190
176
177
170
183
167
137
199
175
136
174
159
122
135
132
100
91
96
80
65
73
75
69
77
81
86
93
91
108
117
118
124
133
141
164
172
190
189
198
223
186
197
226
182
193
221
172
183
210
163
174
200
173
187
212
181
200
225
180
199
224
180
199
224
191
204
225
169
176
189
176
183
194
187
189
189
222
196
163
223
191
151
162
145
116
143
138
109
116
117
96
107
107
96
106
106
100
103
108
100
101
108
100
109
118
117
162
171
183
187
197
220
185
196
225
185
196
223
163
174
198
157
169
190
169
182
202
178
196
215
181
199
218
179
197
216
184
200
232
161
168
196
173
178
204
195
199
214
226
209
188
234
203
163
175
153
119
137
127
100
124
121
104
117
115
106
109
108
101
100
104
90
87
94
79
96
105
98
140
148
154
182
193
211
181
197
221
181
197
218
163
180
197
160
178
193
162
177
191
172
181
197
185
193
210
183
192
208
181
193
221
155
151
174
173
167
188
190
191
197
210
196
163
240
214
160
175
160
114
115
113
82
104
110
93
92
100
91
92
96
85
94
96
80
92
97
79
88
95
85
129
136
138
180
190
208
180
196
226
175
191
219
169
185
210
163
180
203
157
173
194
156
169
189
177
189
209
181
193
213
178
171
187
131
103
109
142
112
116
192
174
162
199
174
121
237
208
136
193
176
122
121
118
86
87
94
79
72
83
75
88
93
84
95
95
82
97
99
84
83
87
80
129
132
138
184
190
210
179
189
222
168
180
210
167
179
206
165
177
202
155
168
190
148
163
181
156
171
190
162
178
196
140
104
119
116
53
59
113
49
53
164
117
103
197
152
93
240
192
116
231
191
138
138
112
89
93
79
75
90
79
81
76
69
66
77
74
67
81
80
73
74
75
75
94
95
109
137
140
158
148
155
166
147
154
163
144
152
158
145
154
157
146
153
154
153
154
153
152
152
151
150
150
149
93
42
62
104
31
39
132
48
50
188
105
91
216
128
83
234
138
78
227
135
88
189
103
80
141
70
71
90
46
59
63
43
52
62
49
53
61
48
54
58
49
57
51
45
59
119
115
118
189
187
169
205
205
188
195
195
175
195
192
167
198
190
163
209
192
170
215
198
177
211
194
172
123
54
61
116
44
41
162
66
49
228
107
79
245
104
71
245
99
60
243
100
56
251
105
68
208
78
67
102
31
44
67
38
54
75
48
63
64
37
56
54
33
50
48
35
45
153
140
130
246
231
198
245
235
207
234
223
193
216
197
159
226
201
161
235
210
179
226
203
173
204
181
151
214
115
95
197
101
84
222
107
76
245
107
68
253
96
58
244
89
51
236
90
45
241
88
44
216
72
49
128
36
31
76
32
37
66
36
48
58
34
52
49
33
52
45
38
51
127
117
113
184
167
144
187
174
154
182
167
147
165
143
117
166
141
113
177
155
131
167
146
123
147
127
103
219
130
94
208
115
80
235
128
80
243
119
66
242
105
53
231
92
50
213
80
35
206
68
19
204
64
30
163
58
34
100
44
33
67
38
42
53
36
50
35
31
50
47
51
71
90
93
107
98
100
104
102
105
110
100
103
109
100
100
104
95
96
98
96
99
100
94
97
98
94
97
98
206
147
108
196
135
94
224
150
94
234
148
85
249
154
93
245
139
93
234
128
85
218
108
60
220
103
64
208
111
78
154
97
76
96
68
64
47
39
48
27
36
56
63
77
103
102
120
150
99
123
154
103
126
155
96
119
149
89
116
148
86
116
148
82
113
142
78
110
139
79
110
139
193
159
129
185
153
121
209
161
113
224
160
100
240
162
101
237
149
103
227
147
105
217
141
95
211
126
87
199
126
91
180
129
102
153
123
112
80
80
83
37
57
77
81
105
138
112
138
175
111
140
176
128
152
184
115
141
173
98
132
171
88
129
172
88
129
171
84
125
166
80
121
162
131
124
126
142
125
122
167
133
112
185
131
95
198
126
84
194
115
78
176
112
76
161
109
74
159
105
78
151
107
86
146
116
101
142
123
119
102
108
116
64
88
110
84
111
146
122
147
183
139
163
191
166
185
209
148
168
193
128
157
188
122
156
193
125
158
195
125
157
195
124
155
193
96
118
155
103
114
146
119
112
130
139
113
115
157
116
108
162
112
96
145
100
84
117
85
78
101
82
87
86
80
95
73
78
97
66
78
100
58
75
100
50
71
99
59
81
111
107
132
163
131
162
192
139
169
199
129
159
189
121
153
184
122
154
186
124
154
186
137
164
196
147
172
205
82
121
163
87
122
161
101
125
155
113
122
142
121
120
132
128
119
129
120
111
124
101
101
122
82
93
122
68
89
125
65
91
127
67
95
129
65
93
126
63
90
124
73
100
133
102
131
165
122
156
191
138
172
207
131
165
200
123
156
192
123
157
190
128
160
189
138
168
197
142
169
199
79
120
162
78
120
162
84
121
159
88
119
152
89
115
146
93
116
147
87
108
143
78
102
138
73
100
139
67
96
137
66
98
139
66
100
141
69
103
144
71
105
146
75
109
150
80
114
154
83
118
156
91
125
164
97
132
170
106
140
179
112
148
183
122
158
185
138
172
199
144
175
204
83
116
161
84
115
162
84
114
160
85
114
158
85
112
156
88
115
156
83
110
147
77
104
140
77
103
138
76
101
135
71
102
141
65
102
147
66
104
148
66
104
148
66
104
148
70
107
151
75
110
153
75
111
153
79
115
157
81
117
160
84
121
160
89
129
160
101
139
169
109
145
176
