P3 24 24 255
151
151
153
152
152
154
150
150
152
148
148
149
150
149
150
150
149
150
150
149
150
150
149
150
150
148
150
149
147
148
140
138
139
134
133
134
129
128
126
121
120
117
107
105
103
93
91
89
63
60
58
45
42
40
72
69
69
116
113
115
150
144
150
164
155
163
202
194
201
221
213
220
152
152
154
152
152
154
149
149
151
148
148
150
150
150
152
151
151
153
151
151
153
151
151
153
151
151
153
150
150
152
145
145
147
142
142
144
139
139
141
136
136
137
131
127
130
157
152
155
169
163
163
114
107
106
78
71
70
61
54
53
88
79
83
142
130
140
211
200
210
226
215
224
152
152
154
152
152
154
149
149
151
148
148
150
150
150
152
151
151
153
151
151
153
151
151
153
152
152
154
151
151
153
148
148
150
147
148
150
145
146
148
144
144
146
142
138
142
158
152
156
192
184
188
180
170
175
200
191
195
171
161
166
164
153
160
205
194
203
243
232
241
246
235
244
151
152
153
152
152
154
149
149
151
148
148
150
150
150
152
152
152
154
151
151
153
152
152
154
152
152
154
152
152
154
148
148
150
149
149
151
148
149
151
148
147
150
150
146
149
175
169
173
166
157
165
182
172
181
234
225
234
240
230
239
242
232
241
250
238
248
252
242
251
250
239
249
146
146
148
152
152
154
149
149
151
148
148
150
150
150
152
152
152
154
152
152
154
152
152
154
152
152
154
151
151
153
148
148
150
149
149
151
149
150
152
150
149
152
152
148
151
184
178
182
156
148
156
201
191
201
232
222
232
233
223
233
234
223
233
239
227
237
245
233
243
244
232
242
146
146
148
151
151
153
149
149
151
148
148
150
150
150
152
152
152
154
152
152
154
152
152
154
152
152
154
151
151
153
150
150
152
150
151
153
151
151
153
151
151
153
153
149
152
182
177
181
166
158
164
214
204
211
227
217
225
226
216
224
227
216
225
230
218
228
230
218
228
227
215
225
150
150
152
152
152
154
149
149
151
149
149
150
151
151
152
151
151
152
151
151
152
152
151
153
153
152
153
152
151
152
150
149
151
152
151
152
152
152
153
152
152
153
153
151
155
176
172
177
165
159
166
213
203
211
224
213
221
221
211
221
216
206
219
216
206
219
214
205
217
211
203
215
151
151
153
152
152
154
149
149
151
149
149
150
151
151
151
151
151
151
151
151
151
151
151
151
153
151
152
152
150
151
151
149
150
153
151
152
152
152
151
152
152
153
153
152
156
159
158
164
159
157
166
208
201
208
187
176
184
173
165
179
201
197
212
202
196
208
199
194
204
181
178
187
150
151
153
152
152
154
149
149
151
149
149
150
151
151
151
151
151
151
151
151
151
151
151
151
153
151
152
152
150
151
151
149
150
153
151
152
153
152
151
152
152
152
153
152
157
162
161
167
148
150
156
132
133
136
83
80
83
92
92
101
166
167
177
178
176
182
159
158
160
122
121
120
151
151
153
151
151
153
148
148
150
148
148
149
150
150
150
151
151
151
151
151
151
151
151
151
151
149
150
152
150
151
151
149
150
152
150
151
151
151
150
155
155
156
155
154
158
127
126
132
70
75
79
53
57
57
64
64
65
85
89
95
125
131
138
114
117
118
102
104
99
102
101
92
151
151
153
151
151
153
147
147
149
147
147
148
149
149
149
150
150
150
151
151
151
151
151
151
151
149
150
152
150
151
150
148
149
153
151
151
152
152
151
135
135
135
95
94
98
54
53
59
44
49
52
71
74
72
79
79
77
88
91
95
106
113
119
99
107
107
91
95
90
102
102
90
151
151
153
151
151
153
147
147
149
147
147
148
151
151
151
152
152
152
150
150
150
151
151
151
150
148
150
151
149
151
153
151
153
145
143
144
106
106
106
64
64
65
43
42
46
42
41
47
49
51
55
76
77
76
78
74
73
70
70
74
64
70
76
68
77
80
77
82
79
97
98
87
149
149
151
150
150
152
148
148
150
147
147
149
136
136
138
141
141
142
153
154
155
150
150
152
151
150
155
150
149
154
124
123
128
77
76
81
45
44
48
41
40
45
43
42
47
43
42
48
50
51
56
57
57
61
58
57
61
48
48
53
52
55
61
48
52
57
45
48
48
75
77
72
149
149
151
150
150
152
149
149
151
132
132
134
60
60
62
59
59
61
116
116
118
149
148
151
128
127
133
101
100
106
80
79
85
61
60
67
54
53
59
47
46
52
42
41
47
49
48
54
53
53
58
40
41
46
44
45
50
46
47
52
51
52
58
56
57
62
48
49
51
58
60
59
149
149
151
150
150
152
149
149
151
139
139
141
60
60
62
13
13
15
32
32
34
85
85
87
59
58
64
42
41
47
47
46
52
39
38
44
36
35
41
32
31
37
30
29
35
43
42
48
43
43
49
39
40
45
43
44
49
47
48
53
47
48
53
65
66
70
71
72
76
59
61
64
149
149
151
149
149
151
146
146
148
148
148
150
129
129
131
52
52
54
36
36
38
49
49
51
46
45
51
46
45
51
25
24
30
11
10
16
17
16
22
14
13
19
20
19
25
42
41
47
42
42
47
40
41
46
44
45
50
45
46
51
44
45
50
59
60
64
71
72
77
57
58
64
149
149
151
150
150
152
148
148
150
147
147
149
149
149
151
97
97
98
46
45
47
43
43
46
52
51
57
42
41
47
25
24
30
17
16
22
19
18
24
16
15
21
23
22
29
39
38
44
40
41
46
40
41
46
43
44
49
41
43
48
42
43
47
50
51
55
61
61
68
57
57
67
139
139
140
139
139
141
134
134
136
133
133
136
123
122
126
77
77
80
47
47
49
44
44
47
46
45
50
41
40
46
43
42
48
43
42
48
41
40
45
41
40
45
42
41
46
41
40
45
42
41
46
41
40
46
43
42
47
42
43
47
42
43
47
47
46
50
59
58
65
54
53
63
66
66
66
63
63
64
59
59
59
55
54
57
48
47
53
41
41
45
36
37
38
29
31
32
26
25
31
24
23
29
26
25
31
32
31
37
34
34
38
35
35
39
33
32
36
29
28
32
29
27
32
29
24
31
29
25
31
26
25
30
25
24
28
29
25
29
33
29
34
25
21
26
5
5
5
5
5
5
10
10
10
44
44
46
49
48
54
37
36
40
18
18
18
22
22
21
30
29
34
26
25
31
19
18
23
6
5
10
4
3
9
6
5
11
5
4
11
8
7
13
6
5
9
7
6
9
12
9
13
15
11
15
16
12
15
14
11
15
15
13
16
30
27
30
30
30
30
19
19
19
21
21
21
109
109
111
141
140
144
105
104
106
76
72
72
119
115
114
121
120
124
115
115
119
114
113
117
84
84
88
75
74
80
73
72
79
60
59
66
74
73
80
91
89
93
57
57
57
30
32
32
44
39
41
43
37
40
46
45
47
51
51
53
71
71
73
92
92
92
81
81
81
72
72
71
96
97
98
106
107
108
91
89
89
90
83
82
116
108
107
106
105
106
104
104
105
110
110
111
120
119
121
137
137
139
150
149
153
146
145
149
141
140
144
138
130
133
135
132
131
58
63
60
67
67
65
71
68
69
81
81
83
86
86
88
86
87
89
94
94
94
95
95
95
94
94
94
91
93
92
90
91
90
84
80
79
90
80
78
100
89
87
91
90
89
91
91
90
75
75
75
71
71
70
76
77
75
96
96
94
99
99
97
87
88
85
86
71
73
78
69
68
72
80
74
72
80
73
79
81
79
88
91
93
89
92
93
93
96
97
96
96
96
96
96
96
96
96
96
96
97
98
97
98
99
80
79
77
56
51
51
98
93
95
98
98
97
96
96
95
94
94
94
89
89
88
84
84
82
88
87
85
89
89
86
88
88
85
95
87
86
93
87
87
101
106
103
75
81
79
81
83
83
93
94
95
92
93
94
94
95
96
