P3 24 24 255
98
108
113
94
105
101
97
108
95
107
112
88
97
93
75
86
89
77
108
104
95
109
101
91
81
80
65
88
88
67
96
94
72
93
91
70
97
94
75
87
86
64
84
87
58
86
88
64
98
99
82
103
103
88
95
97
85
89
92
87
91
93
90
93
97
84
91
96
81
77
80
69
135
143
101
130
139
101
128
132
95
130
130
88
131
127
83
125
127
86
139
131
99
116
106
81
86
92
67
81
90
58
88
95
53
96
98
65
94
89
66
96
91
65
83
84
51
90
90
66
101
101
74
103
104
72
103
104
75
103
99
84
107
98
89
112
106
92
112
107
90
99
96
77
159
149
93
151
157
100
144
149
91
148
136
87
173
155
111
172
154
112
160
142
106
103
100
68
88
96
66
85
93
59
105
111
64
101
101
64
81
76
46
104
93
61
121
105
64
132
115
83
138
121
87
134
117
80
134
117
80
137
115
89
142
115
93
149
124
99
156
132
103
154
128
99
158
133
89
165
148
106
159
148
103
153
137
90
174
153
105
185
152
112
161
136
99
109
106
71
85
93
60
80
85
48
129
131
82
111
107
67
75
67
34
122
105
72
154
125
88
158
127
90
156
125
89
145
115
78
137
107
69
143
114
85
155
128
101
164
135
107
171
142
110
170
139
107
167
143
95
188
152
113
168
143
100
147
141
88
173
168
111
175
146
99
168
144
101
116
119
76
80
89
52
76
80
40
133
134
82
131
124
82
111
96
63
125
103
71
157
125
94
163
129
98
166
133
102
159
125
97
150
119
88
158
132
105
167
145
119
173
149
122
171
147
115
169
144
113
175
156
105
165
128
89
154
122
79
151
149
94
176
182
120
175
151
99
171
148
101
112
121
73
85
91
56
104
107
69
136
137
87
124
113
74
109
87
56
114
86
56
159
125
95
169
136
105
178
145
115
179
144
120
172
140
109
179
148
115
188
157
125
189
158
125
192
163
124
197
164
126
172
156
112
130
104
68
133
104
69
157
147
98
149
157
96
176
147
101
163
148
103
120
128
85
94
88
61
109
106
75
115
111
66
103
87
54
101
72
49
124
91
68
160
131
99
171
145
103
182
154
116
181
153
124
181
151
113
188
154
114
196
162
123
198
165
124
201
168
122
203
167
121
164
156
105
120
107
66
112
105
64
146
136
88
151
147
90
174
140
97
144
132
90
116
123
84
98
90
67
100
98
69
105
96
60
99
78
52
105
76
54
126
95
71
161
132
102
171
147
102
182
157
114
186
158
126
182
156
117
189
162
124
194
166
129
188
161
121
181
157
112
183
157
114
150
149
99
110
101
64
101
110
61
119
126
71
154
145
89
170
138
94
125
118
75
101
110
71
96
100
73
89
93
63
96
84
58
102
78
55
109
87
58
121
100
68
163
128
103
175
145
107
178
148
111
179
146
118
176
145
108
180
147
112
194
157
121
190
157
113
183
156
110
178
153
109
128
123
82
105
91
58
101
104
58
116
130
76
129
129
76
165
142
100
122
125
79
84
98
56
87
92
63
89
89
66
91
75
52
120
93
67
130
105
75
117
96
65
147
118
89
173
143
109
176
146
115
163
133
110
147
115
80
161
121
87
182
137
102
192
149
107
194
157
113
180
145
101
105
94
62
114
97
65
104
100
59
121
122
75
129
119
76
162
134
98
131
129
86
92
100
57
91
82
57
89
79
65
98
77
53
138
108
75
139
110
79
107
84
56
132
111
75
164
135
104
172
143
115
156
130
107
128
100
71
139
105
80
161
121
95
184
144
112
182
147
112
164
125
93
92
85
49
91
78
51
104
95
58
109
107
63
123
115
74
150
119
84
125
122
81
108
113
70
98
86
64
79
60
48
112
84
57
140
107
70
139
108
77
108
84
58
117
97
66
149
122
96
150
120
91
121
96
65
114
90
69
100
78
62
112
82
66
134
105
85
131
108
82
122
92
71
102
100
61
76
66
47
95
83
53
102
98
53
96
101
53
133
120
78
108
111
70
99
103
67
84
72
52
78
57
42
118
89
65
140
105
75
141
109
80
109
83
60
68
45
34
85
64
43
121
94
60
126
93
59
83
66
45
41
36
24
45
30
24
59
41
35
58
48
34
59
40
32
92
94
61
75
70
50
80
67
40
127
120
74
118
132
78
132
126
81
112
113
72
90
91
65
66
53
37
85
65
46
114
83
65
132
95
73
135
102
74
125
99
71
75
52
43
61
46
27
120
94
59
170
127
92
95
82
53
28
32
15
20
11
9
26
12
13
24
16
10
33
20
15
82
93
53
91
90
63
103
93
62
124
113
75
124
132
80
136
124
85
118
112
80
79
75
54
59
45
31
82
60
40
109
79
58
114
80
58
104
76
50
98
79
51
86
69
58
66
57
44
105
81
56
159
117
85
101
89
58
59
65
41
54
46
38
42
33
26
53
44
32
48
35
24
115
118
67
135
130
89
129
118
82
107
88
68
120
113
82
131
115
91
98
85
69
59
49
32
57
43
32
74
54
39
97
70
49
95
67
46
81
64
41
61
51
34
33
29
19
55
57
38
91
80
49
113
84
66
108
90
68
104
105
67
97
102
71
83
87
55
98
98
63
86
81
52
124
122
71
121
120
68
138
136
87
110
98
79
90
73
55
102
85
67
62
43
37
61
46
33
60
49
39
67
51
40
90
67
49
97
72
52
118
102
75
103
93
82
18
14
7
93
98
69
115
109
70
73
49
35
119
94
74
142
138
94
134
139
94
125
128
83
131
131
81
128
121
79
142
149
95
129
134
82
140
148
91
113
112
83
79
67
50
85
69
53
59
40
32
80
62
50
64
52
41
55
43
28
81
60
46
107
83
55
163
150
110
121
113
99
31
21
14
121
120
81
136
130
88
74
50
39
114
95
74
162
156
112
164
159
112
150
149
97
157
153
99
146
133
92
157
155
112
168
160
123
166
158
120
127
116
93
105
93
76
77
62
55
67
48
42
95
74
61
63
46
37
48
35
23
63
45
34
129
114
77
176
170
123
91
87
68
66
56
41
151
150
104
153
151
106
98
80
68
113
102
77
170
166
113
165
163
106
163
165
101
173
171
107
153
143
99
148
143
104
152
140
108
135
118
93
113
100
75
130
122
91
84
70
60
68
48
38
86
60
49
72
51
43
53
38
25
91
80
55
154
152
101
156
157
104
77
72
48
100
91
66
158
158
111
158
160
111
112
99
80
106
100
71
154
155
101
158
160
103
165
167
105
172
170
107
147
139
103
153
150
111
117
111
76
89
81
47
131
127
84
146
145
97
93
80
63
85
64
50
74
51
34
74
55
44
83
73
46
144
140
94
160
161
103
154
157
99
82
77
47
122
111
84
152
152
109
162
162
115
125
114
89
88
82
57
144
146
99
156
160
108
158
164
105
158
159
103
136
128
98
158
155
111
148
145
102
151
149
101
155
154
98
141
139
91
76
64
48
80
60
48
74
57
36
71
59
40
133
131
88
164
163
104
159
158
104
150
151
99
91
86
55
112
102
71
125
126
83
157
156
105
147
138
102
103
99
66
149
153
100
157
162
107
145
152
97
148
149
101
125
117
86
149
147
97
151
149
99
150
148
97
150
148
97
132
127
94
73
63
49
66
56
41
65
53
31
92
86
58
135
139
90
142
147
90
143
144
99
123
120
84
88
85
56
74
73
41
90
91
52
130
130
84
139
137
97
114
113
77
129
133
84
129
133
83
127
128
87
125
119
87
106
96
73
142
139
95
139
137
92
129
126
82
151
147
108
121
115
89
75
68
51
72
67
47
64
56
33
98
97
62
109
116
68
114
119
74
122
122
87
100
95
67
82
79
54
65
65
42
83
84
52
108
108
69
124
123
88
108
106
75
112
112
75
101
102
63
102
99
67
94
84
63
94
83
65
