P3 24 24 255
208
186
168
211
189
165
197
173
151
199
173
154
190
164
144
196
167
146
214
182
159
216
185
162
207
184
164
197
171
155
199
172
158
202
178
164
208
187
175
209
189
177
206
186
172
197
177
162
119
99
82
58
39
22
65
47
31
79
60
43
70
47
28
107
82
61
128
107
86
137
119
99
188
162
148
200
173
150
195
167
143
186
159
138
180
154
133
167
139
117
200
168
145
211
180
155
227
202
177
220
190
169
205
175
157
209
185
167
208
189
174
202
184
170
221
203
189
209
191
177
102
83
69
60
41
26
73
54
39
89
70
55
93
71
56
116
92
75
142
121
103
159
142
123
160
133
121
172
142
124
183
149
129
198
166
145
193
167
144
157
131
106
169
142
115
197
171
141
210
187
157
212
184
158
210
181
158
233
211
189
224
209
191
221
207
191
228
214
197
180
167
150
88
71
55
83
64
49
92
73
58
99
80
65
110
91
75
118
99
82
138
120
103
163
146
128
138
122
114
159
136
128
180
152
138
191
162
144
205
178
159
205
180
158
178
155
129
213
193
164
206
184
155
209
181
156
222
193
171
226
203
181
237
221
202
231
217
199
230
217
198
177
163
144
81
64
47
97
78
63
97
78
63
100
81
66
110
93
78
121
107
91
128
112
96
150
133
118
89
89
86
108
99
98
150
133
126
191
168
154
195
166
153
208
182
167
213
193
172
200
181
158
193
170
146
210
181
161
214
184
167
204
179
163
220
201
182
226
208
188
233
216
197
158
141
121
93
74
58
101
82
67
102
84
68
116
96
81
107
92
76
129
119
103
135
122
107
147
129
116
82
80
75
79
76
78
83
78
80
138
124
119
200
176
163
213
191
178
215
198
183
194
179
164
196
180
167
210
191
176
201
180
165
180
161
148
186
171
157
208
193
179
206
192
178
162
148
134
140
126
110
106
92
75
90
74
59
118
100
87
95
80
67
94
82
68
134
118
104
125
104
89
178
164
154
126
117
113
70
64
67
67
61
62
134
128
123
192
187
183
155
153
152
153
151
150
166
158
152
163
154
140
171
160
144
173
159
148
175
165
156
186
178
168
200
191
181
204
195
185
182
172
159
160
148
133
138
123
108
136
119
103
99
82
68
94
77
64
131
110
94
145
119
99
217
196
179
215
195
182
150
137
129
70
67
65
85
90
94
125
131
137
106
115
122
122
130
136
144
138
134
146
138
126
157
147
132
170
158
148
177
168
160
188
181
173
203
196
187
193
185
177
164
153
146
157
143
134
158
142
127
170
152
132
128
111
92
109
90
75
142
119
101
159
132
110
220
195
175
222
196
174
193
177
161
125
117
109
114
109
104
126
122
119
111
110
109
126
125
124
140
135
131
151
145
134
151
143
130
160
150
141
167
160
153
186
181
174
198
194
186
171
166
158
115
107
104
92
81
79
97
85
76
107
94
80
128
113
99
128
111
98
148
128
112
153
128
108
217
192
172
231
203
178
161
146
127
116
108
97
115
103
94
114
104
96
126
119
113
136
131
127
159
156
153
162
158
148
146
139
128
149
141
133
161
156
151
187
184
178
194
191
185
144
140
135
58
56
54
131
128
128
155
150
149
71
64
63
33
23
20
86
75
66
148
133
121
165
146
131
205
184
166
212
189
167
184
167
149
122
113
99
104
98
87
96
90
86
108
101
100
113
107
105
141
137
133
152
148
140
158
153
144
156
149
143
150
145
140
179
175
171
185
181
178
101
98
96
160
162
162
212
216
219
120
121
126
93
93
98
65
68
74
118
120
120
115
103
92
129
109
91
198
179
162
204
185
168
202
183
166
156
142
125
99
93
80
96
88
87
91
81
84
94
86
83
119
113
107
144
139
133
156
151
145
168
163
157
149
142
138
136
132
129
180
178
176
105
105
105
188
193
194
226
233
235
177
184
187
155
161
166
137
150
161
177
190
197
122
112
101
106
84
63
194
174
157
210
190
173
203
183
166
191
170
156
125
106
98
102
88
86
97
90
90
97
94
91
117
112
107
135
130
124
138
133
127
148
143
137
153
149
144
134
131
128
157
157
154
108
110
110
165
171
167
225
235
229
217
226
226
179
186
191
133
144
153
149
159
163
145
138
129
114
97
81
197
174
158
211
188
172
202
179
163
181
155
141
139
112
102
106
88
77
97
89
81
92
90
84
101
96
90
121
116
110
129
124
118
129
124
118
144
141
136
167
167
162
175
177
174
142
146
145
117
122
117
199
204
197
217
222
219
170
174
174
120
125
126
119
120
117
142
133
123
144
128
113
188
162
147
185
159
145
152
126
112
119
91
76
114
87
67
124
105
82
96
85
68
74
66
58
78
73
68
99
94
89
119
114
108
129
125
118
142
141
135
175
177
171
200
204
201
193
199
198
134
135
135
110
106
105
175
172
168
158
156
148
125
119
108
125
112
100
131
116
101
160
141
123
170
142
122
117
88
67
94
66
47
99
73
54
105
79
57
116
91
62
115
94
69
101
86
69
81
74
62
84
78
69
90
84
78
97
93
89
132
131
128
179
180
178
203
207
205
212
221
219
208
207
210
136
129
128
127
121
112
136
127
113
124
112
93
135
119
100
147
129
114
163
141
123
108
78
51
88
54
24
78
47
20
102
76
56
116
88
70
113
80
55
87
58
32
126
108
84
145
134
112
93
85
68
73
67
57
76
73
69
116
115
118
190
191
194
203
206
207
201
208
206
208
209
207
197
194
186
181
176
161
173
162
148
124
110
93
146
130
110
168
149
135
178
154
138
91
63
39
100
70
43
83
56
31
103
77
56
114
85
64
97
68
46
62
39
19
81
66
47
160
151
126
153
146
122
137
130
110
141
137
121
101
103
102
171
174
176
196
197
194
187
187
180
188
186
180
180
176
167
165
159
145
95
89
81
67
55
43
124
102
83
150
126
108
179
155
132
93
70
50
105
79
55
82
59
37
84
61
41
79
54
33
58
37
20
45
27
13
50
34
20
101
93
68
161
153
125
177
168
140
186
179
151
97
96
86
83
82
77
148
143
132
167
159
146
169
160
147
139
128
113
94
81
68
30
26
19
25
17
9
68
46
32
114
91
71
148
125
99
154
135
117
135
112
91
106
86
68
74
58
44
54
39
27
35
22
13
40
23
12
54
33
18
59
50
31
99
91
66
128
116
86
147
133
100
127
113
86
73
59
39
68
54
38
96
80
65
113
96
75
117
95
71
99
76
57
40
31
19
15
14
9
24
15
8
61
47
28
105
83
60
181
164
148
184
165
147
159
142
125
132
119
105
124
116
103
92
82
71
94
75
60
108
83
64
86
72
55
80
67
47
84
71
47
89
76
49
99
81
51
104
81
53
87
65
44
86
69
53
103
83
57
130
99
70
124
94
74
42
32
20
11
15
8
17
15
8
39
27
11
83
60
40
167
150
137
169
152
136
166
150
132
160
146
130
132
121
104
126
112
89
126
109
84
110
89
67
145
124
103
156
139
120
121
109
94
68
61
48
44
35
19
61
40
22
83
57
38
106
92
75
116
100
73
140
111
86
134
106
93
39
33
25
9
15
6
23
17
8
42
24
13
60
38
21
164
146
131
152
135
117
159
142
122
156
139
120
141
126
107
127
111
85
121
103
77
130
111
90
151
135
117
166
150
133
162
147
129
121
107
89
66
54
36
72
52
32
93
69
47
100
85
65
101
87
64
137
114
94
118
96
85
28
21
14
13
17
10
24
22
16
31
21
14
35
22
11
183
163
144
162
142
121
154
135
111
133
114
90
134
115
92
131
113
85
128
111
84
121
105
86
134
122
107
136
121
104
126
107
85
113
91
67
108
90
67
108
88
62
110
88
61
111
93
70
120
104
84
109
92
75
113
96
83
82
72
62
32
29
23
14
14
12
24
23
19
17
14
8
