P3 24 24 255
211
248
253
214
248
254
216
247
255
215
246
253
211
245
248
208
242
246
209
243
247
211
245
249
214
244
250
215
245
251
217
247
252
218
248
253
216
244
249
216
243
248
217
243
248
216
241
246
214
242
250
211
241
251
208
239
249
209
240
250
206
240
249
203
240
247
202
238
246
200
235
244
216
249
255
212
245
253
207
239
251
206
240
251
205
242
250
205
242
250
202
240
248
204
239
248
209
239
250
212
241
252
212
242
252
210
240
250
206
237
244
205
235
242
208
234
242
214
237
246
215
237
247
213
237
246
210
237
246
208
238
246
209
240
247
210
241
248
201
234
243
194
231
242
222
252
254
219
247
254
214
241
252
210
241
252
204
241
250
202
239
248
202
239
249
206
243
252
208
243
253
207
242
252
204
239
249
199
234
244
192
232
241
193
233
242
196
232
242
201
232
244
202
230
243
205
232
245
203
234
246
197
231
241
197
229
240
203
232
243
194
229
241
184
226
240
216
245
248
217
247
250
220
249
252
217
247
252
211
244
250
212
245
251
208
241
248
212
245
251
211
246
252
209
245
252
206
243
249
199
238
245
195
235
245
193
233
245
196
233
245
199
235
247
199
231
244
197
230
243
193
230
242
186
226
239
179
222
235
177
222
236
175
222
237
174
223
240
212
245
251
213
246
250
213
247
247
214
246
247
217
245
250
219
247
251
214
241
246
211
239
244
207
236
244
208
240
247
205
241
246
198
237
242
205
240
250
201
235
247
189
223
235
187
221
233
195
230
240
190
228
237
183
228
238
173
223
235
157
215
228
151
215
229
154
216
231
157
217
233
206
238
250
213
245
254
212
246
250
209
242
247
207
239
247
206
238
246
205
237
245
208
238
248
205
233
246
202
233
246
199
234
245
187
225
235
195
234
244
193
231
242
176
214
225
181
219
230
192
226
239
191
227
241
175
224
237
159
219
232
146
214
226
147
217
229
148
216
229
148
212
227
202
237
248
210
245
254
209
244
252
203
239
247
201
237
246
202
238
247
204
239
249
203
239
248
200
236
247
203
235
248
194
226
238
167
200
210
188
221
236
180
229
237
150
208
213
174
220
233
178
221
236
172
221
234
162
218
230
151
215
226
143
210
222
144
213
227
141
212
225
137
209
222
203
240
249
205
242
251
202
239
248
198
235
244
198
235
244
200
237
246
202
239
248
199
237
246
197
237
245
203
236
245
192
227
236
148
198
207
129
203
218
136
211
223
134
199
210
152
212
231
146
213
231
141
213
227
138
210
225
135
206
221
135
209
223
131
208
222
130
208
222
128
206
220
202
239
248
200
237
246
201
238
246
201
237
246
201
238
247
200
237
245
199
236
245
200
237
248
205
238
250
207
235
243
187
235
241
105
188
202
64
164
183
96
180
196
135
198
212
159
217
234
140
209
227
132
207
225
134
208
226
131
205
223
127
206
223
120
206
221
119
205
220
116
202
217
214
246
252
217
248
252
219
248
252
218
247
251
216
246
251
211
242
249
202
236
245
195
231
242
194
228
245
196
229
242
163
224
234
88
181
196
131
188
204
164
208
216
151
206
209
156
215
225
146
212
228
138
209
226
133
203
221
131
201
218
126
200
219
118
200
219
117
202
221
112
201
218
216
245
253
218
245
251
221
246
250
224
248
252
222
249
252
216
245
251
207
239
248
195
230
241
189
226
240
186
230
240
153
220
230
84
172
184
99
159
162
146
185
184
173
212
215
163
215
228
151
215
232
143
211
229
136
204
222
134
202
220
129
204
222
114
199
218
111
197
216
112
201
218
206
235
248
209
237
249
212
237
247
215
238
245
214
240
244
209
238
245
205
238
247
199
234
245
194
237
246
150
204
206
108
177
181
68
150
160
44
121
119
92
143
139
157
194
199
141
192
205
154
219
232
152
217
230
146
211
224
143
208
221
140
209
220
132
205
214
134
204
215
145
208
222
186
226
235
188
230
243
201
235
245
210
237
241
208
239
243
197
235
243
174
221
232
154
208
220
129
189
195
54
104
104
29
78
80
57
126
132
43
113
114
70
129
125
103
142
144
57
112
117
113
179
186
150
198
211
161
208
219
172
217
226
183
223
229
180
225
229
168
219
230
154
211
221
172
220
225
173
218
225
169
210
217
154
199
206
126
180
184
91
147
147
84
149
152
68
139
146
29
83
84
23
60
62
27
63
64
43
92
93
36
76
79
55
97
92
67
96
91
47
84
82
36
93
98
70
136
143
99
153
160
82
123
130
107
160
162
137
190
195
142
189
197
145
196
203
153
203
205
151
193
192
129
172
175
121
180
188
71
140
144
25
83
77
52
116
111
57
131
133
13
70
70
38
95
102
47
106
113
40
93
94
53
94
95
49
99
91
90
131
125
107
145
148
25
81
88
27
117
114
52
118
119
21
67
73
13
104
109
40
142
157
75
155
167
91
165
178
159
208
211
170
216
223
150
196
200
107
167
168
69
141
143
47
112
114
73
132
137
56
113
118
49
107
105
74
139
141
50
110
114
58
99
100
69
100
93
72
111
97
91
139
129
97
153
155
52
107
111
60
107
104
83
114
114
53
89
95
39
98
108
37
111
124
46
129
138
43
132
142
164
182
169
165
182
175
167
185
171
143
169
149
113
149
131
110
143
127
145
175
159
140
165
149
137
159
141
124
162
148
68
107
98
63
87
78
110
125
106
108
126
99
108
131
106
134
160
146
130
154
142
118
142
129
128
153
143
119
142
135
124
144
134
128
150
137
129
155
143
113
147
135
163
166
132
170
170
143
179
178
150
182
182
151
171
174
143
174
177
146
181
186
154
194
198
166
188
191
163
129
146
123
117
140
120
138
155
136
157
172
149
143
157
129
128
140
112
137
147
128
169
177
154
146
163
139
138
164
149
147
163
152
150
162
146
148
164
144
147
162
144
132
155
138
141
169
149
143
171
156
142
170
161
138
167
159
128
159
149
128
159
149
123
155
145
126
157
147
128
157
147
71
100
89
95
122
109
120
145
131
110
135
122
132
154
137
115
133
115
92
116
102
139
163
149
132
154
141
129
151
144
132
150
150
133
152
149
129
152
142
125
151
140
122
152
140
152
177
167
143
172
163
131
164
155
122
154
147
118
148
142
110
140
134
99
128
122
95
125
119
92
127
120
67
99
91
80
108
96
82
109
97
56
89
82
96
124
112
101
121
103
97
119
103
127
148
129
127
145
124
131
150
132
125
145
129
119
140
128
116
138
132
117
143
135
119
149
139
159
183
170
159
181
169
159
180
167
155
175
161
152
172
157
146
168
152
140
164
147
133
161
144
120
157
143
111
153
138
105
148
132
89
129
116
73
109
103
112
140
133
126
149
136
134
156
142
136
159
147
130
156
146
128
161
155
113
154
150
103
150
150
101
152
157
102
155
159
101
157
160
154
185
177
156
187
178
154
184
176
151
178
170
155
177
170
150
175
167
146
175
165
144
174
164
138
171
160
123
168
155
111
163
151
103
151
143
91
137
134
99
145
143
112
158
156
117
163
161
124
168
173
122
167
174
121
169
176
120
172
178
114
171
175
113
173
177
113
172
177
107
167
171
120
171
170
123
175
173
124
175
174
120
170
169
126
174
173
127
172
172
128
171
172
132
173
175
134
176
178
121
171
169
118
169
163
127
173
169
111
163
163
106
163
163
111
167
167
115
171
172
124
176
179
127
177
181
124
177
180
122
179
181
117
176
178
112
171
175
105
164
168
95
154
158
113
172
173
116
176
176
118
178
179
129
183
183
142
187
186
143
186
186
141
182
183
147
187
187
145
187
185
137
185
180
136
185
178
135
181
176
130
178
175
123
172
171
115
166
166
113
165
166
100
155
159
93
150
156
100
159
164
104
164
169
91
153
158
88
153
158
93
156
160
97
158
159
