P3 24 24 255
142
140
106
140
139
105
143
141
108
142
141
107
133
134
114
113
115
106
88
91
81
52
55
45
108
111
100
126
129
116
113
115
104
107
110
100
123
124
118
136
138
130
139
141
115
149
150
121
146
148
115
144
147
110
141
143
111
141
142
117
142
143
114
139
141
105
138
141
99
143
143
90
147
152
118
136
142
108
134
140
106
133
138
104
132
138
115
116
121
109
81
86
74
41
47
34
68
73
60
106
113
91
117
125
101
122
130
108
128
134
117
131
138
122
121
127
107
131
136
119
148
154
135
153
160
137
150
157
136
150
156
141
153
159
142
148
155
134
150
158
133
154
162
125
140
148
110
138
146
108
139
147
108
141
149
111
139
148
116
133
142
117
130
140
114
133
142
117
121
130
104
109
120
84
112
124
86
122
133
97
131
142
110
138
148
119
136
145
122
143
150
135
147
154
140
145
153
134
147
156
134
144
153
136
142
151
134
137
145
129
138
147
130
144
156
141
126
134
89
123
131
85
124
132
86
126
134
89
126
134
90
127
135
92
130
137
95
130
138
95
130
137
94
129
137
88
130
138
89
137
144
97
137
144
101
134
141
100
139
145
108
137
142
115
136
140
117
135
140
110
138
146
110
136
145
110
136
144
114
138
146
120
138
145
124
140
153
159
119
122
67
120
124
69
122
125
71
117
120
65
116
118
59
123
123
61
129
129
68
130
130
69
126
127
65
128
128
68
126
126
68
129
128
72
126
125
73
122
121
69
118
119
62
119
118
72
116
115
74
118
117
70
120
122
66
118
123
65
119
123
72
124
127
85
132
133
99
127
135
157
111
112
57
116
117
63
117
118
64
119
120
66
120
119
60
119
117
52
115
112
45
124
121
51
127
123
54
121
117
52
121
117
53
129
124
63
126
119
63
124
117
60
121
118
48
116
112
51
110
106
49
117
113
51
119
118
48
120
121
49
116
117
52
115
114
62
129
127
90
66
72
102
146
154
121
152
160
127
160
168
135
163
171
138
160
167
136
151
158
122
133
138
91
128
130
78
122
121
70
116
116
57
125
125
60
134
132
68
129
124
66
129
123
70
130
129
65
126
125
61
117
115
54
120
119
55
125
124
60
119
120
56
107
112
49
109
114
70
137
141
126
44
56
85
230
240
227
228
239
225
229
240
226
226
237
223
225
236
227
227
238
226
227
235
211
221
224
197
204
204
179
181
184
148
161
165
119
167
168
119
168
165
122
170
165
128
167
167
122
171
173
125
175
176
129
173
174
129
175
175
131
172
174
129
173
179
130
186
193
162
202
208
209
153
167
195
180
188
187
179
188
186
184
193
192
180
189
187
175
185
187
201
212
213
200
208
203
205
208
206
229
228
233
248
253
245
241
246
228
245
247
226
243
244
224
246
244
230
245
248
225
249
252
231
242
245
225
235
238
221
238
240
222
239
240
217
223
228
198
239
245
228
243
250
255
221
233
254
153
158
166
152
157
165
162
166
174
166
171
178
164
173
183
163
174
186
184
192
205
176
179
203
140
139
174
226
233
251
205
215
223
161
169
171
176
182
183
163
167
172
173
181
179
171
180
180
166
174
179
135
142
152
127
131
139
174
175
171
143
148
135
170
177
170
190
198
208
162
172
186
150
153
162
137
140
149
129
132
141
161
164
173
185
193
203
175
187
200
173
182
203
153
157
196
48
49
105
131
141
184
132
146
175
106
119
136
129
139
154
156
165
181
150
163
173
140
153
167
111
123
143
110
121
147
114
122
145
117
121
127
85
91
86
123
131
125
169
177
181
162
171
167
141
145
145
116
120
120
82
86
86
144
147
147
181
189
190
182
195
200
99
110
125
63
69
106
16
19
76
47
61
108
136
153
184
123
141
158
133
148
162
139
152
166
158
174
185
125
142
156
62
78
99
82
97
124
97
108
131
72
77
82
50
58
50
116
125
111
160
169
157
158
167
140
121
124
113
106
109
97
77
80
68
142
146
133
170
178
168
172
184
178
132
143
146
107
117
141
72
79
124
32
47
83
95
114
135
90
109
117
85
101
106
106
120
127
96
114
119
80
98
105
91
108
120
85
102
118
46
58
70
81
87
83
95
102
86
133
141
116
140
148
119
137
145
99
163
166
148
168
171
152
172
175
156
183
186
167
166
172
155
174
184
169
183
194
185
182
192
199
171
181
206
122
138
158
104
122
129
157
174
171
165
179
174
129
141
140
82
96
96
95
110
109
98
113
112
108
123
122
124
136
133
127
133
121
123
128
105
134
139
106
115
119
79
102
109
53
170
173
154
168
171
152
166
169
150
161
164
145
164
167
150
156
161
144
154
162
146
177
188
182
174
185
193
173
186
191
181
194
189
191
204
192
191
200
190
151
158
155
159
169
166
143
153
148
139
151
140
147
159
145
137
146
132
123
127
111
119
121
97
114
113
80
100
99
56
84
88
34
111
113
100
107
109
96
104
106
93
98
100
87
112
111
101
88
87
75
49
54
37
52
61
48
87
97
93
130
140
135
141
150
138
116
123
108
92
95
86
96
96
95
119
122
122
153
158
153
143
150
135
131
139
117
147
153
132
162
163
148
160
158
138
139
134
105
105
98
58
83
83
39
79
78
67
75
74
64
70
69
59
73
73
62
73
70
62
56
53
42
34
37
21
59
66
52
162
172
162
148
156
146
96
102
89
79
83
69
35
35
28
80
79
80
167
168
170
141
143
139
88
91
76
78
81
57
94
96
72
101
99
84
104
99
80
100
92
66
94
83
49
85
83
49
133
131
106
136
134
109
139
137
112
139
137
112
136
134
111
125
125
103
114
116
96
93
99
83
110
117
106
108
116
107
60
68
57
21
28
18
4
9
2
68
73
69
129
135
135
109
113
108
55
55
42
97
92
73
158
153
128
154
151
121
151
146
116
152
146
114
153
146
111
144
140
109
172
168
135
173
169
136
173
168
136
171
166
134
168
165
133
155
155
125
106
108
84
70
73
56
75
79
68
73
80
74
31
38
33
1
6
2
1
6
2
46
53
49
82
91
88
68
74
67
43
41
29
113
105
89
150
140
116
139
135
100
137
133
98
138
134
99
137
133
98
136
131
100
81
74
43
75
68
38
71
63
32
68
61
30
60
54
28
46
43
23
31
30
11
36
36
16
43
44
31
25
28
25
5
6
7
4
5
6
3
4
5
47
50
50
70
78
73
56
60
52
37
35
22
61
53
38
57
49
31
49
44
21
53
48
21
55
50
22
56
51
22
60
55
28
73
63
35
67
57
33
71
61
30
71
60
29
70
61
28
68
61
30
71
66
37
70
67
42
41
39
22
18
16
12
1
0
0
1
0
0
1
0
0
10
9
9
29
35
28
72
75
63
103
100
84
110
103
84
102
94
72
99
93
67
100
95
68
104
99
72
107
101
74
107
102
73
156
143
110
154
140
107
155
142
109
159
145
112
158
145
108
157
145
107
152
143
108
148
142
110
101
96
69
69
62
49
63
56
48
68
61
53
41
34
27
16
10
6
8
11
5
27
28
20
75
72
55
114
107
85
129
122
96
133
127
101
129
123
99
125
119
94
129
123
98
130
124
96
141
126
93
142
127
93
143
128
95
146
131
97
149
135
97
145
131
92
148
137
100
143
135
99
141
135
101
150
142
117
155
145
123
158
148
126
145
135
112
112
104
83
54
54
37
7
7
0
3
0
0
26
20
1
54
48
28
83
77
57
110
104
80
124
118
94
127
121
97
127
122
92
125
111
76
126
112
77
130
116
81
127
114
78
130
115
77
134
120
79
136
125
85
134
126
88
144
137
100
152
144
106
154
145
107
155
145
107
155
145
107
150
141
106
108
105
80
85
82
58
77
73
52
76
71
45
60
54
33
42
35
17
49
42
23
71
64
42
96
90
66
111
106
76
