P3 24 24 255
138
175
196
135
174
196
132
171
194
130
169
192
141
174
195
154
185
205
150
182
203
148
180
200
145
177
196
136
175
195
134
174
198
133
164
188
153
170
187
177
186
200
182
195
207
171
188
199
168
184
195
177
188
201
181
188
202
174
190
203
140
169
184
126
161
180
135
170
190
138
171
190
157
181
203
155
181
203
149
176
200
145
174
199
149
175
195
172
194
210
174
192
209
170
188
206
169
188
206
171
188
208
158
179
199
132
157
174
157
179
190
167
185
196
171
189
203
171
190
203
166
185
198
169
186
199
172
182
195
173
187
200
156
179
192
140
168
183
141
172
188
142
172
187
161
177
194
166
184
202
167
186
206
165
187
208
162
188
204
174
195
206
185
198
209
187
201
216
182
202
218
187
199
210
180
191
202
164
177
188
181
193
204
174
190
202
174
190
203
177
189
202
174
187
199
169
186
196
165
182
193
163
181
193
166
185
197
164
183
195
153
174
187
142
170
183
163
178
189
157
174
186
160
179
192
168
188
203
177
198
213
184
198
210
193
203
214
181
197
212
163
190
206
172
198
206
177
196
204
182
194
204
193
196
209
186
194
209
180
192
209
184
189
206
183
187
202
174
183
194
165
181
192
161
179
192
161
179
191
159
177
189
156
175
186
149
173
183
179
194
198
175
191
197
171
189
197
168
187
197
184
199
213
197
206
219
202
210
224
184
204
220
143
177
195
166
199
218
172
202
219
157
184
201
171
196
212
170
195
211
170
194
210
177
192
208
179
189
202
175
187
197
168
185
196
165
183
195
162
180
192
158
176
188
156
175
185
155
174
181
183
196
198
181
196
198
179
196
201
171
190
196
188
204
214
211
223
235
221
233
244
210
234
247
160
198
218
132
164
194
118
154
184
114
158
182
127
177
195
126
178
192
132
175
189
157
188
200
170
193
202
169
190
196
168
187
197
166
184
196
162
180
192
159
177
189
157
175
185
154
173
179
185
195
197
182
195
198
178
194
200
181
198
205
201
223
231
210
230
240
213
231
242
181
211
227
119
161
185
94
133
162
89
130
156
103
146
166
86
129
143
99
150
163
109
161
175
138
175
188
168
193
202
166
188
194
165
185
194
163
181
193
160
178
190
158
176
188
155
173
183
152
171
179
182
194
200
180
192
199
182
196
204
194
211
219
194
223
231
179
210
216
174
201
213
130
166
186
100
148
172
118
166
180
104
144
155
99
127
138
41
57
66
85
116
129
112
161
179
130
162
180
173
191
205
173
187
195
167
184
194
162
181
194
160
179
191
158
177
189
155
175
186
150
172
181
168
192
213
190
207
218
201
217
224
193
217
228
185
220
232
161
198
208
165
203
216
138
188
207
101
156
179
74
108
119
51
79
89
75
103
117
23
49
65
52
90
105
89
137
155
120
162
188
146
179
203
147
173
188
141
170
186
138
169
188
137
170
188
135
168
187
132
166
183
132
166
180
189
216
233
225
240
246
223
238
244
199
223
235
186
215
232
152
182
199
169
203
222
148
194
219
104
155
185
39
70
88
31
61
78
75
115
136
64
111
135
55
102
120
68
113
131
104
159
193
79
139
178
72
132
166
71
130
161
68
127
159
69
129
161
67
127
158
64
124
154
69
127
155
216
235
242
228
239
243
218
229
237
207
226
241
200
223
244
185
208
229
183
211
235
153
192
224
106
154
190
79
124
151
84
132
158
87
143
171
92
155
185
70
123
149
64
109
135
88
152
191
45
123
168
27
111
154
31
111
149
32
109
145
29
106
143
28
104
141
28
103
139
27
103
135
233
245
248
229
238
243
175
186
198
173
190
210
186
211
235
182
211
234
170
203
228
146
191
222
97
152
189
97
157
191
113
175
209
85
151
186
92
164
200
87
151
186
77
134
171
83
151
191
71
146
182
59
135
165
61
132
157
57
125
149
59
125
149
67
130
156
73
136
160
68
133
152
228
237
242
235
246
253
210
224
238
191
209
230
174
203
225
162
197
217
155
194
215
139
188
216
94
154
188
95
156
194
105
168
206
81
147
184
90
159
195
91
158
199
79
145
189
75
146
182
90
159
186
104
167
188
117
172
187
116
167
180
120
167
182
121
163
180
117
159
174
114
159
169
203
211
223
198
211
226
209
228
244
207
230
248
193
219
238
186
212
231
179
210
230
147
189
215
97
150
182
101
156
194
115
172
210
89
148
184
97
157
192
89
152
190
71
139
180
63
140
175
64
142
176
64
139
172
97
157
182
123
174
195
128
174
198
129
170
196
123
162
187
122
164
185
219
228
237
182
193
206
161
181
197
164
194
212
186
213
230
199
220
237
193
217
235
178
208
231
148
183
212
139
180
213
132
178
212
105
156
189
106
162
193
96
155
186
72
137
171
50
127
164
54
137
177
44
125
167
56
129
167
94
158
195
118
175
213
119
174
212
116
173
212
112
171
211
216
232
236
218
227
234
177
193
205
143
174
191
123
155
170
145
171
185
168
194
210
188
212
232
189
214
236
184
214
241
168
203
232
147
192
219
131
183
209
112
168
193
80
143
175
55
128
168
65
142
186
60
136
177
65
144
187
80
154
200
94
160
206
87
156
199
81
157
199
76
155
202
177
206
214
213
229
237
209
222
232
187
208
222
163
191
204
135
165
176
117
146
160
129
157
173
149
177
196
165
196
218
174
209
232
177
216
239
174
215
239
154
203
230
128
189
223
98
166
210
88
162
211
87
161
208
90
164
208
90
159
202
90
153
196
83
147
188
73
139
176
67
131
165
145
185
200
193
218
228
213
227
235
209
219
230
197
218
229
177
205
216
167
197
209
151
182
197
127
159
175
117
151
168
125
160
178
135
168
188
146
177
200
154
190
219
150
196
230
118
168
205
99
153
193
88
143
183
78
129
162
68
114
144
58
101
130
48
90
117
34
68
93
35
51
77
132
175
195
169
199
211
206
222
230
223
230
239
204
220
231
187
212
223
184
211
222
177
207
220
167
200
214
157
193
207
144
179
196
130
162
182
121
150
173
119
149
174
116
147
172
85
112
134
57
83
104
45
70
91
32
53
70
25
46
59
26
47
58
31
49
59
31
41
52
25
28
39
154
191
214
168
200
213
170
193
200
205
218
225
214
226
237
200
218
229
190
212
224
181
209
221
172
203
217
164
199
216
165
200
219
167
200
222
159
192
216
141
175
201
134
164
188
65
82
96
19
27
34
25
30
36
32
38
47
42
52
61
41
53
58
38
45
49
44
47
52
26
37
37
181
211
233
196
225
237
196
220
227
190
208
217
190
201
212
212
223
234
204
220
232
188
210
222
171
198
211
154
186
204
146
180
200
143
180
201
149
187
211
154
197
226
157
194
223
75
93
106
29
32
33
35
35
34
36
40
49
32
43
54
21
35
42
22
30
38
24
25
33
27
26
28
223
238
246
236
250
253
243
255
255
237
246
248
227
232
236
238
243
247
233
241
246
221
233
237
191
206
212
164
186
197
158
186
197
148
182
195
145
182
201
142
181
207
134
168
192
63
81
92
22
25
25
32
31
27
27
29
31
21
26
32
20
25
31
23
25
33
24
24
28
23
25
19
248
254
254
251
255
254
252
254
252
254
254
251
250
250
251
246
247
250
245
248
250
244
250
251
233
241
243
216
229
234
215
233
236
193
217
223
162
188
202
142
174
196
133
167
189
69
93
107
45
62
71
56
72
79
26
37
41
20
26
29
25
28
31
27
26
29
28
24
26
28
26
27
249
250
251
248
249
249
254
253
250
253
251
247
246
245
246
246
246
251
242
245
249
240
245
248
242
249
251
243
249
252
246
253
254
238
248
249
216
230
237
185
209
223
157
187
203
106
134
148
84
116
133
75
112
134
71
101
116
37
57
67
21
36
44
31
39
44
41
43
48
43
39
51
