P3 24 24 255
47
44
45
52
52
52
46
45
45
39
39
39
55
55
55
71
66
70
80
71
77
67
58
62
67
59
60
80
72
71
102
89
88
151
134
132
227
218
217
255
254
254
253
254
254
254
255
255
255
255
255
255
255
255
255
255
255
255
255
255
255
255
255
255
255
255
255
255
255
255
255
255
48
42
42
49
46
46
46
43
43
26
23
23
30
27
27
38
33
34
48
41
42
47
40
40
56
49
48
80
74
71
111
101
98
148
135
132
230
223
221
255
255
255
254
254
254
254
255
255
255
255
255
255
255
255
255
255
255
255
255
255
255
255
255
255
255
255
255
255
255
255
255
255
65
55
54
59
53
52
67
61
61
63
57
56
59
53
52
61
56
53
55
50
46
44
39
35
47
42
38
86
81
77
112
106
101
136
129
124
231
227
223
255
255
255
254
255
255
255
255
255
255
255
255
255
255
255
255
255
255
255
255
255
255
255
255
255
255
255
255
255
255
255
255
255
89
79
77
75
68
66
76
68
66
82
74
72
79
71
69
75
67
63
60
52
47
44
37
31
67
60
54
79
72
66
96
89
83
155
148
143
244
241
237
255
255
254
255
255
255
255
255
255
255
255
255
255
255
255
255
255
255
255
255
255
255
255
255
255
255
255
255
255
255
255
255
255
81
69
67
81
70
68
84
73
71
80
70
67
85
75
72
91
82
76
72
63
55
65
56
49
79
69
62
82
73
65
85
76
69
161
155
149
251
248
245
255
255
253
255
255
255
255
255
255
255
255
255
255
255
255
255
255
255
255
255
255
255
255
255
255
255
255
255
255
255
255
255
255
79
66
61
83
71
66
85
73
68
88
76
71
76
64
59
104
92
85
97
86
77
85
73
64
75
64
55
89
78
69
85
75
68
167
161
155
255
252
248
254
254
252
255
255
255
255
255
255
255
255
255
255
255
255
255
255
255
255
255
255
255
255
255
255
255
255
255
255
255
255
255
255
89
75
70
96
83
75
97
83
76
103
89
82
94
81
74
115
101
93
117
104
95
97
84
75
98
85
76
118
104
95
103
93
85
174
167
162
255
254
250
254
254
252
255
255
255
255
255
255
255
255
255
255
255
255
255
255
255
255
255
255
255
255
255
255
255
255
255
255
255
255
255
255
92
78
73
105
92
83
109
96
87
98
85
74
134
122
110
166
152
141
144
129
120
111
96
88
133
119
110
123
110
97
107
97
86
163
157
151
253
250
247
255
254
253
255
255
255
255
255
255
255
255
255
255
255
255
255
255
255
255
255
255
255
255
255
255
255
255
255
255
255
255
255
255
108
94
89
133
122
111
119
108
93
77
66
48
132
122
101
195
181
165
149
131
124
119
102
99
127
112
105
80
70
50
115
107
88
158
151
144
241
237
237
255
255
255
255
255
254
255
255
253
255
255
255
255
255
255
255
255
255
255
255
255
255
255
255
255
255
255
255
255
255
255
255
255
126
112
103
152
140
127
138
126
111
99
88
69
107
96
76
171
155
139
151
131
122
109
90
85
110
95
85
93
82
62
136
128
109
159
153
145
236
232
232
255
255
255
255
255
254
255
255
253
255
255
255
255
255
255
255
255
255
255
255
255
255
255
255
255
255
255
255
255
255
255
255
255
133
118
103
127
114
99
139
126
110
137
124
107
95
82
66
142
124
109
155
134
122
107
88
77
95
78
66
127
113
96
126
116
100
152
147
139
248
244
244
254
253
255
255
255
254
254
255
253
255
255
255
255
255
255
255
255
255
255
255
255
255
255
255
255
255
255
255
255
255
255
255
255
133
117
98
131
115
98
128
112
96
147
131
116
130
114
100
112
91
78
142
119
103
120
100
82
97
79
62
131
114
100
94
82
70
93
87
80
212
207
208
255
254
255
253
253
252
254
254
252
255
255
255
255
255
255
255
255
255
255
255
255
255
255
255
255
255
255
255
255
255
255
255
255
148
130
109
151
133
115
141
123
107
143
124
111
129
110
99
95
71
60
127
102
83
134
113
89
91
72
51
105
87
75
82
70
60
34
27
20
115
110
111
230
228
231
253
254
253
253
254
251
255
255
255
255
255
255
255
255
255
255
255
255
255
255
255
255
255
255
255
255
255
255
255
255
169
150
129
192
174
153
182
164
147
160
141
128
149
129
120
110
85
73
96
69
48
107
84
56
84
63
39
104
83
73
70
56
50
21
14
8
34
29
30
126
124
128
235
235
235
255
255
254
254
254
254
255
255
255
255
255
255
255
255
255
255
255
255
255
255
255
255
255
255
255
255
255
145
127
107
176
158
137
183
165
146
144
125
107
134
115
99
146
124
103
118
90
64
113
81
51
123
93
69
109
86
75
58
45
41
31
26
23
36
32
32
47
45
48
135
135
139
227
228
230
254
254
254
253
253
253
255
255
255
255
255
255
255
255
255
255
255
255
255
255
255
255
255
255
133
114
98
143
124
108
162
143
127
151
133
116
134
115
99
174
153
133
178
153
129
142
113
87
161
134
115
107
88
79
48
37
34
38
31
30
45
40
40
40
37
40
49
48
53
129
129
133
239
239
239
254
254
254
253
253
253
255
255
255
255
255
255
255
255
255
255
255
255
255
255
255
123
103
92
132
112
102
155
135
126
158
139
129
149
130
120
164
146
133
157
139
123
143
124
108
118
102
90
93
81
75
74
65
62
76
68
65
59
52
51
38
34
34
38
36
39
49
48
50
166
166
166
251
251
251
255
255
255
255
255
255
253
253
253
255
255
255
255
255
255
255
255
255
90
71
61
118
97
90
140
119
112
131
111
103
129
109
102
150
133
125
150
136
127
105
95
87
61
53
47
82
76
70
88
80
75
100
90
86
82
74
70
40
34
33
37
33
34
30
28
29
54
54
54
159
159
159
228
228
228
254
255
254
255
255
255
252
252
252
252
252
252
254
254
254
77
58
46
100
80
68
102
83
71
104
85
73
109
89
78
128
109
99
119
105
98
86
79
75
78
74
69
85
79
70
90
80
71
84
72
65
83
73
68
53
45
42
40
34
33
34
31
31
16
16
16
34
34
34
80
80
80
149
149
149
210
210
210
245
245
245
253
253
253
255
255
255
114
96
79
115
97
79
112
93
75
110
91
73
110
91
74
123
102
89
108
92
84
85
79
75
66
62
56
76
67
54
95
82
70
78
64
57
76
64
59
58
49
46
46
39
37
37
33
32
15
15
15
15
15
15
14
14
14
31
31
31
75
75
75
160
160
160
243
243
243
255
255
255
111
93
77
112
93
75
116
97
79
109
90
72
107
88
70
113
96
81
103
90
81
76
68
61
49
42
33
71
62
49
87
75
63
77
65
57
83
73
67
67
60
56
52
46
44
42
38
38
20
17
21
17
15
18
13
11
14
15
13
16
19
18
20
47
47
47
175
175
175
253
253
253
97
80
66
96
77
62
99
80
65
103
84
69
102
83
68
99
86
73
84
76
65
64
56
45
54
46
35
81
74
63
77
68
58
70
60
52
100
92
86
76
71
67
47
45
43
46
44
45
27
22
28
17
12
18
12
7
13
14
9
15
19
15
20
11
11
11
60
60
60
187
187
187
94
78
65
94
76
62
91
74
60
90
72
58
94
76
62
93
81
69
75
67
56
62
54
43
70
62
51
88
81
69
75
66
56
65
55
47
82
74
68
61
56
52
48
46
43
45
42
42
24
19
23
18
13
16
14
9
13
20
15
18
27
24
26
16
16
16
13
13
13
62
62
62
87
74
61
94
78
66
88
72
60
84
68
56
86
71
59
85
74
63
79
71
60
66
58
47
84
76
65
86
78
67
75
66
55
74
64
55
71
63
56
51
46
42
57
55
52
40
37
37
17
13
14
18
14
15
19
15
16
32
28
30
33
30
31
18
17
18
12
12
12
14
14
14
