P3 24 24 255
129
83
86
126
80
80
141
93
90
141
87
81
147
93
87
164
119
111
157
124
114
118
108
98
92
97
89
86
102
93
84
106
94
163
173
165
179
162
163
117
82
88
126
86
89
127
89
88
136
89
84
152
106
94
162
132
115
138
133
116
121
125
108
120
123
108
126
123
113
148
132
127
133
88
91
121
78
81
130
85
85
142
93
90
138
84
81
135
80
77
146
95
91
160
117
109
153
120
112
155
132
122
152
132
119
183
159
154
165
130
131
116
76
77
106
73
72
105
75
75
121
82
80
145
96
90
168
114
108
191
135
126
187
134
123
189
135
126
199
140
135
212
159
149
139
92
96
116
75
78
118
77
76
135
91
86
135
85
83
122
71
73
119
71
73
136
82
80
150
93
88
179
122
113
193
135
123
151
96
89
147
92
89
135
85
83
118
76
74
121
82
80
143
96
92
168
113
108
182
125
121
174
119
110
168
114
103
168
111
103
169
110
104
175
115
108
123
82
86
97
60
64
104
67
66
128
85
81
138
88
88
127
76
79
110
64
66
107
63
65
124
75
74
140
86
81
151
95
88
142
90
80
133
79
71
147
88
84
159
98
96
168
102
97
169
103
93
168
108
96
159
109
98
139
96
90
143
98
96
146
98
98
140
92
93
149
96
98
95
62
65
103
72
75
119
85
84
123
78
77
139
87
87
138
86
85
119
72
69
106
63
64
117
70
69
127
77
72
123
75
71
124
77
70
130
80
72
136
83
74
142
84
76
144
85
75
145
85
73
145
88
77
136
87
80
124
84
80
148
104
104
150
103
105
130
85
88
134
86
90
126
103
104
196
179
177
204
187
183
134
102
101
122
77
75
139
88
85
129
83
78
115
67
65
123
74
73
127
80
79
128
82
78
128
80
75
133
84
79
130
82
75
130
81
73
130
83
75
134
85
77
138
87
81
138
88
85
133
88
83
150
103
100
155
106
106
143
94
96
135
87
86
225
210
207
240
232
227
241
238
231
200
185
181
122
88
85
125
79
75
133
86
83
129
80
78
130
85
86
129
87
88
133
89
86
136
88
84
137
89
85
132
83
79
127
78
74
127
78
73
134
85
80
142
93
88
139
91
86
133
89
85
145
101
98
152
106
104
147
100
99
143
93
90
244
237
232
241
236
230
244
241
234
250
245
237
185
165
159
112
73
70
129
79
77
141
91
89
135
90
91
128
86
87
135
91
88
142
95
91
141
93
89
136
88
84
131
83
79
130
82
78
138
91
87
145
97
93
139
92
89
129
88
87
135
93
92
141
95
92
147
99
94
149
95
91
239
235
229
246
241
235
247
242
236
247
246
237
242
234
226
178
154
148
130
87
83
143
94
91
136
91
93
128
86
88
136
92
89
139
93
89
132
87
82
132
86
82
133
87
82
130
85
81
134
88
85
138
92
89
132
87
84
125
83
82
131
89
88
131
88
84
138
94
88
142
93
89
245
238
232
251
245
239
248
243
237
246
242
234
245
242
235
240
228
221
178
147
139
140
94
90
134
88
90
129
87
88
134
90
87
136
91
86
126
81
76
126
82
77
126
82
77
125
80
77
126
82
79
126
81
78
123
79
76
124
79
76
128
85
81
121
81
78
123
85
81
126
86
83
246
236
231
245
238
232
242
236
230
244
236
229
243
237
231
249
241
233
229
210
200
145
105
99
122
79
79
127
86
88
131
89
88
137
94
89
125
81
76
120
76
72
116
73
70
113
71
68
119
73
72
117
74
72
118
76
72
120
75
71
109
71
68
90
62
59
103
71
70
107
72
72
244
235
231
240
232
227
239
231
226
240
232
226
242
233
226
247
238
229
241
228
218
153
122
114
107
69
68
117
78
81
119
79
80
120
79
76
113
72
69
114
73
72
107
68
68
103
66
63
112
67
66
110
70
68
110
72
69
112
73
70
120
93
90
110
96
92
102
73
72
99
62
64
234
226
223
238
230
227
240
232
229
237
231
226
238
231
225
237
228
221
238
227
218
178
152
146
99
64
62
109
70
70
109
69
69
98
61
60
93
60
59
89
59
59
83
55
55
83
54
51
96
58
57
95
62
60
97
66
62
103
74
69
175
157
152
208
199
192
125
96
94
99
59
60
222
216
213
227
222
219
229
223
220
229
224
220
231
225
220
228
221
215
232
222
215
224
205
199
129
98
95
112
73
72
120
81
80
107
70
71
103
77
76
95
77
75
93
76
74
94
74
70
89
59
57
121
98
94
144
122
117
99
77
72
188
175
169
235
228
220
159
131
127
114
72
70
220
216
213
217
212
210
219
214
212
223
219
216
224
219
215
225
219
213
234
226
219
234
220
215
154
126
122
116
77
73
120
80
79
115
77
77
174
150
146
213
202
195
213
201
196
190
177
173
102
81
79
183
167
164
202
187
183
110
88
84
203
188
183
235
229
220
179
152
146
121
77
73
223
219
216
221
216
214
222
217
215
223
218
214
222
216
211
228
221
214
232
226
217
230
221
214
161
134
128
111
73
67
108
70
68
106
69
68
186
162
157
242
233
225
242
235
228
213
200
194
120
96
95
196
185
179
194
181
176
122
95
92
210
194
190
238
231
223
187
162
155
109
68
63
229
224
221
232
227
224
232
226
223
228
220
216
225
217
210
234
225
217
234
227
216
233
226
216
170
139
133
111
74
70
123
91
89
100
66
66
171
143
142
231
224
219
233
230
225
204
188
184
124
95
95
201
194
186
188
175
169
119
90
87
204
191
186
230
224
217
187
165
159
98
63
58
219
213
214
223
217
217
227
221
221
228
221
217
229
222
215
230
222
214
229
223
214
229
220
212
166
135
131
119
88
83
165
144
139
112
78
76
158
125
124
224
215
211
221
219
216
200
190
188
161
142
142
212
209
204
194
187
183
133
108
106
201
187
184
214
209
204
184
169
162
112
75
74
213
207
209
215
209
211
216
210
211
216
210
205
219
213
206
220
214
208
224
219
213
223
212
206
158
127
124
123
99
93
194
182
175
125
95
93
142
107
107
216
205
201
205
204
200
211
206
204
222
214
213
212
210
206
201
196
193
175
158
156
207
195
195
213
208
207
194
184
179
131
98
98
215
209
208
211
206
204
216
211
208
217
213
206
221
217
210
221
217
213
221
218
214
224
217
212
145
118
115
131
111
105
215
208
201
137
116
115
121
93
94
207
197
191
208
207
199
220
217
211
229
227
222
209
205
201
202
198
194
216
211
207
212
205
205
203
195
197
202
194
191
150
129
127
214
209
206
215
209
207
215
210
207
209
206
198
212
210
202
215
212
208
211
209
205
216
211
206
146
123
118
155
137
130
223
216
211
158
143
146
120
93
96
200
189
182
203
202
190
222
218
212
224
221
216
211
205
200
207
202
197
228
228
223
210
206
206
191
183
186
202
194
194
203
192
190
208
203
201
208
202
202
208
203
200
208
207
198
204
204
195
206
205
199
201
201
196
206
202
197
156
134
127
164
145
137
190
184
181
155
142
148
129
97
104
191
176
171
203
201
193
230
224
220
217
211
208
195
187
184
210
203
200
235
231
228
207
202
201
189
183
185
209
204
206
226
215
215
192
187
185
198
193
190
197
193
186
197
196
187
198
198
190
205
204
198
202
202
197
197
195
187
156
129
124
169
146
140
187
186
180
177
174
172
183
165
165
195
184
181
199
196
193
195
190
185
180
175
168
184
178
172
200
194
189
210
201
199
194
187
185
180
177
176
218
216
217
213
200
199
198
195
191
193
191
183
194
192
182
196
195
188
200
199
193
198
197
191
200
201
193
197
192
180
153
124
118
175
154
148
201
203
195
194
198
188
231
229
223
234
228
226
201
197
196
191
188
181
186
183
174
197
193
184
187
183
175
181
171
168
182
173
171
180
177
175
232
232
231
204
191
189
