P3 24 24 255
157
70
51
174
74
51
194
95
67
202
132
111
196
146
135
184
120
103
177
112
98
173
116
105
170
127
117
170
141
135
164
139
138
123
105
102
95
79
71
92
85
85
96
90
93
78
73
76
43
38
42
38
31
34
37
33
36
33
28
29
44
37
38
56
48
52
80
81
89
82
74
81
76
80
77
109
83
77
136
96
93
96
95
99
99
106
111
101
112
118
109
123
129
128
144
150
147
163
169
148
159
166
147
156
163
131
137
143
88
68
58
117
85
64
98
86
81
93
87
90
69
63
67
37
29
31
19
11
12
19
14
15
21
19
21
18
15
18
26
21
23
49
42
49
62
63
57
62
62
62
99
107
109
71
79
86
96
103
109
105
114
122
111
122
129
121
130
139
135
145
151
150
157
163
146
156
161
145
150
157
90
81
76
88
61
43
91
78
70
91
88
89
109
103
101
82
77
79
64
62
66
45
43
45
17
13
18
23
20
25
21
18
23
18
13
17
57
59
52
45
44
41
104
99
102
90
93
102
76
85
95
86
94
103
99
107
116
100
108
118
116
123
132
134
141
148
146
154
162
142
152
159
86
82
84
71
50
39
92
75
66
89
84
83
110
107
104
52
48
49
39
37
41
57
53
55
25
20
25
25
23
28
23
22
26
24
21
26
63
58
52
45
36
34
94
91
92
92
100
104
84
90
98
91
93
105
96
105
112
102
114
120
110
122
128
123
132
138
146
150
156
150
154
158
110
109
111
85
76
72
89
78
74
92
87
86
116
112
110
47
44
44
15
13
13
22
19
19
19
17
21
21
20
24
22
20
25
21
19
24
74
66
63
49
39
37
96
94
92
104
110
111
103
116
117
105
123
123
112
126
126
139
143
144
162
161
162
172
172
170
186
182
179
200
193
189
196
191
186
194
191
187
163
160
159
119
116
114
107
102
101
41
38
39
25
23
21
29
25
24
18
16
21
19
17
22
19
17
22
21
19
24
131
131
127
112
109
107
92
94
93
111
110
111
141
141
140
172
175
171
191
191
189
217
210
207
212
205
199
212
207
200
214
210
205
217
212
208
218
215
209
216
215
212
216
216
212
210
209
204
183
182
179
119
117
119
65
62
63
27
22
23
10
8
12
12
10
15
17
15
20
19
17
22
183
183
182
188
189
190
131
129
125
192
187
180
223
220
215
215
211
206
222
219
214
231
229
224
222
220
215
224
222
218
222
221
217
222
221
218
222
221
217
221
220
217
219
218
214
217
216
212
216
215
212
212
211
208
193
192
189
152
150
149
94
92
93
41
40
41
10
8
10
5
3
8
117
102
101
120
120
117
168
165
161
201
199
194
212
210
206
218
217
211
222
221
216
224
224
219
226
225
221
225
224
220
225
224
220
224
223
219
225
224
220
225
224
220
224
223
219
223
222
218
220
219
215
215
214
210
212
211
207
209
208
205
200
200
198
180
180
178
133
132
130
64
63
63
127
122
117
120
104
103
191
191
186
197
199
195
195
192
191
220
220
214
222
221
216
223
222
217
226
225
220
226
225
220
226
225
221
228
227
222
228
227
222
228
227
222
227
226
221
226
225
221
225
224
219
222
221
216
219
218
214
215
215
211
210
211
206
203
204
199
202
203
198
203
204
199
129
132
131
138
138
135
129
113
111
184
173
170
176
178
173
203
201
197
220
219
214
226
225
220
225
224
219
227
226
221
229
228
223
229
228
223
228
227
222
229
228
222
228
227
222
229
228
222
228
227
222
227
226
221
225
224
219
222
221
216
218
218
213
215
215
210
209
210
205
202
203
198
115
112
113
136
137
136
151
151
144
123
108
102
169
157
151
219
220
215
203
201
197
214
211
206
229
226
220
226
223
218
227
224
219
232
231
224
230
230
224
230
229
224
230
229
224
229
228
223
229
228
223
227
226
221
229
228
223
228
227
222
226
225
219
223
222
216
221
222
214
218
219
214
93
93
90
122
122
122
140
140
139
161
159
154
129
115
110
157
141
137
221
221
214
209
207
202
210
211
205
227
223
219
228
225
220
223
221
215
229
226
221
233
231
225
229
229
223
230
229
224
230
230
224
230
230
224
231
231
225
230
230
225
231
231
224
207
207
201
210
209
207
224
224
216
49
49
44
107
108
103
130
131
129
147
147
146
166
168
162
135
122
115
139
121
117
217
217
210
216
214
209
210
207
203
225
222
217
230
227
222
218
215
209
225
221
214
233
231
223
232
230
222
233
231
224
235
232
225
234
231
224
233
231
225
232
230
223
230
228
222
209
207
202
183
183
176
21
22
15
79
81
73
119
120
113
136
136
132
148
150
146
169
172
164
146
136
131
130
112
109
211
206
198
223
220
213
209
206
199
219
217
212
228
226
221
221
220
211
217
214
207
234
231
224
235
232
225
234
231
224
234
231
224
235
231
225
235
232
224
210
206
199
182
181
177
176
177
180
32
32
16
34
33
22
88
91
80
123
124
115
155
157
152
165
164
161
170
172
166
159
153
147
119
106
98
195
191
182
225
225
215
208
205
198
216
214
208
226
224
218
223
222
214
212
211
203
228
227
218
234
231
222
236
232
224
228
225
217
191
189
183
185
185
181
171
171
176
111
114
122
50
50
29
45
41
26
56
59
43
93
95
83
82
83
78
135
133
130
174
173
168
171
171
164
166
165
156
117
108
102
182
174
167
227
226
218
210
207
200
212
209
201
222
221
215
225
225
217
208
207
198
224
221
212
212
210
203
186
183
178
188
187
186
169
170
174
105
108
115
59
61
68
51
52
29
48
43
25
43
46
25
54
56
42
21
22
16
21
19
18
130
128
124
170
171
165
169
170
164
178
173
167
113
104
98
161
156
150
227
224
215
210
208
196
207
206
200
219
219
210
226
225
216
187
185
178
187
186
183
205
205
206
152
152
157
84
84
91
60
62
68
59
56
56
46
49
28
54
51
32
43
51
27
33
40
22
24
28
20
11
12
10
29
28
28
141
141
136
159
159
154
167
168
162
181
179
171
123
119
113
146
143
137
218
216
207
211
211
201
207
207
199
214
213
207
214
213
208
201
201
202
169
170
176
90
91
96
60
62
64
95
93
94
55
43
35
42
46
23
48
52
30
46
55
30
31
39
20
23
29
16
17
17
16
26
23
23
59
54
51
152
154
147
147
147
142
162
162
156
186
185
178
134
132
124
139
136
130
210
208
199
212
211
201
216
214
206
205
204
202
162
166
172
95
94
103
72
72
74
74
73
70
58
48
42
27
22
18
38
42
22
49
55
34
42
51
28
37
45
25
24
32
16
18
20
16
36
34
32
58
57
54
121
120
116
139
140
134
123
123
117
144
143
138
184
183
175
147
143
135
169
166
155
215
213
202
135
133
129
110
109
103
102
100
107
57
56
58
44
43
41
48
37
29
27
19
16
38
36
40
36
37
21
50
56
38
40
50
27
30
41
20
20
28
13
20
27
15
35
38
31
60
67
62
126
124
122
129
128
123
122
124
117
111
112
107
140
140
134
178
176
167
170
168
154
153
149
141
43
43
44
72
71
67
83
79
64
39
36
26
45
32
20
37
23
18
36
37
39
73
73
78
46
45
30
50
56
37
42
53
29
24
33
15
28
33
20
36
45
24
33
38
25
40
47
35
76
78
70
100
101
95
115
115
109
112
113
107
105
105
100
131
130
123
162
160
149
97
92
85
60
60
58
72
73
73
44
43
26
37
27
14
47
39
33
78
57
53
85
67
63
24
24
25
62
65
44
50
56
34
37
48
24
24
32
14
32
42
22
38
49
25
30
37
17
40
44
29
22
28
17
50
50
45
110
109
103
108
108
99
101
102
96
107
106
102
134
133
121
76
72
64
84
83
80
58
59
54
27
27
15
51
48
45
73
68
71
82
48
34
95
58
48
66
52
45
