P3 24 24 255
237
231
220
237
231
221
232
223
208
202
176
146
163
148
127
145
132
115
132
117
97
133
116
91
128
106
72
86
61
39
62
35
16
64
38
16
63
37
16
65
37
17
64
35
16
63
35
16
64
38
16
67
37
19
69
45
23
117
107
88
181
175
157
169
160
140
154
143
122
151
140
117
238
232
222
239
233
223
229
218
201
198
170
137
161
146
126
145
132
113
151
139
119
142
136
119
139
132
114
67
64
58
18
17
16
22
21
21
22
21
21
22
21
21
21
21
20
23
22
21
23
22
20
25
24
24
17
15
16
96
91
82
188
181
162
168
159
140
155
143
122
151
140
117
237
231
219
239
234
225
227
215
196
196
171
139
160
147
127
156
145
127
122
115
99
86
83
71
95
91
79
52
51
46
19
20
21
21
22
24
20
22
24
19
21
24
19
22
23
22
24
26
21
23
25
23
24
25
13
14
15
99
96
87
190
183
164
167
158
138
151
139
117
149
139
116
236
229
217
240
236
227
225
211
192
191
166
135
162
149
130
159
150
132
71
69
62
12
14
15
21
23
21
22
24
23
24
24
25
24
24
24
23
25
26
25
27
27
24
27
27
22
26
26
21
24
25
24
25
25
16
17
19
106
102
92
192
185
165
165
156
137
134
124
105
142
132
110
237
231
220
240
236
227
225
212
193
192
167
138
165
153
134
157
150
132
77
75
68
12
14
17
19
20
23
19
21
23
22
22
24
20
21
24
21
20
25
20
20
24
20
22
23
21
23
23
21
22
23
21
22
24
15
16
19
111
107
97
193
185
166
166
157
138
131
122
104
146
135
113
239
234
224
242
237
228
226
213
193
199
174
144
162
152
133
156
150
132
87
84
75
14
17
19
22
22
24
20
20
23
27
24
24
37
30
24
38
31
26
43
35
28
31
28
25
21
22
24
21
22
24
21
22
24
17
18
20
116
113
102
191
184
165
166
157
139
154
144
123
161
150
125
240
235
225
242
237
228
226
211
189
195
170
138
159
149
132
159
152
134
88
85
77
15
17
19
20
21
23
30
25
25
91
69
41
127
90
46
130
95
54
144
110
64
104
80
48
54
46
36
36
33
31
21
23
25
18
21
21
120
117
106
194
186
167
162
153
135
151
140
120
153
142
120
240
235
224
241
237
226
228
215
193
193
168
137
132
123
107
126
121
106
75
73
65
18
20
20
22
21
19
84
63
41
153
118
73
176
134
80
181
138
83
172
137
88
169
131
82
129
100
66
86
73
57
26
27
27
18
22
24
125
123
109
180
173
154
115
107
96
92
86
80
86
81
82
241
236
224
242
237
226
231
216
195
190
164
133
75
69
62
52
51
47
41
41
38
19
21
22
43
32
21
132
101
65
136
107
74
131
97
61
138
101
60
130
99
67
154
124
84
147
112
69
123
100
73
40
38
33
21
25
27
124
122
107
156
151
133
60
56
58
43
44
60
41
41
63
239
233
221
243
237
228
232
217
196
184
159
129
68
62
67
46
45
54
46
43
39
25
24
22
63
44
27
150
116
73
123
95
69
109
85
70
100
77
56
127
95
60
167
134
91
146
107
60
129
99
65
67
56
43
24
26
28
54
56
52
101
97
85
81
78
74
33
36
53
43
49
76
237
229
218
246
240
233
234
223
203
190
168
139
83
79
85
64
64
74
59
55
57
31
27
27
86
62
39
162
125
78
100
78
60
101
86
82
87
74
67
114
87
58
189
152
101
169
127
74
133
97
55
109
79
49
59
45
31
22
20
19
46
48
45
90
86
78
30
29
45
36
44
73
233
226
214
245
237
226
234
225
203
186
170
145
82
81
88
69
70
77
62
59
67
30
27
34
77
57
34
142
108
68
80
65
54
74
65
61
75
65
58
92
71
52
168
131
84
182
139
81
137
99
53
118
87
49
95
63
29
64
42
25
45
42
39
93
88
79
38
35
51
35
41
68
222
216
202
224
217
201
218
211
192
198
188
169
108
103
101
64
65
73
63
60
67
35
33
39
52
37
25
105
74
47
74
60
52
86
73
66
83
69
64
75
57
47
144
111
68
174
132
72
157
116
63
142
113
72
93
62
32
80
48
23
76
54
38
106
98
85
36
36
48
34
39
69
220
213
202
228
222
207
223
215
200
221
211
191
136
125
111
53
51
59
56
55
62
32
30
34
30
22
18
97
69
43
84
63
50
82
67
60
74
60
53
73
55
44
149
115
72
174
133
75
172
133
77
172
143
96
117
87
52
91
56
23
85
51
27
98
82
65
45
43
52
32
37
63
214
208
198
234
227
212
230
222
206
238
227
206
159
153
145
53
51
63
47
42
46
34
24
23
19
13
13
82
58
33
128
91
50
88
67
50
83
63
44
135
99
59
168
127
71
176
134
78
186
148
91
190
162
113
150
118
73
109
73
30
82
47
20
93
66
47
49
46
52
32
37
61
209
206
196
249
242
226
240
234
218
249
242
224
174
168
162
58
59
71
48
36
38
51
23
17
41
19
14
97
70
46
166
125
72
166
130
87
162
126
83
181
138
79
179
136
78
182
137
85
185
149
94
188
161
114
164
130
80
121
82
35
84
47
21
84
49
29
47
38
39
33
36
59
202
200
191
251
245
228
240
234
218
250
244
226
170
163
156
55
56
66
53
37
38
63
25
16
74
39
22
145
110
65
168
131
81
199
160
110
196
157
102
196
159
103
190
145
93
180
132
81
181
145
93
177
148
100
164
127
70
124
83
33
87
48
22
75
38
19
48
29
27
33
35
55
203
200
189
248
242
225
238
232
216
246
240
223
179
169
154
74
64
59
70
46
35
74
37
24
113
76
40
179
139
81
169
132
81
193
158
114
193
158
115
195
162
117
178
134
84
177
132
76
194
157
102
179
144
90
174
134
74
127
87
36
86
46
20
73
36
19
56
29
24
41
34
46
225
220
206
241
234
217
236
229
213
239
234
220
188
169
141
123
86
43
121
84
43
104
71
37
156
116
65
195
156
98
187
148
92
192
150
101
176
134
105
153
115
93
148
105
66
165
126
79
191
157
108
187
147
87
192
152
93
140
100
49
83
41
16
73
36
18
63
32
24
55
31
30
238
231
215
237
229
211
235
228
210
245
241
225
184
162
136
110
64
26
115
70
36
134
93
46
188
147
90
203
165
111
194
154
97
188
145
87
181
143
95
160
126
99
170
125
90
160
114
75
158
113
75
177
132
73
198
158
98
157
114
63
89
46
14
80
43
22
70
35
23
68
33
26
238
234
217
239
234
215
233
228
208
238
236
218
164
138
125
87
39
21
145
105
61
180
138
79
197
158
104
203
165
112
197
156
98
199
155
93
195
154
100
151
125
94
173
142
101
195
155
96
187
146
86
187
144
84
206
168
110
183
143
89
113
72
32
87
49
29
73
35
27
70
37
29
217
205
184
209
196
176
190
173
154
155
135
117
135
100
69
146
101
52
179
141
84
187
146
87
191
146
87
194
152
92
195
153
93
198
156
94
203
164
108
160
132
96
176
143
99
201
161
104
181
139
77
186
145
84
190
150
94
185
145
87
129
89
44
77
37
20
80
39
27
82
42
29
158
126
103
158
127
96
156
120
81
149
108
60
144
98
39
154
108
50
180
141
88
192
155
103
172
128
76
148
101
56
149
104
60
184
146
91
210
173
115
199
161
107
200
161
109
190
150
96
156
114
58
155
113
58
151
107
48
167
126
66
139
98
51
82
40
24
87
46
28
90
48
28
151
112
72
157
118
72
156
112
58
151
104
43
144
97
42
152
106
57
170
125
75
162
113
67
128
73
34
110
53
22
108
52
24
145
99
57
190
151
99
191
152
97
186
145
92
153
115
71
117
73
35
132
86
35
160
116
54
179
139
80
150
109
58
91
48
26
82
41
27
88
45
30
