P3 24 24 255
85
106
29
96
117
46
101
114
59
81
85
37
71
77
34
108
102
72
149
140
105
155
151
115
172
165
131
172
161
125
160
150
107
169
156
112
167
147
107
171
153
115
202
187
148
176
158
118
180
158
116
185
161
119
179
157
116
166
148
105
142
119
74
133
128
76
93
107
57
70
82
35
81
102
35
85
103
37
122
131
70
126
125
72
127
123
79
157
148
110
166
158
120
155
150
113
163
157
120
192
183
145
169
157
117
162
145
101
170
147
103
174
153
112
205
186
148
182
162
122
178
156
114
186
164
120
179
160
116
179
160
115
174
160
110
122
121
67
88
99
48
109
116
65
89
109
41
96
113
46
131
137
76
152
149
101
153
146
107
152
144
105
164
156
116
159
151
111
156
146
106
185
173
134
190
177
136
155
137
93
170
147
102
166
144
103
189
169
132
174
155
115
165
145
104
186
167
124
205
187
146
202
183
142
202
189
144
150
149
98
136
140
88
131
128
75
108
125
57
111
125
60
130
135
78
150
147
106
156
151
116
158
151
115
169
160
119
172
160
116
160
146
104
151
135
96
173
157
118
158
140
97
168
145
102
156
134
94
169
148
110
165
146
107
149
131
91
186
169
129
227
209
174
214
193
159
162
145
107
136
128
84
114
109
58
128
114
66
153
172
107
129
144
84
128
134
82
141
140
101
135
131
97
148
142
105
162
154
110
162
150
105
167
152
111
146
127
92
145
128
92
156
138
97
166
142
100
158
136
97
163
142
104
159
139
101
147
131
93
153
140
103
184
168
135
165
143
112
134
114
80
140
127
88
88
78
33
84
69
30
162
186
125
151
170
117
127
135
90
147
147
109
142
139
103
140
136
94
150
144
97
151
141
97
158
144
106
141
124
93
146
130
97
155
137
97
164
140
100
155
133
97
151
129
93
153
133
96
157
143
106
116
105
70
114
99
66
140
119
87
146
123
89
159
143
105
92
83
47
56
47
19
150
175
119
153
176
124
121
135
86
141
146
99
156
155
116
156
155
112
161
157
110
153
148
106
99
95
60
109
100
72
150
136
106
164
146
106
157
134
91
153
129
91
148
126
87
157
138
97
147
130
97
124
110
79
158
143
107
189
170
133
185
163
124
162
143
103
82
71
37
47
46
19
144
167
116
152
174
122
114
131
74
121
133
74
152
154
112
159
160
119
167
165
120
154
152
113
71
77
45
65
64
36
96
84
57
161
144
106
171
151
102
159
133
92
154
132
90
150
132
84
105
85
54
121
101
73
189
171
133
197
178
137
186
164
121
159
136
93
124
105
66
82
85
49
139
163
114
144
162
113
102
115
61
124
134
76
155
157
114
157
159
116
161
160
114
156
152
114
97
98
66
93
87
58
58
46
23
103
92
61
160
142
99
156
129
91
155
131
93
148
128
82
91
69
36
134
112
78
177
156
116
195
173
132
190
166
123
167
141
97
165
144
102
119
117
82
139
162
112
133
148
98
111
119
67
132
139
85
149
151
106
140
144
98
141
142
95
136
130
91
112
107
74
109
98
65
59
48
23
76
67
40
122
105
68
142
117
80
153
129
92
142
121
75
138
116
77
167
145
103
170
147
106
183
158
119
177
150
108
166
138
95
154
136
94
121
116
82
98
118
65
110
125
70
123
131
78
134
139
89
140
142
95
134
140
92
133
138
89
127
123
82
123
116
80
128
115
78
101
89
55
110
98
65
123
106
68
126
104
64
150
126
87
160
137
89
173
149
107
151
127
82
146
124
82
162
138
98
152
126
84
157
133
90
141
134
93
125
127
84
83
102
43
94
112
50
97
108
51
122
125
78
126
127
79
131
139
88
133
142
92
108
109
65
94
88
50
117
106
65
124
108
64
144
125
81
143
124
81
134
115
72
145
122
78
159
136
84
149
125
82
134
110
66
148
128
85
164
144
103
151
128
85
129
111
69
119
126
84
116
130
75
95
110
50
107
128
64
68
81
27
99
104
61
112
112
69
117
123
77
105
117
67
92
102
56
59
62
25
69
68
29
86
76
32
100
82
41
106
90
51
108
94
52
108
91
50
104
86
45
106
85
48
157
134
92
158
138
93
159
137
96
162
138
100
133
118
82
116
128
90
114
136
89
103
117
58
107
131
70
92
108
58
73
84
41
76
82
41
68
80
37
77
95
45
104
119
72
56
65
31
52
56
20
66
63
23
64
55
21
64
55
21
73
65
24
80
68
30
67
55
23
106
90
54
185
162
117
169
147
101
143
119
79
157
136
102
143
136
103
141
152
117
130
148
111
84
104
44
90
118
57
104
122
72
84
99
52
66
81
34
59
80
31
98
118
67
126
135
92
84
88
54
57
55
19
74
71
31
68
63
27
63
57
22
67
62
21
72
62
21
76
67
28
108
96
53
156
137
90
154
136
95
103
89
52
132
128
91
141
150
112
129
143
105
132
134
90
116
137
75
83
113
55
86
103
55
119
126
79
113
124
75
102
118
67
118
131
83
138
143
102
95
95
60
64
60
24
79
75
37
70
66
33
70
67
34
71
69
29
73
66
30
74
68
34
72
66
30
85
73
39
82
73
40
69
69
34
129
140
100
124
144
103
110
121
81
148
135
87
150
168
113
124
150
96
132
147
96
137
143
93
130
139
88
136
144
93
124
129
80
110
116
71
92
93
55
73
68
36
66
62
32
52
50
23
58
56
30
56
55
22
54
53
18
58
61
26
43
47
17
37
35
16
42
48
22
85
100
66
122
140
101
103
117
77
105
106
66
130
114
71
152
165
120
138
161
111
146
162
107
136
155
97
123
145
87
130
142
88
108
115
62
78
88
36
92
97
54
61
59
32
42
40
18
35
35
15
33
33
14
42
44
15
63
70
25
80
94
42
48
62
25
28
37
19
80
100
76
113
138
105
112
129
92
106
108
70
98
86
49
108
96
59
131
156
109
130
155
105
131
152
97
143
166
105
132
161
99
87
109
51
71
84
27
84
97
33
92
104
47
41
48
23
18
20
9
19
19
14
12
16
8
57
69
28
101
115
52
101
119
53
80
99
48
73
87
62
126
139
110
131
149
113
113
129
92
115
119
82
121
107
68
116
99
61
140
163
114
120
138
88
104
118
66
121
134
79
128
143
89
71
80
31
56
61
19
48
57
13
75
88
40
64
77
42
23
31
11
11
16
5
27
39
17
81
102
47
108
129
59
102
122
58
97
121
70
113
136
99
147
156
113
133
146
97
105
122
74
107
118
73
125
120
85
113
98
63
140
156
106
114
125
75
91
100
49
87
95
46
88
90
45
83
74
36
93
87
59
21
25
9
26
34
12
63
76
38
67
81
44
30
46
12
55
77
26
90
117
57
105
131
66
104
130
74
101
132
87
105
138
88
146
163
109
108
123
68
71
89
31
78
93
41
79
86
58
79
75
50
131
154
99
119
138
81
91
108
53
67
83
34
53
57
15
81
73
36
93
88
58
24
28
12
16
21
14
19
29
8
48
63
28
67
87
35
71
98
30
98
128
69
105
134
77
107
136
87
94
125
81
78
112
55
105
125
75
81
95
49
81
95
45
104
121
72
33
46
21
34
34
15
121
150
90
115
139
78
95
118
58
89
107
56
69
74
30
79
75
36
60
59
25
25
31
7
22
29
16
23
33
19
25
37
11
43
61
15
60
84
26
91
119
66
109
138
93
93
120
76
79
102
52
89
111
55
87
107
63
84
98
58
110
123
77
117
133
86
45
52
22
44
40
21
113
138
77
119
140
78
111
128
68
131
140
89
112
107
63
112
103
62
67
65
34
33
38
17
26
35
11
28
39
18
30
40
15
46
59
22
65
84
40
72
96
53
102
129
95
77
101
58
100
113
58
130
139
88
102
122
77
103
119
74
119
132
81
115
132
78
72
75
36
64
55
30
