P3 24 24 255
164
171
160
163
173
163
163
174
165
157
168
161
157
170
164
142
149
143
170
146
131
187
153
134
118
87
75
95
78
70
50
40
35
42
30
26
41
28
25
42
28
25
80
60
54
125
100
89
186
155
139
103
82
75
39
28
27
78
68
63
57
48
46
55
50
49
89
94
89
126
138
129
166
173
162
165
175
165
160
171
163
155
167
159
156
169
164
137
146
141
158
133
119
180
143
124
108
77
67
116
93
84
93
74
66
64
46
39
61
40
35
55
32
27
77
56
49
120
96
84
186
152
137
99
81
76
73
61
57
123
106
100
80
65
60
45
30
26
35
25
22
77
77
72
168
175
164
164
174
164
159
170
161
155
167
158
156
168
161
137
150
145
110
101
93
112
84
73
106
78
68
143
120
110
127
109
101
157
147
141
176
167
162
99
79
73
88
64
57
95
72
63
111
90
80
67
54
50
100
83
77
134
111
105
105
88
81
67
48
42
45
24
19
39
26
20
168
175
164
164
174
164
161
173
163
155
167
158
148
162
153
144
160
153
87
89
88
56
37
33
117
92
82
153
134
124
137
121
114
212
207
203
253
253
253
155
144
140
101
80
70
87
65
57
56
43
41
66
54
51
110
91
85
122
102
95
106
89
84
83
63
57
59
38
32
43
25
18
165
173
162
169
179
168
162
174
164
153
164
155
148
161
153
121
132
126
63
61
62
64
48
46
115
92
83
155
138
130
144
127
119
205
196
191
250
250
249
166
157
153
118
101
93
78
56
50
62
45
41
72
57
53
109
91
84
129
112
105
114
97
91
100
83
76
78
61
55
58
40
33
170
179
168
168
178
167
159
170
161
147
158
150
142
154
147
85
84
79
72
57
59
90
75
72
96
76
65
142
128
121
142
125
116
182
166
158
243
242
238
140
125
120
98
75
68
73
53
47
55
41
37
70
55
51
99
79
71
143
124
118
139
121
114
123
110
103
115
99
93
89
71
65
171
181
170
163
175
165
153
164
156
140
152
143
124
135
127
63
51
46
101
83
84
119
108
106
88
70
61
127
108
101
128
106
98
160
136
126
231
224
215
142
126
119
85
62
53
86
66
60
71
56
52
79
63
60
106
86
79
148
130
122
143
128
121
132
121
115
123
110
105
108
94
89
169
180
170
165
178
168
143
155
147
137
150
142
101
105
97
64
42
37
125
106
108
138
128
127
107
86
79
119
107
101
112
96
92
135
110
100
218
204
189
156
140
131
96
74
65
109
105
102
87
85
84
80
66
63
98
81
76
131
115
108
127
113
109
125
113
109
117
106
103
106
95
93
158
170
161
151
164
155
133
146
138
131
144
136
83
77
70
80
54
48
143
123
126
149
137
137
116
95
86
102
103
104
117
116
120
127
104
97
202
187
172
160
146
139
106
82
75
109
107
104
73
71
71
73
59
55
92
74
68
125
107
100
114
100
94
98
84
80
108
94
91
103
90
87
134
147
142
129
145
136
125
140
132
113
120
115
61
48
42
101
78
71
145
126
127
155
145
147
117
96
88
110
95
93
136
124
126
153
127
117
224
214
202
205
199
196
130
112
106
92
75
72
53
41
40
93
77
72
120
99
90
127
108
99
117
101
94
115
96
89
129
109
103
114
96
91
121
136
133
105
119
116
118
130
124
69
66
61
60
42
37
131
109
102
181
162
157
146
141
145
127
109
105
93
58
50
129
99
91
212
197
184
250
244
235
240
220
212
214
202
199
108
97
94
71
57
53
146
125
117
157
133
121
135
115
104
128
110
102
139
116
107
146
121
114
122
100
94
126
143
139
61
69
71
61
61
59
50
36
30
82
61
57
169
150
142
230
206
200
147
136
143
104
100
104
157
133
122
218
195
179
247
238
230
227
203
191
183
141
126
195
174
169
158
151
148
80
66
66
137
118
111
136
112
102
139
115
105
135
112
103
119
95
87
135
109
99
97
77
71
126
144
141
65
72
71
40
27
23
46
29
24
91
75
72
197
182
175
244
224
215
205
189
184
127
115
113
204
191
178
255
247
234
241
227
220
154
122
113
89
69
64
104
87
81
138
131
129
38
36
39
47
38
40
90
70
64
134
106
95
148
124
115
127
109
106
96
83
81
44
38
39
118
130
125
72
62
55
88
65
57
75
55
51
119
106
104
204
193
188
237
227
218
230
211
199
217
193
182
227
212
202
249
247
243
234
224
216
142
117
110
83
69
70
95
82
81
159
150
147
125
120
116
57
52
53
61
44
40
138
111
98
139
116
107
55
45
47
28
26
32
26
25
31
94
92
84
64
42
35
124
99
89
113
92
86
88
80
81
95
90
95
157
147
147
216
191
183
236
214
202
214
200
191
230
227
223
237
227
220
163
140
131
89
72
71
108
96
96
138
126
123
147
136
129
111
102
98
79
59
53
127
102
92
105
88
82
48
42
44
23
22
29
28
27
33
50
37
33
86
61
55
114
92
83
59
48
48
32
28
34
26
24
31
54
49
54
124
110
109
194
174
166
191
176
169
153
143
139
162
150
147
134
119
114
108
96
91
96
86
85
67
56
54
58
44
40
81
67
62
97
79
73
83
68
66
43
38
41
30
30
35
25
25
31
23
22
28
65
48
45
92
69
63
58
48
47
25
21
27
29
26
33
30
28
35
28
26
33
67
57
59
145
124
119
149
131
125
77
63
61
47
36
37
112
103
102
125
114
111
53
43
45
46
37
40
51
39
40
54
44
45
56
48
49
37
33
37
26
26
32
23
22
28
22
20
26
19
18
24
143
98
106
102
45
62
28
21
26
23
20
26
36
34
40
34
32
39
40
33
37
128
109
104
147
120
111
108
87
81
48
38
38
30
26
30
73
67
69
81
74
77
32
28
34
27
24
31
24
22
29
24
23
30
24
23
29
22
21
27
25
24
29
22
21
27
20
19
25
20
19
25
205
104
132
204
53
102
91
22
46
18
21
23
35
34
39
27
26
30
83
68
66
147
121
111
112
83
71
65
47
44
33
30
35
31
30
36
30
28
33
30
27
33
24
22
29
23
20
27
23
20
27
29
27
33
29
28
33
23
22
28
21
20
26
22
21
27
22
21
27
21
20
26
234
78
126
252
72
127
167
30
73
29
19
27
27
27
33
40
32
34
111
87
79
111
83
72
82
62
56
35
29
31
30
29
35
28
28
33
33
32
37
35
33
39
27
25
31
24
21
28
25
22
29
32
30
37
30
29
35
22
21
27
20
19
25
23
22
28
25
24
30
21
20
26
234
76
131
250
82
140
202
41
91
52
19
32
26
27
35
77
59
57
86
60
51
82
61
54
49
40
42
24
23
29
29
26
33
28
26
33
23
21
28
26
24
31
26
24
30
24
21
28
23
20
27
26
25
31
28
27
33
22
21
27
20
19
25
21
20
26
23
22
28
21
20
26
218
78
129
252
91
149
210
39
90
54
17
32
43
36
37
70
44
38
47
34
30
37
31
32
23
20
26
25
22
29
28
25
32
31
28
35
29
26
33
25
22
29
26
23
30
22
19
26
23
20
27
21
19
25
24
23
29
25
24
30
21
20
26
19
18
24
23
22
28
22
21
27
218
48
105
239
71
129
194
39
87
54
24
38
46
35
31
42
25
23
35
30
33
28
27
34
28
25
31
25
21
28
24
21
28
28
25
32
27
24
31
26
23
30
24
21
28
22
19
26
28
25
32
23
21
27
20
17
24
22
20
27
23
22
28
21
20
26
23
22
28
22
21
27
176
37
81
195
46
97
184
54
100
61
34
40
36
28
26
34
27
31
32
30
35
25
23
29
22
19
25
22
19
25
23
20
27
22
19
26
25
22
29
26
23
30
22
19
26
20
18
24
26
24
31
23
20
27
18
15
22
21
19
26
20
19
25
19
18
24
18
17
23
20
19
25
