P3 24 24 255
255
255
255
254
254
254
248
248
247
185
184
185
192
191
193
196
195
200
55
53
62
60
57
68
88
86
97
111
109
119
138
136
146
169
167
175
198
197
204
147
145
155
47
45
56
84
82
93
117
115
124
167
165
173
172
170
179
48
47
57
20
19
27
18
18
24
7
5
14
119
116
122
255
255
254
249
248
245
240
238
234
228
224
215
214
210
202
179
179
181
106
106
109
184
181
181
194
191
195
199
196
200
204
201
205
215
212
216
230
229
231
196
196
198
126
126
129
230
230
233
246
245
247
243
242
246
112
110
119
27
26
32
53
54
58
14
15
22
38
35
42
176
174
178
255
255
255
230
229
225
231
229
224
228
221
210
183
174
163
171
168
169
129
128
132
222
221
219
223
223
219
218
218
215
183
183
179
162
162
159
206
206
205
176
176
176
135
135
135
253
253
253
255
255
255
148
147
152
22
21
30
63
63
68
45
45
49
6
5
12
105
101
107
211
209
213
255
255
255
224
224
219
237
235
230
236
228
218
181
168
159
184
178
180
140
139
145
252
253
255
255
255
255
255
255
255
231
233
229
193
195
191
255
255
255
194
194
195
121
121
122
255
255
255
202
201
204
33
32
38
23
22
28
42
41
46
5
5
10
28
27
32
158
153
158
213
210
213
255
255
254
229
228
224
240
238
232
233
227
218
175
164
155
172
162
162
150
145
148
216
216
218
225
225
228
227
227
230
211
211
214
185
185
188
226
226
228
174
173
176
124
123
126
205
205
207
74
73
78
11
10
15
31
30
35
16
15
20
4
3
9
70
68
73
192
186
190
224
221
222
255
255
253
227
227
223
240
238
233
232
230
222
185
179
170
182
171
165
184
174
170
173
168
165
164
160
161
172
168
169
172
168
169
158
154
156
148
147
151
129
128
133
117
116
121
71
70
75
13
12
19
21
20
25
24
24
26
13
13
17
8
7
13
99
96
100
188
181
185
217
212
212
255
255
250
230
226
218
236
230
222
238
235
226
201
199
189
192
180
170
195
181
169
193
184
173
187
179
170
191
183
174
193
184
175
185
177
169
150
147
147
128
127
132
68
67
72
23
23
27
20
19
25
24
24
28
26
26
26
18
18
21
9
7
13
67
63
65
141
133
134
174
168
167
234
224
212
206
186
163
208
188
170
219
207
194
196
190
177
154
135
122
139
112
94
178
162
151
202
189
179
199
185
175
199
186
175
199
186
176
177
170
163
121
118
116
57
57
58
38
41
39
43
45
45
54
54
55
31
31
31
32
32
33
36
34
35
76
70
66
126
121
112
172
166
159
198
184
170
151
127
101
173
151
130
205
193
179
170
159
146
126
91
71
138
90
65
131
105
94
200
186
174
198
185
171
198
184
171
199
186
173
187
178
167
86
81
77
31
30
29
9
12
10
80
82
80
65
65
65
16
16
16
27
28
28
57
54
52
134
126
118
144
137
125
182
175
164
204
190
176
160
140
120
184
165
147
210
199
187
169
154
141
160
110
83
195
130
100
135
98
85
193
179
163
198
185
168
195
182
165
197
185
168
197
188
175
104
98
93
13
10
12
31
32
32
114
115
115
32
32
32
13
13
13
16
16
16
90
87
83
153
143
134
140
131
120
191
181
171
205
191
177
205
189
174
207
191
176
202
191
177
180
163
150
154
108
83
161
101
71
146
112
96
193
179
163
191
178
161
191
178
161
193
181
164
199
189
176
138
131
125
24
20
22
44
44
47
71
71
72
8
7
7
10
10
10
8
8
8
109
106
101
161
154
145
156
148
140
190
182
174
201
187
173
199
186
176
201
188
176
194
181
163
184
170
155
163
139
123
126
92
67
171
150
131
202
188
175
183
169
156
178
164
151
188
175
161
198
187
172
161
153
146
37
31
35
13
10
17
3
3
6
0
0
0
1
1
1
8
8
9
115
114
111
176
173
167
196
192
191
225
222
218
202
189
175
200
188
180
201
189
178
195
180
162
182
170
155
191
183
172
185
173
154
192
184
165
198
187
176
211
198
188
186
173
163
178
165
154
196
184
169
179
169
160
77
70
70
70
66
69
59
57
56
45
44
41
37
36
34
46
46
44
135
135
130
160
159
155
199
197
197
229
228
226
202
193
176
199
188
174
202
188
176
194
180
166
181
169
153
199
186
170
200
189
173
145
140
127
113
107
97
191
183
172
202
192
180
171
159
145
191
175
160
191
178
164
134
126
115
140
136
127
132
126
115
110
103
94
96
91
86
75
73
65
120
119
110
121
117
110
145
139
131
151
149
141
208
197
180
201
187
172
204
188
174
195
180
164
182
167
148
204
188
169
181
168
154
91
83
76
25
23
17
123
118
110
197
188
175
167
154
138
180
166
149
194
182
166
130
122
107
113
109
95
111
106
91
104
96
85
102
97
89
93
91
79
98
97
83
102
98
86
112
105
92
126
124
113
208
194
179
203
188
172
204
187
172
194
178
159
176
162
140
197
181
162
159
144
134
59
51
49
14
15
12
71
68
63
181
172
161
168
155
141
164
154
140
175
168
154
135
131
116
127
124
110
139
136
122
126
122
112
118
114
106
108
107
93
104
103
86
108
105
88
116
110
93
100
98
86
197
185
176
201
188
176
205
190
175
193
180
164
160
150
133
156
142
128
134
122
117
46
41
41
42
41
40
59
56
52
150
144
137
157
148
140
132
126
118
121
117
108
117
114
104
165
162
151
216
215
206
219
218
212
202
200
195
124
122
110
101
99
82
108
105
86
118
112
95
61
59
50
97
89
86
130
120
113
139
128
115
143
135
124
139
133
126
151
143
136
132
127
124
47
46
47
72
67
63
64
60
56
48
44
42
42
40
39
33
32
32
25
24
23
64
62
59
211
210
203
255
255
255
255
255
255
255
255
255
131
127
121
95
93
78
110
106
89
117
110
96
56
53
48
52
49
51
184
180
178
183
178
172
179
175
171
209
206
206
244
241
236
202
201
198
48
48
47
63
56
51
68
63
58
22
20
19
1
1
5
2
1
6
0
0
0
48
46
48
207
204
203
213
212
212
199
199
201
178
176
177
80
75
72
62
58
47
84
79
65
98
91
81
54
51
48
55
55
59
236
237
237
255
255
255
255
254
253
255
253
250
255
255
253
209
208
202
49
46
44
83
76
72
76
70
66
34
31
30
9
7
12
7
5
10
6
3
6
40
35
37
129
122
124
135
130
130
139
136
135
147
144
143
78
74
73
61
55
48
86
77
67
93
87
80
47
46
43
82
77
78
237
234
232
242
239
234
236
232
227
230
227
219
231
228
217
188
184
179
45
39
40
114
106
104
145
140
135
52
49
48
13
11
17
12
12
16
5
5
7
55
53
52
209
206
204
236
235
234
246
246
246
255
254
255
120
119
121
60
57
54
94
89
82
86
84
79
21
22
22
131
121
115
200
190
182
194
184
174
189
181
169
184
178
164
185
179
166
162
155
150
48
39
41
103
95
93
152
147
141
53
50
49
18
16
21
14
16
20
5
8
9
90
92
88
255
255
249
255
255
255
255
255
255
255
255
255
163
164
166
21
21
21
22
20
19
21
21
21
5
8
10
187
173
164
188
175
165
179
166
154
177
166
152
173
165
150
174
166
151
169
159
151
65
55
54
89
81
79
118
113
107
39
36
35
17
15
21
9
10
15
5
7
8
110
111
106
241
241
231
240
240
235
246
246
246
253
253
252
221
222
221
66
66
66
1
1
2
5
5
7
5
6
8
225
210
202
225
211
200
208
194
181
191
178
165
175
163
151
171
159
143
175
163
150
91
79
73
53
45
42
67
62
57
28
25
23
13
11
17
7
5
12
10
8
10
124
121
116
200
197
185
196
193
185
204
202
198
214
212
207
219
217
212
148
146
143
31
29
31
7
4
5
7
3
3
