P3 24 24 255
97
62
34
102
64
30
104
65
32
105
67
34
107
69
35
109
70
36
108
66
36
105
69
40
100
69
42
93
62
39
94
59
41
94
58
45
85
52
41
70
39
29
53
25
16
45
19
12
40
18
11
27
15
7
25
16
9
29
21
14
23
17
13
20
16
13
25
16
13
22
13
9
115
72
34
114
70
33
112
70
34
111
73
38
110
74
41
110
75
43
110
73
43
106
76
48
80
59
37
55
38
23
66
49
39
87
64
54
91
64
51
88
60
48
77
48
38
59
28
21
49
23
16
41
28
20
40
31
23
41
33
26
39
33
28
32
27
24
29
20
16
26
17
11
117
73
38
116
73
41
116
75
45
115
77
48
113
77
50
114
79
52
115
79
46
102
71
40
51
29
13
35
21
11
34
23
16
57
44
39
89
71
63
90
66
59
88
61
54
77
53
44
67
48
37
56
45
35
51
42
33
53
43
35
49
40
33
46
38
32
44
33
29
31
27
21
117
74
46
116
74
48
116
76
50
116
78
54
118
82
60
116
80
56
119
83
50
97
63
32
66
38
18
71
50
36
46
31
22
26
15
11
65
51
50
92
71
69
88
65
60
80
63
53
56
45
33
34
24
15
30
20
12
45
35
26
49
39
30
46
35
27
46
34
30
27
26
21
118
77
50
119
80
54
119
81
57
118
81
59
120
85
65
120
87
66
119
86
62
109
78
55
108
79
61
104
78
64
76
52
42
35
18
14
32
18
17
82
63
61
92
72
67
81
66
58
68
57
48
40
30
22
24
14
7
25
16
8
34
25
17
48
39
32
55
43
40
33
33
27
120
80
56
122
86
63
122
87
65
120
87
66
118
86
67
119
89
71
120
91
76
118
91
77
120
91
79
118
88
78
101
70
61
63
40
35
31
16
14
46
31
29
88
73
68
89
77
71
83
73
67
69
60
53
42
34
27
23
14
8
18
10
4
34
25
19
60
47
45
37
38
33
121
83
62
121
87
67
121
88
69
121
90
73
120
91
75
120
93
79
120
97
86
117
93
85
118
92
85
120
93
86
115
86
80
87
63
59
52
34
32
26
13
10
56
47
43
92
84
80
92
84
80
88
80
75
74
67
61
45
39
33
31
24
19
42
35
30
63
51
51
37
39
36
120
85
66
119
88
69
120
90
73
122
94
80
121
95
81
118
95
82
116
97
88
114
96
89
116
96
91
118
98
94
118
97
94
107
84
83
70
51
48
27
16
13
24
19
16
76
71
69
97
91
90
94
89
85
89
84
80
74
69
66
64
59
55
71
65
62
78
68
69
35
38
37
119
86
69
117
88
72
120
92
77
121
95
82
119
95
83
117
96
84
115
98
89
115
100
92
113
99
95
114
101
100
114
102
103
118
100
100
86
65
63
28
19
15
10
8
5
40
36
37
85
80
81
97
92
90
94
90
87
90
86
84
85
81
78
82
78
76
81
73
75
40
44
43
117
87
73
115
89
75
119
95
82
121
98
87
119
99
88
120
101
92
117
102
95
117
104
99
113
102
100
115
106
106
114
106
108
121
107
106
90
71
68
29
19
16
12
8
5
13
11
10
61
58
58
98
95
95
100
97
98
96
93
95
92
88
91
89
85
89
84
81
84
67
70
71
118
93
81
118
95
83
118
97
86
120
101
92
117
99
91
117
101
94
120
106
102
119
107
104
116
106
105
119
111
112
115
109
111
117
105
104
75
59
55
30
18
15
18
11
8
7
5
2
41
41
40
95
94
96
103
102
106
96
94
100
94
92
99
94
91
101
90
89
95
85
87
89
116
93
82
119
99
89
119
100
91
120
102
95
120
104
98
117
103
98
120
108
105
122
112
110
123
114
113
122
115
116
119
113
116
116
105
104
64
50
45
31
20
17
16
9
7
6
4
2
26
26
24
87
87
89
106
105
109
101
100
106
100
99
106
98
97
107
94
94
100
89
92
94
117
97
89
120
102
95
119
103
96
118
104
98
122
109
106
122
111
109
121
110
109
122
112
111
124
116
117
123
117
120
123
119
123
116
108
107
60
48
42
35
26
22
18
13
11
5
4
2
16
18
16
72
73
75
108
109
112
107
107
112
104
104
111
103
102
112
95
98
104
90
94
97
116
99
94
121
106
101
117
104
100
116
104
102
122
112
110
123
115
114
123
114
114
127
118
119
127
121
123
122
118
123
119
117
122
119
112
112
67
55
50
40
33
28
32
29
25
13
14
10
23
27
24
59
63
63
103
107
109
110
113
117
105
108
114
104
107
115
99
103
109
95
101
104
112
98
95
117
105
102
117
107
105
118
109
109
120
113
114
123
117
118
123
116
116
126
120
121
128
123
127
124
122
127
122
121
127
125
119
119
75
65
59
45
39
34
52
51
46
34
37
32
39
45
41
56
61
61
90
96
98
114
118
122
108
112
118
108
112
120
104
110
117
101
108
114
113
102
100
115
105
103
119
110
110
123
116
117
121
116
119
125
121
125
125
120
122
126
121
124
128
126
130
129
128
133
129
129
136
131
126
127
81
73
66
49
45
39
67
67
62
54
59
54
47
54
51
52
58
58
69
74
76
109
114
118
110
115
121
111
115
124
109
115
124
105
113
121
117
108
107
119
112
112
123
116
118
126
121
123
125
121
125
126
123
127
126
125
126
126
126
128
127
128
131
131
133
137
132
134
139
135
132
134
93
87
83
51
46
39
72
72
63
63
67
62
47
54
55
49
54
55
43
48
49
93
100
101
114
122
127
110
118
127
105
115
125
104
113
122
117
112
111
119
114
117
121
116
120
123
118
122
125
120
124
128
125
128
126
129
130
126
131
132
128
133
133
130
135
136
128
133
134
137
137
141
108
103
104
55
50
41
69
67
55
66
69
65
54
60
65
54
58
62
35
41
40
71
80
79
112
123
126
111
123
132
108
120
131
105
115
125
116
113
112
116
113
116
118
115
119
119
116
119
124
121
124
131
129
132
130
134
135
130
136
136
131
137
137
133
139
139
133
139
139
139
141
145
123
121
122
68
64
56
64
62
51
61
65
61
60
67
71
63
68
71
54
59
59
56
65
62
81
92
93
105
115
124
113
123
131
110
120
125
114
112
111
115
114
116
120
120
122
124
124
126
125
125
127
125
125
127
126
131
132
133
139
139
132
138
138
134
140
140
136
142
142
134
138
141
137
138
140
100
98
92
57
55
46
47
51
45
59
66
67
74
80
83
71
77
76
46
54
50
34
43
42
57
65
70
85
94
95
91
101
99
113
113
112
119
119
121
122
122
124
123
123
125
124
124
126
125
125
127
127
132
132
132
138
138
134
140
140
133
139
139
134
140
140
137
144
146
146
151
153
127
128
124
52
51
44
51
55
47
70
78
74
84
89
93
79
84
84
71
76
72
53
58
56
33
37
39
41
47
45
46
55
48
110
111
111
113
114
116
112
113
115
117
118
120
128
129
131
128
130
132
130
135
136
132
138
138
131
137
137
133
139
139
138
144
144
136
146
147
132
141
142
131
134
132
66
66
61
48
51
41
78
85
77
94
99
102
86
92
92
66
71
65
47
49
45
19
20
20
12
15
12
37
44
36
105
107
108
109
112
114
112
116
117
120
123
125
127
131
132
126
130
131
126
132
132
128
134
134
130
136
136
136
142
142
137
143
143
131
143
143
129
141
142
140
145
145
95
96
92
43
46
35
70
77
66
97
104
106
83
89
89
87
91
85
76
76
70
36
35
32
9
10
7
53
57
53
105
106
108
110
113
115
113
117
119
117
121
123
121
126
127
122
128
130
123
129
130
125
131
132
126
133
134
129
136
137
129
136
137
124
135
138
126
138
142
139
146
149
114
116
115
51
53
44
56
60
51
88
95
95
71
77
75
122
123
117
139
139
133
71
72
67
21
22
18
44
49
46
