P3 24 24 255
145
56
30
161
99
73
127
89
75
99
53
39
156
89
67
186
121
92
186
128
98
195
140
110
222
190
170
247
247
242
251
253
254
252
251
251
251
251
249
252
252
251
254
254
254
255
255
255
255
255
255
255
255
255
255
255
255
255
255
255
255
255
255
255
255
255
255
255
255
255
255
255
146
54
32
161
100
78
163
149
131
133
87
71
152
86
59
185
118
90
185
124
95
189
132
104
199
141
113
223
188
167
243
228
219
242
221
213
240
215
210
245
234
231
251
255
254
254
254
254
255
255
255
255
255
255
255
255
255
255
255
255
255
255
255
255
255
255
255
255
255
255
255
255
140
49
27
154
88
69
161
151
136
137
99
80
159
86
63
191
126
96
184
122
90
186
125
96
189
131
102
198
151
119
218
153
123
221
123
98
220
113
90
216
152
133
244
240
238
255
255
255
254
254
254
255
255
255
255
255
255
255
255
255
255
255
255
255
255
255
255
255
255
255
255
255
140
48
23
151
76
55
160
144
127
148
107
91
126
64
47
143
92
72
183
119
89
189
126
95
186
123
96
188
133
104
201
152
120
229
150
122
234
132
104
207
130
100
214
186
170
249
249
246
253
254
254
254
254
255
255
255
255
255
254
254
255
255
255
255
255
255
255
255
254
255
255
253
140
45
26
132
54
31
140
98
80
147
108
87
164
97
71
147
93
76
134
82
66
179
118
91
188
127
95
187
131
99
193
139
108
206
131
102
216
102
77
201
113
88
200
151
122
229
211
200
254
255
253
254
254
254
254
254
254
254
254
254
255
255
255
255
255
255
254
254
253
253
253
251
138
46
21
121
50
28
135
74
57
149
77
54
171
103
77
178
112
87
164
99
79
140
86
70
152
101
76
181
127
97
187
129
100
195
112
82
202
84
58
192
107
81
193
136
108
198
162
135
239
232
224
255
255
255
254
253
253
254
255
254
255
255
255
255
255
254
255
255
253
253
253
251
137
45
24
125
49
29
91
40
27
106
57
41
154
85
61
159
84
62
176
107
87
174
104
81
149
88
69
152
98
77
181
123
96
192
112
86
189
84
63
160
91
70
171
125
100
186
138
108
210
179
157
248
244
242
254
254
252
254
254
252
255
255
253
255
255
253
255
255
253
253
253
251
139
47
24
153
62
31
160
79
55
120
52
35
147
82
60
176
103
78
158
86
64
154
82
59
168
99
76
171
108
85
157
106
86
144
79
56
157
60
33
142
72
50
127
85
63
167
120
94
186
143
110
229
214
201
255
255
255
254
253
251
255
255
253
254
254
252
253
253
251
253
253
251
126
44
23
141
56
32
147
72
43
148
67
38
162
86
63
165
96
73
168
97
72
168
95
70
157
86
64
155
90
69
161
104
84
150
71
47
161
62
33
146
76
52
132
82
62
122
85
61
162
119
92
223
205
193
255
255
255
253
253
250
254
254
252
253
253
251
253
253
251
252
252
250
135
37
17
133
56
33
144
78
54
130
60
37
149
82
57
173
110
73
176
111
80
167
94
70
164
89
66
162
95
70
158
103
81
157
82
60
151
61
33
138
78
53
132
86
64
124
75
58
122
84
63
208
193
183
255
255
255
253
252
250
253
253
251
252
252
250
251
251
249
250
250
248
137
38
17
142
60
35
152
87
65
144
64
42
155
81
57
167
104
75
162
97
70
159
88
64
163
94
71
160
91
66
160
102
78
161
105
86
141
61
38
127
68
46
120
78
56
120
75
56
115
71
51
187
170
161
255
255
255
252
251
249
252
253
251
251
251
249
250
250
248
249
249
247
132
35
16
144
63
41
166
105
81
156
77
52
160
81
58
160
84
61
159
87
63
158
85
63
151
80
57
145
77
56
142
86
64
141
82
62
138
59
37
126
70
51
119
80
58
121
76
57
112
67
48
186
164
156
254
255
255
248
249
246
249
249
246
247
248
244
248
248
244
247
247
244
131
30
16
122
41
21
128
54
33
131
51
33
143
65
42
154
78
53
159
82
57
155
80
54
157
86
58
147
79
56
138
77
56
134
64
44
125
53
30
119
70
51
114
76
57
111
75
54
107
67
47
178
160
150
248
253
249
242
245
240
242
245
242
240
242
241
240
242
240
238
241
240
133
36
16
144
89
71
135
93
75
121
55
33
127
69
51
126
65
49
128
64
45
130
63
45
142
74
54
134
67
44
133
70
47
133
64
43
118
48
30
110
63
45
104
72
53
106
72
53
103
63
45
173
154
147
244
247
247
238
239
237
237
239
235
237
239
235
236
238
235
236
236
235
109
31
17
138
69
49
155
93
69
155
77
49
167
105
80
168
105
78
155
83
59
161
105
82
153
106
84
135
79
60
123
67
47
121
62
43
108
51
34
117
73
53
126
94
76
127
91
74
115
82
61
146
133
120
203
213
208
211
220
218
223
232
231
226
235
234
225
232
232
227
232
233
57
9
9
52
16
12
57
35
21
46
37
25
34
20
14
44
27
23
56
40
31
63
41
33
70
39
33
67
44
33
82
53
39
74
44
36
12
7
7
21
20
17
29
26
20
37
33
28
59
53
46
65
65
48
70
79
57
72
84
64
95
110
90
116
131
119
142
152
136
176
187
164
56
17
11
58
28
15
97
90
70
102
101
82
9
9
8
20
19
17
46
44
36
33
33
27
23
19
13
34
29
22
12
11
12
24
16
14
10
7
5
38
37
30
28
27
22
17
20
20
59
56
50
119
109
72
151
144
91
152
145
93
155
150
111
155
156
132
172
175
136
180
183
156
31
17
12
48
24
18
85
82
59
94
94
71
8
7
8
16
13
12
44
40
29
32
28
23
26
24
20
39
36
28
15
14
11
9
6
6
8
7
7
31
29
23
27
24
18
11
12
11
51
50
40
136
132
101
169
166
133
173
170
150
179
182
161
182
184
164
183
182
167
178
179
157
11
12
8
9
8
4
16
14
10
15
15
12
2
2
3
15
13
10
47
42
31
33
31
23
25
23
19
43
39
32
16
14
11
6
7
6
7
7
6
33
31
22
31
29
20
5
5
4
56
55
43
141
143
121
171
172
153
172
171
148
174
173
150
172
171
152
168
166
146
166
165
144
8
7
6
2
1
2
3
3
3
3
3
4
2
2
2
15
14
8
47
44
32
37
36
30
30
30
24
70
67
57
23
21
18
5
4
5
3
3
2
39
39
29
39
38
28
12
13
10
50
50
43
116
113
99
139
136
116
145
142
120
151
151
131
154
155
133
154
153
131
156
155
134
6
6
6
3
3
3
6
6
4
4
4
4
4
4
5
12
11
10
29
28
24
14
14
11
36
36
31
102
100
89
37
34
28
9
7
7
2
2
2
27
26
22
66
65
53
85
86
68
105
105
82
115
113
91
123
121
100
129
127
107
134
133
112
137
135
114
139
135
114
144
141
120
2
3
1
25
26
20
55
57
46
44
44
35
37
38
31
16
16
14
2
2
3
0
0
0
36
35
31
95
93
82
50
47
36
51
50
39
57
58
47
77
76
63
105
104
83
115
113
90
120
117
94
123
121
98
127
125
102
131
129
109
134
133
111
136
132
110
136
132
111
140
136
116
14
14
12
67
69
60
75
76
68
64
64
56
55
56
47
21
22
19
1
1
3
0
0
1
15
13
11
55
52
42
80
79
62
98
96
77
107
106
84
117
114
90
123
118
96
126
122
100
127
123
103
130
127
107
133
131
108
133
131
109
134
131
110
135
130
108
135
133
111
139
136
116
7
8
6
14
14
11
10
11
9
11
10
8
8
8
6
5
5
4
3
3
3
4
3
3
12
10
8
48
47
37
81
81
64
93
90
70
102
98
76
109
104
82
114
110
89
116
113
91
121
119
97
126
124
103
127
125
104
128
125
104
128
123
101
130
125
102
133
130
107
135
133
111
