P3 24 24 255
132
151
148
131
151
147
132
151
147
133
152
148
134
154
150
136
155
151
137
156
151
138
157
152
139
159
153
142
161
155
145
163
158
147
164
159
149
166
160
149
168
162
160
165
150
177
143
113
165
122
97
147
104
79
138
97
66
135
95
61
136
96
63
132
92
65
141
100
76
148
135
122
135
153
152
135
153
152
135
154
152
136
155
151
137
156
152
138
157
153
139
158
153
140
159
153
141
160
154
142
161
155
144
163
157
146
165
159
147
166
160
148
168
162
163
168
154
181
149
122
173
131
108
160
115
90
146
103
75
137
97
60
137
98
62
134
91
62
143
101
76
148
140
128
138
155
155
139
156
156
139
157
156
140
158
155
140
158
154
141
159
156
141
160
155
142
161
155
144
162
156
145
164
158
146
165
158
147
166
160
148
167
161
149
169
163
166
169
157
189
155
128
183
139
114
171
123
95
156
108
79
143
97
61
144
98
62
139
92
62
143
102
76
151
143
131
142
158
158
144
159
160
144
160
159
145
161
158
144
160
157
145
161
158
145
162
157
146
163
157
147
164
158
149
165
160
150
166
161
151
167
162
152
169
163
153
170
165
172
172
160
190
155
128
179
138
114
166
123
95
155
110
83
148
101
72
147
99
68
143
94
66
143
102
76
152
144
132
147
159
161
148
161
162
149
161
162
150
163
160
150
163
160
150
163
160
150
163
160
150
164
159
151
165
160
153
167
162
155
168
163
156
169
165
157
170
165
157
170
166
179
174
162
191
158
133
166
136
117
134
107
87
118
89
68
120
87
69
136
99
78
142
99
74
145
104
78
155
148
135
151
162
164
153
164
166
153
165
165
154
166
164
154
166
164
154
166
164
153
165
162
153
165
161
154
166
162
156
168
164
157
169
165
159
171
167
160
172
168
161
172
168
184
175
162
185
154
132
134
116
107
101
94
84
91
84
72
72
58
53
88
68
59
130
97
76
151
110
84
159
152
139
153
167
165
153
167
165
155
168
166
158
170
167
159
171
168
159
171
168
160
171
167
159
171
166
157
169
165
160
171
169
162
173
170
163
175
171
163
174
170
163
173
168
183
178
167
168
151
140
114
105
101
109
107
100
124
122
113
84
77
71
60
53
46
97
79
67
144
112
88
164
156
140
154
169
166
154
169
166
156
170
167
153
165
164
147
159
158
144
156
155
145
155
153
153
161
158
161
169
167
156
164
161
144
152
147
132
139
134
120
127
122
107
112
107
127
127
121
138
135
132
98
92
85
104
99
86
88
81
70
55
46
37
69
64
61
70
65
67
125
107
93
165
159
144
158
169
170
159
170
171
144
153
156
120
128
133
116
124
129
106
114
119
85
89
96
104
105
110
92
93
92
86
88
81
77
78
69
63
62
54
57
57
48
56
56
48
72
71
67
109
107
103
96
91
77
102
97
76
92
84
71
58
47
41
81
73
79
80
76
93
129
117
120
165
164
159
164
169
176
160
166
173
121
126
134
112
115
123
134
137
146
156
159
168
93
92
103
75
72
80
101
99
99
49
49
40
52
47
36
55
49
39
52
46
35
52
46
37
53
51
50
91
89
86
99
94
79
93
88
64
99
89
75
100
86
81
94
84
95
97
92
114
116
107
118
161
165
164
148
149
161
136
138
150
99
100
110
99
99
105
120
120
126
148
147
154
133
132
139
70
69
73
132
132
131
142
142
137
48
43
35
62
55
46
63
56
47
61
55
47
54
52
51
64
60
62
96
90
83
97
91
75
106
94
82
113
97
91
109
98
103
120
110
121
112
98
96
151
156
152
136
134
148
127
125
140
101
99
110
89
87
90
87
85
89
87
84
88
88
88
88
74
77
76
68
71
71
154
156
156
69
66
62
42
37
31
53
47
41
54
49
43
51
48
47
47
43
47
75
67
69
105
97
91
107
93
84
122
105
94
133
121
117
143
128
123
145
124
106
167
170
161
81
77
84
87
86
95
114
114
121
113
113
119
103
100
108
89
83
87
67
64
64
49
50
51
41
42
46
103
103
109
115
114
112
37
35
29
43
41
35
52
50
44
42
38
35
42
37
36
63
57
56
94
89
87
98
87
82
130
108
94
158
140
128
158
131
116
157
129
109
172
174
168
55
49
52
51
48
56
71
70
80
85
84
94
105
101
111
103
97
99
77
73
70
74
71
72
103
100
104
67
63
69
91
90
88
65
64
59
40
39
34
76
75
70
103
98
99
118
112
113
112
106
107
93
86
87
96
88
87
133
122
118
141
121
112
141
104
85
157
126
108
172
173
170
125
116
118
130
121
133
147
141
156
150
146
161
121
117
128
82
79
77
102
98
93
93
88
87
69
63
66
30
24
29
35
32
33
48
47
45
33
31
29
52
50
50
130
124
131
159
152
160
126
119
127
100
91
95
100
94
99
144
149
160
161
144
139
147
104
80
161
130
112
174
176
172
158
153
155
171
163
173
185
177
189
195
189
201
158
154
165
112
111
111
144
143
139
140
137
139
100
96
101
72
68
75
58
56
60
50
49
51
36
34
37
33
31
34
80
73
82
118
110
120
109
102
112
105
96
104
103
101
111
142
149
165
172
151
146
151
103
77
164
134
115
175
177
173
164
165
168
162
159
162
170
165
167
177
170
175
174
170
180
155
155
161
158
161
164
160
163
168
139
142
149
120
122
132
105
104
112
92
90
96
79
76
82
62
59
66
98
91
98
117
110
117
106
99
106
105
100
108
107
108
121
137
134
145
150
121
110
150
101
75
169
138
120
176
178
174
166
173
175
168
172
170
173
173
170
188
183
185
196
190
199
174
170
180
151
152
158
158
162
169
142
145
157
127
130
143
132
130
138
131
127
136
123
120
130
120
117
125
125
120
126
114
108
114
100
94
98
105
103
111
115
118
132
138
124
127
144
106
91
154
103
79
172
144
126
176
179
174
164
174
175
164
174
174
169
176
177
194
194
200
206
201
209
186
175
184
159
152
157
156
153
162
140
136
152
132
128
142
139
136
139
135
132
140
135
132
146
134
132
141
123
121
128
107
103
110
95
88
92
106
103
110
133
134
146
152
130
126
148
104
85
161
105
85
174
148
131
174
181
174
162
173
172
163
173
172
164
174
175
174
180
186
204
204
213
191
186
196
171
167
178
175
173
190
144
142
160
133
132
143
135
133
137
139
136
145
142
138
152
140
135
145
132
127
134
117
109
116
101
90
94
97
89
95
134
127
137
152
123
116
144
98
75
162
107
83
176
152
135
173
181
174
169
177
174
167
175
172
165
174
174
171
179
183
211
215
223
203
204
216
172
173
189
196
196
218
179
180
199
146
148
157
141
140
147
147
143
152
150
143
153
146
136
147
137
126
133
129
116
120
117
101
102
109
92
95
135
114
117
142
106
92
144
96
68
161
106
80
178
154
136
172
179
173
211
211
209
208
208
207
203
204
202
196
198
198
215
215
221
218
216
227
193
192
206
199
198
217
192
192
210
168
169
179
150
149
160
163
158
167
153
143
151
143
129
139
136
119
124
131
112
114
133
112
111
130
104
102
140
105
96
140
95
74
144
94
67
160
106
82
179
154
137
170
177
171
226
217
216
225
216
215
226
217
214
225
216
212
223
214
216
226
216
225
208
202
210
188
185
196
182
178
194
170
166
180
158
155
170
156
151
160
148
137
143
149
131
141
142
120
124
133
110
110
135
110
108
141
110
102
141
96
74
142
90
64
144
92
69
161
107
88
180
155
138
167
174
167
237
224
224
236
223
223
235
222
221
236
222
219
234
221
221
237
224
228
230
220
224
216
209
215
211
204
214
203
195
205
195
189
199
193
186
191
199
189
191
178
163
169
151
127
133
140
113
118
144
116
120
147
113
109
142
93
72
140
88
65
140
88
69
156
107
92
191
164
152
191
185
180
