P3 24 24 255
151
176
208
151
177
207
151
177
207
151
177
208
152
178
208
151
177
208
153
178
208
153
178
208
153
178
208
155
180
210
157
182
212
156
182
211
153
180
209
152
179
208
153
180
209
153
180
209
153
180
208
153
179
206
153
179
206
154
179
206
154
180
207
154
180
207
154
179
205
154
179
204
150
176
209
150
176
207
150
176
208
151
177
209
152
178
210
153
179
210
152
178
208
152
178
207
153
178
208
154
179
209
155
180
210
154
179
209
150
177
206
150
177
206
151
178
207
151
178
207
151
178
207
152
177
207
153
178
208
154
180
210
155
180
210
155
180
210
153
180
208
153
181
208
149
177
208
150
177
207
150
177
207
152
179
209
149
176
206
146
172
203
149
177
208
146
177
207
146
177
206
147
176
207
148
173
207
148
172
205
147
174
204
145
174
203
146
174
203
148
174
205
150
174
205
151
177
205
155
181
208
155
182
210
155
181
211
154
181
210
153
180
209
152
180
207
148
176
205
149
176
205
149
176
205
149
176
205
137
164
193
100
127
156
136
164
194
144
175
205
140
174
203
141
172
205
144
171
207
144
168
202
132
159
187
139
170
197
145
176
203
149
175
206
152
175
206
151
178
202
152
180
204
152
179
206
152
179
207
151
178
207
150
177
205
149
176
203
145
173
203
146
173
202
146
173
202
146
173
202
140
167
196
108
135
164
121
146
173
141
169
196
140
171
200
141
172
203
143
171
205
139
163
192
120
146
168
142
171
194
148
178
204
150
177
204
153
177
205
152
179
203
150
178
203
151
178
205
152
179
207
151
178
207
149
176
205
149
176
203
143
171
201
144
171
200
144
171
200
146
173
202
146
173
202
139
165
193
124
146
170
134
159
184
140
169
197
144
174
202
146
173
201
142
165
187
136
160
176
148
176
197
148
177
201
149
176
202
152
177
201
147
175
198
147
175
199
151
178
205
152
179
207
151
178
207
150
177
206
149
176
205
142
170
200
143
170
199
144
171
200
147
173
202
145
172
201
147
173
201
131
153
177
131
154
179
141
168
195
137
163
188
134
157
178
133
153
167
131
153
166
149
175
196
148
176
202
149
176
202
151
177
200
140
167
190
141
169
194
149
176
203
149
176
204
149
176
205
148
175
205
148
175
204
140
169
198
142
169
198
144
171
200
146
173
202
144
171
200
145
172
200
142
167
191
128
153
179
141
167
194
126
148
170
101
118
131
97
112
121
115
134
148
148
171
195
149
175
206
148
175
204
150
176
200
138
166
188
139
167
192
147
174
201
147
174
202
147
174
203
147
174
204
147
174
204
138
165
195
138
164
193
139
166
194
142
169
198
140
167
196
139
166
194
144
170
196
129
156
183
130
155
182
140
159
177
106
118
124
104
115
120
129
145
160
144
165
192
143
168
202
142
168
199
144
169
194
134
160
183
135
162
186
140
167
193
140
167
195
140
167
196
139
165
196
139
165
196
118
141
169
114
137
164
113
137
162
119
143
167
116
140
166
116
140
167
118
142
171
114
139
165
103
128
148
123
140
153
112
121
129
115
123
131
126
140
155
122
141
166
120
141
171
124
140
166
126
138
158
118
133
151
113
132
152
116
137
160
115
138
163
116
138
163
115
136
163
114
135
163
104
122
147
98
117
142
97
116
138
103
122
142
100
119
142
101
119
146
101
120
149
102
123
147
96
117
133
99
115
126
102
109
119
105
112
123
111
124
139
109
125
149
111
126
150
111
116
131
110
107
112
102
102
106
82
89
98
96
110
126
110
127
148
107
124
145
106
122
145
105
121
145
101
118
143
99
115
137
97
113
132
101
118
135
99
115
135
100
115
139
100
118
139
101
119
142
100
116
138
98
110
123
101
106
111
103
112
116
108
123
137
108
122
148
112
122
144
104
105
107
96
87
72
93
83
68
72
68
62
90
96
103
112
126
143
106
122
143
106
122
145
105
121
144
99
115
139
99
112
133
97
110
127
100
114
130
98
111
130
98
112
132
101
118
133
92
108
129
82
93
118
88
95
111
86
90
91
95
105
105
102
119
133
106
118
144
112
117
135
115
112
102
115
103
70
111
94
64
70
59
42
75
77
76
107
118
132
103
119
140
103
119
143
102
118
141
100
116
140
94
107
128
87
100
117
94
107
123
90
103
121
98
112
132
101
119
135
96
111
131
93
102
126
90
95
111
69
74
75
78
90
93
102
119
136
103
114
137
102
104
117
104
101
86
114
104
69
110
95
66
64
57
40
59
63
63
95
107
122
103
118
140
102
118
141
102
118
141
90
106
131
63
78
101
50
66
84
61
77
94
58
73
93
79
95
118
91
111
134
90
107
128
86
95
113
80
87
99
61
68
75
55
68
81
86
102
123
84
94
111
76
81
87
72
72
62
73
69
51
70
67
56
48
52
51
39
51
61
79
95
114
103
120
143
104
120
143
103
119
142
86
103
128
31
48
72
15
33
53
21
39
58
24
42
63
36
54
81
45
68
99
47
66
88
39
51
62
34
43
51
32
42
54
32
45
69
44
60
84
42
54
64
41
49
50
43
47
45
39
43
45
28
41
51
21
40
57
24
45
66
58
79
102
103
121
144
108
124
147
107
123
146
100
116
138
46
60
80
12
27
44
16
31
48
15
29
47
15
30
51
12
32
60
15
33
54
17
31
41
15
26
34
17
28
42
19
31
53
19
32
52
21
33
41
24
34
36
35
43
48
39
48
60
19
37
53
14
36
55
15
37
59
58
79
102
107
125
147
113
129
152
113
129
152
105
119
137
56
66
79
19
29
41
22
32
44
19
28
41
16
26
40
12
28
45
13
29
46
13
26
41
12
24
37
14
25
38
13
24
38
24
37
48
47
59
68
54
65
73
54
65
74
50
62
72
37
52
62
24
40
52
29
46
61
78
96
114
113
131
151
116
132
155
115
131
154
91
107
126
46
58
72
28
40
54
31
43
57
31
43
57
36
48
62
40
55
72
46
62
79
54
67
83
54
66
81
48
59
72
49
61
73
72
85
96
82
95
106
83
96
107
81
93
104
75
88
98
71
84
93
65
79
91
72
87
102
94
111
128
108
125
145
110
126
149
111
127
150
89
106
126
73
89
107
68
83
101
71
86
104
73
88
106
77
93
111
81
98
116
87
103
121
96
111
128
98
111
127
89
101
116
92
104
118
104
117
131
79
91
106
61
74
88
88
101
115
88
101
114
80
92
106
86
100
115
98
114
130
110
127
145
111
128
148
112
128
150
114
130
153
91
110
131
86
106
127
81
101
122
81
100
121
85
105
126
86
105
126
84
102
122
84
102
120
88
104
121
92
106
123
101
114
130
109
122
138
92
106
122
89
102
119
84
98
114
96
109
125
93
105
122
97
109
126
99
113
129
103
119
136
108
125
143
109
127
146
111
128
150
112
128
151
93
113
134
89
110
131
87
108
129
87
108
129
88
109
130
88
109
130
88
106
127
87
105
125
89
106
125
92
108
125
96
111
127
88
102
120
82
96
115
97
112
130
101
115
134
104
119
137
107
120
139
108
120
140
106
120
138
105
120
139
106
122
141
106
123
141
106
122
144
106
122
145
97
115
136
94
113
133
93
111
131
93
112
131
93
111
131
93
112
132
92
112
133
94
113
133
97
114
133
98
114
133
98
113
130
95
110
128
97
112
133
100
115
135
101
116
136
102
118
138
104
119
140
104
116
138
102
115
137
100
115
135
100
116
135
100
118
136
101
118
139
101
117
140
93
111
132
92
109
129
93
110
129
94
112
131
94
111
130
95
112
132
94
114
135
97
116
137
98
115
136
97
114
134
98
114
132
99
115
134
101
116
136
102
118
138
103
118
138
100
115
135
100
115
135
101
114
136
101
115
136
100
115
135
100
116
135
99
116
134
100
117
137
100
116
137
