P3 24 24 255
115
145
141
114
142
141
105
132
131
85
109
106
84
79
70
127
115
100
115
101
91
106
86
88
112
114
113
128
153
149
133
157
156
134
156
154
134
158
155
134
157
155
133
157
154
132
157
154
132
156
154
133
157
155
131
157
154
132
155
155
129
153
151
128
147
145
128
142
140
126
140
139
114
145
142
108
137
135
101
130
128
83
106
104
73
65
58
127
116
102
139
125
113
115
62
66
110
64
73
128
145
144
137
163
162
137
160
157
139
161
159
138
161
158
137
161
158
135
160
157
134
159
156
127
147
142
112
125
117
124
141
136
127
148
145
122
143
138
122
140
134
123
143
139
115
145
143
105
134
132
101
131
129
85
109
108
65
58
53
111
101
93
141
134
124
122
91
86
115
69
76
131
146
145
136
163
161
136
162
158
137
164
160
138
164
160
137
163
161
137
162
160
113
127
121
96
92
83
83
73
64
91
88
80
113
120
111
100
103
98
97
96
87
115
123
115
115
145
143
104
134
132
100
131
129
87
112
111
64
58
53
95
83
75
121
113
102
108
96
82
115
97
92
153
159
158
160
173
172
153
166
165
151
165
165
141
157
156
136
157
154
123
139
136
71
65
59
71
57
48
84
72
63
69
59
53
108
104
99
145
142
142
121
113
108
105
100
92
116
146
144
114
144
142
113
143
142
97
123
122
64
59
55
83
72
62
108
100
88
106
94
82
93
80
72
122
117
110
170
166
162
188
186
184
187
187
184
165
164
161
163
162
160
116
114
111
66
50
41
74
58
47
73
61
52
70
60
53
79
71
64
146
143
136
195
197
194
144
142
140
117
146
144
117
148
146
118
148
145
83
102
99
55
49
44
78
67
58
87
79
70
87
76
67
85
75
66
79
68
59
93
84
76
164
161
156
198
197
194
186
184
180
164
160
156
110
104
98
94
78
62
101
83
65
91
75
64
81
70
61
89
78
66
140
133
120
209
211
206
194
195
194
119
149
146
118
150
147
87
106
104
37
37
36
52
44
39
79
70
63
93
85
78
94
86
78
101
91
80
91
81
71
84
73
63
123
116
108
171
170
166
153
151
146
128
125
119
89
84
78
77
63
50
102
83
65
108
93
78
100
89
77
91
79
66
138
131
120
213
212
206
215
215
212
102
119
112
93
108
103
57
57
54
47
39
36
72
65
60
89
84
79
111
103
95
118
117
104
107
109
88
120
111
97
111
101
89
109
99
87
131
127
121
95
90
83
89
81
74
92
84
75
66
57
49
75
61
51
92
79
68
110
100
90
110
100
91
162
159
152
203
205
199
202
203
198
84
78
71
66
59
52
66
57
49
69
60
54
102
97
94
137
139
137
150
142
136
132
142
117
93
135
97
119
112
100
107
95
84
130
116
102
155
151
144
115
110
100
106
98
89
120
111
99
121
113
102
115
106
95
124
116
105
150
147
140
144
142
136
163
162
154
149
146
136
144
140
131
104
97
92
81
71
63
79
72
64
80
74
67
123
121
117
193
198
196
193
190
186
132
130
111
101
113
87
119
111
100
125
113
99
171
158
142
185
184
177
154
150
143
130
120
107
135
126
112
158
156
147
168
164
154
180
178
169
182
183
176
145
142
131
132
125
111
121
110
95
128
120
104
120
112
102
86
78
69
74
67
61
83
75
69
130
120
112
182
181
177
211
213
212
170
165
160
131
119
111
135
128
117
156
145
130
194
186
174
198
199
194
179
179
174
144
136
126
129
116
99
159
154
142
183
183
177
190
191
185
156
152
141
125
116
101
111
100
85
127
113
96
158
150
131
114
104
96
82
72
63
71
63
57
104
100
95
140
137
121
149
140
127
182
180
176
198
196
193
192
188
184
175
170
164
167
159
148
198
196
188
193
194
188
162
161
155
149
140
132
135
120
104
157
147
131
192
191
183
159
155
146
107
96
84
97
85
71
92
79
65
120
106
87
179
171
154
87
75
66
71
62
52
81
67
61
91
100
80
72
135
93
88
83
64
146
137
135
199
186
185
203
185
181
217
213
210
207
205
201
188
184
176
155
145
133
105
91
82
132
117
102
161
154
142
169
166
156
169
166
156
115
104
90
72
59
50
71
59
51
88
77
63
114
101
82
180
172
157
54
48
44
63
55
46
85
72
62
109
105
85
88
115
85
110
99
85
152
145
143
193
177
176
206
178
173
215
208
204
197
198
194
157
147
133
108
89
74
93
72
56
124
104
81
156
147
135
169
167
159
117
109
99
77
63
51
62
50
43
73
63
54
93
82
69
110
98
81
169
163
150
55
57
55
65
55
47
80
70
60
110
102
90
114
105
95
127
118
109
173
172
169
208
203
203
201
178
177
194
174
173
169
165
157
129
115
95
91
69
52
97
75
57
110
86
62
114
95
76
123
111
94
90
77
64
66
51
42
56
43
37
73
63
52
104
94
80
113
102
87
161
157
146
66
75
74
57
47
41
77
66
57
95
84
74
107
97
87
141
134
124
174
172
169
206
210
210
193
181
181
188
167
168
153
142
135
104
84
65
80
59
42
95
72
53
105
81
58
97
75
53
92
74
56
86
71
58
73
59
51
66
54
46
74
63
53
103
93
81
109
99
89
135
131
121
70
84
83
42
35
32
82
69
59
100
87
75
128
118
106
168
161
150
176
176
170
183
183
181
179
171
170
173
165
163
120
108
97
90
69
51
74
53
39
89
66
48
106
83
58
96
74
52
81
64
48
76
63
53
74
61
51
81
69
59
89
78
66
94
85
73
100
92
83
120
115
106
83
106
104
37
36
35
64
52
46
100
85
74
149
136
123
181
175
164
190
190
184
194
195
191
180
179
174
126
120
111
93
78
63
95
76
57
73
53
40
83
61
45
100
78
55
93
71
50
79
62
46
67
54
46
73
61
51
90
80
67
100
90
77
104
95
81
130
124
109
131
126
115
91
115
114
44
53
53
49
45
45
98
91
85
159
154
146
202
203
196
209
211
206
210
213
208
164
161
153
93
80
66
96
80
63
104
88
69
75
56
43
81
61
47
99
79
58
98
76
54
87
70
53
68
55
48
45
34
31
59
51
43
86
77
66
120
111
97
147
143
127
144
138
126
80
56
68
61
45
53
53
43
47
58
52
53
107
106
107
184
185
184
202
204
200
196
198
192
131
122
114
86
70
56
97
83
68
104
90
72
78
59
47
81
63
51
99
83
65
105
87
66
88
72
57
69
58
51
48
35
31
42
30
26
58
47
40
105
96
86
119
112
104
135
129
117
143
91
113
131
80
100
123
62
81
113
42
65
100
38
60
130
102
112
170
170
171
163
164
162
110
100
92
82
67
54
94
81
68
98
85
72
77
61
50
82
65
54
100
86
70
103
86
67
68
53
44
54
45
40
86
77
63
85
74
62
94
85
74
80
70
64
79
68
61
139
132
117
149
143
147
152
157
159
159
158
160
155
130
138
166
102
124
164
95
121
167
156
167
163
165
172
131
132
133
86
83
78
86
77
68
89
78
68
80
68
60
77
62
53
89
75
61
102
89
76
62
52
45
61
49
42
75
64
57
76
68
60
91
85
72
96
89
76
102
94
80
118
110
96
132
140
138
133
142
138
151
163
157
163
173
169
159
150
154
160
120
136
154
141
151
165
170
177
151
156
163
127
132
136
96
94
92
80
73
67
80
71
64
80
71
65
111
107
103
151
153
153
136
140
143
115
115
112
89
85
82
67
59
55
65
54
50
64
55
51
69
62
58
67
58
54
160
172
171
159
168
167
164
169
166
174
180
178
178
184
185
181
189
188
154
156
158
150
154
161
149
155
162
136
143
147
120
123
126
95
95
96
93
95
96
122
127
131
165
174
180
174
184
193
175
184
191
178
187
191
166
173
178
136
141
142
124
123
122
107
104
100
85
79
76
70
63
58
