P3 24 24 255
82
88
117
83
90
119
83
90
119
83
90
119
83
90
119
83
90
119
83
90
119
84
91
120
84
91
120
83
90
119
83
90
119
83
90
119
83
90
119
84
91
120
84
91
120
84
91
119
84
92
119
84
91
118
83
91
118
82
90
119
81
90
120
82
91
120
82
91
121
80
92
123
84
90
119
85
91
120
85
91
120
84
91
120
84
91
120
84
91
120
84
91
120
85
92
120
85
92
121
85
92
120
85
92
120
84
91
120
84
91
120
85
92
120
85
92
120
85
92
120
83
93
119
81
93
118
81
92
118
83
90
118
82
90
118
82
92
119
83
91
119
82
91
123
86
91
120
86
91
120
86
91
120
85
92
120
85
92
120
85
92
120
85
92
120
85
92
120
85
92
120
85
92
120
85
92
120
85
92
120
85
92
120
85
92
120
85
92
120
85
92
120
83
93
120
82
93
120
83
92
119
84
90
119
83
90
118
82
92
119
84
91
119
84
90
122
87
92
121
86
91
120
86
91
120
85
92
120
85
92
120
85
92
120
85
92
120
85
92
120
85
92
120
85
92
120
85
92
120
85
92
120
85
92
120
85
92
120
85
92
120
83
93
120
85
92
120
87
92
121
87
92
121
83
92
120
83
92
119
84
91
119
83
91
119
84
90
122
87
92
121
86
91
120
86
91
120
85
92
120
85
92
120
85
92
120
86
93
121
85
92
120
85
92
120
85
92
120
85
92
120
85
92
120
86
93
121
85
92
120
84
92
120
82
93
120
86
92
120
89
91
121
86
93
121
80
96
121
83
93
120
85
91
120
83
92
120
84
91
120
86
91
120
86
91
120
86
91
120
85
92
120
85
92
120
86
93
121
86
93
121
85
92
120
85
92
120
85
92
120
85
92
120
86
93
121
86
93
121
85
92
120
84
92
120
82
94
120
86
91
120
86
91
120
77
94
118
64
88
110
80
92
118
87
92
120
83
93
120
83
92
119
86
91
120
86
91
120
86
91
120
85
92
120
85
92
120
86
93
121
86
93
121
85
92
120
85
92
120
85
92
120
85
92
120
86
93
121
86
93
121
85
92
120
84
92
120
83
93
120
86
91
120
82
94
120
57
88
107
42
74
93
78
91
117
88
92
121
83
93
120
83
92
119
86
90
118
88
91
120
88
90
120
87
90
119
87
91
119
86
91
119
86
92
119
85
93
119
84
92
117
84
92
118
85
92
118
86
92
118
88
93
119
87
92
119
87
92
119
85
92
121
84
92
119
79
96
105
64
95
84
54
82
90
80
92
118
86
91
120
82
93
119
83
92
118
86
89
114
87
91
117
88
91
119
87
90
117
86
91
117
86
93
119
86
94
119
91
92
119
92
90
118
92
89
118
91
90
118
87
92
118
86
93
118
87
94
119
87
92
119
87
90
121
80
94
118
72
102
95
77
114
76
70
94
93
81
92
118
85
91
120
82
92
117
83
92
118
84
92
113
77
91
110
78
95
113
82
97
116
81
98
116
78
98
115
74
95
113
77
91
113
79
90
114
80
92
115
79
92
116
79
96
118
78
96
118
77
95
117
79
95
117
84
93
120
68
91
114
44
90
90
39
94
72
64
92
96
84
93
119
85
90
120
83
92
117
83
91
118
78
89
107
67
86
99
74
99
108
80
103
113
83
107
118
76
103
113
54
84
93
51
90
100
53
94
104
50
92
102
51
91
102
62
91
105
64
89
105
68
94
110
69
95
110
58
87
102
47
86
101
32
78
87
32
76
77
62
85
96
84
92
118
86
90
120
84
91
117
84
91
118
166
174
189
152
167
177
138
158
163
126
144
150
125
144
151
122
144
150
113
137
143
112
136
145
109
133
143
89
113
123
76
99
109
69
90
101
73
92
104
91
111
123
86
108
119
66
104
109
59
101
108
66
96
110
66
81
99
55
68
86
78
84
110
88
90
121
85
91
117
84
91
118
163
164
180
154
158
168
143
148
153
144
147
154
145
150
157
154
162
168
189
199
205
202
206
214
153
154
163
88
89
98
82
84
93
103
109
116
136
143
150
156
163
170
143
151
158
122
138
143
103
123
128
99
111
123
88
89
109
73
82
100
83
88
114
88
88
120
86
90
117
84
91
118
93
93
113
94
93
110
92
91
102
96
96
108
99
100
111
111
110
119
150
150
156
189
193
197
130
135
140
63
67
74
89
93
101
119
121
132
114
116
127
116
117
127
113
113
124
106
104
117
97
99
111
91
94
110
91
92
113
86
93
115
85
90
117
87
89
119
85
90
118
84
91
119
87
91
111
85
88
114
85
88
110
84
91
111
88
93
112
97
96
112
105
102
114
115
114
126
90
89
103
63
63
79
82
81
101
89
92
118
87
91
117
87
91
115
89
92
115
88
92
114
87
92
116
86
90
117
87
90
119
85
90
118
84
89
117
85
89
116
84
88
115
84
88
115
72
72
84
84
86
115
84
89
119
84
90
114
85
91
115
87
91
113
87
90
111
88
90
115
74
76
101
55
57
81
77
79
103
90
94
128
88
92
128
91
92
126
91
92
122
86
94
117
83
94
116
83
93
118
83
92
119
82
90
118
84
90
115
86
89
111
90
90
110
92
92
113
98
92
94
89
88
113
84
87
118
85
89
112
85
89
113
84
90
115
85
91
119
86
91
123
85
89
119
84
89
114
82
88
110
80
85
111
84
86
112
87
86
108
91
86
105
95
94
104
97
97
106
90
93
104
86
90
103
86
92
112
91
95
115
98
98
113
118
114
126
116
113
126
131
122
115
93
87
102
80
78
97
80
83
101
86
89
109
85
89
109
85
89
111
85
86
111
87
87
110
84
86
105
65
67
82
60
62
74
81
79
86
92
85
87
116
104
102
136
119
113
142
127
121
131
120
116
114
107
105
100
99
109
98
98
110
100
97
106
122
118
126
122
118
127
128
119
103
112
102
100
101
94
93
78
80
88
72
74
87
76
74
84
88
84
91
79
72
78
79
71
78
84
75
83
53
46
54
48
44
48
81
73
72
105
89
82
130
108
96
120
95
86
121
101
93
126
112
104
117
108
102
97
89
89
86
80
84
79
76
83
105
105
113
113
113
121
92
81
67
117
106
96
134
123
110
70
70
72
42
42
48
72
65
66
105
93
91
107
95
89
125
113
109
118
105
104
62
50
52
51
38
43
82
61
65
97
68
66
102
72
66
88
65
62
75
59
58
53
43
42
43
38
36
60
50
46
82
73
71
91
88
91
107
108
115
100
101
106
93
79
72
122
115
108
134
123
111
87
85
81
70
67
67
93
82
78
111
95
90
114
104
98
142
134
129
127
118
114
80
71
68
84
68
65
107
76
77
112
77
77
102
78
74
96
79
77
96
83
81
76
67
64
68
62
58
72
66
60
92
87
81
125
121
116
106
103
99
90
86
83
102
92
81
134
132
119
119
112
96
95
91
80
93
89
80
98
91
79
99
90
78
96
89
78
99
92
82
98
92
81
91
86
75
89
87
71
97
85
72
97
82
70
86
82
67
87
81
67
89
81
69
89
85
71
90
88
73
88
85
72
96
92
80
117
113
101
96
92
80
94
90
77
80
78
55
82
86
62
82
82
57
83
77
57
82
77
58
82
81
60
81
82
60
81
79
58
82
79
59
83
80
60
80
78
58
74
82
56
78
82
56
80
83
58
77
87
59
81
85
58
83
84
58
83
86
59
82
85
59
83
82
62
85
82
64
88
85
67
86
83
64
85
83
60
78
80
51
73
80
48
78
80
52
86
81
55
84
81
54
78
80
54
74
79
52
77
79
53
79
80
54
80
80
54
77
78
52
75
80
51
76
78
49
80
80
52
77
82
53
75
82
51
77
83
52
79
83
53
79
82
53
80
79
55
81
79
56
80
78
56
79
77
55
78
76
51
