P3 24 24 255
16
12
18
8
9
14
7
6
13
8
7
14
4
4
10
1
1
7
5
5
11
8
8
16
0
0
5
69
69
75
215
217
219
249
251
250
250
252
248
252
253
249
236
234
236
145
142
151
52
50
63
17
16
27
6
9
14
0
2
4
4
5
10
12
12
18
10
9
16
9
8
14
8
11
14
4
7
11
6
5
11
7
6
12
4
3
9
3
2
8
8
7
13
9
7
13
0
0
2
35
34
38
188
187
190
255
254
255
247
246
247
248
246
247
161
156
160
16
13
19
0
0
7
10
9
17
6
9
12
1
2
4
4
3
8
12
11
17
13
12
18
10
9
15
9
7
14
8
5
12
7
6
12
8
7
13
6
5
11
3
3
8
7
6
12
21
19
25
18
14
20
57
54
60
162
158
164
198
194
200
204
200
207
212
208
213
94
90
94
1
0
5
17
16
25
13
12
20
4
7
10
1
3
5
4
4
9
8
8
14
13
12
18
11
10
16
10
6
14
9
6
13
8
7
13
8
7
13
8
7
13
6
5
11
9
8
13
18
15
21
103
98
103
185
179
187
122
116
126
56
50
61
75
68
81
156
150
159
169
165
169
70
66
73
22
21
31
14
13
22
3
5
8
3
5
7
7
7
12
7
6
12
9
8
14
11
10
15
4
7
11
7
9
14
9
8
14
6
5
11
4
3
9
6
5
11
18
17
23
86
83
88
214
207
212
226
218
225
138
128
138
65
54
67
77
65
80
164
154
165
246
239
244
165
160
166
32
29
37
11
10
17
3
5
7
4
7
8
8
8
12
8
7
14
9
8
15
12
11
18
6
10
12
4
8
11
6
4
11
5
4
10
7
6
12
11
10
16
82
81
87
189
186
190
221
215
217
186
177
181
122
108
113
85
66
73
113
91
100
164
144
151
233
219
224
244
235
239
130
124
126
25
23
24
3
4
4
3
6
6
4
5
9
8
8
15
9
8
20
13
12
22
16
14
16
15
16
20
56
55
61
91
90
96
95
94
100
105
104
110
139
138
144
183
181
185
184
179
181
169
161
164
150
138
142
144
129
134
152
134
140
165
148
154
207
194
198
235
225
228
214
208
210
102
99
100
4
4
3
0
0
0
0
0
3
8
7
14
15
13
22
15
13
21
53
45
47
101
99
103
163
162
168
179
178
184
176
175
181
179
178
184
175
174
180
174
172
176
178
175
176
190
185
186
197
190
192
202
194
197
210
201
204
205
195
198
200
191
194
210
202
204
215
209
211
176
172
173
88
86
87
47
45
46
34
30
34
25
21
27
31
26
33
28
25
27
95
84
85
162
160
163
192
191
197
198
197
203
204
203
209
199
198
204
199
198
204
196
195
199
190
188
189
184
182
182
182
179
180
178
176
177
188
186
187
204
201
202
209
204
206
214
209
211
220
216
217
219
214
216
210
205
207
197
192
194
180
175
179
149
143
148
81
75
79
45
40
38
100
90
88
167
165
167
201
200
206
214
212
218
214
212
218
204
203
208
203
203
208
209
208
211
207
204
205
203
200
201
199
197
198
187
186
186
192
191
191
217
215
215
228
224
225
231
227
228
233
228
229
231
225
226
229
222
223
233
226
227
229
224
227
219
215
219
176
174
174
91
90
81
97
87
80
160
159
158
206
206
211
212
210
215
205
204
208
199
198
202
200
200
204
208
206
209
213
207
209
213
207
209
213
207
209
205
199
201
202
197
199
217
211
213
228
222
223
230
224
224
228
222
223
228
222
221
228
223
221
230
225
222
227
224
224
223
222
224
216
218
216
134
135
123
102
87
73
166
161
155
206
205
207
198
199
200
195
197
198
197
198
199
203
202
204
211
207
209
216
210
212
218
212
214
216
210
212
210
204
206
207
201
203
211
205
205
216
210
209
221
216
214
219
214
213
222
216
216
226
220
221
227
221
221
228
220
221
223
218
221
229
226
228
174
170
164
99
83
65
165
156
149
186
183
184
184
187
185
190
196
194
198
201
200
207
204
204
210
204
206
211
205
207
213
207
209
213
207
209
214
208
210
211
205
207
211
206
205
209
205
200
195
190
186
211
206
203
220
214
214
222
216
220
224
218
220
226
217
217
222
215
218
226
221
227
222
215
217
105
92
78
125
117
111
132
128
126
165
170
165
157
167
161
181
187
181
205
201
199
208
200
202
205
198
201
200
194
196
209
203
205
214
208
210
213
207
209
215
209
207
194
189
181
179
174
169
217
211
209
223
216
219
219
212
219
220
213
218
220
217
213
219
217
218
224
223
230
231
229
235
84
75
56
83
69
56
109
108
95
127
142
128
126
140
131
180
182
178
190
188
185
197
195
191
189
187
184
202
196
199
212
204
210
206
198
202
209
204
202
192
191
183
177
177
165
216
216
205
222
220
214
218
215
214
218
212
216
219
214
218
221
219
218
222
222
223
225
225
231
229
229
234
68
64
34
83
71
43
95
102
73
93
118
96
143
159
149
178
174
174
181
179
176
177
180
172
182
183
177
205
200
204
202
194
203
198
193
195
189
192
180
157
164
145
186
193
175
200
204
190
191
193
183
202
202
197
212
209
207
219
215
216
220
218
220
221
219
222
226
224
227
231
229
232
95
98
60
103
111
69
77
99
59
115
137
113
161
173
166
163
163
163
154
152
149
166
164
161
193
189
191
194
191
194
185
186
185
177
185
173
144
160
134
140
156
129
153
161
144
149
153
141
187
188
181
216
216
212
220
217
217
218
214
216
218
216
219
223
221
224
230
228
231
233
231
234
101
120
71
80
110
52
70
100
49
136
150
127
162
171
168
135
146
145
133
142
134
173
176
169
166
169
166
150
159
151
149
164
149
125
144
121
85
108
76
93
111
83
109
117
102
116
119
110
164
165
160
209
208
207
219
215
218
221
217
222
226
223
227
229
227
230
227
225
228
230
228
231
74
109
50
49
94
24
88
118
62
144
148
128
155
162
160
111
134
130
111
134
120
98
113
98
94
108
93
90
111
90
59
84
59
57
83
55
63
84
56
91
104
83
106
113
101
105
108
100
160
161
157
199
198
199
213
209
214
218
213
219
226
224
227
230
228
231
224
222
225
222
220
223
48
95
30
41
92
21
77
114
58
112
130
101
125
143
128
99
128
110
51
83
56
23
51
26
31
60
37
19
49
20
26
58
22
57
86
51
92
111
85
110
121
104
122
128
116
146
148
141
154
152
151
169
165
168
179
175
177
179
176
177
197
196
197
216
215
218
220
217
223
216
212
218
35
87
23
38
90
26
38
80
30
76
111
75
93
123
97
55
85
59
22
55
23
20
54
24
18
55
25
18
57
17
44
83
37
72
105
63
87
110
81
113
130
108
147
159
141
162
167
157
167
164
163
168
161
165
167
161
164
162
160
158
165
166
162
191
191
192
215
212
219
219
214
223
34
87
28
25
76
20
21
64
20
67
103
69
66
98
70
29
61
33
26
59
28
22
56
22
15
54
13
36
79
31
61
105
55
61
100
54
74
105
68
108
134
102
110
131
104
131
143
126
163
165
159
172
168
170
175
170
174
169
167
165
154
157
149
163
165
161
191
190
194
213
210
217
26
73
21
16
65
16
26
72
29
54
94
54
71
107
70
41
74
41
27
62
27
34
72
27
49
91
35
57
104
47
46
95
40
38
84
33
45
84
40
62
93
57
105
127
102
150
163
147
167
174
165
177
181
176
173
178
171
144
152
140
138
146
130
161
167
156
188
190
189
200
200
204
31
71
24
26
73
26
20
66
21
41
82
36
73
111
64
50
86
41
57
98
50
62
106
49
51
98
32
34
84
23
28
81
23
31
82
28
34
81
31
60
93
57
113
127
112
149
157
148
169
177
167
151
162
149
119
137
117
110
130
105
119
132
110
135
144
129
172
177
172
201
204
206
