P3 24 24 255
81
74
58
45
40
25
34
32
11
70
69
44
93
95
66
96
100
67
77
84
50
54
63
17
56
68
7
67
81
11
76
95
17
81
100
23
84
101
27
72
86
16
79
85
27
100
103
45
117
124
65
164
158
117
115
103
90
105
86
74
172
136
103
195
149
108
215
176
140
208
177
142
76
74
40
56
55
25
40
39
12
62
61
36
90
87
61
84
79
54
61
63
30
55
65
15
75
92
26
87
107
34
88
111
33
83
105
25
90
111
29
87
106
22
85
99
22
84
93
29
96
105
47
96
95
67
83
68
67
116
85
64
170
135
100
173
132
92
206
167
128
225
189
149
71
75
23
61
64
17
46
48
10
53
53
18
61
58
24
54
47
21
41
40
11
46
54
11
50
65
15
62
80
27
63
81
27
69
87
29
83
99
35
67
83
21
63
79
14
80
93
27
89
91
60
75
67
64
77
55
55
126
83
53
159
122
85
153
116
78
180
142
102
211
170
125
70
79
15
68
75
13
59
62
10
67
70
18
70
74
21
68
70
31
60
63
23
54
60
12
41
47
5
27
34
1
20
30
1
32
41
9
48
56
17
44
52
11
54
67
17
83
89
55
90
81
80
96
74
69
89
57
45
138
94
57
128
87
46
123
85
46
134
95
54
201
156
105
70
87
20
73
86
18
72
82
15
83
92
25
78
89
26
63
72
22
71
82
26
70
81
22
63
70
17
54
60
8
49
58
11
43
54
7
47
56
12
58
63
23
77
83
49
80
81
75
89
76
76
111
75
56
111
67
38
151
103
59
114
77
33
121
95
62
127
96
59
176
139
94
63
87
16
59
80
15
74
93
22
69
88
13
80
92
25
73
79
19
78
82
22
72
77
20
73
80
21
81
90
22
82
94
29
73
79
17
111
102
49
130
108
73
113
96
84
99
87
85
101
77
71
123
78
54
146
96
52
155
105
56
132
103
61
163
141
111
165
135
103
146
121
84
68
92
20
62
85
16
78
91
24
103
104
36
142
130
63
162
135
70
150
117
61
133
105
55
135
119
66
122
115
54
117
110
48
144
124
64
191
148
99
179
124
90
149
106
85
130
94
81
123
82
64
148
99
62
170
121
67
155
113
63
151
129
88
198
182
139
209
186
146
168
152
110
62
77
25
94
101
34
167
150
87
222
182
128
238
185
127
227
160
100
208
140
85
213
153
102
233
185
135
214
174
123
205
162
110
211
162
108
215
164
112
203
150
104
182
129
88
163
115
77
159
110
69
177
126
75
183
132
75
146
114
60
138
128
80
187
193
133
213
214
153
177
172
115
52
53
24
155
134
94
244
205
153
246
199
147
236
181
124
214
152
91
205
142
79
215
155
94
236
180
124
227
175
125
220
168
120
219
164
113
214
160
108
207
157
107
194
145
97
193
145
100
199
148
101
190
138
88
193
141
89
155
131
73
141
139
81
151
151
87
172
165
92
159
153
81
84
75
46
218
175
142
255
210
161
239
192
135
216
167
109
198
147
87
192
136
70
200
141
76
231
175
117
219
168
118
211
161
109
208
156
102
206
153
99
203
153
101
192
146
97
194
150
102
210
162
116
199
146
98
196
143
92
167
147
88
150
155
93
150
154
85
169
140
65
160
133
59
109
97
64
232
185
140
243
195
141
228
177
122
203
151
95
184
130
73
166
105
39
178
115
46
225
167
108
217
167
117
202
150
97
196
144
89
196
144
90
191
139
86
190
143
92
199
156
105
207
160
112
208
154
106
203
150
103
158
138
87
147
150
91
155
152
94
150
120
65
135
117
53
98
85
55
217
169
114
228
178
121
216
164
110
189
136
79
170
115
57
157
95
26
162
99
27
203
146
84
207
158
106
187
135
81
178
124
69
182
128
73
183
129
74
186
137
82
198
153
100
206
159
110
197
147
93
186
140
90
140
121
84
126
121
93
154
143
114
116
101
76
80
77
41
75
59
39
187
137
75
205
153
92
201
148
92
174
120
59
167
112
46
153
98
27
164
108
39
181
128
66
180
132
78
166
113
57
159
103
47
170
114
58
177
122
65
177
125
67
187
141
85
196
149
99
173
128
73
167
133
69
136
128
76
48
44
28
130
116
92
105
97
69
77
79
45
59
44
31
177
127
66
198
144
82
179
124
62
163
107
39
161
107
40
139
96
33
159
115
49
139
90
28
134
84
29
139
83
28
138
82
25
139
83
25
144
87
28
161
107
47
163
116
58
172
125
72
176
135
84
159
137
66
165
168
88
91
90
48
135
109
69
135
121
69
109
124
66
45
35
24
179
136
82
184
130
71
132
81
22
145
90
29
112
74
30
67
54
16
98
82
18
98
63
4
94
49
5
95
44
7
102
52
7
107
57
6
115
64
16
127
84
35
145
103
48
177
127
71
195
156
96
162
153
90
152
155
94
114
103
62
121
91
53
115
103
53
100
113
55
44
28
18
155
110
56
129
75
26
85
40
4
86
49
10
71
59
13
56
64
16
75
79
15
80
74
14
63
51
8
63
39
7
62
36
4
70
45
8
73
50
13
72
59
16
127
100
47
193
139
82
187
148
84
136
138
74
131
144
79
137
142
84
152
138
90
146
134
84
146
135
84
68
41
22
158
107
49
111
56
12
66
28
0
63
45
5
75
76
14
75
88
19
82
91
23
83
91
22
74
83
21
90
91
33
78
79
23
82
85
30
79
86
28
83
98
35
118
110
47
178
127
62
162
122
57
116
118
59
114
125
60
134
141
73
163
150
96
171
152
102
167
150
99
109
75
42
172
116
53
110
62
16
66
51
7
68
74
15
69
76
15
72
89
19
67
79
16
89
97
27
86
95
28
83
92
29
64
75
14
65
81
18
69
87
20
60
82
19
89
90
32
170
129
68
174
132
73
153
138
95
145
133
86
164
149
93
178
154
102
172
141
93
164
137
88
122
80
36
118
68
19
82
55
9
64
70
16
54
70
16
54
64
16
62
76
21
66
79
24
83
92
31
81
84
27
74
78
23
66
74
21
67
79
26
69
79
27
67
74
27
83
80
34
156
121
74
162
127
78
147
129
88
165
141
104
177
146
104
180
150
104
169
131
86
169
130
84
107
69
30
64
31
7
74
64
16
66
72
19
40
42
6
48
43
7
64
65
17
84
94
34
83
92
30
82
85
29
80
91
30
79
91
32
82
87
33
73
69
22
79
71
28
92
81
41
120
98
69
122
108
68
117
112
64
143
126
87
161
136
97
172
145
103
173
141
100
176
146
103
63
40
19
45
25
5
76
61
19
67
64
18
47
46
8
65
60
22
82
84
33
84
92
34
74
81
24
70
75
22
66
73
25
59
64
17
75
69
23
86
70
29
93
71
33
102
78
48
76
66
53
89
88
61
120
114
69
133
119
79
154
131
93
176
148
110
172
143
105
168
143
107
62
41
20
89
71
47
76
54
24
61
49
14
63
64
18
60
68
19
62
61
17
59
51
12
60
52
17
53
45
11
57
36
9
57
38
11
60
43
14
71
48
22
84
51
25
93
61
28
67
56
34
74
68
41
125
107
65
133
109
68
147
117
79
163
129
92
163
132
94
150
125
88
114
81
49
145
120
93
83
64
41
94
82
49
95
85
36
76
61
15
76
57
15
75
52
18
70
47
19
69
53
20
71
58
16
73
61
20
79
61
26
88
68
34
97
82
35
113
102
46
91
85
53
90
81
54
134
119
71
148
129
79
161
137
90
165
140
96
164
147
99
157
147
95
155
125
74
152
133
79
71
61
36
91
93
45
122
126
52
118
117
45
106
119
36
111
120
46
119
118
54
111
120
50
96
121
37
115
127
47
122
126
51
114
127
45
105
132
39
120
143
49
100
110
59
92
95
66
154
156
82
164
165
86
171
167
98
169
170
99
151
166
83
142
163
71
