P3 24 24 255
161
159
107
145
149
88
146
156
81
152
161
74
163
166
85
143
148
87
117
119
71
138
137
88
146
147
86
141
142
78
157
160
96
167
173
112
168
171
117
136
138
94
116
112
80
73
55
33
71
42
27
61
32
19
58
31
14
74
41
18
91
54
24
120
80
43
139
95
52
146
102
60
151
150
98
146
153
86
147
163
81
150
166
73
151
160
77
152
155
103
138
140
99
123
125
75
126
122
73
127
117
75
147
145
92
156
167
98
145
154
92
111
111
68
83
69
43
65
36
16
62
35
21
53
27
16
65
34
17
82
45
21
98
57
30
125
82
47
154
110
67
152
113
75
144
147
87
145
154
86
143
158
82
147
163
81
150
161
92
142
147
108
113
116
90
101
105
70
110
107
67
90
81
50
106
100
64
158
160
105
146
146
92
85
76
37
72
49
25
76
42
23
60
32
18
55
30
16
71
39
19
90
52
27
109
67
38
135
90
53
165
122
80
160
123
90
152
157
89
150
159
91
150
161
93
145
157
84
148
157
87
104
108
64
68
70
39
103
105
71
102
101
68
82
76
56
48
41
26
112
105
74
128
116
76
77
54
22
77
45
23
74
40
22
57
29
14
59
32
15
77
43
20
100
60
32
119
76
42
151
107
67
174
132
92
155
121
88
148
151
81
153
155
89
159
162
100
165
166
97
159
157
82
133
128
69
122
117
65
137
131
81
99
93
65
74
69
56
24
18
9
51
41
27
85
66
40
80
49
23
86
49
26
67
36
18
56
30
12
63
35
14
83
48
21
107
65
33
133
89
51
170
126
84
169
129
88
150
121
79
177
173
107
171
165
102
152
145
85
168
156
94
190
172
107
190
171
112
191
172
112
202
184
126
115
101
72
55
49
36
21
19
11
26
20
10
57
37
19
85
51
26
90
53
29
63
38
18
57
35
15
74
44
21
93
57
28
119
76
41
149
104
65
178
134
91
172
134
88
155
132
77
193
184
114
205
193
124
179
164
100
192
171
113
219
197
140
214
197
137
213
195
133
227
207
151
118
104
76
27
20
10
35
34
25
26
25
17
49
32
21
80
48
26
87
52
25
67
43
17
64
39
16
80
48
24
99
64
35
134
92
56
156
111
69
170
127
82
182
146
98
163
140
83
181
173
105
204
192
125
206
189
129
197
178
127
191
178
124
186
181
120
196
188
129
197
180
132
99
86
61
35
24
17
51
45
32
26
22
14
49
31
20
79
49
26
88
54
23
82
52
21
81
50
23
91
56
30
112
75
44
141
99
61
148
105
63
156
118
75
177
147
101
175
155
105
165
159
112
177
169
121
167
155
115
143
135
98
130
129
87
141
140
92
178
169
126
166
150
115
68
58
38
30
21
15
39
32
17
35
27
14
72
50
32
84
52
25
94
59
27
98
65
31
108
76
44
111
76
42
118
76
39
131
84
45
143
102
66
159
132
99
197
176
141
202
190
152
191
185
158
197
192
163
166
159
137
116
116
95
118
124
94
158
158
126
218
208
181
184
173
153
22
22
17
0
0
2
15
14
7
57
51
37
133
107
80
99
66
31
104
69
34
122
84
48
133
99
61
115
79
38
111
67
25
128
82
45
148
115
87
181
165
142
213
201
177
206
201
174
206
198
180
206
200
181
178
173
159
136
135
124
145
146
129
192
185
166
212
203
186
137
133
121
4
5
4
10
6
10
27
18
6
67
51
28
145
114
77
125
91
51
115
79
43
140
97
59
129
91
52
119
80
40
123
80
39
138
103
70
163
143
121
176
166
149
173
165
147
170
165
146
179
166
154
175
166
151
170
164
154
166
162
154
167
161
150
173
161
148
169
161
148
70
68
59
28
16
9
44
21
13
79
50
20
106
70
31
148
108
64
151
115
73
137
101
63
138
95
54
133
91
53
135
94
55
145
107
66
156
135
105
162
154
136
161
154
139
161
154
139
158
154
138
159
150
141
158
151
141
159
153
144
157
153
143
156
151
139
163
151
143
147
141
130
30
31
21
50
30
18
79
42
20
103
65
26
136
90
47
153
104
62
161
123
79
153
121
76
136
99
56
143
99
64
156
118
81
163
141
102
157
146
127
152
147
139
150
147
135
149
147
134
147
146
133
142
138
128
141
137
127
153
149
139
149
146
139
147
142
142
154
143
146
133
126
127
22
21
18
39
18
6
84
44
17
129
89
47
152
103
59
146
96
54
157
117
73
176
140
97
154
115
76
165
125
92
166
137
109
154
142
120
146
142
132
145
140
139
148
140
141
148
140
141
146
138
139
139
137
141
140
138
142
144
142
146
142
141
145
142
141
140
147
144
139
130
125
123
23
19
21
26
7
0
86
47
20
152
111
67
169
119
71
153
106
58
148
106
64
183
141
105
183
138
104
182
154
112
162
153
118
146
147
129
143
151
131
144
149
127
146
146
131
147
148
133
146
146
132
139
154
117
140
155
118
139
153
116
139
153
118
140
156
116
146
162
114
111
120
90
12
12
6
24
12
5
93
58
35
150
111
70
159
110
63
156
111
61
142
100
56
169
126
88
195
158
114
162
155
88
136
154
87
131
154
101
129
154
96
129
157
89
125
157
85
125
156
85
126
157
86
118
156
61
119
157
62
120
158
63
120
155
69
122
157
74
129
166
77
89
112
59
4
12
1
13
9
6
61
34
20
130
96
62
151
105
60
153
109
57
142
99
54
163
125
79
185
163
98
137
152
67
118
157
65
115
160
66
118
159
69
119
159
67
114
158
58
118
162
62
119
163
63
116
160
65
117
161
66
119
163
68
118
161
69
119
164
65
120
167
65
99
134
63
15
26
11
6
5
5
39
20
11
94
65
36
135
95
53
146
103
55
139
94
49
156
128
72
151
155
72
121
154
62
113
163
64
111
164
55
117
165
66
120
163
70
121
162
69
121
161
68
121
163
67
117
158
67
118
160
68
118
159
68
117
160
72
119
162
67
119
165
70
115
160
69
43
56
26
1
0
0
38
24
14
69
43
19
116
81
45
140
100
58
151
101
56
157
139
74
131
163
72
115
164
64
117
166
66
112
162
60
116
165
65
118
168
67
118
162
70
116
160
71
116
169
66
118
161
68
119
162
70
118
161
68
116
159
72
116
158
66
115
161
68
113
159
65
49
61
29
0
0
0
29
19
11
56
34
14
99
69
37
137
96
54
155
108
60
152
143
74
123
160
69
117
163
65
114
159
61
110
154
57
113
158
61
118
164
64
118
157
66
112
156
67
108
163
62
118
162
72
122
167
76
118
162
71
114
158
73
112
154
64
109
155
64
110
156
65
45
57
27
0
0
0
39
30
23
58
40
22
79
53
25
133
92
48
155
117
62
141
147
71
122
160
69
128
169
75
126
167
73
119
160
66
119
161
66
121
162
66
125
161
71
118
162
72
112
165
71
109
155
66
118
164
75
121
166
78
118
162
80
118
159
71
109
155
66
104
149
61
53
63
35
11
5
4
40
29
20
64
46
28
71
45
18
131
91
43
147
125
60
130
157
74
120
166
73
123
163
71
123
165
73
117
159
67
116
158
66
121
164
68
124
163
72
119
164
73
118
162
77
107
156
67
105
153
64
106
155
66
112
158
76
115
156
69
108
153
66
109
154
67
52
61
33
25
13
8
51
35
22
64
43
24
74
46
18
129
93
39
140
132
59
114
160
69
104
158
62
109
153
61
111
158
66
111
158
66
109
156
64
111
158
63
111
155
62
112
159
67
102
136
61
106
154
65
105
152
64
102
149
63
106
153
69
110
153
68
105
152
65
100
147
65
36
47
21
29
17
9
71
51
36
80
52
30
97
64
26
138
111
50
134
146
66
104
159
64
99
150
56
106
147
57
108
151
62
109
153
63
109
152
62
107
149
65
104
151
60
99
148
56
81
102
49
