P3 24 24 255
111
130
110
114
132
118
122
141
127
117
137
119
110
131
106
111
129
108
114
130
112
135
148
129
138
153
134
114
133
116
102
124
107
106
128
112
107
127
115
100
119
110
106
126
116
100
117
110
110
119
113
161
162
152
149
148
136
102
110
100
86
103
94
87
108
96
81
103
90
85
107
93
107
127
107
104
125
107
107
128
109
104
125
106
103
124
104
102
122
103
119
131
115
156
158
144
140
144
129
124
140
119
105
128
107
100
122
106
101
119
109
100
116
110
102
119
110
101
120
113
98
111
107
153
148
136
175
163
148
131
132
124
90
107
101
78
98
90
65
85
75
65
86
72
111
132
113
111
131
115
113
134
117
114
134
117
107
127
110
104
124
108
119
130
115
153
151
139
133
132
118
112
124
104
110
128
106
121
138
119
106
122
111
97
114
109
99
115
111
98
114
110
98
107
104
149
142
132
194
182
169
148
149
142
93
108
104
83
103
92
70
90
77
65
86
68
109
129
114
111
129
118
113
131
120
118
135
124
119
137
125
100
118
105
116
126
113
154
150
141
152
147
136
126
132
116
128
140
120
134
145
126
103
118
107
97
112
109
105
119
119
112
122
121
109
112
108
158
154
145
165
159
149
112
115
111
94
107
105
98
118
106
87
108
91
95
117
95
93
111
103
92
107
102
95
111
105
101
117
111
102
118
112
109
126
116
124
132
123
166
158
152
203
193
185
154
154
141
147
155
137
132
143
125
107
121
111
96
110
107
106
112
113
126
128
127
133
136
130
139
142
133
115
120
111
100
109
106
99
113
112
101
120
110
88
109
92
90
112
90
79
94
94
84
97
96
97
111
110
98
112
111
82
96
94
99
114
107
120
127
119
139
130
126
184
171
165
142
138
128
119
125
111
106
119
105
98
115
106
100
112
107
119
116
115
151
145
142
136
141
133
107
118
107
95
110
101
101
118
115
111
129
129
108
127
122
99
119
106
101
123
104
61
74
81
69
81
91
103
116
123
106
121
117
96
112
102
92
109
100
98
107
98
132
123
116
168
154
145
160
154
144
121
126
115
101
109
98
116
118
109
129
126
118
123
118
110
133
132
125
110
120
113
102
119
110
99
120
111
97
117
112
118
135
132
117
133
128
102
122
111
105
126
114
57
72
83
58
71
87
91
106
114
114
132
120
110
129
113
93
111
101
90
102
91
125
125
111
134
127
113
136
127
117
140
137
130
122
119
112
133
117
109
126
111
102
98
98
86
91
101
92
106
119
115
111
130
123
105
126
119
104
122
116
124
138
132
116
128
122
93
110
101
102
125
114
70
85
94
72
86
95
84
101
96
105
124
105
95
112
103
90
106
101
108
126
111
111
129
110
111
116
101
124
110
102
142
125
123
149
135
134
153
135
131
132
121
114
99
106
97
79
95
88
86
100
96
98
116
111
94
114
108
103
118
114
122
133
130
120
129
126
91
106
98
88
109
96
84
101
101
108
124
124
104
122
110
100
119
99
87
103
99
104
120
114
105
129
109
91
122
100
106
122
106
152
139
132
180
155
155
173
150
151
175
156
153
127
120
115
92
105
98
79
99
94
68
83
81
93
110
107
102
119
116
106
117
116
123
129
130
116
121
122
92
104
99
81
98
86
131
150
134
131
149
138
118
135
129
112
130
118
87
103
98
102
122
109
98
125
101
95
125
105
100
117
104
132
130
121
171
152
147
166
142
139
178
161
154
125
121
112
84
97
89
85
103
99
78
93
92
87
103
102
102
116
116
113
120
122
118
119
123
119
121
124
104
113
110
92
105
98
140
162
131
122
140
124
101
116
118
95
111
106
101
119
110
106
131
110
98
126
100
102
125
108
100
116
104
107
117
105
135
128
116
175
152
143
189
174
162
136
133
120
86
97
88
82
98
95
86
101
101
86
102
101
95
109
109
116
121
124
125
124
129
133
133
136
134
139
140
107
116
116
108
132
106
100
118
109
88
101
103
92
110
95
110
135
115
111
137
114
116
143
113
106
132
106
103
126
104
95
114
97
124
125
107
169
146
132
196
170
163
146
137
125
87
96
86
73
87
88
73
90
89
90
107
104
105
119
115
119
125
126
128
128
133
137
137
142
144
145
150
128
129
134
90
112
96
101
118
112
91
105
103
108
128
108
112
138
117
104
130
110
110
134
107
114
133
105
123
134
110
125
128
111
152
144
128
166
141
132
187
156
154
157
141
131
96
102
93
83
95
98
72
84
87
84
99
96
95
110
106
106
115
116
115
118
124
122
124
128
133
133
137
140
139
144
111
130
121
106
123
115
99
116
109
110
131
115
95
119
102
98
124
107
111
130
111
132
134
113
162
146
128
186
160
145
171
145
135
156
132
129
174
147
145
163
143
131
108
107
97
97
107
109
95
100
107
91
101
102
103
117
114
96
107
110
90
96
102
102
106
108
122
125
127
135
136
139
103
118
119
99
116
107
101
122
108
104
126
116
100
123
110
106
131
114
113
126
109
140
125
109
171
136
121
185
145
130
157
124
114
143
121
115
161
141
131
169
143
127
113
105
94
97
106
108
112
116
122
105
115
114
106
118
115
101
111
112
105
111
116
127
133
133
134
138
138
131
134
135
105
117
123
102
119
108
98
122
103
92
115
110
104
125
116
111
134
115
118
125
106
134
110
94
166
126
111
166
128
114
141
109
95
132
114
97
146
133
109
183
153
130
142
128
118
104
115
115
118
126
125
125
137
130
127
138
130
127
131
129
137
138
140
144
151
149
144
151
149
136
141
140
123
134
140
107
123
112
91
116
94
81
104
94
96
115
106
108
128
107
115
118
97
135
106
91
158
117
105
144
113
99
131
106
89
127
111
88
136
121
92
178
146
122
137
120
110
81
93
90
84
99
91
104
120
109
123
136
126
130
135
131
127
130
129
114
122
120
128
134
133
136
139
139
124
136
137
114
130
121
111
135
111
105
130
106
122
142
125
125
146
122
117
119
95
134
103
90
149
107
97
135
105
91
121
103
87
126
110
91
141
118
95
160
128
111
125
112
102
78
92
83
77
99
87
76
95
85
88
105
98
84
97
95
80
91
90
88
99
98
109
116
116
123
123
125
117
131
131
107
123
119
103
127
109
109
135
112
117
139
120
114
139
113
111
119
93
122
97
82
135
96
86
125
94
80
118
98
83
125
109
92
141
120
100
148
124
107
127
124
110
105
125
112
103
125
115
83
101
93
65
78
74
66
74
73
71
80
80
68
85
81
82
97
94
101
109
108
126
141
141
114
129
130
102
124
112
108
132
113
107
129
110
104
130
103
112
126
97
125
107
90
129
97
84
117
89
75
124
104
89
136
119
103
140
123
105
149
132
115
123
127
108
92
119
100
84
112
99
86
109
99
89
106
98
92
104
98
103
115
109
76
94
86
78
95
87
99
111
104
125
135
135
115
125
128
125
141
134
124
143
126
115
133
110
104
126
97
111
124
96
120
110
90
135
113
97
133
115
97
134
118
101
139
122
107
145
131
115
152
137
122
103
106
85
80
103
81
76
101
86
75
98
83
97
117
101
113
131
114
122
136
120
116
125
111
113
119
107
128
132
121
121
125
125
131
134
138
128
139
131
125
138
120
132
144
117
122
138
108
131
141
114
114
107
85
109
95
76
124
115
94
114
103
85
114
100
85
129
116
102
146
129
115
122
119
98
111
119
98
119
120
107
118
120
105
110
115
96
126
133
112
142
146
125
158
151
135
168
159
144
165
155
140
154
151
143
161
158
153
152
152
141
149
151
131
160
163
133
143
148
116
161
161
133
132
122
99
119
107
87
145
138
118
105
96
78
129
114
99
135
121
105
156
137
120
182
167
146
173
162
140
179
163
145
185
172
152
171
161
138
168
162
137
180
171
147
190
173
151
202
184
162
204
187
165
