P3 24 24 255
151
91
63
148
84
57
147
83
56
146
83
56
138
76
50
130
69
44
121
63
38
121
66
44
104
66
51
48
28
21
30
15
11
24
12
9
26
13
9
35
20
16
40
23
19
39
21
18
122
94
80
189
150
131
197
157
136
145
104
85
126
79
62
148
102
81
165
115
81
163
111
75
155
98
67
143
79
52
142
78
51
138
76
49
131
69
44
124
65
41
113
57
33
125
78
59
143
109
94
76
50
40
34
16
11
28
13
10
25
13
11
38
24
20
76
54
48
84
60
53
147
116
102
191
150
133
199
156
143
179
135
118
181
133
109
185
134
104
166
110
70
152
104
73
160
106
73
137
73
46
134
72
44
129
68
42
121
62
37
114
56
34
105
54
34
145
108
93
178
144
128
142
108
92
68
42
33
36
18
13
32
15
13
70
46
40
154
121
107
183
148
134
185
147
133
202
162
146
209
167
156
206
168
155
205
170
152
188
144
117
170
117
81
145
106
83
161
108
74
130
70
43
124
64
38
118
60
35
109
53
31
98
45
24
87
42
27
146
112
100
187
153
136
180
146
123
143
109
87
100
69
53
78
50
37
124
93
78
193
156
138
200
163
145
193
153
138
205
162
149
213
173
159
211
176
161
208
174
160
186
150
129
155
117
93
153
122
106
165
115
80
137
83
54
115
58
34
105
50
29
94
43
25
79
34
18
87
50
38
162
129
116
196
162
145
187
153
133
171
135
111
154
115
89
154
116
91
168
131
109
186
147
128
190
152
134
185
142
125
196
149
134
205
159
146
206
166
152
206
170
156
180
147
131
167
135
118
159
131
119
180
134
98
147
97
68
104
50
28
93
41
22
80
34
19
70
34
21
119
88
76
191
159
143
202
167
147
196
160
140
182
147
124
166
128
104
162
124
99
174
136
113
182
141
123
181
143
124
167
118
101
177
115
102
168
114
104
172
134
122
197
162
149
182
150
135
182
151
136
164
137
126
187
141
103
151
105
76
94
44
24
79
31
17
66
28
17
71
42
34
138
109
97
194
162
144
202
167
146
198
163
140
190
154
130
178
140
116
165
126
102
165
126
103
171
130
110
172
133
113
161
115
96
147
78
67
135
73
64
155
118
105
179
146
133
179
148
133
185
156
141
161
135
125
192
145
106
160
118
88
87
42
26
65
25
15
57
27
19
75
50
41
146
118
104
199
167
146
203
168
146
198
162
138
191
154
129
182
143
117
173
132
107
161
121
95
155
115
91
159
118
96
157
114
94
137
83
69
138
88
74
154
120
103
166
135
120
173
144
130
165
138
126
129
107
98
192
147
108
151
110
81
74
36
23
53
22
14
57
34
27
101
77
66
163
134
117
198
166
143
202
166
142
197
161
135
190
152
125
183
143
115
178
138
110
168
128
101
152
113
86
148
105
82
147
105
84
141
98
78
142
103
84
149
116
98
149
120
104
119
95
84
92
72
64
74
59
52
189
143
106
136
95
68
65
31
20
59
32
24
83
59
48
133
104
91
185
154
135
200
166
142
197
160
134
193
155
128
185
146
118
178
137
107
174
133
102
171
130
100
168
128
100
158
117
91
150
109
85
149
109
85
147
111
90
134
102
87
85
61
52
50
34
28
42
28
24
47
36
30
182
137
103
128
88
64
90
54
39
134
99
83
161
127
108
179
146
126
196
162
141
199
163
139
195
157
131
184
145
118
176
135
106
173
132
101
169
128
95
173
131
101
178
138
109
171
131
105
163
124
98
153
117
95
108
79
64
70
48
39
41
27
21
30
19
15
34
24
20
42
33
28
173
132
98
141
102
74
153
110
81
189
146
117
202
165
141
200
166
143
197
161
135
196
159
131
189
151
123
185
146
117
184
143
115
180
138
110
178
137
107
186
147
118
187
147
119
181
141
114
177
139
114
162
127
105
93
66
55
44
27
22
29
18
14
30
18
15
33
24
19
40
32
27
175
134
101
179
138
108
185
138
98
190
143
103
198
159
131
194
158
132
188
150
122
192
154
124
190
152
122
192
153
124
195
154
126
193
150
123
190
149
121
194
156
128
191
150
123
187
147
122
184
146
124
176
140
120
129
98
87
49
33
27
18
9
6
23
13
10
30
22
17
41
32
26
180
142
111
192
154
130
185
139
102
184
132
89
190
146
115
191
153
128
189
152
125
194
156
129
196
158
130
197
159
132
201
161
135
198
157
129
197
157
129
201
163
138
197
157
131
192
153
130
188
151
129
177
142
121
111
84
72
30
18
14
15
8
5
21
14
9
36
27
22
45
37
29
181
142
113
193
159
136
187
147
117
178
129
90
183
142
114
186
151
127
188
152
128
194
158
133
199
162
137
201
165
138
202
164
138
203
164
137
206
168
141
204
167
142
200
162
138
194
156
133
183
147
124
136
106
88
51
33
28
22
12
9
19
9
7
30
19
15
48
36
30
89
75
65
176
138
111
190
158
136
187
152
127
175
134
105
178
142
118
174
140
119
174
140
119
185
150
128
195
159
134
199
161
135
202
163
135
206
166
138
206
166
140
202
163
139
195
156
133
190
152
129
153
120
100
65
44
35
19
9
7
19
11
8
24
13
10
44
29
23
98
78
64
175
148
131
168
131
104
188
155
135
183
151
129
159
125
105
158
126
107
159
126
108
156
124
106
162
131
112
178
144
122
192
153
127
198
155
124
200
155
121
199
155
124
195
153
126
188
148
122
164
127
105
94
68
55
34
20
15
17
9
8
20
13
10
41
27
20
101
77
60
173
140
115
207
169
141
163
126
101
192
158
139
177
146
126
155
124
105
167
136
117
173
142
123
166
137
119
164
136
119
176
144
125
191
154
131
196
153
121
195
144
105
191
141
102
186
139
103
179
136
104
137
100
79
74
52
41
38
26
22
19
10
8
48
33
26
112
88
72
166
131
104
190
147
114
193
149
115
160
125
103
194
161
142
183
152
132
183
152
132
199
167
147
202
171
150
199
169
150
200
169
151
202
170
151
205
171
150
204
163
136
197
147
111
192
138
97
186
135
92
168
122
86
146
107
81
110
86
72
50
35
29
62
44
36
124
97
80
170
137
112
182
140
108
177
133
97
183
140
105
157
124
103
194
162
142
191
158
139
203
170
151
211
178
159
214
182
163
215
184
164
217
183
165
216
183
164
214
182
162
214
178
156
208
166
139
200
150
116
196
146
106
186
140
105
173
131
104
139
107
89
94
68
56
139
111
95
175
143
121
179
144
118
171
128
95
162
117
84
178
138
111
156
123
102
195
162
143
195
162
144
203
170
152
211
178
160
217
184
165
218
185
166
218
185
166
219
185
166
218
185
166
218
185
166
217
182
161
211
172
147
207
164
135
202
161
133
192
154
129
157
123
101
148
118
99
177
145
127
182
149
129
179
146
123
163
123
94
147
105
75
168
134
112
150
117
97
194
161
141
199
166
148
202
169
151
211
178
160
216
183
165
217
184
166
219
186
167
220
187
168
220
187
168
219
186
167
218
183
165
217
182
163
215
179
159
210
173
153
196
162
142
178
146
127
181
150
131
188
156
137
182
150
131
163
130
112
143
107
84
130
92
66
159
125
103
145
114
95
190
158
138
198
165
147
202
169
152
211
178
161
215
182
165
216
183
166
218
185
168
221
188
170
222
189
170
221
188
169
219
186
166
218
185
165
215
183
163
211
178
159
204
171
152
196
164
145
187
156
138
176
145
126
147
116
101
104
76
65
80
55
42
96
68
51
157
125
104
142
110
94
188
155
136
194
161
143
201
167
151
210
177
160
213
180
163
214
181
164
217
184
167
219
186
169
222
189
170
222
188
170
220
187
168
218
185
166
214
181
161
209
175
156
202
168
149
190
156
139
159
128
113
116
88
75
72
48
40
44
25
20
30
17
11
61
44
33
163
135
117
