P3 24 24 255
207
175
167
213
184
175
219
192
182
224
199
189
228
205
196
233
209
201
236
212
204
235
211
204
233
210
203
230
210
204
232
212
206
238
217
211
239
218
212
239
219
211
238
217
209
237
217
208
237
217
208
235
215
206
232
213
204
230
210
199
228
205
192
226
201
187
224
197
185
221
193
179
220
190
182
224
196
187
227
201
192
229
205
195
231
208
199
235
212
204
236
214
206
239
216
208
238
216
209
236
217
210
234
214
209
236
216
212
238
219
214
239
220
212
240
222
211
238
219
209
235
217
207
235
217
207
233
215
208
231
212
203
232
211
199
232
209
195
231
205
192
226
198
185
223
196
186
225
200
189
228
204
193
232
208
197
233
213
203
234
215
205
235
216
206
237
218
208
238
220
209
237
222
210
237
222
220
236
223
225
234
222
221
234
221
213
233
219
208
235
222
211
237
224
213
233
219
211
232
215
214
233
214
209
233
211
202
233
209
196
231
201
188
230
198
184
223
199
189
227
203
193
232
208
198
234
211
201
235
215
206
235
216
208
237
219
210
239
221
212
238
222
212
236
224
217
220
209
213
196
187
196
176
168
175
174
165
169
164
154
159
188
178
183
197
187
191
183
173
178
181
169
176
205
191
194
216
199
197
217
198
191
225
199
189
223
194
182
213
191
184
222
200
193
227
205
197
231
209
202
233
213
207
235
216
210
237
218
213
238
219
213
237
220
216
210
199
202
162
152
163
136
128
143
127
122
136
125
120
138
123
117
139
131
125
146
130
124
146
123
117
137
119
114
128
138
131
142
150
142
149
154
145
147
189
173
172
205
183
179
202
181
177
214
193
188
220
199
194
225
204
200
228
208
205
227
208
206
231
211
209
233
213
211
214
197
199
162
150
162
138
128
142
134
127
143
129
124
142
126
123
143
124
121
144
122
119
142
122
119
142
118
116
138
115
112
131
114
111
128
110
109
122
110
108
119
131
124
130
171
157
160
195
174
173
200
180
179
203
183
181
205
185
184
206
186
186
203
184
185
206
186
187
208
188
189
195
176
182
176
161
175
164
152
163
157
148
160
152
144
159
143
138
151
138
134
145
133
129
140
131
127
138
130
126
139
125
121
139
122
119
136
117
116
132
114
114
127
114
111
121
130
122
129
186
167
168
191
171
173
193
174
175
193
173
175
194
174
177
196
176
180
195
175
179
195
174
177
195
174
182
195
176
187
183
166
170
179
166
168
183
171
179
183
170
176
181
168
171
178
165
168
172
159
162
171
158
163
165
152
165
160
150
164
156
149
162
150
146
159
150
146
155
141
135
142
186
168
171
186
168
171
189
171
174
191
173
177
194
174
180
200
179
185
201
180
187
200
180
186
198
177
184
194
171
178
189
169
167
188
172
167
189
174
176
192
174
180
182
162
167
173
153
157
177
158
163
177
158
166
157
140
150
147
132
143
149
138
148
148
140
151
141
135
145
134
129
138
152
141
142
170
158
161
174
162
167
173
160
167
173
159
167
180
166
174
179
166
175
177
165
175
182
168
176
192
175
175
187
172
172
183
170
174
172
161
170
172
165
179
149
140
147
139
126
129
140
132
148
135
133
158
122
121
140
117
116
132
116
115
131
114
113
129
109
111
127
106
109
126
91
89
90
127
125
128
145
143
149
141
138
147
134
133
148
141
140
157
140
139
154
132
130
145
140
136
147
166
159
161
165
160
167
157
153
167
128
125
143
132
131
151
142
135
144
168
160
162
128
128
145
105
115
145
106
116
139
107
116
137
107
115
136
104
112
132
103
110
129
101
108
127
65
73
75
76
84
88
93
100
107
94
102
112
97
107
127
106
116
139
119
124
142
136
137
154
147
145
156
162
159
165
180
178
188
158
158
172
114
116
133
117
114
133
132
121
131
158
147
150
126
127
141
99
112
135
102
114
135
100
112
133
98
111
133
95
109
131
96
106
123
96
104
118
59
73
75
59
73
77
64
78
85
69
82
91
74
84
101
88
93
111
131
130
142
165
158
166
177
166
171
186
175
177
204
196
199
192
187
192
158
154
161
134
126
138
166
151
158
213
197
198
142
140
147
86
97
111
93
104
118
91
103
119
90
104
122
88
103
122
85
96
109
81
89
98
56
69
70
61
74
77
65
77
84
67
78
86
80
80
88
102
94
100
163
151
152
189
171
168
195
174
170
210
191
186
214
197
192
204
189
184
206
194
190
192
180
182
194
175
176
226
203
200
164
154
153
95
95
98
96
97
101
92
96
102
87
95
104
76
87
99
66
76
83
61
70
73
61
68
68
67
74
75
70
76
81
82
87
93
131
123
125
163
149
147
190
174
171
201
182
178
207
187
183
232
214
210
232
216
212
198
185
178
195
185
177
189
178
170
162
140
132
164
133
124
167
143
134
158
143
135
164
153
143
139
132
126
121
119
118
84
86
88
54
62
62
53
64
62
97
98
97
94
94
95
95
95
97
134
133
136
182
172
171
206
193
190
190
178
177
207
195
195
220
209
210
235
224
227
234
225
226
227
222
220
227
225
221
216
210
199
154
131
118
150
113
99
158
123
109
169
143
126
190
170
151
153
136
122
136
124
114
121
115
107
80
85
78
52
63
58
65
64
73
87
85
90
104
101
101
128
123
119
158
146
143
179
165
163
193
180
177
214
201
199
230
219
218
239
231
231
231
223
223
235
228
227
231
225
223
231
223
217
205
190
180
169
146
133
161
134
117
166
140
123
170
148
135
156
136
123
146
127
113
166
149
135
139
132
122
75
80
72
34
36
48
27
27
36
37
35
39
52
49
49
81
72
73
105
93
95
128
117
118
151
139
141
186
177
178
223
217
218
230
225
225
230
225
225
219
214
215
225
220
219
229
222
219
207
194
187
204
186
174
208
188
176
198
178
172
178
159
151
168
148
137
178
159
146
166
150
141
130
124
119
44
52
61
21
26
36
23
26
36
29
29
40
38
34
45
42
35
47
40
34
45
55
48
60
79
75
85
117
116
124
142
141
148
165
164
171
189
189
196
207
207
213
213
212
215
212
205
206
216
207
205
227
214
211
222
206
205
212
197
194
210
195
190
195
180
172
192
173
171
175
162
162
54
67
73
24
33
44
22
28
44
25
28
47
26
26
45
28
26
44
29
27
45
30
28
46
28
27
44
29
31
45
40
42
56
57
59
73
77
79
93
96
99
112
111
113
124
124
124
134
140
138
145
154
149
155
164
154
160
167
158
161
168
159
160
174
165
163
184
171
172
176
169
171
64
77
83
33
42
52
22
28
45
24
27
48
26
27
46
27
28
46
27
28
46
27
28
46
28
29
47
27
28
47
28
30
48
29
31
49
29
31
49
30
33
51
35
38
55
41
44
60
47
49
64
53
53
67
57
54
67
61
58
68
64
61
68
69
67
72
78
72
77
74
75
78
69
79
86
45
53
62
24
29
42
25
27
43
27
27
42
28
28
42
28
28
42
29
29
43
29
29
45
28
27
48
29
28
49
30
29
50
32
31
52
34
35
55
31
34
53
29
32
51
28
31
51
27
31
50
26
28
47
26
27
44
29
31
44
40
42
54
35
29
39
42
40
47
90
96
104
71
75
84
32
33
43
32
31
42
33
32
41
32
31
39
31
29
37
31
30
38
33
31
42
34
29
48
36
31
50
36
32
51
36
32
50
37
34
52
35
34
53
35
35
54
36
37
57
35
38
58
37
39
60
34
37
56
40
44
60
67
70
84
72
60
75
104
91
104
124
122
131
115
111
121
89
81
92
91
82
93
92
85
94
93
86
94
92
85
93
94
87
95
97
90
99
100
91
103
101
93
105
104
95
107
109
100
112
113
101
114
111
99
113
106
96
109
106
98
111
109
104
117
110
105
120
106
102
116
107
103
115
114
110
121
119
110
122
135
126
137
