P3 24 24 255
195
232
241
195
234
243
198
233
243
198
234
244
195
232
241
193
226
236
199
236
245
203
233
245
205
234
245
205
234
246
200
232
242
203
232
244
203
236
246
199
237
246
202
235
246
203
237
247
206
236
247
210
235
248
209
235
248
209
235
248
208
236
248
205
235
246
205
235
246
202
236
246
197
234
242
197
234
243
197
234
243
199
236
245
194
231
239
188
212
223
207
236
247
207
234
246
209
234
246
194
229
239
180
213
226
191
225
237
195
234
243
197
235
243
203
236
247
210
236
248
213
235
249
209
234
248
207
235
247
212
235
249
215
235
250
212
235
249
210
234
247
205
235
246
195
234
242
195
233
242
196
233
242
197
233
243
195
232
240
185
209
219
199
228
239
205
235
246
203
234
245
188
225
235
177
211
225
183
220
232
191
228
237
200
232
242
210
238
250
212
234
248
211
234
248
206
235
247
206
235
247
210
235
248
211
235
249
209
235
248
204
234
245
200
234
244
203
234
245
200
234
245
198
235
244
197
232
243
195
230
239
172
198
208
179
212
223
200
234
244
194
230
239
189
222
231
169
196
205
183
213
221
200
228
239
204
229
242
215
234
249
214
233
248
209
235
248
203
235
246
205
234
246
207
235
247
204
236
247
203
236
247
198
236
244
196
235
243
208
235
247
204
235
246
202
236
245
198
234
244
194
234
244
183
212
223
182
213
224
190
227
240
193
230
240
185
206
218
169
180
190
186
204
214
202
227
240
198
226
238
209
233
246
210
233
247
205
234
246
201
234
245
202
234
245
202
234
245
200
234
244
199
234
244
197
235
244
196
235
244
199
232
242
197
232
240
198
233
240
194
232
240
193
232
241
160
175
185
141
160
172
184
224
239
193
231
248
185
211
222
141
143
151
153
159
172
194
226
237
197
229
239
201
233
244
197
235
243
198
234
244
199
234
244
198
233
243
199
234
243
197
233
243
195
233
242
194
234
242
192
235
242
191
231
240
190
229
241
191
230
244
193
231
244
192
231
244
156
176
186
126
148
157
180
223
239
189
225
240
134
149
156
79
84
84
124
136
146
173
196
209
185
212
222
196
229
240
193
231
240
194
231
240
194
233
242
195
234
244
196
234
244
193
234
242
191
233
241
189
234
241
188
234
241
187
231
246
185
231
246
187
232
247
188
233
248
190
232
252
183
217
233
163
185
195
175
212
223
184
217
228
60
65
70
65
70
71
147
165
169
149
162
170
116
122
128
159
183
196
196
237
248
191
233
240
189
232
241
187
220
231
190
226
234
191
234
243
188
233
243
187
234
243
188
233
243
184
229
246
183
230
246
185
231
248
187
232
248
191
232
253
182
214
231
156
168
181
175
204
213
196
230
240
119
128
132
84
87
88
138
143
146
128
133
140
91
91
93
143
164
178
193
230
242
171
202
210
165
182
194
151
160
165
164
188
190
191
234
243
189
232
243
191
232
244
191
232
244
183
228
245
182
228
247
184
229
250
186
231
249
190
231
252
182
214
231
176
192
208
172
194
203
173
191
205
139
141
149
77
69
73
77
75
78
54
55
62
71
77
84
134
148
162
145
145
158
129
133
145
157
158
172
159
169
174
143
149
155
190
230
238
190
233
244
193
230
244
192
231
244
183
228
249
183
228
249
183
228
249
185
229
250
184
230
249
181
214
231
176
196
210
129
138
139
85
81
88
66
60
68
43
41
45
43
47
51
55
59
65
94
98
106
139
142
150
145
147
159
155
175
185
177
198
210
172
188
200
126
116
116
157
170
177
186
227
238
187
233
245
186
232
243
183
228
249
183
228
249
183
228
250
182
227
247
182
229
244
185
218
231
147
162
172
123
129
135
70
69
70
72
73
75
72
76
79
78
76
82
89
90
97
106
109
110
143
144
146
169
186
197
160
181
195
132
142
148
97
100
97
96
82
74
126
124
129
178
212
225
184
234
246
183
231
244
183
227
247
184
228
248
183
227
247
183
220
240
177
209
225
160
179
194
99
107
114
88
94
107
67
70
82
62
68
79
50
57
71
45
51
59
69
74
75
99
105
107
118
121
117
138
140
137
112
100
95
109
94
80
94
87
73
107
111
110
121
135
146
175
211
224
184
230
245
181
228
245
183
225
243
186
227
246
169
194
211
125
132
148
91
100
112
54
58
73
30
35
49
15
21
36
11
12
27
6
12
26
11
21
38
21
31
42
50
60
65
88
101
111
94
99
101
123
123
122
140
131
123
124
116
113
121
124
129
106
124
134
126
149
163
181
220
235
183
229
244
182
227
245
182
224
241
182
208
230
99
93
106
23
18
22
3
3
6
1
1
13
10
21
38
13
25
41
18
21
38
22
31
45
32
41
58
40
50
63
60
71
82
81
97
113
85
100
116
106
123
134
114
130
139
94
108
122
92
106
121
110
124
138
150
165
177
184
222
236
184
230
248
183
228
246
175
221
242
172
206
224
69
69
76
1
0
1
3
4
6
6
13
26
19
34
52
32
48
65
35
48
65
40
56
71
48
65
80
57
74
85
81
96
104
104
119
131
92
109
127
83
105
119
86
109
125
95
111
126
112
130
139
139
151
157
151
163
172
141
182
201
135
185
208
133
181
202
124
168
192
124
167
190
94
115
131
24
22
27
14
18
22
18
29
43
28
41
57
46
59
75
50
62
80
55
68
85
63
78
96
73
89
102
99
112
119
128
139
151
124
138
154
116
132
148
120
136
150
125
137
143
135
144
148
133
142
145
126
138
150
103
132
148
97
132
148
100
131
150
116
135
152
114
132
151
115
131
148
71
76
82
28
34
38
34
45
59
39
48
66
53
63
80
62
73
90
62
74
91
62
78
96
67
85
98
84
99
109
112
126
141
125
138
153
125
133
144
109
114
119
119
124
123
116
122
128
106
118
128
108
124
136
120
135
149
120
138
152
121
137
156
135
150
164
134
149
162
134
151
164
113
121
130
49
53
57
35
44
57
36
43
61
47
54
72
54
65
83
55
67
85
58
77
92
72
92
103
93
111
121
121
135
151
132
144
153
115
122
120
83
82
80
103
116
128
100
121
145
96
113
133
115
131
145
129
141
156
130
144
159
130
145
160
139
155
168
141
156
169
140
154
168
135
143
154
66
67
74
26
33
46
35
46
61
48
58
73
58
70
86
59
72
88
64
81
96
71
90
103
86
103
116
112
124
138
113
126
141
86
109
124
70
85
96
65
90
113
55
73
98
88
99
118
130
145
158
130
146
156
130
146
157
130
145
158
144
155
169
143
155
169
143
155
169
139
150
164
81
83
95
33
36
49
31
40
52
32
40
51
40
50
57
34
45
52
29
38
51
20
28
42
20
26
38
20
26
31
28
34
45
23
38
54
22
30
46
16
18
31
24
22
35
99
107
124
129
147
159
128
147
158
127
145
157
124
142
156
145
156
171
144
156
171
141
153
168
132
142
156
93
95
102
53
50
55
46
46
50
41
42
45
44
47
50
43
46
49
51
50
52
54
52
54
61
57
61
66
65
70
73
76
84
83
86
92
91
93
103
97
101
111
101
108
119
116
128
144
122
137
153
130
145
163
132
148
166
124
144
161
142
158
173
143
159
174
142
155
171
136
145
160
128
132
144
128
129
139
125
128
141
121
130
141
124
135
144
122
134
142
125
139
144
125
139
147
132
142
156
142
151
167
135
151
166
136
151
166
141
157
174
139
157
175
135
156
173
131
153
170
130
151
169
131
152
169
132
152
170
130
150
170
145
161
176
143
161
175
145
161
176
146
159
175
146
161
178
147
165
181
142
162
176
143
161
176
142
162
178
140
160
176
138
156
170
137
153
172
135
154
174
136
155
175
137
156
174
134
155
171
134
157
176
136
158
179
136
160
180
131
157
177
132
158
176
130
156
173
129
153
172
132
155
179
