P3 24 24 255
105
127
178
105
126
179
105
126
180
106
127
181
107
129
180
108
130
179
110
132
180
112
134
181
112
134
183
112
134
183
112
134
183
113
135
183
114
136
184
113
135
183
114
136
184
115
136
186
114
136
186
112
134
184
111
133
183
110
132
182
109
131
181
107
129
179
106
128
178
105
127
177
104
125
178
106
126
180
108
126
182
109
127
182
110
128
182
111
130
181
113
132
182
115
134
183
117
137
182
117
137
181
116
136
182
118
137
186
119
138
188
119
138
188
119
138
188
119
139
187
119
138
187
118
137
186
116
135
184
115
134
183
114
134
182
112
133
181
110
133
180
109
131
179
101
124
170
104
124
173
107
124
175
108
125
175
109
127
175
111
129
175
112
131
176
113
132
175
116
136
171
118
138
171
118
137
174
119
138
179
120
138
182
121
139
186
121
138
186
120
137
184
120
137
184
120
137
184
120
137
184
119
136
183
117
135
181
114
135
180
112
135
179
111
134
178
99
121
159
100
122
160
103
123
160
107
125
160
112
126
159
114
125
157
120
129
160
138
145
174
149
159
179
140
151
169
132
142
165
135
145
173
140
150
181
135
145
177
127
138
173
122
134
172
119
133
170
118
133
171
118
136
176
117
135
179
115
134
179
112
133
176
110
132
173
110
131
172
97
117
147
97
118
147
103
124
148
113
127
147
129
133
148
161
157
168
187
178
188
207
196
205
212
205
207
196
189
192
179
173
182
177
172
186
170
166
181
162
159
172
151
151
165
144
148
165
136
143
159
126
137
154
118
132
155
114
130
160
113
130
167
111
130
168
110
130
166
109
130
163
94
114
135
97
116
137
109
121
141
131
133
144
182
173
173
221
205
198
227
208
200
228
212
203
219
205
195
192
179
172
168
156
155
148
139
143
118
112
115
107
103
105
106
104
105
117
118
119
136
138
137
140
144
143
132
139
142
121
127
137
113
122
138
111
125
150
108
125
152
106
124
151
91
110
121
96
114
126
109
120
130
157
155
153
221
204
191
229
204
186
221
197
181
212
194
181
176
161
145
124
111
98
101
90
83
102
97
93
73
72
68
61
64
58
48
52
45
44
47
42
51
54
46
72
75
66
96
99
93
108
110
109
108
110
115
109
114
124
110
116
129
109
117
131
86
102
105
93
109
112
113
124
123
186
182
171
223
203
184
215
188
169
218
194
181
211
194
185
164
151
137
118
107
94
90
82
74
55
53
47
28
32
26
23
32
24
31
39
33
36
40
38
30
34
30
29
33
27
35
37
33
42
43
43
51
50
54
60
54
55
84
77
77
106
103
103
88
98
89
101
106
98
141
137
128
217
202
190
217
191
176
188
158
141
191
165
146
199
179
161
193
177
161
185
171
158
166
155
144
128
120
112
83
78
72
52
50
46
46
44
40
44
41
38
44
42
39
46
44
40
47
44
41
44
41
38
42
38
35
44
33
30
51
38
34
57
47
42
88
96
79
107
110
96
170
162
151
232
214
200
209
184
162
186
159
132
193
172
139
187
172
139
187
173
152
185
173
157
151
141
128
112
105
94
80
76
67
64
63
56
63
63
54
62
62
51
60
60
48
56
57
45
60
60
49
64
65
53
67
67
56
70
68
62
73
72
67
78
79
73
93
99
80
124
123
107
196
185
169
231
212
192
200
175
150
199
174
144
191
173
140
170
158
126
148
138
114
133
124
105
114
108
91
91
87
73
76
76
63
73
75
65
69
71
59
68
71
56
68
72
56
72
76
60
79
83
67
82
86
70
83
87
71
80
87
74
78
87
75
76
86
74
96
99
85
132
128
111
197
183
162
218
197
173
209
183
159
213
188
164
185
168
146
151
141
121
123
116
94
102
96
75
91
87
67
83
82
64
74
76
61
70
74
61
68
73
60
74
80
66
80
87
73
83
89
75
83
89
75
80
86
72
78
84
70
74
84
66
72
83
64
72
82
63
101
102
88
145
136
121
205
186
165
204
182
159
190
167
143
186
166
143
163
149
130
133
125
108
108
102
85
90
85
68
80
77
60
74
73
58
74
76
61
79
82
68
82
88
73
82
92
76
81
91
75
80
89
73
79
88
72
77
87
71
76
86
70
76
84
67
75
82
65
74
81
64
103
103
89
166
156
142
223
204
186
200
178
158
164
143
122
160
143
122
145
133
116
113
107
92
95
90
78
80
77
64
70
69
56
69
70
55
83
86
70
89
93
76
86
93
75
81
93
74
78
90
71
77
88
69
76
88
69
75
87
68
74
86
67
76
84
66
75
82
65
74
81
64
111
111
98
190
181
169
236
218
205
204
185
170
173
154
137
158
143
127
137
127
114
108
104
94
84
82
73
70
70
59
70
72
59
82
85
69
88
94
74
86
93
71
83
93
70
80
92
70
78
90
68
78
90
68
77
88
67
75
87
65
75
86
65
76
84
63
75
83
62
74
82
61
120
120
107
206
197
187
234
217
208
214
196
185
178
160
147
148
134
122
128
120
111
101
98
92
78
78
71
71
72
64
81
85
72
87
92
75
83
92
69
81
92
66
80
92
66
79
91
66
77
89
65
77
89
65
77
89
64
76
88
64
75
87
63
76
85
61
75
83
60
74
82
59
139
138
129
220
212
206
231
217
211
211
195
187
175
160
148
153
142
130
130
125
115
92
92
85
69
71
67
72
78
70
81
91
76
80
93
70
79
92
66
80
91
65
81
90
66
80
90
66
79
88
64
79
89
65
79
88
64
78
87
63
77
86
62
76
84
61
75
83
60
75
83
59
161
159
153
230
221
220
230
217
212
213
199
191
179
166
154
147
138
124
113
109
98
82
83
75
67
70
67
72
80
72
77
90
72
76
92
66
77
92
64
81
90
65
83
89
66
81
89
66
79
87
64
79
87
64
78
86
63
78
85
62
76
84
61
75
83
60
75
83
60
75
83
60
169
167
161
227
218
216
227
214
209
213
198
190
166
152
140
128
118
105
102
98
87
75
77
69
64
67
64
70
78
70
76
89
71
75
91
65
76
90
62
79
88
63
81
88
64
79
87
64
78
86
63
78
86
63
77
85
62
76
84
61
75
83
60
74
82
59
74
82
59
74
82
59
163
162
156
228
220
218
228
215
210
204
190
182
168
154
142
139
129
116
104
100
89
67
69
60
61
64
61
71
79
71
75
89
71
73
89
63
74
89
60
77
86
61
79
86
63
78
86
63
77
85
62
77
85
62
76
84
61
75
83
60
74
82
59
73
81
58
73
81
58
73
81
58
169
165
159
231
220
217
222
207
202
204
189
180
169
157
144
132
125
111
91
89
78
62
63
56
61
65
59
73
80
69
75
86
66
73
86
61
74
86
60
76
85
61
77
85
62
77
85
62
76
84
61
75
83
60
75
83
60
74
82
59
74
82
59
73
81
58
73
81
58
73
81
58
190
184
177
231
217
212
223
204
198
209
193
183
164
154
140
119
114
101
81
80
70
59
62
55
60
65
55
72
79
63
75
83
61
75
83
59
75
83
60
75
83
62
75
83
62
75
83
60
74
82
59
73
81
58
73
81
58
73
81
58
73
81
58
71
79
56
71
79
56
71
78
56
196
190
183
228
213
208
223
204
197
197
181
171
149
139
125
113
109
95
77
77
67
56
58
51
58
64
53
71
78
62
74
82
60
74
82
58
74
82
58
74
82
61
74
81
61
73
81
58
72
80
57
71
79
56
71
79
56
71
79
56
70
78
55
69
77
54
68
76
53
68
76
53
187
181
174
226
212
207
211
192
186
180
164
154
145
135
121
106
101
88
68
68
58
53
55
49
60
65
55
72
79
62
74
82
60
74
82
58
74
82
58
74
82
61
73
81
61
72
81
58
71
79
56
71
79
56
70
78
55
70
78
55
69
77
54
67
75
52
67
75
52
67
75
52
