P3 24 24 255
62
61
36
62
54
27
72
62
38
57
56
36
87
91
76
87
92
83
67
70
68
84
88
87
144
148
150
173
176
179
130
132
124
115
115
98
145
139
132
202
194
200
237
236
237
191
191
191
153
153
153
191
192
192
194
195
193
143
149
154
25
40
60
82
96
112
174
178
179
181
181
179
66
67
43
57
52
29
62
52
31
72
68
47
86
89
56
71
74
50
52
54
49
21
25
17
58
61
61
136
137
139
133
134
132
155
155
151
171
170
169
206
204
205
234
231
232
174
173
173
143
143
143
192
194
193
186
191
193
99
112
129
14
38
71
59
79
103
162
169
169
183
185
182
62
63
38
54
51
27
64
60
36
76
80
54
79
86
48
72
76
49
71
72
65
39
42
29
46
46
43
136
135
138
157
157
157
169
169
169
178
179
179
183
183
183
209
205
206
163
161
162
151
151
151
192
195
194
174
180
183
80
94
112
36
61
91
56
77
99
152
159
161
187
189
189
64
67
39
64
62
34
77
76
48
73
83
52
63
74
39
105
109
88
159
159
149
103
102
82
95
92
83
173
171
173
181
181
181
155
154
154
164
164
164
167
166
166
185
182
183
181
180
180
171
172
172
186
189
188
174
181
184
94
109
122
74
94
113
58
74
88
135
142
146
192
194
198
84
90
59
78
75
47
80
75
47
82
84
54
101
107
78
153
157
141
174
173
159
92
88
59
111
102
88
209
206
206
185
186
185
122
122
122
158
158
158
169
168
169
175
171
172
189
187
188
186
187
187
183
186
184
176
184
187
105
119
126
77
93
99
47
59
65
133
139
146
204
206
215
90
99
65
80
75
46
72
55
30
90
71
45
142
138
115
171
174
163
146
144
126
67
61
25
109
95
77
214
209
208
153
154
154
118
118
117
166
166
166
213
212
213
195
192
193
186
184
185
191
191
191
176
179
177
170
179
182
103
118
120
61
73
67
78
86
84
172
176
186
194
196
209
96
101
70
88
81
53
76
58
34
83
60
37
138
127
109
177
179
167
152
152
132
70
62
29
127
117
95
201
196
189
167
167
166
169
170
172
187
187
188
230
227
226
230
226
223
194
192
190
183
183
181
169
171
169
129
136
140
93
103
106
63
71
61
82
88
81
110
113
124
100
102
122
89
84
62
89
83
61
61
54
33
73
65
44
132
123
105
168
170
149
153
156
132
77
64
41
117
110
85
180
176
160
178
177
174
201
205
208
231
230
233
237
229
227
224
217
209
199
195
187
168
167
162
167
167
163
148
150
156
132
136
143
85
91
81
51
57
48
60
63
74
54
57
87
63
66
45
77
79
59
66
68
48
85
88
67
102
101
79
115
121
93
117
119
89
79
57
33
111
94
67
195
189
171
204
202
197
227
229
229
247
245
246
235
227
225
216
209
199
178
174
166
159
158
153
167
167
163
173
174
179
165
168
174
126
131
124
79
84
78
46
49
59
46
54
83
54
67
36
67
81
49
81
94
63
90
104
73
85
92
62
103
113
79
116
120
85
93
68
40
85
62
34
141
133
116
208
203
196
218
213
208
237
231
230
221
213
211
174
167
158
148
144
136
166
165
160
162
162
158
170
172
175
155
159
163
152
157
153
111
116
113
40
44
51
44
56
84
89
104
78
103
119
91
101
116
89
114
130
102
108
117
90
108
119
87
125
132
99
113
95
67
79
63
35
84
79
63
101
93
83
125
113
104
224
214
210
217
210
208
151
144
135
155
151
142
153
152
146
157
157
154
166
168
168
146
150
153
158
162
163
136
140
141
74
79
84
47
60
87
187
194
202
179
186
197
172
179
190
182
188
201
207
211
206
118
130
104
87
99
71
99
92
67
107
107
79
163
163
147
128
117
107
78
62
49
175
163
157
203
198
197
176
170
161
165
161
152
158
157
152
172
172
169
156
159
158
161
165
166
157
160
164
143
147
150
134
138
142
98
107
135
213
200
174
210
191
146
198
174
129
201
180
165
229
218
212
107
109
88
67
77
49
84
87
60
95
100
75
147
150
137
148
142
135
62
53
45
116
109
107
208
205
206
175
172
166
164
162
156
188
188
185
175
175
175
160
161
163
159
160
165
155
157
161
145
146
149
150
152
154
137
141
158
209
184
74
209
162
68
204
146
66
193
147
68
158
133
89
81
73
55
86
91
60
93
101
68
84
87
63
88
89
79
121
121
119
55
56
55
97
96
99
184
184
187
165
166
162
191
191
189
184
184
185
169
168
171
161
159
166
159
158
165
163
162
167
138
138
139
141
141
141
142
141
145
187
174
81
196
169
71
194
160
69
181
151
78
162
144
109
87
82
65
84
90
59
96
104
70
107
109
83
86
86
76
96
96
94
59
59
59
131
131
134
205
205
208
205
206
202
189
189
187
172
172
172
176
175
179
173
172
178
153
152
159
156
155
160
133
133
135
121
121
120
126
126
128
184
188
186
205
206
174
198
193
161
186
180
185
216
208
218
115
113
98
80
86
57
106
112
77
120
118
90
88
87
76
69
70
67
54
54
54
163
162
165
236
236
239
208
209
205
179
179
177
180
180
181
177
177
180
163
162
168
152
151
158
154
153
158
132
132
133
110
110
109
125
125
124
156
174
194
158
172
195
143
153
183
161
170
201
191
193
202
95
96
84
72
80
52
107
112
76
114
110
80
86
84
72
60
61
58
55
55
55
159
159
161
205
204
207
189
189
186
189
189
187
181
181
182
167
166
170
162
161
167
150
149
157
154
153
158
129
129
130
107
107
106
118
119
115
62
75
65
63
77
60
60
71
55
72
78
71
74
74
72
58
60
49
66
71
44
89
91
55
104
98
66
89
86
74
65
66
64
53
53
53
126
126
128
212
211
214
183
183
180
163
163
161
154
154
155
169
168
171
171
170
176
148
147
154
144
144
148
117
117
118
104
104
103
109
110
105
46
56
35
42
54
25
49
60
29
50
57
36
45
50
34
66
61
44
91
70
50
94
72
47
103
93
64
111
112
100
105
108
108
105
108
108
105
107
109
202
203
206
189
189
190
147
148
145
139
140
136
151
151
152
153
152
158
149
149
154
125
125
127
104
104
104
95
95
92
101
102
97
62
76
54
49
64
35
55
70
39
69
84
59
45
54
34
65
51
37
85
46
37
87
51
39
104
90
69
127
130
111
119
126
113
119
124
115
75
80
75
154
157
157
178
178
181
157
158
155
164
165
160
169
169
169
155
154
159
160
159
163
131
131
132
97
97
96
84
84
80
97
98
93
50
64
43
55
69
42
78
93
64
72
86
63
31
36
24
59
43
38
74
39
37
87
52
47
102
85
71
122
127
95
91
101
68
92
100
78
57
63
51
104
108
105
183
183
186
173
173
170
155
155
150
163
163
164
155
155
160
160
159
163
129
129
130
97
97
95
84
85
81
100
101
96
42
56
37
59
73
49
82
96
70
61
75
54
30
35
25
52
41
38
66
41
39
72
46
42
88
74
61
106
112
77
81
92
53
91
99
74
71
77
64
64
68
64
166
166
169
159
159
157
101
102
96
134
134
134
149
148
154
151
150
154
118
118
118
97
97
96
96
97
93
113
114
109
45
57
42
49
62
40
72
86
62
60
74
56
27
37
25
40
41
31
63
55
45
56
46
35
76
73
56
80
85
61
89
98
75
132
139
124
114
120
112
44
47
46
104
103
107
123
123
120
85
86
81
101
101
102
135
134
139
150
149
153
114
114
115
101
101
99
108
109
104
123
125
119
43
55
40
42
56
35
89
102
80
64
76
60
42
55
40
53
64
47
67
72
55
57
59
40
94
97
76
107
113
102
134
139
135
170
175
172
156
161
160
65
69
70
52
52
55
127
128
124
158
159
154
138
138
138
130
129
133
127
127
131
115
115
116
115
116
115
118
119
115
130
131
127
