P3 24 24 255
130
153
112
114
138
82
116
169
95
126
193
109
139
191
115
126
155
85
109
145
95
88
132
95
32
71
26
70
90
30
119
135
55
100
136
57
74
136
53
89
172
79
116
174
91
107
146
62
118
139
45
98
138
51
102
148
66
118
167
75
118
173
73
124
174
83
92
130
54
138
171
132
119
154
78
140
171
97
149
208
140
126
191
113
128
155
78
104
112
49
81
126
78
107
159
115
92
113
59
112
133
65
120
144
61
86
116
41
101
148
75
104
167
82
114
170
84
112
151
69
141
161
72
99
133
47
93
134
58
91
146
79
90
145
65
99
134
54
105
134
60
141
186
133
75
134
42
64
121
38
95
148
76
90
144
56
109
139
61
106
130
72
83
137
69
129
178
95
139
160
78
126
160
85
121
139
60
117
132
68
127
168
119
75
127
64
35
101
24
78
132
56
147
178
110
106
147
83
66
116
42
44
104
32
60
104
32
91
120
54
118
162
96
107
184
99
115
169
78
80
135
40
76
128
32
72
134
55
107
180
94
98
164
85
105
172
77
119
185
76
111
163
76
134
174
116
155
162
90
132
142
65
94
142
83
57
121
59
18
102
26
74
142
66
144
179
120
150
190
146
105
154
75
74
135
45
73
104
31
109
138
89
131
194
138
89
185
73
123
177
93
136
170
79
133
175
85
102
187
108
90
189
100
75
163
82
82
159
60
99
158
41
113
145
51
131
159
101
152
172
103
123
144
56
113
163
98
96
180
122
84
182
85
105
193
100
121
187
118
147
203
155
131
176
103
102
152
80
103
139
74
138
161
124
123
198
134
71
181
67
61
149
59
110
155
75
118
156
78
82
159
72
80
149
67
140
184
119
128
168
89
115
158
63
112
139
51
108
135
72
137
171
112
140
171
88
144
193
111
108
183
121
90
175
96
103
192
107
120
207
149
140
209
138
135
188
115
108
161
91
94
153
86
130
171
105
114
188
114
82
187
94
25
135
39
68
148
64
95
169
77
69
144
54
99
145
83
186
219
188
148
179
143
124
157
91
134
153
67
98
120
41
104
149
90
128
185
116
91
150
70
50
117
54
78
151
80
105
193
107
129
215
167
136
213
136
130
198
124
91
168
94
65
137
47
89
156
65
97
171
99
96
196
126
54
147
57
83
167
82
90
174
84
133
194
139
156
205
186
158
222
225
143
197
198
122
163
127
92
123
51
73
107
25
74
116
45
104
170
95
65
142
54
10
78
12
55
123
58
73
161
68
95
164
99
107
194
112
109
184
89
63
140
58
47
126
40
87
149
56
114
171
101
97
195
138
83
153
61
103
150
65
127
184
124
179
226
221
178
234
241
139
204
210
141
202
210
159
215
212
104
153
129
67
112
60
94
117
48
117
160
63
91
168
55
68
125
45
97
149
74
69
147
50
87
136
55
128
188
97
151
190
82
81
135
45
51
129
52
112
160
72
129
177
96
102
180
112
81
145
55
65
99
29
154
197
155
188
236
232
134
196
200
148
209
209
152
207
210
167
221
229
176
227
232
133
192
180
106
146
115
124
146
96
76
142
52
67
137
41
115
157
59
86
173
64
85
170
74
126
192
93
138
175
76
118
164
65
112
171
90
120
170
107
86
141
66
104
156
79
51
119
38
33
77
14
108
164
107
205
249
239
115
157
153
57
103
90
166
210
204
177
228
236
151
209
225
150
215
225
158
212
218
173
214
214
133
189
162
99
174
115
79
153
75
74
158
66
127
192
94
105
186
75
126
184
91
132
177
90
141
188
109
126
183
129
104
172
114
126
178
107
40
116
41
83
134
54
69
163
75
132
196
149
177
216
191
107
151
136
141
177
171
185
227
229
175
228
239
161
220
233
156
220
225
182
231
236
206
245
249
188
235
227
143
209
185
118
167
124
159
176
102
107
161
59
142
196
110
143
198
122
149
201
130
91
147
79
87
156
98
93
158
87
41
123
54
73
128
45
63
139
52
89
139
53
120
142
94
162
204
191
148
189
184
154
194
192
182
235
238
166
226
235
201
247
251
197
236
240
209
243
244
209
243
247
216
244
249
200
235
224
161
204
158
110
168
86
130
204
108
134
207
130
139
197
122
70
117
46
61
119
48
85
151
68
72
131
73
54
109
40
59
121
45
63
118
31
69
86
18
64
99
59
112
158
135
120
162
152
157
203
202
162
215
220
180
223
225
195
233
238
173
213
216
166
207
208
195
227
229
228
253
255
205
239
233
137
192
148
116
198
109
115
195
105
92
150
67
64
102
25
96
140
55
85
134
46
98
135
87
53
102
41
38
89
26
26
91
23
51
91
26
38
68
16
111
147
110
167
199
189
168
206
210
182
226
226
161
204
202
189
229
233
190
229
231
180
218
217
198
228
228
216
242
245
215
241
247
205
238
235
179
235
199
131
192
102
88
139
59
130
153
65
164
190
105
116
143
76
60
120
55
38
91
27
23
75
19
39
80
24
27
81
16
23
73
14
53
86
36
108
140
114
178
222
216
198
240
237
196
233
229
219
250
251
227
254
255
237
255
255
243
255
255
219
246
245
213
244
243
232
251
253
218
241
239
188
199
160
159
160
81
175
164
88
161
178
110
177
200
144
62
121
48
49
109
37
20
93
28
66
117
48
73
108
47
92
142
108
142
177
152
142
179
162
171
225
220
157
204
197
157
189
181
197
218
213
201
227
225
211
229
229
205
217
217
208
225
229
213
232
235
217
240
236
138
173
161
124
142
99
156
149
71
135
143
80
129
145
79
137
156
85
64
132
54
60
123
52
50
126
51
58
147
70
112
162
105
146
193
172
163
212
206
176
225
220
117
170
159
70
120
99
81
116
100
134
162
148
181
204
198
182
201
196
174
192
188
201
213
212
190
196
184
118
148
121
64
104
69
84
111
55
119
135
65
126
148
95
129
142
77
111
137
50
89
137
46
94
147
70
49
120
44
65
149
82
125
167
108
127
165
120
83
133
96
58
106
73
48
90
60
132
176
159
166
209
194
138
175
163
127
161
150
133
158
145
164
178
146
152
156
112
151
153
96
108
132
63
101
131
55
127
157
73
81
120
44
86
125
70
121
149
70
100
136
46
138
138
66
111
131
45
58
113
39
84
145
84
154
180
118
150
159
91
108
131
60
83
104
48
146
148
97
172
173
137
92
120
81
13
62
28
15
58
23
52
71
37
152
143
83
163
146
70
177
171
91
169
172
85
152
165
66
141
155
54
83
120
38
67
120
56
130
151
58
114
123
37
170
179
108
157
163
82
123
153
86
101
147
78
159
194
128
151
158
87
140
160
84
180
196
151
172
159
97
171
145
59
134
135
56
60
108
38
76
100
41
113
116
52
176
170
88
196
178
99
195
180
103
185
162
84
153
141
51
156
169
71
85
132
36
80
137
62
119
142
64
117
127
35
148
162
67
183
183
111
187
191
127
159
183
113
154
183
118
145
156
81
125
155
75
158
191
146
146
176
127
156
153
76
155
138
43
105
142
40
71
99
31
109
116
40
185
178
67
177
174
75
172
170
84
154
134
51
147
128
47
141
173
89
82
145
44
78
137
53
66
112
34
82
109
23
161
177
67
189
192
104
184
189
117
192
208
161
198
215
159
174
182
99
135
153
58
151
175
92
119
171
84
143
167
68
162
146
39
142
151
53
133
148
74
163
162
82
168
150
44
140
141
43
119
131
33
105
110
16
106
107
33
122
146
67
111
142
63
110
132
40
82
118
35
97
120
34
137
164
65
188
200
121
186
204
147
205
229
181
201
220
160
150
173
86
145
161
63
162
181
83
122
164
56
133
149
36
166
162
50
173
174
84
189
199
138
214
211
144
204
189
104
190
181
98
144
144
49
109
118
23
79
88
28
110
110
44
147
150
76
163
170
74
132
161
63
139
163
68
