P3 24 24 255
38
34
23
42
36
24
45
40
26
61
59
43
59
57
44
36
33
26
17
11
9
23
14
12
35
22
17
27
12
8
16
7
6
9
3
2
9
3
2
17
11
9
14
9
7
17
11
9
18
12
11
15
9
7
11
6
4
19
14
11
34
29
25
23
18
14
15
10
7
12
7
4
57
50
42
59
52
44
53
47
35
62
57
42
42
37
29
21
14
13
21
9
12
45
25
25
88
59
51
117
83
69
68
49
42
22
14
11
33
25
22
34
26
23
26
19
17
26
19
17
22
14
12
18
10
7
15
7
5
26
19
17
35
27
24
26
18
16
25
17
15
18
10
7
20
15
14
20
15
14
12
8
6
6
5
2
2
3
1
2
2
4
18
15
20
43
34
37
43
27
23
70
48
40
62
48
42
67
59
56
105
97
94
116
108
105
123
115
112
128
120
117
93
85
82
41
33
31
73
66
63
121
113
110
117
109
106
87
79
76
51
43
40
31
23
20
4
2
6
5
2
7
4
3
5
2
3
3
2
4
5
1
3
6
15
18
22
34
35
36
31
26
25
64
53
50
112
101
98
140
132
129
164
156
152
177
169
166
186
178
175
170
162
159
115
107
104
97
89
86
136
128
125
156
148
145
144
136
133
88
80
77
42
34
31
29
21
19
1
1
2
1
1
2
1
1
2
1
1
2
1
1
2
1
4
2
24
28
24
69
72
67
120
118
113
155
147
143
173
165
161
171
163
160
162
153
151
155
146
144
158
150
147
134
126
123
109
101
98
170
162
159
184
176
173
169
161
158
158
150
147
114
106
103
62
54
51
30
22
20
0
2
0
1
2
0
2
1
0
6
3
3
4
3
2
3
5
1
56
60
51
130
132
122
167
164
155
172
164
158
167
159
155
156
149
145
139
132
128
124
117
113
126
119
116
106
99
96
113
106
103
183
176
173
206
198
195
215
207
204
217
209
206
188
180
177
107
99
96
36
28
26
2
5
4
3
4
1
6
4
1
10
6
4
15
11
10
20
17
15
62
60
55
132
129
124
155
151
146
153
149
144
152
148
140
147
144
134
135
132
122
126
122
114
115
111
106
92
88
84
86
82
78
103
97
94
150
142
139
199
191
188
204
196
193
183
175
172
94
87
84
25
17
15
3
4
1
5
3
0
22
18
14
67
63
60
99
95
93
87
83
80
82
78
76
93
89
86
105
101
98
130
126
123
152
149
141
156
154
143
152
149
140
132
129
122
105
102
97
105
101
98
97
94
92
164
159
157
191
183
181
214
206
203
213
205
202
149
141
138
51
43
41
18
11
8
26
21
17
59
54
51
119
114
112
145
141
138
144
140
137
124
120
117
123
119
116
124
120
117
102
98
95
88
84
80
115
112
105
143
140
133
155
152
145
143
139
134
83
79
76
72
68
67
62
58
59
134
129
129
168
160
158
168
160
157
162
154
151
106
98
95
42
34
31
30
22
19
161
149
142
171
162
161
174
168
169
158
154
152
135
131
128
149
145
142
178
174
171
164
160
157
140
136
133
120
116
113
116
113
108
143
140
135
130
127
123
116
112
110
46
42
42
25
20
23
28
23
27
73
67
70
136
128
127
160
152
149
179
171
168
131
123
120
61
53
50
44
36
33
219
202
193
192
180
179
178
171
172
165
161
159
147
143
140
181
177
174
212
208
205
206
202
199
188
184
181
161
157
154
141
137
134
145
141
138
173
169
167
122
118
118
28
24
27
19
14
19
34
30
36
67
61
65
143
135
134
191
183
180
208
200
197
171
163
160
96
88
85
85
77
74
198
181
178
168
157
158
165
158
159
151
145
142
164
158
155
198
192
189
205
199
196
208
202
199
213
207
204
206
200
197
186
181
177
150
145
141
137
133
130
121
117
116
26
23
24
27
24
27
73
71
74
56
54
55
71
65
63
113
104
101
126
115
112
145
132
128
94
83
77
67
59
52
179
168
168
140
134
134
135
130
129
144
137
135
166
158
155
184
176
173
189
182
178
191
183
180
198
190
187
201
193
190
194
187
182
188
181
175
127
122
117
40
36
33
7
6
4
9
9
9
40
40
40
43
43
42
33
29
26
44
34
31
71
57
53
94
78
72
59
45
37
32
25
14
167
163
159
147
148
143
135
135
130
137
131
127
149
141
138
158
150
147
174
166
163
182
174
171
184
176
173
189
181
178
183
176
171
182
175
169
172
166
162
50
46
43
30
29
27
10
10
9
33
33
33
54
53
53
20
16
14
21
13
10
41
30
25
43
30
25
28
15
10
36
26
17
154
151
144
124
127
118
123
124
117
142
137
133
150
142
139
158
150
147
174
166
163
187
179
176
188
180
177
184
176
173
169
162
157
173
166
160
169
164
159
91
87
84
90
89
87
42
42
41
30
30
31
42
41
42
11
7
6
11
6
3
31
25
20
75
67
60
61
50
43
42
29
21
166
159
152
144
142
131
137
135
125
121
115
110
134
126
122
166
158
155
186
177
174
192
184
181
193
186
183
179
172
169
154
146
141
145
138
132
124
118
114
139
135
132
167
166
164
125
126
125
39
40
40
7
7
7
8
6
4
9
7
4
19
18
13
88
87
78
90
83
73
48
33
24
183
170
163
172
162
152
151
143
135
110
102
99
89
80
79
138
130
128
173
165
163
166
158
155
174
165
161
171
161
157
151
144
138
130
124
118
82
77
74
83
79
77
151
148
147
160
158
157
87
85
84
8
5
4
10
4
2
16
12
7
15
12
5
82
80
70
122
114
104
62
46
39
127
110
103
171
155
146
179
162
158
155
140
143
84
73
77
85
77
78
141
135
133
139
131
128
136
124
121
131
117
112
114
107
101
77
75
71
33
29
28
28
23
24
74
67
68
106
98
95
107
99
92
50
40
32
46
32
23
51
37
28
57
43
34
112
97
87
158
143
133
96
80
71
81
66
59
87
70
63
119
100
96
145
125
125
105
89
90
46
36
36
72
68
66
99
95
94
84
79
79
62
54
55
36
32
27
26
25
20
71
68
66
97
92
92
59
51
51
78
69
64
118
108
98
125
114
99
109
96
78
110
96
78
115
101
83
140
126
108
179
165
147
160
147
129
96
84
78
66
52
47
57
40
35
58
37
34
57
40
37
24
16
14
14
13
11
35
36
36
18
19
22
8
8
11
54
53
49
102
102
94
199
196
191
224
219
217
169
162
159
90
81
74
116
107
94
140
131
113
122
112
90
112
102
78
120
109
85
130
120
96
143
132
108
142
131
107
103
93
89
66
56
52
67
53
49
65
48
46
40
28
26
12
8
6
0
0
0
7
10
8
25
27
27
85
84
85
182
182
174
151
151
139
213
211
203
239
234
230
204
197
191
147
138
128
118
109
93
122
114
94
116
107
86
110
101
80
134
126
104
151
142
120
121
113
91
103
94
72
78
70
68
52
43
41
21
12
12
28
21
22
37
33
34
46
47
45
72
76
71
92
94
89
162
160
154
226
221
215
228
225
214
149
150
136
216
213
204
226
221
214
122
115
108
108
100
89
102
94
77
94
86
68
125
117
101
107
100
85
80
73
60
98
90
78
112
104
89
120
112
97
5
3
3
11
9
9
21
18
18
54
52
53
125
125
125
190
191
190
221
222
219
195
195
191
222
219
215
246
242
237
232
227
220
151
147
139
216
210
205
236
229
225
140
132
130
46
38
35
56
48
44
50
42
37
80
73
63
84
77
66
42
35
28
21
15
10
59
53
44
95
88
77
36
37
37
73
73
74
96
95
95
124
123
121
207
205
203
248
246
244
240
238
235
205
203
201
223
221
219
246
244
241
234
228
224
157
150
145
215
208
204
245
237
235
207
198
198
104
95
97
104
95
99
94
86
87
96
88
85
106
98
92
102
95
89
93
86
81
101
93
88
106
98
92
