P3 24 24 255
189
168
188
170
152
171
178
160
179
189
169
186
172
150
162
169
147
156
157
133
142
144
111
114
78
52
54
103
62
52
94
57
53
81
55
64
73
52
64
92
64
66
128
85
78
132
87
77
148
92
62
176
112
77
187
126
84
173
110
67
169
103
58
152
95
62
171
145
151
191
172
197
200
177
200
181
164
184
173
151
166
153
116
118
134
89
77
133
87
73
101
70
68
79
52
47
60
37
42
79
53
52
79
53
52
91
61
65
108
71
63
142
93
72
154
100
79
137
84
62
150
95
58
147
90
56
158
98
59
169
106
72
173
105
71
138
90
68
144
112
108
189
169
192
218
195
217
169
142
147
131
89
76
149
91
67
146
88
63
106
63
53
77
48
47
120
73
57
126
81
65
119
76
59
136
83
66
164
104
76
169
106
71
163
102
73
134
86
71
131
86
70
142
87
62
132
69
42
169
105
75
189
122
85
174
110
70
160
109
81
162
116
90
193
172
196
165
136
138
137
89
72
161
102
75
161
99
67
126
74
52
103
60
49
114
67
51
135
80
59
139
83
60
149
93
67
144
93
72
127
81
70
118
78
65
111
75
67
118
79
76
130
89
82
122
72
61
154
87
57
200
131
78
154
99
65
139
97
73
190
130
82
188
140
106
183
163
190
146
102
85
193
135
98
164
105
68
116
69
44
119
68
50
118
67
52
124
73
54
123
76
61
104
68
64
129
83
71
111
72
66
73
51
59
70
57
65
113
78
70
147
90
65
149
95
68
150
95
76
182
116
81
176
121
78
70
50
46
128
99
87
195
130
70
150
118
108
180
163
194
156
105
75
198
138
92
129
80
49
105
62
43
123
73
58
107
65
59
102
67
62
118
75
60
84
59
61
116
75
66
134
88
70
97
66
63
87
65
73
145
91
67
187
104
53
199
121
61
196
129
89
187
121
91
151
94
64
102
84
71
196
155
106
168
110
51
89
69
66
187
165
187
96
68
54
150
97
67
125
76
58
127
75
56
114
72
61
100
67
64
103
67
60
145
94
69
137
93
82
137
87
70
162
102
78
144
90
78
115
70
73
166
97
62
222
146
100
237
169
118
214
161
117
154
119
107
155
100
78
193
157
116
230
181
101
90
60
29
82
70
68
194
169
182
93
67
61
140
81
59
137
81
64
121
76
64
125
80
65
102
68
62
130
86
73
163
107
88
145
96
89
179
122
98
152
101
86
129
82
76
106
65
60
171
111
76
233
184
140
239
194
155
178
125
92
156
130
142
156
121
119
219
180
124
157
121
67
47
32
31
136
118
128
196
178
200
150
108
97
137
81
62
107
66
59
120
76
63
152
94
66
127
81
67
124
81
73
151
101
87
118
80
80
144
100
88
102
72
68
107
72
64
160
104
73
203
145
96
235
194
156
229
181
135
129
80
61
159
129
126
204
177
145
191
155
106
60
41
28
68
54
59
190
165
170
191
170
186
131
96
97
102
60
52
88
53
49
144
91
72
174
111
77
147
95
71
110
75
66
126
87
74
123
86
77
111
77
73
82
53
64
128
86
74
200
128
82
228
169
120
236
209
174
206
150
111
81
43
43
171
146
108
199
174
123
83
61
43
34
23
29
133
118
131
193
168
175
187
161
167
125
87
82
123
69
51
110
64
51
138
85
66
159
103
84
135
86
70
104
69
62
116
76
69
132
89
82
137
93
83
105
67
66
152
103
84
201
136
90
232
186
150
236
200
171
171
118
81
104
68
58
172
146
109
103
74
58
21
12
16
77
68
77
177
163
183
179
160
182
196
175
196
142
94
76
145
87
61
137
82
60
153
93
67
153
97
76
130
81
66
130
84
65
127
86
73
126
85
78
178
124
98
195
138
108
202
143
113
206
146
106
235
202
171
201
156
125
185
128
88
192
158
123
179
144
121
107
75
67
65
53
61
149
137
154
181
165
187
168
154
177
175
158
183
131
93
81
125
73
50
117
66
47
150
92
65
158
101
73
154
102
79
150
96
70
159
107
82
173
117
91
201
137
104
218
151
115
217
148
108
232
173
123
234
193
148
156
103
78
180
131
93
185
142
111
189
134
103
107
79
75
142
127
140
195
175
194
182
165
187
168
154
174
177
160
181
137
93
83
123
68
49
116
64
43
130
78
58
159
103
82
170
115
93
156
99
78
164
105
80
185
127
95
202
136
102
215
152
113
219
155
107
231
164
103
188
137
88
119
76
59
166
121
86
202
143
101
168
120
93
116
98
105
184
165
183
187
165
184
169
152
174
170
157
176
177
161
179
138
89
74
137
82
59
139
83
59
131
76
57
132
81
65
168
113
93
182
123
97
155
96
69
177
119
91
192
132
97
202
141
100
191
136
96
174
118
80
157
112
78
194
144
101
226
163
114
207
144
102
108
82
76
144
128
144
189
168
185
184
165
183
178
163
184
181
165
186
188
170
191
141
96
72
135
83
60
148
94
72
168
108
83
156
98
70
150
96
74
184
124
101
179
116
89
171
114
87
197
134
102
169
111
86
134
87
75
159
112
93
190
141
106
222
160
114
226
160
112
136
91
64
109
92
99
185
166
185
182
161
178
194
174
193
195
177
199
193
175
197
194
175
196
144
100
80
135
86
64
143
92
73
186
128
105
192
131
104
145
90
68
168
110
88
201
136
106
179
120
89
198
138
98
184
131
101
134
93
81
170
126
99
185
133
97
216
151
106
205
139
96
109
74
64
161
142
161
201
180
197
182
160
176
180
159
179
192
171
193
200
179
201
183
164
187
142
97
88
152
103
75
133
87
70
179
122
101
187
128
110
174
114
89
168
111
84
212
148
115
168
107
76
151
105
79
142
98
82
181
134
105
225
170
122
210
150
105
216
156
107
187
122
80
159
121
119
195
175
200
195
172
193
210
184
190
201
181
195
197
175
197
194
177
201
187
167
192
136
106
103
149
95
68
141
91
68
160
105
81
172
116
97
176
118
91
173
116
90
205
143
112
164
105
75
140
96
77
134
96
87
219
162
124
213
148
106
197
132
91
214
154
113
195
133
91
200
144
110
197
151
138
192
155
158
218
184
176
202
179
183
193
172
196
202
183
197
191
162
154
163
145
158
114
76
66
151
100
73
169
117
90
160
107
87
168
116
89
169
112
82
186
127
92
148
97
72
157
108
82
195
136
103
211
148
107
208
146
104
197
134
93
212
149
112
207
144
107
211
147
111
202
139
100
189
132
89
197
138
100
187
145
130
196
163
158
207
174
157
190
163
156
199
177
200
143
120
132
126
89
70
198
146
117
172
116
88
159
111
84
190
133
101
166
109
74
105
75
65
133
92
73
182
121
89
190
128
94
209
147
112
169
115
85
170
113
82
203
141
103
206
145
110
208
146
112
195
131
96
193
128
84
188
132
86
199
142
93
206
162
137
192
165
172
175
154
176
195
172
195
120
96
100
147
103
81
207
145
108
169
112
80
165
122
98
120
86
75
139
118
127
128
104
107
124
81
68
146
97
76
132
90
76
109
85
80
86
66
57
129
85
63
159
101
71
182
119
84
186
123
85
180
120
79
177
124
80
192
138
91
207
161
128
199
166
142
196
181
197
201
182
202
158
142
162
107
80
79
168
115
91
215
153
114
195
151
116
192
167
157
187
161
172
183
162
181
149
131
147
140
117
126
148
124
136
180
160
180
155
136
155
127
105
112
121
95
94
133
101
88
143
104
84
152
110
93
163
131
127
182
154
161
208
185
201
208
185
201
212
197
213
189
174
191
180
160
175
162
139
155
133
100
102
187
140
111
231
183
146
227
192
175
211
180
183
214
188
190
187
160
171
193
172
193
199
179
197
206
185
205
208
182
205
218
194
214
207
183
203
185
165
181
170
149
163
176
154
167
193
174
192
195
173
195
214
196
217
206
184
205
