P3 24 24 255
155
193
254
155
193
254
155
193
254
156
195
253
157
196
253
157
196
253
156
195
252
157
196
252
158
197
253
158
197
253
159
198
253
160
199
253
160
199
253
160
199
254
160
200
253
161
201
252
161
201
252
162
202
253
163
202
253
164
201
253
164
201
253
164
201
253
164
201
253
163
202
253
155
195
254
156
196
255
156
196
254
156
197
252
156
197
252
157
198
253
157
198
253
157
198
250
157
198
251
159
200
252
159
200
252
160
201
254
160
201
254
160
201
254
160
202
253
161
203
253
162
204
253
163
205
254
164
204
254
166
203
254
166
203
254
166
203
254
166
203
254
166
203
254
156
197
254
157
198
255
157
198
254
157
198
252
158
199
251
159
199
252
159
200
252
158
199
250
153
195
245
161
202
253
160
202
253
162
203
254
162
203
254
162
203
254
162
204
254
163
205
253
163
205
253
164
206
254
165
206
254
167
205
254
167
205
254
167
205
254
167
205
254
167
205
254
158
199
253
158
199
253
159
200
253
159
200
252
160
201
252
161
202
253
161
203
253
162
204
251
160
202
249
163
205
252
163
206
253
163
206
253
164
206
253
165
207
254
165
207
254
165
208
253
165
208
253
166
209
254
167
208
253
168
206
253
169
206
253
169
207
254
169
207
253
168
206
253
161
202
254
161
202
254
161
202
254
162
204
253
163
205
253
164
206
255
164
205
254
162
205
251
164
208
253
165
208
253
164
207
252
164
207
253
166
208
254
167
209
254
166
209
254
166
210
252
167
210
253
167
211
254
168
210
254
171
209
254
171
209
254
171
209
253
171
209
254
171
209
254
162
206
255
162
206
255
163
206
255
165
204
254
163
207
253
165
211
253
169
213
255
173
211
255
164
194
240
170
202
246
172
211
255
174
210
253
166
210
250
167
214
254
169
211
255
168
209
252
167
211
252
173
211
254
172
214
255
173
213
255
173
212
255
171
212
254
170
213
255
172
213
255
165
207
252
166
208
253
166
209
253
166
212
251
176
211
243
182
199
228
174
177
211
161
157
193
141
120
155
170
146
181
180
170
207
184
188
225
206
216
245
197
206
236
188
200
238
177
218
252
173
222
252
177
211
247
175
213
248
174
213
249
175
215
252
174
217
254
174
216
255
174
216
255
169
209
251
171
211
253
173
212
252
163
187
215
134
126
150
101
71
93
69
45
62
46
35
44
50
31
36
104
65
78
117
75
99
127
107
133
189
130
159
167
92
119
167
115
142
162
154
181
154
157
182
127
110
141
138
133
164
169
201
232
173
222
251
174
220
253
181
217
255
179
218
255
172
215
255
169
214
253
172
210
249
103
106
141
33
21
45
13
14
25
3
21
26
9
16
27
18
17
27
60
42
62
68
48
79
80
73
97
107
27
59
127
22
51
120
43
65
78
30
51
64
29
47
75
15
40
100
56
85
157
177
209
188
228
255
178
222
255
180
221
255
182
220
253
178
210
236
163
195
221
164
196
224
88
119
147
45
75
91
16
31
42
16
17
34
18
20
39
35
26
47
44
46
71
43
71
95
82
84
103
97
27
55
127
30
58
110
38
59
42
16
23
24
16
17
55
18
29
85
45
62
133
114
140
181
164
197
189
202
232
185
225
250
186
223
252
194
194
204
174
171
183
175
167
183
143
136
159
133
130
145
110
88
102
112
62
83
118
57
77
110
38
63
84
46
67
66
72
87
118
96
110
110
33
53
130
26
51
117
37
59
40
15
24
22
16
18
50
15
26
98
43
58
119
53
67
123
44
72
151
120
144
184
209
227
193
230
255
211
161
177
219
155
178
222
146
174
202
120
143
182
87
116
175
65
96
171
54
79
158
38
62
137
29
54
132
53
74
119
61
81
104
53
68
115
25
43
133
22
46
114
38
57
33
14
25
18
14
18
41
12
21
97
37
51
113
27
39
121
23
48
137
82
113
180
188
214
199
236
255
112
76
87
139
66
84
152
51
76
140
42
67
134
41
70
135
29
59
145
17
44
138
12
31
121
23
37
127
47
61
143
59
80
110
40
57
115
15
34
133
19
41
110
34
52
33
17
25
22
17
19
39
12
18
92
36
47
97
22
32
112
28
48
131
81
106
176
181
203
202
242
255
74
60
63
112
33
45
135
14
34
134
25
52
124
38
63
132
35
61
145
15
41
139
11
26
119
22
31
119
37
46
135
39
59
113
29
46
118
13
29
136
18
36
115
34
49
33
15
21
32
21
23
51
19
24
87
35
45
86
25
34
101
35
48
115
70
88
168
164
180
214
248
255
60
61
54
110
34
42
136
13
30
139
23
44
133
24
49
143
28
52
164
35
54
159
28
44
145
29
45
139
45
60
157
70
88
118
38
51
115
16
25
136
18
31
118
31
44
26
9
12
32
17
18
54
19
23
89
38
47
84
30
40
75
20
27
83
37
48
143
119
134
212
225
234
58
68
52
109
42
46
125
11
26
136
10
29
158
27
53
212
87
110
240
108
123
220
88
109
193
64
89
161
60
81
149
70
85
116
41
47
118
21
26
134
15
26
112
22
34
31
14
17
41
14
18
60
16
21
101
52
59
93
45
55
65
19
24
68
23
29
88
50
65
184
174
188
69
66
56
115
41
49
134
12
28
159
43
64
190
109
124
220
135
146
227
95
112
172
56
77
105
32
47
114
41
53
138
38
52
117
28
35
125
20
31
135
21
34
121
38
48
51
25
34
52
15
23
66
21
23
76
39
38
66
41
44
50
27
28
46
24
24
56
29
37
145
123
135
67
66
61
114
40
50
143
20
34
140
68
74
164
123
126
158
88
97
163
46
64
82
18
30
29
18
19
47
19
22
109
36
45
77
20
21
83
21
21
107
29
31
117
41
44
71
37
40
67
40
40
100
58
58
71
26
29
35
21
20
41
26
26
52
33
34
62
37
39
109
86
86
76
62
64
110
36
47
174
45
60
149
52
63
132
54
68
135
44
64
125
28
49
42
22
30
19
34
32
25
22
23
71
35
42
75
51
48
59
37
29
70
21
16
103
23
26
133
50
57
151
68
80
128
66
74
69
41
42
60
52
49
40
25
25
68
45
47
76
48
52
101
80
82
78
31
38
99
35
41
155
39
51
162
44
59
120
45
58
69
25
35
56
22
31
30
28
36
33
43
43
27
24
26
47
26
33
137
121
116
107
89
83
54
15
15
86
16
24
102
24
31
78
38
36
61
47
41
64
58
54
70
68
63
37
30
27
56
42
41
50
33
36
73
61
69
121
35
43
136
82
80
135
46
50
130
23
32
70
27
30
11
13
11
26
26
29
38
40
47
92
95
93
44
44
41
23
20
19
111
106
92
80
58
54
33
7
12
44
18
24
57
32
31
32
29
21
50
50
43
60
53
50
50
50
45
66
66
61
141
141
135
55
55
50
77
78
71
138
32
41
152
64
67
142
42
47
129
26
38
61
15
21
17
13
15
34
34
36
51
50
53
90
88
88
46
45
44
19
17
16
97
87
79
96
80
77
49
37
38
9
9
9
21
24
23
39
29
31
62
47
51
57
47
48
53
54
48
56
58
52
111
114
108
122
125
117
165
167
153
71
16
23
81
24
28
116
55
57
121
60
62
65
38
38
27
29
27
35
42
36
67
66
59
92
90
84
48
46
40
24
21
16
61
50
53
67
59
60
33
30
27
12
11
7
22
23
20
23
24
20
52
53
49
73
74
68
113
115
104
167
168
158
198
200
189
215
216
205
222
222
209
1
1
0
56
53
50
182
175
169
174
161
150
125
124
116
75
82
76
45
47
40
51
52
45
84
84
78
50
50
44
27
27
24
16
14
21
18
17
19
43
46
38
99
102
90
131
134
121
130
133
120
161
163
149
205
208
193
229
232
214
239
242
224
232
235
217
223
225
208
219
220
204
