P3 24 24 255
204
212
242
200
214
239
204
218
239
209
216
237
213
215
235
217
216
227
231
219
222
174
154
155
89
65
71
70
53
61
91
82
89
124
122
126
147
145
149
163
158
163
182
179
187
206
204
215
221
219
229
225
222
232
227
227
232
240
249
247
215
222
227
197
202
211
210
215
221
222
219
226
200
218
237
201
219
234
203
222
234
206
225
238
213
222
236
228
223
233
225
210
215
186
164
168
112
87
95
80
63
71
216
210
214
252
252
254
246
247
248
241
240
243
238
240
247
205
208
216
148
151
160
138
140
150
129
133
141
206
214
218
115
122
134
59
65
82
54
61
74
97
102
111
217
220
227
225
220
224
213
208
212
206
212
217
209
214
222
221
211
220
220
202
209
196
173
180
120
97
106
108
92
103
201
195
205
128
129
137
85
89
95
139
141
148
241
242
250
128
129
138
23
25
34
98
100
109
78
79
89
141
142
154
56
56
80
50
52
79
28
33
54
35
43
58
201
166
166
205
154
155
190
138
140
184
153
156
177
163
169
139
126
133
107
88
95
160
137
146
140
119
130
126
112
128
180
175
193
66
70
85
36
43
57
131
136
149
244
241
251
147
142
154
31
27
38
100
95
107
91
88
100
132
134
152
51
55
84
81
88
122
60
73
98
46
60
78
140
78
76
148
70
70
149
70
72
208
149
151
207
178
181
139
125
129
110
91
97
192
172
182
154
134
148
153
137
159
182
178
196
85
86
107
41
40
63
141
138
156
244
239
249
149
134
148
30
20
35
97
92
105
79
69
84
134
139
156
37
50
78
82
101
134
84
107
134
53
79
99
211
162
156
214
154
153
212
148
149
215
154
154
175
140
140
135
119
122
145
126
132
198
185
194
176
153
171
167
150
172
185
188
199
103
104
122
42
26
57
124
106
126
246
244
248
145
119
136
23
13
30
99
104
115
78
58
75
144
141
158
40
54
78
82
104
135
111
138
169
73
110
130
161
97
91
153
82
81
148
74
76
139
66
68
125
80
81
100
79
84
126
101
110
181
162
172
190
159
177
162
151
171
179
194
202
90
105
118
54
54
79
111
111
124
238
240
243
142
122
137
31
24
41
120
125
137
70
53
70
148
146
162
45
60
81
86
104
134
104
128
157
76
114
132
127
35
30
134
37
35
127
30
31
125
34
35
134
78
81
103
76
84
131
100
111
156
128
137
145
104
118
134
120
141
177
189
198
83
95
105
59
67
84
115
127
132
233
242
242
126
124
132
22
23
35
108
112
122
45
39
50
155
153
167
55
64
81
67
71
96
35
45
67
29
51
65
148
39
34
160
46
43
148
36
35
136
32
32
148
85
89
118
90
100
161
129
140
181
151
157
146
99
108
127
100
121
201
189
202
135
115
125
122
103
118
171
159
164
243
237
236
175
170
172
104
91
99
139
121
130
126
113
119
200
187
196
116
107
118
113
90
107
83
69
82
71
60
71
151
41
35
160
44
38
155
39
35
145
38
36
145
83
86
116
93
103
153
128
138
187
161
165
161
116
119
132
94
110
168
121
134
181
116
125
184
123
137
172
116
124
184
133
137
194
152
154
175
116
125
170
102
113
166
114
120
157
118
122
119
84
86
132
73
82
122
77
80
111
64
70
147
53
48
147
43
36
165
58
51
149
48
44
130
75
76
95
79
87
123
106
116
154
138
140
147
111
109
127
92
101
137
75
81
141
52
54
152
70
77
129
50
56
153
65
71
139
56
58
138
38
44
145
37
46
126
36
41
137
73
72
113
50
46
127
36
39
107
39
33
102
33
34
149
81
79
150
65
59
178
84
75
161
70
63
123
74
73
75
63
70
117
107
116
137
129
132
167
138
136
110
86
87
146
89
86
178
91
84
164
92
90
149
83
83
150
74
70
142
57
51
154
56
51
150
51
47
150
55
53
160
81
78
132
56
48
142
35
34
121
45
36
128
59
57
195
152
156
182
117
113
180
97
90
184
101
95
141
93
93
104
88
97
141
130
143
147
141
147
173
146
147
104
85
88
153
97
95
198
118
109
166
117
111
169
135
132
155
108
98
145
72
62
162
86
72
150
81
65
165
81
75
176
99
97
148
75
68
142
38
39
131
67
59
120
64
66
171
146
156
175
121
121
143
66
62
142
61
59
135
82
84
108
85
96
129
115
131
132
123
134
168
139
145
112
83
95
134
65
72
143
57
56
181
146
144
177
167
168
162
118
114
140
48
49
156
69
63
156
84
72
154
57
60
158
90
91
147
87
80
134
43
47
114
72
65
108
66
75
52
37
50
187
149
152
213
144
142
200
126
126
167
121
125
95
71
81
121
103
117
126
112
123
167
138
146
131
103
119
156
85
100
160
89
93
174
153
157
126
123
132
172
130
136
136
46
57
129
35
39
121
40
40
122
28
40
141
79
85
134
80
77
119
41
47
124
87
86
115
82
93
52
45
58
150
133
135
180
117
113
202
135
133
146
113
116
89
71
75
134
115
121
103
83
89
139
117
122
165
153
164
216
171
183
197
167
168
62
58
66
28
24
38
102
91
100
170
139
142
211
160
162
207
150
155
194
143
152
169
115
122
136
82
84
174
113
116
194
146
152
130
105
110
125
118
134
117
98
102
141
71
64
164
82
74
122
79
78
106
88
92
142
123
127
111
93
97
122
105
109
175
165
173
175
131
140
141
118
118
20
18
28
73
70
85
65
61
72
166
143
145
211
154
155
223
158
160
221
169
171
197
150
150
171
131
129
210
170
171
125
91
94
105
88
89
166
160
179
117
93
101
147
72
63
147
54
40
138
85
83
110
90
97
152
136
142
141
128
133
148
136
141
177
167
173
149
103
109
102
80
80
21
17
28
113
109
125
60
57
70
127
100
104
124
52
52
137
42
39
133
47
43
159
87
86
143
91
95
110
62
71
114
70
76
120
93
97
165
162
180
119
98
107
160
95
89
153
70
60
121
71
73
79
61
70
108
94
102
125
115
122
143
137
142
128
119
122
134
92
95
85
65
65
42
36
49
141
138
154
72
71
86
108
82
89
142
66
65
152
43
39
147
44
34
163
86
82
179
134
138
160
125
135
154
118
122
138
111
113
169
171
183
101
91
101
173
132
132
176
124
124
138
103
113
128
112
123
138
125
135
140
134
141
137
136
142
150
141
145
149
112
114
60
45
45
57
49
64
175
173
188
79
79
96
90
66
75
137
65
65
150
41
35
151
46
33
160
96
87
210
187
188
208
197
205
179
164
163
125
108
107
145
150
158
38
39
51
37
26
33
53
38
50
62
47
66
89
76
89
116
108
119
140
138
148
158
159
167
174
168
174
127
98
101
54
46
48
122
112
130
180
178
193
82
81
99
79
61
71
135
75
78
149
54
51
146
53
44
157
98
94
212
192
196
209
201
209
193
178
180
144
128
130
61
65
71
16
21
35
2
10
20
0
7
25
6
6
29
11
4
18
14
11
24
22
23
34
41
44
55
60
57
67
66
47
53
48
48
52
119
108
129
178
175
189
85
82
100
48
37
50
83
43
50
113
46
49
119
52
50
140
89
94
204
184
191
218
204
214
205
184
189
141
124
128
159
160
169
114
114
133
76
87
98
51
63
77
27
31
51
20
19
33
22
22
35
17
19
32
15
18
31
14
15
30
23
13
24
25
32
40
50
39
62
166
161
174
80
76
91
28
24
38
35
16
28
106
73
82
87
58
63
38
21
28
69
75
76
193
197
198
211
208
209
164
162
164
249
245
255
243
236
253
228
231
238
209
210
216
171
168
182
129
133
146
91
94
108
61
64
78
43
45
60
30
33
51
28
26
40
17
29
40
40
28
53
122
117
128
76
70
83
24
25
39
19
19
33
38
32
47
29
28
40
8
5
19
39
49
50
136
138
137
176
172
174
188
188
193
