P3 24 24 255
72
89
77
76
89
88
97
104
123
78
112
126
124
115
106
105
95
86
89
86
90
78
78
80
112
95
100
139
101
112
138
94
97
145
121
115
141
121
116
134
119
116
140
124
124
98
95
89
58
77
65
76
90
78
73
92
79
69
84
74
88
102
90
98
86
80
113
95
79
58
62
64
36
38
37
67
71
80
68
72
91
109
104
102
112
105
106
122
114
111
143
120
114
91
88
88
79
84
87
129
118
113
122
118
117
131
118
121
181
175
177
109
104
104
100
90
85
102
105
100
67
85
73
47
54
47
60
68
56
99
80
68
106
102
102
195
178
181
166
139
123
48
50
52
48
53
51
77
85
79
76
89
87
85
93
88
111
103
98
177
158
139
196
167
147
151
137
127
154
149
151
133
123
122
104
96
97
112
103
104
127
118
119
105
96
98
94
87
88
91
89
88
52
59
52
40
40
38
90
86
81
147
99
82
141
116
107
166
139
133
159
132
120
49
45
38
58
64
57
69
72
65
68
92
80
65
82
71
129
111
91
177
159
138
176
157
140
193
181
173
211
202
208
117
110
111
73
67
66
74
70
69
73
69
67
80
76
75
63
61
61
91
84
86
72
68
64
43
43
41
93
82
78
144
121
109
146
115
102
152
131
112
136
125
121
86
86
83
119
109
107
121
113
111
131
135
129
131
136
130
146
140
130
141
139
132
69
72
66
68
69
66
79
76
74
113
108
108
64
61
61
62
58
56
74
71
68
60
58
56
44
43
42
101
95
95
103
97
95
147
142
139
161
151
144
185
174
165
194
180
176
204
195
192
191
182
177
176
175
173
203
194
191
206
197
194
206
196
192
214
200
197
207
199
193
204
193
188
45
49
47
37
38
37
45
44
44
116
112
111
86
81
80
81
75
73
93
87
84
73
68
68
59
57
57
108
101
101
121
113
114
231
218
211
238
224
218
235
221
218
233
221
213
243
236
237
247
243
244
233
233
230
199
190
184
201
193
191
198
192
189
183
175
175
208
198
194
200
191
187
49
52
49
42
45
42
37
39
40
124
120
121
122
116
116
85
81
79
81
72
63
94
85
75
86
80
79
107
99
99
124
118
117
220
208
202
231
217
212
233
220
217
238
224
220
249
240
243
244
237
241
204
211
202
204
194
190
208
197
197
143
133
130
98
83
74
172
161
156
201
194
189
48
48
47
35
41
40
52
54
53
172
166
161
128
121
118
64
62
60
77
69
63
143
123
112
121
105
99
100
93
90
83
77
70
190
179
168
231
217
213
211
196
191
180
165
157
220
213
211
246
240
244
218
219
218
173
168
164
181
175
173
176
163
159
139
120
106
169
163
161
186
180
177
47
47
44
95
82
74
166
156
144
203
188
172
133
120
109
76
69
63
107
97
92
140
109
93
142
113
93
132
110
99
98
88
84
127
113
102
196
181
168
187
161
148
110
90
77
143
139
134
235
234
235
235
230
232
113
113
112
150
150
151
191
190
192
175
170
170
179
181
179
149
147
150
89
82
69
171
143
117
197
181
169
144
123
108
118
103
92
142
122
115
124
103
89
146
111
94
165
135
114
146
110
83
133
113
99
129
113
111
113
98
85
163
148
142
172
158
156
187
179
179
179
189
185
181
188
185
187
182
180
194
190
188
196
191
191
201
195
195
199
192
190
198
190
187
164
141
125
152
126
101
73
65
62
71
58
48
127
113
110
125
95
71
116
88
75
125
90
60
163
124
97
170
138
117
142
107
79
146
123
105
96
85
80
127
124
124
200
195
194
196
188
186
173
173
170
171
168
164
205
198
196
207
200
198
211
204
202
212
206
203
216
206
205
217
210
205
151
123
99
125
97
68
9
13
12
67
60
56
136
100
71
140
103
70
106
79
65
105
76
53
135
92
58
143
113
97
152
121
99
144
108
82
108
89
75
137
117
108
221
213
209
238
230
227
238
230
227
238
229
228
202
194
192
205
198
196
209
201
199
210
203
202
212
202
199
216
207
207
150
127
109
97
70
44
36
34
31
66
54
43
146
101
54
139
103
72
133
99
72
97
74
62
74
55
42
107
79
59
114
83
65
122
87
66
104
75
56
153
137
129
235
228
228
243
232
229
242
232
230
241
232
232
202
194
192
204
196
194
207
199
197
209
200
200
210
203
200
214
204
203
204
193
189
109
96
90
66
63
63
71
59
45
137
92
49
126
87
56
130
91
67
63
49
41
45
39
34
122
94
74
122
87
65
95
69
54
112
84
68
101
92
85
157
150
148
235
226
225
239
231
229
240
232
229
201
193
191
203
195
193
206
198
196
207
201
198
209
203
199
212
203
200
218
210
208
147
139
136
66
59
52
74
58
47
116
78
47
109
70
41
95
66
46
46
36
30
77
64
55
110
85
66
93
69
50
124
97
78
102
75
62
149
136
130
203
192
190
238
230
229
238
229
228
239
230
228
200
191
189
203
194
192
206
197
195
208
200
197
210
201
198
212
202
200
215
205
202
168
156
153
109
76
42
101
73
57
87
67
47
90
63
46
69
51
38
40
32
27
50
41
37
90
69
56
91
63
42
152
130
115
109
82
67
224
215
214
242
232
232
239
228
227
240
228
228
239
229
227
199
189
186
204
195
193
209
199
198
212
203
201
213
203
202
212
202
201
213
202
201
184
175
175
96
66
39
112
81
55
79
63
48
99
73
53
59
43
32
56
49
46
96
90
85
128
119
115
110
78
59
162
143
132
142
119
109
237
227
228
234
224
223
236
226
225
236
225
225
234
225
223
157
142
125
166
151
136
173
159
146
180
166
154
184
171
160
191
178
167
200
186
177
201
190
182
78
66
57
84
61
40
90
65
47
85
59
39
66
47
34
158
145
139
227
215
211
225
215
214
135
119
115
167
148
135
148
133
123
237
227
225
232
222
220
234
224
222
233
222
222
232
221
221
115
95
69
122
101
75
128
107
81
134
113
86
135
115
88
140
119
93
148
127
102
159
140
114
101
88
72
63
46
30
113
78
54
77
54
40
63
45
32
170
152
136
216
198
188
226
212
207
170
160
155
123
102
91
156
141
134
240
230
228
234
223
221
230
219
218
232
220
219
231
219
218
112
91
71
115
93
71
120
98
75
126
103
79
127
105
79
128
107
79
128
107
78
134
113
83
130
107
80
76
59
43
101
72
52
80
56
39
62
47
36
115
87
68
156
131
106
174
154
133
178
157
136
141
106
81
161
133
117
211
194
183
218
201
192
227
212
206
228
216
212
230
217
215
110
91
70
112
92
69
119
99
74
122
101
77
123
101
77
125
104
78
126
105
78
130
109
80
131
107
79
118
97
75
102
81
63
100
77
63
38
30
23
105
80
60
138
111
84
147
124
95
151
126
100
138
106
79
122
86
63
169
146
121
172
150
127
181
161
142
196
178
161
212
196
182
102
84
65
112
94
72
113
94
71
119
98
74
121
100
76
124
104
79
123
103
77
128
106
81
133
108
79
129
108
86
119
98
83
170
156
147
54
41
34
129
108
83
140
119
90
144
120
90
148
125
99
141
112
84
136
101
74
156
132
106
157
133
108
158
134
109
162
138
113
167
146
121
99
82
64
107
88
67
115
95
72
121
100
77
126
104
81
124
103
79
130
109
84
127
106
82
132
109
82
132
108
84
121
100
82
201
189
173
69
51
42
134
108
81
132
110
82
133
110
85
136
114
87
138
114
87
168
133
100
137
114
88
135
114
88
142
120
93
143
119
93
144
121
96
102
84
66
102
84
63
113
94
71
119
98
75
121
99
76
121
99
76
124
102
78
125
104
79
126
104
78
130
107
81
120
99
76
135
119
100
53
42
33
96
81
62
117
95
73
117
95
70
116
95
72
115
91
71
168
130
92
121
96
67
119
97
73
125
101
78
124
100
77
128
105
81
