P3 24 24 255
100
69
62
96
74
73
89
70
71
98
74
69
118
91
84
138
98
89
122
88
79
87
72
73
89
75
76
93
69
66
107
77
72
116
78
68
114
77
65
97
76
72
89
73
76
96
71
66
112
76
67
112
72
62
109
75
69
82
66
67
68
60
63
79
66
71
81
64
67
86
73
75
112
80
71
106
83
79
92
69
66
110
82
74
133
102
90
121
95
89
106
82
78
107
81
76
103
76
70
97
70
63
109
81
75
115
80
73
107
77
70
103
82
78
112
84
80
117
81
70
111
75
68
109
78
73
97
73
73
74
66
68
77
68
68
86
70
73
84
66
69
87
74
74
108
84
80
130
103
92
120
93
82
120
98
93
136
110
100
128
105
98
119
95
88
136
95
83
129
84
71
126
81
68
125
86
74
109
79
72
100
76
73
114
91
85
129
90
80
121
86
73
98
73
69
90
70
69
89
69
70
79
67
71
88
73
74
91
72
72
84
66
66
83
68
70
115
92
88
132
98
89
121
92
86
117
96
95
125
100
94
134
105
98
135
105
97
148
110
94
135
99
88
127
91
83
124
89
82
110
83
79
105
83
79
120
93
87
129
90
83
111
79
70
103
76
69
96
75
70
87
69
69
82
66
68
92
74
73
94
75
75
88
69
68
95
76
74
145
105
95
135
100
93
128
99
93
140
103
90
133
95
81
127
97
93
122
96
92
119
88
76
140
109
92
131
99
87
120
90
79
113
87
80
123
96
90
135
103
97
125
93
83
109
82
72
108
77
70
95
75
70
89
73
72
97
75
73
94
76
75
90
75
77
95
69
67
107
72
64
158
106
91
146
101
90
147
108
95
174
125
101
167
116
94
138
105
94
126
98
92
119
87
74
149
115
96
136
103
89
124
91
82
123
87
76
135
96
85
147
109
97
121
93
86
107
83
75
103
73
65
91
72
75
101
77
75
105
80
74
89
73
73
89
72
73
111
76
68
134
85
70
143
99
90
154
106
97
162
114
97
184
132
110
171
124
103
148
108
91
144
106
96
136
100
87
133
97
83
129
93
85
131
94
85
127
86
73
129
92
80
123
94
84
109
84
78
114
83
77
111
82
76
97
78
81
105
77
73
100
76
72
92
75
75
94
72
70
120
80
70
135
84
65
149
113
105
146
112
101
161
113
98
184
127
110
165
121
103
127
95
87
136
102
98
142
106
95
132
97
87
132
97
91
145
107
97
153
106
87
139
96
80
124
87
75
119
88
77
125
91
82
125
94
86
117
89
86
114
84
77
96
75
74
99
79
79
102
74
72
116
76
70
120
74
63
151
117
112
139
111
105
140
105
102
150
113
110
125
96
96
134
112
111
152
130
128
112
87
81
123
93
89
136
106
99
143
111
99
163
123
104
140
103
92
128
89
81
126
92
84
112
87
79
119
88
80
116
85
80
120
88
80
98
77
75
94
75
75
100
72
70
111
74
69
111
74
67
145
118
122
130
106
110
121
96
101
113
90
92
75
57
56
113
97
95
147
134
133
87
77
77
87
76
80
105
94
99
106
98
97
121
111
106
117
104
98
95
74
69
108
83
81
97
80
78
105
83
77
117
85
83
112
86
84
104
81
77
94
76
76
109
84
80
118
80
72
118
81
72
118
96
95
107
86
83
110
80
75
106
70
65
100
70
67
120
103
108
127
115
120
130
114
117
126
111
112
111
99
105
107
99
104
125
115
118
127
116
113
120
110
102
118
106
98
122
106
101
117
93
87
121
87
83
108
81
80
104
81
78
102
78
78
116
86
83
117
84
75
119
84
78
128
97
89
115
86
78
133
98
90
144
101
92
130
96
89
123
112
119
107
98
106
121
103
107
144
118
118
110
94
95
100
87
88
110
98
101
116
102
104
123
105
98
114
93
84
101
81
71
112
82
76
118
82
75
114
82
79
103
83
82
103
77
76
111
76
73
116
83
79
117
89
85
142
105
96
141
104
96
139
108
98
141
100
89
130
94
86
112
97
101
120
109
112
64
58
59
71
57
56
91
77
76
99
83
83
117
102
104
139
124
130
142
118
115
112
84
76
86
63
56
113
87
80
117
87
78
102
78
76
94
77
78
105
78
77
121
85
80
123
91
88
112
88
84
158
116
103
149
108
99
141
102
94
141
97
87
135
95
85
144
124
117
169
155
153
110
99
98
88
77
74
121
113
113
117
107
110
130
119
123
124
107
113
141
119
119
121
101
96
104
78
76
118
95
87
129
102
89
114
90
82
98
76
77
114
82
76
123
90
82
118
89
85
112
85
81
153
110
97
147
106
96
130
90
83
133
90
80
141
89
77
121
77
64
132
101
89
142
122
111
150
136
131
157
153
154
139
135
139
153
146
151
120
103
106
122
104
104
124
111
110
121
91
91
119
93
92
117
90
84
136
98
81
123
88
81
124
89
79
124
95
87
112
86
82
110
81
80
144
103
92
132
98
91
122
89
81
134
92
80
132
76
62
98
48
31
105
56
35
103
71
55
104
84
78
117
107
105
118
111
112
158
147
149
184
172
170
144
132
129
144
132
131
145
115
113
127
105
104
104
85
82
98
67
55
124
88
81
127
90
88
115
87
83
102
80
76
103
75
77
135
97
88
128
90
86
128
89
82
135
92
83
131
78
61
116
64
39
106
54
30
62
30
17
22
14
8
33
28
25
62
55
56
101
89
91
188
171
170
134
122
118
134
124
122
165
147
145
131
115
112
83
63
60
105
75
68
127
88
83
123
88
85
110
80
74
102
78
71
101
77
75
133
94
85
136
92
86
135
91
88
145
92
80
155
90
67
155
93
67
130
81
61
76
53
42
50
36
22
46
33
25
59
50
50
112
95
97
140
117
117
61
45
43
79
68
65
154
147
145
100
85
82
72
53
49
108
76
72
123
81
79
112
81
78
98
71
68
96
73
70
92
76
75
147
100
86
150
102
87
134
92
81
145
90
69
160
97
74
158
95
68
157
108
84
141
105
89
157
117
99
148
119
111
160
149
153
132
113
113
78
55
53
73
49
49
124
102
99
133
108
104
95
62
55
100
71
68
119
84
83
118
82
82
107
75
72
109
78
72
114
86
80
105
84
83
140
89
76
148
88
70
153
87
65
162
92
63
161
96
71
160
99
72
158
112
88
131
97
86
128
105
99
146
127
125
155
138
141
98
75
73
78
53
51
105
72
71
140
107
101
131
85
71
133
79
61
122
82
80
125
89
91
117
86
85
115
84
80
121
89
83
123
93
87
117
92
92
143
83
69
146
84
63
180
107
74
192
112
75
163
96
68
146
99
81
143
109
93
128
98
93
112
83
79
121
88
82
119
86
79
109
76
72
109
77
76
130
88
80
144
101
89
136
90
77
140
91
80
126
91
87
122
91
89
114
84
82
117
86
86
115
85
88
111
81
82
105
75
75
140
80
67
152
93
67
190
119
76
184
117
86
168
108
83
146
98
79
143
101
88
125
96
91
129
99
90
137
98
89
136
104
97
127
96
90
134
94
87
145
94
77
135
89
74
131
88
79
126
85
82
126
90
90
115
86
86
110
81
81
107
77
78
108
82
84
116
87
87
122
87
83
146
90
71
155
98
71
138
92
74
124
84
71
163
106
81
156
98
77
146
97
81
124
96
88
112
84
77
125
88
81
125
93
90
124
92
89
141
92
81
133
86
71
117
84
75
117
84
80
119
84
81
121
87
86
108
84
85
99
77
79
100
73
74
101
73
70
113
83
81
117
85
83
138
87
69
149
93
65
133
89
79
120
78
67
150
92
70
149
96
77
133
93
80
116
84
75
113
82
80
121
89
86
117
87
85
126
89
89
136
87
81
118
80
70
110
77
68
108
78
73
110
83
81
113
89
89
102
82
83
93
71
71
92
67
66
102
72
70
106
76
75
101
75
75
