P3 24 24 255
123
53
59
127
53
53
113
46
51
96
41
49
80
38
47
57
35
43
76
63
68
158
107
105
133
63
72
103
48
59
118
74
84
137
81
98
172
92
101
168
86
93
178
95
103
194
125
129
190
126
123
192
134
129
165
143
123
103
98
88
103
100
87
106
106
81
84
90
71
63
71
59
57
22
38
46
23
41
33
24
36
29
23
34
30
21
39
20
16
38
60
64
74
167
122
118
134
68
73
79
44
56
121
97
102
130
92
111
162
108
114
164
134
130
177
94
98
192
121
118
174
114
118
176
112
119
193
158
154
163
133
134
150
118
116
151
115
110
139
111
105
118
102
96
25
22
35
18
16
32
16
16
31
20
14
34
18
12
33
15
11
32
55
55
66
154
115
114
131
71
73
122
98
98
138
114
116
134
94
104
163
113
115
177
166
163
173
97
104
196
145
145
178
161
166
173
134
144
181
147
150
119
89
96
123
91
95
142
93
99
118
80
84
110
85
85
38
38
36
25
19
27
25
26
33
25
23
37
20
11
33
22
16
35
55
56
62
146
105
102
124
57
66
128
117
120
120
113
119
111
86
97
156
105
109
182
171
170
174
101
108
189
145
146
175
176
182
184
154
162
191
167
164
151
140
139
157
137
135
170
138
135
156
126
122
147
117
110
33
38
35
29
24
28
29
30
30
24
25
35
19
10
32
21
16
34
47
48
51
138
97
91
132
63
67
129
118
123
88
82
92
76
51
65
147
94
99
172
164
161
162
84
92
170
116
119
149
154
162
160
135
141
202
171
154
214
202
177
209
200
175
211
202
180
213
203
179
210
199
170
27
32
35
32
21
29
30
24
31
24
24
35
24
17
35
31
24
37
43
41
45
109
72
70
132
64
68
104
100
107
70
66
77
57
31
46
118
59
68
122
110
110
146
68
72
118
51
58
49
54
67
91
59
69
195
158
130
215
200
158
213
201
161
211
202
167
207
197
166
200
193
159
22
26
33
31
22
31
29
24
33
29
29
38
37
35
44
61
57
59
77
76
69
96
60
55
120
39
50
49
42
59
47
46
56
57
32
45
96
36
50
102
87
91
149
72
80
101
32
45
29
34
44
77
42
53
189
158
153
206
205
198
210
208
200
200
198
191
185
182
181
196
197
195
21
23
35
26
22
32
29
28
36
41
41
51
65
65
76
99
97
97
121
120
108
114
79
77
116
30
43
53
31
42
55
37
47
83
44
57
119
49
59
113
69
76
144
54
62
126
42
57
110
79
86
135
82
92
198
163
166
216
216
212
215
215
210
199
202
197
181
184
184
189
196
194
28
24
39
29
22
35
32
30
40
41
39
51
50
50
64
78
76
83
113
112
109
118
83
89
141
38
52
139
62
69
131
54
65
144
54
75
152
45
64
131
32
47
137
28
39
155
56
70
183
108
118
177
102
108
188
140
134
194
194
186
186
191
184
172
175
173
168
172
172
166
175
175
34
34
46
32
29
40
31
35
42
44
41
51
42
33
45
39
31
42
49
44
56
80
40
52
141
32
45
156
58
84
145
48
67
150
50
62
151
57
55
154
69
51
160
86
60
174
117
73
154
84
73
166
93
75
181
118
81
173
157
150
163
167
165
155
159
158
152
158
158
144
154
156
87
27
40
87
24
38
86
30
43
103
35
50
108
36
49
103
35
46
111
35
45
124
32
46
144
67
60
156
109
68
172
128
72
190
141
81
198
152
86
200
161
91
194
140
83
190
129
83
153
75
63
152
64
63
168
105
91
161
156
150
153
160
161
151
155
154
147
152
152
150
155
158
136
29
37
138
29
40
137
32
44
144
33
44
147
37
43
145
49
50
149
44
50
147
37
48
166
105
69
190
142
77
186
127
81
176
109
81
169
97
75
173
104
75
157
65
61
153
42
56
158
51
59
160
52
60
172
94
98
171
159
157
162
159
159
154
155
153
154
156
155
167
167
173
148
49
54
151
53
60
155
59
67
156
56
63
155
52
57
167
81
81
150
49
55
138
26
38
143
45
52
150
50
57
151
42
55
152
43
59
152
48
61
163
56
49
155
42
43
151
37
46
158
49
56
157
42
50
157
61
68
176
158
156
174
172
169
171
167
164
169
167
165
125
123
134
146
36
42
142
37
42
147
41
45
151
40
47
151
38
46
157
52
57
149
36
45
149
24
37
143
27
37
153
35
45
157
38
49
153
36
46
150
36
44
150
35
46
144
30
43
149
36
44
152
39
45
153
38
44
158
56
63
190
160
162
193
187
186
184
180
176
177
174
173
90
88
103
82
15
30
85
21
33
92
18
33
97
19
33
97
23
32
107
23
32
129
26
34
147
28
40
142
27
38
145
29
40
148
28
38
149
28
38
133
32
39
91
33
46
73
30
50
116
34
42
159
41
46
154
39
46
167
79
82
194
167
168
196
186
186
187
183
179
173
170
170
92
89
108
24
9
31
49
38
56
36
22
43
24
7
30
26
10
31
37
15
32
82
22
33
132
26
38
147
27
37
145
27
37
145
30
40
145
29
41
79
27
42
28
23
42
23
20
41
74
27
42
154
40
47
152
36
45
168
100
102
187
177
173
193
186
185
192
185
182
174
167
168
82
78
97
18
9
33
48
42
62
32
26
48
14
4
30
17
7
32
24
11
32
71
18
32
127
25
37
147
27
40
145
28
40
146
30
41
141
35
44
63
35
48
29
22
43
26
18
39
55
23
41
148
41
51
156
37
48
163
93
97
182
172
168
192
184
183
193
185
183
172
164
165
73
68
86
51
14
30
60
29
45
47
17
38
36
8
32
31
10
32
36
11
31
76
18
33
123
25
36
147
27
39
145
28
39
146
25
37
153
57
63
94
76
85
39
34
54
34
29
49
39
23
41
137
37
48
148
36
45
156
95
96
185
174
171
193
185
184
197
189
187
166
159
160
66
62
80
101
23
36
96
23
32
96
22
30
99
21
35
98
20
37
99
22
36
112
24
37
131
25
36
144
28
40
145
29
42
145
26
35
157
71
77
102
86
97
35
29
52
34
29
50
31
22
44
118
48
57
134
73
71
153
126
121
202
191
188
196
188
187
185
176
177
127
120
128
52
52
70
91
31
45
86
43
53
83
37
48
95
29
44
118
24
33
132
29
31
142
52
58
144
49
53
138
27
35
143
31
44
143
27
36
157
76
85
81
71
84
37
29
50
43
36
55
26
18
41
115
99
105
154
144
135
160
151
145
182
171
173
144
139
146
93
89
104
40
37
57
39
38
59
90
42
51
83
54
63
74
51
59
76
45
56
88
24
34
136
28
37
187
120
122
182
118
110
137
36
32
143
30
43
144
29
41
154
82
92
69
60
73
90
85
98
124
119
127
28
22
41
96
97
106
167
155
160
141
125
130
101
94
102
53
49
65
39
36
54
44
38
56
60
50
66
72
28
37
78
34
49
82
40
54
87
41
51
109
47
51
130
38
44
164
99
103
169
100
97
139
39
37
136
26
40
120
39
49
134
101
105
58
50
65
131
126
134
179
176
177
43
39
58
52
52
64
99
93
106
62
53
69
48
40
54
60
53
64
88
79
82
119
110
108
146
133
130
25
17
32
30
17
36
29
13
31
68
45
57
153
119
122
103
64
73
74
39
51
91
48
59
91
41
49
112
26
37
126
70
76
132
119
126
43
35
52
125
120
128
190
187
191
47
43
63
27
24
41
41
35
54
54
42
61
81
69
77
119
107
105
156
143
135
181
169
155
195
183
168
23
16
35
25
19
38
19
15
31
41
32
47
91
81
89
50
48
63
80
78
84
64
60
70
36
32
51
108
70
78
166
128
130
115
106
118
29
23
42
87
80
95
147
144
154
33
31
49
33
29
45
67
57
71
102
88
91
142
129
121
177
165
154
194
182
169
199
187
170
207
195
179
