P3 24 24 255
160
132
88
158
138
99
189
160
123
170
81
69
161
72
54
178
133
101
220
208
196
247
244
242
248
246
243
245
242
239
226
215
211
194
172
163
166
135
119
136
91
60
116
61
24
107
48
14
103
44
14
104
45
16
101
43
15
88
36
12
89
42
18
98
77
55
124
98
49
120
89
36
177
147
99
182
158
108
194
160
119
167
82
68
167
98
78
189
161
145
227
220
219
247
249
250
246
243
244
227
218
215
193
171
160
166
132
114
146
105
85
127
78
50
112
59
29
103
46
18
102
45
20
109
55
26
115
63
31
113
62
34
103
57
30
96
55
26
110
73
25
117
89
38
172
147
101
170
149
107
146
117
91
158
94
72
177
126
100
188
171
165
222
216
217
243
244
246
225
217
216
189
165
158
162
129
114
145
104
83
125
77
51
106
51
25
95
38
16
91
34
13
92
36
15
110
58
30
128
77
45
129
78
48
129
81
49
101
51
25
92
46
11
119
89
38
119
108
80
60
47
40
91
68
57
170
120
83
170
123
93
176
153
142
211
204
201
233
232
233
198
174
159
152
106
77
145
95
65
149
94
58
130
76
44
103
53
30
84
34
18
77
29
15
86
39
23
103
53
33
129
79
47
138
90
56
132
87
60
110
63
37
79
31
11
114
82
39
49
43
36
35
22
20
134
105
82
168
118
74
153
101
58
166
127
105
204
192
185
216
205
197
166
118
84
125
63
23
116
54
20
129
69
33
141
89
62
135
90
70
103
58
41
72
27
15
77
36
22
113
61
34
123
64
28
133
78
39
141
95
66
114
72
45
81
34
14
104
70
35
23
17
20
66
51
42
149
114
89
159
105
61
147
89
43
159
112
83
195
179
167
193
168
148
148
88
45
118
58
23
99
41
19
115
65
39
130
89
65
129
90
68
110
66
46
75
28
17
64
23
15
109
56
30
125
61
22
128
67
23
143
87
47
124
81
48
84
38
15
97
58
30
39
30
37
90
72
62
145
112
85
146
96
57
145
88
48
153
109
81
188
175
165
190
162
141
136
76
34
101
48
22
68
27
18
74
46
35
102
71
56
113
74
50
101
59
37
74
30
19
58
17
13
99
50
27
123
61
24
124
59
14
132
73
29
127
81
49
97
51
25
92
47
20
53
42
53
104
83
76
137
105
83
134
95
65
150
102
70
167
139
123
212
209
208
209
187
174
134
81
44
87
46
27
48
31
33
41
37
44
51
34
33
88
55
38
96
55
32
74
29
18
55
15
11
101
53
28
126
63
22
120
54
14
119
62
25
122
77
45
106
59
29
94
46
17
53
42
53
102
77
65
135
103
84
152
114
86
178
145
128
217
209
209
245
244
245
212
192
186
129
85
62
74
43
33
58
50
59
48
45
56
29
18
22
58
37
32
90
51
30
71
26
14
63
26
20
119
68
34
133
70
23
119
58
17
98
47
18
114
73
42
106
62
32
89
40
15
56
42
50
99
75
61
156
121
96
180
146
123
215
202
199
237
232
233
234
226
224
199
178
172
118
81
70
56
32
28
62
51
60
58
48
59
40
30
33
62
40
33
85
43
26
63
24
15
103
66
47
145
93
52
144
86
39
113
57
20
80
33
15
108
69
44
101
59
31
82
34
11
69
47
49
130
103
90
178
145
117
200
183
176
215
212
219
208
201
200
204
195
192
206
183
173
135
103
95
54
32
31
90
65
59
96
68
64
90
62
54
97
57
33
81
35
18
97
60
47
161
117
85
166
119
84
150
100
59
101
51
21
76
34
19
104
66
42
87
45
24
72
26
10
106
81
73
187
158
141
166
142
125
137
127
126
140
127
127
152
136
131
185
175
171
202
186
177
174
148
137
116
83
76
118
72
58
128
91
70
118
77
50
107
65
39
110
71
49
159
122
93
181
138
107
171
129
98
144
96
61
90
44
22
83
45
25
97
59
37
70
29
16
65
23
13
164
138
118
190
167
150
121
105
102
77
64
66
66
51
47
99
83
81
159
150
151
188
183
182
189
174
167
165
134
123
133
94
84
117
80
66
101
58
33
121
88
70
167
142
125
186
152
128
180
140
109
169
126
91
132
84
49
88
43
21
100
60
38
82
44
30
59
19
10
60
23
12
190
164
140
179
152
131
108
98
97
73
64
71
47
39
42
56
47
52
144
142
147
185
184
184
189
184
181
170
154
149
152
131
127
136
113
106
102
67
52
106
76
64
164
145
135
186
154
131
180
140
109
159
114
80
117
74
46
100
57
31
98
59
37
64
26
17
57
19
10
60
26
15
180
158
140
192
166
148
111
103
100
36
33
38
46
42
50
62
56
62
149
147
155
180
179
183
185
183
184
165
156
151
151
134
126
156
139
133
130
109
96
116
91
79
167
146
134
184
156
138
173
133
103
142
102
72
109
74
51
106
65
39
83
44
24
57
21
13
59
23
13
64
30
20
183
160
146
198
174
158
133
124
123
42
40
48
66
63
73
109
106
115
166
167
175
179
182
187
175
175
177
159
152
147
146
129
116
154
134
123
148
128
115
149
126
114
187
166
156
190
165
147
163
125
97
133
96
71
114
79
54
109
70
45
88
51
29
65
29
18
66
30
18
70
39
27
186
163
147
191
164
141
167
158
156
86
85
94
99
97
105
148
151
161
175
182
194
182
190
199
173
175
179
155
151
147
147
131
117
150
125
106
149
125
110
166
141
127
191
169
153
189
161
140
163
126
94
127
86
53
114
77
53
117
84
63
103
69
41
77
41
25
76
40
24
75
46
34
178
149
129
178
149
125
180
166
159
151
148
157
143
143
153
168
176
189
179
187
199
182
190
200
178
182
186
157
154
151
147
130
114
147
118
95
147
117
98
160
132
112
186
162
143
189
161
139
159
120
83
110
69
36
110
77
59
131
99
79
120
84
52
89
53
31
83
47
27
75
48
34
169
138
112
169
141
118
170
146
131
171
163
166
164
164
175
173
177
191
181
184
193
176
181
190
171
174
177
160
155
149
148
127
107
144
113
88
139
107
87
152
127
109
180
156
136
184
157
134
147
107
72
105
67
40
113
83
68
147
115
91
134
94
59
100
60
32
85
47
24
76
47
31
165
132
104
172
141
117
164
134
111
149
124
111
147
131
127
168
164
171
178
180
187
173
174
181
164
162
160
155
144
131
147
123
101
143
114
92
138
109
92
163
136
118
188
160
138
182
148
121
144
104
70
115
77
51
120
88
69
155
125
102
148
106
72
110
69
38
92
52
24
81
48
30
161
124
97
161
129
104
158
130
104
138
108
85
126
98
78
138
115
104
165
158
158
168
168
171
160
154
148
155
141
127
148
126
110
145
115
101
141
114
101
169
142
122
199
172
152
185
148
118
144
104
72
120
83
56
131
98
77
160
130
110
155
116
86
119
78
44
97
55
30
89
52
34
157
124
92
149
114
83
145
115
88
142
118
96
130
101
76
126
97
73
131
109
93
149
136
127
156
145
136
160
144
135
157
134
124
150
122
110
143
119
106
176
153
135
197
172
151
170
135
105
136
97
67
124
90
63
144
112
88
156
122
98
153
116
88
121
80
49
93
52
34
92
55
35
153
120
86
153
119
86
142
113
83
137
113
88
138
113
90
130
109
89
117
100
82
125
112
100
163
154
148
171
161
155
179
170
165
172
162
156
164
150
139
185
164
147
185
159
136
156
126
100
132
96
67
132
100
77
153
124
102
154
120
93
148
113
83
119
81
51
92
53
34
92
54
34
149
114
77
152
119
89
148
120
92
135
111
84
140
126
111
141
133
124
135
128
120
142
140
134
173
177
176
198
201
205
202
206
208
184
186
183
177
166
156
185
162
140
179
150
124
152
124
101
132
100
72
140
110
91
156
132
116
159
126
100
143
107
74
116
79
49
95
58
36
90
52
35
