P3 24 24 255
244
132
164
251
154
187
238
86
103
229
44
53
219
39
50
137
28
35
108
81
80
147
138
133
123
112
105
98
89
81
91
83
77
93
89
81
111
106
98
129
123
118
129
126
122
139
138
136
144
140
139
144
140
140
146
143
142
142
138
137
135
129
126
124
117
112
119
111
106
127
116
110
248
150
178
247
118
140
241
67
80
236
46
57
233
47
53
176
29
39
117
45
49
171
145
138
197
182
171
153
134
123
103
86
77
71
58
51
90
79
73
121
112
108
121
115
111
133
128
125
145
139
136
152
148
145
154
151
148
154
150
148
122
116
112
88
77
67
126
111
97
172
155
143
245
106
132
242
61
78
243
49
60
244
51
60
231
44
52
222
38
47
193
32
41
163
74
79
190
165
159
205
194
183
167
153
141
111
97
88
87
78
71
114
107
103
123
118
114
122
118
115
139
134
131
143
139
135
131
128
122
121
114
107
110
96
84
144
129
111
202
193
176
233
228
218
251
162
195
248
141
170
231
69
85
215
35
42
209
37
46
216
40
49
220
38
47
184
27
39
165
75
85
172
141
143
184
169
163
145
132
123
90
81
73
97
90
86
110
105
101
110
106
103
131
125
122
127
120
114
105
98
90
110
99
90
133
118
104
179
168
149
222
217
205
238
236
230
230
91
113
245
124
156
225
73
91
205
30
37
207
36
45
218
43
51
230
47
57
222
47
60
199
85
100
189
156
157
187
176
167
147
136
126
101
93
85
92
86
82
96
90
86
99
94
89
113
108
102
101
95
87
93
84
74
126
111
98
168
149
131
207
190
171
228
215
202
233
221
208
217
64
84
244
110
142
226
73
92
207
29
38
206
30
40
215
35
43
230
42
51
217
44
56
151
57
66
146
121
117
160
147
136
145
135
123
120
115
107
95
90
86
98
92
86
115
107
101
112
106
100
91
88
81
110
104
94
174
162
149
214
196
178
217
199
178
228
212
194
229
213
195
219
63
83
244
109
141
226
73
94
206
27
36
206
29
38
216
36
45
228
42
51
218
39
49
141
38
46
136
109
104
180
167
156
164
152
142
127
116
109
110
102
97
107
101
95
128
121
113
114
107
101
114
108
101
145
137
127
171
158
145
193
175
157
197
177
155
198
179
159
196
182
164
216
58
77
242
105
136
225
74
94
201
28
37
204
32
42
216
42
53
227
51
62
217
50
61
142
45
54
125
94
92
177
163
155
168
160
152
124
113
103
122
113
104
126
118
111
148
142
131
135
126
115
138
127
115
179
165
151
197
178
163
203
180
162
208
183
163
191
171
152
174
161
146
212
53
71
239
104
134
228
80
100
212
28
38
222
34
44
233
43
53
234
45
53
228
51
63
158
52
65
108
64
64
164
147
140
186
178
170
145
132
119
141
131
121
140
132
123
164
156
144
166
155
140
158
144
130
185
169
156
201
180
166
216
194
174
201
179
159
168
154
136
166
157
145
210
50
64
238
117
146
246
142
174
242
111
132
243
73
88
245
56
71
245
82
100
246
126
149
211
113
135
115
54
63
130
104
101
167
149
139
169
148
135
171
156
141
168
160
151
190
181
170
199
185
170
179
161
143
169
155
136
170
161
136
201
185
162
172
153
136
141
131
118
165
158
147
228
39
51
233
58
72
242
105
128
249
161
189
250
164
196
249
153
183
249
166
196
247
154
181
236
91
111
148
33
43
88
43
45
124
103
99
162
145
132
143
124
109
151
142
133
189
180
169
199
183
171
175
150
142
168
145
123
158
144
110
181
167
146
173
158
142
176
167
151
209
202
189
223
44
56
237
90
111
244
128
156
248
146
174
247
134
160
244
115
137
245
130
155
246
143
169
244
127
153
210
79
97
102
33
39
79
58
60
142
126
117
123
108
94
163
153
142
191
180
169
162
145
132
166
147
137
166
149
137
145
131
119
145
136
123
175
168
156
203
197
185
199
190
178
215
49
63
244
125
153
243
131
159
233
61
78
237
45
56
236
41
51
228
42
54
222
64
79
229
103
126
211
84
100
148
41
51
78
54
55
139
123
117
166
151
138
189
178
166
186
174
163
148
133
121
168
154
139
176
167
155
172
164
155
197
191
182
229
226
219
233
228
218
212
203
189
215
46
62
243
117
144
240
104
125
218
26
38
222
35
41
218
37
43
198
27
34
200
37
48
218
79
100
196
64
80
153
38
44
102
44
48
125
103
102
161
144
138
152
135
125
167
153
145
193
185
179
205
198
187
201
193
183
214
207
201
224
220
214
222
218
212
220
214
207
198
191
183
215
46
64
244
116
147
240
104
129
216
31
40
218
36
41
206
33
39
189
24
29
195
39
49
207
72
93
178
46
62
158
20
26
144
33
41
162
135
131
194
184
175
176
163
152
183
172
162
204
196
187
203
195
187
194
185
180
190
183
181
191
184
183
188
181
179
185
178
177
174
167
166
212
40
56
242
109
138
238
100
124
215
32
40
217
37
42
203
32
38
185
21
28
188
37
48
202
72
92
191
54
70
196
40
51
183
54
67
154
110
110
218
206
196
216
207
195
196
187
174
190
179
167
197
188
176
189
181
169
188
178
172
191
182
179
191
183
181
181
173
171
174
167
164
225
68
87
243
126
155
238
106
128
213
35
41
213
36
41
198
29
36
179
20
27
185
35
46
212
75
96
232
107
132
232
108
130
228
104
129
172
91
106
180
155
149
224
210
199
221
211
196
203
194
179
187
177
164
179
170
158
170
161
151
174
166
160
180
172
168
172
165
160
170
164
159
245
130
157
239
106
129
232
68
84
223
41
47
213
36
41
198
28
36
191
24
32
199
31
43
211
64
82
220
81
102
214
56
73
211
46
60
175
47
63
156
115
114
220
208
196
227
215
198
221
209
194
218
209
195
212
203
189
200
191
178
187
180
169
176
169
161
163
157
150
154
149
142
245
135
158
235
83
97
228
49
57
220
41
46
201
30
38
192
26
34
195
25
33
202
54
69
206
71
89
197
32
43
192
20
28
176
16
25
166
17
31
147
71
79
181
162
155
226
217
202
210
199
184
209
197
182
217
206
190
205
193
179
175
166
155
156
148
140
156
149
141
147
142
132
224
97
116
232
129
149
222
107
119
190
54
54
178
25
28
182
23
29
185
26
33
201
65
80
201
64
77
191
25
33
189
25
33
172
17
24
179
27
40
182
69
88
140
74
81
167
141
135
214
203
190
214
203
188
208
195
179
198
184
168
174
164
152
154
145
137
150
142
135
146
140
131
166
29
34
194
73
88
202
79
95
179
52
50
175
35
36
174
22
27
184
29
35
206
70
88
206
63
78
197
28
36
194
26
34
173
17
24
172
23
35
205
83
106
180
62
78
136
52
55
173
147
141
217
205
194
214
202
187
212
200
183
201
190
174
177
168
157
148
141
132
128
122
113
175
32
39
208
91
107
213
101
114
178
47
45
169
31
30
178
19
26
188
31
38
211
79
97
211
66
81
199
30
36
190
28
33
170
19
23
180
22
33
209
68
89
224
97
122
201
89
109
158
96
102
179
155
149
213
201
188
218
209
192
204
191
173
168
156
144
150
142
132
147
142
130
178
55
60
211
112
126
209
104
116
182
38
42
188
27
28
198
36
43
212
66
78
225
79
97
218
44
61
201
23
34
183
21
29
182
23
28
194
32
34
198
52
54
196
78
77
182
80
69
134
65
52
141
114
106
193
178
167
217
207
193
195
183
170
123
112
104
97
90
82
113
108
97
186
53
60
204
66
81
218
84
102
225
95
114
225
84
102
222
90
106
226
103
118
216
82
87
198
65
54
178
64
44
169
72
42
177
84
41
179
95
42
176
99
48
170
96
44
163
95
35
135
81
38
155
127
111
188
172
162
200
187
177
193
181
169
159
150
137
142
134
122
121
116
104
