P3 24 24 255
66
88
146
66
88
144
74
97
149
76
108
153
82
107
141
154
149
120
199
179
114
193
178
123
183
176
160
180
190
211
155
179
216
128
153
188
124
143
181
141
157
196
150
167
203
153
170
205
164
179
210
166
181
214
124
142
184
86
109
159
69
95
150
65
92
146
89
113
163
134
157
203
76
98
154
66
89
141
95
118
165
113
145
188
107
120
157
184
140
102
229
160
78
229
174
82
231
200
121
231
223
213
202
212
243
189
204
230
198
209
230
210
220
240
211
222
242
208
220
238
202
211
227
207
215
232
189
200
226
157
172
214
98
118
173
66
89
152
83
105
163
108
129
182
81
104
156
81
105
156
121
138
183
148
167
210
166
167
211
183
130
100
203
112
46
205
114
48
204
130
61
212
183
170
208
214
244
221
235
251
231
236
251
231
238
243
226
238
245
226
242
250
228
240
249
229
236
246
217
220
237
185
186
230
114
127
184
66
85
164
62
87
152
59
93
148
69
92
143
97
121
172
143
157
203
167
182
219
175
188
216
208
185
124
247
189
67
249
183
76
231
159
73
212
182
130
209
217
228
202
214
241
224
226
247
236
239
248
228
233
247
223
227
245
215
226
243
198
212
240
162
173
214
114
131
175
77
103
149
72
83
146
80
92
124
72
101
152
59
83
137
77
100
152
115
130
176
134
152
186
139
154
186
192
177
119
239
198
55
243
198
70
249
203
75
237
220
138
216
219
216
203
208
235
221
234
245
225
238
252
226
235
246
231
237
247
220
226
240
182
193
222
121
140
189
83
116
157
78
107
151
113
107
116
150
125
83
122
120
149
57
82
135
63
84
131
93
108
150
157
171
195
188
190
215
208
182
129
224
178
41
222
180
59
233
204
79
243
232
177
244
243
245
239
244
246
238
248
240
235
241
251
238
244
244
230
241
236
221
224
233
209
215
224
186
201
218
162
174
210
133
134
175
159
128
86
202
138
36
157
124
103
70
92
139
84
101
139
146
159
191
209
225
238
230
237
244
231
210
140
241
199
49
242
206
64
236
211
82
247
231
163
249
246
222
244
250
242
246
246
245
248
241
250
242
237
244
221
228
237
211
219
238
215
229
244
210
226
237
215
211
219
198
174
163
186
132
52
215
125
7
183
128
57
102
120
157
133
143
169
193
203
221
217
233
246
216
228
233
227
205
140
238
182
65
239
188
59
243
196
71
246
208
101
245
227
155
219
220
211
204
212
221
238
241
224
229
221
222
223
219
239
227
228
242
222
232
249
206
217
224
217
208
162
209
170
77
195
123
17
216
119
8
192
125
25
156
170
198
172
178
191
176
182
189
174
181
178
203
193
164
206
150
86
212
107
54
214
112
43
223
127
48
235
152
70
224
176
97
152
139
121
129
126
119
218
199
130
211
156
126
203
131
145
220
167
146
239
212
176
230
212
158
232
199
97
225
162
25
219
136
15
219
126
21
200
127
18
172
186
211
182
180
186
134
130
131
90
84
62
197
156
69
208
118
39
210
105
38
210
116
50
205
107
50
209
98
53
193
108
52
125
85
44
120
88
48
217
156
55
209
103
45
174
36
49
182
67
35
238
168
68
239
188
64
233
174
49
243
164
22
226
142
23
213
120
21
198
123
28
149
165
194
170
164
170
105
96
93
53
39
27
177
121
31
216
129
35
218
158
56
169
126
78
191
141
108
203
133
80
217
142
61
201
137
42
191
139
50
207
148
40
195
111
48
176
55
67
167
41
24
229
138
38
222
155
33
181
113
23
218
145
18
232
161
19
225
143
12
192
123
36
116
132
168
138
135
145
56
50
47
36
22
26
132
78
17
191
121
18
188
151
50
133
104
91
178
134
122
177
146
109
196
160
79
233
171
44
216
141
18
154
106
17
178
136
89
195
118
120
162
59
38
184
101
20
157
97
13
124
64
11
141
82
5
189
139
23
232
175
25
198
148
49
68
87
128
89
92
108
49
47
49
29
21
15
120
75
8
176
113
16
219
183
60
174
148
64
171
143
93
134
121
106
148
130
79
223
173
44
209
120
6
144
82
18
154
109
82
159
92
101
132
58
41
144
88
25
133
97
38
126
92
64
142
108
99
128
100
91
179
149
70
200
180
104
43
65
108
57
66
90
41
45
54
21
21
22
88
54
14
145
83
23
218
167
40
240
195
43
230
190
58
215
179
64
224
187
77
206
162
50
163
98
26
140
88
53
139
89
71
139
89
108
147
111
125
184
160
148
161
149
145
156
146
172
198
195
224
153
154
181
124
119
118
161
164
156
41
66
107
42
58
88
37
46
65
27
37
65
58
41
55
96
49
28
155
106
21
202
143
25
228
163
22
242
175
16
227
168
35
145
103
27
141
111
68
172
159
154
189
168
166
206
194
216
207
210
234
217
218
230
190
196
213
179
186
219
204
220
237
199
217
226
172
182
204
189
205
223
24
51
91
26
46
81
35
46
74
32
51
91
36
43
75
49
34
31
80
61
26
113
69
22
184
104
9
217
130
7
219
136
9
198
121
13
193
148
88
166
171
191
160
170
194
189
194
222
182
199
221
204
215
230
215
224
237
210
219
232
213
226
232
217
226
236
215
223
242
218
234
247
15
40
76
19
40
75
28
43
75
38
63
95
27
49
72
21
26
31
32
39
33
67
53
46
180
95
22
219
128
14
228
146
14
238
150
8
218
152
60
113
113
136
98
116
170
161
169
198
172
184
214
204
213
239
223
230
250
225
231
246
220
226
240
220
224
241
217
222
240
211
221
239
16
36
69
19
38
71
21
39
71
33
56
87
29
49
77
22
29
41
28
39
43
59
63
74
171
95
29
225
132
15
229
153
23
238
155
13
222
158
35
90
85
74
49
68
123
140
153
175
183
194
224
203
211
238
211
218
241
215
222
242
210
219
237
206
215
235
201
211
233
197
207
232
17
34
67
20
37
70
17
34
66
22
41
77
31
44
84
33
36
59
25
33
43
65
72
89
159
94
34
218
129
14
228
159
30
233
159
22
234
170
31
136
125
66
74
90
125
141
154
182
187
197
224
186
193
221
187
195
219
191
199
221
195
204
225
190
202
225
186
197
223
190
201
229
21
37
68
22
37
69
16
32
63
18
33
69
32
41
84
36
38
62
5
9
18
36
39
54
143
84
30
212
125
12
226
159
26
227
159
24
243
175
39
184
161
73
121
127
159
155
163
217
177
185
219
164
173
202
180
188
216
189
198
222
193
204
229
184
195
222
176
187
216
176
187
219
24
39
68
22
37
66
23
38
67
22
36
67
24
33
66
18
23
40
10
15
18
16
19
31
136
83
34
218
128
12
234
159
21
242
172
31
248
180
42
204
173
63
129
131
154
136
146
201
152
161
199
168
178
210
183
194
224
190
202
228
185
197
225
168
180
212
155
167
201
157
169
205
15
29
57
15
29
57
18
32
59
17
31
56
17
30
55
16
25
42
15
23
27
24
32
50
123
83
52
212
127
20
233
156
21
248
179
36
243
187
38
218
188
65
158
164
162
129
148
170
139
150
182
154
166
201
166
178
210
182
196
225
168
181
212
140
153
189
119
132
170
130
144
184
12
24
51
13
24
52
15
26
54
15
29
54
16
31
60
38
52
78
33
43
62
33
46
83
97
79
73
194
123
33
225
154
29
238
177
44
228
184
49
210
178
89
134
141
148
110
133
154
142
153
187
145
157
194
162
175
209
176
189
221
151
165
199
114
128
167
89
103
144
102
115
160
12
23
49
14
25
52
15
25
53
14
26
53
17
31
64
53
68
102
58
72
103
38
55
102
81
83
101
143
104
58
171
128
53
196
159
79
188
163
93
165
144
122
72
79
115
54
75
114
105
115
156
133
145
184
146
159
195
157
169
204
141
155
192
101
116
157
74
89
131
79
93
137
