P3 24 24 255
111
122
108
102
116
102
92
98
82
131
130
112
138
140
123
76
81
65
96
104
84
61
63
44
87
91
64
77
82
52
81
84
63
80
82
62
73
74
47
89
93
68
99
105
83
63
68
46
89
94
73
91
96
73
98
106
82
86
98
77
76
88
70
95
108
92
103
116
91
110
123
99
112
124
110
106
119
104
117
122
111
121
118
98
142
143
107
79
82
64
55
59
35
54
60
22
105
110
77
77
82
50
85
89
66
88
91
70
84
87
65
91
95
73
86
90
68
65
69
46
94
97
76
110
113
91
127
130
107
109
110
88
82
83
62
97
101
78
74
76
56
104
114
97
105
117
103
85
97
82
125
127
116
102
97
76
73
75
36
53
57
36
49
53
31
51
58
16
96
102
64
73
78
50
86
89
68
98
101
80
102
105
84
94
97
76
80
83
58
80
84
56
67
70
46
86
89
68
110
112
92
91
87
63
98
91
59
130
120
81
107
100
82
109
117
113
70
82
68
71
78
67
73
71
53
57
50
31
44
42
26
83
86
68
112
117
90
127
133
96
118
125
85
93
97
72
101
105
82
96
100
76
94
97
76
104
107
86
105
109
80
100
105
75
83
85
63
95
98
77
96
98
77
83
86
61
82
89
51
120
109
65
130
126
100
138
148
143
64
72
59
68
70
59
48
44
32
64
58
39
88
88
65
100
104
83
94
98
72
131
137
103
174
181
137
144
149
118
122
125
104
92
95
73
72
75
54
92
95
74
106
111
81
78
83
53
89
90
68
88
93
70
91
94
73
102
103
89
85
92
68
97
89
57
110
107
79
109
118
106
58
61
51
64
66
55
57
58
44
61
59
40
74
80
51
64
73
44
56
60
39
92
97
69
108
114
78
126
132
97
143
149
112
128
135
96
115
119
94
117
120
99
119
123
98
87
92
62
88
95
60
85
96
67
115
120
91
130
128
98
121
125
96
105
104
79
113
109
90
108
106
89
64
64
55
53
54
46
46
48
36
50
52
36
70
77
46
64
72
41
46
49
34
76
79
59
56
59
40
87
90
70
121
127
97
102
108
76
134
137
116
131
134
109
139
144
109
150
156
118
131
140
100
95
109
83
83
88
68
69
66
47
90
90
74
109
108
92
129
122
106
122
114
93
78
80
68
74
75
68
39
41
31
51
53
36
87
93
55
86
92
54
61
66
39
67
73
42
62
66
45
67
70
57
113
119
105
83
90
76
75
80
62
74
80
51
118
125
85
100
105
69
89
95
64
83
92
75
46
52
41
18
18
10
45
46
34
86
84
60
100
94
64
108
101
71
76
79
62
82
84
74
65
67
57
53
56
39
77
83
47
100
107
65
104
113
57
104
115
59
106
117
81
114
124
105
126
137
124
80
91
77
76
87
62
71
82
53
86
92
66
70
73
53
94
95
79
84
88
75
64
69
60
56
60
48
84
88
66
154
153
120
175
170
135
168
166
135
56
59
42
51
53
41
45
46
37
67
71
53
90
98
59
84
90
47
90
101
31
93
105
35
99
110
69
129
140
120
144
156
138
113
126
107
98
110
88
102
114
91
73
79
57
100
103
82
101
103
93
70
71
59
95
97
85
121
125
113
156
159
138
181
181
155
160
157
140
133
134
118
89
93
72
86
90
69
61
65
45
63
67
45
86
92
46
92
95
39
97
102
33
101
109
28
96
106
38
111
120
92
105
113
95
113
121
101
135
143
121
105
113
91
110
115
91
135
138
117
126
122
115
110
106
101
133
134
132
147
147
146
146
146
140
123
124
116
107
107
106
66
67
66
73
77
52
64
68
44
72
75
54
94
96
73
103
103
63
85
83
33
82
81
28
125
128
51
131
138
61
133
141
88
125
130
99
130
135
106
119
124
91
113
118
83
131
136
107
141
143
130
130
131
135
134
137
139
124
126
126
117
117
118
99
100
100
59
61
61
29
30
30
8
8
9
80
84
61
60
63
42
62
65
45
71
74
52
97
96
63
86
82
41
91
91
49
116
123
66
131
139
81
155
165
101
168
178
112
144
152
95
126
123
104
136
134
122
122
125
104
114
115
109
147
153
161
121
125
126
69
66
64
44
40
36
28
23
18
10
8
3
5
7
1
7
11
4
104
107
86
101
104
83
110
113
92
90
92
72
92
91
60
87
84
40
114
114
77
125
131
97
108
115
74
132
139
92
149
155
114
129
134
100
144
140
112
141
140
116
101
104
86
100
101
99
129
127
124
71
67
62
17
13
9
16
13
5
32
31
17
56
58
41
68
71
51
66
75
52
92
95
74
110
113
91
93
96
75
70
73
53
91
91
60
97
95
52
127
128
90
124
130
95
122
129
86
123
130
86
102
107
82
106
107
90
140
135
112
128
128
98
76
79
62
72
73
73
40
41
24
27
32
16
50
61
46
77
87
77
101
112
105
142
150
132
146
151
123
130
140
112
103
106
85
105
109
86
85
89
61
85
90
59
80
85
52
110
115
79
126
132
92
119
127
83
127
134
89
127
134
104
132
142
116
160
157
136
145
136
121
97
95
79
41
42
32
35
40
30
77
89
64
92
105
84
103
117
101
126
139
127
128
141
129
135
149
125
152
166
130
149
163
134
125
128
107
135
138
115
111
116
87
78
84
51
95
102
67
135
141
107
127
134
95
119
127
81
124
132
83
125
131
103
144
155
133
190
186
168
161
152
134
83
81
64
62
62
52
111
118
103
135
149
122
120
133
112
120
133
117
131
143
128
128
140
124
119
132
112
127
141
117
141
155
130
142
145
124
123
126
103
73
78
49
89
95
61
131
137
103
134
140
106
134
140
102
118
125
83
123
130
88
126
131
106
102
110
88
154
152
132
173
166
149
112
110
92
130
132
122
152
156
143
142
154
128
120
134
112
128
141
126
124
135
123
123
135
123
110
122
110
112
123
114
124
138
115
73
75
56
57
61
40
84
89
60
128
134
100
137
143
109
130
136
102
134
140
105
123
129
95
126
131
104
129
133
113
81
85
64
92
94
73
156
150
129
133
126
104
136
129
112
156
150
135
148
155
129
131
142
121
114
126
113
115
126
118
125
136
132
109
120
116
107
118
113
106
119
102
82
85
65
100
104
81
132
137
107
134
140
106
134
140
106
133
139
105
131
137
103
130
136
102
128
132
103
130
134
111
111
114
93
67
69
48
115
107
87
145
133
113
155
138
115
152
139
118
154
157
132
146
153
133
122
133
121
115
127
119
127
138
134
118
129
126
112
123
118
103
114
110
113
116
90
129
133
107
133
137
108
134
140
106
132
138
105
131
136
105
123
128
95
123
130
94
127
133
99
127
131
103
130
133
111
102
104
83
85
82
69
126
121
110
152
143
131
139
128
112
138
133
112
143
142
125
141
146
135
125
134
128
112
123
119
105
116
110
108
120
109
109
120
113
134
140
107
115
120
92
121
126
97
131
136
103
135
140
110
133
137
112
131
136
105
127
133
97
131
137
104
124
129
98
124
128
104
133
137
116
113
115
102
97
95
86
121
113
106
117
108
101
131
121
115
140
135
128
151
152
143
125
133
125
113
124
119
102
113
103
94
106
92
107
119
109
147
157
128
124
134
106
126
137
105
130
138
109
138
142
119
137
141
116
136
141
115
130
135
104
132
137
108
128
133
104
127
136
107
137
146
126
141
148
135
123
125
114
101
99
88
95
90
89
132
125
132
108
108
105
117
122
109
100
109
97
109
121
113
109
121
111
97
110
95
101
112
103
136
149
123
134
145
126
142
152
126
139
145
120
136
139
120
140
143
119
140
144
118
138
141
113
139
142
116
138
144
115
135
148
115
135
148
129
137
149
134
138
147
132
131
133
122
112
112
106
115
114
110
114
116
105
134
138
120
116
123
107
100
111
101
110
121
109
103
115
102
100
111
103
