P3 24 24 255
156
157
134
152
141
118
126
86
64
112
69
45
112
76
54
104
67
45
103
71
53
119
94
80
151
129
106
137
118
96
135
114
95
131
103
79
137
111
91
155
137
125
155
144
136
163
161
149
164
160
141
148
130
108
136
119
99
151
136
118
150
135
119
143
127
110
154
141
125
158
151
136
140
143
122
125
120
106
124
80
59
140
80
42
125
67
32
139
79
43
131
81
53
97
61
44
143
100
71
134
89
58
115
72
47
111
67
45
107
67
46
108
73
57
100
69
58
109
84
70
126
105
86
130
108
89
118
99
81
142
127
111
149
138
122
143
139
124
158
156
141
164
162
148
148
147
123
117
100
82
124
78
54
156
105
69
123
71
35
170
108
66
124
72
36
106
69
47
142
95
68
139
82
50
122
63
32
112
55
30
108
57
32
100
52
30
95
49
33
84
41
23
75
36
18
72
39
27
77
49
38
111
91
80
124
111
98
151
147
131
167
162
145
166
156
138
145
136
107
130
93
63
150
102
76
151
115
93
114
61
41
167
99
68
116
53
25
93
46
30
129
86
63
153
101
70
144
83
49
131
69
38
113
59
30
97
47
22
91
41
20
94
45
22
92
43
21
82
34
23
72
31
21
60
28
18
61
37
26
92
78
63
134
120
104
159
138
120
132
111
84
137
90
56
125
72
39
114
69
45
106
66
51
127
88
68
88
50
30
78
39
25
98
60
36
105
64
38
102
58
31
94
47
21
82
37
17
78
34
16
82
36
14
88
39
13
98
44
15
104
42
17
100
42
18
97
47
22
90
45
22
74
39
24
66
39
30
83
58
49
123
101
73
133
86
51
132
78
45
137
93
66
95
71
54
53
45
34
72
57
40
102
64
38
84
46
27
59
27
15
42
17
8
35
18
11
48
20
7
79
38
19
93
47
26
96
44
20
99
42
17
102
43
17
101
41
13
106
46
15
122
62
29
124
66
34
107
56
32
80
37
23
130
109
81
127
80
45
150
96
63
160
112
85
115
77
60
74
54
44
115
86
70
117
65
37
85
36
16
67
28
15
48
18
8
34
13
6
58
28
12
83
41
19
87
41
19
88
37
15
89
36
13
91
38
13
93
37
10
100
39
10
113
48
16
134
67
27
141
76
39
116
57
31
129
106
79
128
80
46
163
109
76
158
109
82
126
79
56
120
77
51
127
82
56
102
54
30
69
30
13
62
26
12
73
35
22
62
23
11
74
28
11
87
38
15
78
32
9
77
33
11
81
36
13
88
39
14
87
37
12
89
36
15
97
43
21
118
58
28
132
68
31
133
71
34
112
81
57
127
74
43
166
108
76
144
93
63
138
92
61
125
75
41
110
63
33
82
42
22
48
21
10
41
18
8
90
48
30
111
56
30
84
28
7
103
49
27
94
45
18
85
38
15
96
46
25
97
43
18
94
42
17
87
38
15
90
43
19
103
51
23
123
62
28
138
74
36
100
61
39
136
80
53
153
92
62
131
77
45
141
92
57
125
72
40
106
55
32
73
30
17
32
13
6
16
6
0
67
30
17
113
56
31
102
46
21
100
44
20
107
52
21
103
47
20
111
54
29
111
55
25
109
54
26
95
44
18
91
41
16
104
49
20
131
69
35
138
72
35
102
67
51
129
83
63
130
81
54
151
106
74
131
89
57
117
72
42
88
44
25
50
15
7
38
31
26
38
41
35
36
14
10
63
23
13
90
43
23
103
46
19
112
49
20
123
61
30
113
56
24
111
57
22
108
54
22
99
44
18
103
46
23
135
73
44
164
97
61
178
110
71
70
53
43
82
61
50
123
99
77
125
100
74
78
55
38
67
41
22
49
27
12
67
51
41
111
106
92
101
107
92
72
62
52
39
18
6
61
30
11
103
50
27
126
62
35
122
60
30
106
51
21
105
51
22
106
49
19
104
45
14
133
72
40
163
96
65
174
103
67
188
119
77
55
53
49
49
45
42
82
75
64
63
55
41
32
28
22
63
58
48
92
89
78
138
137
125
143
140
123
112
115
98
114
112
99
79
75
59
46
28
12
76
32
14
107
47
23
107
47
17
100
46
17
97
44
20
105
48
17
130
69
31
164
99
59
149
78
44
155
83
48
173
106
67
63
65
56
57
56
52
44
42
36
40
37
28
79
78
68
121
121
110
128
128
117
144
144
132
139
139
124
112
111
100
101
100
92
117
117
103
95
87
75
51
26
15
78
35
18
97
46
19
96
45
18
95
42
19
116
59
24
168
104
62
161
91
49
142
69
33
144
75
40
177
113
78
75
76
63
60
58
50
67
63
54
122
116
99
130
121
101
129
120
100
131
123
103
153
144
124
148
139
118
113
104
87
107
97
83
121
112
92
132
130
111
92
83
70
61
34
20
75
32
16
87
35
17
99
42
20
134
74
40
186
119
78
160
87
46
140
67
28
154
86
48
173
109
73
62
59
50
51
45
40
99
92
85
119
110
95
133
121
97
139
127
101
139
127
102
156
144
118
146
134
110
116
103
84
119
106
89
144
131
109
147
138
112
135
123
99
108
85
64
77
38
22
81
31
14
96
43
19
143
86
51
196
132
90
167
98
56
149
77
37
171
102
62
166
101
62
117
114
84
125
119
94
134
128
99
128
121
89
137
128
98
137
128
97
134
124
94
138
129
99
144
133
106
125
114
92
111
99
80
134
124
99
131
122
97
118
113
89
124
118
96
99
82
69
61
30
20
80
38
15
128
78
41
194
136
91
181
117
73
161
91
48
174
106
64
184
122
81
180
165
119
180
167
120
173
161
114
169
159
110
170
161
111
168
159
110
170
162
112
172
162
113
178
164
118
170
155
111
148
136
93
156
145
104
157
148
105
158
152
104
157
151
105
134
124
96
51
35
27
55
27
16
97
50
21
162
102
62
183
119
77
173
102
60
183
122
79
185
132
91
202
176
130
200
177
130
200
180
133
196
176
127
196
175
124
204
182
132
203
182
131
204
182
131
207
182
131
209
183
133
204
181
133
201
181
135
201
180
134
203
181
129
203
181
127
196
173
131
123
94
67
85
46
25
74
34
11
134
83
51
178
114
72
182
110
67
184
124
81
182
130
90
207
177
133
206
178
134
207
182
136
203
178
133
204
175
131
211
182
137
210
180
136
212
183
138
214
183
138
214
183
139
211
183
141
205
180
139
206
178
139
208
179
136
206
177
132
199
170
128
157
118
78
140
89
53
102
62
36
123
78
48
171
111
69
179
110
66
176
114
71
181
125
86
199
170
126
195
169
124
199
177
130
198
177
130
198
177
132
199
178
134
194
173
128
193
172
128
195
172
132
189
167
130
179
160
124
177
160
126
178
161
126
177
160
125
176
158
128
176
159
131
144
117
88
141
93
58
175
122
83
149
95
54
148
94
53
175
111
67
176
111
69
152
92
54
179
163
113
176
161
111
188
174
123
191
178
127
189
177
127
190
178
128
181
168
118
184
172
122
187
176
131
185
174
131
179
170
126
175
167
124
176
166
125
176
165
128
177
164
131
179
167
135
167
148
118
138
98
66
184
127
82
187
127
84
142
90
56
156
94
54
164
102
59
121
65
28
162
158
102
167
164
108
174
170
114
177
172
117
183
173
119
185
176
122
187
178
124
189
179
125
190
181
128
193
184
132
191
181
129
182
173
120
188
176
127
187
174
126
182
170
121
186
174
125
188
172
126
165
134
94
171
120
83
189
130
93
158
104
65
137
79
44
152
95
57
105
52
17
161
162
103
167
168
108
170
171
112
170
169
110
174
168
111
176
170
112
182
176
119
184
178
121
189
180
126
189
178
125
188
177
124
183
172
119
183
173
117
189
181
123
186
178
120
187
178
121
194
185
126
192
174
122
162
123
90
158
105
71
155
102
56
122
73
41
125
75
44
129
76
40
