P3 24 24 255
133
163
129
123
152
125
123
151
130
153
178
151
218
229
189
207
214
173
206
217
178
108
120
103
1
13
26
50
69
71
112
132
127
97
120
124
88
109
117
50
66
75
0
9
19
53
68
68
129
156
129
115
146
113
99
134
110
85
119
97
94
127
102
73
106
81
51
85
64
42
82
65
114
146
114
122
150
121
112
136
116
141
162
137
215
222
182
185
193
153
179
195
159
92
108
92
1
11
17
25
39
47
73
94
108
67
92
112
58
79
98
32
46
61
2
11
22
55
72
70
101
132
109
108
139
109
90
126
102
75
110
87
89
123
96
68
102
76
50
83
64
41
75
60
99
132
100
111
139
112
106
131
110
130
151
127
213
219
181
175
184
145
153
170
137
100
117
98
13
26
29
23
39
49
41
62
78
51
77
98
46
70
89
40
58
74
23
36
50
54
74
74
78
109
87
99
126
97
88
118
95
54
91
66
72
110
83
64
101
76
46
83
61
42
75
56
99
131
101
91
118
93
102
128
106
123
146
123
203
208
170
166
174
137
138
158
128
137
154
135
62
77
81
35
52
65
40
59
76
39
63
83
45
69
86
44
63
79
55
71
85
60
79
81
68
96
76
95
119
91
89
116
91
61
98
71
70
108
82
59
97
73
49
86
63
52
83
62
101
133
105
88
115
92
92
117
95
99
123
101
190
194
157
162
170
135
118
141
115
134
150
134
80
95
102
45
64
77
59
78
90
49
71
85
74
95
108
59
77
90
69
84
96
84
98
103
75
99
81
105
127
99
102
130
104
80
115
87
65
100
76
46
80
60
51
86
63
50
82
62
107
138
107
93
121
97
90
116
95
89
111
91
190
196
159
162
170
134
101
123
101
101
118
107
52
69
79
59
79
93
74
91
100
70
86
96
126
141
150
115
128
138
77
88
98
102
110
114
91
109
92
85
110
83
81
111
85
80
114
88
53
85
64
44
74
53
51
83
60
46
79
60
108
136
100
87
118
90
95
123
102
88
110
91
180
192
155
169
179
140
112
130
112
83
100
98
38
58
71
93
114
131
98
113
123
98
106
116
173
178
183
190
197
206
117
128
137
106
110
113
112
123
107
74
102
79
57
88
64
64
98
73
52
81
62
57
83
58
48
77
54
39
70
48
103
128
96
71
102
77
89
117
98
71
99
80
133
154
119
157
170
133
119
135
117
70
84
83
62
80
92
134
156
172
121
136
147
132
136
144
217
219
220
229
236
244
150
165
178
115
123
126
127
136
119
103
126
101
78
102
74
72
100
70
49
76
53
63
88
63
50
75
53
41
66
44
98
121
93
59
89
65
74
103
83
68
101
81
114
141
110
140
156
126
103
116
103
61
70
69
81
97
105
127
149
162
134
151
162
179
182
187
246
246
246
215
224
234
131
151
165
99
111
112
119
125
102
111
126
94
117
130
97
104
122
87
66
89
64
60
84
58
50
70
47
78
98
74
87
107
78
75
104
79
75
105
81
77
110
84
114
140
112
139
155
134
90
100
95
46
50
51
46
59
65
101
124
134
142
161
173
221
224
229
252
252
252
208
216
228
122
141
154
101
112
104
162
165
128
170
179
136
159
167
128
131
140
104
79
99
74
66
89
61
62
77
50
69
85
59
101
121
91
99
128
99
102
131
103
101
128
100
117
141
116
122
137
125
59
67
70
25
26
29
17
27
31
71
92
101
129
149
162
225
230
237
252
253
253
203
212
222
119
137
146
145
154
136
225
225
180
203
209
159
174
181
139
149
154
120
76
92
66
85
107
74
127
140
106
92
107
79
104
125
104
111
136
104
120
143
116
134
155
138
132
155
148
83
102
105
26
35
42
13
16
18
29
38
41
60
77
85
107
126
138
214
225
232
251
252
250
184
198
205
115
137
143
143
155
140
219
222
193
202
207
174
173
181
150
183
191
158
164
175
141
189
200
163
227
234
201
192
202
173
105
129
118
109
133
107
113
135
115
124
142
138
79
100
106
31
50
61
13
21
28
6
10
10
34
42
43
73
87
94
83
102
113
186
198
204
247
246
244
166
183
193
125
150
158
132
143
134
190
194
180
207
211
195
208
215
199
225
230
210
247
250
231
248
250
235
251
253
235
250
253
231
146
171
179
131
155
149
107
128
126
74
92
100
32
50
62
12
26
36
9
15
20
3
6
5
30
34
35
83
94
101
94
113
122
178
187
193
243
241
243
169
187
202
139
163
175
148
158
147
220
226
208
241
249
231
240
249
233
238
244
219
247
250
235
247
251
242
244
250
233
246
250
229
156
178
205
141
160
174
88
104
118
50
66
81
17
32
45
4
13
22
7
10
13
2
5
2
26
29
29
87
95
102
104
122
131
181
191
197
244
244
248
176
195
210
145
167
174
132
146
123
160
176
142
181
201
166
187
207
174
189
210
164
207
225
185
200
217
186
191
206
177
173
182
161
137
156
180
111
127
139
69
82
91
34
51
61
7
21
28
2
8
13
5
7
9
2
5
2
17
18
18
74
79
85
98
117
124
176
190
196
236
240
243
171
191
202
137
154
155
104
120
95
105
130
93
128
158
115
138
168
127
135
172
125
147
183
134
144
174
134
107
129
109
74
87
84
118
140
154
93
108
116
71
82
86
22
37
44
6
19
23
3
7
9
4
4
3
1
4
1
11
8
9
68
65
71
98
108
113
163
175
179
229
235
236
173
193
203
143
164
154
113
134
101
124
155
110
141
178
126
127
165
113
129
169
121
140
176
138
99
125
107
57
74
76
53
67
76
117
140
152
106
123
133
70
81
88
15
29
34
10
21
24
4
7
7
4
3
0
1
2
0
8
6
7
68
63
67
102
103
108
149
157
163
226
231
235
174
190
204
149
167
157
132
150
113
139
162
115
169
196
144
149
179
127
117
148
106
75
100
81
44
61
64
50
64
73
55
69
77
113
135
147
107
126
136
66
77
84
16
29
34
12
23
25
4
9
8
3
2
1
3
0
1
4
9
8
35
42
43
92
93
99
152
156
164
227
227
235
197
194
210
158
156
152
156
160
135
142
152
119
176
190
152
159
176
140
97
120
100
25
46
44
40
56
67
54
67
77
59
71
77
99
120
132
96
116
126
68
82
88
20
32
35
13
23
24
3
7
8
1
1
1
2
1
1
7
16
14
15
29
27
54
60
63
99
101
104
153
147
152
173
153
160
146
129
121
132
136
116
101
114
88
131
148
118
120
139
114
51
69
65
23
39
50
46
60
75
51
64
73
48
59
62
83
103
116
89
109
119
77
92
97
31
42
44
18
27
28
4
8
9
0
1
1
2
5
3
14
22
20
16
28
27
61
76
76
97
111
113
94
99
105
106
89
91
127
117
107
140
151
133
113
130
106
126
147
122
111
134
113
31
48
48
30
43
56
43
57
70
43
58
62
30
40
41
69
88
101
87
106
117
90
107
113
54
65
69
26
35
39
12
18
22
0
3
4
3
9
7
20
28
26
23
33
33
96
116
116
144
168
175
132
153
164
141
146
153
148
157
152
140
154
138
136
152
129
132
152
129
96
114
97
19
34
33
28
41
50
37
51
60
30
43
46
15
23
23
62
82
92
81
101
111
88
107
116
68
82
92
48
61
71
36
45
53
5
8
12
8
14
17
24
35
32
32
46
44
103
120
128
134
152
165
132
155
167
138
159
174
137
156
158
141
157
140
138
160
136
135
159
137
73
87
76
9
23
23
24
38
42
26
38
43
17
27
31
9
15
13
62
81
88
72
91
98
79
98
106
74
91
100
76
94
104
59
74
83
21
31
36
26
37
41
26
40
39
34
50
48
63
78
86
92
111
123
101
125
135
93
114
130
101
117
121
148
163
149
146
170
149
135
159
141
49
62
55
2
13
16
16
27
31
12
22
24
5
14
14
3
8
5
