P3 24 24 255
37
39
33
41
43
39
42
45
41
43
46
41
42
46
38
40
44
36
42
48
42
55
62
59
73
82
77
69
79
70
63
73
58
63
72
52
66
75
53
66
76
52
66
76
52
65
75
54
58
70
56
84
99
106
107
123
145
116
131
157
103
116
127
84
95
93
76
86
75
81
91
76
36
38
28
40
43
36
44
48
44
49
51
47
51
48
41
54
50
43
60
58
54
70
70
74
75
77
78
66
69
62
58
62
50
56
62
48
60
67
51
66
71
51
75
79
56
81
86
62
71
77
60
84
89
91
106
115
132
123
137
159
118
132
141
86
99
98
71
81
75
73
82
69
39
41
34
41
42
39
45
48
47
52
58
56
57
50
45
70
52
46
84
63
58
92
79
77
74
66
64
65
59
54
58
56
47
50
54
42
48
52
39
62
58
44
79
70
53
89
79
58
80
62
45
78
54
44
84
72
64
96
100
92
104
113
108
84
94
90
67
77
68
62
72
56
37
39
33
43
45
41
51
56
54
59
70
67
59
60
59
63
52
50
72
53
47
84
64
53
79
60
49
88
69
62
95
78
75
95
82
79
94
80
76
101
80
73
99
76
64
89
67
52
78
54
42
70
50
39
69
62
49
75
82
67
86
98
85
69
80
72
57
68
58
57
66
51
34
37
28
41
42
35
49
51
46
52
59
54
51
55
53
50
52
48
58
56
50
80
69
61
77
60
53
82
62
58
94
74
73
114
93
96
138
113
114
134
103
99
116
88
78
94
77
62
85
77
66
79
79
67
76
82
68
76
85
71
79
90
78
64
74
68
60
70
62
62
72
59
39
42
35
39
42
34
44
46
39
49
52
45
44
46
40
43
46
39
51
54
48
67
69
65
67
64
60
60
51
49
63
51
52
83
69
73
122
99
98
131
99
92
112
91
78
83
83
66
81
89
72
89
98
81
95
103
87
102
108
94
110
116
104
95
103
98
72
82
74
55
65
53
38
41
35
36
39
32
38
41
34
40
43
36
37
40
33
39
42
36
50
54
49
71
77
72
82
83
78
71
64
59
61
50
44
68
54
48
110
86
79
129
102
90
105
88
72
59
61
44
59
68
48
68
77
56
77
86
63
85
93
70
92
100
77
84
91
74
62
68
53
43
48
35
34
37
30
34
37
30
34
37
31
32
35
28
32
35
28
40
45
38
54
61
55
70
78
73
69
72
66
66
62
55
70
59
49
80
64
51
97
75
64
109
91
72
93
83
60
61
60
39
53
58
40
59
66
47
61
70
50
65
75
53
77
88
66
77
85
64
60
65
49
43
48
36
43
49
46
45
51
50
43
50
49
36
42
39
35
40
34
47
52
46
59
67
60
64
72
66
50
54
49
44
43
37
43
36
31
44
35
29
51
39
35
60
53
42
67
66
49
67
71
52
52
60
42
56
65
50
60
70
57
66
77
64
79
89
77
88
96
85
71
78
68
53
59
52
69
80
90
76
88
99
73
84
94
53
62
65
44
50
46
47
53
47
56
64
57
63
72
65
52
56
50
38
38
33
28
23
20
25
18
16
35
26
24
49
44
39
58
58
46
58
64
46
54
65
44
59
71
54
71
82
68
84
95
82
93
104
91
96
105
93
76
84
72
57
64
54
68
79
87
73
86
95
73
84
93
61
68
71
50
54
49
45
51
42
44
52
43
44
53
44
47
52
44
37
37
31
28
24
20
26
18
16
35
26
24
49
44
36
55
56
40
55
62
39
61
70
44
58
68
46
67
76
58
80
89
71
84
93
74
78
87
68
63
71
55
50
58
45
48
55
54
60
66
69
77
82
88
88
93
98
76
80
81
69
75
71
61
69
61
48
58
48
48
52
43
37
36
29
27
23
18
25
18
15
34
26
23
52
46
37
65
62
46
69
70
49
62
69
48
64
72
53
82
88
72
94
100
85
73
82
66
60
69
53
50
58
45
45
52
42
38
42
37
46
49
45
56
59
57
61
65
64
76
82
83
93
100
102
90
99
99
58
68
59
55
55
46
41
37
30
28
23
19
25
20
18
35
29
27
75
61
54
118
97
83
138
117
97
92
88
67
76
83
59
83
91
67
93
100
75
85
97
69
70
81
57
54
61
45
49
55
41
35
36
29
38
38
30
42
41
33
34
35
28
43
47
42
55
60
59
62
69
65
63
69
55
71
67
53
50
43
33
30
24
20
25
21
20
37
29
28
91
70
63
163
127
110
219
174
147
196
163
133
127
114
90
82
84
61
66
76
50
75
86
53
72
81
54
67
73
53
69
74
53
38
39
32
43
43
35
50
49
43
46
47
41
38
42
36
38
43
35
48
53
39
69
69
47
68
59
42
49
39
30
32
26
21
28
24
20
36
29
27
80
59
50
143
103
82
207
150
116
237
177
136
195
152
120
123
105
79
63
67
43
63
72
47
66
73
51
73
78
58
82
86
63
44
46
40
48
50
47
58
61
58
66
70
65
57
60
54
60
63
51
70
71
53
84
79
53
71
61
42
52
46
32
37
34
24
30
25
19
38
30
25
69
50
40
119
82
61
179
121
85
226
158
108
230
167
119
172
135
94
96
90
58
64
74
47
68
78
51
74
81
54
79
85
57
51
51
43
59
59
52
76
79
68
91
94
79
92
94
76
93
93
70
94
89
62
93
83
53
77
69
46
59
57
36
49
47
28
48
40
26
58
44
33
74
51
40
112
75
58
168
113
83
214
147
101
236
161
105
212
154
100
154
127
85
82
87
58
82
93
60
86
98
62
90
100
63
93
90
64
105
102
69
118
115
79
115
116
78
112
114
77
119
117
79
119
112
73
100
90
52
80
71
42
83
77
47
93
87
54
101
92
56
97
82
51
89
67
45
108
76
54
152
105
76
198
132
91
227
148
92
231
155
96
198
145
95
119
108
81
92
96
70
91
98
67
98
104
68
152
151
113
166
162
125
171
166
129
143
142
101
112
116
76
112
116
74
121
121
77
121
116
71
106
96
59
110
100
60
119
113
67
127
123
72
119
111
63
100
86
49
100
76
47
127
88
57
177
116
77
212
137
86
224
148
92
203
143
91
137
115
81
102
97
66
107
106
71
123
120
82
149
154
118
179
184
161
195
199
182
161
167
142
121
129
98
104
115
76
108
118
72
130
133
84
137
133
90
130
124
82
123
119
74
122
123
72
136
136
80
115
108
62
110
94
56
127
100
64
160
115
74
197
135
84
206
146
89
191
146
93
158
142
97
145
135
93
148
136
93
157
145
101
133
144
111
155
167
142
171
185
167
172
184
170
133
142
122
104
114
81
97
108
63
119
127
76
135
136
92
128
126
82
118
116
70
117
119
66
142
142
82
130
128
72
129
124
73
141
132
82
148
128
80
173
141
87
179
147
92
171
151
98
161
159
113
167
161
116
163
154
106
162
154
105
155
167
140
146
159
121
134
147
103
139
151
116
112
122
92
99
107
72
101
106
63
115
119
66
132
131
79
129
126
74
119
118
66
114
117
63
145
147
84
142
145
83
139
143
83
138
142
84
128
125
73
141
130
78
147
137
85
144
141
90
131
140
92
140
145
93
143
144
90
149
149
98
169
176
157
144
151
116
125
133
86
131
141
95
135
143
110
146
150
120
150
150
114
142
136
87
144
136
80
139
132
76
134
131
77
135
138
84
144
149
88
143
147
82
141
145
83
140
142
91
133
135
95
136
135
94
132
133
85
127
133
78
128
139
87
146
154
110
147
153
106
145
150
98
196
202
192
199
204
193
181
188
170
152
162
136
159
169
144
186
195
174
199
204
182
175
173
140
161
155
112
158
151
107
167
163
125
182
182
153
174
177
144
170
174
129
171
173
127
180
181
144
201
208
186
200
206
191
182
190
167
163
174
139
164
177
137
179
189
161
182
190
165
187
194
169
