P3 24 24 255
186
206
210
178
198
200
166
186
190
121
140
145
73
86
83
67
79
74
121
138
143
169
188
200
101
119
119
51
66
57
75
87
83
112
131
129
155
177
191
165
188
216
164
186
211
162
186
208
149
168
176
134
148
146
135
147
151
120
132
138
101
116
112
86
96
91
113
126
128
126
143
149
102
124
105
94
116
94
100
122
103
110
130
114
77
89
77
64
74
63
100
117
102
125
144
133
100
116
107
82
95
83
80
92
77
94
111
101
122
143
145
131
153
159
127
149
149
124
144
139
116
115
105
102
86
76
92
83
80
66
66
60
68
81
66
80
93
77
85
102
83
75
92
74
81
101
71
86
106
73
79
99
67
90
110
68
97
112
78
93
107
76
106
125
80
118
139
86
125
143
103
127
143
108
123
140
95
131
151
106
141
164
122
148
171
128
148
168
126
135
147
117
125
106
85
99
60
47
88
59
50
121
110
84
149
162
121
143
164
116
140
164
112
142
166
116
144
168
107
147
171
108
147
171
110
150
174
111
154
178
116
155
179
118
157
182
117
158
183
115
158
182
118
157
180
119
158
182
119
164
185
119
167
190
124
155
175
121
107
119
82
66
65
48
79
56
45
94
57
47
119
83
74
140
122
94
168
184
124
165
190
119
164
185
125
160
177
131
152
181
112
151
183
111
155
185
115
157
186
116
157
186
112
159
186
110
160
185
111
156
182
112
151
181
113
151
182
110
158
186
117
158
177
118
125
140
94
69
76
52
34
32
26
31
22
21
56
38
36
77
48
45
94
57
50
122
101
76
158
176
117
163
187
116
155
163
115
139
128
108
159
182
122
165
179
118
167
174
113
167
181
116
167
187
122
164
188
125
163
189
128
162
188
128
162
185
131
162
181
122
145
157
104
94
100
66
41
41
29
25
21
24
26
21
25
32
21
19
48
31
30
69
42
42
89
51
43
132
112
85
162
181
129
166
186
126
156
153
114
152
114
109
201
185
149
196
152
117
199
148
108
205
159
117
204
167
128
202
177
144
206
192
164
204
194
167
205
182
158
163
134
108
87
64
54
46
32
32
33
23
28
26
21
25
29
23
21
46
25
21
44
24
15
62
41
31
77
44
38
143
125
109
185
202
156
184
202
151
178
179
145
153
115
102
174
121
94
181
115
87
180
119
86
165
101
80
163
97
79
171
108
85
181
120
95
173
113
95
157
93
77
132
77
56
83
47
40
48
31
30
35
24
20
40
24
16
59
33
22
57
28
18
68
57
33
116
111
82
85
64
54
149
137
119
176
193
141
161
178
134
129
137
111
139
110
93
129
71
47
123
71
49
110
64
44
90
50
37
93
51
36
116
67
47
130
77
52
129
72
53
112
56
47
99
52
38
94
54
45
70
39
32
50
27
15
57
33
18
69
34
21
62
39
20
130
138
90
163
179
128
93
85
67
116
109
90
168
185
134
102
114
92
34
44
47
99
83
84
75
34
17
69
34
22
80
40
30
76
42
33
69
34
26
77
39
31
82
44
33
79
43
33
75
41
36
74
42
35
85
50
44
85
45
41
73
36
29
66
35
28
60
35
21
112
109
71
168
185
124
164
182
124
93
96
64
90
86
59
143
140
112
39
45
45
15
27
44
39
40
57
63
27
13
62
31
19
77
41
26
67
35
23
68
33
24
76
37
27
77
39
29
71
35
26
63
30
21
63
34
23
71
43
32
80
46
32
90
50
35
77
40
30
93
74
48
156
171
116
164
187
121
163
183
119
148
164
112
143
140
105
133
115
94
58
54
48
21
27
38
22
31
48
73
33
18
64
31
16
68
38
18
65
31
16
80
39
25
89
42
26
86
40
24
75
35
21
65
32
20
64
35
24
71
41
28
78
43
24
94
54
33
87
48
32
116
92
64
160
157
115
162
166
115
164
167
113
166
167
119
167
163
130
159
150
113
147
143
116
41
44
47
10
18
33
77
38
23
63
33
18
55
36
18
62
33
19
85
46
26
94
48
25
94
46
26
88
46
26
75
42
27
64
35
24
75
43
30
68
35
21
71
33
18
77
38
29
123
98
76
185
176
146
188
183
150
184
181
144
185
182
147
172
170
138
182
182
141
161
161
130
36
44
45
10
21
32
72
36
20
50
25
14
24
14
5
61
40
29
92
59
39
84
45
20
89
46
25
89
47
25
72
39
23
55
26
15
67
34
19
59
30
12
56
25
6
69
35
23
156
132
109
198
183
153
196
183
152
189
179
147
193
183
151
197
181
152
192
180
152
171
158
143
40
41
47
11
21
30
63
32
11
45
26
15
26
14
6
135
116
102
192
168
149
129
101
82
103
69
52
91
58
36
86
53
38
77
50
33
70
36
21
66
34
17
56
28
10
113
84
70
231
200
185
241
207
187
241
207
186
241
208
186
241
209
186
241
210
188
229
199
182
205
183
171
83
77
79
50
53
60
80
58
30
71
59
40
52
36
17
159
154
109
205
206
154
199
196
146
186
178
128
166
158
109
181
168
128
192
181
140
133
108
79
70
32
17
68
44
22
178
165
132
233
217
182
227
208
176
231
212
179
232
213
179
229
211
174
226
212
171
225
208
171
175
164
135
66
64
60
49
54
61
110
97
62
77
65
37
84
68
33
152
163
93
153
175
95
155
174
95
166
181
103
168
184
105
176
189
117
186
197
127
140
127
80
70
31
12
91
73
38
171
177
117
179
189
121
179
187
120
178
186
119
178
185
117
176
185
114
175
185
114
179
185
119
153
159
110
50
56
48
22
32
39
103
92
57
72
51
22
118
105
59
152
164
93
141
162
86
141
162
86
152
170
94
156
175
96
158
177
99
165
183
103
135
125
72
77
40
14
115
104
57
162
179
107
162
181
104
163
181
102
162
180
99
160
178
95
162
180
97
164
181
104
164
181
103
152
167
106
60
69
57
23
33
37
101
87
54
84
52
26
144
136
83
170
177
110
170
178
111
172
182
115
174
182
115
174
181
117
168
178
112
167
179
107
137
124
77
76
47
17
133
129
76
166
182
112
168
179
113
169
180
116
166
179
114
166
180
112
165
179
111
164
175
110
163
178
105
156
171
107
70
78
61
40
47
48
132
122
77
98
74
41
156
153
94
174
181
116
172
177
113
172
177
113
174
179
114
173
176
115
174
178
118
179
182
118
134
124
82
71
55
27
153
154
98
176
186
119
178
182
123
177
183
123
175
184
122
173
184
121
170
182
119
169
180
116
169
181
116
167
181
119
89
98
74
52
60
57
154
148
92
104
92
54
150
145
92
169
176
113
165
171
108
164
171
108
169
175
113
169
174
114
170
176
115
178
181
116
137
131
83
86
78
44
167
171
111
174
184
116
174
180
118
172
179
117
171
181
118
170
181
118
166
178
115
167
179
116
165
178
117
169
183
124
108
118
93
56
66
58
167
166
102
108
107
67
133
126
86
169
174
115
163
173
111
167
177
115
169
178
116
171
179
119
172
181
119
179
186
120
145
142
93
108
103
66
167
172
111
167
178
109
164
174
108
163
175
111
165
176
115
164
176
114
160
172
111
161
174
112
161
175
115
163
179
120
106
118
95
65
76
67
165
169
107
107
108
73
104
101
69
160
167
108
155
167
105
158
169
108
157
169
107
157
167
106
158
169
109
165
174
115
118
117
78
102
101
65
159
166
108
157
169
105
155
170
104
154
170
106
150
165
104
156
168
108
162
173
113
160
174
108
156
172
106
156
174
110
102
116
89
60
73
70
159
167
104
122
124
85
82
83
51
144
154
95
148
162
98
150
163
99
151
163
99
152
163
103
151
162
104
156
164
110
93
94
60
81
83
52
157
165
112
154
166
103
151
166
101
150
165
102
149
162
101
152
163
103
154
164
104
149
162
96
143
157
90
145
162
93
98
112
81
51
63
64
