P3 24 24 255
220
219
218
234
234
234
241
241
241
245
245
245
247
247
247
247
247
247
248
247
247
247
245
246
243
241
242
237
235
236
229
227
228
219
218
217
209
208
205
198
197
193
189
187
183
181
177
174
175
170
164
172
164
160
168
158
154
167
158
152
166
157
150
165
155
149
164
153
148
163
152
148
233
232
231
243
243
244
247
247
248
249
249
249
251
251
251
250
250
250
249
248
248
248
246
246
243
241
242
236
234
235
227
225
226
216
215
214
206
205
202
196
194
192
190
184
182
183
175
164
178
168
160
176
166
163
170
161
158
170
162
156
169
161
155
168
159
155
167
157
153
167
157
153
242
241
241
248
248
248
251
251
251
252
252
252
251
251
251
251
251
251
249
249
248
246
246
245
241
241
241
232
232
233
222
221
222
211
210
210
201
200
197
193
191
189
181
171
153
164
145
95
162
141
104
170
157
148
173
166
162
171
166
162
170
167
162
171
165
162
171
164
161
171
164
160
247
247
247
250
250
250
252
252
252
252
252
252
251
251
251
250
250
250
247
248
248
243
244
244
237
237
236
229
228
227
217
214
213
208
206
203
200
198
193
193
190
182
175
166
134
161
142
80
167
148
99
152
142
125
171
165
159
179
173
167
177
172
167
176
171
167
175
170
167
175
170
166
249
249
249
251
251
251
252
252
252
252
252
252
251
251
251
248
248
248
243
245
247
238
240
242
229
228
226
197
194
189
175
169
164
161
155
149
152
146
138
147
142
135
159
148
138
183
164
143
140
125
110
92
86
78
128
124
114
166
159
150
181
173
164
185
180
173
182
178
174
181
177
175
251
251
251
251
251
251
251
251
251
251
251
251
249
249
249
246
246
246
240
241
244
233
233
233
165
163
157
93
89
78
71
64
54
57
49
40
63
54
45
45
38
30
90
80
75
127
112
109
37
28
26
23
21
14
46
42
31
69
62
51
115
106
94
169
165
155
191
188
184
190
186
185
251
251
251
251
251
251
250
250
250
248
248
248
245
245
245
241
241
241
238
237
236
174
171
167
78
77
66
87
86
70
62
57
43
50
44
32
78
70
61
35
29
19
108
102
90
63
52
48
9
3
0
22
20
11
58
55
45
35
31
19
45
40
25
96
94
80
188
186
182
199
197
197
249
249
249
249
249
249
248
248
248
245
245
245
240
240
240
234
234
234
187
183
178
91
87
75
88
89
71
94
97
76
57
55
41
62
58
46
47
42
34
54
51
42
138
134
122
92
83
76
67
60
52
25
21
15
54
52
45
65
66
54
66
68
52
82
83
67
151
150
145
209
207
209
245
246
246
246
245
246
243
243
243
238
238
239
234
234
233
206
204
204
116
109
102
99
92
79
120
118
101
95
95
77
74
70
58
69
65
54
28
25
16
94
90
82
135
130
119
175
166
155
138
128
117
35
28
18
47
43
31
76
73
57
73
71
52
91
87
65
124
116
106
216
211
213
239
240
240
239
237
238
234
232
232
227
227
225
227
225
222
207
203
199
174
166
158
187
178
169
195
188
178
190
184
175
184
177
169
173
166
156
144
139
127
181
176
163
135
126
109
151
138
115
157
145
122
114
104
80
122
110
85
126
112
86
120
105
77
118
101
69
135
114
92
212
202
201
230
228
227
227
224
222
223
221
216
223
223
214
228
226
216
232
228
217
234
230
219
236
232
223
240
236
227
242
237
228
242
234
224
238
230
217
226
219
201
211
203
181
168
154
126
135
117
85
151
133
102
156
139
108
151
133
100
147
128
94
147
126
90
140
118
80
146
122
92
203
193
186
216
212
207
212
208
200
219
217
208
226
224
214
234
232
220
238
234
221
242
239
228
242
238
229
237
232
221
230
224
211
226
218
203
227
217
200
212
202
180
177
165
136
154
135
98
140
116
77
133
109
74
138
116
82
140
118
80
146
123
82
150
127
86
148
126
86
157
134
99
209
200
187
184
177
168
149
143
131
136
132
124
134
129
125
129
124
118
183
179
171
202
193
186
187
174
166
170
156
144
156
142
125
183
173
151
215
205
186
151
140
120
130
117
87
136
114
74
142
116
73
147
121
80
150
125
87
156
132
90
163
140
94
159
137
95
136
117
83
161
142
106
212
206
188
167
157
143
93
85
71
41
36
30
41
34
32
42
37
33
169
165
159
133
123
115
117
102
90
144
127
108
154
136
111
182
171
141
156
147
128
35
28
20
67
57
39
140
120
83
148
124
80
152
129
84
158
136
93
163
142
96
169
150
103
150
131
96
66
54
35
137
125
96
211
208
191
191
180
162
149
140
125
79
72
65
83
74
68
138
132
123
218
216
204
189
183
169
182
171
153
199
185
159
189
174
140
186
176
138
94
85
69
15
11
11
32
27
20
128
112
81
152
131
89
156
137
89
163
145
100
168
152
105
175
161
117
134
121
94
54
49
40
123
117
95
211
210
195
195
182
163
137
128
113
87
82
73
105
97
89
190
184
171
232
225
203
226
220
195
222
216
186
203
194
156
179
166
123
169
156
116
88
82
69
58
57
57
49
47
43
114
102
73
157
139
96
162
146
101
170
156
113
176
163
120
181
170
132
127
120
100
89
87
82
128
125
109
204
203
190
130
118
101
62
53
40
49
45
37
52
46
40
120
113
102
195
183
155
184
174
151
184
174
148
189
177
139
168
153
110
149
134
97
92
87
79
101
102
101
70
69
64
113
106
78
167
152
109
175
160
122
187
174
139
191
177
142
191
181
151
118
114
100
105
101
98
151
147
136
198
195
182
85
75
60
42
34
25
27
23
18
20
15
11
18
12
6
116
106
81
69
59
49
58
47
39
165
151
118
158
141
96
131
117
83
85
81
74
131
132
129
69
66
63
126
119
98
181
167
132
177
163
134
179
167
140
187
174
148
172
162
139
87
83
74
101
96
91
167
161
150
190
184
172
144
135
123
92
85
75
63
58
52
57
53
46
52
49
39
133
126
103
89
83
65
77
70
49
156
144
101
153
137
88
134
123
95
129
125
121
138
138
135
87
83
83
109
103
89
145
132
109
137
125
106
129
120
101
134
122
105
107
98
84
28
24
21
71
65
61
135
127
117
151
144
133
168
162
153
113
107
99
59
54
49
57
53
48
74
72
62
121
116
98
117
113
91
125
120
93
120
109
78
109
95
67
90
82
66
85
82
79
99
98
94
60
56
59
44
39
33
46
38
26
37
29
20
39
33
22
51
42
33
56
47
40
31
28
26
71
66
62
142
135
127
174
167
159
160
155
149
132
127
122
46
40
37
4
1
0
19
19
14
64
60
51
48
43
35
42
37
28
34
26
20
27
18
17
18
14
11
47
44
43
88
85
81
29
24
28
12
7
6
21
16
10
35
30
26
62
58
52
98
91
87
132
124
122
147
144
143
173
170
168
216
212
208
236
232
228
159
156
151
133
129
125
76
70
70
36
33
35
28
29
27
29
27
24
20
15
14
14
10
8
10
7
6
7
6
5
9
9
7
32
30
30
62
59
54
61
56
61
82
77
76
112
110
104
145
142
140
179
177
172
208
203
201
225
218
217
227
225
222
226
225
223
228
227
227
227
225
225
216
215
213
197
195
193
178
175
175
162
161
162
143
143
143
129
128
128
118
116
114
109
107
103
99
98
93
94
94
89
105
106
103
128
128
126
150
150
146
175
174
175
190
188
187
199
198
196
206
205
205
209
209
205
209
207
203
205
202
198
202
200
195
198
198
196
196
196
195
194
192
191
221
221
221
217
217
217
213
213
213
209
209
209
203
203
203
199
199
199
195
195
192
192
191
187
189
188
184
187
187
182
186
187
183
190
191
187
191
192
188
187
187
184
185
185
183
182
181
179
178
178
176
175
174
171
174
173
167
172
170
165
170
166
162
165
163
160
162
159
156
159
155
151
