P3 24 24 255
79
103
130
82
105
136
88
105
142
80
105
139
70
105
136
53
95
125
54
93
126
61
94
129
73
104
136
76
108
136
81
110
142
73
98
134
71
98
131
75
102
134
91
116
149
120
144
177
141
164
196
157
181
213
161
183
216
164
180
215
163
179
214
163
179
214
160
178
214
158
176
213
74
99
121
80
102
127
89
101
136
74
96
128
65
100
128
66
105
137
53
91
127
47
85
120
54
92
127
60
98
133
73
104
141
76
101
140
62
97
133
65
100
136
68
96
134
75
100
137
86
112
146
111
137
172
146
170
206
158
176
213
165
182
219
160
177
214
155
175
214
154
175
216
72
100
121
79
103
127
87
103
135
72
97
127
54
89
115
62
98
129
60
96
130
50
86
121
46
85
118
50
93
125
59
99
132
65
101
135
62
99
133
65
100
135
72
100
137
74
101
136
73
102
134
71
100
131
91
118
152
104
126
167
132
153
195
149
170
212
155
177
221
154
177
222
63
94
114
72
101
122
78
104
129
70
99
123
58
93
115
57
92
120
63
96
128
62
95
127
52
89
119
48
93
121
52
98
125
52
97
124
59
99
128
65
100
131
71
100
133
69
99
129
65
99
126
67
101
128
67
100
130
65
93
133
68
95
137
89
116
157
115
142
186
127
154
199
51
86
105
60
95
114
64
97
116
63
98
116
63
98
116
67
98
124
67
96
126
67
96
125
64
95
124
60
97
124
58
100
125
53
98
122
55
96
122
61
97
124
64
93
122
61
93
119
58
96
118
58
96
118
57
95
118
58
94
123
54
90
121
54
90
120
58
91
125
65
97
133
43
79
96
42
79
95
47
85
100
50
86
102
57
90
107
62
91
114
63
90
117
61
88
115
60
86
112
58
85
112
48
82
108
42
82
106
44
84
109
49
85
110
54
84
111
53
86
109
48
88
106
47
87
106
49
90
109
49
91
110
51
92
110
50
92
110
52
90
112
52
88
113
30
61
73
36
67
72
60
90
100
69
87
102
71
87
103
74
96
113
73
98
112
58
81
93
49
69
79
80
102
118
67
97
123
50
80
108
57
89
119
52
84
113
55
84
110
52
85
108
48
84
106
45
83
105
44
86
109
50
86
105
53
89
101
49
84
102
49
82
104
49
83
106
57
82
100
57
83
94
65
78
91
77
74
93
99
96
115
91
105
123
85
101
118
82
89
103
85
91
102
95
116
132
96
127
157
91
117
150
89
115
148
81
114
147
71
112
145
47
91
122
42
80
106
47
79
100
51
79
97
54
77
91
49
72
78
53
75
88
51
75
96
49
77
100
32
67
90
25
64
86
26
40
55
59
59
77
99
103
120
51
79
97
50
77
98
60
66
89
75
77
97
40
62
85
52
86
121
64
93
126
31
55
84
28
66
101
44
103
147
56
117
158
36
86
117
45
74
92
65
73
80
55
61
64
39
48
42
45
53
54
31
45
57
40
61
78
36
87
103
34
88
106
30
59
69
90
109
120
82
109
118
45
96
107
48
97
111
62
91
106
59
77
93
27
54
76
38
76
105
45
78
101
46
69
92
17
57
89
17
82
128
48
119
163
62
125
163
46
83
109
54
56
61
37
33
30
23
22
11
20
18
13
5
9
14
14
26
35
61
92
104
57
87
102
79
94
108
124
134
149
81
104
115
61
103
113
57
98
107
84
115
122
86
111
118
48
81
95
50
94
111
33
73
81
64
91
109
36
75
103
19
79
117
30
102
142
50
127
172
74
125
165
47
55
69
29
24
20
28
25
12
22
19
12
8
7
8
7
10
13
125
124
134
121
117
130
153
143
160
152
141
159
123
124
139
108
119
133
97
109
121
125
135
144
121
134
142
74
100
110
73
108
118
62
93
98
67
91
106
59
90
112
25
68
96
18
75
107
25
95
140
61
118
168
73
98
130
45
50
54
23
24
19
12
7
6
8
5
3
21
18
11
212
206
208
207
202
207
203
192
198
194
184
191
185
178
186
175
171
183
163
160
174
168
165
178
151
151
164
129
133
148
120
126
141
119
124
138
92
100
113
55
67
83
67
84
105
37
63
89
37
73
110
58
103
153
85
129
180
106
133
162
88
104
127
49
54
76
27
30
37
38
31
20
248
242
241
246
243
245
232
223
225
216
207
208
235
225
227
224
216
222
214
207
216
203
195
205
190
183
193
190
186
198
179
175
187
171
166
178
140
133
145
97
93
108
148
148
166
130
138
161
98
114
146
92
116
161
89
120
172
106
137
183
114
150
195
109
150
196
105
133
173
87
92
118
243
235
232
254
248
248
246
238
238
235
224
220
248
234
227
250
237
235
249
239
241
245
234
235
204
192
195
225
213
219
235
223
228
225
211
217
218
198
205
203
185
195
194
181
194
184
177
194
167
167
191
144
148
182
118
124
164
94
104
143
76
101
142
68
111
155
77
127
183
93
136
190
112
99
95
135
126
124
196
189
186
223
210
201
227
207
191
230
211
200
230
213
206
234
217
210
234
218
212
243
226
224
250
232
230
249
229
227
249
224
223
244
221
222
231
212
217
222
209
218
181
172
186
150
141
161
168
158
182
156
146
168
123
121
144
82
90
115
35
77
119
22
84
135
49
33
27
108
98
94
104
98
93
181
165
153
198
173
152
206
182
165
210
187
175
201
179
165
222
198
187
232
205
198
226
198
191
226
198
191
227
201
193
222
201
195
223
206
203
186
175
175
68
58
62
48
36
44
103
92
104
179
177
197
178
170
189
134
117
135
108
113
136
65
97
134
111
100
91
233
224
217
124
116
111
106
88
75
146
115
94
151
121
97
162
134
111
159
131
108
177
146
126
198
164
149
202
168
153
208
174
159
210
175
163
198
172
159
192
176
161
81
71
64
26
18
17
33
23
23
22
14
19
131
131
149
176
168
187
143
124
143
122
116
139
91
109
136
136
129
118
232
225
216
153
142
139
56
37
28
93
64
45
103
73
52
110
82
61
110
82
62
117
86
67
129
96
79
139
105
89
145
110
95
153
116
104
152
124
111
131
115
98
38
30
22
94
86
84
141
134
131
40
34
34
74
69
76
165
155
165
149
134
146
102
100
119
44
63
81
122
117
108
209
203
195
133
124
122
28
13
9
55
33
23
63
40
32
58
35
29
57
35
29
64
40
33
75
47
38
78
51
41
87
59
49
95
67
59
93
70
60
63
49
37
38
29
23
174
167
165
232
225
223
112
105
103
31
27
26
116
108
107
113
100
101
85
77
86
38
44
54
73
71
64
167
164
159
84
78
77
23
13
11
49
37
32
49
35
35
24
10
12
16
3
4
22
7
8
27
10
8
28
10
8
33
16
13
38
21
17
35
20
15
23
12
6
41
32
29
194
186
184
219
211
209
136
130
127
13
10
5
46
38
33
38
26
22
19
7
10
8
8
12
36
37
32
55
55
51
24
19
20
11
7
8
13
10
11
12
8
10
9
5
7
4
0
2
5
0
1
8
0
3
9
0
4
10
1
5
9
2
1
10
2
1
10
1
0
32
23
22
175
167
165
201
192
190
122
115
113
6
3
1
14
6
5
15
2
2
10
0
2
7
8
12
63
65
62
47
48
46
43
40
42
39
37
41
35
35
40
33
34
34
29
29
27
26
25
23
21
20
20
19
15
19
16
12
16
9
5
10
7
4
4
7
3
2
9
2
3
16
9
8
116
109
106
181
174
171
79
73
72
3
0
1
8
1
4
11
1
5
8
1
7
2
5
10
79
83
82
80
82
82
80
78
79
78
76
78
80
79
81
76
73
71
74
70
65
71
67
63
69
65
61
68
64
61
64
59
57
52
48
45
45
41
38
40
36
32
37
32
29
30
25
22
40
34
31
72
67
64
20
16
14
4
2
6
5
2
7
4
1
6
1
0
5
0
1
5
