P3 24 24 255
163
146
125
156
138
118
163
146
125
165
147
126
158
138
116
159
139
117
165
145
122
169
150
128
173
156
135
168
152
131
166
150
128
152
135
115
129
109
90
125
105
82
127
110
83
134
118
94
178
169
155
202
198
191
211
208
206
220
217
219
228
226
232
219
218
222
190
187
183
168
162
154
149
129
104
151
132
107
154
134
110
150
132
106
153
137
109
161
144
117
165
149
122
162
144
118
157
137
112
151
131
107
155
135
110
154
134
110
162
138
117
154
135
105
144
133
104
169
162
154
188
186
188
186
187
185
187
185
181
191
184
181
199
193
188
203
198
195
192
184
183
125
115
108
155
139
113
164
147
121
172
156
130
177
161
134
175
159
131
171
155
127
172
156
128
171
154
127
172
155
129
171
154
128
171
154
128
173
154
128
176
152
127
171
151
125
177
166
149
188
184
182
177
176
182
167
167
170
148
146
142
144
139
130
158
151
140
182
174
163
181
173
162
124
116
106
165
148
123
165
148
123
164
147
121
164
147
123
169
151
128
178
160
137
179
161
139
179
161
138
176
160
134
168
152
126
170
154
128
179
163
136
188
168
140
192
176
159
197
190
186
175
176
175
162
164
167
163
163
166
155
153
150
146
141
131
157
152
142
189
187
180
194
191
184
174
171
164
171
155
132
172
156
133
177
161
138
178
162
139
187
169
147
190
172
150
189
171
149
191
173
151
188
174
150
184
170
146
184
170
146
191
176
152
195
176
155
192
180
171
183
183
184
177
180
183
167
171
172
158
160
159
155
152
146
137
129
118
144
137
128
186
184
178
188
182
173
131
120
108
192
177
154
194
179
156
197
182
159
199
183
160
201
183
161
207
188
166
205
187
165
189
171
149
157
138
116
142
123
101
161
142
120
185
167
146
204
191
180
191
189
188
166
170
173
169
171
172
172
172
170
164
163
157
153
146
136
134
120
106
135
123
110
175
167
158
179
167
153
121
103
85
202
184
159
200
181
154
200
185
162
204
191
174
209
195
182
212
198
185
203
190
176
144
130
116
85
71
56
95
81
65
121
107
91
140
127
113
183
179
175
194
195
196
190
192
193
171
171
172
167
167
163
173
169
164
155
143
133
147
128
107
168
147
124
156
139
123
162
151
132
155
142
125
183
159
129
195
173
144
190
178
157
191
190
181
215
216
217
225
226
227
222
223
224
211
211
213
209
207
210
214
212
215
212
210
213
187
185
187
162
161
162
163
163
163
176
176
176
192
192
192
180
181
178
175
171
168
152
139
131
155
135
112
198
175
145
165
145
125
144
132
121
151
141
130
169
142
118
165
150
133
171
167
164
198
197
201
213
213
213
211
212
213
204
206
209
198
201
204
208
209
214
209
210
216
198
199
204
174
175
180
158
159
160
157
157
157
151
151
151
165
165
165
187
188
184
179
175
169
148
134
125
158
135
111
193
167
132
170
150
123
122
113
104
113
103
95
141
123
104
154
150
144
163
163
166
184
180
181
184
178
174
174
170
167
172
171
171
173
173
175
181
181
185
179
178
183
170
169
174
159
158
162
146
146
147
152
152
152
158
158
158
158
158
158
174
175
170
174
170
163
143
127
117
139
113
88
159
128
92
159
133
99
119
103
78
106
89
65
153
145
135
153
151
155
151
148
150
148
140
133
146
136
126
138
131
124
143
139
137
149
148
149
152
153
157
149
150
154
149
150
154
145
146
150
138
137
138
145
143
142
153
152
151
154
153
152
173
173
169
176
172
166
136
121
110
129
104
80
143
113
78
147
114
75
149
118
76
144
116
73
157
153
144
148
147
146
144
138
137
144
133
126
141
133
122
126
120
113
124
118
117
134
131
133
137
138
139
134
136
137
139
140
142
138
139
140
133
131
128
138
134
131
144
140
137
152
148
145
163
159
157
179
170
164
131
115
98
131
107
81
152
122
87
138
106
66
135
103
62
136
104
63
147
141
131
142
141
139
144
138
137
146
139
134
152
148
142
143
138
133
121
113
109
124
115
112
126
123
121
124
121
119
127
124
122
131
128
126
129
126
124
128
124
122
141
137
135
157
153
150
155
148
142
159
145
134
124
103
82
119
92
61
141
110
74
149
116
80
144
111
75
137
105
69
136
122
110
141
133
127
143
140
137
150
149
148
152
150
148
143
135
129
119
104
93
107
90
77
113
103
94
122
112
104
127
117
109
128
119
111
130
123
119
129
122
120
142
135
133
161
154
152
164
157
149
143
126
114
116
89
70
118
92
63
133
106
72
137
107
73
133
105
73
123
98
69
128
113
102
135
125
119
143
140
138
147
149
147
147
142
137
140
118
112
94
69
55
64
47
25
91
72
50
116
96
74
121
102
80
124
104
83
126
107
89
127
112
97
146
136
125
160
155
149
167
165
160
154
142
134
126
100
81
154
122
90
167
135
94
156
124
84
155
125
87
155
128
93
147
135
119
121
106
96
138
127
121
148
141
131
149
133
121
138
109
99
82
56
44
66
46
26
116
87
58
142
111
81
127
97
67
116
85
55
137
109
75
153
127
93
155
135
110
155
148
135
170
166
165
184
178
171
168
154
147
156
133
109
164
135
91
164
131
93
159
126
90
165
133
96
155
139
120
132
110
92
139
123
101
149
141
122
152
140
127
137
112
97
104
74
52
120
92
63
175
143
108
183
150
114
134
101
66
114
82
47
164
137
99
178
149
109
159
131
97
132
114
92
156
139
130
145
135
117
141
138
130
127
120
117
145
128
102
179
150
115
181
151
116
179
150
114
162
147
138
154
135
122
134
114
96
151
139
124
158
144
131
116
93
74
79
58
36
149
120
86
171
138
101
153
119
81
116
79
40
149
113
73
170
141
101
174
144
105
155
125
89
95
73
46
92
71
49
138
111
74
137
117
90
88
79
72
121
101
79
170
136
95
157
122
82
154
119
78
172
156
144
177
162
150
136
121
109
129
118
108
132
117
102
75
57
39
38
30
20
109
85
60
138
103
66
127
90
51
135
95
54
166
125
83
169
131
89
177
135
89
173
133
94
104
83
63
73
61
47
160
132
105
155
133
112
115
100
84
166
135
104
183
143
103
169
130
90
164
125
84
182
164
151
191
174
162
142
130
117
109
107
98
116
106
89
112
90
70
86
66
52
101
75
58
127
104
81
145
120
94
183
148
112
199
163
126
197
163
125
207
163
124
206
168
134
118
109
100
73
66
64
174
154
140
175
160
148
165
143
121
207
169
134
208
169
134
202
163
128
196
158
123
200
187
177
187
164
148
161
140
116
114
112
100
115
104
90
190
156
127
200
158
125
172
137
110
123
102
88
133
118
104
198
163
129
211
175
135
208
175
136
212
170
139
207
172
136
132
118
103
102
97
96
181
171
160
181
161
141
193
157
124
206
165
127
208
172
137
207
170
136
204
167
133
207
194
185
175
149
132
190
160
130
144
132
114
109
98
86
176
145
114
211
170
127
210
172
131
169
136
109
127
112
99
177
150
125
206
171
134
203
170
131
205
164
130
203
163
124
178
152
129
128
115
108
150
132
113
174
142
111
188
151
116
188
151
118
198
164
130
206
171
138
205
171
137
205
186
178
193
174
164
194
168
148
190
165
143
171
160
146
176
156
136
210
168
129
209
169
131
202
164
130
139
114
96
155
129
110
208
170
136
204
169
131
202
166
131
187
153
123
190
167
149
155
134
120
114
89
65
123
96
65
121
91
63
126
97
71
133
106
77
141
115
85
147
121
92
203
186
173
211
194
186
190
164
153
187
156
135
216
202
186
205
198
188
197
168
143
202
167
136
191
158
128
135
115
89
125
105
79
174
142
112
160
129
98
148
118
87
130
102
77
167
149
135
195
179
169
121
104
85
112
92
65
116
91
67
116
91
69
112
90
65
112
90
66
114
92
67
