P3 24 24 255
179
185
189
172
181
187
166
178
187
165
179
189
164
180
191
165
181
192
165
181
192
166
182
193
168
183
196
169
183
193
171
182
190
174
183
189
176
181
189
179
184
190
184
190
193
184
190
190
192
190
188
206
197
195
211
203
201
210
202
200
210
204
201
202
198
196
199
196
193
199
195
193
166
179
190
162
177
188
160
176
188
160
178
189
161
180
190
161
182
192
160
181
193
160
181
193
163
182
195
165
182
193
167
181
189
172
183
189
185
188
190
192
192
191
195
196
194
191
192
188
200
198
190
207
202
194
204
199
194
204
199
197
203
199
198
196
193
195
189
187
191
185
186
187
162
179
193
162
178
192
161
177
191
161
179
190
160
181
190
159
181
192
159
183
194
160
183
195
162
181
194
164
181
193
168
182
191
176
187
194
192
194
194
197
197
194
192
192
190
184
184
181
186
190
184
185
191
183
178
183
179
178
183
182
179
181
183
179
178
183
178
179
188
178
183
187
166
180
191
166
179
190
165
178
189
163
180
192
161
182
196
161
183
196
163
184
197
164
184
198
165
183
197
166
182
196
170
182
193
174
184
193
175
187
193
172
184
189
170
183
188
169
181
187
172
184
188
175
187
188
174
186
185
174
187
184
181
188
184
186
185
186
182
182
190
178
184
188
171
181
188
170
180
188
170
180
187
167
181
191
163
182
195
165
181
193
168
182
192
169
183
191
171
185
195
176
186
195
180
188
194
186
191
195
188
194
192
190
196
193
190
196
193
188
194
191
187
190
187
175
176
171
154
156
146
143
146
129
146
148
133
153
153
149
173
174
178
175
180
184
174
179
184
175
180
185
175
180
185
172
182
186
171
184
187
179
187
187
192
195
192
201
202
197
198
203
199
195
197
192
188
188
180
179
176
166
175
167
150
171
162
144
163
154
136
152
143
125
148
136
118
131
118
98
111
99
75
93
82
53
74
68
45
62
63
53
129
131
132
177
183
186
178
180
182
177
178
181
179
180
183
181
185
183
179
185
174
184
183
167
196
188
167
194
183
159
182
176
152
154
146
121
128
117
89
123
110
81
119
106
80
113
99
76
107
93
69
114
100
76
115
103
76
100
90
62
101
90
63
93
81
56
86
80
58
87
89
75
140
142
141
175
180
183
196
193
195
177
174
176
173
174
173
157
158
147
134
128
107
130
121
95
146
132
101
134
119
87
168
160
131
156
145
116
158
143
113
152
139
110
142
138
120
142
141
127
142
140
126
145
145
133
133
135
115
128
130
109
144
144
133
148
147
140
161
162
149
166
170
155
174
178
177
171
178
183
193
191
195
188
182
186
181
174
170
168
159
144
143
130
110
139
128
106
163
155
131
152
148
123
164
164
144
148
140
125
171
160
148
180
177
166
170
178
171
174
180
173
176
181
173
169
179
177
154
164
151
161
167
153
168
173
173
164
168
171
156
162
157
143
151
141
161
169
168
165
174
178
118
131
131
182
183
185
179
146
146
146
107
104
192
180
174
203
199
191
202
205
195
191
198
184
182
180
163
139
131
118
143
138
127
156
162
150
152
157
148
156
151
140
155
146
133
127
125
114
131
133
118
146
149
125
146
149
126
141
142
132
136
139
136
121
130
122
132
137
128
127
129
118
72
84
80
124
133
126
156
113
110
81
17
20
121
86
90
166
141
142
174
159
157
178
169
162
211
198
181
208
192
177
157
150
136
103
110
94
106
107
100
115
104
96
105
91
77
109
100
87
127
122
109
115
113
78
112
113
63
121
117
91
140
140
137
127
133
125
113
115
91
112
107
72
115
109
94
116
124
105
126
101
86
87
26
19
74
8
7
85
27
23
101
49
44
117
74
65
141
109
93
168
136
122
171
148
134
147
139
125
136
131
130
128
118
118
98
90
85
126
128
126
157
156
150
125
121
89
97
96
47
123
118
90
138
135
133
122
127
118
104
106
69
97
93
39
135
130
90
130
129
99
68
51
31
61
20
10
67
11
5
71
13
6
76
17
8
76
20
8
82
32
17
98
44
32
114
63
54
130
91
82
139
112
110
144
122
119
133
122
118
130
137
141
154
157
156
147
142
127
126
123
102
143
138
123
125
122
120
103
105
95
104
108
62
95
100
33
102
114
47
115
108
66
54
33
11
53
31
14
73
54
37
81
57
43
82
52
41
87
50
37
103
49
35
108
44
36
96
30
26
91
31
28
82
35
25
80
42
29
90
68
58
97
98
97
141
144
143
133
129
131
133
128
135
148
145
143
147
145
143
120
120
108
113
120
71
109
120
53
98
112
41
102
111
48
93
96
40
91
91
34
97
99
46
107
105
71
118
115
94
121
118
99
135
122
103
156
137
119
170
149
139
160
137
136
138
118
113
124
107
98
109
98
88
120
117
108
173
172
161
142
140
131
115
112
107
102
99
92
89
88
79
88
90
73
82
85
49
87
90
47
100
111
42
95
113
41
100
114
43
100
114
40
95
113
43
100
107
61
86
85
57
91
89
65
111
116
93
100
106
77
121
125
100
129
130
115
135
135
122
144
144
128
144
145
125
152
153
129
152
153
126
135
136
109
112
112
86
96
96
71
76
78
57
78
81
57
71
74
37
69
70
27
95
107
37
91
107
36
97
106
38
97
107
37
90
110
42
112
125
76
76
79
43
83
79
48
113
115
89
88
93
56
80
87
43
59
66
26
51
56
22
55
60
25
65
71
33
77
83
40
80
86
42
74
81
37
77
83
39
75
82
36
65
72
35
69
77
42
100
107
56
101
106
44
90
102
32
87
101
31
98
103
35
123
115
55
132
126
76
133
142
96
95
111
62
99
112
65
137
138
112
99
104
66
84
94
45
72
86
34
59
68
24
52
60
19
55
63
19
62
71
23
79
88
37
90
99
48
100
109
53
100
110
49
70
81
30
44
56
17
77
89
31
84
93
26
89
101
31
88
98
29
106
105
39
130
109
62
160
135
106
117
118
82
76
90
41
119
128
78
167
163
141
83
85
54
37
48
10
33
48
8
41
51
15
51
59
23
56
65
26
45
54
15
33
41
5
40
49
11
56
65
21
68
78
28
50
62
18
36
50
11
60
73
19
66
76
21
88
100
30
89
98
30
107
103
37
92
75
31
78
64
45
62
61
35
82
73
34
158
135
97
177
166
151
111
111
84
57
67
33
23
38
8
17
26
4
21
28
6
32
41
13
31
39
10
18
26
3
19
27
4
31
41
10
40
50
15
37
50
14
41
56
16
49
62
18
55
64
22
92
100
32
95
101
33
100
98
33
89
88
30
69
75
27
73
73
30
120
98
57
141
104
72
92
70
61
93
83
65
73
75
46
28
38
9
32
38
6
42
46
8
54
59
18
49
53
12
33
38
10
26
32
9
26
35
10
32
41
17
37
48
20
42
54
19
47
59
21
47
57
18
93
95
29
94
97
30
94
97
30
91
100
27
91
102
25
95
94
29
106
91
38
81
58
21
53
29
19
64
49
31
69
64
30
65
68
24
88
89
30
97
96
32
104
103
39
99
98
35
85
87
31
71
77
29
53
60
20
31
40
9
22
31
4
24
33
3
28
38
6
36
47
11
90
94
26
95
98
31
99
102
35
96
99
30
93
96
25
97
95
31
99
93
36
86
76
30
70
63
27
78
72
31
85
81
30
97
94
36
109
104
38
112
106
39
108
102
35
105
99
32
102
100
28
100
102
29
96
99
33
86
93
31
68
76
25
55
64
24
43
51
16
35
42
11
87
90
23
91
94
27
95
98
31
97
97
30
99
96
30
98
97
33
96
96
36
94
97
38
92
98
35
96
98
34
102
99
33
110
103
35
111
103
34
112
104
35
115
107
38
115
106
37
110
103
30
106
103
28
104
103
31
99
101
32
93
99
32
87
98
33
82
92
32
77
86
33
