P3 24 24 255
96
109
55
96
109
55
93
106
52
94
107
54
98
111
58
100
115
51
102
115
62
111
122
85
105
116
73
94
107
55
96
109
57
97
109
58
92
105
53
93
106
52
90
103
47
91
103
52
99
110
71
99
108
72
94
104
53
95
105
53
95
105
53
95
105
53
93
103
55
94
103
58
98
111
57
98
111
57
95
108
54
97
110
57
97
110
56
98
112
51
99
111
66
109
119
86
101
112
73
96
107
64
97
109
58
95
108
54
95
107
56
93
106
53
95
109
49
93
106
49
95
106
65
101
110
77
90
100
49
92
102
50
93
103
51
89
99
47
92
101
56
95
103
62
100
113
59
100
113
59
99
112
58
98
111
57
94
107
53
95
109
52
102
112
74
105
114
83
86
97
59
98
108
72
95
108
57
94
107
51
93
106
56
94
104
68
93
105
59
90
103
47
94
105
63
105
114
81
92
102
51
94
104
51
95
105
53
95
106
54
93
103
55
94
103
59
97
109
55
94
107
54
90
102
50
91
103
51
90
102
50
90
103
53
106
119
85
102
112
86
96
107
81
110
121
97
90
103
60
92
105
53
88
100
53
80
91
57
90
102
72
110
124
86
91
103
65
105
114
79
99
108
60
94
102
52
97
104
51
100
105
52
93
102
48
93
106
52
113
131
104
115
133
108
115
132
110
120
137
116
124
143
121
119
141
122
117
138
126
101
113
110
102
111
114
108
124
125
102
118
107
111
127
108
105
122
103
100
119
97
111
129
127
126
143
144
90
105
94
113
126
110
107
122
93
103
115
82
106
114
76
105
110
68
98
105
60
96
105
59
138
166
173
143
170
179
143
170
181
143
171
183
137
172
181
133
171
178
113
142
151
83
98
112
120
128
143
125
143
154
129
155
164
126
155
165
120
149
161
135
167
174
136
161
180
142
160
179
117
138
148
111
138
148
108
135
134
117
141
137
137
156
151
146
161
155
142
153
147
138
147
140
137
152
158
136
150
158
132
146
156
137
151
163
141
164
174
143
173
179
118
147
152
102
124
130
149
160
166
163
173
175
130
156
162
119
154
163
105
138
148
122
160
166
140
164
179
175
185
192
145
164
168
111
143
158
122
152
164
113
139
151
122
143
156
132
148
163
135
150
168
138
153
169
216
211
214
221
214
219
213
206
212
207
200
208
199
197
206
190
199
207
172
191
200
154
177
187
171
182
190
225
220
227
146
163
173
122
151
162
121
147
155
112
142
151
150
166
179
213
207
214
167
178
185
138
168
186
144
169
181
151
168
180
160
172
185
170
180
194
165
172
180
178
182
187
74
75
72
95
95
93
120
121
119
152
152
150
177
176
175
180
186
191
183
198
211
186
202
216
189
194
203
235
231
234
169
184
187
139
162
168
138
154
164
119
140
144
166
182
183
226
212
223
166
185
195
128
164
177
119
141
155
179
186
193
195
196
198
178
184
184
163
171
169
150
156
151
43
46
36
36
40
30
34
38
28
36
39
29
40
42
37
43
47
51
98
107
119
180
192
210
210
212
228
243
234
240
198
202
204
121
131
135
87
92
102
85
99
101
171
185
184
233
218
229
156
174
179
107
136
140
69
81
85
69
71
66
72
71
59
62
65
50
64
72
50
65
74
46
69
75
48
66
73
45
68
74
47
65
71
45
60
64
44
49
52
40
42
46
43
106
117
124
192
197
210
244
235
244
216
213
212
116
117
116
99
98
105
79
85
86
161
170
169
226
210
220
133
148
147
72
93
85
51
56
43
62
66
42
73
76
45
83
89
55
88
96
56
85
94
49
80
89
43
86
95
49
84
93
47
84
93
47
82
90
49
82
87
50
66
69
41
51
61
48
112
122
124
225
221
229
223
220
216
111
110
104
86
85
89
67
69
69
150
156
153
215
201
209
97
109
103
53
68
50
70
75
47
80
91
50
89
102
54
97
110
60
98
106
59
92
99
53
93
105
52
92
105
52
90
102
49
91
104
51
92
103
52
90
98
50
86
93
51
64
72
43
57
61
49
166
160
161
222
219
215
95
93
91
84
84
86
60
61
62
144
148
144
173
172
164
66
73
55
68
77
50
80
87
51
86
96
53
89
100
49
91
102
48
97
106
54
94
102
53
91
104
52
87
100
48
90
103
51
88
101
49
87
97
52
83
92
48
84
93
48
80
88
49
66
69
43
81
78
68
153
151
146
103
103
104
113
114
118
86
87
90
115
117
113
91
96
81
64
69
44
79
85
53
83
91
52
89
98
55
93
102
55
93
103
51
99
108
54
95
104
49
87
99
51
88
100
52
85
97
49
83
95
47
84
93
53
85
93
51
86
96
47
85
95
48
80
87
48
62
64
40
78
79
71
88
90
93
86
89
94
71
73
77
64
66
63
55
59
42
70
77
46
74
82
44
81
89
49
84
92
51
88
97
54
94
103
58
99
108
56
97
106
52
82
94
48
87
99
53
90
102
56
81
93
47
81
91
47
84
93
46
94
104
53
93
103
56
85
93
50
77
82
46
87
90
80
89
92
98
70
75
81
64
67
71
70
72
69
69
74
55
77
84
49
76
85
42
85
93
52
91
99
58
85
93
53
87
95
56
91
99
54
89
96
50
79
90
47
80
92
48
81
92
49
78
90
46
84
93
47
87
97
48
85
95
45
87
96
50
84
93
49
81
89
50
86
96
81
134
148
157
137
145
158
113
122
131
79
91
87
67
76
51
82
91
51
88
98
55
82
91
52
82
92
54
82
91
54
83
92
55
77
84
44
84
89
51
80
91
49
75
86
44
79
90
48
78
88
46
79
89
45
84
93
48
86
95
49
89
98
52
85
95
51
80
89
51
81
94
75
145
166
176
205
214
230
150
164
175
76
94
90
65
77
49
81
89
49
83
94
52
79
90
52
76
87
48
81
92
53
82
93
54
80
87
48
81
85
49
77
88
46
81
92
50
81
92
50
83
94
52
83
93
50
83
92
49
89
98
55
83
92
49
85
95
52
78
87
46
76
89
67
136
157
164
202
212
224
150
163
173
77
95
91
68
79
51
77
85
45
80
90
48
85
96
55
81
92
51
82
93
52
86
97
56
90
96
58
85
88
53
81
92
50
82
93
51
77
88
46
82
93
51
82
91
50
80
88
48
82
90
50
81
89
49
81
91
49
80
90
46
73
87
63
122
144
149
202
212
222
152
166
175
73
92
87
63
74
46
79
88
48
83
93
51
86
97
54
85
96
53
87
98
55
83
93
50
86
92
54
85
89
54
79
90
48
81
92
50
83
94
52
81
92
49
80
89
49
81
90
50
85
94
54
82
91
51
79
89
48
79
89
47
64
76
53
112
129
130
201
211
220
152
167
177
68
86
80
63
75
44
77
87
47
85
96
55
86
97
54
83
93
50
85
95
52
84
94
51
85
92
52
85
90
52
85
96
53
85
96
53
83
94
51
80
91
48
79
90
48
84
95
53
81
92
50
76
87
45
74
85
43
75
85
46
63
72
49
96
105
100
191
201
209
147
164
172
60
77
68
64
75
45
78
89
51
82
94
56
87
96
55
87
95
54
86
94
53
82
91
50
86
93
54
87
94
55
85
96
53
84
95
52
79
90
47
78
89
46
78
89
48
75
86
46
77
87
48
80
91
51
82
93
53
78
89
50
70
81
51
77
87
73
172
183
184
139
155
158
55
69
60
66
75
50
78
86
53
76
86
49
88
96
55
87
95
54
88
96
55
88
96
55
90
96
61
80
85
54
84
95
52
82
93
50
83
94
51
78
89
46
75
86
48
73
83
47
81
91
56
79
89
53
77
87
51
79
89
52
76
89
51
67
80
55
136
147
142
125
142
133
56
69
50
67
73
46
80
86
49
87
95
53
89
97
56
83
91
50
84
92
51
87
95
54
85
91
57
79
84
54
