P3 24 24 255
17
17
8
18
18
9
17
17
8
14
14
6
24
20
16
55
50
47
128
123
120
131
125
123
87
83
80
68
67
64
55
56
55
60
62
63
65
69
71
77
78
84
83
86
93
97
105
111
103
107
116
131
130
139
163
166
167
124
132
124
86
101
88
79
99
87
77
91
81
81
91
81
17
17
6
19
19
8
16
15
5
27
25
17
63
57
53
67
57
55
77
66
64
65
55
53
51
44
42
61
57
56
58
56
58
58
58
62
62
64
68
67
67
71
76
77
82
68
72
78
64
64
75
83
80
93
123
125
130
131
137
134
101
113
104
79
95
86
68
81
73
75
85
76
19
20
8
19
19
10
25
22
16
51
47
42
66
64
59
67
56
52
60
41
37
40
27
24
47
42
39
66
63
60
54
52
57
55
56
63
58
62
67
56
58
62
68
68
72
59
60
64
51
49
54
64
63
68
86
87
93
123
122
124
120
119
114
106
109
100
76
83
75
71
82
72
20
21
10
24
22
15
51
45
42
53
46
44
42
41
37
59
50
46
87
68
63
75
61
57
60
55
52
64
60
58
56
54
59
64
65
72
54
58
62
35
38
41
43
43
46
58
58
60
50
50
52
56
56
59
63
66
69
103
99
102
115
108
108
108
104
100
98
99
93
74
81
69
24
23
13
45
41
35
53
46
42
28
20
19
15
13
11
16
9
7
68
54
49
76
64
61
59
54
51
61
59
57
66
63
68
65
64
70
45
46
48
19
19
20
18
17
19
52
51
54
56
56
59
56
58
61
52
54
55
64
60
63
96
88
93
81
76
80
81
76
72
80
80
67
34
31
22
50
44
38
25
15
13
18
8
7
17
14
12
17
12
10
55
44
40
52
42
40
55
49
49
67
66
64
72
69
73
56
52
56
45
42
41
35
31
30
19
17
18
50
49
53
66
67
72
55
59
62
36
39
38
25
21
23
56
48
53
71
66
72
50
40
39
89
83
71
44
40
31
28
21
17
15
5
3
20
8
8
24
19
20
37
34
32
35
29
24
36
28
27
49
42
43
64
63
62
62
58
62
65
60
62
79
74
70
47
41
37
30
26
26
57
57
60
82
85
90
63
69
73
34
38
35
16
12
12
49
42
42
74
70
70
34
23
23
79
71
61
47
41
34
19
11
7
21
10
8
24
11
11
43
37
39
39
38
36
16
14
9
25
18
18
39
32
34
44
42
43
53
50
53
66
59
60
66
57
51
50
41
36
42
36
35
58
58
60
99
103
110
84
91
97
46
49
47
56
53
49
91
86
79
64
62
52
21
13
11
57
51
45
42
35
29
24
13
9
27
14
11
39
29
26
58
55
56
41
44
41
18
22
14
26
22
19
33
26
27
38
37
36
42
39
42
44
38
39
47
40
37
47
40
37
40
36
35
50
49
52
116
119
126
132
137
144
66
69
68
79
77
74
97
93
86
78
76
65
18
12
10
40
35
31
42
36
29
33
17
13
32
17
13
52
46
40
62
64
64
61
70
66
44
54
42
29
29
21
33
27
25
39
39
36
37
37
36
28
27
28
32
30
33
40
38
40
40
39
40
50
50
54
119
119
126
197
198
204
119
123
123
70
71
70
84
83
80
78
75
72
14
8
8
27
22
18
60
52
42
48
29
25
41
22
20
61
53
50
68
72
70
72
82
75
67
76
64
32
32
23
34
28
25
38
39
35
36
36
35
27
27
28
30
29
34
47
47
50
43
43
45
56
55
60
113
112
119
209
209
214
171
175
174
91
92
90
70
69
66
56
53
49
10
3
4
27
20
15
72
64
49
73
52
46
45
24
24
62
52
54
73
76
74
84
92
83
73
78
65
34
32
24
34
29
26
33
34
30
34
34
33
29
29
30
34
34
38
46
45
48
41
41
43
58
57
62
112
111
118
188
188
194
189
193
192
126
128
125
70
71
64
55
53
46
10
2
2
34
25
21
79
72
55
69
50
43
41
22
22
53
44
46
74
79
74
98
103
92
72
72
59
34
30
23
35
32
29
27
28
23
31
31
30
36
36
37
41
40
44
41
41
44
50
49
52
63
62
67
110
109
117
196
196
202
212
215
218
163
165
164
91
91
85
56
54
45
15
8
7
48
40
36
72
69
54
51
36
29
44
29
27
56
53
49
84
91
81
111
115
101
70
66
54
44
38
32
41
37
35
20
20
16
29
29
28
43
43
44
37
36
40
37
37
40
58
58
60
75
74
79
122
121
128
160
159
168
163
165
174
179
180
184
119
118
116
52
50
43
25
20
18
70
67
61
69
69
59
52
42
35
47
38
31
69
71
61
96
107
91
117
120
104
66
59
48
48
40
35
41
37
35
17
17
13
25
26
24
37
37
38
33
32
36
34
34
37
57
57
59
83
82
87
115
114
121
92
92
102
76
77
93
140
140
150
135
134
136
55
52
47
49
48
43
91
93
84
65
65
58
56
53
49
52
51
44
83
87
75
109
120
100
119
124
104
61
57
44
34
29
23
34
33
30
19
18
15
22
22
20
30
30
29
31
30
32
41
37
41
66
60
62
78
74
75
71
70
72
35
38
42
42
44
52
63
61
68
118
114
116
69
66
62
74
71
64
101
100
90
60
60
55
60
65
62
66
72
67
92
96
86
118
127
106
120
126
105
53
51
38
17
16
9
27
27
23
21
20
18
19
18
16
36
35
33
40
39
38
53
47
50
65
54
57
70
61
58
60
58
54
29
32
30
35
37
33
63
59
59
120
114
113
66
64
60
82
77
70
102
97
90
58
63
57
58
68
64
72
81
74
105
111
98
123
132
111
119
124
105
49
47
35
14
12
6
20
21
17
20
19
17
24
23
21
55
54
52
59
58
56
48
45
49
56
48
51
67
56
53
68
59
57
40
36
33
24
21
15
73
66
63
125
121
118
73
77
73
64
65
61
84
84
81
59
69
63
60
73
69
78
90
81
110
117
103
124
131
113
117
119
104
46
42
33
17
13
7
20
19
15
22
21
19
21
20
18
45
44
42
59
58
56
46
46
49
56
51
53
69
56
53
69
54
51
53
41
38
42
33
24
85
76
68
120
119
113
83
92
90
70
79
80
77
85
86
59
71
67
66
80
76
93
104
94
117
122
106
126
131
116
103
103
93
42
36
29
17
12
6
19
17
12
20
20
17
17
16
14
28
27
24
43
42
41
51
53
54
59
55
53
71
58
50
72
55
46
70
55
45
66
55
42
95
87
72
116
116
108
77
88
89
74
88
92
84
96
100
59
70
69
73
85
83
109
116
107
133
133
117
119
121
109
78
76
70
44
36
31
20
13
8
17
14
9
18
17
14
19
18
16
17
16
14
30
29
27
52
52
51
62
56
49
66
52
38
67
51
33
59
47
28
61
53
34
75
69
48
105
104
93
79
87
93
74
89
96
75
91
93
64
73
74
85
93
93
119
121
114
132
128
113
91
90
80
57
54
50
45
35
32
22
15
10
18
14
9
13
12
10
16
15
14
14
13
11
23
21
19
40
37
32
50
40
28
81
66
45
113
100
73
97
89
63
90
86
64
64
60
38
82
82
71
81
86
96
74
88
96
70
86
86
72
79
81
100
102
102
108
104
101
96
90
85
67
61
55
54
47
42
45
37
33
20
14
9
19
16
12
12
11
8
13
14
13
16
16
16
23
20
17
39
25
19
77
57
36
88
70
46
119
107
87
138
134
110
80
79
64
74
77
67
88
95
94
79
89
98
73
88
92
66
82
81
88
94
96
100
97
96
76
68
67
68
61
63
56
48
43
54
45
37
41
35
30
15
10
7
19
15
12
14
13
10
13
16
15
18
19
16
28
23
16
58
35
22
117
88
55
83
59
36
53
41
31
72
70
55
47
48
42
84
95
96
85
102
108
76
92
97
67
82
83
62
77
76
