P3 24 24 255
94
67
22
93
63
12
116
82
28
88
58
17
105
88
54
142
132
88
110
96
54
112
95
60
95
84
51
80
61
28
99
72
31
102
79
31
91
81
42
103
89
46
115
96
48
107
94
57
88
73
37
89
71
25
73
59
13
65
52
16
71
55
25
86
68
30
82
66
22
81
65
18
96
68
21
90
62
17
99
70
24
84
56
22
121
99
68
131
116
66
95
81
33
134
120
91
88
79
58
90
77
46
94
74
28
117
98
44
158
158
125
125
121
81
98
82
27
103
84
38
98
78
40
78
61
21
77
63
21
58
46
14
54
41
19
60
48
20
62
52
12
74
64
19
97
71
21
92
65
22
85
57
18
77
50
17
88
65
32
109
92
42
91
76
30
92
78
52
111
101
88
127
112
94
71
50
25
81
59
30
114
106
81
106
96
62
91
73
27
71
54
18
56
38
8
71
52
19
61
46
12
51
38
11
47
34
14
58
44
17
80
69
27
78
68
23
80
57
11
82
57
21
66
40
10
69
43
10
95
70
30
112
92
43
76
58
17
79
63
33
145
133
103
130
116
87
61
43
19
74
53
30
76
58
31
66
44
15
77
55
20
62
47
18
64
48
17
61
42
11
57
41
13
57
44
19
47
32
10
60
45
15
88
75
31
85
72
25
72
49
12
56
31
7
61
38
6
91
67
23
145
120
70
111
87
41
87
66
27
112
95
56
136
124
73
155
143
94
175
161
119
200
185
146
184
164
126
143
116
78
118
91
56
89
71
39
108
91
50
85
66
26
76
60
29
74
62
33
48
34
7
63
45
13
90
74
29
86
70
21
95
71
47
58
33
15
61
40
6
114
92
37
152
127
74
102
77
35
160
136
98
202
182
142
216
201
153
224
211
164
229
216
172
241
228
186
201
183
139
140
113
71
157
125
86
154
129
85
143
125
70
112
95
47
73
58
22
77
66
28
66
52
17
80
60
27
94
77
30
87
70
19
102
77
56
66
39
19
60
30
3
109
81
33
138
115
62
115
86
39
194
166
123
228
204
165
227
207
167
224
207
166
224
209
169
237
223
183
199
176
134
130
100
58
144
113
70
156
129
81
148
126
73
146
125
79
131
112
73
112
96
51
90
72
31
79
56
23
71
50
11
73
52
12
128
109
82
82
57
32
69
36
11
75
47
14
124
103
57
124
94
44
200
167
120
230
203
161
231
208
168
229
209
168
226
211
167
240
225
181
204
177
136
136
104
60
146
114
68
154
122
72
148
115
65
146
114
70
143
115
74
141
117
68
135
113
65
115
92
53
103
79
41
82
58
24
159
151
125
132
119
93
89
76
52
63
48
26
116
93
63
101
69
30
196
164
118
227
201
157
226
203
162
226
206
164
223
207
164
235
220
177
201
175
133
134
101
55
159
121
67
190
148
86
179
133
68
156
112
56
141
105
59
131
105
57
128
106
56
132
108
60
133
108
61
122
97
52
103
98
75
162
155
130
111
114
95
94
91
76
121
97
72
100
67
31
197
164
118
222
196
151
222
199
158
223
203
161
220
204
161
233
219
176
201
177
134
136
102
54
171
130
71
223
178
110
210
160
86
179
129
64
146
105
55
133
104
58
128
104
53
128
101
48
121
94
40
123
96
42
82
67
45
145
131
105
93
96
81
114
115
99
126
103
69
107
76
33
200
168
121
222
195
152
222
199
159
220
200
158
217
201
158
232
218
174
203
177
132
146
114
63
165
130
71
197
159
95
212
170
99
188
144
80
150
111
62
133
102
57
130
101
52
131
101
48
125
95
42
120
90
37
98
73
48
106
82
57
89
88
75
121
123
102
155
134
87
134
103
52
205
173
126
218
191
149
216
193
152
211
191
149
211
195
152
230
216
171
203
177
128
149
118
66
162
132
79
171
142
87
181
150
87
178
144
85
151
116
70
139
106
61
135
103
54
130
98
48
124
93
43
122
90
40
121
98
59
105
79
45
121
117
96
142
139
115
172
146
98
139
105
52
206
172
123
211
184
140
207
186
140
204
186
138
209
196
145
231
218
165
200
177
124
147
114
64
162
125
79
169
135
91
159
125
76
159
123
73
150
114
67
147
110
64
141
106
58
134
101
52
125
95
46
118
90
40
184
151
102
167
131
84
113
92
64
121
106
76
173
144
94
134
99
44
209
177
123
214
189
139
225
206
152
219
203
146
208
195
137
231
221
160
211
192
133
157
123
70
168
127
79
173
136
90
161
125
79
158
120
73
153
115
68
149
111
64
147
108
61
144
106
59
136
102
53
126
95
46
207
170
129
186
147
110
79
49
26
79
57
28
172
147
92
138
107
48
201
172
114
187
165
110
217
198
136
225
211
148
205
193
131
232
223
161
229
212
148
187
154
94
178
138
85
172
137
84
164
129
80
161
123
76
155
117
70
150
112
65
152
110
64
150
107
62
147
105
59
140
102
55
101
80
60
103
81
64
64
45
37
80
64
43
180
158
106
134
105
48
221
196
139
227
207
152
196
174
108
224
207
143
253
238
179
255
245
187
233
217
154
181
148
88
179
139
86
179
143
91
170
135
86
167
129
82
158
120
73
152
114
67
152
111
65
150
106
61
147
106
60
143
106
58
79
67
52
81
69
58
63
50
43
81
65
45
165
144
99
129
101
55
222
199
150
206
188
140
199
176
115
201
180
122
230
210
159
239
224
176
233
214
158
208
174
119
203
162
114
205
168
122
200
165
117
199
161
114
196
157
110
192
153
105
187
148
101
182
145
96
179
145
95
173
143
92
53
36
20
58
39
21
66
42
26
79
54
35
119
93
63
100
68
32
117
86
50
93
64
32
130
97
49
123
92
45
136
109
66
128
105
66
125
100
58
129
94
57
149
108
70
154
115
75
145
108
70
151
116
74
153
120
78
153
122
81
154
123
81
141
110
69
142
112
72
144
115
75
42
23
9
68
40
9
73
40
16
80
49
29
110
80
45
97
60
21
126
85
34
143
99
42
143
96
45
134
91
42
132
94
50
113
79
38
83
50
13
61
24
4
118
78
43
136
94
50
118
77
37
151
118
63
180
157
92
167
148
95
89
68
36
45
19
0
51
21
3
53
20
5
75
53
22
139
110
58
107
75
34
71
42
13
82
52
12
97
61
22
129
86
39
144
100
45
121
81
38
145
105
59
132
90
43
122
81
31
121
86
35
96
60
27
127
89
42
134
94
40
173
129
63
208
169
82
241
210
117
228
199
123
94
67
34
41
15
7
48
20
8
51
19
8
148
123
69
212
185
114
154
124
66
88
58
19
82
49
17
77
40
15
75
34
10
89
49
22
77
46
24
92
55
29
120
75
39
148
101
55
169
136
84
112
77
39
133
96
48
182
146
92
172
133
77
156
118
58
129
95
42
115
83
41
61
31
10
39
13
2
44
15
2
50
19
2
175
143
80
210
176
99
149
117
55
99
67
25
106
73
35
87
52
23
83
47
19
62
28
3
49
20
5
56
22
1
100
57
22
168
125
73
165
134
84
79
44
12
125
88
41
187
153
98
126
93
54
85
56
31
62
33
13
69
41
21
84
57
28
106
78
35
124
94
49
148
115
67
130
91
35
170
129
61
119
82
33
75
43
11
86
54
20
99
66
33
106
76
38
78
50
9
86
59
15
101
72
24
114
82
22
150
116
38
137
108
37
113
80
31
137
103
37
153
117
42
147
113
42
158
127
52
174
142
64
185
152
68
191
161
68
203
174
75
214
182
86
222
186
93
163
124
39
169
130
42
159
125
46
158
126
43
162
131
32
169
140
41
174
147
44
179
153
46
185
156
51
194
164
57
196
166
55
201
170
56
200
173
66
198
169
74
198
168
68
200
169
67
202
168
65
204
171
61
204
172
56
204
175
48
202
176
48
202
177
56
205
178
60
204
175
60
