P3 24 24 255
200
208
225
201
206
226
210
212
225
232
228
225
224
222
220
183
188
191
180
187
195
179
182
190
182
184
188
197
194
193
201
193
189
197
194
187
180
178
172
176
173
170
158
157
153
97
99
93
106
106
100
153
149
143
152
149
147
126
131
138
176
181
192
206
212
227
202
209
225
201
209
223
199
204
221
195
197
213
207
207
213
208
207
203
198
198
193
192
195
189
192
195
188
197
194
188
194
197
189
191
192
185
192
188
183
164
164
160
153
153
150
162
162
159
178
178
176
127
128
126
53
52
49
104
101
94
138
135
131
127
131
136
144
149
159
194
201
216
200
208
225
199
207
223
219
219
231
211
210
217
213
215
211
194
200
193
176
184
177
150
162
153
137
149
141
102
108
104
94
104
100
67
76
72
56
59
57
67
68
68
83
84
83
75
76
73
143
145
141
166
167
164
107
106
102
81
77
71
123
120
116
129
133
136
126
132
140
169
176
189
195
203
220
181
188
208
188
188
193
133
135
138
98
103
98
73
82
80
64
76
75
41
56
53
49
64
62
39
48
51
42
56
57
44
57
58
52
58
62
71
74
79
84
88
90
100
105
101
109
113
108
75
76
73
101
100
96
132
128
122
131
129
124
125
129
130
121
127
133
140
148
159
182
191
205
169
176
194
94
98
99
37
44
49
37
46
50
46
54
63
49
58
68
50
62
71
52
64
73
53
60
70
51
63
71
58
69
77
67
71
82
79
83
92
77
82
86
92
98
94
95
101
94
66
66
64
56
55
51
117
113
107
128
126
121
123
127
126
118
124
128
123
132
140
162
172
183
179
188
199
120
128
126
97
108
112
64
75
79
55
63
74
51
60
72
49
59
70
49
59
70
52
59
70
51
61
70
55
64
74
61
67
79
70
77
88
80
85
92
105
111
111
102
108
103
51
53
50
53
53
51
106
104
98
121
119
113
121
124
124
113
118
121
115
123
129
128
136
142
154
161
165
130
141
140
145
158
160
102
112
113
57
67
74
50
60
70
49
59
68
50
60
69
51
61
70
54
64
73
57
67
75
61
71
80
69
78
89
79
86
94
109
114
118
81
85
83
13
17
12
51
52
51
115
114
108
116
115
107
121
122
125
113
116
120
108
116
118
83
91
91
89
93
90
91
102
108
104
118
126
102
112
118
63
73
81
52
62
71
51
61
70
51
61
70
51
61
70
56
66
75
61
71
79
65
75
84
73
82
93
78
85
93
65
70
73
98
103
100
78
82
77
84
85
84
124
123
117
113
112
104
118
120
120
109
113
114
101
109
108
75
82
80
57
62
57
63
76
85
61
77
88
68
80
89
65
75
84
58
68
77
54
64
73
54
64
73
53
63
72
58
68
77
64
74
83
68
78
87
75
84
95
84
91
99
64
69
72
82
87
85
93
97
92
103
104
103
129
128
122
103
102
93
112
113
112
105
109
108
92
100
97
79
86
82
52
57
50
71
87
93
72
90
99
75
90
96
76
86
95
63
73
82
59
69
78
62
72
82
60
70
80
64
75
84
69
79
88
76
86
96
83
93
104
93
101
109
93
98
102
81
86
84
98
103
98
116
117
116
145
144
138
92
91
81
94
96
91
95
99
95
86
94
88
75
83
77
50
56
47
126
141
143
95
112
116
85
99
101
75
85
91
73
83
90
74
83
90
68
77
84
64
72
78
80
87
93
86
93
100
82
89
96
83
90
97
82
88
93
87
90
93
88
91
90
111
116
110
165
166
164
182
181
178
98
97
92
75
78
76
73
79
75
68
78
71
69
79
70
56
64
51
122
129
128
103
111
110
97
104
103
95
100
100
112
116
117
82
86
87
114
117
118
117
117
116
138
138
137
154
154
153
157
157
155
169
169
166
169
168
166
167
166
166
136
136
138
101
104
98
115
118
112
133
133
142
81
83
91
58
66
77
61
71
75
64
76
72
59
72
60
57
71
51
168
168
167
191
192
191
199
199
199
190
189
189
200
198
198
189
187
187
214
212
211
213
212
210
219
218
216
224
223
221
230
229
226
234
232
227
233
232
228
221
219
219
168
166
168
66
68
62
41
46
44
71
77
95
45
56
71
39
54
70
55
69
76
65
76
71
57
66
54
57
68
52
218
213
211
220
216
214
224
219
217
225
219
218
224
217
216
217
210
209
222
217
215
220
219
217
220
219
217
219
218
216
219
218
215
217
216
211
218
218
214
198
196
196
106
104
105
57
58
52
46
52
56
57
68
88
37
54
66
36
53
68
60
72
79
74
81
75
63
66
55
55
61
48
208
204
201
207
204
200
209
205
202
212
207
203
208
203
200
180
174
171
207
203
200
211
210
208
210
209
207
210
209
207
210
209
206
210
209
204
213
212
208
192
190
190
77
75
77
52
53
50
59
63
69
73
80
97
56
68
68
63
72
75
79
85
85
72
75
68
43
42
31
50
52
37
210
210
205
196
197
191
193
193
187
211
209
205
196
194
190
207
205
200
186
185
181
210
209
207
206
205
203
190
189
187
215
214
212
215
213
209
215
214
211
198
196
197
89
89
91
54
56
55
94
94
100
121
120
128
95
96
85
79
77
70
71
70
63
53
52
45
30
28
19
48
46
30
139
139
137
132
133
127
127
128
122
131
131
129
113
112
111
135
135
133
108
108
106
126
126
125
124
124
123
117
117
117
149
149
148
144
143
141
144
143
146
137
136
140
72
72
72
92
91
88
138
136
129
117
114
107
77
74
64
49
47
39
44
43
37
43
42
39
51
49
45
64
63
56
29
30
26
48
48
45
68
68
66
35
35
35
34
34
35
33
33
33
35
35
35
37
37
37
43
43
43
65
65
65
56
57
56
52
56
57
57
57
63
58
56
57
50
45
38
95
85
74
121
114
99
58
54
43
21
19
15
26
26
19
31
30
25
55
54
52
82
81
78
88
87
83
50
51
45
52
52
52
56
56
58
39
39
40
35
35
35
36
36
36
39
39
39
45
45
45
53
53
53
67
67
67
54
56
56
55
63
65
63
65
69
61
57
54
52
41
28
84
67
49
110
99
81
34
30
21
15
14
13
28
28
21
42
41
36
58
57
54
64
63
60
74
73
69
80
81
76
86
87
85
53
53
54
40
40
40
34
34
34
38
38
38
38
38
38
36
36
36
40
40
40
52
52
52
54
55
55
106
112
111
95
97
98
58
55
51
64
56
42
112
99
79
111
102
83
34
29
21
13
12
12
40
40
33
54
53
48
30
29
26
53
52
50
75
74
70
45
45
44
50
51
47
42
43
38
44
45
44
45
45
45
48
48
48
49
50
49
49
49
49
50
50
50
43
43
43
36
36
34
72
73
66
67
67
65
47
47
43
51
51
41
81
78
63
88
85
70
41
37
32
28
25
25
52
52
45
47
47
41
42
41
39
68
67
65
77
76
72
61
60
58
51
52
49
52
54
52
41
43
42
55
57
56
61
62
62
60
61
59
55
53
49
67
65
61
74
72
68
76
73
70
70
65
63
74
70
70
84
81
78
141
139
134
144
142
133
118
116
108
92
90
87
42
40
39
48
47
42
45
44
39
63
62
59
74
72
68
79
76
72
51
51
46
31
33
31
30
34
33
21
24
21
24
26
23
21
23
20
28
30
26
22
21
16
45
43
39
64
61
56
64
61
58
69
64
64
102
97
95
93
88
83
164
159
152
154
150
144
78
75
70
83
83
81
37
37
34
37
36
32
50
49
45
64
63
59
68
67
63
71
69
65
27
26
22
21
23
21
18
22
21
25
27
23
37
40
33
39
41
35
35
37
31
33
33
31
36
36
34
45
45
43
50
49
47
60
57
53
80
77
72
72
69
61
137
134
125
115
110
104
32
30
25
55
54
52
24
25
22
37
36
32
59
58
54
59
58
54
56
55
51
55
56
51
