P3 24 24 255
139
138
118
136
134
118
129
127
111
132
130
114
151
149
132
170
169
151
181
179
160
189
183
162
195
186
161
196
184
154
194
180
148
191
178
144
176
165
132
157
149
118
158
149
119
161
151
122
150
141
115
149
143
121
146
142
122
144
141
120
144
142
121
139
139
119
134
134
115
120
121
104
132
134
120
143
145
134
147
149
138
140
142
129
129
131
116
124
127
109
121
124
105
120
123
104
125
121
98
143
131
100
179
163
129
192
176
143
189
177
143
187
175
139
190
175
137
184
167
130
164
149
118
156
147
126
156
152
134
151
150
132
144
143
125
140
139
121
141
140
122
128
127
109
146
148
134
151
153
142
154
156
144
156
158
145
152
154
139
149
152
134
152
155
136
157
159
141
157
153
130
171
159
129
197
181
147
208
193
159
203
190
158
200
187
153
199
184
148
198
181
144
178
163
132
150
141
117
155
152
132
157
156
137
147
146
128
143
142
124
146
145
127
148
147
129
159
161
147
162
164
152
161
163
151
161
163
149
159
161
147
158
161
143
164
167
148
169
171
153
172
168
145
185
173
143
208
193
159
214
199
165
208
195
163
203
190
160
202
186
152
203
186
151
195
180
147
152
144
116
147
144
121
156
154
136
146
145
127
146
145
127
150
149
131
148
147
129
169
171
157
169
171
159
167
169
157
166
168
154
165
167
152
168
171
153
176
179
160
179
181
163
181
177
154
191
179
148
210
194
161
219
204
170
214
201
170
208
195
168
208
192
162
207
189
155
197
183
148
161
153
122
151
148
122
163
162
143
157
156
138
149
148
130
152
151
133
156
155
137
172
175
161
175
177
166
173
176
164
172
174
160
174
177
162
182
185
167
189
191
173
186
188
170
188
184
161
197
185
155
209
194
160
222
206
173
221
207
176
216
201
176
216
199
171
213
195
162
202
188
153
170
163
128
151
149
121
166
165
146
164
163
145
152
151
133
152
152
134
158
157
140
175
179
170
177
182
173
179
183
174
182
184
172
185
187
174
191
192
177
194
193
179
193
190
176
197
191
172
203
195
166
208
196
163
223
208
175
225
209
178
222
200
171
219
198
167
216
197
165
206
191
157
181
170
134
158
151
120
172
168
148
171
169
151
164
163
145
161
161
146
162
164
150
182
187
180
179
184
177
181
185
177
186
189
178
193
194
182
194
194
180
195
192
179
196
190
178
193
185
168
203
195
167
209
199
166
219
206
176
217
201
172
208
189
155
198
180
144
199
184
147
199
186
148
187
177
138
169
161
126
176
171
148
170
166
147
156
154
135
165
165
149
165
168
154
181
186
179
180
185
178
184
188
180
192
195
184
198
200
187
195
195
181
199
196
183
168
159
147
135
124
107
178
168
142
210
200
172
215
204
179
214
203
177
210
199
163
203
194
154
196
186
147
192
183
143
188
180
139
164
157
121
149
143
118
170
165
144
159
155
135
164
162
143
170
170
153
183
188
181
186
191
184
191
195
187
199
202
191
207
209
196
203
203
189
208
204
190
171
159
147
109
96
79
160
149
125
206
197
172
214
206
186
225
219
199
216
214
182
217
215
180
211
207
173
200
194
161
201
194
160
151
142
112
133
124
99
179
172
149
132
126
105
141
137
118
166
164
146
186
191
184
187
192
185
187
191
183
196
198
188
206
208
195
206
206
192
205
201
187
189
175
162
131
115
100
161
149
128
218
210
188
235
229
214
246
243
228
234
237
213
237
240
214
242
241
217
229
225
201
202
194
172
138
129
106
165
154
128
147
137
112
109
101
79
150
145
124
154
150
130
187
192
183
190
194
187
198
200
193
206
207
199
211
210
200
212
209
198
202
196
183
185
176
155
179
169
148
212
203
186
245
239
226
251
247
237
253
249
238
246
247
228
245
246
225
250
250
230
250
247
228
224
219
201
168
161
141
169
160
136
96
90
68
123
121
103
172
172
155
155
153
136
184
190
179
196
199
190
207
209
200
215
215
205
216
214
202
212
207
194
187
182
165
178
174
145
215
211
187
247
241
228
252
247
239
250
245
237
242
237
225
244
240
222
245
242
223
241
238
219
238
235
216
236
232
213
209
204
183
145
138
116
90
88
69
137
141
127
165
170
157
168
170
155
192
198
186
200
204
190
208
210
195
213
215
197
205
204
185
179
175
155
157
152
129
172
168
141
217
212
191
250
245
233
226
220
211
181
175
165
197
191
177
238
233
213
245
240
219
207
201
181
161
156
135
208
203
182
196
190
168
139
132
109
144
141
123
162
166
152
170
175
161
175
177
162
200
206
193
203
207
191
204
207
190
207
209
190
190
189
168
164
160
139
147
143
119
169
165
141
221
216
198
251
245
234
204
198
189
109
103
90
153
147
128
238
230
208
245
237
214
175
167
144
110
102
79
202
194
171
198
189
165
159
152
129
179
176
158
173
177
163
173
178
164
174
175
160
205
211
199
201
205
194
202
205
193
208
209
196
201
199
184
195
191
175
181
175
157
178
173
154
217
211
196
247
240
230
240
234
223
213
208
191
219
214
191
242
233
207
232
222
196
210
200
175
201
191
166
222
212
187
192
182
157
153
145
122
167
164
146
170
174
160
172
177
164
166
168
152
210
215
204
207
209
202
207
207
200
206
206
197
206
203
193
196
192
179
182
177
163
186
181
162
204
198
182
230
224
213
220
213
201
230
225
208
250
244
223
230
220
198
195
183
161
213
201
178
205
193
169
190
178
154
177
166
142
151
144
121
161
159
140
180
184
168
182
186
172
175
177
162
218
220
209
215
215
204
207
205
193
205
204
190
194
192
176
176
174
156
176
175
154
177
173
149
196
191
168
219
214
195
192
186
169
154
148
134
208
202
190
161
154
145
90
84
73
134
128
113
162
154
136
147
139
117
178
173
149
158
159
136
176
178
157
191
194
174
190
193
175
184
187
172
218
220
209
213
211
199
198
196
183
197
195
180
194
192
174
172
171
150
172
171
149
191
187
164
196
191
169
215
210
189
207
202
183
145
139
123
154
150
137
118
119
109
43
46
34
84
87
71
121
125
103
130
135
108
175
180
153
158
162
139
184
188
167
195
198
179
190
193
176
188
190
176
218
219
208
203
202
190
205
203
190
198
196
182
184
183
165
175
174
153
180
178
157
201
196
176
194
189
170
206
201
182
209
204
185
179
174
154
154
147
131
168
155
146
132
120
110
127
117
102
140
134
112
188
184
156
173
172
146
162
164
143
193
196
177
191
193
178
187
189
175
188
190
179
208
210
199
201
200
188
216
213
201
194
192
177
185
184
166
190
190
169
202
200
180
207
202
184
191
185
168
185
180
161
199
194
174
186
182
160
162
151
133
200
169
164
218
184
179
177
148
136
172
149
130
200
181
156
165
153
129
181
182
163
195
198
182
185
187
175
192
194
184
192
193
185
195
196
185
196
195
183
213
210
197
206
204
189
198
196
178
188
187
167
189
187
167
199
194
179
182
176
161
169
164
146
185
179
158
166
162
137
149
139
117
167
140
131
168
139
130
118
96
80
135
120
97
173
165
134
172
169
141
196
197
180
194
196
183
190
192
181
195
196
188
190
191
185
202
204
193
205
205
192
209
207
193
203
199
184
202
197
179
187
181
162
179
172
152
183
174
156
170
161
142
167
157
136
182
174
149
176
168
139
167
158
132
138
127
109
85
75
57
84
77
53
148
144
115
159
159
124
180
181
151
200
202
187
201
203
192
197
199
188
190
191
182
188
189
181
207
209
198
207
208
195
201
199
186
194
191
175
203
197
180
186
178
160
177
169
150
187
176
156
179
167
146
171
161
137
177
167
140
174
165
136
157
149
121
151
145
123
144
140
118
152
148
122
178
174
145
169
165
133
170
168
141
194
195
181
197
199
187
188
190
178
186
188
177
189
191
180
