P3 24 24 255
252
252
252
252
252
252
252
252
252
253
253
252
253
252
252
253
254
252
243
243
244
218
209
206
216
207
199
231
230
229
216
225
232
225
228
231
234
235
230
228
228
223
200
172
167
182
153
148
221
221
216
214
208
201
204
176
172
216
129
118
218
103
86
218
106
85
222
110
91
220
114
96
255
255
255
255
255
255
255
255
255
255
255
255
255
255
255
255
255
255
215
218
231
167
172
190
200
194
188
155
154
182
116
140
198
192
200
215
228
229
218
220
219
210
183
131
124
157
108
100
210
212
207
206
196
188
187
145
140
204
111
103
211
94
82
199
91
81
190
88
76
186
95
79
228
230
231
206
206
207
205
205
206
199
199
201
193
194
196
201
203
198
151
159
177
118
133
169
176
175
176
117
112
143
75
103
174
172
186
202
215
216
203
205
199
192
177
135
127
154
114
107
173
160
152
166
124
119
147
87
81
156
76
66
163
74
59
155
73
58
157
73
59
160
76
61
69
74
74
42
48
48
39
44
44
66
62
61
58
55
53
46
49
47
41
49
52
22
33
38
30
35
33
31
35
39
26
36
53
54
56
59
61
62
59
55
49
50
76
63
60
109
80
80
122
76
76
130
63
55
137
65
52
149
71
58
163
75
63
162
65
53
169
67
55
167
72
59
37
41
37
24
31
31
17
24
24
60
55
50
56
52
49
25
28
31
23
27
29
10
18
13
12
18
18
15
19
16
13
19
17
13
17
18
12
16
16
11
14
15
14
16
17
16
21
18
14
22
14
42
35
31
64
45
43
48
31
28
55
31
27
73
37
33
100
49
41
116
51
47
68
69
64
65
67
68
58
60
60
77
77
75
71
72
71
56
59
61
56
58
60
45
49
52
20
25
24
16
20
20
16
21
23
14
21
19
14
21
17
12
20
16
12
18
14
13
16
14
13
16
15
33
29
26
43
38
33
14
20
18
12
15
15
25
24
23
33
32
26
38
30
30
152
153
148
161
163
161
165
167
165
183
187
183
185
190
185
184
189
185
181
184
182
105
108
108
18
23
21
13
18
17
12
16
15
11
16
13
12
16
14
11
16
14
11
17
14
16
20
18
28
31
31
30
31
30
21
23
22
20
24
23
18
21
19
14
18
15
22
22
21
26
27
27
227
229
225
210
214
211
218
222
218
202
206
202
195
199
195
204
208
205
171
175
173
56
59
58
13
16
15
13
17
16
12
16
15
12
16
15
12
15
15
12
16
15
7
14
12
35
40
38
87
89
88
73
77
76
30
34
33
65
68
67
63
65
64
58
60
59
44
45
44
38
39
38
202
205
202
119
126
122
161
167
163
106
111
108
69
73
71
78
82
80
56
59
58
16
19
18
12
16
15
12
16
15
11
15
14
10
14
13
10
14
13
10
15
14
6
13
11
31
35
33
63
64
64
59
62
61
36
39
38
75
77
76
82
83
82
80
80
80
79
83
81
88
91
90
214
217
213
84
91
85
57
64
61
31
36
35
13
17
16
12
16
15
11
15
14
12
16
15
11
14
14
11
14
14
10
13
13
10
12
13
10
12
13
9
12
13
9
13
13
12
14
14
12
14
14
14
15
16
14
17
18
21
25
24
29
31
28
26
29
27
33
38
36
44
48
47
249
251
248
169
172
167
45
52
49
16
22
20
18
22
21
15
19
18
13
17
16
10
14
13
8
11
11
8
10
11
8
9
11
7
8
10
7
8
10
7
8
10
7
9
10
9
10
12
11
12
14
13
16
17
28
33
33
23
22
24
10
14
15
11
15
14
10
13
12
9
13
12
254
255
254
240
242
240
114
122
117
15
21
18
13
17
16
11
15
14
10
14
13
9
13
12
7
11
10
8
9
11
7
8
10
6
7
9
6
7
9
6
7
9
6
7
9
7
8
10
5
7
9
28
31
33
79
79
78
56
44
46
8
10
15
10
15
18
16
19
18
14
19
18
249
251
251
253
255
255
198
204
198
51
57
53
13
17
17
12
16
15
10
14
13
8
12
11
7
10
10
8
9
11
7
8
10
7
8
10
7
8
10
7
8
10
6
7
9
7
8
10
6
10
11
24
21
24
61
48
48
56
40
33
30
23
21
9
18
20
12
18
16
9
13
12
248
251
251
248
250
251
245
245
242
117
118
110
16
23
21
13
16
15
11
12
12
8
10
12
7
9
9
6
8
8
6
8
8
6
8
9
7
8
10
7
8
10
6
7
9
6
7
9
6
7
9
11
8
8
47
31
25
77
55
47
70
54
49
18
21
19
10
14
14
11
12
14
247
249
250
249
250
251
244
243
241
137
131
121
46
48
43
9
13
12
11
12
13
9
10
12
7
8
9
6
8
7
6
8
7
6
8
8
6
7
9
6
7
9
6
7
9
5
7
8
5
5
8
12
13
12
59
49
42
79
66
61
63
59
57
14
14
15
7
9
11
7
8
10
247
249
250
248
249
250
244
243
241
204
200
195
119
119
116
12
16
15
10
12
13
9
10
12
7
8
9
6
8
7
6
8
7
6
7
8
5
6
8
5
6
8
5
6
8
5
6
8
3
3
6
34
36
36
91
90
85
56
56
54
74
77
77
22
24
25
4
5
7
4
5
7
240
245
245
240
244
244
241
243
242
245
250
252
186
191
191
34
37
36
7
9
9
10
11
12
7
8
9
6
8
7
7
9
8
6
7
8
5
6
8
4
5
7
4
5
6
5
6
7
2
3
4
50
53
53
99
102
100
45
49
48
74
76
75
31
33
31
0
2
1
3
5
5
208
215
209
215
221
216
221
223
220
218
223
219
191
198
192
61
65
64
7
9
9
10
12
11
7
9
9
7
9
8
6
8
7
5
6
7
4
5
7
3
4
6
4
5
5
5
6
6
6
7
7
66
68
67
90
92
91
34
36
35
61
63
62
45
47
46
0
0
0
4
6
5
206
196
170
215
206
176
218
206
177
218
203
173
209
199
169
130
126
109
19
20
17
12
14
13
9
11
10
12
14
13
11
12
11
6
8
8
3
4
6
4
5
6
9
10
10
4
6
5
19
20
19
83
84
83
84
86
85
33
35
34
55
57
56
72
74
73
2
4
3
12
14
13
192
175
120
193
177
127
197
178
129
200
180
132
201
183
136
168
157
123
38
38
32
13
16
15
11
13
12
27
29
28
57
60
59
19
20
21
0
0
3
2
3
5
5
6
6
3
5
3
24
26
25
83
86
84
65
68
66
30
32
31
84
85
84
101
102
102
15
16
15
5
6
5
151
146
110
153
147
115
159
152
120
157
153
124
153
149
125
153
150
133
62
63
59
13
20
19
15
17
17
28
28
29
43
44
43
12
14
12
3
4
4
5
5
5
6
5
5
7
7
6
29
32
29
75
80
77
53
58
56
24
27
26
55
52
55
79
81
82
16
17
15
1
0
0
201
201
198
206
206
201
210
211
205
212
215
209
215
218
214
226
228
227
120
122
118
20
27
24
22
27
28
10
12
12
6
7
5
3
5
3
3
6
4
3
6
4
7
7
9
7
5
8
25
22
26
70
70
73
51
53
55
20
24
25
36
37
41
82
87
85
21
20
17
3
1
1
222
228
220
223
229
223
223
228
222
223
229
223
221
228
220
235
242
233
147
150
146
46
44
44
45
42
43
33
31
28
33
26
21
32
20
17
28
17
15
25
17
15
28
18
16
24
18
13
39
33
29
80
76
73
66
58
53
45
31
26
67
54
52
92
85
80
45
26
23
37
16
14
221
226
219
222
227
221
223
228
221
223
228
223
219
224
217
230
237
227
171
161
153
99
65
57
100
63
52
105
61
50
107
56
44
107
52
40
103
51
39
92
47
33
90
46
36
76
44
32
85
60
49
117
94
86
107
70
60
98
50
38
105
66
58
124
98
93
91
50
44
79
35
27
