P3 24 24 255
104
124
144
95
118
140
96
121
148
101
122
146
96
114
137
100
120
144
99
124
151
96
123
152
96
119
149
99
122
151
104
126
155
104
127
156
105
128
157
104
126
155
108
128
154
109
129
153
108
129
153
101
122
146
103
123
147
107
128
152
104
122
147
92
108
134
97
113
139
100
116
143
98
122
142
96
122
142
100
122
145
111
128
147
114
128
144
113
128
144
104
122
141
99
120
140
93
117
136
89
112
132
89
113
132
94
118
138
89
112
132
77
101
120
95
116
138
97
118
139
91
112
134
95
116
138
101
122
144
104
125
147
100
121
145
84
104
131
90
110
137
94
114
141
96
118
133
102
125
141
99
117
134
117
129
140
151
159
167
154
160
167
110
118
126
84
96
105
75
91
99
71
89
97
57
74
82
50
67
75
60
78
86
51
68
76
46
62
74
45
60
73
45
60
73
51
66
79
55
70
83
60
75
89
66
83
102
79
98
120
90
109
131
92
111
133
93
108
115
94
113
123
97
113
125
122
130
136
147
149
150
150
149
148
103
103
102
85
88
88
86
92
92
91
98
98
101
108
108
99
106
106
109
116
117
103
110
111
86
90
93
90
94
97
91
95
98
93
97
100
71
75
78
35
39
43
39
47
57
77
90
104
96
108
123
93
105
120
94
98
97
102
109
108
122
129
127
128
132
127
113
114
106
123
123
113
101
101
89
101
102
92
113
113
110
110
111
109
150
151
148
158
158
156
150
151
148
151
152
150
151
152
150
153
154
153
148
148
147
153
154
153
110
110
109
38
38
38
36
39
43
68
76
80
81
92
93
77
88
95
85
89
90
123
126
122
178
179
171
126
127
117
122
124
112
135
137
124
109
112
97
136
138
126
135
136
132
144
144
143
153
153
151
149
149
147
156
156
154
135
135
133
133
135
134
138
140
139
123
125
124
129
131
130
99
101
100
56
58
57
56
58
60
80
87
84
105
117
110
87
100
104
82
92
98
143
149
149
181
182
176
114
115
108
115
117
108
142
144
133
134
136
123
144
146
135
129
130
126
157
157
155
136
136
134
134
134
132
141
141
139
100
101
99
106
107
106
98
100
99
94
96
95
108
110
109
104
106
105
103
105
104
100
101
101
117
121
117
158
168
160
119
131
134
102
113
119
157
164
164
145
146
143
101
102
97
106
107
101
138
139
132
147
148
138
154
155
147
138
138
135
150
150
148
169
169
167
167
167
165
140
140
138
117
117
115
122
124
122
112
114
113
112
114
113
122
124
122
112
114
113
110
112
111
112
111
110
137
137
130
173
181
171
135
147
151
137
144
147
168
172
170
154
154
154
137
138
136
153
154
150
178
180
174
182
183
176
188
190
184
192
193
190
192
192
190
186
186
184
178
178
176
180
180
178
180
181
179
183
184
183
186
188
187
180
182
181
177
178
178
175
177
176
171
173
173
173
172
170
179
177
170
182
188
179
152
163
166
114
114
113
119
119
116
109
111
110
131
133
132
171
173
172
194
195
194
193
195
193
191
193
191
190
192
191
190
191
190
189
191
189
189
191
190
189
191
190
190
191
190
191
192
194
191
192
195
189
190
194
192
193
196
194
195
198
194
195
198
195
195
196
195
195
195
189
193
194
177
184
189
94
94
95
102
102
100
96
98
97
100
102
101
88
90
89
80
82
81
101
102
102
95
97
97
70
72
71
63
64
63
61
63
62
85
87
86
86
88
87
65
67
67
72
73
74
78
79
80
98
99
101
111
113
114
95
96
98
101
102
103
120
121
122
138
139
141
140
144
147
144
151
156
112
115
117
101
103
102
53
55
54
24
26
25
2
4
3
0
0
0
48
50
49
50
52
51
7
9
8
0
0
0
0
0
0
35
37
36
32
34
33
0
0
0
0
0
0
4
6
5
37
39
38
46
48
46
0
1
0
0
0
0
31
31
31
62
63
64
45
49
52
51
58
63
100
104
108
116
118
119
93
95
94
42
44
42
12
14
13
6
8
7
51
53
52
64
66
65
18
19
18
6
8
7
5
7
6
41
43
42
39
41
40
2
4
3
6
8
5
13
15
12
47
49
45
53
55
52
8
10
7
5
7
4
40
40
39
66
66
68
50
54
57
58
65
70
86
94
98
102
106
107
109
110
110
36
37
37
17
18
19
7
9
9
66
68
68
104
106
105
33
35
33
7
9
7
8
10
9
39
41
39
34
36
34
2
3
1
9
11
8
17
18
15
50
52
48
52
54
50
12
14
11
9
11
8
43
46
44
63
68
68
49
55
58
70
77
83
100
107
107
78
83
81
110
111
113
94
95
97
59
60
62
58
58
60
107
108
111
132
134
135
73
75
74
51
53
52
41
44
43
60
64
63
59
62
61
35
37
36
40
42
41
39
40
41
55
56
57
56
58
58
32
33
34
30
31
32
53
58
57
57
67
65
44
53
54
75
82
88
104
104
100
74
74
72
103
104
106
117
118
120
117
118
120
114
115
117
114
115
117
112
115
117
121
126
127
145
149
149
136
138
136
113
115
113
108
111
111
106
111
113
105
108
113
98
98
105
70
70
77
64
64
70
67
67
74
64
65
71
65
69
70
55
61
58
37
44
44
77
83
87
91
89
87
68
68
68
111
112
114
131
132
134
122
123
125
107
108
111
115
115
117
128
130
132
139
142
142
161
158
153
165
157
148
139
131
122
120
118
113
118
122
122
117
119
123
113
114
119
96
97
102
84
85
91
85
86
91
82
83
88
70
73
72
50
55
50
33
36
35
113
117
119
92
93
94
73
74
76
130
131
133
160
161
163
138
139
141
129
130
132
136
137
138
120
121
121
105
102
97
137
125
112
141
119
100
133
111
92
118
104
92
115
111
106
109
110
108
108
110
108
123
124
123
135
137
135
133
135
134
129
130
129
90
92
88
43
46
40
58
60
57
152
154
155
108
109
108
93
93
95
130
131
135
155
156
158
145
147
147
157
159
158
167
169
166
123
125
121
74
71
63
96
75
57
118
76
49
126
81
55
111
79
64
92
76
72
84
79
71
96
93
84
155
152
145
188
187
182
184
184
182
178
179
178
107
109
109
52
56
55
64
65
62
128
128
125
140
140
139
189
188
191
202
203
208
181
182
184
155
157
156
167
170
167
172
174
169
135
140
136
93
97
94
107
91
80
138
101
80
154
113
95
134
107
100
104
93
96
95
90
84
117
112
102
173
170
162
201
199
195
199
199
198
202
203
205
189
193
196
178
183
185
105
106
104
112
111
106
149
152
154
175
177
181
193
194
198
191
192
194
158
160
160
159
161
158
160
162
158
139
140
135
122
115
107
110
86
71
120
80
59
135
93
72
141
111
98
166
151
145
169
164
156
172
171
162
183
182
177
200
201
198
189
191
193
186
189
193
189
195
199
204
210
212
159
159
157
134
131
125
156
161
166
158
162
167
183
184
188
185
186
188
162
164
164
168
170
168
180
182
178
172
169
162
111
94
82
77
45
28
88
45
23
88
44
22
98
66
47
153
134
121
199
195
186
203
203
197
188
190
186
186
189
189
161
166
169
163
168
174
171
179
184
187
195
197
174
175
172
161
155
148
174
180
185
187
191
196
199
199
201
180
180
181
170
171
169
176
175
173
172
172
167
168
166
161
171
162
156
147
129
119
129
102
90
130
104
92
142
125
115
157
151
144
165
165
157
163
164
156
181
183
177
200
203
201
181
185
186
182
187
190
193
199
204
186
191
195
188
187
186
193
187
181
129
132
135
155
159
162
176
179
182
153
155
157
132
133
134
136
135
135
130
128
125
127
126
125
170
171
171
172
170
167
143
136
130
130
123
117
128
126
123
116
119
119
112
117
111
123
128
121
149
154
148
166
171
168
184
188
187
167
171
172
170
170
172
190
187
189
187
183
184
178
175
172
