P3 24 24 255
255
255
247
253
255
248
253
254
249
253
254
249
253
254
249
253
255
250
255
255
251
255
255
251
255
255
253
255
255
253
255
254
252
255
254
252
255
254
250
255
254
250
252
254
249
251
253
248
253
253
249
253
252
248
253
251
245
254
251
244
254
251
246
251
247
244
251
244
241
252
241
237
255
253
245
255
254
248
255
254
250
255
254
250
255
254
250
254
254
250
254
253
249
254
253
249
254
253
251
254
253
251
254
251
250
254
251
250
254
251
248
254
251
248
253
251
247
253
251
247
255
251
248
254
250
247
253
249
244
250
246
240
252
244
241
254
242
242
254
242
241
253
238
237
255
250
244
255
251
247
255
251
248
255
251
248
255
251
248
254
251
248
253
250
247
253
250
247
253
250
249
254
249
248
254
247
247
254
247
247
254
248
245
254
248
245
253
246
244
252
245
243
253
245
243
254
245
244
253
245
241
249
242
237
245
234
232
254
239
240
252
238
239
248
236
236
255
249
243
254
249
245
253
248
245
253
248
245
253
248
245
253
248
245
253
248
245
253
248
246
253
247
247
253
247
247
253
244
246
254
244
245
253
245
244
253
246
244
253
242
242
250
237
237
249
236
236
254
240
240
251
240
237
246
237
232
240
229
227
246
234
234
249
238
238
238
233
232
253
246
240
253
246
241
252
245
240
252
244
241
252
244
242
250
246
243
250
244
243
251
243
242
252
244
241
252
245
242
250
242
241
250
243
241
251
241
238
252
239
239
248
239
233
239
233
233
243
229
231
250
234
235
248
238
234
242
232
228
236
226
226
239
234
230
203
208
206
208
213
210
252
241
237
251
240
236
253
242
238
252
239
238
251
240
240
248
241
239
250
241
240
251
238
238
251
238
235
251
239
236
252
241
240
250
239
238
252
242
239
248
241
240
251
240
238
241
229
232
240
230
231
247
239
239
229
229
226
220
219
217
208
208
208
158
167
159
65
86
80
93
109
102
252
237
234
252
238
235
249
235
232
250
238
237
249
238
238
250
242
239
247
238
235
254
242
240
255
246
244
255
245
243
235
223
223
248
236
236
198
196
192
128
139
135
191
193
195
195
189
190
154
159
156
149
157
154
97
112
109
100
113
111
102
118
111
64
89
77
41
72
60
59
86
73
248
238
233
250
240
236
254
244
239
253
244
241
253
246
244
202
203
199
129
131
127
169
169
167
140
145
141
154
158
154
125
126
121
168
170
165
82
97
89
42
69
61
66
85
75
71
90
79
56
83
74
45
71
64
34
63
57
67
87
80
79
99
87
70
95
86
51
82
67
56
88
71
234
233
225
224
223
216
195
195
187
178
179
173
156
161
155
89
102
97
60
80
77
82
98
94
74
96
86
87
109
98
100
118
107
96
115
103
77
105
93
74
102
93
85
94
77
66
84
69
39
77
66
37
74
67
49
84
74
75
96
82
82
100
84
93
110
105
72
95
81
66
94
76
133
144
137
97
106
99
62
83
75
55
80
73
50
76
68
47
75
69
62
88
85
148
158
154
165
173
163
169
176
163
161
166
157
149
160
147
133
144
130
97
107
96
82
86
72
66
85
70
39
74
66
59
85
90
78
104
90
104
116
103
98
116
107
127
138
131
99
117
100
105
112
96
56
79
71
53
77
70
42
78
74
42
78
75
41
74
70
48
78
74
42
70
69
44
67
69
60
82
76
99
107
102
108
112
107
70
83
75
45
78
64
41
77
61
50
73
60
37
71
58
44
77
72
89
108
112
75
95
80
115
124
110
128
142
135
142
146
140
130
140
123
135
140
123
55
81
74
51
83
78
28
71
69
38
75
75
51
83
82
56
84
83
49
77
77
49
83
87
62
94
91
111
120
119
143
146
142
88
102
100
44
76
72
36
70
62
47
77
66
41
79
70
60
87
85
128
138
137
96
112
95
138
145
129
143
153
145
149
148
140
129
134
116
126
135
116
80
94
93
50
77
73
41
78
76
47
77
76
56
83
80
52
76
74
53
79
78
46
73
71
84
101
96
147
145
140
144
140
132
98
103
103
67
81
87
40
56
52
68
85
77
56
78
72
84
99
101
181
183
177
125
136
118
102
107
90
112
122
112
132
133
123
100
108
86
81
97
75
184
188
194
109
125
123
104
128
126
85
104
102
73
91
86
82
100
97
75
94
92
90
103
95
155
152
143
184
173
163
165
157
146
160
160
158
144
159
156
102
117
111
116
121
113
105
109
107
132
136
137
177
174
165
129
136
118
94
100
80
65
78
62
124
129
114
95
106
80
66
83
63
182
187
198
132
139
138
134
140
140
126
132
132
135
141
141
139
144
143
147
151
148
181
181
176
228
221
210
214
207
197
166
165
156
139
139
138
160
167
160
138
142
130
133
133
122
163
164
162
184
182
176
190
187
177
113
124
106
87
109
83
56
82
60
101
116
106
94
107
89
74
88
72
125
121
128
158
156
154
197
194
193
202
199
198
201
196
196
200
194
192
204
195
188
226
217
209
238
231
216
235
227
213
163
160
151
108
108
109
181
170
182
158
149
132
153
149
132
193
188
180
187
182
176
134
132
124
73
85
69
47
70
52
58
81
72
107
125
128
76
96
89
46
63
51
137
128
127
166
158
153
188
180
176
194
185
181
198
187
183
206
194
189
210
198
189
226
215
205
234
226
213
248
241
229
199
194
186
115
118
117
158
156
152
135
134
131
127
124
111
188
177
168
176
169
164
121
122
116
153
153
145
138
139
131
212
212
203
201
204
201
151
165
160
83
99
90
143
137
127
147
140
131
142
136
126
143
135
126
147
139
131
141
135
127
144
141
134
156
151
145
184
174
170
217
207
202
228
221
215
157
164
161
191
188
183
195
195
197
109
113
103
178
170
159
183
173
169
134
136
131
176
173
172
186
184
173
192
188
169
150
153
150
131
144
145
150
156
156
154
149
134
167
163
147
171
168
155
175
169
158
173
152
145
178
164
155
165
160
148
168
165
153
159
154
145
123
122
115
131
131
124
147
143
141
171
163
165
191
185
183
153
151
148
200
195
192
230
225
223
223
224
220
192
193
193
190
194
177
174
174
158
136
150
151
120
138
143
159
162
163
162
157
141
166
160
139
175
171
153
184
177
162
174
145
136
172
145
134
181
153
140
189
168
153
180
173
156
144
145
131
136
136
125
161
148
141
153
143
137
157
150
143
153
147
143
156
152
148
173
171
172
196
194
197
169
169
171
174
178
162
194
192
179
140
155
151
116
133
135
158
162
163
174
172
157
166
161
139
168
161
141
171
166
147
184
167
151
180
155
140
177
144
129
181
150
135
188
170
153
191
179
164
190
179
165
196
187
172
189
171
161
180
173
159
172
169
154
157
154
139
165
162
152
151
149
140
183
183
180
164
170
158
127
130
113
90
107
94
93
108
106
151
154
155
186
187
175
119
118
98
114
111
94
136
135
119
163
156
139
172
161
145
172
162
144
181
165
148
183
169
152
171
162
148
179
170
154
176
169
151
188
173
161
187
181
167
179
176
159
183
179
162
209
205
181
209
206
180
164
163
151
125
134
127
101
109
92
80
97
83
114
125
124
142
144
146
142
145
133
112
117
101
118
121
110
116
118
108
120
119
108
127
120
110
120
115
104
144
132
122
125
121
107
98
100
87
116
115
101
136
133
119
132
128
116
137
131
120
129
126
111
132
129
113
161
157
141
164
158
142
159
157
148
95
104
100
92
102
88
79
95
86
101
109
111
135
136
138
136
136
133
141
143
137
148
150
145
149
149
145
146
145
142
126
123
119
113
111
103
123
120
112
123
124
115
116
119
110
112
115
105
110
112
103
103
105
96
104
106
97
93
98
87
99
103
96
133
134
131
131
131
129
156
156
157
155
158
157
120
125
119
107
116
115
125
135
136
158
165
165
