P3 24 24 255
200
160
92
205
162
93
214
167
99
217
167
100
210
157
96
211
158
96
199
156
95
141
98
67
155
113
87
198
155
100
205
160
93
201
157
93
199
154
90
198
150
88
212
157
100
211
162
101
196
155
102
191
147
102
200
153
95
194
152
92
177
135
91
168
128
98
145
114
82
141
113
74
229
187
115
234
190
118
237
191
120
240
191
121
239
187
119
230
179
114
177
133
86
117
75
55
163
121
86
221
178
111
220
174
102
224
176
110
212
163
104
198
147
93
219
165
105
221
172
101
215
170
112
180
133
88
208
160
100
215
170
104
191
147
97
151
110
74
184
149
107
144
110
65
240
198
126
244
201
129
246
200
130
246
197
128
247
199
127
227
182
120
127
84
59
145
104
87
179
139
94
228
183
111
227
179
104
228
181
111
217
170
114
194
146
102
221
173
115
229
183
107
227
182
118
174
129
85
182
139
84
225
178
112
204
160
110
130
89
54
200
160
109
182
141
90
243
201
128
246
202
131
247
200
130
247
197
128
247
201
129
232
191
135
145
105
82
184
146
116
175
135
90
214
165
108
225
174
104
224
176
106
216
171
113
179
135
95
207
163
109
231
188
113
224
177
116
178
133
92
167
127
82
208
163
111
175
136
99
118
83
57
207
167
119
200
155
105
239
196
124
244
201
130
251
205
135
247
199
129
240
195
125
238
200
147
177
141
108
179
143
100
176
133
99
183
130
92
223
170
107
228
179
108
222
177
116
175
132
92
198
157
111
239
197
128
208
161
104
141
96
65
167
128
94
168
128
89
111
77
55
99
70
55
172
136
99
195
152
111
234
193
120
236
195
124
241
200
128
239
198
126
234
194
123
237
200
136
215
177
125
183
143
100
179
135
104
158
114
83
219
175
123
233
187
116
224
178
111
188
145
100
169
131
95
239
198
133
207
166
115
108
70
52
166
123
87
196
154
102
126
89
64
110
79
63
127
95
67
158
122
96
231
191
119
234
195
123
233
193
121
235
195
123
231
192
119
226
188
115
225
186
121
211
169
117
212
170
126
163
123
93
157
115
85
212
168
118
207
166
101
211
177
110
155
123
75
207
167
116
173
134
100
102
69
49
203
164
110
203
160
104
132
92
68
181
148
130
154
125
96
115
83
62
230
189
117
233
193
121
228
188
116
229
189
117
225
185
112
218
177
102
218
177
106
222
180
115
231
188
127
216
177
125
169
130
87
158
115
75
174
136
91
195
165
113
184
157
112
132
92
61
97
60
44
125
98
72
217
186
129
152
124
89
77
56
50
86
72
65
74
62
47
63
45
33
228
187
115
227
187
115
224
184
112
222
182
110
218
177
105
214
171
100
216
174
102
221
178
107
229
185
114
224
183
115
220
177
113
209
164
109
164
123
87
110
76
55
137
110
86
158
121
105
121
88
76
84
62
39
117
88
59
56
36
26
46
37
43
49
47
47
44
44
39
53
41
36
226
186
114
223
183
112
225
185
113
225
185
114
220
178
109
216
170
104
219
174
106
225
181
110
234
190
117
226
180
120
206
156
97
220
171
101
217
172
118
114
77
53
69
43
34
120
87
85
109
79
67
83
61
41
75
41
34
78
47
37
62
41
40
59
48
42
46
35
22
88
65
47
232
192
124
230
191
123
226
187
119
230
192
124
226
184
117
223
175
109
225
179
112
224
181
112
230
190
120
229
188
126
204
159
98
205
156
88
212
165
102
157
116
71
80
54
39
68
39
34
88
47
35
152
107
87
142
92
66
141
92
59
104
74
62
51
36
36
94
72
50
174
137
88
227
186
120
227
189
122
224
185
118
232
193
126
231
189
122
214
166
100
220
174
107
222
180
112
225
185
116
225
186
122
216
172
112
203
154
90
198
150
85
195
154
92
177
144
94
161
119
78
163
108
68
202
141
99
184
120
74
178
123
81
128
94
75
48
29
22
143
116
83
213
174
112
214
174
107
220
181
114
223
184
117
229
190
123
234
192
125
212
164
98
217
171
104
224
182
114
225
185
116
221
182
118
225
181
121
204
155
93
188
141
74
207
167
95
215
182
109
218
177
111
229
175
117
218
159
108
187
128
79
200
146
103
174
137
106
72
48
22
154
125
78
217
179
112
204
165
98
209
171
103
218
180
112
221
182
115
225
183
116
211
162
96
215
169
102
220
177
109
222
182
114
221
182
112
222
179
111
211
161
100
178
130
67
200
161
89
205
172
101
192
152
89
215
165
111
200
146
100
182
128
84
197
142
97
190
148
106
135
105
60
188
156
92
211
173
99
193
148
85
198
153
90
196
152
88
202
158
95
203
157
94
202
154
89
202
158
92
207
167
99
211
174
102
215
178
100
218
175
101
213
164
101
195
148
88
194
153
87
209
169
102
207
157
96
209
149
97
184
123
78
165
109
67
186
132
91
159
115
71
182
148
89
193
160
86
192
158
79
182
108
58
172
100
53
168
99
51
164
98
50
176
110
61
189
125
73
175
122
67
180
135
74
196
154
83
202
154
82
211
158
93
204
152
92
185
136
82
180
134
80
200
155
95
198
142
83
192
126
77
186
124
86
127
80
51
124
88
62
123
88
50
183
149
83
179
149
71
165
142
63
198
114
67
186
105
57
167
88
39
165
88
38
180
98
49
187
98
55
154
74
35
145
71
29
166
92
43
179
102
50
186
110
60
156
84
38
128
62
21
127
65
25
152
94
49
174
110
62
179
110
66
186
123
84
135
88
59
75
48
28
109
84
45
169
140
76
162
137
64
154
134
63
195
112
65
172
90
41
161
80
28
174
93
38
180
94
42
164
75
31
135
50
14
129
45
10
149
59
22
159
62
23
154
57
17
139
49
12
133
50
15
128
52
19
142
70
38
165
94
57
172
104
62
180
118
77
157
109
75
79
59
41
105
87
49
157
135
70
152
130
62
149
127
65
174
98
56
158
82
37
165
87
38
181
101
47
182
102
48
158
79
33
143
65
23
142
60
17
151
59
13
177
77
30
172
71
28
152
60
19
151
69
30
151
77
39
161
88
55
167
98
61
166
105
63
156
101
61
125
80
50
59
40
24
111
94
53
153
129
58
154
127
58
152
125
65
159
89
52
154
81
40
170
94
46
198
118
67
184
103
53
167
85
40
163
81
36
157
68
21
167
69
15
186
84
32
178
81
32
151
65
17
151
77
31
158
92
47
167
99
59
166
101
59
157
102
57
135
87
47
102
63
35
60
39
22
133
113
66
160
134
58
167
135
66
167
134
73
158
81
46
165
85
43
188
106
55
211
125
74
188
103
55
175
92
46
169
84
37
163
74
26
173
82
31
193
96
47
188
92
46
155
70
24
148
74
31
157
89
47
162
96
55
164
100
58
149
90
49
124
77
41
82
46
23
78
52
32
153
131
75
162
135
62
172
138
74
168
133
70
172
90
53
195
113
67
211
128
75
211
126
74
189
105
57
181
100
53
174
91
43
168
82
33
182
94
44
200
112
61
201
116
67
163
81
35
155
79
37
167
96
56
165
97
62
169
102
67
147
85
51
120
70
43
76
39
20
112
84
54
171
146
84
169
141
71
174
139
78
166
131
67
200
115
72
221
138
88
221
139
84
204
122
70
186
105
57
176
97
50
181
100
52
177
94
44
190
105
53
200
122
67
209
133
81
175
95
48
162
87
45
174
107
66
168
107
64
158
98
54
137
82
39
103
60
23
86
54
24
156
126
77
181
153
83
177
146
82
177
142
85
170
135
71
203
117
69
215
131
78
221
140
83
206
127
74
189
111
63
174
97
50
181
103
54
193
112
61
202
120
67
207
131
76
214
138
86
189
107
61
163
92
49
170
115
69
140
91
48
135
85
43
125
80
39
77
45
11
86
63
32
169
139
72
178
145
68
176
141
83
168
133
80
171
137
72
