P3 24 24 255
73
61
151
73
61
150
74
62
151
74
62
151
74
62
151
74
62
151
75
63
152
75
63
152
79
67
156
74
60
149
110
99
167
138
129
183
85
73
149
76
61
151
77
62
152
77
62
152
77
63
152
77
62
151
77
62
152
77
62
152
77
62
152
77
63
153
78
63
153
77
63
153
75
65
152
74
65
151
75
66
153
76
67
153
75
66
152
75
66
152
77
68
154
78
69
155
80
71
158
77
67
153
118
108
172
127
119
168
83
74
147
79
66
155
80
66
156
80
67
155
80
67
155
78
66
154
79
66
154
79
66
154
79
66
154
79
66
154
79
66
154
79
65
154
76
68
148
77
69
149
77
69
150
79
70
152
78
71
152
77
72
151
78
73
153
80
76
158
83
79
164
69
73
154
123
116
172
142
129
173
74
78
150
77
72
162
84
72
161
82
73
164
82
74
166
77
72
161
77
72
158
78
69
154
79
68
153
81
68
154
83
66
157
82
66
157
80
72
156
81
73
156
79
71
155
81
73
158
81
74
161
79
74
163
83
79
162
82
80
154
111
111
176
107
103
171
116
113
157
182
179
208
106
101
170
78
76
157
80
76
156
80
73
155
78
75
156
77
76
157
77
77
160
79
75
159
81
74
158
83
73
159
87
71
162
85
71
162
88
82
172
87
81
172
84
78
167
86
80
169
85
80
175
79
75
175
106
102
181
142
140
190
159
156
188
177
162
201
159
156
184
192
199
212
145
135
180
103
101
157
110
109
167
112
108
159
120
119
164
108
108
167
82
81
162
81
80
167
81
79
167
82
78
166
84
77
164
84
77
163
94
92
172
93
91
169
87
86
162
93
91
166
97
97
171
97
98
171
131
130
182
202
199
222
200
194
204
202
197
208
209
205
216
220
220
223
197
202
214
195
194
218
214
208
234
220
217
231
224
225
235
165
166
201
92
89
163
83
86
171
82
85
173
82
84
173
82
85
167
83
84
164
108
109
167
115
115
167
137
139
182
157
158
199
168
172
205
177
183
207
197
199
217
221
218
226
219
213
214
222
222
221
226
231
230
237
231
227
232
214
211
245
233
238
252
245
255
247
244
246
240
241
238
190
189
211
118
115
174
88
93
167
84
90
173
84
90
176
82
90
170
83
91
165
136
136
177
152
151
182
193
193
211
220
220
233
230
232
240
240
242
245
243
243
245
247
244
246
250
244
246
247
244
240
243
252
247
242
218
220
207
120
126
237
195
201
252
248
253
243
238
238
240
239
237
207
204
219
150
147
188
110
114
173
91
97
171
88
94
178
85
95
172
85
95
169
156
152
187
182
177
201
175
171
188
171
168
178
178
173
184
190
183
196
214
209
218
238
234
239
250
245
249
247
248
241
247
242
243
236
174
193
200
60
77
225
143
156
242
225
229
249
243
244
250
245
250
211
206
221
161
158
184
145
148
192
105
110
174
91
97
176
90
99
175
89
99
172
150
144
178
192
185
204
172
166
179
152
143
159
163
151
173
152
141
166
144
134
155
169
162
177
203
196
208
239
247
242
231
196
200
209
77
103
212
39
60
197
68
87
218
180
186
251
248
250
251
245
252
211
207
222
163
159
183
163
161
196
135
139
191
98
107
177
95
104
179
95
105
178
126
118
156
189
181
201
176
169
180
150
137
156
148
134
160
141
131
156
136
126
149
145
136
156
161
152
170
223
226
230
224
189
189
195
63
78
208
38
61
204
86
103
228
196
200
253
250
250
252
248
252
211
208
223
162
157
186
165
159
191
150
153
198
104
117
179
97
110
183
98
110
185
108
101
149
182
173
201
177
168
182
149
138
154
147
135
158
147
137
161
145
135
156
157
148
166
170
161
177
202
194
206
216
205
206
213
153
157
203
87
107
239
187
197
253
247
245
251
246
244
252
249
251
209
206
221
160
155
182
162
155
185
145
146
189
106
119
180
100
117
190
100
117
192
100
95
151
165
156
191
182
172
189
156
147
162
160
151
169
159
150
170
160
151
168
169
161
176
178
170
183
182
169
185
173
172
179
181
163
165
206
151
164
235
216
223
249
249
247
254
249
246
251
248
250
206
204
219
159
154
181
162
155
184
147
148
187
117
129
184
104
124
193
101
123
197
102
101
158
147
138
175
190
178
196
166
159
171
169
164
178
174
165
181
181
172
186
191
183
195
201
194
203
197
187
201
186
174
190
176
166
175
172
166
173
187
184
193
221
217
221
233
228
229
230
226
232
195
192
210
157
153
183
159
154
184
155
154
189
141
148
194
114
130
190
106
128
195
115
118
170
136
127
160
193
180
196
179
174
183
184
183
193
192
184
197
196
188
199
211
203
211
227
220
225
214
206
216
203
184
201
189
174
188
157
157
166
158
152
164
182
173
183
176
170
177
165
160
171
127
122
147
139
134
170
158
153
185
157
153
183
150
149
185
124
131
177
117
132
189
140
147
190
136
129
156
199
186
199
195
192
200
194
195
204
201
194
204
208
200
209
223
217
222
231
225
228
214
204
210
205
198
206
200
190
200
187
162
177
173
158
170
183
176
189
179
170
185
119
113
132
72
66
98
116
110
152
152
149
182
161
155
182
145
136
165
125
122
156
121
130
176
154
163
197
140
136
159
207
197
206
214
210
215
209
208
215
212
206
214
216
211
221
228
221
225
192
180
181
157
140
148
198
192
197
207
196
197
182
122
140
186
148
164
204
197
211
200
189
208
124
116
138
78
71
103
125
118
158
150
147
179
161
155
181
129
121
146
103
97
122
113
116
150
146
157
190
137
136
164
209
203
211
226
221
223
222
217
223
222
218
225
223
219
234
222
215
216
135
116
111
99
77
88
185
176
182
218
198
190
155
62
77
178
116
134
214
207
218
207
195
212
169
160
181
133
125
152
158
152
183
157
152
184
157
152
181
136
131
156
95
91
113
128
127
151
145
163
202
142
147
181
208
205
214
234
228
228
231
224
229
232
225
234
233
225
239
217
205
199
121
97
82
100
79
84
169
154
158
210
156
150
162
41
53
194
112
125
219
207
212
210
199
212
199
191
207
188
181
202
176
171
196
163
158
188
157
153
182
153
149
175
131
128
151
156
153
174
146
171
216
151
162
202
209
209
220
241
235
233
239
231
235
239
228
240
240
228
237
232
216
200
191
166
139
140
122
119
155
96
109
174
32
47
167
15
25
174
45
60
197
159
165
216
208
214
203
196
206
195
189
204
175
170
190
165
161
187
157
153
180
160
156
181
151
147
172
145
140
164
150
177
225
160
173
216
216
216
228
245
239
234
242
235
237
241
231
243
244
229
234
241
222
198
238
215
180
213
198
190
195
115
133
185
0
25
178
9
20
162
17
31
193
140
147
216
210
212
207
199
207
197
192
204
179
175
191
166
162
186
153
149
175
163
159
185
166
163
189
155
148
178
156
176
224
167
175
216
219
218
228
248
244
237
241
237
239
240
234
244
245
230
232
241
223
196
238
219
184
239
226
218
216
188
191
207
95
102
182
28
41
173
81
83
204
173
176
215
207
212
206
198
207
196
191
204
179
175
191
167
163
184
152
148
172
159
155
181
169
165
193
165
157
189
157
168
212
166
168
205
216
212
219
248
243
235
240
239
240
236
236
243
243
231
230
238
223
196
238
222
192
236
224
220
231
234
228
225
167
162
179
46
61
219
173
171
229
211
215
212
202
209
202
194
206
193
187
202
177
173
191
167
163
184
156
152
175
156
152
178
162
158
188
156
149
180
122
121
170
134
126
162
202
192
199
250
244
239
241
242
244
237
239
245
242
234
230
234
223
202
236
224
204
239
226
228
242
232
234
226
176
178
181
88
104
218
189
194
227
208
218
209
199
208
196
189
201
182
176
193
167
161
183
166
159
178
158
151
171
156
150
174
162
157
185
152
146
173
