P3 24 24 255
184
174
89
179
164
93
123
100
44
130
99
47
175
139
78
166
135
78
151
126
66
175
156
73
178
164
68
167
155
60
162
150
64
161
150
68
176
164
79
170
158
67
160
146
52
163
146
50
180
156
62
188
162
78
180
152
80
166
136
74
196
164
104
216
183
122
223
199
156
237
227
196
178
169
74
187
172
87
176
150
87
155
121
75
144
106
68
143
111
71
154
131
69
179
163
72
184
171
74
167
153
58
165
150
63
184
166
89
187
164
90
192
165
96
195
165
103
195
165
106
212
178
119
230
193
138
236
194
144
233
189
143
218
172
124
184
137
86
186
152
117
220
201
182
176
166
74
181
160
71
191
164
91
151
123
72
108
84
52
139
113
85
161
141
78
165
155
58
182
170
81
172
155
68
190
163
82
219
178
117
227
181
125
230
181
134
238
194
160
245
206
177
246
203
172
243
194
156
224
172
126
196
148
98
170
125
73
154
108
59
149
113
72
139
116
84
167
158
76
164
149
64
184
162
90
159
134
82
132
110
77
168
146
121
141
124
72
130
120
43
165
151
85
163
142
78
188
151
82
216
161
98
222
163
104
219
159
109
235
181
144
232
185
149
219
175
130
210
163
114
179
133
82
142
102
56
148
111
69
154
115
77
121
91
55
90
70
41
153
145
67
149
138
59
154
137
71
147
124
74
163
138
100
143
122
94
127
113
77
82
71
25
76
60
23
79
53
22
134
94
46
178
126
64
193
140
80
200
148
95
186
136
95
159
113
76
147
106
64
154
115
69
136
102
57
121
93
55
132
107
76
125
97
72
85
63
41
80
64
46
171
159
78
164
152
73
139
124
56
126
105
49
159
133
80
118
97
55
99
86
56
85
74
51
57
42
22
44
20
7
92
59
34
137
102
57
144
113
67
136
106
65
103
73
43
81
46
32
81
42
36
88
58
39
90
69
38
104
88
55
102
86
58
73
55
39
63
45
32
81
67
56
184
164
78
187
168
84
162
145
67
165
145
72
187
162
86
160
139
75
83
68
37
81
69
56
74
63
47
47
31
21
69
46
36
98
75
50
99
84
54
75
64
36
59
44
27
58
34
33
58
31
38
65
47
39
85
75
55
87
77
53
59
47
28
38
26
12
67
51
39
86
70
58
201
172
84
200
172
81
187
167
79
181
161
71
196
173
77
192
171
85
103
86
45
55
42
31
72
66
47
53
47
33
57
40
34
78
58
41
94
82
60
61
53
32
49
36
25
70
53
47
69
56
42
77
72
52
85
83
62
59
50
39
31
18
12
37
27
13
85
70
55
96
79
63
199
173
84
212
184
84
201
179
82
190
168
73
200
176
81
185
162
80
148
125
72
81
61
31
62
50
27
55
49
43
42
32
33
55
39
31
89
73
59
78
65
46
45
32
24
56
44
40
73
65
50
68
63
48
54
48
38
39
28
27
31
19
19
43
37
25
86
77
61
88
75
64
175
157
72
206
182
86
195
173
81
191
170
85
189
169
90
174
155
87
173
152
90
183
162
104
101
85
49
41
35
24
30
27
25
36
27
24
60
44
38
86
71
51
69
60
47
31
26
26
36
31
29
30
26
24
22
17
17
15
10
11
28
23
20
50
45
28
72
67
47
65
58
50
145
130
52
180
158
78
176
159
85
155
143
76
132
124
60
132
126
64
141
134
69
160
152
84
147
142
82
93
92
48
53
52
25
42
35
27
39
27
20
82
72
49
73
67
43
19
17
5
12
15
4
9
12
1
14
16
3
32
35
23
58
57
38
86
79
43
82
77
40
72
67
52
142
125
48
163
144
66
142
128
61
124
119
58
103
104
44
86
89
31
102
103
44
93
93
26
130
130
61
147
147
82
85
83
36
57
51
29
44
35
24
101
93
66
88
83
46
58
55
22
76
75
42
70
69
34
70
69
30
98
97
56
106
104
58
128
121
63
110
105
51
78
74
50
167
145
65
169
149
67
134
119
53
118
110
51
102
101
40
106
105
47
108
107
48
95
96
28
124
123
50
141
136
63
117
110
43
102
93
48
69
58
36
108
100
67
112
105
54
129
120
65
165
155
95
143
134
71
124
115
48
132
124
53
144
136
66
152
147
75
138
136
69
92
90
55
184
158
80
182
158
78
166
143
85
155
135
86
131
115
63
147
132
65
147
135
58
138
133
51
146
141
57
152
141
56
154
141
49
156
143
72
98
84
50
103
91
52
149
135
74
147
133
67
160
150
81
130
121
47
127
119
39
152
144
58
150
144
61
124
124
48
123
125
51
107
106
61
196
166
100
198
168
104
167
135
95
117
86
56
97
67
34
136
109
41
168
149
50
159
146
45
150
139
37
166
152
52
157
140
34
163
147
58
106
90
46
105
91
48
191
172
105
140
124
56
119
116
49
129
127
53
131
131
52
147
148
64
128
131
52
101
107
35
114
120
46
124
124
73
166
133
90
155
123
84
117
93
65
84
61
43
84
59
44
89
71
26
148
133
47
175
153
49
183
161
53
179
161
63
150
134
45
145
130
46
100
88
40
108
96
56
166
151
78
144
129
57
135
129
57
132
131
51
133
135
56
120
123
57
95
100
43
104
115
54
119
126
68
124
123
77
123
96
59
118
93
57
118
102
69
99
83
57
76
56
37
86
74
35
151
141
70
184
163
67
191
168
67
169
153
65
152
138
64
150
138
62
103
92
46
108
96
58
147
136
58
163
150
76
147
140
69
132
130
51
135
137
63
106
109
54
69
74
30
80
89
39
90
95
47
105
103
60
104
85
50
94
78
43
113
100
63
105
91
57
98
79
50
101
89
51
113
104
45
139
123
42
169
153
65
153
143
65
129
118
54
141
129
61
104
92
49
116
104
63
162
154
72
174
164
90
149
142
77
133
131
62
138
140
76
103
106
58
69
73
35
85
89
46
107
108
65
104
102
59
96
80
54
80
66
41
85
70
39
93
77
45
90
72
45
95
82
50
89
79
28
112
100
30
140
130
52
125
118
48
114
107
49
127
119
55
114
101
59
131
118
76
145
140
57
124
118
45
127
122
59
115
113
51
103
105
50
87
92
49
71
76
40
100
103
62
125
126
83
107
107
63
95
77
54
93
74
53
95
75
44
67
48
20
64
47
24
97
81
51
130
115
67
138
127
59
138
131
55
136
131
60
128
123
65
125
120
56
123
110
66
130
117
75
136
132
54
104
100
31
98
95
32
96
95
36
81
84
34
67
74
33
66
74
35
94
101
56
99
105
59
90
96
50
95
70
39
117
92
55
153
128
80
119
98
57
81
68
36
129
112
75
141
122
69
150
138
68
136
128
49
139
132
55
128
124
60
125
122
54
111
99
52
123
109
67
136
133
61
114
113
47
112
111
45
114
116
56
106
110
60
90
98
55
71
82
38
89
103
49
95
109
56
85
99
51
154
127
84
141
112
62
179
150
91
181
158
104
110
96
55
137
120
73
148
128
68
142
128
54
132
124
37
137
129
43
135
131
61
125
124
56
108
99
43
124
112
61
123
120
52
113
113
52
115
115
55
117
119
63
109
113
66
92
99
61
69
80
44
65
82
35
93
110
60
92
108
59
194
168
118
159
132
76
165
137
74
167
142
84
153
134
87
133
116
58
144
127
59
148
134
59
154
146
53
152
145
54
139
135
64
123
122
58
122
116
51
138
130
66
119
117
53
93
93
39
83
82
36
102
104
56
89
92
52
60
64
36
58
65
42
45
61
27
68
81
36
82
92
44
155
138
88
140
120
61
166
143
73
170
148
77
173
154
90
147
133
62
135
122
51
144
133
59
144
138
51
140
134
55
119
116
54
101
102
43
118
113
52
127
121
63
101
100
47
66
67
21
77
78
35
97
100
53
83
88
45
59
64
30
50
56
25
60
65
24
85
88
35
101
104
50
