P3 24 24 255
51
60
44
66
75
58
80
88
71
77
87
69
71
85
64
82
96
73
86
96
75
96
103
83
102
108
87
100
108
85
90
98
77
90
98
81
77
84
69
76
86
65
81
93
67
81
94
68
78
90
65
91
101
76
97
101
79
95
98
77
93
96
79
76
78
64
46
49
43
40
44
44
63
71
52
71
79
60
74
83
64
74
84
65
69
83
61
90
105
83
85
97
76
85
94
74
85
95
75
95
107
87
88
100
81
77
88
72
86
98
84
76
87
66
81
91
66
94
105
80
87
99
74
85
95
70
90
94
71
96
100
78
86
90
71
84
87
71
44
47
40
43
47
45
61
66
44
64
70
50
69
77
59
72
83
65
81
95
73
91
105
86
82
94
80
82
93
77
86
98
80
80
91
74
81
88
67
69
76
55
90
101
84
94
99
81
95
97
75
98
103
81
90
96
74
77
85
62
74
81
58
90
96
74
88
95
73
81
88
67
53
59
47
43
47
42
74
77
55
76
80
60
80
88
70
56
67
50
62
76
54
92
105
87
90
99
88
86
94
79
94
103
84
86
96
76
87
90
65
78
81
56
87
96
76
102
105
86
96
96
75
92
95
74
93
99
77
85
94
71
82
90
67
88
96
74
98
106
83
80
88
65
67
73
59
42
47
39
86
89
67
90
95
74
85
93
75
61
72
55
61
73
52
79
88
71
83
87
76
89
89
73
105
108
86
97
104
80
88
89
60
100
101
71
92
99
75
98
102
81
100
101
80
88
94
72
97
106
82
89
99
75
87
95
72
84
92
69
83
91
68
72
80
57
72
78
63
45
51
41
89
92
70
89
94
74
75
83
66
64
75
58
72
81
62
79
83
69
80
77
66
90
82
64
128
123
99
95
97
73
108
105
74
125
122
91
111
113
88
101
104
83
96
100
78
92
100
77
95
106
82
86
97
73
84
93
70
75
83
60
82
90
67
77
85
62
75
82
65
49
55
43
82
85
63
83
87
67
75
83
65
73
84
67
68
74
57
92
92
79
95
87
75
100
84
65
122
109
86
86
84
64
106
97
71
104
96
70
88
86
65
90
93
73
95
101
79
90
100
76
89
102
77
77
90
65
83
92
68
87
95
72
98
106
83
84
92
70
90
97
79
65
71
57
76
80
57
78
83
63
73
81
63
73
84
67
83
88
72
87
84
72
100
86
75
99
76
55
98
79
57
102
95
82
98
85
66
83
70
52
71
65
51
85
88
69
86
95
71
80
91
67
84
98
73
83
97
71
75
83
60
89
97
74
88
96
73
89
97
74
93
100
81
72
78
62
71
75
56
80
85
66
81
89
70
84
94
74
83
89
72
74
73
60
85
76
64
100
83
65
89
74
57
72
66
56
76
64
51
84
73
58
81
78
65
101
108
90
78
89
67
77
89
66
80
93
70
81
94
70
79
88
63
79
87
63
83
92
67
92
100
75
81
87
66
76
81
64
70
76
61
71
78
60
92
100
77
104
113
88
77
86
65
71
78
61
82
84
70
96
93
80
95
92
80
54
51
43
56
47
38
79
74
60
91
96
77
98
112
90
84
99
77
79
92
71
80
90
70
81
90
68
90
100
72
77
87
59
87
97
69
87
96
68
78
82
59
77
78
62
68
74
60
66
73
55
81
88
67
86
95
70
73
84
63
71
81
64
78
85
69
85
88
74
105
105
95
62
58
54
61
53
45
78
74
58
94
101
76
91
105
78
79
93
68
78
89
64
83
91
67
83
90
66
84
91
64
85
93
65
91
98
71
90
97
70
74
75
53
74
73
56
73
80
63
76
84
65
81
89
68
87
95
73
89
100
81
68
80
63
88
98
79
94
99
80
116
118
104
80
74
72
69
58
50
74
69
50
82
87
57
98
110
78
75
86
56
82
89
60
88
93
65
86
89
63
75
79
55
102
105
82
102
105
82
82
84
61
80
79
59
87
84
69
78
86
65
78
86
65
77
85
65
89
96
78
89
101
83
88
101
83
90
101
79
100
109
83
113
116
98
84
76
71
88
75
66
71
64
44
66
70
40
94
102
71
77
83
53
94
98
69
91
92
64
89
88
63
86
84
64
91
89
69
98
96
76
82
80
60
87
82
64
74
69
53
69
77
53
71
79
58
69
76
58
68
75
59
76
89
73
101
116
97
94
107
82
90
101
71
112
117
90
92
84
71
79
65
52
71
62
44
67
67
44
79
83
58
71
73
49
80
79
56
89
84
62
93
86
67
79
72
56
71
64
48
88
81
65
89
82
67
73
65
49
54
47
32
69
77
51
77
84
62
74
80
64
65
72
58
58
72
56
77
94
74
87
102
76
72
87
53
115
123
90
129
122
97
85
71
53
69
58
42
59
57
41
62
63
46
69
66
49
67
61
45
76
67
52
77
66
53
66
56
43
68
58
45
89
79
67
94
84
72
68
59
44
55
47
33
68
74
49
77
79
58
74
76
58
69
75
58
59
69
50
70
81
60
86
97
71
68
80
47
104
112
78
130
124
95
93
80
59
70
57
44
55
50
40
61
61
42
80
78
56
59
53
36
82
73
59
73
62
50
61
50
39
66
57
45
76
68
54
86
79
64
64
59
45
53
48
35
79
82
60
81
76
58
77
74
55
76
79
58
82
85
64
87
91
69
94
100
73
88
96
65
114
120
88
120
116
87
82
70
50
74
61
49
59
52
44
71
71
50
99
99
71
64
60
38
81
73
55
74
65
51
55
47
37
60
56
42
69
69
51
77
79
59
62
64
50
48
50
36
75
77
56
84
79
60
80
76
57
77
79
58
88
91
70
102
105
83
102
106
80
111
116
87
120
123
92
110
107
77
80
69
48
78
65
52
63
57
45
68
69
52
85
84
66
66
62
45
102
95
76
106
99
82
48
47
33
60
62
45
72
78
56
71
80
55
73
78
62
73
75
60
76
78
57
93
87
69
90
86
67
76
79
58
92
96
74
100
103
81
98
100
74
93
93
66
109
109
80
111
108
78
98
87
65
92
81
64
72
67
52
60
61
48
71
72
59
75
72
55
86
81
60
83
80
59
51
56
39
62
71
50
65
78
52
65
80
52
69
76
58
68
71
54
81
83
62
83
78
60
88
84
65
87
90
69
94
99
77
99
103
80
107
106
81
119
114
88
127
123
95
109
105
78
101
90
66
102
91
71
100
95
77
60
63
46
79
82
67
74
75
55
77
75
51
74
74
51
51
58
40
60
72
49
65
80
52
63
81
50
67
75
55
70
73
54
74
77
56
83
78
59
85
81
62
82
85
63
80
87
64
94
97
75
114
111
88
126
116
91
126
118
91
105
101
75
108
97
73
116
105
81
103
100
74
55
61
37
80
88
63
88
92
65
82
82
58
67
68
46
65
71
50
70
80
56
73
87
57
67
84
51
55
63
40
82
85
64
78
80
59
89
84
65
83
79
59
76
79
58
70
76
54
85
88
66
118
114
91
123
111
87
126
115
90
112
108
83
113
103
78
127
117
89
100
98
68
84
93
58
86
96
62
99
106
71
88
91
63
59
60
36
71
74
51
78
84
59
80
91
61
81
94
60
63
70
45
88
92
70
88
85
66
98
94
74
76
75
53
77
80
56
78
78
55
83
80
57
114
110
84
121
115
86
118
109
82
128
116
92
111
102
74
116
115
80
113
120
80
105
113
74
103
109
74
96
103
64
87
93
60
78
82
54
73
75
48
78
82
58
75
82
54
80
90
55
64
71
42
93
97
75
89
84
65
93
90
70
82
83
60
82
85
61
88
85
62
97
91
67
117
113
86
120
120
88
106
100
69
123
106
80
109
101
70
86
91
54
103
117
74
97
105
71
90
94
61
91
98
58
84
90
57
82
86
57
79
80
50
75
78
54
69
74
48
74
84
49
57
64
32
84
88
63
