P3 24 24 255
145
167
189
145
167
189
140
163
184
145
167
186
144
167
185
149
171
190
148
171
189
150
172
189
152
173
190
148
170
186
147
169
186
150
173
189
149
172
188
146
169
185
148
171
187
149
172
186
147
169
183
149
172
186
149
172
186
149
170
184
153
174
188
152
173
187
154
175
189
152
173
187
142
164
187
141
163
186
140
162
185
145
167
189
149
171
192
152
174
195
149
171
192
151
172
190
157
178
195
155
176
193
149
171
187
149
171
188
145
168
184
142
165
181
141
164
180
147
170
185
145
168
182
149
172
186
148
171
185
143
166
180
148
171
185
145
168
182
150
173
187
149
171
185
141
163
186
140
162
185
146
168
191
146
168
190
148
170
191
150
172
193
149
171
191
150
172
189
154
175
192
153
174
191
146
167
184
150
173
189
152
175
191
150
173
189
152
175
191
153
176
190
152
175
189
153
176
190
155
178
192
153
176
190
155
178
192
151
174
188
150
173
187
148
170
183
139
160
184
134
156
179
138
160
183
141
163
185
145
167
188
141
163
184
142
164
185
149
171
189
150
171
188
149
170
187
145
167
184
148
170
187
146
169
185
149
172
188
152
175
191
151
174
189
149
172
186
150
173
187
150
173
187
150
173
187
153
176
190
155
178
192
157
180
194
161
184
197
136
158
181
134
156
179
139
161
183
144
165
187
142
163
184
142
164
185
153
175
195
151
172
190
154
174
191
153
173
191
150
171
188
150
172
188
151
173
189
148
171
187
148
171
187
151
174
188
150
173
187
149
172
186
149
172
186
147
170
184
150
173
187
151
174
188
153
176
190
158
180
193
139
162
185
140
163
186
138
161
184
141
164
186
133
156
177
136
159
180
142
166
186
144
168
185
152
176
192
148
172
188
140
164
180
136
162
179
136
162
179
147
171
188
153
173
190
151
173
188
156
179
193
152
175
190
151
174
189
143
166
180
143
166
180
147
170
184
148
171
185
151
173
186
133
160
181
131
158
179
129
155
176
134
161
182
136
163
184
134
161
182
134
160
181
137
162
179
148
172
187
159
183
197
148
171
185
145
169
186
136
162
178
146
165
180
156
165
181
144
163
179
143
166
182
142
165
180
144
167
182
141
164
178
141
164
178
143
166
180
144
167
181
144
166
179
132
159
180
134
161
182
135
163
184
136
163
184
138
165
186
135
162
183
138
164
185
127
144
165
119
133
151
141
152
169
137
146
162
131
138
153
126
135
147
114
121
132
129
132
143
134
152
167
142
166
182
141
164
180
140
163
179
142
165
179
148
171
184
145
168
182
147
170
184
147
170
183
121
148
169
130
157
178
131
157
178
130
157
178
133
160
181
126
153
174
137
164
185
124
144
164
91
107
125
65
78
92
71
80
92
88
92
106
84
88
102
87
93
107
90
98
112
112
131
147
136
159
175
139
162
178
142
165
180
142
165
179
141
164
178
140
163
177
148
171
184
151
173
186
126
153
174
127
154
175
129
156
177
129
156
177
132
159
181
131
158
179
133
160
181
130
158
176
130
155
170
133
151
161
95
109
116
79
91
101
79
86
101
116
123
140
127
140
157
133
154
171
134
158
174
141
164
180
141
164
180
141
164
178
140
163
177
142
165
179
145
168
182
149
171
184
131
156
178
134
160
181
136
161
182
140
165
186
142
167
187
138
163
183
141
166
186
141
166
184
154
173
188
186
198
208
167
174
180
93
103
104
52
56
61
67
67
76
99
105
115
139
156
169
141
162
177
147
168
184
147
168
183
141
164
178
139
162
176
140
162
176
155
177
191
158
180
192
160
172
193
170
181
202
183
194
213
197
206
225
196
205
222
152
162
176
160
170
182
171
183
193
172
182
192
189
194
202
199
201
206
147
151
150
73
72
72
52
47
52
113
107
113
191
186
188
173
175
181
168
177
189
175
185
198
157
172
185
144
163
177
147
164
179
188
201
211
192
205
213
187
192
209
186
189
204
188
189
204
179
180
194
179
179
192
160
161
171
162
164
171
166
171
176
163
169
173
169
172
177
176
176
181
167
168
171
143
142
146
134
130
138
171
164
173
197
192
192
181
184
186
179
187
194
193
201
207
195
203
213
190
201
214
157
166
179
162
166
173
179
184
186
62
64
76
58
59
69
55
54
63
48
47
55
44
44
52
44
43
51
44
44
50
42
45
49
42
46
50
43
46
52
46
48
56
48
50
58
57
59
68
60
60
72
62
62
76
65
70
79
70
76
84
74
80
88
82
86
93
100
104
113
110
117
130
119
124
136
129
129
136
161
162
163
8
12
20
9
11
18
9
10
15
9
11
17
10
12
19
9
11
20
10
12
21
9
14
20
9
16
22
29
37
47
43
51
63
38
47
60
48
57
70
45
55
71
42
53
71
56
67
86
50
57
74
42
47
62
31
37
52
31
43
58
30
46
62
41
55
71
73
82
93
120
128
133
15
23
31
19
25
32
21
26
31
21
27
33
22
28
37
23
29
41
25
31
45
26
35
45
26
38
48
34
48
63
38
55
73
38
55
71
46
65
80
44
65
83
42
66
85
45
72
94
45
69
88
43
67
86
41
70
92
42
72
93
44
75
98
52
82
104
69
94
112
98
118
132
5
25
36
7
26
36
8
27
36
8
29
42
8
29
45
10
32
49
15
36
55
16
42
59
17
45
63
17
47
68
18
49
72
20
53
74
24
58
79
26
60
82
27
62
84
32
70
93
36
72
94
42
77
98
49
87
110
59
93
115
65
99
122
80
112
134
98
128
146
110
134
151
6
38
54
7
39
55
8
40
57
8
42
64
7
42
65
9
44
66
11
47
70
12
52
76
11
53
77
16
57
82
21
63
87
22
66
92
26
69
94
32
73
97
44
83
106
60
96
121
71
105
129
78
110
133
89
120
141
99
127
148
108
134
155
120
147
164
123
150
165
124
145
161
14
50
73
15
51
74
19
55
79
20
58
84
19
57
84
19
57
84
25
63
90
29
69
94
23
63
88
22
62
87
28
69
94
33
74
100
36
76
102
42
80
104
59
95
118
80
114
137
97
129
151
106
136
157
115
143
163
122
147
168
126
152
171
132
158
174
134
159
174
134
155
171
41
78
106
40
77
105
43
81
109
47
85
114
43
81
110
44
83
112
53
92
120
53
91
118
47
85
110
43
81
106
47
84
110
52
89
115
54
91
116
59
94
116
74
107
128
97
127
148
113
141
161
122
149
167
128
153
170
133
156
175
137
160
178
141
165
180
143
166
180
143
163
178
66
102
132
66
102
131
66
102
131
70
105
134
74
110
138
77
112
141
80
116
144
77
113
140
70
106
132
65
101
127
65
101
128
70
105
130
72
106
130
77
108
130
89
119
140
110
138
157
124
149
167
129
152
168
136
159
174
137
159
177
140
162
179
142
165
179
142
164
177
143
162
178
82
115
146
84
117
148
84
117
148
86
118
147
91
123
151
95
126
155
96
128
156
91
125
152
85
120
146
80
115
141
79
114
140
82
115
139
84
116
139
90
121
142
104
133
154
115
142
160
127
152
167
134
156
170
139
159
173
144
164
179
144
164
178
143
163
176
141
161
173
137
157
171
94
125
155
95
126
156
95
126
155
95
126
155
99
130
158
104
135
163
102
133
161
97
128
155
96
126
152
93
123
149
91
122
148
93
124
147
93
124
145
100
131
152
111
142
162
123
151
168
130
156
170
137
160
174
139
161
173
146
165
177
152
170
182
148
166
178
147
165
176
146
165
176
95
126
155
99
130
159
101
132
161
102
133
161
105
135
163
107
138
165
109
140
167
109
139
165
103
133
158
101
131
157
100
130
156
101
131
153
103
134
155
106
137
158
109
140
161
123
151
169
130
156
171
135
158
172
139
161
174
137
158
172
138
160
174
139
160
175
141
163
177
146
166
178
