P3 24 24 255
41
156
226
38
157
227
35
158
229
35
158
229
36
158
229
35
158
229
32
158
228
31
157
226
32
157
227
31
157
228
27
159
233
26
159
233
26
159
234
26
159
234
24
160
231
25
163
232
29
161
232
31
160
232
32
159
234
46
162
231
42
162
231
29
158
230
28
159
230
26
160
230
50
158
227
47
158
228
43
159
229
44
159
229
44
160
230
42
159
229
37
159
227
37
159
226
40
158
224
41
160
226
38
160
230
37
159
230
37
158
232
36
158
232
36
160
231
38
163
232
40
163
233
39
162
232
44
160
235
101
175
237
95
174
239
44
159
232
43
159
232
38
160
230
59
160
224
55
161
227
53
161
228
53
160
227
55
160
227
53
160
227
51
161
227
51
162
227
49
161
224
51
163
227
50
163
228
49
162
228
48
159
228
49
159
229
48
161
232
49
163
233
51
163
231
50
164
232
58
164
235
123
181
239
128
183
239
62
162
228
70
166
232
64
167
233
67
159
222
64
162
223
62
161
223
61
159
222
64
158
222
63
159
223
63
162
225
64
163
226
61
164
225
60
163
225
63
163
228
63
162
228
60
162
227
60
163
228
61
165
231
61
166
232
64
166
231
64
166
231
74
166
234
127
183
236
151
194
235
106
175
228
114
181
237
94
174
234
78
159
222
73
160
221
74
163
223
77
164
223
78
162
222
77
163
222
76
164
223
75
164
222
73
165
223
72
164
222
75
163
224
76
163
225
74
165
226
75
167
228
76
168
228
76
167
228
78
166
229
87
168
227
106
175
233
156
197
240
183
211
241
165
201
243
146
190
238
127
182
235
87
158
219
89
163
215
76
148
197
78
152
206
85
158
215
85
159
215
86
163
218
86
164
219
87
165
219
86
166
221
83
165
225
83
166
224
84
165
223
86
165
223
88
165
222
88
166
220
90
165
224
104
171
225
137
189
231
176
206
238
190
212
241
172
202
241
152
192
235
151
191
235
92
158
216
108
163
208
73
108
141
89
131
163
124
172
209
120
171
211
114
168
213
105
163
211
98
159
209
94
160
214
90
159
219
92
162
217
94
164
218
97
161
219
97
163
218
100
167
220
109
170
224
119
177
226
154
193
231
188
206
238
192
211
241
166
198
239
157
193
234
176
203
237
94
158
214
97
157
211
92
131
169
99
119
133
110
123
129
129
148
161
156
176
194
167
193
217
156
193
222
144
186
221
125
173
212
116
166
204
107
163
206
104
160
206
99
159
207
106
167
217
125
172
221
132
175
211
164
195
224
194
206
230
200
212
236
177
202
234
160
192
230
187
209
240
92
154
211
92
157
209
97
159
203
99
130
160
81
84
86
60
59
62
79
78
81
113
117
123
149
160
166
180
198
209
183
208
227
172
198
225
155
188
221
139
179
212
126
171
207
108
154
192
91
120
157
104
130
140
114
150
169
155
172
187
191
196
206
181
196
216
157
188
222
192
212
241
71
135
188
74
138
190
76
144
193
86
144
187
134
161
174
139
138
138
79
76
81
38
40
41
37
43
44
67
74
80
110
121
132
147
162
183
159
184
214
150
186
222
135
179
219
120
165
202
101
132
160
94
117
125
66
101
123
80
104
130
140
132
149
175
183
200
160
187
217
195
211
237
53
114
154
55
118
159
54
120
161
49
118
158
92
142
170
186
201
212
183
191
197
144
153
158
81
88
94
32
33
34
24
23
26
37
41
48
65
80
96
91
117
142
105
145
181
106
160
205
114
164
206
111
157
192
102
140
177
73
103
135
81
88
111
122
143
167
158
184
208
206
215
234
68
90
129
68
92
131
65
90
130
66
94
134
71
97
137
128
145
176
194
212
225
183
200
217
177
190
204
153
161
162
100
96
96
43
37
37
24
29
29
29
41
48
37
48
62
51
75
98
78
120
156
100
155
196
109
160
212
101
156
206
84
138
171
78
127
162
109
146
174
198
214
228
59
67
106
57
64
107
62
69
114
63
66
109
61
67
108
65
82
119
146
160
188
185
202
220
177
196
209
180
193
206
177
187
199
161
166
173
123
122
113
77
71
63
46
41
46
29
31
33
29
38
48
47
68
88
69
109
134
95
145
182
103
159
197
96
153
196
86
139
185
150
186
211
57
69
108
54
66
106
55
71
109
53
66
104
51
66
102
49
70
107
77
93
130
157
176
198
180
198
212
176
189
204
173
188
202
171
191
203
184
197
208
189
191
191
156
155
145
105
98
89
63
61
58
42
46
55
31
35
48
43
59
73
68
100
126
92
134
173
90
141
185
104
149
185
58
66
106
52
65
100
51
67
103
56
67
109
55
69
110
58
80
121
56
78
121
82
104
139
153
171
193
175
189
205
171
186
197
169
188
196
180
197
207
201
210
216
212
214
221
203
203
199
162
162
154
105
108
107
64
68
74
44
47
57
35
38
49
42
56
71
64
92
115
72
107
137
55
62
102
57
72
111
56
71
108
60
71
107
57
68
105
58
78
116
64
78
123
62
77
123
82
102
134
150
167
185
169
185
196
174
186
191
184
193
194
200
208
206
212
217
216
206
213
217
192
200
214
160
176
190
121
147
158
90
113
123
63
76
84
42
52
58
35
45
50
32
44
55
57
65
102
56
70
111
56
71
110
54
65
97
74
85
111
107
127
151
110
131
163
121
141
178
108
129
163
147
167
193
170
187
205
190
199
206
202
206
207
214
220
213
222
223
219
202
210
208
161
185
190
118
162
178
100
149
176
96
141
166
80
126
149
63
101
126
51
82
99
36
68
91
54
64
102
56
70
108
53
71
107
56
71
106
120
134
157
193
205
218
191
205
222
190
207
228
180
201
227
173
192
223
174
191
218
178
194
213
204
215
223
232
237
234
243
243
243
212
224
225
149
177
192
87
138
163
65
121
149
66
120
149
54
114
151
50
112
152
51
117
156
49
117
160
107
123
144
130
149
170
118
139
163
132
151
174
166
183
204
205
215
229
216
219
234
199
207
225
191
210
232
203
217
239
191
204
230
173
194
220
179
197
216
225
231
234
249
251
250
206
217
227
178
197
216
135
171
191
133
168
191
143
174
195
115
157
185
87
138
178
69
131
171
120
169
197
199
205
216
202
213
222
203
216
231
212
224
234
190
209
228
169
191
217
191
204
231
166
183
211
181
202
220
209
217
233
198
208
230
198
208
225
201
208
220
229
233
238
246
246
248
229
231
237
231
235
239
220
232
233
230
236
241
230
232
240
203
212
230
169
190
224
154
187
221
197
216
233
231
228
242
226
230
240
207
216
230
195
211
229
168
197
222
141
172
200
166
186
219
143
171
199
139
169
191
164
180
204
153
172
192
185
198
214
190
199
213
188
189
202
230
229
234
254
253
253
255
254
254
254
254
254
252
252
253
246
248
252
224
231
241
191
200
230
158
187
227
181
206
227
154
195
227
186
212
232
174
202
225
158
188
218
157
188
217
169
200
224
163
189
219
132
165
193
123
154
186
135
157
192
130
153
183
137
156
182
135
151
172
161
167
185
187
194
204
236
240
243
254
254
254
254
254
255
253
253
252
250
253
254
240
248
250
218
225
237
169
193
226
160
188
222
116
169
209
146
184
213
149
184
218
138
175
212
146
183
216
146
180
211
144
180
211
124
161
192
106
138
168
97
126
158
100
129
163
120
142
172
91
110
134
95
112
131
104
123
139
192
202
209
255
255
255
254
255
255
254
254
254
247
250
251
233
240
246
239
243
247
194
210
231
134
171
218
163
194
220
163
193
225
148
177
217
117
157
199
102
150
192
112
155
192
115
159
189
95
135
167
82
116
141
83
117
140
55
79
106
64
85
108
51
69
90
47
68
85
59
86
104
121
138
151
227
229
231
255
255
255
253
254
253
248
250
250
217
225
239
218
229
239
187
208
231
91
150
203
