P3 24 24 255
129
138
120
125
137
117
126
139
119
128
145
124
126
144
123
130
147
131
135
151
138
133
149
136
128
144
131
132
148
134
118
126
117
56
58
61
77
77
89
108
115
122
115
134
125
125
144
128
126
138
133
94
99
107
82
82
89
56
55
51
88
95
76
114
127
101
118
131
104
119
132
101
122
132
109
122
134
114
127
141
120
130
147
125
125
143
122
125
142
124
127
144
127
126
143
126
125
142
125
124
141
124
124
140
126
101
115
109
87
96
101
88
92
102
124
124
133
124
125
132
120
121
133
103
105
120
101
108
111
103
114
99
105
118
89
106
119
87
110
124
92
113
127
94
122
132
111
127
138
118
132
145
125
132
149
127
128
146
124
127
145
125
130
147
128
131
148
129
130
147
128
133
150
130
133
150
127
134
151
131
117
133
123
83
89
92
79
76
89
86
84
100
109
111
128
103
106
120
117
124
117
123
135
105
110
124
84
113
128
89
116
130
94
116
130
97
123
140
121
126
143
123
126
145
124
122
143
121
121
142
121
126
144
124
132
149
128
133
150
129
134
151
128
137
154
130
136
153
124
135
152
125
133
150
133
114
123
121
87
86
97
101
100
116
118
119
136
106
107
118
115
121
111
125
135
102
112
126
84
110
125
85
113
127
90
119
133
99
120
141
125
120
140
124
120
140
124
120
140
124
121
142
125
125
143
126
129
145
127
130
147
126
133
150
127
135
152
128
133
151
125
132
148
126
133
144
133
125
131
133
90
92
103
90
87
101
88
84
98
54
54
61
79
85
76
122
133
107
116
130
93
113
128
90
112
126
91
118
132
98
124
130
125
127
137
129
134
143
135
138
147
139
139
148
140
135
148
139
134
148
138
132
146
134
132
146
132
134
149
132
135
147
131
131
140
129
124
131
127
112
117
122
88
91
103
66
69
81
78
81
88
95
99
96
110
118
101
122
133
105
117
131
94
116
131
93
114
128
93
117
131
97
105
99
102
113
109
112
117
114
116
111
108
110
116
113
116
129
128
132
128
128
132
121
121
123
111
112
111
107
108
105
117
119
116
121
122
122
113
115
120
115
119
129
118
122
135
114
122
132
117
127
126
125
137
121
125
136
109
121
132
99
119
132
95
117
132
94
118
132
96
118
132
98
88
77
84
101
91
100
101
90
99
98
86
95
99
87
96
99
87
99
103
91
103
105
94
104
99
89
97
85
75
82
74
66
72
81
77
83
102
100
111
103
105
118
101
106
119
90
100
109
101
114
109
120
133
109
125
136
103
121
131
97
116
128
93
115
129
92
118
131
96
120
132
99
90
83
90
110
103
111
107
96
106
84
71
82
82
69
79
76
63
72
70
57
65
89
78
86
90
81
92
85
78
89
74
64
71
61
51
60
86
79
95
87
85
101
86
89
101
89
93
100
113
120
110
123
132
102
123
134
96
122
132
100
122
132
103
123
132
102
125
134
104
121
131
101
106
99
106
111
105
113
94
84
93
75
63
73
78
66
75
83
70
79
77
65
72
86
75
84
84
75
86
84
78
90
85
74
84
61
50
64
85
77
96
90
88
105
73
76
86
91
99
94
123
134
113
122
135
101
123
136
99
122
135
103
125
137
110
126
137
111
125
137
111
124
135
110
86
79
86
85
79
87
84
74
83
79
67
77
79
66
76
76
63
71
74
62
69
88
77
86
89
80
91
81
74
86
82
72
81
67
56
67
78
72
85
68
67
75
78
82
82
121
133
116
129
143
117
128
142
114
130
144
116
129
143
118
129
142
120
130
143
123
131
144
124
128
142
121
67
59
66
68
61
68
74
63
72
72
59
69
67
54
63
67
53
61
73
60
68
78
67
76
76
67
77
71
64
74
69
59
63
62
53
56
65
61
63
85
88
83
116
124
109
124
138
115
121
137
114
124
138
120
129
143
129
129
142
130
126
140
125
127
141
124
127
141
124
127
141
124
64
51
57
58
47
52
63
50
55
67
51
57
55
38
44
52
33
39
55
37
47
47
33
45
46
33
44
50
38
45
50
36
42
62
56
57
95
102
95
122
137
121
117
132
111
114
130
110
116
133
115
117
134
118
121
137
123
122
138
124
120
137
120
119
135
117
116
132
114
117
133
115
30
22
26
34
27
31
36
27
31
38
26
31
38
24
30
50
34
38
55
38
46
51
34
46
41
27
37
39
30
32
56
54
53
98
104
99
119
133
120
120
138
119
117
133
112
114
129
108
111
128
107
110
127
106
111
128
107
111
128
107
108
125
106
108
125
106
110
127
108
110
128
108
30
34
29
20
22
19
19
19
17
20
18
17
28
23
23
39
31
30
61
48
52
70
51
61
65
52
59
76
74
72
106
114
104
119
130
116
119
129
113
120
132
115
116
131
112
116
130
109
117
130
108
114
128
105
112
126
104
110
124
102
106
121
101
100
117
98
108
125
106
116
133
114
111
124
107
104
117
99
103
113
97
101
108
93
92
98
83
47
48
39
58
47
48
66
47
55
63
50
54
109
111
104
128
130
116
117
112
98
118
114
101
126
131
115
118
133
115
118
132
115
123
133
117
124
134
118
123
133
117
120
130
114
114
129
111
110
127
108
110
127
108
112
129
110
115
130
107
113
128
105
114
128
106
115
128
106
119
131
110
104
114
99
86
82
81
65
46
56
59
47
51
110
117
104
129
125
107
93
76
64
58
42
35
93
92
82
110
127
109
111
126
112
117
125
115
119
128
118
122
132
121
119
130
119
118
125
111
116
123
107
112
123
105
114
126
108
111
125
101
106
120
96
105
119
95
109
123
99
110
125
101
116
132
112
114
115
109
69
54
61
71
62
61
113
123
102
126
130
105
97
84
71
42
24
19
55
45
39
108
115
101
110
129
110
109
130
111
111
129
111
114
129
112
109
121
106
84
78
67
80
71
60
119
121
107
126
132
116
110
124
100
108
122
97
107
121
96
106
120
95
107
121
96
110
124
101
114
119
108
81
74
74
73
71
63
108
120
94
112
127
98
84
83
66
44
26
21
48
26
24
85
71
63
103
104
89
95
100
83
100
100
84
105
97
84
74
60
49
47
26
19
77
61
53
114
113
100
112
120
104
116
129
111
113
126
108
110
123
105
110
123
105
112
125
107
115
128
110
117
124
116
92
92
93
82
85
80
109
121
100
111
128
99
83
85
67
52
32
29
56
28
28
58
36
31
63
44
38
59
39
34
57
34
30
59
33
31
53
26
24
55
39
31
96
94
81
109
117
101
103
115
97
116
132
112
114
129
111
112
128
112
114
129
117
113
127
117
121
132
126
102
108
109
92
96
100
99
104
103
123
133
121
122
134
114
112
111
96
78
57
54
62
33
33
53
27
24
43
21
19
43
20
20
44
20
20
41
20
19
43
27
24
76
76
64
103
114
97
101
115
97
97
111
93
110
127
97
109
126
97
111
127
103
113
128
110
123
137
124
117
125
121
97
103
102
112
118
114
107
114
107
124
133
122
120
134
118
128
134
119
112
103
93
79
60
54
69
48
43
60
37
34
59
32
31
58
31
29
44
26
21
75
68
59
110
116
103
105
117
101
101
113
97
100
112
96
113
123
89
106
117
82
111
121
89
123
132
103
129
137
112
117
126
105
115
124
104
119
128
107
116
125
103
120
130
108
113
134
108
115
136
112
116
128
107
111
114
95
98
96
79
77
56
49
73
44
41
66
47
41
59
52
42
96
99
85
108
116
102
107
116
102
116
124
111
120
128
115
111
119
85
107
116
81
111
120
85
120
130
95
118
128
93
116
127
92
115
126
92
118
129
97
120
131
101
120
131
103
118
134
105
120
140
110
112
130
101
114
126
99
117
119
95
86
68
56
70
50
41
75
69
55
78
80
64
83
87
70
86
93
73
96
103
82
106
113
92
107
114
93
