P3 24 24 255
145
146
74
133
147
67
94
113
38
94
107
49
71
83
31
91
106
39
89
97
39
50
44
18
49
37
24
39
34
16
59
56
32
65
58
31
59
46
25
90
72
44
102
86
51
98
85
51
74
63
38
71
62
38
117
111
78
131
126
84
155
149
103
167
161
126
181
172
147
173
159
128
106
119
49
91
115
39
102
131
50
109
138
63
75
101
30
99
129
42
105
134
49
68
86
33
45
55
23
58
68
30
64
71
36
80
85
37
82
77
38
98
87
49
111
97
62
89
75
46
84
71
45
64
61
31
66
68
30
128
126
50
185
187
97
120
122
68
114
102
73
123
107
72
75
96
35
81
103
44
68
90
34
68
90
31
86
113
41
95
142
45
91
145
43
89
136
48
88
125
44
103
135
43
105
126
45
93
106
40
127
134
71
124
123
68
100
93
54
72
64
37
76
67
35
76
71
35
97
94
45
163
162
66
170
174
74
103
106
48
91
79
42
110
100
60
60
90
32
73
91
46
51
62
33
48
63
23
78
109
39
88
147
45
75
142
34
83
141
42
77
119
39
82
110
39
113
128
50
97
104
42
116
123
56
111
111
50
83
78
31
72
66
34
57
53
28
80
66
41
115
98
54
176
170
83
162
167
61
132
139
48
150
149
66
143
148
66
77
112
49
51
66
27
45
56
28
52
77
31
71
109
37
78
126
33
73
117
30
73
103
39
58
68
31
78
73
32
113
99
35
111
94
40
97
84
30
97
82
25
104
89
35
87
78
30
73
70
30
82
68
29
142
124
63
201
195
105
200
208
95
186
199
89
204
213
106
166
190
82
73
106
45
34
45
17
52
69
31
70
105
42
82
111
39
120
135
62
85
93
42
48
50
22
86
76
37
133
113
42
139
115
33
131
106
37
128
102
37
133
110
40
127
112
41
113
108
36
138
139
53
145
142
53
183
180
71
204
205
86
201
210
99
207
221
128
215
228
140
143
180
82
61
92
38
27
39
16
63
86
42
91
122
58
99
107
48
118
107
56
58
46
25
45
38
23
108
97
36
151
133
48
158
139
54
161
147
49
175
152
57
164
144
49
126
116
33
129
130
44
169
172
58
194
200
77
196
205
71
195
201
73
205
219
108
215
235
148
179
203
120
96
143
48
68
97
45
39
56
23
44
60
28
46
62
31
49
49
25
44
38
16
36
33
16
52
41
28
101
86
35
146
129
46
170
153
56
178
166
61
189
174
70
173
159
57
122
112
36
135
138
43
176
183
62
195
208
76
202
210
86
206
217
109
194
217
123
155
194
109
118
173
70
102
158
61
53
72
23
37
43
31
29
36
22
26
35
18
28
27
18
38
34
26
39
34
21
61
47
25
109
92
40
156
140
55
181
167
65
195
183
86
205
196
94
178
166
74
123
115
44
152
157
53
181
193
73
193
207
92
209
214
123
205
217
141
128
163
85
82
137
57
94
167
59
113
182
82
90
93
37
58
51
39
27
25
18
24
28
19
36
32
24
40
30
26
46
35
25
79
62
27
114
99
35
157
145
58
183
173
78
199
190
101
211
206
117
159
151
73
113
108
37
171
176
71
184
194
95
193
205
129
199
205
147
158
173
117
59
99
30
54
115
36
81
159
49
101
180
70
112
103
45
103
87
42
54
44
20
27
22
21
55
46
24
54
42
22
59
45
31
104
86
39
142
126
55
170
161
77
186
179
96
196
190
113
206
201
135
167
160
88
124
119
44
162
163
70
201
206
140
212
219
178
199
207
157
140
160
97
98
133
64
75
125
48
84
155
42
97
177
59
89
70
31
114
92
34
98
85
32
36
23
19
92
79
33
102
90
41
64
51
27
117
99
46
165
149
72
188
181
101
190
186
115
198
192
132
203
198
147
191
184
112
182
175
93
195
190
111
231
229
187
240
245
215
194
203
143
145
167
93
113
139
75
83
121
53
85
151
44
92
173
62
72
52
34
105
77
33
136
120
46
67
50
26
122
104
37
144
133
61
68
57
28
102
86
33
155
140
65
186
180
104
188
187
121
200
198
147
209
202
158
202
192
119
199
189
107
217
207
139
235
231
191
219
220
178
181
190
119
119
139
67
66
87
35
44
78
24
67
133
38
75
162
59
54
43
26
100
73
32
156
137
50
118
97
35
150
124
40
174
161
80
82
73
42
93
79
35
144
130
65
178
170
101
195
192
134
204
204
162
206
198
156
198
184
107
210
202
129
218
216
153
213
219
163
163
168
100
153
170
92
143
165
96
66
82
38
39
70
31
77
141
53
61
149
44
45
36
22
90
66
27
157
138
44
156
136
48
176
149
53
189
177
84
88
83
42
83
68
34
142
128
63
185
175
104
206
197
140
221
212
175
185
174
118
199
185
114
220
222
153
196
210
140
163
188
114
142
171
81
111
154
59
106
148
66
58
74
34
32
54
24
84
139
57
68
150
45
52
40
17
87
64
28
153
129
45
162
141
48
186
163
66
178
172
77
66
67
25
47
39
24
88
83
40
142
143
75
169
168
98
166
158
104
149
134
64
218
205
140
186
203
131
127
163
82
105
154
65
109
168
66
89
158
52
77
143
49
61
104
42
57
95
41
80
133
47
62
127
36
82
72
24
102
86
39
130
103
35
165
144
65
204
190
101
155
159
75
57
70
31
31
41
26
62
83
47
65
89
34
75
90
42
66
64
31
150
133
63
218
207
139
132
157
81
108
158
69
82
150
52
91
164
62
101
171
70
91
165
70
80
157
63
87
154
60
98
153
60
60
108
37
122
126
52
119
122
52
134
119
48
196
184
115
202
202
115
112
130
54
59
88
48
60
94
45
67
114
46
66
113
40
42
69
29
36
38
23
152
135
70
214
205
131
131
159
75
122
177
80
87
165
58
99
172
66
127
181
82
87
158
58
63
150
48
76
147
46
105
156
67
58
97
41
115
150
65
110
159
56
146
163
67
192
196
115
163
179
85
85
113
42
47
83
39
62
108
45
52
105
40
69
117
46
48
79
28
40
42
27
122
105
44
210
199
121
170
192
107
112
164
65
86
156
54
108
161
58
122
153
60
85
136
40
72
137
46
100
154
65
135
176
98
85
120
64
92
158
63
88
181
52
140
192
75
156
178
83
122
154
68
93
125
65
63
92
45
67
109
48
82
127
64
95
132
67
93
124
60
47
53
28
85
70
24
192
173
99
193
198
115
119
164
58
84
138
47
123
161
71
122
148
64
97
135
48
116
164
71
151
193
103
170
204
131
143
178
111
111
183
75
93
166
46
136
189
76
162
198
103
100
135
71
91
118
66
83
105
53
82
114
53
107
140
76
128
159
95
93
131
66
61
90
35
68
78
24
173
153
76
203
188
102
157
184
73
115
164
68
108
148
60
106
148
60
90
153
54
130
185
85
164
201
111
136
173
97
100
157
79
94
158
61
98
159
54
142
183
79
152
181
79
127
157
78
100
123
69
128
157
97
102
142
72
74
104
41
94
130
58
98
156
69
95
163
61
113
168
66
163
164
67
177
163
80
156
178
82
126
163
69
123
148
68
114
149
69
102
174
64
91
164
51
118
167
65
98
140
51
79
146
54
64
123
48
93
168
66
146
187
84
160
179
87
132
157
75
153
177
111
153
199
106
109
170
68
76
114
47
81
126
43
88
162
50
90
180
53
102
182
62
139
167
65
140
156
60
128
176
68
121
179
75
101
136
61
72
112
42
83
165
56
74
165
42
95
158
44
132
180
79
130
191
91
67
135
55
76
168
53
108
170
60
146
181
100
102
134
64
141
168
94
136
182
81
98
163
59
82
125
49
115
159
76
87
155
52
94
177
50
95
171
51
130
173
77
123
172
66
89
174
50
76
163
52
45
94
25
34
73
22
67
143
47
78
160
49
84
147
40
111
164
65
126
181
89
