P3 24 24 255
201
239
250
201
239
251
200
239
250
202
238
250
205
237
250
200
239
250
199
239
249
204
237
249
204
236
249
201
236
248
201
236
248
201
236
249
201
236
249
200
235
248
199
234
247
199
234
246
198
233
245
197
232
246
196
231
246
196
231
246
192
227
242
191
225
237
193
226
235
176
209
218
202
240
251
203
240
251
203
240
249
206
239
249
212
237
249
207
239
250
205
241
250
208
239
251
206
238
252
205
238
251
204
237
248
202
237
248
202
236
248
204
235
247
204
236
247
202
234
246
197
230
243
186
221
233
192
222
232
193
217
224
174
194
196
173
190
188
189
208
210
175
202
211
204
239
250
205
239
249
206
239
248
209
238
246
214
236
244
212
237
245
208
240
248
205
239
249
203
237
252
206
237
251
207
236
245
203
236
245
200
233
243
202
229
238
209
237
246
203
232
243
193
223
234
171
199
206
176
191
192
169
166
156
151
140
113
160
143
113
178
173
157
187
205
209
213
238
251
213
238
252
213
239
253
214
239
252
213
239
246
212
240
248
210
240
250
209
240
252
207
240
252
209
237
246
211
233
238
204
228
233
200
225
233
203
226
234
215
237
244
208
231
241
190
213
221
180
185
189
158
145
139
147
120
99
148
117
80
155
123
78
160
142
112
172
181
178
212
235
247
211
236
249
211
238
254
209
238
253
209
241
249
210
240
250
210
238
251
211
238
254
211
241
250
208
232
236
215
228
229
220
230
233
216
231
237
212
231
238
213
231
236
207
224
230
185
197
201
174
160
156
143
113
98
135
99
68
142
107
64
147
112
61
147
123
82
155
155
143
204
237
244
205
238
246
207
241
250
208
242
251
210
240
247
211
239
248
213
238
251
213
237
252
212
237
246
220
238
238
227
235
233
231
235
235
216
225
230
202
217
222
188
200
203
174
183
185
168
171
170
148
134
124
125
101
77
125
100
61
125
104
60
131
105
53
132
108
63
155
149
130
205
239
245
208
239
242
211
239
239
214
238
239
216
236
240
214
234
241
212
232
242
211
232
243
211
231
240
222
235
237
228
234
232
224
230
229
193
203
206
182
192
196
158
164
164
129
131
128
143
141
136
129
123
115
110
99
77
106
93
57
103
95
61
113
99
60
118
101
63
148
142
119
207
232
240
206
223
224
199
208
202
203
207
200
203
210
212
208
218
223
204
219
224
201
221
227
209
225
233
222
231
236
221
228
228
205
217
218
180
194
197
176
184
187
123
126
125
101
97
91
119
112
105
118
114
111
101
95
80
86
76
51
88
79
62
93
85
63
96
87
58
112
106
84
190
202
212
177
173
164
159
144
126
166
156
143
151
157
160
183
189
187
201
206
202
205
214
213
221
230
231
226
235
236
202
215
218
181
202
210
176
196
206
196
207
211
161
165
159
120
115
103
105
94
82
94
85
73
87
77
60
91
80
61
83
72
61
81
75
56
87
84
58
98
94
73
161
157
156
148
133
111
131
119
98
135
137
133
111
125
133
160
165
160
207
204
191
192
188
180
207
208
201
241
247
243
183
198
202
159
182
195
168
189
205
213
224
228
245
251
241
227
225
211
178
169
156
122
110
89
96
86
64
97
89
71
81
75
60
88
85
67
94
94
75
98
97
84
164
147
127
143
135
111
120
133
125
121
152
167
107
129
143
147
155
151
179
175
160
141
132
120
165
161
150
246
248
240
169
178
178
158
173
182
176
188
198
229
233
234
255
255
249
253
253
243
252
250
242
236
230
218
196
191
176
143
140
127
106
104
93
87
89
79
78
81
75
83
84
84
143
133
109
127
130
108
121
144
140
132
170
188
125
151
167
162
171
169
199
194
179
166
154
140
177
170
158
255
255
246
166
168
167
124
131
137
125
130
134
182
179
176
231
229
225
248
248
245
253
253
251
255
253
248
252
250
242
233
233
226
201
203
196
159
164
157
116
122
116
88
93
90
118
124
110
120
132
116
132
152
147
136
163
174
130
153
168
174
183
180
195
190
175
164
154
140
154
146
136
255
255
250
157
157
154
57
60
64
46
46
48
70
64
61
108
103
104
149
146
149
202
201
202
236
234
233
249
248
245
249
250
245
253
255
249
240
245
234
213
219
205
176
182
169
109
119
108
113
128
117
134
152
150
129
148
158
115
133
144
181
188
183
184
181
167
162
155
145
163
159
153
255
255
255
183
183
183
73
74
80
58
57
60
48
43
43
35
28
35
33
27
33
63
57
57
102
95
96
163
158
157
220
219
213
245
246
237
253
255
243
255
255
244
251
253
240
99
102
87
95
108
101
92
113
120
81
104
122
79
94
102
190
195
188
202
200
189
195
193
186
233
233
230
251
251
249
190
191
191
91
92
97
77
77
82
75
72
75
54
48
57
35
27
33
24
15
13
17
8
7
41
34
32
85
81
74
119
118
107
192
190
182
232
228
224
253
251
246
89
89
79
91
101
100
80
101
113
68
93
112
95
111
113
213
218
208
237
234
231
238
236
233
255
255
252
194
192
182
162
157
143
88
83
78
68
67
71
67
70
73
56
56
59
57
55
55
54
50
47
30
24
21
43
37
34
43
38
34
16
11
6
45
41
37
94
90
88
150
148
146
78
78
70
92
99
99
123
139
149
124
143
158
166
176
174
240
243
228
255
252
250
254
252
251
252
251
244
221
215
201
181
173
154
93
83
74
73
68
69
72
72
72
69
67
64
79
75
70
74
68
63
54
48
46
61
56
54
56
51
49
30
24
23
24
21
19
30
29
28
44
45
46
78
77
70
71
75
75
72
81
88
70
80
92
145
146
142
245
243
224
252
249
243
252
252
251
235
231
221
210
198
182
178
164
146
108
96
88
94
86
84
95
88
84
92
84
78
99
88
80
91
79
71
77
70
68
60
55
56
46
41
41
43
38
38
24
23
23
28
30
32
43
48
52
80
81
78
73
76
77
50
54
60
51
54
64
125
118
115
225
217
194
255
248
237
245
242
239
167
159
146
104
87
71
90
72
58
83
71
64
77
70
67
96
88
84
87
76
72
77
64
57
58
45
38
43
38
37
28
26
27
27
24
25
29
26
27
35
36
38
54
58
62
56
63
68
84
91
95
81
86
91
43
47
54
36
35
47
74
64
65
162
150
127
216
203
187
176
166
159
86
74
60
71
54
41
48
32
25
55
46
45
59
56
58
56
53
55
45
39
41
31
23
22
23
14
13
15
13
14
11
11
13
22
21
23
18
17
19
45
45
46
73
75
77
66
70
74
70
83
94
70
79
90
41
46
56
22
22
36
40
30
37
97
82
59
122
102
79
95
76
63
68
54
40
72
58
48
54
41
40
45
41
46
58
63
71
48
54
65
42
46
56
15
16
25
13
13
20
25
24
29
17
17
21
15
15
19
28
28
32
46
45
45
61
60
58
61
62
62
57
77
93
56
72
87
43
56
70
34
43
59
36
36
47
69
59
43
104
85
67
88
71
60
63
53
41
58
47
38
58
47
47
49
45
49
55
57
64
51
55
64
48
50
58
35
36
42
28
27
32
37
36
38
35
34
35
24
23
24
39
38
39
55
53
49
64
60
55
70
68
64
48
68
83
49
68
83
50
68
83
46
63
79
41
52
62
39
34
29
59
46
35
52
45
40
47
41
32
50
40
30
68
58
51
63
54
51
62
54
52
65
57
54
71
63
59
70
62
58
69
61
57
68
64
60
58
54
51
61
58
54
73
70
66
83
80
73
81
78
69
78
75
68
62
70
78
63
72
79
57
66
73
46
56
64
43
50
55
38
30
24
39
25
14
40
32
26
43
34
28
72
59
50
70
58
48
76
63
52
92
79
70
95
82
75
100
86
79
99
85
78
99
86
80
86
77
73
75
67
65
90
82
79
104
96
93
96
92
86
89
88
79
87
86
80
