P3 24 24 255
150
154
168
155
159
170
157
161
170
160
163
171
202
206
208
140
144
144
153
156
160
163
163
168
162
166
169
139
146
148
97
109
110
76
88
88
60
73
69
54
72
71
59
75
78
76
91
94
105
117
120
164
167
168
181
181
181
178
178
175
178
179
172
175
176
171
176
175
171
177
173
170
151
154
169
154
158
169
158
162
171
165
168
176
188
192
194
151
156
157
172
174
178
179
175
172
160
165
163
87
99
104
97
116
118
92
106
102
71
82
72
33
55
53
72
95
96
121
144
144
100
122
121
108
116
116
183
182
182
180
181
177
179
180
173
178
179
174
180
179
174
181
177
174
181
186
192
178
182
191
183
187
197
183
187
195
172
176
179
187
190
186
179
173
159
165
149
122
159
152
139
117
125
126
149
165
162
119
123
110
87
86
73
91
106
105
137
157
158
144
164
165
138
159
159
87
105
101
151
156
155
182
182
178
183
184
177
182
183
178
183
182
178
184
180
177
167
169
158
200
200
193
192
195
198
187
191
195
150
150
151
183
178
170
171
154
130
123
94
62
136
125
110
116
119
114
129
138
123
88
87
73
89
82
65
104
122
124
134
154
160
149
165
166
152
167
167
130
148
142
100
114
111
175
180
179
184
185
182
184
185
180
184
184
179
186
182
179
125
125
117
169
167
155
156
160
159
172
175
177
132
127
120
143
132
115
136
121
100
96
76
58
105
98
89
123
126
121
94
104
91
47
63
65
82
87
82
70
97
105
49
72
85
100
116
112
145
159
155
183
197
192
92
111
108
147
157
158
186
187
187
185
186
181
186
185
181
187
183
180
100
106
120
110
116
122
114
123
130
143
146
154
96
91
81
119
114
88
115
116
100
78
80
74
71
70
65
136
141
141
72
87
89
37
70
89
83
104
120
75
96
110
35
54
72
52
68
60
99
114
110
144
159
157
107
122
121
105
115
116
171
174
173
186
187
182
185
184
180
188
184
181
104
118
144
116
131
149
118
132
146
117
125
140
105
108
114
115
119
112
56
66
61
59
68
69
70
75
74
139
147
150
41
50
59
25
48
61
40
60
69
40
55
62
44
63
74
56
72
66
89
103
103
87
101
103
107
118
119
138
148
149
171
176
174
190
191
185
187
186
181
189
185
182
99
118
144
109
128
152
121
138
156
129
142
161
140
153
174
140
153
169
123
136
144
97
102
108
55
62
65
140
148
154
161
162
171
143
147
148
149
160
156
163
177
173
173
193
197
188
204
206
200
215
221
212
227
231
225
237
241
220
232
235
217
224
225
214
215
214
194
194
193
189
186
185
95
111
137
102
118
142
111
128
147
120
137
152
120
136
152
126
143
161
131
147
164
125
134
146
111
116
125
160
164
173
194
197
204
208
211
218
200
209
212
193
204
201
187
204
207
195
212
217
200
219
225
209
228
234
211
230
236
203
218
225
205
212
220
216
219
226
203
205
212
189
189
191
99
115
139
96
112
136
99
116
135
110
127
142
109
125
141
115
131
149
116
132
149
124
134
146
125
132
143
143
150
160
149
152
159
166
169
176
178
177
184
182
182
183
180
184
180
174
179
174
168
177
176
169
180
180
182
193
193
200
207
208
205
206
209
206
207
209
218
219
221
213
213
213
101
117
138
94
110
133
95
112
131
95
112
127
102
118
134
107
124
142
108
124
141
115
126
139
119
130
142
127
137
148
153
157
164
181
183
190
181
178
185
168
166
167
165
165
158
173
173
165
179
180
173
179
181
174
174
176
169
188
186
180
200
196
192
196
196
192
208
208
204
213
213
212
94
111
128
92
109
130
92
109
127
91
108
123
96
113
128
99
115
133
101
116
133
109
122
135
113
126
140
126
137
150
187
191
198
235
239
245
214
216
222
179
181
181
157
161
156
163
167
161
204
201
190
217
213
202
203
199
188
175
167
157
161
154
145
144
140
133
133
131
124
141
141
139
85
102
116
90
109
125
91
110
125
89
107
122
91
110
125
95
113
128
99
115
128
103
117
130
111
123
137
134
146
160
159
170
179
176
182
189
194
194
201
179
180
181
149
152
141
137
143
139
181
177
163
240
239
231
244
243
237
167
161
151
98
90
80
95
88
80
87
83
75
93
94
90
78
94
106
91
109
123
95
113
126
92
109
123
93
110
124
98
114
127
103
117
127
105
118
130
112
124
138
122
134
147
112
123
131
109
113
118
123
123
128
166
165
163
166
141
95
141
134
107
154
147
139
187
184
175
248
248
242
207
201
192
94
86
76
86
79
71
82
78
69
82
83
77
63
76
85
97
112
123
106
120
130
103
117
128
105
119
129
109
122
132
112
124
133
113
124
135
107
119
133
107
118
131
107
114
121
34
36
39
20
20
22
107
106
100
212
163
94
181
147
95
180
167
154
165
160
147
227
226
219
235
230
221
104
96
86
82
75
67
83
79
69
76
78
68
54
63
70
105
117
126
115
127
136
115
127
135
117
129
138
122
133
141
126
135
143
126
135
145
106
118
132
109
121
134
89
94
99
14
14
14
21
21
19
44
45
39
168
156
129
181
163
140
171
159
142
185
177
163
179
176
168
238
233
224
119
110
101
77
70
62
75
71
60
64
66
53
41
50
57
102
120
130
118
134
141
124
135
143
128
134
143
134
140
147
141
147
152
139
146
153
109
119
130
118
128
134
75
76
80
25
25
22
50
50
49
22
22
21
126
130
127
214
210
203
179
174
158
156
152
135
146
143
131
169
166
151
130
124
110
111
103
92
121
113
101
139
134
123
40
47
52
105
120
131
137
152
161
141
153
163
143
152
164
144
154
164
147
157
165
143
152
161
117
126
134
129
137
140
65
65
68
70
71
68
76
76
76
23
22
22
88
86
80
161
153
142
197
190
179
219
213
202
219
213
201
217
212
195
205
200
179
195
188
167
190
183
162
183
178
159
38
41
44
108
116
122
142
150
155
156
165
172
160
171
180
158
169
178
161
171
180
160
169
178
136
141
148
144
149
151
65
66
66
89
89
89
73
73
74
26
26
25
69
67
62
157
150
139
186
176
167
226
216
207
231
222
209
220
212
193
204
198
173
198
192
166
192
185
160
176
171
149
38
37
36
117
120
114
152
157
145
156
159
153
163
165
164
170
172
171
171
173
175
174
176
179
166
168
174
162
165
163
71
72
69
79
78
82
84
83
84
61
61
61
53
51
47
168
161
151
182
171
155
183
171
153
183
171
154
179
168
147
169
161
139
131
125
107
113
106
88
101
96
79
32
33
29
62
64
57
109
111
102
139
140
133
155
155
149
170
171
163
178
178
172
181
179
177
185
186
184
176
177
173
59
59
60
75
74
80
98
99
101
81
81
77
39
35
31
169
161
147
182
172
149
166
157
132
133
123
103
177
167
148
181
172
154
76
68
55
59
52
41
55
50
40
30
35
32
43
48
50
94
99
105
104
109
115
122
128
132
125
131
133
138
140
139
157
156
151
171
172
164
176
177
171
45
45
46
60
60
61
78
80
83
70
69
61
27
22
19
161
151
136
180
166
151
122
107
94
94
82
65
193
183
163
216
206
185
138
128
110
77
67
56
74
66
56
25
29
31
63
70
75
123
131
138
115
123
133
107
114
131
101
105
126
109
108
120
119
117
115
86
87
83
79
80
75
33
34
29
53
54
49
60
62
61
44
43
37
20
17
12
119
111
102
195
179
162
193
175
156
188
173
152
208
195
172
211
198
174
192
178
158
155
142
128
148
137
123
39
45
38
84
87
86
90
92
93
84
86
87
70
71
80
65
65
83
77
77
87
86
83
86
41
41
41
5
5
5
12
13
11
57
58
56
71
74
69
41
39
35
18
17
10
87
81
76
163
154
133
170
161
135
171
163
142
165
159
142
167
161
143
175
169
154
130
124
115
93
90
82
