P3 24 24 255
93
64
71
90
69
78
86
65
74
115
85
91
111
72
81
105
70
77
75
49
56
99
74
83
96
67
75
115
77
85
147
107
111
97
64
66
89
60
69
114
79
84
131
91
94
120
84
91
97
67
74
73
49
58
114
88
98
121
91
101
115
88
98
90
65
74
80
57
68
81
65
75
121
72
81
116
82
85
124
85
89
121
83
86
105
63
71
109
74
81
84
58
66
94
70
80
86
65
71
100
69
75
130
92
97
100
67
68
109
72
76
145
99
105
144
101
105
104
72
74
95
66
70
92
67
73
110
86
94
97
72
81
98
71
80
91
61
71
85
56
69
89
65
78
133
79
87
98
61
63
113
71
73
96
65
61
89
56
55
88
61
61
87
64
66
98
64
71
89
58
61
97
59
61
135
92
95
140
101
103
143
102
104
144
98
102
129
87
89
102
67
68
105
73
77
113
83
90
71
49
55
52
34
40
70
48
55
85
60
68
74
48
59
84
62
72
141
88
94
93
60
62
156
119
121
143
107
100
103
62
58
93
54
54
93
58
59
101
56
60
101
56
58
115
69
67
122
75
74
146
101
103
157
114
116
142
102
102
120
81
80
113
73
74
119
82
86
102
68
73
55
34
39
46
33
38
57
39
45
73
53
60
78
58
65
89
70
77
143
91
95
95
67
70
152
118
122
164
117
115
148
91
94
137
80
87
123
73
79
122
76
79
126
80
80
118
75
71
129
91
85
147
110
108
144
108
105
133
99
96
129
92
89
152
113
111
130
94
95
108
75
77
82
61
65
63
50
54
79
61
67
84
63
70
92
70
77
98
75
82
130
79
82
103
79
81
130
102
108
127
90
90
146
97
103
132
78
90
104
59
69
104
68
71
121
82
83
124
95
90
157
139
128
159
141
130
160
137
127
166
137
130
176
143
136
179
147
140
168
138
134
154
127
125
80
58
62
70
50
57
83
59
67
92
64
74
91
62
69
111
80
87
128
80
83
83
58
64
77
51
58
95
69
65
122
84
88
122
80
88
105
70
77
87
58
62
114
83
83
151
129
121
191
179
164
187
175
160
164
144
131
171
145
134
174
146
137
180
154
144
200
176
165
176
154
147
58
37
40
68
47
55
83
59
68
102
75
86
102
77
85
132
97
104
132
89
96
94
68
82
79
54
62
134
102
99
133
91
93
141
95
99
148
109
112
94
66
71
127
102
99
162
139
126
185
163
147
187
165
150
191
168
154
194
170
156
184
160
151
182
159
149
200
179
161
173
151
141
49
30
32
59
43
49
82
61
71
84
60
73
86
65
70
132
96
101
118
77
87
82
61
75
73
58
69
95
71
77
114
73
79
137
89
92
137
98
98
98
73
75
133
109
105
173
151
139
196
174
159
194
172
159
187
165
153
194
173
159
200
178
169
144
122
113
186
165
150
213
190
181
80
59
59
82
59
65
92
61
70
102
64
75
114
69
71
142
102
99
112
73
82
77
57
68
66
56
69
75
56
69
103
61
66
133
85
84
130
95
92
119
98
95
142
122
115
184
165
154
187
168
155
192
173
162
186
166
155
186
167
156
207
186
178
170
147
141
206
183
175
221
198
191
136
114
113
105
76
80
124
82
86
137
82
88
161
94
93
138
96
91
174
135
138
97
69
73
80
63
73
100
72
83
135
84
83
130
80
75
150
120
116
153
135
128
163
145
137
198
180
172
204
186
178
202
185
176
195
178
169
201
184
175
195
176
168
209
186
181
203
178
178
178
154
150
201
180
175
166
139
136
144
97
96
148
82
81
163
95
92
108
69
71
175
134
128
175
133
130
143
108
115
131
87
90
150
86
76
152
99
90
174
150
145
188
173
163
182
168
159
190
175
167
202
187
180
189
174
165
203
188
179
194
180
171
194
176
167
197
173
171
142
117
122
141
117
115
213
196
188
205
183
176
151
105
97
160
91
83
148
95
92
112
79
93
100
73
73
144
108
106
172
129
126
151
90
81
169
102
89
172
126
116
181
163
156
191
181
170
193
181
172
191
174
167
192
172
166
197
180
169
197
184
170
192
177
168
205
188
183
165
145
146
110
83
92
117
84
92
161
134
132
207
184
174
181
147
138
151
99
92
135
89
94
119
86
104
83
55
67
96
58
63
149
90
84
167
90
81
174
104
99
157
112
108
189
168
162
186
175
167
178
163
156
192
175
168
205
182
176
204
183
170
196
184
164
196
179
169
159
140
140
92
73
77
105
76
87
114
75
94
106
69
75
181
156
149
225
204
198
157
123
123
115
68
76
114
75
85
126
78
86
146
85
90
156
82
82
155
83
84
136
70
74
143
96
101
203
175
176
186
163
161
124
104
101
160
144
140
201
182
177
210
189
177
198
184
167
157
136
130
114
85
89
102
72
77
108
78
86
111
80
93
109
81
88
129
107
107
180
156
157
145
112
115
108
55
57
114
66
67
127
83
83
157
102
101
142
85
85
107
63
65
104
61
66
152
122
126
198
176
179
182
150
155
98
72
74
94
75
75
153
133
131
202
181
172
185
169
155
119
93
91
133
94
101
128
89
95
122
90
96
115
88
97
83
61
69
89
65
71
122
90
96
101
63
67
104
50
48
122
71
67
119
85
80
105
71
66
106
79
79
96
71
73
103
73
77
116
94
95
151
133
133
135
103
110
129
98
104
110
82
87
118
92
95
194
174
167
173
153
143
127
94
96
143
101
109
123
83
87
114
80
85
109
79
86
76
52
60
113
83
91
130
86
91
111
64
64
103
55
55
105
63
63
128
89
89
94
67
66
89
73
76
113
82
86
123
84
88
111
74
76
127
98
99
105
76
82
105
72
80
135
97
107
154
120
126
186
166
161
166
146
138
131
96
101
137
94
102
128
89
91
109
72
77
116
80
87
105
76
83
137
98
105
123
67
70
123
65
62
115
75
79
109
79
85
119
83
88
118
84
87
117
86
87
129
90
93
108
64
66
118
73
72
148
109
107
117
89
88
142
106
107
130
85
89
118
76
82
152
129
130
169
150
147
127
96
97
146
99
102
162
113
113
146
105
106
137
103
105
135
101
107
133
88
93
137
80
81
155
100
99
130
94
98
126
95
99
99
70
75
134
97
100
161
114
111
175
131
133
149
106
107
130
84
84
139
98
97
125
95
91
158
122
120
193
146
148
137
92
95
118
85
88
156
128
126
158
122
119
169
118
117
165
111
112
159
116
116
123
93
92
129
96
103
145
100
107
160
108
108
194
145
148
128
95
100
97
66
70
77
52
57
132
96
98
178
126
124
192
141
144
185
136
140
159
110
115
123
80
84
120
90
87
126
91
90
172
130
132
175
129
131
152
106
107
162
118
115
169
118
114
185
131
129
171
121
122
148
108
109
119
87
89
117
86
94
132
91
98
165
116
118
172
127
131
107
77
87
80
55
66
90
67
69
110
79
82
155
104
106
171
119
121
171
122
127
159
113
122
138
99
106
116
85
85
121
87
88
127
90
92
164
122
124
171
121
121
183
129
127
187
130
127
171
119
117
167
123
125
144
105
109
116
84
89
107
77
87
123
88
95
152
108
110
106
66
71
85
56
69
84
59
73
106
81
79
85
64
70
124
82
92
175
126
127
142
99
103
130
93
104
127
94
105
128
97
100
123
91
94
108
76
79
109
75
78
132
90
93
184
131
134
169
118
117
158
114
113
152
113
116
121
85
90
116
83
90
103
75
87
138
107
116
145
106
109
105
70
75
103
72
85
102
72
85
144
113
107
74
54
63
139
104
118
199
156
156
114
77
80
94
65
75
102
75
86
116
84
89
118
86
92
110
79
84
101
72
76
102
67
73
143
98
105
130
89
91
116
82
81
120
85
87
102
67
73
113
80
88
114
86
98
123
94
104
135
99
103
115
82
88
130
96
108
124
88
99
