P3 24 24 255
181
181
191
163
164
170
168
168
175
145
149
167
105
118
149
64
91
137
91
114
151
98
114
145
69
101
143
140
152
176
120
134
165
123
136
166
182
183
195
200
201
209
210
209
216
199
195
201
175
174
182
202
204
207
216
218
219
191
190
195
151
154
163
66
95
137
40
84
141
84
115
163
180
180
183
164
165
168
167
167
173
143
147
167
129
140
157
83
104
143
59
90
141
99
116
148
42
77
133
63
93
141
97
120
156
153
161
179
206
205
212
214
212
217
197
197
204
182
182
189
161
162
172
171
171
179
177
180
183
144
148
162
124
132
148
81
106
140
46
86
138
116
136
165
165
166
172
167
170
173
155
158
166
136
147
160
130
139
156
118
132
154
48
80
127
57
87
136
33
71
126
29
70
126
44
81
134
109
127
157
152
156
172
158
161
173
149
153
168
165
165
175
170
172
179
160
164
171
163
165
167
137
142
156
120
130
150
82
104
138
41
78
128
119
133
157
171
170
178
169
171
175
155
158
168
139
149
158
150
154
165
129
138
154
66
92
133
70
94
139
34
72
131
34
74
132
31
70
129
33
76
128
45
85
133
62
91
135
96
111
139
167
171
182
175
177
181
158
161
164
170
170
167
163
164
168
139
146
155
86
110
143
33
74
130
65
97
145
178
176
181
167
167
168
171
172
180
163
167
169
161
161
165
146
151
161
96
112
144
74
94
134
32
69
125
31
71
131
31
71
130
40
84
145
44
87
146
90
117
150
137
151
166
155
161
170
151
155
162
159
160
165
156
159
161
172
174
180
153
157
161
108
123
143
99
114
141
101
120
154
194
191
194
172
169
171
174
173
180
169
171
172
155
157
161
151
154
162
118
126
149
69
93
130
52
82
129
38
73
126
34
71
127
34
72
127
35
74
131
83
109
151
160
168
179
153
157
161
142
149
158
144
149
158
139
146
155
137
145
163
141
148
163
129
137
148
137
146
154
141
150
158
190
189
193
177
175
180
186
184
190
167
169
172
155
159
163
146
149
158
132
137
153
108
121
141
93
111
140
72
93
130
54
83
128
33
69
127
29
69
129
49
88
136
123
137
154
138
146
153
142
151
159
150
156
165
138
148
156
107
122
140
116
129
145
128
137
145
124
136
143
117
133
139
163
165
170
162
165
169
167
170
175
159
162
167
155
158
165
147
149
159
142
146
155
126
134
146
103
114
137
90
105
135
55
84
128
31
69
124
29
69
120
38
78
129
115
132
155
144
154
163
142
153
161
135
147
155
126
138
147
119
130
142
133
140
149
130
139
145
115
129
137
113
129
136
162
164
170
143
147
152
149
153
157
147
151
156
153
156
165
152
154
167
153
154
163
140
147
156
120
128
145
103
116
141
67
92
130
47
77
125
57
86
126
56
87
132
114
129
152
140
149
158
135
147
154
114
129
138
122
129
142
141
146
153
145
151
155
109
124
132
92
112
125
112
125
132
166
169
176
143
146
149
144
149
153
141
146
149
142
148
154
135
139
155
147
148
161
148
155
160
131
138
149
110
120
140
104
118
143
98
113
139
106
119
141
80
101
134
88
109
139
132
143
150
137
147
153
132
139
148
123
131
137
120
133
140
115
132
142
85
107
120
93
114
127
114
127
134
121
132
138
121
130
135
122
129
138
113
119
136
105
122
135
99
118
129
117
127
136
125
138
138
138
145
152
121
128
144
116
125
141
124
133
147
105
119
143
80
104
134
73
99
134
111
125
147
116
127
142
133
142
152
139
152
155
99
121
128
85
111
120
83
109
118
86
110
117
88
111
115
89
105
120
115
127
135
123
130
143
110
115
139
63
84
121
53
82
122
90
112
130
101
123
127
124
136
140
122
133
142
100
116
128
118
128
141
99
114
135
83
103
123
98
116
143
125
132
157
113
124
139
109
124
137
100
120
127
87
113
118
87
115
117
84
111
114
86
107
116
94
114
120
92
109
131
133
138
147
124
131
141
125
128
141
82
98
131
38
67
113
48
77
108
66
93
114
94
112
127
84
103
115
69
95
111
62
90
110
87
109
127
73
97
120
67
91
125
115
131
142
89
112
118
77
104
115
82
107
111
84
110
114
79
107
110
75
102
106
78
101
110
82
105
110
40
67
108
79
96
121
98
113
126
110
121
135
124
133
146
83
104
124
57
82
108
59
85
108
70
97
119
66
90
111
60
88
107
53
85
110
65
93
112
68
94
113
62
90
113
74
100
114
69
98
110
77
103
111
85
110
113
74
101
109
74
101
104
78
102
107
81
110
112
70
97
104
12
43
98
25
52
101
52
75
112
79
93
124
104
109
135
103
119
131
70
94
111
63
92
113
57
90
109
61
92
112
63
92
109
60
88
109
64
90
109
65
92
108
64
91
106
70
98
111
76
103
111
87
107
110
86
104
105
74
99
103
82
107
105
77
104
108
77
102
109
84
105
111
14
45
100
13
44
100
16
46
97
27
54
99
47
69
110
62
86
107
66
92
104
63
91
109
84
97
106
86
86
86
71
74
78
64
73
81
75
78
81
98
91
81
87
84
77
74
92
98
72
101
105
89
106
103
91
99
99
88
106
103
94
109
104
73
97
102
73
93
102
92
113
112
16
45
99
16
45
99
16
47
99
23
53
102
28
57
99
32
58
99
38
67
101
70
91
104
157
146
121
128
90
62
75
45
31
76
50
34
102
68
35
130
91
52
107
76
50
61
61
59
68
95
100
85
104
101
104
104
100
104
108
98
104
107
96
87
101
103
79
103
106
84
110
103
16
46
101
18
46
102
16
45
98
18
48
102
21
52
102
22
51
105
21
47
104
101
114
130
199
183
144
127
89
55
71
43
23
97
68
43
115
80
42
98
70
43
117
87
55
54
41
31
50
66
70
72
99
99
96
102
98
98
99
89
103
100
90
84
97
97
70
98
99
78
105
99
21
49
101
25
53
102
31
55
102
45
68
109
61
80
114
58
79
112
68
85
119
136
145
153
180
164
142
111
75
42
71
46
27
101
74
46
106
78
48
48
36
29
105
82
51
56
37
25
24
25
25
57
79
79
72
93
94
92
95
86
86
99
93
65
91
95
75
102
100
77
102
96
26
48
97
50
66
103
64
82
116
78
91
118
116
117
133
106
115
125
86
100
114
117
126
138
139
124
114
108
72
44
61
38
25
73
52
33
82
61
36
30
19
15
48
37
24
30
20
16
32
17
11
54
46
41
79
95
92
114
115
100
103
109
95
87
106
101
87
110
101
85
109
102
26
50
103
77
88
114
85
96
108
60
80
95
103
113
123
103
110
120
71
84
101
61
79
100
99
94
96
118
86
60
45
24
16
31
16
10
37
27
15
28
13
8
14
8
8
15
16
19
45
24
17
57
29
22
87
77
67
110
102
87
84
84
74
88
103
96
95
113
104
84
105
99
52
68
96
68
84
104
84
96
104
100
110
112
89
104
107
64
83
97
75
93
107
71
90
106
81
87
94
105
82
57
44
39
38
39
42
48
47
55
58
26
26
30
17
21
23
55
72
75
41
41
39
54
30
19
90
66
47
78
66
49
91
94
78
77
91
84
104
115
114
133
138
133
45
61
91
51
71
93
58
76
98
107
113
121
112
123
121
77
95
95
62
84
93
77
95
107
88
89
88
95
80
63
68
78
90
89
102
114
99
108
112
42
46
47
33
43
42
65
90
90
63
85
81
75
73
59
106
80
49
73
66
52
90
105
97
108
114
99
108
110
103
133
132
117
30
53
87
39
60
87
34
56
85
51
72
88
68
88
94
81
96
104
68
87
99
58
81
93
92
83
77
65
54
49
49
64
89
64
80
103
80
95
101
49
57
60
49
62
64
65
85
83
78
102
95
85
100
93
86
71
49
64
51
38
99
98
89
120
117
101
95
96
74
119
120
88
