P3 24 24 255
241
242
249
237
237
245
215
216
222
190
191
195
164
165
168
150
152
153
140
144
145
130
135
135
163
169
169
225
230
230
241
246
247
247
249
251
248
247
251
245
244
248
241
240
244
244
244
247
245
245
247
245
245
245
243
243
244
245
245
246
246
246
247
249
249
249
252
252
253
253
253
253
228
229
232
191
191
200
155
156
162
124
125
130
86
88
91
60
62
65
48
53
57
48
54
58
108
113
118
179
184
188
213
217
221
233
236
239
245
246
248
238
239
241
234
234
237
251
251
253
252
253
254
252
253
252
251
252
251
252
253
252
253
253
252
254
254
253
255
255
255
255
255
255
134
135
140
87
89
95
62
65
70
41
45
49
27
33
36
23
30
34
20
32
41
31
41
49
64
70
76
82
86
91
117
123
129
181
187
194
217
221
228
214
217
223
224
226
231
245
246
249
242
245
247
232
240
242
232
240
242
237
245
246
241
248
248
244
249
250
243
251
252
243
252
252
59
66
74
25
35
39
25
35
40
27
37
42
41
51
55
65
77
82
70
86
98
64
77
87
67
73
77
47
51
55
55
62
68
144
153
160
202
211
219
205
211
218
196
199
206
161
162
168
135
139
145
115
131
142
113
132
144
114
133
145
117
136
147
121
140
152
124
146
157
128
151
161
112
132
140
104
128
132
96
117
123
80
97
104
92
106
113
97
110
119
85
101
112
68
80
89
65
71
76
58
63
67
87
95
102
155
164
170
205
214
218
208
214
220
184
188
195
141
142
151
112
116
127
86
104
121
74
98
118
69
95
117
64
94
118
60
91
117
59
91
115
61
93
114
134
163
171
146
180
184
131
160
166
85
108
116
83
99
109
88
102
113
78
92
103
62
72
80
53
59
63
45
51
56
85
95
104
151
161
167
203
212
214
206
213
217
194
197
205
194
195
206
180
182
194
137
148
162
115
131
148
93
113
135
76
101
128
67
96
125
61
94
122
58
93
120
128
158
166
141
175
179
132
161
166
84
107
114
78
95
104
83
96
107
77
90
99
57
66
72
54
60
64
49
56
62
74
87
97
148
160
168
202
211
215
205
211
217
191
195
202
199
201
209
208
208
215
198
198
203
196
199
205
163
171
182
134
147
162
102
118
136
75
100
123
64
94
120
92
114
121
107
130
135
100
120
126
65
82
88
61
75
82
63
75
83
64
74
82
52
58
63
56
61
65
62
70
77
91
105
117
159
171
185
191
198
210
195
200
210
191
195
201
187
190
193
182
182
183
171
167
165
214
211
210
229
229
230
215
217
221
185
189
195
147
159
171
110
128
146
49
60
67
58
68
73
54
64
69
39
49
55
40
50
55
42
53
58
44
53
60
46
52
57
47
52
56
55
63
70
94
109
121
133
145
162
138
144
162
146
151
163
156
160
165
159
162
160
145
147
143
119
120
118
161
163
160
201
203
200
219
221
218
232
234
231
224
226
230
198
203
212
54
62
72
55
62
72
51
58
69
46
54
64
47
56
65
49
60
70
56
70
82
61
72
83
60
66
74
73
79
88
125
134
147
155
163
178
151
156
170
146
151
160
134
138
142
125
130
128
112
116
112
89
92
87
101
104
95
120
122
109
140
140
127
157
155
145
169
167
167
182
183
190
89
98
111
96
105
119
97
106
120
92
102
115
73
82
96
72
83
97
79
96
112
82
95
109
84
88
98
120
121
131
173
174
186
147
150
162
172
176
185
189
194
199
149
154
157
71
76
78
67
72
71
81
82
77
94
95
81
95
94
75
98
95
77
99
93
81
98
96
91
99
103
105
149
158
169
153
162
172
153
162
171
158
167
176
157
166
176
159
169
179
161
172
185
172
176
187
158
154
162
157
151
158
182
176
187
132
132
143
159
164
172
187
192
197
145
150
154
54
60
61
37
42
42
60
61
61
78
79
73
89
88
77
90
88
77
89
84
77
78
77
70
74
80
72
178
186
194
179
188
193
178
187
191
177
186
191
183
192
197
185
194
199
185
189
198
196
193
200
154
144
148
132
120
125
187
177
185
195
193
203
192
196
204
188
193
198
111
116
119
54
59
61
51
56
58
40
43
49
43
46
50
51
52
53
52
51
51
48
45
46
36
35
32
37
42
37
104
113
119
110
118
120
113
121
123
117
125
127
119
128
130
135
142
145
179
179
185
187
182
186
147
137
138
137
125
130
195
186
195
212
210
220
196
200
208
185
190
195
76
81
85
19
25
26
28
34
36
25
31
40
27
32
43
29
32
42
32
33
42
35
34
41
21
21
26
28
31
39
38
45
51
33
38
43
31
37
41
34
39
44
49
54
59
94
100
104
175
178
182
173
172
174
131
126
127
150
145
149
199
198
208
158
161
171
104
109
117
101
106
111
51
56
59
19
24
25
22
29
31
56
65
74
72
79
94
51
55
72
39
42
56
45
47
54
39
39
48
20
22
36
77
83
90
59
62
71
71
74
83
82
85
94
108
111
120
144
148
156
169
177
181
150
155
157
97
100
101
119
122
127
152
160
171
75
83
94
28
32
40
49
54
59
59
64
68
69
74
75
80
87
89
117
128
136
115
125
140
61
67
86
40
45
60
55
60
66
45
47
51
16
18
25
53
59
71
42
46
58
55
59
71
73
77
89
86
90
102
89
95
106
90
100
107
85
94
100
57
65
70
54
61
69
62
73
86
36
46
56
21
26
32
34
40
43
67
72
74
97
100
104
122
126
131
138
147
154
105
114
125
59
65
79
45
50
62
67
73
78
43
44
43
32
33
30
42
47
63
38
44
57
35
41
54
34
41
54
41
47
60
52
59
71
56
63
76
52
59
71
26
33
45
20
27
39
26
34
47
34
42
52
34
41
44
26
31
31
34
38
37
62
63
69
112
112
121
132
136
141
89
94
99
84
88
94
60
64
70
84
88
92
79
78
75
87
84
76
109
113
127
108
115
126
101
108
119
91
98
110
75
81
93
108
115
126
128
135
146
107
113
125
59
65
77
43
49
61
34
40
52
71
77
86
77
83
86
27
32
30
23
25
22
51
50
54
95
94
100
86
88
90
55
58
57
89
91
91
55
58
57
74
76
76
114
113
107
125
121
112
84
87
97
94
99
108
122
127
136
159
164
173
129
134
143
122
127
136
133
138
147
113
118
127
43
48
57
18
23
32
30
35
44
99
103
110
77
81
83
41
44
40
40
41
36
38
37
36
45
43
44
31
32
26
31
32
25
58
59
52
69
70
63
97
98
91
132
129
121
135
131
122
111
113
119
101
104
110
121
124
130
161
165
171
171
174
180
174
177
183
176
179
185
140
144
150
40
43
49
18
21
27
33
36
42
78
81
87
61
63
64
49
51
46
55
55
47
33
31
25
40
37
33
54
52
42
67
65
54
93
91
80
126
125
113
136
134
123
138
134
124
137
133
124
104
106
107
110
113
116
124
128
131
137
141
144
154
157
160
167
171
174
171
174
177
127
130
134
58
62
65
58
61
65
43
46
50
63
65
69
80
81
82
49
50
42
74
73
60
84
81
70
105
101
92
124
119
109
135
130
119
142
137
126
143
138
127
145
139
129
146
141
132
142
138
129
59
60
58
53
55
56
56
58
59
73
75
76
95
96
98
104
106
107
97
99
101
60
62
64
32
34
36
34
36
38
32
34
36
44
44
48
62
62
62
76
76
66
108
106
91
125
121
106
137
130
119
142
134
126
148
139
132
148
139
132
150
141
134
152
143
136
153
147
139
148
144
135
54
54
49
37
37
36
31
30
29
27
27
25
28
27
26
30
29
28
30
30
27
29
29
27
29
29
27
33
33
31
44
44
42
49
47
47
74
72
69
113
112
101
131
128
113
138
134
118
142
136
124
143
135
127
146
137
130
148
139
132
151
142
135
152
143
136
152
145
137
147
143
134
