P3 24 24 255
162
166
167
159
163
162
158
162
161
159
163
162
157
161
160
158
161
159
164
161
158
164
160
157
165
161
158
155
151
148
166
162
159
152
148
142
186
182
174
186
182
174
163
160
152
167
163
155
164
161
154
162
158
155
166
162
159
164
160
157
164
160
157
164
160
157
162
162
157
162
163
158
160
164
165
162
166
165
161
165
164
157
161
160
156
160
159
159
162
160
161
158
155
166
162
159
165
161
158
155
151
148
159
155
151
156
152
144
181
176
167
179
174
165
162
157
148
165
160
150
160
156
148
161
157
154
163
159
156
166
162
159
166
162
159
165
162
159
163
162
158
161
162
157
155
159
160
145
149
148
151
155
154
158
162
162
157
161
160
154
157
155
153
149
147
154
150
147
155
151
148
152
148
146
161
157
154
168
163
155
184
176
166
160
153
143
167
160
150
165
158
148
161
156
148
163
159
156
162
158
155
161
157
154
163
158
155
163
159
156
161
161
156
159
160
155
151
156
155
98
104
101
94
99
96
149
154
151
155
159
157
141
143
141
111
108
104
90
86
82
103
99
95
105
100
96
111
105
101
114
106
98
156
148
138
183
176
167
197
191
182
189
181
171
190
183
174
145
139
136
142
133
131
165
159
157
161
159
157
158
156
154
154
154
153
146
147
146
87
95
89
61
70
63
69
77
70
142
146
141
153
155
150
148
148
144
104
101
96
87
83
77
98
92
84
103
94
85
102
93
82
112
98
88
135
124
115
146
139
134
144
138
133
136
125
116
126
115
106
104
93
90
115
91
94
105
92
93
88
90
88
86
86
87
81
82
87
72
73
80
40
48
41
50
60
52
67
74
67
99
103
97
96
97
92
81
82
77
69
69
64
74
73
67
90
86
78
92
86
76
92
83
72
113
100
90
117
108
100
111
106
104
67
63
61
90
81
74
84
74
64
74
60
55
120
90
92
73
55
56
45
46
43
90
89
89
102
102
107
96
98
104
36
43
37
40
48
41
49
55
48
43
46
40
45
45
41
38
38
35
50
52
49
38
39
35
57
56
51
53
50
43
54
49
40
54
46
37
101
95
89
70
69
69
48
47
47
76
70
65
93
85
76
86
69
63
130
97
97
119
98
97
82
81
76
128
123
121
143
142
143
113
116
117
31
37
32
40
47
40
39
43
37
48
50
45
46
45
41
55
54
51
56
60
59
40
42
40
51
53
48
58
57
51
58
55
47
74
69
61
127
124
120
78
81
82
48
52
52
58
56
52
85
78
68
90
72
64
125
92
90
107
85
81
67
64
57
72
66
62
66
67
64
46
49
46
30
35
31
35
40
34
41
43
38
49
49
45
45
41
38
97
94
92
73
76
74
49
51
49
50
51
47
79
77
71
62
58
50
79
74
65
110
109
104
81
85
84
97
102
100
63
62
57
81
75
65
78
61
53
121
87
86
94
72
70
51
48
42
63
57
54
45
45
42
46
50
46
40
43
41
42
45
40
46
46
42
63
61
57
91
86
83
125
120
117
99
98
95
94
93
88
67
64
57
76
71
62
127
119
109
122
115
104
106
103
94
68
72
67
107
110
106
82
80
72
84
79
68
70
56
50
114
84
85
75
56
57
53
54
50
70
68
67
67
68
66
60
63
61
80
82
80
89
90
85
94
93
89
95
91
88
112
106
103
121
115
112
132
128
121
141
135
126
104
96
86
98
88
75
152
140
126
160
150
135
168
163
150
140
140
132
137
137
130
130
124
112
127
121
108
68
58
56
65
39
44
85
71
75
85
90
91
84
86
89
90
92
94
90
93
95
97
99
98
102
103
98
108
105
102
99
94
91
52
45
43
54
45
42
96
88
78
140
130
118
160
147
133
159
144
128
161
145
127
185
170
151
231
222
205
229
226
214
224
220
209
224
215
199
203
196
181
68
62
63
58
36
46
76
67
75
89
99
103
93
99
106
94
97
104
94
96
103
97
96
96
98
96
92
113
110
107
136
132
129
87
82
78
87
79
73
140
129
115
195
183
167
223
210
194
237
224
208
244
229
212
251
239
219
252
242
224
255
252
235
255
253
237
253
245
226
229
223
207
72
63
64
56
37
45
70
61
68
95
100
105
90
94
102
92
92
98
92
92
98
107
98
100
106
97
93
137
133
128
156
153
148
150
147
138
154
148
135
207
199
178
250
242
222
254
249
231
246
239
223
152
142
128
216
206
188
248
239
219
251
245
225
250
246
226
245
238
218
239
227
210
143
122
116
118
98
94
114
98
97
109
98
100
109
101
103
107
101
96
101
101
98
142
132
127
140
129
118
166
158
149
172
166
156
166
159
148
159
151
136
205
198
174
244
237
214
247
240
220
247
239
222
205
197
181
237
231
212
248
242
221
249
242
222
241
235
214
238
230
210
242
231
211
238
224
206
221
204
187
199
186
173
192
180
169
191
182
172
185
177
166
159
158
152
152
144
130
198
184
166
223
209
192
225
210
194
226
212
198
220
206
190
235
227
201
242
234
209
242
233
210
236
225
205
231
222
204
223
214
194
224
215
193
222
212
191
217
207
186
217
208
186
221
209
185
220
207
179
221
208
182
230
218
194
233
222
200
235
226
205
233
224
209
216
213
206
185
177
157
212
196
171
212
191
166
204
182
158
203
182
162
195
176
157
194
180
151
202
187
158
196
181
154
192
177
153
197
181
160
219
206
183
223
211
188
216
204
181
216
205
181
211
199
175
216
203
179
217
201
176
227
215
190
237
227
203
238
230
207
237
226
204
232
222
204
209
202
194
116
110
90
143
126
100
161
135
105
168
138
106
180
152
125
186
164
140
187
171
138
186
171
137
168
152
121
158
141
113
166
149
123
180
165
140
189
175
152
199
185
162
207
193
170
209
196
172
217
205
184
222
211
197
206
192
178
196
182
168
196
182
168
193
178
163
197
180
162
185
175
164
82
79
65
122
107
85
162
135
102
176
143
105
179
149
114
183
161
128
198
180
141
213
195
157
221
202
168
234
215
183
241
225
195
240
228
201
242
229
205
250
238
214
243
228
204
249
237
212
244
232
214
237
226
221
223
211
205
218
201
194
211
193
185
216
196
186
231
212
193
218
207
193
87
86
84
120
107
95
196
169
138
218
184
141
220
192
148
227
207
165
238
218
175
248
227
186
252
230
192
255
235
200
255
238
205
254
240
212
255
242
217
255
243
218
227
212
186
240
228
202
212
197
177
220
208
201
207
194
186
224
209
197
233
215
201
239
219
204
251
234
212
207
194
177
89
89
99
105
95
91
188
161
133
218
184
139
220
194
144
222
204
156
236
214
169
245
222
179
250
228
187
254
232
195
255
235
199
253
235
207
254
241
215
253
241
216
233
217
191
249
238
212
243
232
209
248
243
224
249
241
221
252
243
219
253
240
214
248
233
205
229
210
184
166
149
131
82
85
98
93
87
91
160
136
118
195
163
119
205
176
123
213
188
139
233
206
160
245
220
176
252
228
187
254
231
193
255
235
199
255
237
205
255
242
210
255
244
213
255
238
208
253
239
210
251
237
209
242
232
202
231
218
187
212
196
164
183
166
132
159
137
103
139
113
86
115
97
80
70
77
86
76
76
87
118
99
96
166
135
96
173
135
81
172
131
85
173
138
93
181
149
106
190
161
121
191
165
128
192
169
134
199
173
134
202
176
133
201
176
136
201
173
137
205
176
142
191
162
128
184
157
120
153
125
92
123
96
65
125
98
69
135
108
82
144
120
98
129
114
101
57
64
72
60
60
72
93
75
73
197
165
129
209
171
119
205
163
120
198
164
121
201
169
128
204
175
136
200
174
136
198
174
139
204
177
136
214
184
141
213
183
143
209
179
142
182
152
117
152
122
87
161
132
95
147
118
84
148
121
91
157
131
105
159
134
110
149
127
107
140
126
115
