P3 24 24 255
67
72
93
73
78
97
71
77
92
75
79
95
76
79
97
89
93
109
91
97
110
68
73
90
74
78
100
121
126
131
123
125
134
144
144
145
204
199
182
160
153
139
84
78
72
92
88
81
147
144
120
239
236
197
246
242
216
232
227
205
243
239
202
255
251
211
253
250
217
253
251
238
67
71
93
71
76
95
82
88
105
106
110
132
120
121
150
129
132
155
133
138
155
113
122
140
99
115
147
101
119
152
96
111
153
108
121
148
155
160
171
156
155
168
89
85
96
81
75
76
149
145
121
237
233
194
241
235
211
228
223
202
241
237
201
254
250
211
252
249
217
253
250
233
63
67
87
91
95
114
128
135
158
97
111
142
81
95
130
114
122
150
110
119
144
74
89
118
90
109
143
75
93
132
44
62
104
47
68
100
62
77
112
76
90
131
87
101
132
87
92
105
134
134
110
230
223
179
241
233
204
226
223
194
241
237
196
253
249
212
252
248
220
252
246
223
68
72
89
143
148
167
112
125
150
59
83
116
61
87
119
118
132
158
74
87
117
32
53
90
39
58
95
56
69
106
24
38
71
30
50
79
33
53
98
43
70
123
72
103
145
106
124
147
144
149
132
229
219
176
242
232
196
224
221
188
243
238
196
250
247
208
248
245
215
236
227
195
110
113
131
154
163
180
74
95
117
66
96
125
75
101
127
128
143
164
69
85
109
34
58
92
29
52
93
67
81
119
50
61
94
30
45
75
28
47
90
32
61
111
60
96
141
83
113
146
152
163
168
232
224
194
229
223
186
207
202
176
221
213
183
238
234
199
202
200
170
189
184
146
165
170
187
135
147
164
55
81
102
46
80
105
66
91
112
137
152
168
48
65
85
24
50
83
30
55
97
65
80
117
78
87
118
25
35
64
24
41
80
25
54
100
38
75
122
56
93
136
105
128
157
189
191
183
168
169
142
94
94
82
136
127
114
184
178
154
135
132
112
146
142
113
199
203
220
105
117
133
36
62
83
25
57
81
75
98
116
157
172
185
50
69
88
36
64
96
40
64
103
52
66
97
82
90
117
35
43
74
22
38
71
27
53
91
34
67
111
44
81
126
79
110
155
133
146
159
116
125
115
60
66
66
88
80
77
114
102
90
109
102
96
100
93
79
190
193
210
84
93
110
46
67
90
46
73
99
104
125
142
168
181
193
60
80
102
51
79
112
41
62
92
23
35
57
59
68
90
43
54
84
16
31
58
27
47
75
33
58
94
36
65
108
50
80
127
79
92
114
92
97
99
88
89
91
78
65
56
100
82
70
112
100
98
93
81
76
181
185
201
136
141
159
109
121
147
89
109
136
116
136
155
152
165
180
76
95
122
66
94
128
34
49
73
1
11
24
29
39
56
51
65
95
15
30
53
13
28
49
18
32
62
25
43
82
39
61
100
74
79
100
112
106
114
143
133
127
147
125
101
156
134
111
126
110
99
104
88
78
142
148
160
180
183
196
190
194
216
167
177
199
156
170
189
154
164
184
131
144
171
106
124
158
67
79
108
36
44
63
19
29
51
61
79
111
32
52
84
21
41
73
41
63
102
67
88
139
90
111
163
126
136
175
151
150
176
165
158
168
203
189
174
213
197
171
195
177
155
179
158
132
116
119
158
163
167
183
205
208
208
224
227
231
205
209
220
157
161
174
195
199
214
185
190
210
145
153
178
111
119
138
62
74
99
85
104
143
78
98
145
70
95
143
80
111
163
98
126
188
108
133
201
112
133
195
124
138
185
135
143
178
154
154
176
177
170
181
201
187
191
220
198
192
116
114
189
100
102
139
132
140
128
197
198
196
221
217
217
182
179
177
223
219
217
251
250
248
227
234
234
200
206
210
133
141
162
106
119
161
113
125
175
108
126
176
90
116
168
90
116
171
90
114
177
91
114
178
100
119
178
106
122
174
112
123
178
119
124
183
129
129
180
152
145
186
137
139
179
79
80
124
67
72
90
95
94
114
153
148
152
215
211
210
233
229
225
241
239
233
246
248
241
224
225
219
175
179
187
147
155
183
169
175
204
151
163
197
114
134
178
115
136
185
100
122
177
85
107
167
85
106
169
89
111
177
91
114
180
89
113
175
93
114
170
103
119
169
123
129
119
124
125
154
88
89
125
82
82
108
83
83
102
144
144
158
145
146
156
142
143
152
193
190
200
180
177
176
175
178
176
173
182
186
179
187
189
162
173
188
115
132
166
128
143
188
129
146
192
111
130
180
97
117
173
86
107
171
83
108
169
81
112
163
84
114
164
87
117
167
113
114
98
151
150
157
136
136
148
123
126
133
115
117
136
119
120
139
110
112
128
99
99
118
126
120
143
95
90
98
103
104
104
93
103
105
80
89
97
85
96
119
57
70
105
68
78
113
109
120
153
123
138
173
132
147
187
124
138
183
109
127
173
93
115
162
86
110
162
82
107
167
116
107
109
142
138
130
142
142
129
129
127
126
156
152
156
167
162
168
163
158
166
138
134
146
120
116
136
80
75
87
66
67
78
43
51
74
28
35
82
41
50
106
34
45
89
37
43
65
54
61
79
86
95
117
122
130
153
150
157
180
172
180
202
152
163
186
119
132
167
90
105
156
103
94
100
115
111
102
149
149
134
132
128
127
142
135
128
146
139
133
149
142
138
154
147
147
141
138
145
108
105
114
77
76
92
44
48
80
20
25
88
27
34
100
43
49
91
21
24
37
13
16
23
33
37
47
72
75
85
115
117
126
184
186
193
188
192
192
162
155
151
128
113
125
86
83
83
61
60
55
119
120
112
132
130
125
143
138
131
153
147
140
117
111
105
108
102
97
113
109
106
101
98
101
90
89
100
70
69
92
54
57
99
45
49
89
31
34
57
4
4
12
8
9
11
9
11
14
24
25
29
65
66
70
110
109
117
144
143
140
160
130
101
157
109
90
91
90
86
27
26
22
54
53
49
84
81
75
110
104
97
143
137
130
147
141
134
134
128
121
110
106
100
83
79
79
84
82
90
85
84
97
95
97
114
60
63
76
13
13
18
8
8
6
10
10
10
14
15
17
12
13
15
31
32
34
57
55
62
96
89
89
149
113
88
149
95
81
77
76
68
13
11
6
14
10
9
27
21
18
51
43
34
84
76
67
123
115
106
142
134
125
144
138
130
109
104
102
99
96
99
115
114
120
131
131
132
75
75
72
8
6
3
13
10
6
29
28
29
25
26
30
11
12
14
14
15
16
54
53
57
113
109
109
165
139
124
149
111
105
50
50
41
22
18
14
30
23
21
46
38
32
66
58
46
63
55
42
56
48
35
81
73
60
105
97
87
93
88
81
79
75
73
118
115
116
165
161
158
107
102
99
5
1
1
27
23
25
57
55
60
46
47
52
16
17
20
1
2
2
72
76
75
167
172
172
179
172
163
191
179
174
79
79
72
85
80
73
102
92
84
113
102
90
112
103
87
102
93
77
87
79
62
66
57
42
50
42
30
51
44
34
46
42
34
59
56
51
91
85
84
66
60
61
7
4
8
44
41
49
76
75
84
64
65
71
27
28
30
1
3
1
31
37
33
103
111
113
139
144
142
162
169
162
70
68
65
97
90
82
124
113
98
132
120
102
128
117
99
117
107
89
105
94
76
88
78
61
73
64
51
64
57
44
45
40
28
35
31
22
44
39
36
28
25
25
9
9
11
53
55
58
70
71
79
67
68
76
35
37
39
4
6
3
14
16
13
68
66
74
99
102
107
129
138
130
67
65
66
107
101
94
127
117
101
127
115
98
121
111
94
117
107
90
106
96
79
92
82
65
82
73
58
78
71
55
74
69
53
59
56
41
41
37
29
20
17
13
10
12
9
50
54
51
65
67
75
68
68
78
41
42
46
5
7
5
15
14
13
76
68
79
97
95
103
108
112
108
