P3 24 24 255
134
103
82
136
105
83
135
105
83
134
102
81
132
100
79
129
98
77
126
95
75
117
90
70
116
90
69
115
89
68
116
89
70
118
89
72
118
89
73
121
92
76
122
94
74
121
95
71
123
96
76
121
93
77
128
111
100
99
96
119
60
58
82
107
88
79
113
88
73
103
82
67
125
101
84
130
107
90
137
113
95
143
114
93
145
116
94
146
117
95
145
116
96
141
112
94
143
113
95
143
114
96
139
109
92
137
107
92
138
108
93
136
106
91
132
104
86
130
105
85
128
104
87
126
101
86
131
121
117
78
78
104
76
69
89
116
97
81
118
95
76
112
90
77
102
89
84
107
94
89
110
96
91
114
98
89
115
99
90
118
102
93
119
103
95
121
102
96
123
104
98
123
104
98
121
103
97
119
102
98
121
104
100
121
105
100
120
104
99
118
104
97
117
102
94
120
105
96
143
136
135
138
137
155
118
113
123
107
96
89
110
96
90
106
93
89
98
92
97
98
92
97
98
92
97
98
94
97
99
95
98
101
96
99
101
96
100
102
96
101
102
96
101
102
96
101
102
96
102
101
96
103
101
97
103
102
98
104
103
98
105
105
97
104
105
95
99
118
110
113
184
179
183
214
210
218
121
118
119
95
91
95
96
90
99
94
88
94
131
122
123
131
123
124
130
122
123
127
121
121
125
118
118
122
115
116
121
114
115
119
112
114
118
111
113
117
109
112
113
107
110
111
106
109
112
106
110
111
105
109
110
105
110
112
103
109
112
101
106
132
128
139
207
204
212
221
215
218
129
123
119
99
94
98
101
95
106
99
94
100
143
122
107
143
122
107
145
125
110
146
126
112
146
125
111
147
126
113
142
122
109
141
121
110
140
121
110
142
122
111
141
122
111
137
119
109
134
117
107
134
117
107
132
115
106
129
110
103
129
111
108
134
128
141
195
196
205
210
203
208
140
127
125
106
93
86
107
96
95
103
93
91
127
103
78
130
105
80
134
108
84
137
109
86
138
110
88
139
111
89
136
109
86
135
110
86
135
110
87
135
111
88
136
112
90
135
110
89
134
109
87
138
113
90
139
115
91
137
114
94
143
127
122
111
108
125
169
169
184
203
193
198
136
119
112
115
98
81
112
96
82
110
94
81
124
102
75
130
105
80
135
108
83
139
112
85
141
113
88
141
112
89
145
117
96
145
120
101
148
124
107
147
125
109
149
128
111
146
125
107
133
112
91
129
108
85
130
109
86
126
111
101
107
104
117
68
75
107
121
123
150
176
167
173
120
102
86
123
102
77
121
99
74
120
97
74
134
105
76
139
109
80
141
110
82
140
110
82
138
108
82
139
109
84
140
110
88
146
118
100
144
117
101
144
118
104
165
142
132
171
153
146
156
140
130
135
118
107
133
118
116
112
106
121
81
84
113
65
73
113
64
73
106
88
88
97
128
110
96
149
118
91
148
118
91
139
112
87
147
124
102
150
126
104
154
130
108
156
134
115
160
138
120
165
143
127
166
145
130
181
162
149
177
159
147
176
160
149
196
182
175
206
194
191
206
195
191
201
190
186
200
191
193
187
184
197
181
183
201
175
178
197
164
169
184
158
157
161
169
151
143
148
121
104
147
122
103
140
117
99
185
174
167
207
197
189
218
210
201
226
219
212
232
225
219
235
227
224
237
230
228
240
235
232
241
237
236
242
241
240
244
242
241
247
244
241
252
248
247
255
253
253
255
254
252
255
255
253
255
255
254
254
252
247
248
243
240
169
160
159
135
119
116
135
119
115
139
123
115
141
126
116
237
232
232
247
244
244
247
246
245
248
246
244
251
249
248
250
248
249
247
244
246
239
239
238
226
227
228
220
223
224
210
213
217
204
205
212
206
206
216
205
204
216
198
197
207
187
189
196
171
175
185
171
172
179
162
160
164
96
88
92
127
111
112
155
138
133
153
136
126
150
132
123
241
239
242
250
248
247
227
224
228
227
223
229
190
189
197
163
163
176
154
155
173
148
149
169
147
147
162
140
140
154
130
133
147
121
123
139
120
121
138
123
123
141
125
125
142
129
129
145
128
129
146
147
145
160
157
151
157
134
122
120
155
137
131
159
140
128
156
135
121
149
129
116
211
211
216
251
250
249
187
183
194
172
171
183
114
115
130
91
95
117
94
100
124
122
127
146
165
165
177
169
170
177
176
180
188
186
188
196
196
196
204
207
207
214
219
219
224
224
222
222
233
228
226
224
216
212
177
163
154
139
120
108
130
112
100
126
108
95
130
112
98
129
110
96
218
216
222
246
246
248
158
158
171
145
147
160
151
154
165
137
139
153
137
139
152
207
207
212
243
242
243
234
236
236
237
241
240
245
245
242
243
244
240
230
231
229
219
219
219
208
206
206
194
188
185
160
151
146
128
114
106
120
102
92
122
105
94
125
108
97
118
100
87
115
96
82
246
241
245
233
232
233
122
122
135
120
120
137
111
110
126
130
128
143
140
136
147
209
203
207
174
171
175
158
158
162
210
210
211
244
241
238
215
214
212
133
133
131
106
103
106
127
120
127
129
118
123
131
117
120
147
131
126
136
119
108
135
118
108
137
120
110
123
104
92
116
97
83
234
226
225
206
200
195
93
86
94
84
76
88
76
68
79
132
126
136
137
129
137
135
126
132
65
60
68
48
43
51
159
154
159
243
241
243
224
220
221
118
112
112
98
89
84
146
135
124
166
152
137
167
150
133
169
150
135
164
145
132
164
145
132
162
143
130
157
138
124
153
134
120
191
179
176
156
144
135
136
121
120
142
127
124
136
124
120
110
101
97
68
60
58
54
46
49
47
41
47
19
10
14
102
94
95
221
220
220
239
234
230
155
145
137
138
123
112
154
137
122
159
140
122
163
140
120
162
139
122
163
141
126
164
141
126
161
139
124
156
136
122
154
135
121
146
137
135
77
64
57
104
87
83
115
96
93
99
84
80
65
56
52
7
1
0
13
5
8
41
31
42
35
25
31
96
87
85
188
180
174
178
167
157
129
114
99
142
124
106
154
132
114
157
135
116
165
141
121
162
139
121
164
141
125
168
145
129
160
137
121
155
132
117
148
127
112
79
68
63
49
34
27
59
41
33
67
45
42
69
50
46
63
49
43
42
30
24
33
20
19
36
21
28
48
34
37
84
70
64
90
74
64
91
73
60
129
110
93
144
124
105
149
127
109
145
122
104
149
126
108
151
129
112
151
130
114
150
128
113
147
126
110
148
126
110
143
121
106
117
99
88
125
104
92
133
109
96
140
114
101
142
119
105
140
120
105
129
111
95
119
99
88
111
90
84
108
88
79
119
100
86
129
109
96
139
118
103
144
123
105
144
121
105
144
121
109
142
118
106
139
115
103
142
120
106
147
125
111
140
119
104
140
118
104
141
119
104
139
118
104
154
131
117
157
133
118
160
135
119
162
136
118
163
138
119
166
143
124
166
144
124
165
143
126
163
141
126
160
137
122
164
141
124
168
144
130
165
142
126
162
139
122
159
137
120
159
137
120
159
137
120
157
135
118
152
132
116
157
137
123
153
133
119
148
128
114
147
127
113
144
125
110
151
130
117
155
134
122
160
139
126
163
142
127
169
147
133
171
150
135
166
146
131
161
141
126
161
140
126
160
139
125
161
139
124
167
142
129
166
144
130
162
141
127
160
139
124
159
139
122
156
135
119
157
136
120
151
132
117
151
132
119
154
135
122
153
134
121
149
130
117
146
127
114
133
115
105
130
113
104
132
116
107
133
117
107
135
118
109
137
120
111
136
119
110
135
118
109
137
120
110
135
118
108
134
115
105
142
119
108
141
121
110
138
120
109
137
119
109
138
119
110
136
117
108
137
117
109
134
116
105
129
111
100
131
113
102
133
115
104
129
112
99
127
109
97
