P3 24 24 255
115
143
172
116
146
175
119
148
177
131
154
177
142
154
173
142
148
160
63
74
77
27
43
47
89
108
122
141
158
178
140
156
176
136
153
173
137
154
174
138
154
174
138
154
170
142
156
172
140
154
176
131
151
175
121
148
172
115
145
171
115
144
171
116
145
171
115
143
169
113
142
170
113
145
175
113
145
175
116
145
173
135
155
176
143
155
174
149
158
176
99
111
115
29
44
45
55
70
80
137
150
167
147
160
177
143
156
173
143
155
172
144
157
174
141
156
171
142
156
172
140
154
176
130
151
176
116
147
173
110
143
172
109
142
173
109
143
174
108
142
173
106
141
173
115
147
177
116
148
179
118
145
174
132
152
172
143
157
178
146
160
182
124
140
146
41
56
57
32
45
53
113
124
138
151
161
176
149
159
174
148
158
174
150
161
177
149
164
178
146
160
177
140
154
178
128
151
178
112
146
174
107
144
174
106
143
176
106
145
177
104
143
177
103
142
177
125
151
172
130
155
178
127
151
176
125
150
173
127
153
177
131
155
179
115
136
153
41
59
67
19
34
34
78
90
95
146
156
167
148
159
173
147
160
176
150
163
181
159
167
180
158
166
179
144
161
180
127
154
179
111
147
175
105
145
176
105
146
177
106
145
176
106
144
174
105
143
173
135
156
173
138
158
177
136
156
179
124
152
175
116
149
172
118
147
171
124
148
171
65
85
98
16
33
32
47
60
60
128
138
147
146
158
170
145
160
176
147
162
181
161
167
180
162
168
179
150
166
182
137
162
182
116
149
174
105
144
174
105
144
175
111
147
176
113
147
175
110
145
172
137
157
174
143
161
180
142
160
182
131
155
177
122
152
174
121
150
174
127
151
175
98
118
134
28
46
49
46
61
62
103
113
121
139
151
162
132
147
163
143
157
176
156
164
178
159
167
179
152
166
180
145
164
180
130
154
173
111
144
173
109
143
174
118
150
178
121
150
178
117
147
173
136
155
171
143
158
177
146
160
180
142
160
180
133
157
178
126
153
176
126
150
173
118
140
158
58
78
86
45
60
64
71
81
88
84
96
107
109
125
139
141
156
173
151
161
176
155
165
177
151
163
175
147
161
172
139
156
169
119
146
173
116
144
174
125
151
180
126
150
177
121
147
170
139
155
171
144
156
174
150
159
178
151
164
181
142
162
178
133
157
176
132
153
176
134
153
173
99
118
129
47
62
66
55
66
71
85
97
106
136
151
164
139
154
170
147
159
175
149
161
175
148
160
171
146
157
166
140
153
164
124
148
173
119
145
173
127
150
175
129
149
174
124
145
168
144
159
175
152
161
178
157
162
179
160
168
182
153
166
178
145
163
177
143
159
178
143
158
177
134
150
163
71
85
90
66
77
80
81
94
101
138
153
164
140
156
171
141
154
170
143
155
171
141
155
168
140
153
164
136
151
163
127
151
174
125
150
175
127
149
173
126
146
169
123
143
163
150
163
179
158
164
182
165
166
182
167
171
183
163
172
180
155
165
174
152
163
178
154
166
182
142
154
166
69
81
86
44
55
57
72
85
91
127
142
152
135
151
165
136
149
165
138
151
167
135
150
166
132
150
165
129
150
166
127
153
175
128
154
176
128
152
174
126
148
168
125
146
165
158
170
185
163
168
184
171
170
184
172
173
184
162
167
173
152
159
164
160
166
178
163
170
185
134
143
155
48
58
63
36
48
50
65
78
83
97
113
122
105
122
134
133
146
161
139
152
169
131
148
166
128
150
168
125
152
171
122
151
173
123
151
173
127
153
173
126
150
168
128
150
168
166
174
185
167
173
184
170
174
184
173
177
186
129
135
141
90
97
101
161
168
177
164
170
183
155
161
175
63
75
82
44
61
63
61
78
83
60
78
84
80
98
106
84
101
114
128
144
160
134
151
167
127
154
170
118
154
173
115
149
178
117
149
177
122
149
173
124
147
169
128
148
167
167
176
186
168
176
186
165
174
184
171
179
189
130
138
146
44
53
58
132
140
148
166
174
186
156
164
178
82
94
103
36
53
55
43
60
63
56
72
76
35
51
57
89
106
118
139
156
172
131
150
167
126
154
172
114
154
174
111
150
181
114
149
180
118
148
175
122
147
171
127
148
168
156
169
181
158
169
180
157
168
180
156
167
179
149
161
170
60
72
77
82
94
101
150
161
171
108
119
130
39
52
59
33
46
48
33
47
49
17
31
33
43
57
60
126
143
154
133
149
167
129
148
170
125
153
176
114
152
176
110
151
180
112
150
179
116
149
175
119
149
171
125
149
170
144
160
174
145
160
174
144
158
172
148
162
177
154
169
180
96
111
118
53
69
76
83
99
107
54
69
78
34
46
53
25
36
38
22
33
35
23
34
34
35
46
47
83
97
107
92
108
128
122
143
169
123
151
179
115
150
177
110
151
179
111
151
178
113
151
175
115
150
172
121
150
171
152
168
183
150
165
180
147
163
177
151
166
181
155
171
184
130
147
155
72
89
96
41
58
65
33
49
57
27
39
47
33
42
48
23
33
37
26
36
37
32
42
42
42
55
62
96
113
132
123
146
174
122
151
181
116
150
178
112
152
178
112
151
177
112
150
174
115
151
174
119
151
174
163
175
189
159
172
185
155
168
180
155
168
181
154
167
179
111
124
135
55
68
77
32
46
53
100
114
120
132
144
153
134
145
156
60
72
79
21
34
36
23
36
36
41
53
57
116
134
150
126
151
179
118
148
178
117
149
176
116
151
177
114
151
177
113
149
174
114
150
175
117
150
176
168
177
188
166
175
186
163
172
183
162
171
182
159
169
181
163
172
185
129
138
149
41
51
59
112
122
128
156
167
179
155
168
183
118
132
142
44
59
64
23
38
39
18
31
31
78
97
107
123
151
175
116
147
176
119
148
173
120
151
176
120
152
178
118
151
178
115
148
176
116
149
176
172
179
188
171
178
187
169
176
185
169
176
185
168
174
186
167
173
188
167
174
186
78
85
94
68
75
81
155
166
179
149
165
183
142
158
172
129
147
155
54
72
74
14
28
25
44
63
69
110
139
161
119
150
178
121
150
173
124
151
176
128
156
183
127
156
183
119
149
178
117
149
177
180
182
190
178
181
190
177
180
189
177
180
189
177
180
189
174
178
186
179
183
193
144
151
159
99
107
116
156
165
175
157
168
183
143
159
179
138
159
177
88
111
123
19
36
38
20
38
35
89
112
130
124
154
189
116
154
175
123
154
174
134
160
180
137
163
183
122
154
179
113
152
180
186
187
193
185
185
192
183
184
190
183
183
190
182
183
189
180
183
188
179
184
191
173
181
189
167
176
186
167
175
184
159
169
181
147
163
184
137
159
182
114
139
157
42
60
69
13
30
22
57
77
87
122
149
183
116
155
178
123
156
175
133
159
176
135
161
178
120
153
177
111
152
180
191
192
196
190
191
195
188
189
193
187
188
192
187
188
193
184
188
193
180
184
192
174
181
190
170
179
189
168
177
185
162
172
184
149
164
184
136
157
178
131
158
176
82
101
116
20
37
32
31
50
49
100
125
149
122
155
182
123
155
177
128
156
176
128
156
176
119
152
175
112
151
179
194
195
196
192
194
194
191
193
193
191
192
193
190
192
194
186
190
195
179
184
191
171
178
187
170
178
189
167
177
187
161
171
184
152
164
182
140
160
180
131
158
178
130
150
171
66
82
83
20
40
31
65
88
100
123
152
181
123
155
179
124
155
177
124
155
177
120
153
177
116
153
179
192
194
194
192
194
193
192
194
193
191
193
192
191
193
194
187
190
195
179
184
191
172
179
188
166
175
185
163
173
184
158
168
182
155
165
181
145
163
182
130
158
179
134
158
184
106
125
135
28
48
40
35
57
60
109
135
163
122
155
182
119
154
178
120
154
179
121
154
178
119
153
178
