P3 24 24 255
155
200
228
158
200
229
158
201
229
157
203
230
158
205
231
159
205
231
160
205
231
160
206
232
161
207
233
162
208
233
162
208
234
163
209
235
163
209
235
163
209
235
163
209
235
163
209
235
163
209
235
163
209
235
161
208
235
161
208
234
161
208
233
160
208
234
159
206
232
159
206
232
156
201
226
156
201
226
158
202
227
158
202
228
158
205
233
160
205
231
162
205
230
161
207
233
162
207
233
164
207
233
163
208
234
162
208
234
163
209
235
163
209
235
163
209
235
163
209
235
163
209
235
163
209
236
160
209
237
162
208
231
160
208
230
156
209
234
158
207
231
155
207
231
156
202
226
156
202
226
160
203
226
166
205
227
160
206
233
160
206
235
164
206
230
165
206
229
164
208
233
163
209
237
163
209
236
163
209
235
164
210
236
165
211
237
165
211
237
165
211
237
165
211
237
165
210
237
166
208
234
169
207
228
165
208
228
160
209
234
160
207
234
158
208
232
156
202
226
157
203
228
165
206
228
167
201
219
160
204
230
160
208
238
165
207
230
172
207
226
167
209
232
162
210
240
162
210
239
164
210
236
165
211
237
165
211
237
165
211
237
165
211
237
165
211
237
165
210
237
167
208
237
166
208
235
163
208
236
160
209
238
160
208
240
160
208
237
157
203
227
158
205
229
159
200
221
147
179
197
158
199
224
162
207
234
158
197
220
168
202
220
169
209
231
163
209
236
164
210
238
165
211
237
166
212
238
166
212
238
166
212
238
166
212
238
165
211
237
164
211
237
162
210
243
160
211
244
160
210
240
165
210
234
163
203
225
159
200
226
158
204
227
159
205
229
150
192
214
125
161
181
150
192
216
164
206
229
135
173
194
152
189
210
174
213
235
172
213
236
167
212
237
165
211
236
167
212
238
167
213
240
167
213
240
167
213
239
166
212
238
166
212
238
163
212
241
161
211
241
170
210
229
163
188
189
129
141
131
110
124
130
159
205
229
159
205
230
158
201
226
120
157
179
135
170
188
133
163
177
107
136
152
142
177
197
150
183
200
149
175
186
167
197
216
167
213
243
165
216
244
169
213
235
170
214
237
168
213
243
167
213
243
166
212
235
175
211
225
178
207
207
158
175
161
117
116
94
94
75
45
83
76
59
159
205
231
159
205
230
163
207
235
142
175
198
92
111
113
62
73
68
51
67
74
63
90
105
65
87
92
103
112
99
127
136
132
128
163
183
154
209
236
168
218
242
169
216
240
168
213
241
173
211
233
183
215
219
185
199
182
176
176
137
125
117
75
88
72
47
84
61
37
101
100
83
159
205
231
159
205
230
161
207
236
161
191
212
100
103
90
114
115
93
43
57
54
19
39
48
17
38
34
57
75
51
99
105
81
97
108
98
109
147
157
142
203
235
162
215
242
177
212
217
204
221
205
196
195
167
141
134
90
110
95
54
102
82
55
89
74
60
109
110
101
158
174
181
159
205
231
159
205
231
162
209
239
152
183
202
109
107
86
140
135
106
46
56
44
29
43
41
25
42
42
25
46
47
51
64
64
109
112
100
115
130
112
112
155
156
186
215
213
206
216
187
171
172
127
126
115
78
94
81
49
69
55
34
58
48
38
100
107
97
160
189
196
174
208
238
160
206
232
161
207
233
160
207
236
150
186
206
94
103
91
66
65
44
14
19
5
14
21
11
24
32
37
27
41
67
20
40
67
53
62
58
135
134
95
200
206
159
226
220
178
146
135
90
93
88
48
67
64
41
54
44
35
54
48
42
56
68
62
132
165
163
172
218
239
165
209
244
160
206
232
159
205
231
152
198
224
162
205
227
133
162
170
63
72
71
16
15
12
14
14
8
27
28
21
29
39
40
50
65
62
123
132
108
198
195
152
197
182
130
163
149
102
103
92
60
75
68
48
56
52
32
72
59
41
103
98
77
53
71
64
103
141
162
168
215
247
165
212
235
162
206
234
161
203
229
156
196
221
164
207
234
168
208
234
145
173
189
62
70
69
22
16
9
19
13
8
30
34
14
150
154
112
203
198
152
182
171
132
87
72
43
54
53
31
70
68
50
87
76
61
87
79
61
131
119
92
153
147
117
97
110
103
93
128
153
175
218
242
180
209
212
160
208
227
162
208
227
159
207
228
164
211
239
168
206
230
170
201
210
143
157
143
58
51
40
25
17
27
27
21
22
111
103
74
133
117
78
114
96
67
65
54
43
48
41
27
54
45
26
53
52
43
51
65
70
76
87
84
122
123
107
144
140
119
142
145
128
158
165
150
137
128
105
158
206
228
160
206
229
160
208
223
168
210
209
191
214
207
214
219
197
185
181
143
112
109
68
74
67
44
44
32
25
56
41
27
101
82
57
109
89
67
95
80
64
91
78
57
80
79
67
45
60
65
36
55
63
41
55
49
89
90
74
106
95
76
107
94
73
115
108
85
132
138
127
176
210
224
196
213
217
204
212
195
218
221
176
211
205
165
207
193
153
149
132
97
99
85
53
102
87
51
98
78
56
92
71
50
93
72
43
100
81
48
104
85
50
97
90
69
55
68
67
33
51
58
35
40
39
15
19
14
18
25
22
33
40
39
79
91
90
151
182
191
161
211
237
192
203
173
184
177
132
168
148
93
169
145
88
146
126
84
102
88
57
96
82
61
76
60
47
95
83
58
113
105
78
111
104
80
117
114
91
101
99
74
91
83
51
107
89
59
88
82
65
49
60
61
31
49
57
16
41
52
17
44
58
26
44
58
67
83
95
161
204
226
164
213
241
92
82
54
63
55
28
49
41
16
49
41
17
49
42
28
55
50
40
88
87
73
125
127
118
142
151
151
147
166
164
153
177
176
165
193
200
154
182
191
151
169
173
143
142
129
127
116
95
115
109
96
78
86
86
67
80
88
49
72
88
30
59
80
42
72
92
148
190
213
174
212
233
64
65
65
26
32
37
39
52
61
57
79
90
89
115
126
74
95
106
65
86
97
157
188
207
180
214
242
178
216
245
177
218
243
174
218
243
177
221
248
181
221
246
175
210
228
162
188
197
169
189
195
152
172
180
139
156
161
108
133
143
82
117
137
117
157
181
161
207
233
168
212
236
158
188
204
121
151
167
143
174
192
160
196
217
169
211
231
163
201
222
136
172
197
164
208
233
169
214
239
168
212
238
169
213
238
169
214
239
170
214
240
171
215
241
173
217
243
174
219
244
174
219
245
174
218
243
175
213
236
174
211
230
168
205
221
170
209
224
168
212
236
167
211
236
162
207
235
165
211
239
167
211
238
167
209
234
167
212
236
169
212
237
172
213
239
169
213
238
169
213
238
169
213
238
170
214
239
170
214
239
172
216
241
172
216
241
172
216
241
172
216
241
172
216
241
171
215
240
171
214
239
172
214
238
171
213
236
169
212
234
167
211
235
167
211
236
162
207
234
162
207
233
163
209
235
164
210
236
166
210
237
167
212
239
166
211
237
168
212
237
169
213
238
169
213
238
170
214
239
170
214
239
171
215
240
172
216
241
172
216
241
172
216
241
171
215
240
170
214
240
169
214
240
168
214
240
167
212
240
167
212
240
167
211
236
167
211
236
165
207
231
166
208
232
166
210
234
165
210
235
169
209
236
168
211
237
167
213
237
168
212
237
168
212
237
169
213
238
170
214
239
170
214
239
171
215
240
172
216
241
172
216
241
172
216
241
171
215
240
170
214
239
169
214
238
169
213
240
168
212
242
168
211
242
167
211
237
167
211
236
162
207
234
163
208
236
164
210
235
166
209
232
171
208
233
170
210
234
167
212
236
168
212
237
168
212
237
169
213
238
170
214
239
170
214
239
171
215
240
172
216
241
172
216
241
172
216
241
170
214
239
170
214
238
171
213
236
171
212
238
170
211
241
170
211
242
167
211
237
167
211
236
