P3 24 24 255
112
92
116
120
95
124
126
98
131
134
103
138
136
105
138
138
107
137
140
108
136
139
108
135
140
108
138
141
108
140
143
106
143
141
105
143
136
106
138
134
105
136
131
101
133
129
98
130
130
96
126
129
93
122
128
88
119
126
84
115
126
81
113
125
81
111
126
82
108
125
82
104
111
89
129
112
86
127
119
87
130
129
91
133
134
94
133
136
92
129
138
91
123
141
91
119
142
94
121
135
95
124
133
96
129
138
100
136
136
101
134
130
99
130
130
97
129
133
93
126
132
91
123
131
88
118
130
85
114
130
83
111
130
80
107
129
80
105
131
80
103
134
81
104
100
75
118
106
77
118
114
79
120
121
83
121
125
86
122
129
87
122
135
90
121
138
89
116
141
91
113
133
92
116
132
92
120
137
92
125
137
92
125
131
94
125
131
92
123
134
88
121
133
86
118
130
84
113
130
81
109
131
79
105
130
78
101
132
78
100
135
78
101
137
78
103
100
66
109
105
69
110
107
72
110
109
76
111
111
80
112
106
79
106
91
67
92
99
74
97
104
75
95
114
82
104
134
89
116
144
86
119
143
87
120
137
88
119
134
86
117
134
83
115
132
81
112
131
78
108
133
78
105
134
76
101
134
76
98
138
78
99
140
77
99
139
74
97
99
59
100
102
62
100
99
68
100
89
65
95
86
65
91
72
60
78
44
39
59
52
49
71
54
45
63
81
61
80
128
86
109
147
87
115
148
85
117
144
83
114
139
81
112
137
81
111
136
78
107
136
76
103
140
76
102
140
75
99
141
75
95
145
78
97
146
76
96
144
71
92
95
54
91
98
58
92
78
55
81
48
35
59
47
38
58
41
39
51
40
45
64
49
56
80
47
52
70
71
67
81
105
80
94
128
83
101
141
84
109
145
81
110
146
79
109
144
79
108
142
75
103
142
74
101
145
74
99
145
72
94
145
72
91
147
72
90
151
74
93
154
73
94
90
50
84
87
50
80
41
28
47
22
20
39
30
28
44
28
31
39
46
52
71
58
65
93
58
68
88
78
85
97
85
80
84
84
61
67
121
76
95
142
80
105
149
77
105
148
77
105
149
77
104
151
77
102
150
74
97
150
72
93
149
71
88
149
69
85
153
69
87
162
76
95
83
46
77
67
37
62
22
17
29
17
20
31
24
23
32
30
34
41
52
59
79
60
67
99
60
67
93
82
92
101
90
90
88
76
63
62
84
53
63
134
80
96
151
80
107
154
80
103
156
79
100
156
76
97
152
69
90
154
69
88
155
69
85
156
69
84
159
70
86
163
73
90
77
45
74
51
28
49
16
14
23
15
16
20
23
19
23
36
38
44
50
57
74
50
56
86
47
48
75
74
74
80
95
87
78
98
84
76
70
49
46
119
73
77
155
85
109
157
81
99
157
76
90
156
71
87
155
66
84
157
67
85
160
68
84
163
70
85
165
73
88
164
72
87
65
41
68
38
18
38
18
10
21
21
15
22
27
18
24
28
25
27
62
63
71
50
55
71
30
30
43
64
48
47
97
78
63
109
96
76
91
70
49
113
68
55
150
80
96
154
74
93
157
73
87
159
73
88
161
71
88
158
66
83
161
68
83
164
71
86
163
69
84
161
67
83
52
36
60
29
14
33
22
10
22
28
16
27
30
19
26
36
28
28
65
60
60
45
45
50
35
31
31
79
53
43
100
73
49
116
101
72
115
90
57
124
81
52
147
77
83
156
71
89
159
72
85
158
71
84
160
69
83
161
68
83
164
70
84
165
70
83
162
67
80
162
67
81
45
33
56
24
15
31
22
11
23
28
16
27
27
17
24
29
20
20
37
29
29
36
31
32
54
46
36
97
77
55
108
83
52
118
94
62
127
96
59
145
103
64
151
81
79
159
69
85
160
70
83
161
71
83
162
69
83
165
70
84
166
70
82
164
67
79
163
67
78
162
65
77
42
29
52
18
14
29
20
14
24
22
15
24
20
16
21
20
15
16
24
18
23
36
25
31
72
62
48
97
94
62
104
90
53
116
83
55
141
104
73
152
108
68
152
81
74
162
68
82
163
71
83
164
73
84
166
72
84
166
69
82
165
67
79
163
64
75
162
63
74
163
64
76
41
27
49
16
14
25
22
15
22
26
15
21
24
17
20
21
17
22
23
15
27
47
34
33
90
79
54
97
94
53
113
91
49
125
78
47
131
88
55
113
74
40
124
60
56
165
71
85
168
72
84
167
73
84
167
70
83
164
65
78
163
63
74
162
62
72
163
63
73
166
66
77
38
21
39
16
13
20
27
16
20
48
24
25
47
25
17
40
21
22
45
19
24
86
60
38
119
99
53
126
99
45
155
111
60
154
96
51
129
79
37
88
54
31
102
49
51
164
73
88
173
72
86
169
70
83
166
66
79
162
62
75
163
63
73
163
63
72
165
65
75
165
65
75
42
19
31
23
15
20
23
14
18
65
36
29
89
47
21
83
36
16
98
37
23
130
69
33
145
97
43
150
102
43
163
115
59
154
100
53
143
85
45
98
55
35
101
45
47
161
74
86
174
73
86
168
67
79
162
61
73
162
61
73
165
64
74
164
63
72
164
64
72
164
63
72
60
25
31
36
18
21
28
14
18
54
25
18
107
61
28
119
56
23
128
43
19
142
51
17
144
61
19
150
76
32
124
67
28
91
40
8
128
65
30
113
56
38
125
58
58
162
73
83
170
69
80
165
62
73
162
60
71
165
62
73
165
63
72
163
62
69
163
61
69
165
63
71
76
29
34
56
21
23
46
18
19
44
16
15
90
51
28
129
65
33
137
49
27
141
39
17
144
36
16
141
44
21
112
41
21
85
32
12
115
51
20
125
57
38
148
67
66
165
68
78
166
62
71
164
60
68
166
62
70
168
64
72
167
63
70
164
60
66
166
61
68
166
62
68
90
31
39
81
28
31
72
26
23
50
15
20
78
42
28
129
64
33
147
58
38
149
46
30
150
36
22
147
40
22
148
66
49
110
53
33
108
48
17
136
59
40
157
61
60
169
61
73
168
61
70
168
62
69
168
62
70
168
62
69
165
59
65
166
60
65
167
61
67
164
58
63
96
31
41
97
32
35
94
30
25
65
21
23
79
34
24
118
48
19
136
49
26
151
47
29
154
41
22
156
45
23
140
53
29
114
55
27
131
70
41
147
64
47
165
61
61
172
57
69
170
60
70
169
62
70
166
59
67
164
57
64
164
57
63
166
60
64
164
58
63
162
56
60
101
33
41
106
33
37
108
31
30
77
26
20
92
31
25
110
36
22
129
50
29
155
43
27
157
42
25
159
46
30
132
44
22
129
64
38
139
63
42
152
62
51
165
60
62
170
56
66
170
60
67
168
59
65
165
56
62
164
55
61
164
58
63
164
59
63
162
57
61
161
56
60
105
35
42
109
34
37
113
32
31
89
27
20
109
33
30
117
35
25
120
41
21
153
43
28
158
47
32
159
47
34
138
43
28
147
69
50
139
51
38
145
50
44
164
61
64
167
59
67
168
59
66
165
56
62
163
54
60
165
56
62
164
58
63
162
57
61
162
57
61
161
56
60
109
37
43
112
35
37
115
34
31
108
31
27
125
34
32
132
40
31
128
41
24
149
46
31
156
52
38
162
53
43
154
52
43
159
65
55
156
56
50
146
45
44
165
64
67
166
64
69
165
57
63
164
55
61
164
55
61
164
55
61
161
55
59
161
56
60
163
58
62
161
56
60
110
37
41
115
37
37
118
35
32
122
34
29
133
35
30
137
39
31
140
45
30
149
48
34
157
55
44
162
55
48
164
57
53
166
62
60
164
59
60
159
54
57
167
64
68
164
62
66
163
56
62
165
56
62
165
56
62
162
54
60
161
55
59
161
56
60
161
56
60
163
58
62
