P3 24 24 255
144
150
133
142
150
134
128
136
120
104
114
98
123
136
120
134
145
128
125
132
114
117
126
105
127
138
121
129
132
118
121
137
117
136
144
126
138
141
125
119
132
113
115
131
112
101
109
92
124
132
115
142
155
137
137
150
132
132
145
127
131
144
125
136
150
131
115
132
114
107
125
111
184
173
152
172
166
154
127
132
123
101
106
87
125
134
114
130
143
126
121
131
112
112
120
100
108
126
113
118
128
113
149
155
131
184
182
153
178
178
152
122
132
110
121
134
116
114
121
102
132
137
119
149
157
140
138
150
132
130
144
127
131
147
128
131
148
127
135
152
134
118
135
120
188
166
135
161
148
132
128
135
125
108
112
92
114
122
102
123
136
122
117
128
112
116
125
105
112
129
117
115
125
108
168
166
140
221
213
181
203
199
173
129
136
118
121
136
121
120
134
115
129
140
123
141
152
138
140
155
138
135
153
135
133
151
132
137
154
134
138
155
138
128
144
130
195
170
127
160
147
117
122
131
114
101
107
86
100
108
90
116
130
118
122
133
119
126
132
112
128
135
117
121
123
102
179
174
148
230
221
191
203
193
173
139
140
128
121
136
125
119
138
122
130
146
131
134
150
137
138
156
140
134
154
136
137
156
138
147
164
146
140
156
142
132
148
137
211
185
135
181
168
128
130
137
114
151
153
130
130
132
113
110
118
104
119
125
109
147
145
124
194
188
163
164
156
130
197
188
161
236
224
197
195
174
153
162
151
136
148
153
139
132
142
123
142
149
130
155
162
145
143
155
138
132
149
132
144
162
145
153
169
154
147
163
151
139
155
145
210
188
143
199
183
139
163
161
133
196
187
160
176
168
143
134
132
112
139
135
113
178
166
138
212
195
163
198
182
152
221
208
181
228
215
187
173
142
111
175
147
120
175
158
134
173
157
129
181
159
128
169
151
124
156
151
131
155
163
149
156
171
159
155
171
158
146
162
151
147
162
155
197
181
146
199
183
141
197
187
157
195
176
147
187
170
140
186
174
148
183
168
142
197
177
144
200
176
139
197
177
143
225
210
182
205
188
163
184
145
107
173
132
95
172
137
104
193
154
118
202
153
112
173
130
96
124
102
81
155
153
144
180
190
183
172
187
176
164
179
169
163
177
172
192
190
169
192
185
156
199
188
159
202
186
160
206
188
157
194
169
132
191
167
141
201
184
153
198
185
153
199
193
154
199
185
153
183
150
135
166
130
107
106
75
53
131
98
77
172
132
97
196
144
103
173
128
101
95
69
60
118
106
103
191
190
182
201
208
196
196
205
195
188
200
193
198
206
192
199
200
181
201
195
171
202
194
174
207
193
164
195
167
126
176
148
123
128
112
88
108
92
83
124
118
100
161
146
119
161
126
98
106
76
61
75
52
47
108
78
67
156
115
83
193
145
104
146
105
83
96
71
67
109
92
89
172
164
155
208
212
202
204
211
204
199
210
204
185
197
187
186
194
180
189
192
174
191
190
177
197
186
163
194
168
132
156
129
105
122
102
79
85
54
53
61
38
46
127
105
94
125
97
58
88
62
44
83
58
56
106
71
60
167
118
84
189
138
95
135
94
69
109
83
75
114
94
86
137
127
117
158
162
158
158
166
164
162
173
173
102
115
112
100
111
106
109
118
111
114
119
116
173
166
150
203
180
148
139
112
92
126
104
75
152
115
88
85
50
53
74
42
45
119
89
66
110
81
63
100
70
63
125
86
71
187
135
97
196
144
101
141
102
75
126
98
87
127
102
87
108
96
84
78
84
87
74
83
88
80
92
98
47
54
59
49
56
62
49
56
62
35
42
50
116
113
103
194
173
146
122
95
79
125
102
71
185
148
101
154
113
89
117
77
65
133
94
75
152
113
86
146
108
87
152
112
89
197
148
106
190
142
95
150
111
82
132
102
87
131
102
81
114
100
86
55
63
71
49
59
69
56
70
82
39
40
52
43
45
58
50
53
67
28
34
49
95
95
89
169
149
125
120
92
78
154
131
107
191
157
120
182
141
98
186
142
100
157
113
73
170
123
81
168
125
91
137
98
68
185
142
97
193
148
100
158
120
89
124
94
75
138
107
81
128
111
96
50
58
71
42
54
69
51
65
83
27
30
42
24
27
42
34
38
55
17
21
36
95
90
85
175
154
131
108
86
71
80
70
65
153
135
120
170
134
99
180
134
98
155
115
76
130
93
61
127
99
69
122
97
70
181
146
100
210
161
105
161
127
100
132
106
90
178
147
109
141
124
102
54
57
75
46
56
76
46
58
78
30
36
47
28
33
46
30
36
50
28
32
46
69
63
65
132
113
98
84
71
62
29
28
40
77
69
65
167
137
104
175
132
106
131
97
73
114
90
75
105
94
76
124
112
95
183
155
116
203
157
102
133
106
86
130
112
101
202
177
140
158
145
120
53
53
65
38
47
64
45
54
72
25
28
40
24
27
39
31
35
45
35
39
54
31
29
43
43
33
32
33
26
30
23
23
45
67
57
58
173
149
107
169
135
102
137
106
90
103
87
81
64
64
52
73
70
64
153
134
108
208
173
127
102
85
73
85
76
76
201
186
162
192
185
162
72
73
73
40
49
59
52
61
71
25
25
39
29
30
40
46
47
53
21
24
37
18
18
37
34
31
38
32
31
42
10
10
34
93
83
81
187
169
128
153
128
98
135
110
97
74
66
65
31
39
35
46
51
56
129
117
104
207
179
142
79
71
64
44
43
52
160
152
141
213
211
190
115
115
104
44
50
57
75
82
90
37
35
50
57
56
64
70
70
71
43
42
49
35
35
47
74
73
77
92
91
99
34
31
44
145
134
121
154
140
113
102
84
68
139
121
102
69
64
59
28
38
37
36
43
52
102
92
87
211
186
152
88
82
78
39
40
54
97
92
88
209
208
188
169
167
152
52
55
66
63
67
80
30
27
42
44
42
49
49
49
47
67
65
64
57
54
57
70
69
67
70
68
70
65
59
59
184
175
150
98
86
74
87
71
71
157
144
117
68
65
53
34
43
42
49
54
65
92
81
80
220
195
163
101
95
90
39
40
53
59
53
51
160
157
139
181
177
163
60
61
77
53
54
73
27
24
32
49
46
47
81
77
70
90
84
79
48
43
44
55
53
53
29
28
34
43
41
46
179
175
156
100
88
82
112
97
96
183
172
153
66
62
57
46
45
52
56
54
65
74
66
67
205
193
173
102
99
87
47
45
44
86
82
76
122
119
104
170
166
157
62
59
78
60
58
81
54
52
51
93
88
82
111
104
92
129
121
111
61
55
53
50
47
48
34
33
41
31
32
40
130
130
120
135
125
116
117
104
94
171
164
151
61
56
53
73
65
73
80
73
79
88
82
78
190
187
172
113
110
94
97
93
81
117
113
104
120
116
101
170
166
151
100
96
100
99
98
101
130
125
116
144
137
122
127
117
97
147
138
117
106
98
84
102
95
90
91
88
87
61
61
59
96
99
88
161
155
140
130
120
102
164
159
139
91
84
73
91
81
78
99
90
86
138
131
117
193
187
167
124
118
99
137
130
114
130
122
111
121
114
96
177
170
150
142
136
125
137
137
120
176
168
147
144
134
109
138
126
95
167
155
121
163
153
125
121
111
96
109
102
90
123
121
105
124
124
109
170
163
137
182
173
141
196
191
160
144
135
111
129
117
99
127
116
98
181
171
143
196
187
156
121
111
84
156
145
121
143
132
112
107
95
77
182
169
156
159
149
138
127
121
103
174
163
132
166
153
117
168
152
111
183
169
121
168
155
113
114
101
76
120
110
86
144
138
108
150
144
121
181
168
127
205
191
141
196
185
141
161
149
112
154
139
109
156
141
111
204
191
150
198
186
141
164
151
110
183
170
132
156
142
107
133
118
91
183
167
149
175
161
145
142
131
114
