P3 24 24 255
21
39
3
16
32
2
22
43
11
38
56
24
120
112
79
147
119
88
147
120
88
139
128
94
95
98
57
68
83
37
86
101
62
113
120
97
154
150
138
145
131
116
148
130
109
123
119
87
60
80
35
45
73
26
28
52
10
36
61
16
44
71
18
42
69
11
46
75
15
60
88
27
20
36
4
13
27
1
13
42
9
18
56
15
58
71
35
119
106
72
140
115
80
152
128
93
153
133
110
191
176
168
208
194
193
209
196
190
208
191
177
188
164
143
172
148
122
106
102
69
42
61
24
16
38
8
13
30
4
17
37
9
33
54
19
29
51
11
26
49
4
43
66
14
28
54
18
28
49
15
16
47
9
20
53
13
24
39
8
39
45
16
63
67
35
143
128
93
211
187
161
222
194
180
193
164
152
184
154
136
211
181
153
226
191
155
203
173
134
123
118
77
33
51
16
22
42
15
25
37
15
14
29
7
13
29
5
19
35
7
27
46
7
48
68
15
66
101
45
64
96
39
54
84
33
35
63
17
32
58
13
24
53
10
15
41
4
114
111
79
228
210
178
206
176
143
171
134
98
164
128
88
179
145
105
181
151
115
175
151
111
133
131
82
62
82
32
45
66
29
28
40
15
18
32
8
31
48
19
34
55
19
36
59
16
43
65
14
53
83
24
47
80
19
68
95
40
48
76
26
37
78
17
44
83
24
32
51
11
95
94
68
148
132
107
172
143
112
193
158
122
188
155
115
162
138
102
79
63
40
103
88
56
137
136
85
72
91
32
68
92
39
37
51
19
13
25
3
36
55
21
41
68
23
35
65
19
32
60
15
38
65
11
19
42
1
35
49
14
35
51
15
33
60
11
52
74
25
71
74
47
154
148
132
137
124
106
155
135
113
217
194
170
203
182
158
183
167
144
143
128
103
151
132
94
155
148
93
80
97
32
58
85
25
29
47
11
17
28
6
29
47
16
30
58
16
15
48
6
23
57
13
47
69
26
16
35
4
21
31
5
38
49
12
49
68
16
60
73
27
124
117
95
178
162
150
216
199
185
230
214
198
230
215
200
198
184
174
195
182
170
193
176
147
181
156
112
179
165
104
112
125
52
59
88
20
46
74
20
43
67
24
52
80
34
48
82
32
35
69
22
16
46
8
11
30
4
15
36
6
26
39
8
25
37
3
49
67
17
94
103
56
176
163
138
220
195
181
246
223
209
233
216
202
175
163
152
121
112
107
122
114
104
146
131
96
150
125
76
179
160
97
140
144
72
70
98
26
63
99
30
61
99
34
53
94
32
48
86
29
29
59
17
7
28
1
18
49
5
26
56
12
23
42
8
11
23
1
23
36
8
88
90
57
195
176
147
239
209
179
244
218
189
235
216
192
156
146
122
64
62
39
81
80
46
121
111
57
134
119
57
163
140
78
184
166
104
99
113
45
52
90
20
58
94
28
54
97
29
56
92
41
37
60
26
16
41
6
57
91
29
57
93
33
49
74
26
40
55
23
38
54
22
80
84
52
179
162
129
235
205
159
243
212
163
237
206
158
228
201
147
194
170
107
150
128
56
125
106
28
129
108
29
158
128
55
184
159
93
124
132
64
53
88
21
47
84
19
73
116
41
72
107
45
67
86
43
52
73
28
59
88
44
48
79
29
46
67
27
15
26
6
17
29
6
66
68
36
156
137
101
222
188
146
249
212
168
229
190
143
200
158
103
204
162
96
172
134
56
134
107
19
127
103
13
141
108
28
146
120
47
110
120
47
92
131
56
82
126
47
75
127
35
98
139
57
71
94
38
57
78
28
48
78
26
55
78
37
33
45
20
14
19
7
15
20
2
49
45
16
153
131
91
212
180
134
240
203
158
216
179
131
162
125
70
149
110
46
137
102
28
121
95
11
114
88
2
125
95
14
127
109
31
123
140
60
109
157
73
105
160
71
99
160
58
110
161
66
108
141
68
91
121
55
65
101
35
70
99
42
75
101
46
80
106
50
68
90
34
70
84
33
147
148
95
203
183
128
231
191
142
202
161
111
140
115
54
140
112
46
140
110
38
120
100
16
123
89
9
126
111
29
130
139
55
151
182
96
131
187
98
122
174
89
132
182
94
120
170
78
157
203
106
162
209
100
101
149
75
102
149
64
115
165
69
115
168
70
115
162
70
129
170
87
158
183
111
195
173
117
210
162
117
185
142
97
135
114
57
137
131
61
154
151
71
133
118
36
128
101
24
133
147
59
144
183
90
158
197
107
140
192
99
143
195
103
148
198
107
150
202
107
151
205
102
153
207
95
149
206
106
132
191
82
129
192
75
133
199
82
142
205
94
133
192
91
154
193
105
180
161
97
188
149
98
166
129
82
126
105
48
141
154
74
154
184
90
156
151
74
120
104
32
131
164
74
149
203
104
164
204
109
161
209
111
160
213
113
145
197
96
153
205
104
156
208
107
141
193
94
147
201
94
148
200
98
143
199
91
151
212
100
146
208
96
138
197
91
168
211
114
168
167
85
149
134
65
173
148
91
146
120
59
143
157
65
147
194
86
172
179
103
146
129
65
165
187
105
177
220
126
169
210
111
167
217
117
163
209
113
134
178
80
137
182
79
154
199
98
138
182
87
144
201
96
156
208
112
136
187
91
127
181
80
141
195
94
154
207
108
178
222
127
160
178
87
151
166
79
203
198
124
182
153
84
158
160
69
161
204
97
184
191
110
170
142
77
151
158
80
173
208
119
178
216
123
158
204
110
148
190
101
151
192
100
163
206
112
159
202
111
160
201
119
132
194
88
137
193
98
115
167
76
128
179
86
135
185
90
148
198
100
168
208
113
164
179
94
153
171
88
205
205
130
208
175
110
168
153
75
153
181
88
168
176
96
154
128
55
138
147
58
163
202
109
174
209
133
173
216
135
162
214
108
161
212
101
153
201
92
149
195
91
175
216
122
124
185
83
120
175
80
129
179
89
132
179
91
137
179
90
137
179
82
163
194
98
170
174
97
154
168
93
193
196
126
197
164
104
161
134
67
136
153
70
155
173
95
158
143
66
152
164
69
172
210
114
182
214
142
178
223
147
149
206
98
137
192
77
134
184
71
134
178
72
149
186
89
141
204
97
148
204
98
144
193
96
146
187
103
158
193
114
153
184
100
166
188
100
179
187
109
177
205
124
180
204
126
202
188
121
173
152
82
151
169
82
151
176
87
173
158
83
160
164
82
160
187
98
155
180
92
149
190
96
144
193
94
135
184
83
122
169
69
121
164
71
131
171
85
159
214
106
148
203
84
137
189
82
135
183
90
145
186
94
160
191
102
179
200
117
167
186
101
146
179
93
163
197
114
205
204
129
186
178
95
143
172
74
134
160
75
186
175
111
172
171
103
149
170
85
141
168
74
134
173
75
141
189
91
138
186
86
131
178
80
133
178
88
143
189
100
138
181
89
118
163
56
121
171
71
127
182
85
134
190
78
138
181
74
157
188
100
162
190
108
158
183
100
171
201
112
190
193
109
177
171
85
117
152
56
122
154
77
180
185
122
170
170
97
133
153
62
131
168
78
134
175
96
116
161
76
120
167
71
146
193
101
143
189
106
140
190
102
96
137
53
98
133
53
119
158
78
105
153
66
105
157
60
122
172
70
139
184
91
139
173
99
135
164
81
142
179
75
181
187
91
194
180
106
140
165
90
119
152
77
141
142
79
171
157
91
154
156
76
171
191
117
167
195
131
134
164
93
156
194
107
158
204
115
137
187
106
140
192
109
123
166
80
94
132
53
101
142
53
114
159
67
126
171
91
154
201
121
150
199
112
138
176
103
146
182
100
136
180
78
175
181
93
208
185
122
144
151
91
113
124
63
120
112
61
158
149
95
168
175
111
167
178
128
195
205
166
151
176
110
140
180
87
140
191
93
133
184
97
125
169
89
