P3 24 24 255
147
127
115
135
117
107
117
99
89
80
59
50
90
70
62
69
55
45
90
83
72
93
89
79
62
58
49
47
38
33
81
68
64
79
66
58
66
55
47
58
48
42
61
52
46
84
75
69
89
78
72
102
88
81
93
78
70
81
72
67
91
83
79
104
92
89
103
88
85
114
97
92
187
161
147
172
146
133
159
134
120
117
97
88
91
73
68
86
68
61
94
78
71
71
57
50
86
73
65
58
47
38
84
74
65
78
71
62
49
41
35
89
80
73
69
59
53
103
90
84
87
73
68
97
82
77
89
73
69
41
31
32
48
39
40
98
84
81
111
94
85
135
117
105
176
151
138
171
146
133
154
129
116
137
115
105
125
106
98
124
105
97
98
81
72
63
47
38
99
85
75
60
47
37
89
78
68
95
85
76
69
60
51
101
91
82
56
44
37
80
66
59
96
80
74
104
86
80
70
52
47
73
59
57
97
85
83
131
117
112
170
153
146
179
162
154
125
103
92
138
115
104
141
118
107
125
103
92
106
85
74
129
109
98
94
75
64
52
35
24
120
104
91
95
81
70
87
73
61
113
101
91
99
87
78
122
109
100
74
61
52
92
76
68
117
99
92
140
121
114
120
100
94
152
134
127
163
147
140
176
160
154
190
174
169
193
178
172
137
117
108
145
124
115
143
123
113
121
99
89
104
81
70
105
82
71
108
87
75
61
43
33
122
104
92
118
102
90
105
90
77
103
90
78
119
106
96
122
107
97
57
41
32
110
93
82
139
120
110
137
117
107
130
108
99
154
133
121
157
137
127
146
129
122
145
130
127
86
72
70
136
117
108
155
136
126
124
104
94
104
80
69
104
79
67
109
85
73
141
119
105
92
73
58
109
91
76
137
118
103
103
85
70
108
93
78
147
131
117
127
111
97
79
62
51
135
117
105
139
118
107
121
99
88
132
110
97
147
124
109
168
146
133
156
138
129
91
76
72
39
24
24
152
133
125
143
120
110
130
104
92
136
107
97
143
116
106
147
125
111
184
165
148
82
64
45
134
114
95
112
89
73
123
98
81
123
100
78
147
126
105
154
135
120
84
66
57
158
141
135
161
141
133
146
124
112
139
116
99
145
125
108
180
161
146
153
135
121
63
45
33
69
49
39
131
113
107
117
94
86
133
107
97
117
88
82
108
81
75
102
79
71
129
111
100
98
80
68
173
153
140
131
108
95
121
94
81
133
108
89
144
123
104
173
155
145
87
70
68
156
140
140
141
122
120
151
130
123
147
123
111
155
136
122
162
146
132
162
144
131
111
92
79
144
124
112
97
83
81
111
93
88
108
86
81
89
63
59
72
48
44
64
43
40
79
61
59
71
54
51
160
142
136
202
181
172
125
100
88
125
102
87
150
130
118
190
175
171
79
63
66
80
65
71
76
58
62
84
64
62
94
72
65
118
100
91
108
93
84
87
72
62
109
92
82
171
153
142
130
119
120
107
94
93
139
122
121
127
106
100
86
63
58
75
56
55
66
50
51
56
40
41
67
50
47
188
169
160
133
111
96
129
109
92
168
150
138
104
89
85
56
42
45
80
67
73
68
52
56
85
67
65
120
100
94
150
135
129
103
90
86
72
58
53
91
76
69
124
108
98
178
170
172
116
105
108
90
77
78
122
104
94
136
117
106
159
142
138
128
114
114
68
54
54
46
31
26
147
130
115
163
144
122
164
146
124
144
128
112
51
37
29
62
51
50
109
99
100
115
103
102
139
123
118
134
117
107
118
105
101
86
74
74
105
92
90
117
103
97
93
79
70
176
173
176
174
168
171
101
90
92
113
95
91
129
110
104
173
156
151
186
172
166
96
81
73
62
43
30
145
122
103
194
168
145
191
165
146
143
120
106
65
47
36
99
85
78
189
178
173
172
162
155
149
136
128
94
78
70
58
46
41
91
81
78
176
165
164
196
183
183
162
148
146
118
116
119
164
159
162
152
141
145
113
96
99
88
70
70
107
91
88
81
66
58
130
113
99
101
79
62
138
111
91
170
138
118
163
130
117
127
97
88
140
117
107
122
105
95
135
123
113
102
92
82
91
79
72
69
55
51
64
53
47
102
93
88
183
172
171
212
200
202
213
199
201
74
70
70
93
86
88
122
112
115
115
100
102
93
77
78
96
82
80
108
96
89
117
103
93
149
131
118
116
92
78
132
103
89
126
97
88
115
89
83
157
138
130
120
105
97
119
108
99
76
66
57
75
63
56
82
68
63
92
81
77
92
82
80
138
126
125
185
173
172
191
177
176
89
81
78
99
90
91
110
100
103
116
105
107
115
104
104
86
78
75
120
112
107
118
109
102
190
175
167
148
127
119
105
79
72
114
89
87
171
151
148
157
141
137
135
123
117
127
118
110
105
95
88
121
108
101
110
94
88
113
101
99
88
78
78
115
104
102
158
148
144
172
160
154
111
99
93
127
117
116
148
139
141
129
121
122
101
95
95
86
82
80
102
99
95
133
127
123
141
130
126
150
132
130
142
119
119
141
120
122
140
123
124
127
115
114
146
138
134
97
89
83
114
104
98
137
123
116
145
128
121
120
107
108
91
80
82
83
72
69
123
112
105
167
155
145
112
99
93
100
90
88
133
124
125
155
148
149
149
144
144
119
116
115
119
118
117
107
104
103
97
89
89
121
107
108
143
125
127
134
119
122
127
115
118
123
114
114
97
90
89
91
84
80
119
108
102
114
99
92
106
87
80
92
79
80
84
74
77
110
100
96
136
125
116
145
132
121
57
47
43
52
44
40
89
82
78
135
128
127
149
142
143
113
107
109
103
99
101
77
73
75
64
58
60
58
49
51
79
69
70
76
68
71
72
66
69
119
113
114
76
68
68
65
54
52
118
103
97
125
106
97
100
79
70
112
101
100
129
120
122
144
133
130
146
131
125
145
128
120
94
82
79
98
88
83
81
71
67
86
78
76
92
83
83
65
56
55
83
73
73
35
26
26
59
50
50
24
15
15
19
11
11
24
17
19
71
64
65
112
104
103
119
107
105
109
95
90
118
101
94
129
111
102
121
102
93
98
88
87
119
111
112
137
125
123
145
128
123
147
128
121
116
100
95
115
100
94
89
76
70
81
71
69
88
79
77
72
59
55
88
72
67
83
67
61
92
77
72
43
31
29
43
34
33
76
68
68
99
89
88
97
84
81
134
117
110
136
117
108
124
105
96
127
110
102
125
110
104
112
104
104
138
130
132
149
138
135
145
129
124
146
128
121
113
93
87
104
85
78
70
53
46
74
63
59
117
105
102
115
97
90
111
88
77
104
80
68
77
56
47
81
66
61
84
74
72
123
114
113
106
94
91
121
104
96
113
90
78
117
92
79
96
74
63
97
81
74
112
101
98
131
125
126
152
144
145
155
144
141
153
137
132
154
136
129
103
79
73
95
74
66
81
61
54
60
46
44
104
90
86
123
101
91
116
88
73
114
84
67
103
77
64
101
84
76
105
93
91
110
100
98
97
83
79
119
97
87
114
87
72
128
100
84
126
103
91
103
88
82
95
86
85
116
111
113
137
129
130
149
138
135
148
132
127
149
130
123
94
72
60
98
78
66
101
81
71
86
72
69
83
68
64
103
79
68
115
83
66
127
93
73
119
89
73
101
79
69
97
80
76
101
83
80
109
88
83
114
88
79
102
74
61
110
83
69
131
110
99
98
85
77
94
86
82
111
105
105
122
114
115
135
125
123
140
128
125
149
135
131
91
71
58
88
69
56
78
60
48
81
66
61
80
61
56
103
75
63
111
76
58
126
89
69
122
87
70
109
80
67
106
83
74
109
85
80
94
69
63
108
81
73
111
84
74
94
69
58
104
85
76
89
76
70
101
92
88
117
111
110
125
116
117
128
119
118
132
122
121
147
136
134
