P3 24 24 255
78
79
89
51
48
66
60
56
84
124
101
124
103
96
102
108
114
116
147
152
142
140
144
132
161
159
154
135
123
134
118
106
122
117
110
127
117
111
125
122
115
128
118
110
126
122
116
129
140
137
147
115
111
122
101
99
107
115
114
118
125
124
124
118
119
112
113
109
102
136
122
107
109
125
52
112
127
62
110
122
70
143
156
125
126
141
81
115
133
55
148
169
68
106
114
73
156
154
154
164
164
167
141
137
146
145
142
153
178
176
185
111
108
117
94
92
101
90
90
98
102
101
107
107
106
111
105
104
108
109
108
114
115
114
122
120
117
125
102
102
97
73
77
64
144
173
60
148
179
64
154
180
68
156
177
75
165
184
82
178
194
89
151
167
79
73
81
57
168
171
157
210
212
202
187
189
174
184
184
185
143
142
151
63
64
67
57
64
53
69
72
66
86
85
89
87
87
90
47
47
46
73
72
76
103
106
106
110
115
107
114
113
102
88
100
49
130
153
50
132
154
52
134
156
52
145
160
65
157
165
80
150
159
78
80
91
45
86
93
68
197
198
190
228
227
228
197
201
196
199
199
205
169
168
175
144
142
148
141
146
124
80
84
75
73
74
75
41
43
42
33
34
34
80
77
85
83
87
80
75
84
65
109
115
101
101
119
63
137
141
60
124
137
51
109
131
42
104
130
38
102
131
34
86
109
38
62
70
46
156
161
140
212
212
209
162
177
143
122
134
105
198
196
197
255
253
255
236
236
235
153
159
147
78
79
79
56
56
64
35
41
50
58
60
70
106
101
112
61
60
57
62
64
58
98
96
87
86
89
68
110
128
41
107
126
38
97
122
33
93
123
31
89
116
28
83
94
63
132
133
135
190
191
187
142
148
128
76
96
45
106
116
88
225
223
225
250
249
250
190
183
178
88
72
58
97
82
78
95
83
85
61
56
63
113
103
113
115
100
97
62
50
44
65
62
62
109
101
93
109
98
87
83
108
22
85
111
19
88
114
24
92
111
34
106
109
81
127
122
131
150
143
158
147
141
153
114
108
117
95
86
93
144
136
147
190
182
196
205
201
205
131
114
108
83
55
38
66
48
34
56
39
31
79
76
82
127
123
134
110
102
104
86
82
83
80
76
75
111
96
91
123
107
100
84
104
35
96
115
58
105
122
83
133
140
130
169
164
172
122
117
123
124
120
127
156
150
162
149
139
157
133
128
140
140
135
148
144
139
151
144
140
150
115
110
115
96
95
96
76
77
75
65
62
64
97
93
104
110
106
120
113
116
131
119
124
140
86
82
84
86
74
67
100
90
86
152
156
163
162
165
181
166
168
188
175
177
198
195
196
208
198
195
202
189
182
194
163
156
165
152
144
155
140
134
143
127
125
130
124
122
129
116
116
120
113
114
113
118
118
117
119
118
116
122
121
120
142
139
142
136
132
138
116
114
118
103
103
102
89
90
85
104
105
100
115
117
112
201
199
209
207
204
211
218
215
220
233
232
235
239
236
241
209
203
208
194
187
190
198
190
200
178
171
180
172
165
174
169
162
173
163
156
170
152
150
158
135
134
138
133
132
135
115
116
111
113
116
106
119
122
117
116
119
114
112
116
105
112
116
104
102
103
97
85
87
83
82
84
77
202
197
201
189
183
189
170
162
173
189
181
195
188
181
194
159
153
157
130
126
121
148
144
145
143
142
137
131
131
119
150
148
144
162
159
165
156
154
163
154
153
162
139
139
141
118
119
112
110
113
101
114
116
107
115
118
107
107
111
101
107
109
103
92
94
89
71
73
67
67
69
63
228
221
231
202
194
203
189
182
192
186
178
189
173
166
174
174
168
173
162
158
162
152
148
149
140
138
135
130
130
119
140
140
133
152
151
150
147
148
144
137
138
132
135
137
132
127
128
122
123
125
118
125
126
120
111
113
104
91
94
85
81
83
78
77
79
74
70
72
67
65
67
62
180
173
185
194
185
202
198
188
204
184
175
187
185
176
187
191
182
193
185
177
187
184
176
187
187
179
190
176
173
181
169
168
171
146
146
143
138
140
131
133
135
125
128
129
121
116
118
111
107
110
101
99
101
94
89
92
83
84
87
78
79
82
75
74
77
70
68
71
61
63
66
56
133
132
134
158
154
162
167
161
173
189
184
195
197
192
199
195
189
196
189
183
189
170
163
171
202
193
207
179
175
185
164
163
168
150
149
149
137
138
134
122
118
109
118
96
80
105
104
93
106
111
102
109
112
103
96
99
90
83
86
77
77
80
72
74
77
68
70
74
60
64
68
53
94
93
96
89
89
89
99
100
97
145
145
144
168
167
167
180
177
179
162
156
161
137
135
139
147
145
146
149
149
147
156
157
158
136
138
134
119
121
116
111
111
104
109
106
97
121
123
117
123
123
116
90
90
85
72
72
67
78
80
70
79
81
71
76
78
70
64
67
56
54
59
43
70
66
77
42
37
46
41
36
43
48
44
49
73
72
73
100
99
101
94
91
97
124
120
124
125
125
122
134
134
134
151
153
152
124
127
121
114
116
110
109
111
107
127
128
126
128
128
126
70
69
69
36
34
38
33
32
37
65
66
60
75
77
62
64
66
52
56
58
44
53
54
41
61
58
63
40
38
41
30
27
26
56
51
55
144
137
144
158
152
159
142
134
146
207
200
211
191
184
192
147
145
145
128
131
125
118
121
112
108
112
101
116
118
110
137
139
136
76
75
78
25
23
23
16
13
13
27
23
28
55
57
53
65
68
53
58
61
44
59
61
41
54
54
37
55
52
60
47
45
49
45
44
44
69
64
70
182
172
181
208
197
204
199
187
199
199
193
201
202
194
200
147
145
143
119
123
115
116
119
108
106
109
100
130
132
128
107
110
110
47
46
51
31
30
28
34
35
32
16
13
16
47
50
45
64
68
51
54
56
38
41
43
27
30
34
16
79
79
80
147
145
147
199
195
200
177
172
177
159
150
162
161
153
162
125
117
128
185
177
189
210
203
209
127
125
118
115
117
109
112
115
105
110
113
105
128
129
129
74
74
81
37
34
43
77
77
83
81
85
93
35
32
37
46
48
42
46
51
36
30
36
17
33
39
13
44
50
15
83
87
87
140
139
139
204
198
203
226
222
227
146
144
149
91
92
93
93
93
94
134
130
137
150
147
150
120
118
115
123
125
116
110
113
103
113
116
107
99
100
103
59
57
69
62
59
69
116
112
117
107
108
119
62
61
68
44
42
32
40
43
17
45
49
15
54
56
19
53
61
16
107
98
104
111
102
101
106
98
98
108
103
107
114
108
118
116
112
120
129
124
129
148
139
147
134
129
135
117
119
115
121
125
119
107
111
103
108
111
104
75
75
85
49
46
57
93
88
96
131
124
124
149
146
153
78
78
72
39
45
15
58
61
23
67
66
25
64
71
22
59
72
20
71
61
59
71
61
44
74
61
50
58
51
39
65
61
63
104
100
102
118
110
113
139
129
136
142
133
141
127
125
132
122
122
126
101
103
95
78
80
80
62
62
75
40
37
43
79
74
79
107
104
104
163
157
168
69
73
51
55
62
20
69
72
31
63
73
24
61
76
22
69
79
30
38
34
19
54
41
14
58
49
14
55
50
25
37
39
27
44
43
30
61
55
42
68
66
47
75
73
59
112
108
107
99
96
91
57
58
47
53
53
61
64
63
76
32
32
36
52
52
55
112
111
121
119
117
129
51
59
25
72
75
27
82
82
34
69
79
24
53
75
15
60
78
21
55
57
24
47
39
16
51
39
8
61
55
34
39
42
32
23
30
13
25
32
15
31
33
15
31
33
17
44
43
33
43
42
32
28
32
16
49
50
52
60
57
69
28
28
31
41
42
41
106
105
118
58
56
50
84
80
40
88
88
38
68
84
26
63
84
20
66
85
20
76
88
34
