P3 24 24 255
121
118
115
100
98
97
95
94
95
100
101
102
101
101
103
103
104
105
102
103
104
91
92
93
121
120
124
159
158
163
166
166
170
175
175
178
175
174
176
174
171
174
172
169
172
165
162
164
151
148
150
133
131
132
119
117
119
129
127
130
150
147
150
156
151
155
155
150
154
161
156
160
74
74
76
85
85
87
106
106
110
138
137
141
159
157
160
164
165
166
108
111
111
95
95
96
140
140
143
181
180
184
167
165
169
156
153
156
153
151
154
155
151
155
141
136
141
124
118
123
124
119
123
139
135
139
156
151
155
168
162
167
174
168
173
176
171
176
179
174
180
182
177
182
76
76
78
108
108
110
164
164
166
175
173
176
179
175
179
169
170
172
116
118
120
95
95
97
122
122
124
141
140
142
122
120
123
119
114
118
133
128
132
152
147
151
156
152
155
160
156
159
167
164
168
175
172
176
180
176
179
179
173
176
176
170
173
171
166
173
161
156
163
147
142
147
76
76
78
80
80
82
125
125
127
159
157
160
149
145
149
150
153
154
127
131
132
101
101
103
114
114
117
125
125
128
143
141
145
162
159
163
172
166
171
175
168
173
173
170
174
173
173
176
172
173
175
164
165
166
152
151
153
145
142
145
149
143
148
147
141
148
132
127
134
125
120
125
75
75
78
77
77
79
84
84
86
104
102
105
125
122
125
153
157
158
161
165
166
131
132
134
146
147
151
173
173
178
172
171
176
175
174
179
178
170
177
176
168
175
170
167
172
156
157
161
131
134
135
115
114
114
106
109
109
111
112
115
152
147
153
160
155
162
161
156
163
168
163
168
76
76
78
78
78
80
78
78
79
81
80
82
138
137
140
176
181
182
179
184
185
159
162
163
140
143
146
158
160
164
168
168
173
155
153
158
149
145
151
149
144
150
121
120
125
112
114
118
148
147
150
166
159
160
97
98
98
98
101
104
151
148
154
178
173
180
176
171
177
172
167
173
77
77
79
78
78
79
77
77
79
77
76
78
89
89
91
150
156
156
180
187
187
179
183
184
178
181
185
168
170
175
160
160
165
128
127
133
125
124
130
146
145
151
141
141
146
156
156
162
190
182
188
169
153
155
94
92
92
93
96
99
137
136
143
167
162
169
168
163
169
159
155
160
78
77
77
79
77
78
72
70
70
58
56
58
52
52
55
101
106
108
198
207
209
209
219
223
222
229
235
212
217
223
185
189
194
156
159
163
166
169
173
169
172
176
175
176
182
151
152
160
127
120
127
120
107
108
78
78
81
107
112
116
166
165
168
183
175
178
170
165
167
138
137
139
77
75
75
79
76
76
75
72
72
50
48
48
35
33
36
75
78
83
202
212
218
207
222
229
209
221
229
214
223
230
218
226
231
169
175
179
158
162
166
163
168
172
167
172
178
176
180
190
167
168
176
120
118
124
124
127
135
199
197
201
235
222
219
237
214
214
187
173
173
150
150
149
78
77
78
81
80
81
78
77
78
57
53
54
39
31
34
57
56
61
190
198
205
202
216
225
201
212
220
206
215
222
208
216
222
196
201
207
171
178
183
161
168
174
174
181
188
197
203
212
177
184
193
137
143
154
166
165
176
181
164
169
174
141
138
170
133
135
157
136
136
153
150
147
74
75
77
77
77
80
75
75
78
58
55
57
41
31
34
41
39
44
171
177
186
195
207
217
179
190
198
185
194
201
169
177
185
172
177
186
184
191
199
179
188
195
173
182
189
180
189
196
146
155
161
141
149
154
109
110
118
89
75
82
124
98
102
159
139
138
168
159
156
166
165
161
68
70
75
76
78
83
93
95
100
58
57
61
28
21
26
87
86
91
195
201
208
170
181
189
144
154
161
160
169
177
159
167
177
159
164
175
167
173
184
181
189
199
192
200
209
192
200
208
154
162
165
115
121
119
69
74
76
106
106
114
164
162
170
166
172
169
154
161
155
128
130
126
80
85
91
102
106
112
135
139
145
82
85
91
53
53
60
156
160
166
193
201
204
182
193
196
179
189
195
188
197
205
188
195
206
190
194
208
161
165
179
149
153
167
203
208
219
214
218
228
181
186
193
107
112
115
109
113
116
179
182
186
160
164
168
116
120
121
80
82
83
51
50
52
111
116
123
100
104
109
124
129
136
149
156
163
145
152
160
183
192
199
188
198
201
198
206
208
201
210
215
205
216
220
197
206
214
176
183
193
193
199
208
160
163
174
177
179
189
215
218
228
201
206
217
177
182
194
198
200
208
189
190
192
80
77
77
49
43
47
42
37
42
41
37
41
141
145
153
106
108
114
139
143
150
171
178
188
174
183
193
188
199
210
195
204
213
208
212
219
211
216
224
211
223
226
215
223
232
172
182
189
178
192
194
171
177
184
157
160
169
195
201
210
209
216
227
216
220
234
208
215
223
111
114
117
38
34
35
53
49
51
53
51
53
45
41
44
168
172
179
129
131
136
133
136
143
128
134
143
169
175
187
175
184
199
186
196
211
205
211
225
206
210
224
197
206
215
196
199
217
191
196
216
149
166
175
166
181
190
179
189
199
180
190
199
199
208
218
209
217
227
171
180
188
106
111
117
67
67
72
127
127
128
106
106
106
52
50
51
108
110
115
100
101
106
90
92
97
71
73
78
85
91
94
105
113
122
119
129
139
134
144
153
153
164
171
157
173
173
168
176
187
183
191
209
160
180
191
150
170
181
172
189
202
184
198
209
202
215
222
209
221
227
190
200
208
171
178
188
133
138
147
112
117
119
68
71
71
49
49
49
48
48
52
43
44
49
39
38
43
31
31
31
20
24
20
25
28
29
33
38
40
54
62
62
70
85
80
83
106
90
104
119
113
125
137
140
148
167
171
157
176
187
164
182
197
174
191
203
180
195
203
169
182
190
175
185
195
189
199
210
170
180
191
127
136
141
61
67
70
65
67
68
41
39
42
31
32
36
22
21
24
23
21
21
23
24
22
16
13
16
27
24
26
56
57
53
41
49
41
48
64
42
51
57
43
53
56
51
78
87
84
125
136
145
158
173
190
171
187
202
176
191
202
166
181
193
163
174
186
169
181
193
174
190
200
170
182
191
139
146
154
143
146
151
36
33
34
24
24
26
25
23
24
23
20
19
20
20
24
47
41
49
68
60
66
64
59
60
57
55
54
59
63
50
73
69
60
77
71
69
78
78
74
90
95
99
93
103
115
135
146
159
174
186
197
185
199
211
171
183
195
149
163
174
166
184
193
172
186
197
167
177
188
168
173
182
24
19
22
21
18
19
24
20
19
23
20
18
56
55
57
114
111
114
100
97
99
70
67
68
65
64
65
62
62
60
69
67
66
62
61
60
61
61
59
56
58
57
31
34
34
54
58
58
99
105
107
144
154
161
175
186
194
173
186
196
179
193
204
176
190
201
171
185
197
169
179
189
25
20
24
28
23
24
30
26
25
34
31
28
49
49
43
58
58
54
55
53
51
42
41
40
35
34
29
33
32
27
31
30
25
31
30
25
33
32
25
33
32
25
36
35
27
37
35
28
37
37
33
58
61
64
124
130
136
171
180
190
182
193
206
185
199
212
175
191
203
176
187
196
44
41
36
51
48
43
59
55
49
67
65
56
57
58
45
45
44
35
35
34
29
28
27
24
29
25
23
33
29
26
36
31
29
38
33
30
38
34
30
41
36
32
39
35
30
40
35
31
38
34
30
33
30
30
45
45
50
107
111
121
158
166
179
179
191
204
186
200
210
175
187
193
68
66
52
69
67
54
74
72
59
65
64
51
47
48
36
36
35
27
37
36
33
48
46
46
55
50
55
51
45
51
44
38
44
35
29
34
32
26
31
32
26
30
32
27
30
32
26
30
32
26
28
35
30
28
32
30
31
49
49
56
115
117
127
148
155
165
174
183
192
181
190
195
