P3 24 24 255
183
202
226
180
204
228
178
206
228
180
207
229
179
206
230
175
201
227
173
202
227
178
205
227
182
203
223
173
189
207
143
151
168
103
106
122
76
73
87
58
52
64
54
49
57
55
49
57
53
45
54
55
45
54
59
49
58
62
52
61
64
55
65
63
53
64
64
58
70
92
96
110
190
210
234
190
212
236
190
213
236
191
213
235
190
212
235
186
208
232
183
204
225
174
190
207
142
147
162
96
92
104
64
55
67
49
38
49
49
36
46
58
43
53
58
44
54
57
43
53
55
40
50
56
40
50
62
44
52
65
48
56
64
48
56
61
46
54
58
46
54
51
44
53
146
155
173
150
160
177
154
165
180
154
165
178
153
163
177
149
159
173
126
133
146
88
88
100
64
54
65
55
37
48
53
36
46
53
37
47
53
37
47
54
38
48
55
39
49
54
38
48
50
34
44
52
36
46
56
40
50
58
43
53
59
43
53
56
43
52
57
45
53
60
47
55
80
81
94
78
79
92
76
78
89
71
73
80
66
65
73
64
57
67
56
47
57
53
43
53
55
40
51
55
37
48
50
33
44
45
29
39
40
24
34
42
26
36
50
34
44
48
32
42
44
28
38
45
29
39
52
36
46
54
37
47
54
38
48
54
37
46
56
39
47
57
41
48
163
169
187
157
162
180
150
158
172
142
149
160
128
129
142
95
90
105
68
58
70
56
44
53
47
34
46
46
33
45
49
34
44
47
31
40
40
24
34
43
27
37
49
33
43
49
33
43
45
29
39
46
30
40
52
36
46
53
37
47
53
37
47
55
39
47
60
43
50
58
42
51
198
215
238
196
213
236
198
217
238
195
214
234
194
208
229
184
194
216
160
162
181
122
120
134
88
86
101
67
65
79
53
41
52
46
30
40
43
27
37
47
31
41
51
35
45
49
33
43
48
32
42
50
34
44
53
37
47
55
39
49
54
38
48
53
39
48
54
42
51
53
45
56
190
211
231
189
210
230
190
211
232
190
211
233
189
210
233
192
212
235
193
210
234
190
204
228
181
192
212
159
168
185
76
67
79
45
29
38
45
29
39
50
34
44
51
35
45
49
33
43
50
34
44
50
34
44
49
33
43
50
34
44
49
33
43
79
69
78
97
95
105
107
110
123
194
214
233
193
213
232
193
213
232
193
213
235
191
212
233
188
209
231
188
209
234
191
210
237
194
211
234
185
198
218
84
79
90
47
33
41
44
29
38
50
34
44
51
35
46
49
33
45
51
34
46
49
32
44
51
32
44
51
33
45
50
32
43
131
126
137
184
193
207
184
196
211
193
212
234
192
211
233
192
211
232
192
211
232
191
211
232
191
210
232
191
210
233
193
210
235
195
210
234
187
200
222
129
131
145
108
104
115
72
66
79
63
55
68
63
54
67
66
56
69
61
52
65
57
46
59
54
42
55
52
41
54
49
41
52
134
139
154
196
213
232
190
207
224
194
212
233
193
211
231
192
210
230
193
211
231
192
210
231
193
211
231
192
210
232
192
211
232
195
212
231
195
210
228
194
206
223
192
201
219
175
182
201
150
155
173
126
128
141
133
135
147
141
143
155
148
150
163
136
142
156
130
138
151
125
135
147
163
177
193
194
211
231
191
208
228
197
214
233
196
213
232
195
212
232
196
213
233
195
212
232
194
211
231
196
213
232
197
214
231
195
210
225
195
207
222
198
209
223
189
198
213
167
174
189
150
155
170
131
132
147
136
136
151
148
148
163
191
193
209
194
203
220
184
195
212
190
203
219
192
206
222
196
209
227
193
207
227
199
215
234
198
214
233
198
214
232
197
213
231
197
212
231
196
211
230
200
214
231
200
211
225
198
207
220
201
208
220
207
210
219
198
199
208
171
169
179
159
155
166
162
155
171
190
183
199
192
184
200
183
177
194
149
148
166
165
166
184
204
207
224
203
208
223
204
210
225
193
202
219
200
216
233
197
213
230
199
215
232
199
215
231
197
213
230
196
212
229
200
210
226
201
206
218
206
209
220
211
212
222
215
215
225
203
201
211
198
193
205
211
204
217
219
214
226
220
216
227
182
177
189
164
159
171
169
164
176
208
205
217
221
221
232
219
218
228
219
217
227
206
209
223
206
219
233
205
218
232
207
219
233
207
217
232
209
219
234
207
216
231
204
209
222
209
208
220
211
210
221
211
209
219
212
211
224
186
185
199
162
159
173
158
155
169
185
184
194
214
213
223
194
192
203
211
209
219
222
219
228
224
222
230
222
222
230
221
219
226
221
217
225
215
214
225
213
219
230
214
221
232
221
225
237
228
227
240
229
229
242
220
219
233
212
211
223
220
218
229
214
212
223
204
202
213
207
205
218
202
201
214
189
187
201
169
167
181
168
165
178
206
202
216
210
206
220
201
198
211
203
200
211
221
218
229
228
225
236
227
224
235
225
223
233
220
218
229
217
217
229
216
217
229
221
221
233
227
225
238
226
223
236
215
213
226
209
206
218
215
213
224
213
211
222
206
204
215
211
209
221
213
211
224
218
216
229
228
226
239
224
220
234
197
193
207
158
154
168
139
136
149
142
139
150
201
198
209
229
226
237
224
222
233
218
216
227
221
219
230
219
215
229
218
215
229
219
216
230
220
218
231
219
217
230
212
210
223
207
205
217
207
205
216
207
205
216
207
205
216
213
211
224
209
207
220
202
200
213
200
198
211
202
198
212
200
196
210
183
179
193
182
179
192
185
182
193
210
207
218
220
217
228
217
215
226
214
212
223
213
211
222
217
213
227
219
215
229
220
217
231
221
219
232
218
216
229
211
209
222
206
204
216
206
204
215
207
205
216
206
204
215
214
212
224
194
192
205
170
168
181
153
151
164
158
154
168
190
186
200
176
172
186
163
159
172
169
166
177
207
204
215
220
217
228
216
214
225
215
213
224
214
212
223
217
216
228
215
214
227
216
214
227
217
215
228
213
211
224
212
210
223
210
208
220
208
206
217
208
206
217
207
205
216
213
211
224
214
212
225
211
209
222
207
205
218
208
204
218
216
212
226
200
196
210
161
157
170
147
144
155
198
195
206
227
224
235
221
218
229
216
214
225
215
213
224
223
224
237
219
220
232
216
216
229
217
215
228
216
214
227
216
214
227
215
214
225
216
214
225
215
213
224
211
209
220
213
211
223
219
217
230
228
226
239
234
231
244
219
215
228
184
180
194
158
154
168
146
142
155
188
185
196
228
225
236
233
231
242
229
227
238
221
219
230
219
217
228
230
229
243
224
223
237
224
224
237
220
220
232
212
211
223
206
206
218
205
203
215
205
202
213
210
208
219
211
209
220
214
212
223
215
213
224
215
213
224
218
216
227
206
204
215
185
183
194
189
186
198
195
193
204
215
213
226
222
220
233
226
224
237
229
227
239
229
227
238
227
225
236
234
233
247
225
224
238
222
222
235
217
217
229
208
208
220
201
201
213
199
198
210
200
198
209
205
203
214
209
207
218
214
212
223
194
192
203
172
170
181
162
160
171
169
167
178
207
205
216
215
213
224
221
219
230
221
219
231
218
216
228
218
216
228
221
219
231
227
225
236
229
227
238
235
234
248
230
229
244
223
222
236
224
224
236
223
223
235
211
211
223
204
202
214
206
204
214
205
203
214
209
207
218
213
211
222
201
199
210
184
182
193
162
160
171
159
157
168
197
195
206
172
170
181
176
174
185
193
191
201
214
212
223
218
216
227
220
218
228
225
223
234
228
226
236
233
232
246
231
230
244
226
225
238
225
225
237
226
226
238
222
222
234
217
216
228
216
214
225
213
211
222
214
212
223
216
214
225
219
217
228
220
218
229
219
217
228
213
211
222
213
211
222
187
185
196
163
161
172
145
144
153
179
178
186
218
217
225
223
221
231
224
222
233
228
226
237
