P3 24 24 255
120
117
125
121
118
126
123
120
128
125
121
128
125
120
127
122
119
126
121
118
127
121
118
127
121
118
127
121
118
127
120
117
126
119
117
127
117
115
126
118
116
127
117
115
126
117
115
126
116
114
125
115
115
125
115
115
125
116
114
125
115
113
124
114
112
124
116
113
124
115
113
124
124
120
128
124
122
128
125
122
129
127
122
130
125
122
130
123
121
128
123
120
129
123
120
129
123
121
129
122
121
129
121
120
128
121
119
128
120
118
129
121
119
129
120
118
129
120
119
129
121
119
129
121
119
129
120
119
129
119
117
127
117
115
126
118
116
127
118
115
126
116
114
125
126
123
131
126
123
130
126
123
131
126
123
132
126
124
132
125
124
132
125
124
132
123
123
131
124
123
131
124
123
131
124
123
131
126
123
132
127
124
133
126
123
132
124
123
131
124
123
131
124
123
131
124
123
131
122
122
130
121
120
130
121
119
130
120
118
129
126
125
137
127
127
139
127
125
133
128
125
134
128
125
133
128
125
134
128
126
135
128
126
134
128
127
135
128
127
135
129
127
135
130
127
135
131
128
136
132
128
137
131
128
136
129
126
135
127
126
134
127
126
134
126
125
133
125
124
132
124
124
132
124
123
132
125
123
133
124
123
134
94
99
110
77
83
94
130
128
135
131
128
135
131
128
135
131
128
136
131
128
137
132
129
138
132
130
137
133
130
137
134
131
138
135
131
138
137
132
139
137
131
139
134
130
138
132
129
138
129
128
136
129
128
136
129
128
136
128
127
135
127
127
135
126
125
133
125
126
136
123
124
136
64
71
79
57
65
69
133
131
138
134
130
138
134
131
138
133
130
139
134
131
140
135
132
141
136
134
141
137
133
140
138
134
141
140
135
142
140
135
142
139
134
141
137
134
141
134
133
141
131
130
140
130
129
139
130
129
139
130
129
138
129
130
139
127
129
139
125
127
139
126
127
136
106
106
102
118
117
112
135
133
139
135
133
140
136
133
140
137
134
141
137
134
141
137
134
141
140
137
143
141
137
143
142
137
144
142
137
144
142
137
143
139
135
142
136
134
141
135
134
142
133
133
143
133
133
143
137
137
147
137
138
148
130
133
142
132
135
143
135
133
141
127
124
127
134
124
114
127
121
118
136
135
141
136
135
141
137
136
142
138
136
142
139
136
143
137
134
141
129
124
130
147
141
147
145
139
146
145
140
146
147
144
149
154
152
158
154
151
159
148
147
155
139
139
147
137
137
145
116
117
127
114
117
127
121
125
134
133
135
144
141
139
149
115
116
122
84
86
85
82
85
87
137
136
143
138
137
144
139
138
145
140
137
144
141
138
145
140
138
145
113
112
117
147
143
149
149
141
148
148
144
150
136
133
140
70
71
72
70
74
71
103
106
109
128
130
140
118
120
127
115
112
115
107
106
112
96
97
107
84
94
102
92
95
103
98
102
107
91
98
107
39
44
46
136
137
145
137
138
146
139
139
147
140
139
146
141
140
146
143
142
147
107
105
107
148
147
154
141
139
147
142
141
146
95
97
101
22
30
21
43
54
34
21
30
21
78
82
76
130
123
129
125
119
122
143
140
137
122
121
120
124
111
113
139
135
135
129
130
126
87
97
100
46
52
49
134
138
147
136
139
148
137
139
148
139
140
148
139
140
148
142
143
151
93
94
99
129
131
138
132
133
139
112
112
117
65
71
69
25
39
27
63
77
51
36
47
35
34
47
41
105
108
108
142
122
123
171
160
152
133
124
121
117
100
98
79
84
78
78
78
72
28
35
33
58
62
58
134
138
149
135
138
149
135
139
149
136
139
148
136
140
148
141
145
154
105
109
116
119
124
131
170
172
176
101
104
109
74
79
79
23
33
26
43
55
36
31
42
32
28
39
28
43
54
53
37
47
47
49
53
45
27
36
35
2
17
12
15
23
21
53
52
51
106
102
102
149
143
142
133
137
148
133
138
149
134
138
149
134
139
149
134
140
150
133
138
146
95
95
96
79
89
96
62
72
78
52
64
67
48
59
61
26
36
28
41
52
38
33
44
33
27
36
30
31
40
33
13
18
17
14
20
21
45
51
48
89
86
85
136
130
131
158
152
152
163
155
156
153
147
148
131
136
148
131
137
148
132
139
149
134
139
150
136
140
151
136
141
151
90
93
94
36
42
42
15
22
22
18
25
23
16
23
23
28
37
29
23
30
24
21
28
25
24
32
27
31
37
30
97
100
101
135
134
139
156
152
158
161
155
159
158
150
154
151
146
149
148
142
144
150
144
146
132
137
149
133
138
150
134
140
150
136
141
151
138
142
153
142
146
157
108
109
117
77
80
82
64
68
67
63
67
64
90
95
94
44
49
44
23
26
24
19
23
24
21
29
24
19
24
20
122
123
127
151
151
156
146
143
149
148
142
147
150
144
148
150
143
147
150
144
147
150
144
146
135
139
150
136
140
151
137
141
151
138
142
152
138
142
153
139
143
154
116
117
121
123
126
132
154
156
168
148
151
159
132
135
140
58
63
66
29
36
33
19
26
20
28
35
33
71
76
77
135
136
144
143
143
150
146
143
149
150
145
150
150
144
149
149
143
148
148
143
148
148
142
147
136
140
151
137
141
151
137
141
150
138
142
153
137
141
152
139
143
154
131
134
140
111
115
122
140
143
156
122
127
135
37
43
35
33
36
36
57
60
63
96
99
104
132
134
142
154
158
166
143
146
156
144
143
152
146
143
149
149
144
150
149
144
150
148
143
149
147
142
148
147
142
148
136
140
151
136
140
151
137
141
151
137
141
151
138
142
152
138
142
154
133
137
147
115
120
127
141
145
156
144
148
157
141
147
149
142
146
152
152
154
165
152
154
167
144
147
158
138
141
151
138
142
151
142
142
150
145
142
149
146
143
149
146
143
148
145
143
148
145
142
148
144
141
147
136
140
151
137
141
152
137
141
152
137
141
150
138
142
152
138
142
153
138
143
152
135
139
147
141
145
156
139
143
154
143
146
159
142
146
158
139
143
154
137
141
152
138
142
151
139
143
152
138
142
151
139
143
150
142
142
150
142
142
149
142
142
149
141
141
148
141
141
148
139
140
147
136
140
151
137
141
152
137
141
152
137
141
151
138
142
152
138
142
153
139
143
153
141
145
154
139
143
154
139
143
154
139
143
154
139
143
153
139
143
154
139
143
154
139
143
152
138
142
151
137
142
151
137
142
151
138
142
149
138
142
150
138
141
150
138
140
149
138
141
150
136
140
149
136
140
151
137
141
152
137
141
152
137
141
151
138
142
152
138
142
153
138
142
152
139
143
153
139
143
154
139
143
154
140
144
155
140
144
155
140
144
155
139
143
154
139
143
152
138
142
151
138
142
151
138
142
152
138
142
150
137
141
149
137
140
149
138
141
150
138
141
149
136
140
148
136
140
151
136
140
151
137
141
152
137
141
151
138
142
152
137
141
152
139
143
153
138
142
153
139
143
153
139
143
154
139
143
154
139
143
154
139
143
154
139
143
154
138
142
151
137
141
150
138
142
151
138
142
152
138
142
151
138
141
150
137
140
149
136
139
148
137
140
148
136
140
147
136
140
151
136
140
151
137
141
152
137
141
152
137
141
152
137
141
152
137
141
152
138
142
153
138
142
153
139
143
154
139
143
154
139
143
154
139
143
154
139
143
154
138
142
151
138
142
151
138
142
151
138
142
151
138
142
151
137
141
150
136
140
149
136
140
149
136
140
149
135
139
148
136
140
151
136
140
151
137
141
152
137
141
152
137
141
152
137
141
152
137
141
152
138
142
153
138
142
153
138
142
153
138
142
153
138
142
153
138
142
153
138
142
153
138
142
151
138
142
151
138
142
151
137
141
150
137
141
150
137
141
150
136
140
149
136
140
149
136
140
149
135
139
148
