P3 24 24 255
207
227
250
210
227
251
213
231
252
215
233
251
218
236
251
221
238
253
223
240
253
223
242
254
223
243
254
221
241
252
222
240
250
179
195
203
193
210
217
227
244
253
209
223
235
193
206
220
221
240
250
220
241
249
222
243
251
221
242
251
221
242
251
223
244
253
218
240
251
215
238
251
212
231
253
216
232
255
219
235
255
218
235
252
221
238
253
223
241
253
224
243
252
225
244
254
225
244
254
223
242
252
225
243
252
187
201
207
192
205
212
232
244
253
212
223
236
188
200
213
222
240
248
225
245
250
225
244
250
223
242
249
223
242
249
225
242
251
222
240
251
217
238
250
212
232
253
216
232
255
218
235
255
220
237
254
223
241
255
225
242
254
227
243
252
229
244
253
228
243
251
225
240
249
227
240
249
190
197
205
183
190
200
231
240
251
211
223
235
175
189
201
218
233
242
208
224
231
215
231
238
230
245
254
226
242
251
225
242
251
221
240
250
216
237
250
213
233
253
217
233
255
218
235
255
221
238
255
224
242
255
227
243
253
230
243
251
232
245
253
233
246
252
231
245
251
221
230
238
166
164
175
142
142
155
206
212
223
212
223
234
164
179
191
216
229
239
207
220
229
209
222
231
232
245
254
227
240
249
223
239
249
217
236
246
213
235
247
215
234
254
219
235
255
220
237
255
221
238
255
225
242
255
229
244
254
234
245
252
235
247
253
235
247
253
231
244
250
199
207
215
137
133
145
121
119
131
174
179
191
190
201
214
146
158
170
201
212
222
219
230
238
209
221
229
238
250
255
232
245
253
228
244
253
222
240
250
217
237
249
216
234
252
220
236
253
222
238
254
222
239
254
225
242
255
231
244
254
235
244
253
234
245
254
231
243
254
225
240
252
209
222
237
182
187
200
164
165
171
210
221
231
159
171
186
88
86
98
162
167
174
220
231
237
202
214
220
231
245
249
225
240
245
225
239
246
229
241
248
233
245
254
219
237
253
221
237
253
223
239
255
224
240
255
225
241
255
228
242
255
230
243
253
228
242
254
223
240
253
217
237
252
211
230
247
198
207
222
168
170
176
224
236
247
169
180
199
86
79
92
154
156
165
217
228
237
195
207
215
219
233
241
207
224
231
194
209
218
209
222
232
230
243
253
215
232
247
209
225
241
208
224
240
205
221
237
199
215
231
203
218
233
214
228
240
218
233
247
217
235
250
206
226
243
201
221
240
186
194
212
151
152
161
212
223
236
166
177
199
94
87
104
144
145
160
209
219
233
188
200
213
212
226
239
183
199
212
202
219
233
210
228
243
215
234
248
216
234
250
218
234
250
218
234
250
215
231
247
206
223
239
196
208
224
152
158
176
127
134
153
185
195
215
203
215
238
203
216
242
175
182
204
140
141
152
176
187
204
148
158
183
86
78
98
130
130
151
199
207
228
175
185
205
185
197
217
175
190
208
213
234
252
208
231
250
209
232
250
214
230
246
209
224
239
198
212
228
181
195
211
172
187
205
129
136
156
61
58
80
39
38
61
67
69
93
124
128
153
196
202
229
178
182
205
138
139
153
164
173
194
167
176
203
92
87
109
121
123
145
186
194
217
147
157
179
160
171
194
176
190
211
207
228
250
203
230
252
205
232
254
126
137
152
97
105
119
57
65
82
38
46
66
37
45
68
32
37
58
31
32
49
23
25
42
6
9
26
20
23
40
131
133
150
121
120
137
101
101
118
160
165
186
156
164
188
75
82
105
106
114
132
179
188
204
152
161
180
175
184
205
146
156
178
193
212
238
198
223
252
198
225
252
176
185
205
143
150
170
82
89
108
30
37
55
23
30
47
31
37
51
37
41
52
33
37
48
25
29
40
32
35
46
79
82
93
63
64
75
63
66
78
101
105
119
85
92
108
60
68
85
87
95
113
146
153
173
142
148
171
153
159
185
124
130
159
166
190
221
180
212
244
187
217
250
116
125
150
69
74
101
51
57
78
41
47
64
22
29
40
20
26
36
35
38
49
22
26
36
12
15
26
12
15
26
6
10
20
4
9
19
27
32
42
31
36
46
19
24
33
52
57
68
77
81
100
109
112
135
105
108
133
118
120
149
131
135
165
156
178
208
174
206
235
190
219
251
85
94
114
24
30
50
10
16
34
23
29
47
11
18
34
14
19
36
30
33
51
24
26
44
14
16
34
12
15
33
29
33
51
36
44
62
48
54
71
52
56
71
41
42
55
67
68
80
75
76
89
94
95
111
103
104
123
83
83
105
88
88
112
111
119
143
134
148
173
160
177
206
147
156
173
76
83
99
58
65
85
48
54
77
55
60
86
53
57
83
59
62
85
66
68
92
56
58
82
52
54
78
82
86
110
100
111
133
104
113
134
89
96
115
77
80
98
105
106
122
104
106
118
83
85
96
80
80
92
69
67
80
62
58
72
77
70
87
98
92
111
111
115
136
143
159
184
87
99
127
77
90
119
68
80
109
66
75
103
64
75
99
62
75
95
64
75
96
68
77
99
74
80
102
75
83
104
75
91
106
84
103
119
91
109
128
103
121
143
125
143
168
147
164
192
150
164
190
131
140
162
70
72
90
60
58
73
61
52
70
76
66
81
86
84
96
148
174
202
67
91
117
55
76
100
53
72
93
45
62
82
45
62
82
46
62
82
45
59
80
51
62
85
64
72
95
67
75
97
68
79
96
78
89
107
90
101
122
105
115
139
124
135
161
149
163
193
176
192
222
178
194
223
94
109
138
68
82
110
75
81
105
50
51
68
63
66
80
177
198
232
89
102
131
56
59
80
53
51
67
44
43
61
37
37
51
34
32
39
32
28
35
37
30
38
44
34
43
45
33
42
47
33
40
55
38
46
68
48
57
87
63
73
115
92
101
142
128
136
168
160
169
183
179
192
157
157
175
144
148
168
150
157
180
93
100
119
99
105
122
185
206
246
102
108
137
23
12
28
24
5
15
21
6
21
14
6
17
9
3
4
12
3
5
18
6
10
23
8
12
24
7
12
25
5
10
28
4
8
35
6
9
46
12
14
69
32
32
102
70
64
140
111
105
154
128
125
149
126
124
153
133
135
166
154
170
145
137
156
127
123
138
165
197
240
132
155
185
37
40
56
17
12
19
23
22
29
19
24
35
18
25
38
21
27
40
27
29
44
34
35
49
36
36
52
36
36
51
40
37
50
48
40
50
57
44
53
72
54
60
92
72
73
118
98
97
131
112
113
142
125
126
149
133
136
160
144
161
154
138
156
113
100
112
150
184
238
154
186
235
109
132
169
38
54
78
28
39
51
29
38
49
29
37
51
26
35
50
34
42
58
40
48
65
42
49
67
43
51
68
48
57
71
53
61
73
56
64
73
61
67
75
79
78
85
99
99
108
118
122
136
133
144
161
146
161
182
161
179
209
167
176
203
131
127
144
142
175
229
145
176
228
150
176
218
96
116
147
36
51
73
26
37
53
25
35
47
40
49
66
61
69
91
55
63
90
46
53
80
46
52
74
49
55
75
52
59
75
53
62
75
56
64
76
68
69
82
82
83
98
101
107
126
121
133
155
140
156
182
155
184
221
167
192
228
149
158
185
126
158
207
128
160
209
137
164
209
141
164
202
98
118
152
46
62
86
30
42
58
55
66
85
92
102
127
86
95
125
70
77
107
64
68
92
60
63
84
59
63
81
65
69
84
74
78
92
80
81
96
87
88
104
101
104
121
118
123
142
135
142
162
144
159
183
153
165
186
119
120
136
119
149
197
120
152
199
122
151
198
129
156
202
133
158
203
95
114
149
42
56
78
57
72
90
113
127
143
106
121
135
85
97
110
76
77
93
65
66
79
60
61
72
58
59
67
58
60
66
52
55
61
48
51
58
56
58
66
73
75
82
75
77
84
88
87
93
108
105
110
95
92
101
