P3 24 24 255
177
193
225
175
194
224
172
193
229
170
187
223
137
143
169
94
86
95
113
92
86
142
111
100
157
126
114
155
122
107
157
122
106
156
118
102
161
121
102
155
129
111
158
153
155
175
185
216
171
187
227
171
188
221
171
187
220
171
187
220
171
187
220
171
187
220
171
187
220
171
187
221
176
193
227
174
194
228
171
192
232
177
193
231
160
162
188
128
116
124
147
121
116
163
130
119
162
128
117
143
107
94
162
125
109
146
107
92
157
113
95
156
120
98
153
133
124
175
173
193
175
189
224
167
189
222
170
187
220
171
186
220
171
187
220
171
187
220
171
187
220
171
187
220
177
193
226
176
192
225
177
192
230
168
176
212
129
121
143
149
125
128
168
135
127
166
130
121
173
136
126
150
112
100
165
125
111
146
105
91
149
108
96
154
115
95
149
117
100
162
145
153
172
177
202
170
189
216
169
186
218
170
185
219
169
185
218
169
186
219
169
185
219
170
185
219
177
193
226
178
191
224
183
191
229
140
139
169
99
84
96
131
102
101
174
139
132
164
128
119
175
139
127
171
134
119
152
114
99
152
114
101
148
110
102
152
114
99
154
116
98
154
126
121
154
143
148
173
179
191
168
185
212
165
185
219
168
185
217
170
183
213
168
184
215
167
184
217
176
193
226
178
193
228
176
182
224
114
109
137
111
96
100
127
102
100
146
113
111
145
110
104
162
129
116
160
127
110
151
118
102
145
111
99
141
106
96
151
115
102
156
118
103
155
120
107
156
126
116
170
155
154
166
179
198
160
184
217
165
182
214
171
179
206
167
181
209
164
182
214
175
193
226
178
196
230
169
178
219
96
93
121
95
82
85
134
112
109
128
97
96
125
90
86
136
102
92
147
113
99
152
118
106
148
115
105
154
126
114
155
125
110
158
122
106
165
128
116
154
118
111
153
129
127
164
165
176
164
180
207
162
178
209
168
176
204
164
178
206
162
180
210
175
193
226
175
195
229
165
176
217
89
89
116
86
76
78
147
128
123
153
123
123
145
109
109
144
109
102
129
94
83
131
96
87
148
114
107
169
137
127
164
131
117
157
121
105
162
125
113
158
126
118
136
110
104
155
143
143
169
178
198
161
176
207
165
175
203
162
176
204
160
177
207
175
194
226
173
194
227
173
187
225
108
111
138
64
56
61
109
90
87
146
118
118
124
91
90
147
114
108
167
134
124
129
95
87
132
97
92
160
124
115
170
133
121
160
123
109
163
130
117
168
141
131
151
127
117
144
126
121
167
169
184
163
176
204
162
174
203
160
175
202
158
175
204
177
194
227
174
192
223
176
194
226
145
156
185
68
65
84
82
63
71
126
99
100
134
106
102
120
91
82
173
142
131
137
103
94
112
75
71
149
116
108
170
139
128
172
142
130
166
136
125
171
142
130
164
136
127
124
105
102
148
142
153
165
174
196
160
176
203
159
175
202
159
174
200
177
193
226
175
192
224
173
192
226
165
179
212
90
92
116
72
58
72
110
85
90
137
107
106
149
116
109
142
105
95
162
119
112
138
94
89
150
114
105
169
139
126
176
145
133
171
140
128
169
138
126
171
140
129
123
99
94
138
128
136
165
172
192
158
174
201
158
174
201
158
172
199
176
192
226
174
193
225
171
193
228
172
191
227
128
136
166
69
64
83
80
61
71
111
85
86
139
108
103
159
121
111
143
98
89
138
90
82
154
115
103
171
137
122
181
147
132
181
147
131
175
141
125
182
147
133
155
124
115
141
126
130
160
164
182
159
175
201
156
173
202
156
171
199
176
192
226
174
193
226
171
194
230
172
194
232
166
179
212
102
104
129
66
56
70
90
72
74
115
91
85
140
107
96
166
125
114
148
103
92
157
118
103
168
132
116
180
143
128
184
147
132
177
140
125
188
151
135
163
129
117
106
87
87
149
149
164
162
176
202
156
173
202
155
171
198
177
193
227
175
192
226
175
193
227
174
192
227
177
193
227
153
165
198
101
106
130
70
63
75
106
86
89
126
93
88
127
86
79
136
94
85
154
112
96
169
128
112
168
127
117
179
140
130
177
140
125
193
158
141
182
148
134
135
106
97
155
146
152
165
177
201
155
173
202
155
170
197
177
193
227
176
192
226
176
192
226
176
192
226
174
190
224
173
189
223
165
179
210
129
134
159
90
82
98
123
98
104
146
111
110
113
72
67
117
74
61
156
113
99
168
125
115
170
130
119
172
135
119
191
157
139
179
144
131
154
120
108
163
149
153
161
172
196
156
172
201
155
169
196
177
193
227
176
192
226
175
191
225
175
191
225
175
191
225
174
190
224
173
190
225
173
190
223
155
162
190
124
119
139
144
125
137
144
114
119
114
73
69
142
98
89
169
128
114
173
135
118
173
136
117
193
158
140
173
135
123
126
89
79
144
127
132
163
171
196
157
170
200
155
168
195
177
193
227
177
193
227
175
191
225
175
191
225
175
191
225
174
190
224
172
189
223
171
189
224
173
190
226
179
191
224
149
150
177
134
122
142
155
118
124
146
101
95
161
120
104
176
138
116
177
140
119
192
156
139
170
131
119
125
86
76
146
127
133
165
171
197
154
165
196
152
164
191
177
193
227
175
191
225
174
190
224
174
190
224
174
190
224
173
189
223
172
191
221
169
190
221
171
187
227
175
185
227
127
129
160
123
118
137
137
114
129
126
87
89
147
101
87
172
130
112
176
139
118
183
144
125
154
118
106
111
82
79
150
138
147
163
166
188
153
160
186
149
158
185
176
192
226
174
190
224
174
190
224
174
190
224
174
190
224
173
189
223
169
185
218
175
188
223
174
179
219
122
119
156
76
67
89
57
47
55
77
70
82
146
127
133
163
128
119
162
122
106
167
126
108
168
128
111
149
115
106
137
119
122
151
150
166
152
160
185
146
156
181
143
152
178
176
192
226
174
190
224
174
190
224
174
190
224
173
189
223
173
189
223
143
150
189
120
116
157
131
124
155
72
61
80
56
41
48
50
34
35
71
68
73
152
154
162
178
164
165
180
143
129
173
127
110
170
129
116
171
135
125
174
156
161
154
159
180
141
157
186
138
152
181
138
148
174
175
191
225
174
190
224
174
190
224
174
190
224
173
189
223
174
190
224
155
158
195
76
67
98
60
50
65
56
45
46
53
38
36
58
40
41
68
56
62
132
137
155
169
166
181
192
153
142
190
142
125
175
134
123
185
142
126
191
169
170
153
159
181
138
155
186
137
149
177
137
144
168
176
192
226
174
190
224
174
190
224
174
190
224
173
189
223
174
190
224
142
147
181
78
72
96
54
44
49
57
44
35
52
38
33
53
37
40
66
48
53
112
105
121
152
141
155
188
146
136
188
140
122
173
132
120
183
135
119
196
163
161
161
156
175
140
152
181
137
149
173
136
143
164
176
192
226
175
191
225
174
190
224
173
189
223
173
189
223
172
188
222
136
146
180
98
98
124
58
48
55
56
39
33
54
38
33
49
37
38
53
39
41
82
69
76
150
128
136
186
145
138
185
137
122
181
137
122
178
129
115
195
150
141
173
153
163
146
155
180
136
153
175
134
147
167
175
191
225
175
191
225
174
190
224
173
189
223
174
190
224
172
188
222
164
179
213
139
146
176
63
58
73
51
37
38
52
38
36
47
36
36
56
49
52
110
108
121
172
162
176
183
149
149
180
132
120
184
139
124
182
136
116
191
143
123
178
150
147
156
159
175
136
155
176
134
150
171
174
190
224
174
190
224
174
190
224
174
190
224
173
189
223
173
189
223
174
193
229
163
178
212
100
101
123
55
44
55
53
40
42
50
42
39
69
71
76
129
139
159
167
170
194
175
148
157
180
130
122
191
145
133
188
152
139
188
141
122
177
138
129
167
156
167
143
153
174
135
148
171
