P3 24 24 255
176
188
197
181
183
192
176
186
194
175
189
199
177
190
199
177
190
199
177
190
199
177
190
199
175
190
199
173
190
198
172
189
197
172
189
196
174
188
196
174
188
199
175
189
199
165
180
188
157
172
184
174
189
202
175
188
202
176
187
201
175
187
200
176
187
201
175
186
200
173
185
198
184
174
180
200
101
110
193
146
152
182
189
206
177
189
200
174
191
199
174
189
198
177
188
199
177
190
204
176
190
202
174
188
198
176
189
194
179
188
192
171
188
210
175
190
197
173
186
184
164
179
189
167
192
201
172
189
204
179
186
198
177
186
197
177
184
199
174
185
196
171
187
195
179
174
172
205
64
58
207
113
115
184
188
205
175
190
203
171
191
201
171
188
199
176
188
202
166
181
198
156
170
183
151
163
169
163
170
170
170
172
169
159
174
188
184
181
172
196
156
144
191
152
164
184
189
196
174
192
203
180
186
198
178
186
196
175
185
199
171
185
197
169
187
198
186
181
174
219
70
51
219
82
83
187
180
194
173
191
204
171
192
203
170
189
200
156
169
184
103
120
136
116
130
141
126
135
137
143
145
138
136
132
120
114
122
118
166
134
104
197
86
66
197
87
102
178
152
159
151
169
174
155
163
175
172
179
189
171
188
199
168
186
200
168
187
203
196
166
164
205
67
47
211
65
64
193
166
178
175
187
197
159
176
183
155
169
177
147
155
166
116
128
138
149
160
165
157
165
164
148
151
142
126
123
108
101
103
91
148
102
63
165
39
16
161
46
58
145
119
126
114
132
136
126
134
145
163
171
182
170
188
199
170
186
198
170
185
198
183
141
139
180
100
83
188
91
81
180
146
149
167
170
174
138
147
149
148
154
157
144
143
147
158
161
160
170
176
174
162
172
170
152
164
158
146
153
141
142
140
133
172
128
90
126
40
9
143
84
92
175
178
187
153
171
181
156
162
175
170
180
192
174
187
202
175
185
194
176
184
186
178
136
135
164
133
120
167
134
114
162
136
127
150
144
137
150
149
141
168
166
160
145
137
131
156
149
136
175
175
166
172
182
178
176
190
187
166
174
165
147
140
135
153
120
89
127
88
56
134
130
129
164
189
194
164
181
191
170
175
183
158
169
176
159
168
181
163
168
174
164
167
161
190
140
150
156
101
97
146
134
116
155
140
126
150
135
115
147
135
118
143
133
113
145
134
107
119
111
81
124
118
101
150
149
140
166
165
158
149
139
128
134
122
108
130
116
91
135
117
90
121
114
100
143
151
146
148
157
157
153
159
155
150
156
148
140
148
143
144
154
153
160
170
173
190
167
178
158
133
127
140
152
137
149
148
146
140
130
130
150
139
129
155
144
111
170
160
113
111
104
78
64
58
45
65
61
51
65
64
51
93
91
86
133
136
131
130
138
127
137
138
126
120
117
110
165
169
172
168
179
190
172
181
195
172
177
180
142
151
140
147
157
154
173
185
192
180
184
195
173
190
185
166
192
187
161
168
177
126
128
139
147
145
144
161
155
129
175
167
128
120
114
104
63
60
57
53
54
45
57
61
43
97
103
99
155
168
168
140
156
153
148
157
155
108
114
110
165
177
180
172
189
207
172
186
213
163
172
182
123
132
122
138
148
146
173
185
192
177
183
198
170
187
194
176
189
199
161
169
174
128
143
137
163
170
172
163
162
163
155
151
147
133
131
133
138
138
143
115
120
116
85
93
76
124
124
113
151
155
146
132
140
130
164
164
159
117
121
109
144
161
150
169
190
195
169
188
200
158
169
171
111
120
109
115
126
123
169
182
189
174
186
198
176
184
199
178
183
200
169
184
188
162
180
177
174
186
196
175
185
200
129
136
145
105
107
111
176
180
188
166
175
177
137
147
138
156
157
146
138
143
132
114
122
114
179
179
177
116
116
110
109
121
115
171
189
193
173
190
195
156
166
163
97
105
95
110
120
117
170
182
189
163
185
190
172
181
195
172
185
197
167
190
197
173
188
202
172
188
203
171
190
199
128
147
148
83
92
96
166
175
184
174
187
195
174
188
189
166
177
171
109
123
116
105
121
120
173
183
190
89
92
100
81
88
98
172
186
200
176
189
199
142
151
149
87
97
86
117
128
125
170
183
190
124
146
148
129
147
152
145
164
168
150
172
176
146
165
174
155
173
182
171
191
197
144
164
169
122
139
147
170
187
197
170
188
198
172
190
197
143
158
153
84
99
88
105
120
115
169
181
189
104
115
123
108
120
130
174
188
202
172
186
195
131
146
141
86
100
86
131
144
141
173
185
194
100
117
118
101
118
118
103
120
121
107
124
125
100
117
120
110
127
130
152
169
172
168
185
190
168
184
192
169
185
193
168
184
192
171
186
193
133
145
140
83
94
82
88
99
91
156
164
170
165
176
181
164
176
182
173
184
196
167
179
186
126
139
132
90
101
89
113
124
120
159
167
176
136
146
145
133
143
142
135
145
144
142
152
151
139
150
149
142
152
152
160
170
169
188
199
198
189
199
201
190
200
203
189
199
202
189
199
201
161
168
164
135
142
132
140
147
138
176
181
183
194
201
203
191
199
202
190
197
206
186
194
198
153
161
154
131
138
128
138
144
141
179
183
189
189
192
188
188
191
187
192
195
191
199
202
197
203
206
201
210
213
208
217
220
215
228
230
226
233
236
234
238
241
239
238
241
239
238
241
239
235
237
234
232
235
225
233
235
225
238
239
236
236
239
236
234
238
237
235
238
243
235
239
239
231
235
227
228
230
222
230
232
228
235
236
238
194
190
184
193
190
183
193
189
183
192
188
180
192
189
179
193
190
180
195
192
182
201
198
189
207
203
197
214
210
204
222
218
212
232
228
223
241
237
235
247
245
237
252
251
238
254
251
245
253
253
247
253
253
249
251
251
253
251
251
248
250
250
242
253
251
245
253
250
246
250
246
245
197
193
188
198
193
187
197
194
188
198
195
186
199
193
182
197
192
181
194
191
181
193
190
181
191
187
179
191
186
178
191
186
178
193
188
181
197
193
190
203
200
193
211
208
197
218
214
208
226
225
218
231
230
225
235
234
233
240
239
234
246
245
238
250
246
243
251
247
245
250
245
243
199
196
191
198
195
189
197
197
191
199
198
190
203
196
186
203
199
190
200
199
193
199
198
193
200
196
190
198
194
188
196
193
186
194
190
184
192
189
183
192
189
183
192
189
182
191
188
181
192
189
183
195
192
186
199
196
190
203
200
194
212
208
203
218
212
210
221
215
214
222
216
215
205
194
177
202
191
174
199
189
172
200
189
174
200
190
178
196
189
178
190
185
177
190
187
180
192
185
177
191
183
175
192
184
176
191
184
175
191
183
174
191
183
174
192
184
176
192
184
176
190
183
174
190
182
174
187
180
171
187
180
171
188
179
172
189
178
173
190
180
175
194
183
178
207
191
159
205
190
159
220
199
169
218
195
171
210
193
177
191
177
162
168
157
144
164
154
142
164
151
137
164
151
137
167
154
140
179
166
152
177
164
150
172
160
146
176
163
149
177
164
150
179
166
152
184
171
157
176
163
149
177
164
150
180
165
152
179
163
150
181
165
152
176
159
147
147
136
97
154
145
106
231
208
173
239
209
182
227
205
182
211
191
171
193
176
158
191
174
157
191
172
152
192
173
153
193
174
154
203
183
163
198
179
159
194
175
155
190
170
150
190
170
150
198
179
159
202
183
163
196
177
156
196
177
157
195
174
154
195
172
152
196
173
153
175
152
132
90
91
54
100
104
66
202
185
155
239
208
182
236
208
182
221
195
171
202
180
158
204
182
161
206
181
157
205
180
156
204
179
155
210
185
161
206
180
156
203
177
154
198
173
149
194
169
145
206
181
157
210
185
161
204
179
154
203
178
154
204
177
152
204
175
149
206
177
150
187
158
131
