P3 24 24 255
114
84
64
106
70
47
131
93
68
136
98
76
171
143
130
208
194
188
208
196
190
207
195
188
210
197
192
207
196
189
213
200
197
213
199
196
209
195
192
214
197
195
212
196
193
213
197
196
214
199
197
211
198
195
216
202
199
213
198
195
214
200
196
215
199
197
214
199
197
216
203
200
114
79
55
131
94
70
151
111
86
139
90
64
113
68
49
141
114
102
192
176
167
209
198
189
207
193
189
175
162
153
203
190
184
213
200
194
208
195
189
212
198
192
210
197
188
211
197
192
212
198
194
210
197
191
216
200
196
214
196
194
216
198
195
217
199
195
215
199
194
215
202
196
99
68
48
140
105
83
138
97
73
142
94
66
125
77
54
93
53
38
118
90
77
197
183
175
215
196
189
154
128
119
151
136
129
208
195
189
207
194
188
210
197
191
189
168
158
198
182
173
212
201
194
210
197
191
215
200
194
213
196
190
214
197
192
216
198
194
214
197
193
213
200
194
106
78
57
143
110
87
133
95
69
133
91
62
133
88
63
119
75
53
98
59
41
111
87
78
180
156
149
109
80
70
87
72
64
180
170
165
206
197
192
196
179
171
153
127
116
189
170
159
203
194
186
200
185
175
203
177
161
201
170
151
210
180
164
218
194
184
214
197
192
213
198
196
102
75
56
116
86
66
122
90
65
141
100
72
136
89
62
128
82
55
130
83
62
88
57
44
108
89
81
79
55
44
60
39
30
110
96
92
143
132
127
137
113
103
105
73
62
136
101
95
145
130
125
147
119
105
178
130
103
185
133
102
192
143
114
206
165
143
210
180
165
211
194
186
92
67
58
147
125
114
149
122
101
147
105
74
144
98
65
135
89
57
141
91
65
117
84
68
102
81
73
99
63
55
96
61
53
112
84
80
103
82
76
109
75
62
114
72
58
123
81
72
110
90
86
125
96
77
162
115
84
171
122
92
175
126
98
186
135
110
194
146
121
196
161
141
177
157
153
207
190
185
187
164
151
153
114
86
151
105
73
141
97
62
145
98
67
121
87
69
91
67
64
94
51
49
117
81
79
120
93
91
113
78
73
123
78
68
123
76
66
87
67
53
88
82
81
111
88
72
139
99
70
152
110
84
157
114
87
167
120
92
176
128
100
178
133
107
210
192
188
201
184
179
200
181
173
164
134
112
143
102
74
138
95
63
147
103
69
132
97
76
99
72
63
106
65
58
117
79
69
101
69
57
101
63
55
110
77
63
93
68
55
84
76
71
99
91
89
100
73
58
125
83
58
139
98
70
143
100
72
152
106
79
162
118
91
172
131
106
206
188
184
200
182
176
202
186
180
182
162
145
142
107
82
148
104
75
154
111
79
125
89
67
124
92
72
116
76
64
113
76
61
86
55
37
118
87
66
164
134
108
131
108
89
83
74
69
74
58
46
98
67
48
119
79
53
125
85
56
134
92
65
142
96
73
149
106
82
162
123
102
206
189
182
198
180
173
198
181
174
198
180
169
165
136
113
154
113
82
140
102
74
99
67
48
124
93
70
104
71
54
85
55
41
70
42
27
98
70
51
129
99
78
108
78
57
95
68
50
108
77
55
121
85
61
117
78
51
127
86
58
137
95
68
141
99
72
145
104
77
150
114
91
201
184
176
196
179
171
195
178
170
199
183
173
182
157
138
150
113
83
119
82
54
121
82
59
143
104
80
117
85
64
70
44
31
63
36
25
80
49
36
131
95
65
149
108
76
156
113
85
152
113
86
134
97
71
119
80
52
136
95
66
145
104
76
145
104
76
146
105
77
148
112
88
196
180
170
194
177
168
192
175
166
196
181
172
175
154
137
134
98
70
131
90
62
153
106
77
158
114
86
102
74
52
60
38
27
61
39
30
79
51
39
146
109
84
160
118
87
158
116
86
144
104
77
132
96
70
114
78
53
131
91
64
144
103
74
145
105
76
143
103
74
142
107
84
194
178
165
192
176
163
191
174
162
196
180
170
172
154
136
135
97
72
141
96
72
151
108
77
146
106
76
79
55
38
46
30
21
65
43
31
109
77
60
149
110
85
150
112
83
140
103
74
121
83
57
117
87
63
133
108
88
127
93
70
132
93
64
133
96
66
132
95
67
129
97
76
193
177
164
192
176
163
190
174
161
195
178
167
180
164
148
125
94
75
117
76
55
133
94
67
129
94
65
58
40
27
35
23
18
75
49
33
124
89
65
134
95
68
125
88
62
110
76
49
102
70
48
143
122
104
196
180
167
163
138
122
116
81
58
120
82
58
127
91
67
107
80
62
191
175
162
191
175
161
188
172
158
193
176
162
186
170
156
137
116
100
97
64
44
96
60
40
89
58
36
42
28
19
48
41
38
78
55
39
97
64
44
105
69
51
99
70
51
113
88
68
158
135
119
193
177
163
202
189
180
197
179
168
132
104
85
107
69
46
112
78
57
77
53
37
189
173
160
189
173
159
186
170
155
190
174
159
188
171
157
179
164
148
137
111
91
86
50
35
75
44
27
63
49
40
76
69
65
77
61
48
105
83
64
131
109
90
155
136
120
184
165
152
204
187
174
197
181
167
196
182
171
200
186
175
165
142
125
120
83
58
113
81
60
68
44
30
187
171
158
188
172
158
186
170
155
190
174
159
185
169
153
186
171
157
167
141
124
99
64
42
92
56
35
122
103
89
125
114
106
101
88
78
167
150
135
196
178
162
198
179
165
199
180
166
200
183
170
196
180
167
195
183
167
198
184
172
185
161
149
138
102
76
114
82
61
64
40
26
188
170
156
188
172
158
183
168
154
189
173
158
186
169
153
183
168
153
180
159
143
108
74
58
77
44
25
136
117
98
184
168
156
146
130
120
173
154
143
194
174
162
187
168
157
184
165
154
183
167
153
176
161
146
175
161
143
164
149
132
149
128
113
109
79
55
85
55
35
60
37
26
187
167
157
186
168
157
182
165
153
188
169
156
186
165
150
181
163
147
183
164
149
132
103
89
77
45
26
116
96
73
166
146
125
137
117
97
139
119
98
149
129
108
148
128
103
142
123
95
144
123
95
142
120
92
145
122
93
147
122
91
141
117
89
109
84
56
66
37
19
59
37
24
169
150
131
163
143
121
160
140
114
166
144
118
165
141
114
155
132
105
151
131
102
137
113
86
90
55
33
101
76
49
141
119
85
144
121
87
141
118
85
146
123
89
150
128
91
152
130
92
156
134
98
154
132
98
156
133
97
158
133
97
158
134
98
142
117
82
76
47
28
66
44
27
153
130
95
156
132
96
156
132
96
158
133
96
161
133
96
156
129
93
150
125
88
145
120
84
95
58
39
110
82
57
149
127
91
151
127
92
152
129
94
157
133
98
155
131
97
147
124
89
149
129
94
144
126
91
145
127
91
144
126
90
142
124
87
146
120
84
84
55
36
82
59
37
157
130
93
160
136
98
160
139
99
156
132
94
160
134
97
160
134
97
156
130
93
159
132
96
95
68
47
87
64
45
138
115
83
144
121
87
143
123
88
139
120
84
142
123
87
132
113
77
138
120
84
134
116
80
139
121
85
144
126
90
140
122
87
124
97
67
78
48
32
102
77
55
161
136
99
157
134
97
151
131
92
140
120
81
148
126
88
152
129
92
155
130
93
151
125
89
100
83
60
56
41
28
127
104
73
133
112
76
122
107
71
122
109
72
126
111
75
123
108
72
133
116
80
136
118
83
136
118
82
137
118
82
139
120
86
109
80
54
73
42
28
107
83
61
152
129
95
149
125
91
150
125
91
151
127
93
147
124
90
144
121
87
150
127
93
152
128
93
101
87
66
42
33
23
123
104
75
131
113
75
122
106
71
123
108
74
123
105
72
124
105
73
131
110
79
125
107
74
127
109
75
132
114
78
133
112
76
107
75
49
70
40
22
103
81
56
