P3 24 24 255
170
216
255
171
216
255
169
216
255
168
216
252
167
215
251
167
215
251
168
216
252
169
220
254
151
191
217
131
120
108
125
104
81
132
144
151
168
208
240
172
214
245
182
223
254
177
221
254
155
189
214
138
130
119
163
173
174
179
226
255
180
222
255
180
222
255
179
222
255
179
222
255
182
212
240
180
210
235
182
210
237
185
217
251
185
219
254
184
217
252
185
218
251
186
222
255
170
200
221
128
117
97
115
92
64
113
93
80
93
96
102
85
101
112
144
169
194
150
172
192
124
111
105
136
112
80
147
143
130
168
197
221
180
214
243
179
213
242
176
210
239
173
207
235
153
155
138
141
143
125
148
148
135
169
179
181
174
188
194
190
199
205
186
196
193
174
186
185
159
167
164
136
119
93
118
86
56
84
62
49
49
42
38
53
47
42
84
86
86
116
108
99
124
95
70
139
106
75
143
126
102
151
154
144
153
158
150
150
154
149
150
155
146
143
149
135
147
136
109
132
121
97
155
140
119
185
169
149
192
174
151
190
173
149
184
164
140
183
164
139
178
163
135
153
135
107
108
79
53
92
61
45
106
80
63
119
96
77
109
95
82
111
94
82
112
97
83
108
95
79
130
115
101
159
144
126
179
162
134
186
167
142
187
168
145
184
166
138
183
162
141
180
159
138
184
164
143
188
170
148
191
171
148
186
167
141
190
169
144
201
176
151
193
171
146
125
111
92
76
56
39
119
90
69
124
103
86
100
87
76
98
86
76
99
87
73
94
84
73
91
82
75
94
85
79
105
94
86
143
127
110
185
166
142
192
172
147
190
170
145
194
172
150
181
157
134
175
149
127
171
146
124
163
138
118
163
136
113
164
142
117
154
140
119
117
107
92
59
53
47
62
48
39
115
92
71
88
73
60
81
69
59
79
70
58
88
77
64
108
91
74
98
85
74
92
82
74
93
85
79
97
86
80
149
133
116
189
170
147
193
174
149
164
130
106
162
124
95
160
121
92
161
125
100
153
123
103
141
115
98
114
94
81
59
50
47
33
31
28
22
23
20
65
52
42
111
88
67
91
72
55
75
61
50
93
83
68
98
86
71
105
89
73
109
91
76
101
85
73
90
75
64
92
75
62
104
85
70
122
105
90
150
134
115
158
113
86
146
108
73
151
116
80
163
129
99
167
134
106
140
112
93
76
65
60
42
36
34
52
50
47
57
51
43
96
73
57
102
77
57
124
102
78
109
90
75
109
95
82
108
97
85
87
80
70
100
86
71
102
80
62
110
88
69
107
94
81
73
65
55
102
92
77
144
133
120
150
107
72
142
105
68
167
132
100
177
142
115
180
143
114
152
117
93
74
61
55
46
45
46
64
57
52
88
69
57
110
81
67
109
80
64
134
106
83
131
106
82
100
81
64
102
86
74
106
90
78
96
79
65
83
67
52
93
79
62
114
104
86
108
101
83
153
148
132
182
176
157
152
109
68
157
119
86
181
144
114
188
148
116
176
137
107
123
92
71
76
59
50
63
51
49
76
57
49
105
78
64
113
85
71
111
83
69
123
95
73
131
100
71
123
91
63
95
71
51
93
78
65
103
83
71
89
69
56
80
62
50
97
83
67
134
126
103
152
147
130
160
155
134
161
119
77
173
134
102
184
147
117
182
140
102
155
117
84
121
88
65
104
80
63
89
68
56
99
73
58
108
81
62
90
67
52
86
63
51
104
76
58
119
85
60
132
93
65
114
81
56
81
63
50
82
68
58
92
77
63
73
63
51
51
47
39
67
63
52
134
115
101
180
157
145
171
134
96
184
144
109
180
141
107
174
132
94
153
115
81
143
109
80
141
109
81
116
87
67
116
84
65
112
82
59
77
56
40
72
50
39
92
66
52
103
74
54
118
82
59
105
71
52
76
56
49
71
58
49
91
80
65
65
58
49
22
19
17
30
26
25
114
97
86
220
192
167
179
144
108
184
146
110
183
141
105
174
134
97
151
114
81
149
113
83
142
109
82
118
87
65
125
90
68
119
83
55
86
59
40
67
46
38
82
56
48
84
62
46
90
67
47
82
61
46
61
51
43
65
56
47
81
73
61
111
102
93
88
74
60
47
42
36
57
52
50
143
131
101
182
148
111
176
139
103
181
142
106
165
130
97
138
105
75
148
112
83
143
111
85
129
98
74
134
100
71
126
88
57
94
66
45
65
45
37
67
46
37
79
57
43
85
61
43
79
60
45
68
59
50
71
64
53
73
65
54
110
105
96
147
123
103
120
90
64
89
71
55
121
106
88
179
144
106
171
135
96
174
141
106
154
122
91
133
98
68
141
106
74
141
107
80
134
102
76
135
102
71
131
95
60
101
70
45
68
46
34
60
42
31
71
48
33
89
62
47
90
70
54
71
58
46
64
55
47
55
50
44
75
66
58
122
113
103
157
120
102
192
141
110
159
137
116
170
134
97
173
138
98
171
140
105
146
113
83
131
93
63
137
100
67
135
98
63
124
92
61
123
90
60
126
90
55
105
72
46
71
47
33
67
45
30
70
47
34
71
52
41
119
102
82
124
106
82
97
84
66
80
73
60
64
55
43
103
101
86
136
132
119
171
144
126
157
139
113
164
128
89
172
133
92
174
139
103
143
110
81
123
86
58
139
96
62
143
101
60
129
91
57
123
87
58
117
83
53
103
75
47
73
50
33
69
46
31
72
53
42
64
47
40
118
102
81
170
152
120
161
145
112
150
137
104
143
130
102
128
114
90
112
101
76
116
109
82
133
122
94
141
108
75
161
124
82
169
134
96
143
110
81
117
81
54
139
96
60
150
106
65
149
108
71
141
104
70
121
89
60
89
63
40
70
47
32
72
49
37
72
54
43
65
48
42
114
96
76
170
154
121
167
150
118
162
146
112
162
146
115
165
148
118
158
142
113
160
146
119
162
149
122
94
69
49
125
94
63
151
116
77
138
104
75
121
85
61
140
99
66
160
117
76
162
122
84
157
121
83
131
99
67
81
55
37
65
46
34
71
49
36
72
52
40
69
49
40
122
104
82
176
160
126
174
158
125
170
154
121
172
156
123
175
159
126
171
155
123
162
145
116
162
145
116
81
65
50
65
44
31
105
80
52
120
88
59
120
85
61
125
91
61
149
111
72
162
122
87
163
127
91
146
112
76
90
64
41
65
46
34
75
53
41
77
55
42
77
56
44
137
119
94
177
161
127
175
159
127
178
162
129
177
161
128
175
159
126
174
158
126
168
152
123
167
150
122
89
76
57
39
30
25
58
50
41
77
59
47
104
72
56
105
73
52
131
100
66
157
121
83
163
128
92
166
130
91
122
91
58
73
51
38
82
59
46
83
61
48
79
60
48
133
116
94
174
157
125
172
155
123
176
160
127
177
161
128
181
164
131
182
165
133
178
162
131
182
165
135
111
97
76
40
34
27
34
33
33
38
36
32
79
59
46
118
87
66
120
90
64
146
116
82
174
141
103
186
150
110
151
118
86
88
65
47
87
63
49
85
63
50
67
51
41
112
96
78
186
166
135
180
164
130
181
165
132
185
168
135
185
166
134
182
164
132
179
163
130
182
166
133
134
121
100
56
52
45
33
31
30
42
45
34
67
60
45
139
109
82
148
115
86
120
93
67
151
118
83
165
133
94
129
106
77
95
71
50
84
57
40
80
58
43
68
52
41
112
97
78
190
172
141
185
168
135
184
168
135
190
172
139
188
168
137
184
165
133
183
167
134
181
165
133
140
130
108
69
69
62
48
47
43
46
48
42
60
58
50
119
94
68
170
137
104
156
127
98
86
65
46
92
78
59
157
145
115
129
109
85
73
49
31
76
56
40
65
51
38
128
116
93
192
177
147
188
172
140
188
172
139
193
176
143
192
174
141
187
170
137
186
170
137
182
166
133
