P3 24 24 255
255
255
255
255
255
255
255
255
255
255
255
255
255
255
255
248
248
248
246
246
246
247
247
247
242
242
242
253
253
253
255
255
255
255
255
255
241
241
241
248
248
247
246
248
249
230
236
240
255
255
255
255
255
255
255
255
255
255
255
255
255
255
255
255
255
255
255
255
255
255
255
255
255
255
255
255
255
255
255
255
255
255
255
255
255
255
255
248
248
248
246
246
246
243
243
245
230
234
236
251
252
252
253
253
251
253
253
252
241
240
241
247
247
245
244
245
244
223
229
230
253
254
250
254
254
253
255
254
254
255
255
255
255
254
255
254
254
254
255
254
254
255
255
255
255
255
255
255
255
255
255
255
255
254
255
255
254
255
255
249
249
248
246
245
246
242
244
249
221
232
232
246
252
249
248
252
252
250
252
252
245
245
245
245
247
248
234
241
245
217
227
230
253
255
250
250
253
253
250
253
253
254
254
254
254
254
254
253
253
253
254
254
254
255
255
255
255
255
255
255
255
255
255
255
255
253
255
254
250
254
253
249
251
250
241
241
242
214
213
222
204
203
210
231
233
234
229
233
233
247
248
246
241
242
240
255
254
246
240
241
239
218
222
225
251
250
251
253
250
249
254
254
252
250
254
253
250
254
253
250
254
253
251
255
254
255
255
255
254
254
254
255
254
254
255
254
255
249
254
254
245
254
252
242
252
251
236
242
236
192
180
171
183
169
165
204
204
203
172
177
179
142
157
175
113
152
192
173
208
223
193
214
221
155
170
193
140
186
220
159
201
224
211
234
240
245
254
252
245
254
252
248
255
253
250
255
253
254
255
255
253
253
253
254
253
253
250
252
254
241
251
253
238
252
253
227
238
240
181
186
184
139
130
126
135
129
133
130
135
146
116
126
144
88
111
150
57
96
148
91
140
175
106
144
172
83
106
142
36
115
182
37
117
188
115
168
205
234
247
247
239
252
253
247
255
253
250
255
251
249
255
253
249
251
250
245
250
250
238
248
251
232
248
253
231
250
253
190
198
205
101
104
120
91
97
127
77
77
108
70
70
100
72
79
108
84
97
127
72
83
105
121
137
150
138
152
175
78
105
140
33
135
200
34
139
211
86
151
196
222
239
244
232
250
252
242
253
254
248
254
252
247
253
251
250
255
255
247
255
255
234
251
255
223
245
252
220
242
247
160
168
178
136
146
162
168
183
213
136
141
176
92
112
149
48
81
124
40
54
88
44
48
63
129
137
144
174
187
202
93
117
153
31
131
196
37
144
207
99
164
205
220
241
247
227
248
250
235
250
254
244
254
253
246
252
250
204
215
217
197
205
210
205
220
227
218
241
248
218
240
248
156
162
175
166
178
193
181
200
217
155
171
195
106
132
160
50
88
128
37
48
80
61
56
75
153
153
165
160
172
189
94
114
148
14
101
173
19
101
174
96
155
193
222
245
249
228
249
252
233
251
254
240
253
252
245
253
253
87
86
98
70
71
80
106
114
126
192
219
232
209
235
249
136
152
173
80
93
120
86
97
117
70
83
105
57
70
100
42
73
126
54
76
121
82
97
126
110
123
149
146
165
181
96
114
145
14
91
165
15
93
169
95
149
186
229
249
250
232
250
253
236
252
254
241
253
252
245
253
255
149
133
143
147
146
148
136
146
160
154
202
229
149
207
237
111
165
199
59
96
135
47
77
119
27
56
101
29
48
91
82
112
154
75
108
154
35
77
133
32
63
117
94
120
155
98
111
148
12
89
160
11
116
188
99
158
197
233
249
248
237
251
252
241
252
254
244
253
253
245
253
255
157
148
157
178
177
181
178
197
212
79
150
204
58
136
194
51
119
176
48
105
164
39
100
167
26
87
149
18
34
71
54
73
102
38
69
118
4
56
129
4
45
114
37
65
114
93
109
143
5
87
153
6
137
210
102
169
210
236
247
245
240
252
252
241
251
254
243
252
254
244
252
254
45
44
56
92
88
97
152
176
193
34
102
166
44
97
156
30
63
125
7
70
141
8
69
137
13
42
94
12
12
44
10
57
110
7
62
131
8
62
138
2
49
116
32
63
110
90
108
136
4
87
153
3
134
205
96
164
204
236
248
247
238
252
252
238
249
253
239
251
254
241
251
252
38
37
47
94
89
96
154
182
201
36
93
159
35
85
154
21
82
148
10
87
155
8
50
117
6
22
70
22
28
59
41
100
150
25
86
145
8
67
143
8
66
134
34
69
120
95
109
137
6
94
156
17
115
184
95
148
189
227
245
247
231
249
250
231
247
249
234
250
251
236
251
250
39
37
50
96
89
98
148
175
196
32
104
166
27
126
189
16
116
182
8
73
145
9
67
138
4
36
92
23
38
74
68
114
155
45
94
152
10
72
144
19
88
157
41
79
132
103
111
134
7
97
156
26
114
183
101
151
192
219
242
247
227
247
250
231
244
249
231
248
250
235
253
252
39
37
52
98
91
105
183
197
210
107
155
189
77
141
180
18
80
149
20
59
125
41
89
153
10
40
95
9
24
63
34
62
108
31
67
130
17
71
141
13
80
153
29
64
120
82
84
107
15
98
160
30
134
206
100
164
204
207
224
234
208
205
212
214
220
224
224
243
246
219
232
235
30
28
42
89
85
99
180
182
190
154
153
158
100
99
111
12
27
77
15
22
49
35
43
64
15
30
67
9
24
76
41
61
110
58
88
131
54
86
135
50
86
138
51
69
113
92
96
117
61
116
155
64
140
184
76
123
147
113
119
133
144
134
149
137
144
153
141
151
161
95
98
110
48
47
61
91
86
101
128
134
150
95
106
128
70
90
126
10
18
53
35
39
54
52
64
81
6
8
23
40
59
86
74
94
120
78
101
123
75
105
134
79
114
144
89
108
135
102
113
128
105
113
123
122
129
138
143
147
150
94
94
108
128
142
163
99
105
124
72
73
87
44
43
56
112
114
127
109
104
123
138
140
158
161
174
190
93
111
135
8
8
25
45
48
65
54
66
89
5
2
10
38
63
79
30
49
75
34
59
90
103
133
159
123
151
175
91
112
134
64
77
97
146
153
163
165
171
180
203
209
212
155
152
163
148
151
168
100
100
111
121
133
142
90
90
96
153
151
162
159
159
173
150
150
168
161
164
176
74
77
88
28
29
34
125
133
140
89
94
106
7
4
7
33
38
54
18
41
80
69
97
133
218
227
226
240
245
243
128
132
139
47
50
65
194
201
204
219
228
227
207
217
218
157
157
167
134
136
149
86
88
98
133
152
164
104
106
117
145
141
148
214
222
233
210
218
247
218
223
239
85
87
93
61
70
78
168
186
204
120
133
150
19
16
24
18
24
39
14
47
91
90
120
154
234
239
242
255
255
255
145
146
151
63
67
83
211
216
227
238
240
249
209
212
223
94
90
102
29
27
39
38
35
50
117
131
150
66
71
86
198
202
208
197
207
225
192
202
232
183
190
209
64
65
76
61
75
97
143
171
201
99
121
145
17
19
30
37
36
45
85
112
139
108
141
170
189
200
215
197
198
211
129
129
143
76
83
101
142
154
175
146
158
181
130
138
161
35
35
47
8
4
9
18
15
25
98
103
116
60
62
71
159
184
208
102
133
172
133
142
161
126
135
152
24
23
34
44
57
81
108
137
184
80
100
135
7
9
17
57
54
60
165
179
191
165
187
204
165
180
193
79
85
96
41
43
56
52
49
60
44
41
52
36
35
48
75
73
85
37
34
45
26
23
31
33
34
39
64
65
73
90
90
99
62
81
105
32
56
88
98
97
119
126
131
144
35
31
39
33
41
60
109
126
172
68
79
110
1
3
7
29
25
36
89
90
99
98
103
116
93
96
109
31
34
42
12
13
22
60
58
69
74
76
86
83
89
98
111
117
129
120
130
144
126
141
154
144
157
167
165
174
181
191
201
211
