P3 24 24 255
83
139
211
82
139
212
81
136
210
79
127
198
70
104
152
55
71
84
64
68
69
69
68
60
69
69
60
78
79
69
92
93
80
108
112
97
134
142
126
170
183
167
196
211
203
217
233
230
226
239
236
218
228
223
201
209
199
189
194
180
176
179
160
162
163
141
138
148
135
116
138
141
72
120
189
68
115
184
64
110
177
64
106
163
60
90
126
52
66
75
52
58
59
56
57
53
65
68
61
67
69
62
66
69
61
70
75
65
95
104
93
142
156
143
178
195
187
206
223
219
213
228
225
199
212
206
173
183
174
145
154
139
130
137
117
135
138
117
118
123
106
99
111
105
47
79
136
45
73
122
50
75
114
82
105
130
92
106
122
85
88
97
67
67
67
59
59
53
71
74
65
69
72
65
66
70
65
88
94
91
128
138
134
187
201
196
214
228
224
231
244
242
232
245
244
214
225
223
184
195
190
145
156
145
118
129
114
111
119
102
102
109
99
96
105
107
36
57
94
64
85
112
96
115
133
116
130
139
112
120
123
91
94
92
84
86
80
84
85
76
95
97
84
103
109
97
115
125
114
154
167
160
188
202
198
217
231
230
224
235
236
229
237
239
234
242
244
236
244
243
235
242
238
207
215
206
174
181
168
134
139
124
124
132
123
124
137
140
88
106
129
130
146
162
159
174
183
136
148
154
112
120
123
86
91
91
88
91
89
95
98
94
110
118
110
135
147
139
163
179
172
181
198
195
185
200
201
176
187
192
149
156
163
135
139
149
165
170
179
198
205
211
233
242
243
222
232
229
198
207
203
155
162
160
167
176
172
190
203
199
195
211
219
202
217
222
192
206
209
156
168
170
126
134
136
100
103
105
92
92
93
94
93
92
111
114
113
142
152
149
175
192
189
187
205
204
191
207
209
187
197
203
135
142
151
100
107
118
137
144
155
181
190
198
229
240
243
222
233
232
211
222
221
196
208
209
215
225
224
235
245
242
232
246
247
216
231
232
188
203
205
136
149
154
104
113
118
87
89
92
86
81
81
89
81
80
101
95
94
130
131
129
162
172
168
171
184
181
176
189
187
177
187
188
148
158
161
130
140
145
152
162
166
182
190
193
214
220
220
191
197
193
181
188
183
189
201
197
215
226
224
239
248
249
229
242
243
176
190
196
116
130
141
62
75
91
55
65
78
81
86
89
88
86
84
93
85
81
95
86
82
104
97
92
115
111
105
119
117
110
122
123
115
126
128
120
129
131
123
133
135
127
139
141
132
152
152
143
169
164
156
145
138
130
141
136
129
167
172
166
202
211
208
234
246
243
199
212
217
121
137
151
52
69
90
51
67
89
72
83
97
108
112
113
100
96
92
93
83
76
90
78
72
97
86
79
106
96
90
107
99
92
111
104
96
117
110
102
129
121
111
143
133
123
159
150
140
159
149
141
149
139
132
118
108
102
113
107
102
147
148
145
187
195
193
225
237
236
122
138
156
75
92
116
39
56
86
47
64
90
76
89
104
118
125
125
116
115
110
112
105
97
106
96
88
101
91
83
99
89
81
106
95
87
115
105
97
127
117
108
147
136
126
166
154
143
180
167
157
166
152
143
135
122
114
111
101
92
108
101
93
135
133
127
175
182
179
215
228
229
43
64
95
39
57
89
37
53
85
42
59
85
68
82
98
108
119
120
125
127
125
133
130
124
129
123
114
122
115
105
115
107
97
113
105
95
115
108
98
122
115
105
130
123
114
139
131
122
147
136
127
138
127
117
121
109
98
110
100
87
113
106
93
137
134
122
170
175
169
201
215
214
37
61
99
35
58
94
34
55
89
39
58
84
63
79
96
102
112
119
120
123
124
131
129
125
132
125
119
131
123
115
128
121
112
122
116
106
121
116
105
124
120
109
134
128
118
139
132
123
130
123
114
119
113
102
108
101
89
106
100
87
115
108
95
138
132
120
164
164
158
189
196
195
40
66
107
38
63
102
37
61
97
40
62
92
61
80
102
95
110
122
119
128
134
135
139
141
137
137
138
137
135
134
137
134
130
138
134
126
137
130
120
132
125
112
132
125
113
131
124
112
124
116
104
117
109
96
110
103
88
112
105
88
119
113
96
135
132
115
151
151
137
166
168
159
42
72
116
42
70
113
42
69
108
39
65
101
54
77
107
81
101
122
114
129
142
137
147
154
140
144
151
139
141
145
138
138
138
137
134
131
137
133
126
139
133
124
133
127
116
125
119
108
118
112
99
113
108
94
111
106
91
114
109
93
116
113
96
119
118
100
128
127
111
138
137
122
46
77
124
44
74
118
42
71
112
40
68
107
48
74
108
63
86
113
105
123
141
132
144
154
130
134
142
131
133
138
132
133
136
124
124
124
119
117
116
116
114
111
111
109
104
108
106
99
108
106
98
110
109
99
114
113
102
116
116
103
117
118
104
116
118
104
117
118
104
119
118
105
47
78
125
45
76
120
45
74
115
44
73
112
46
74
110
51
75
109
98
117
139
125
138
150
115
119
126
115
115
121
118
116
122
120
115
121
116
109
116
106
98
105
100
94
100
97
94
98
101
100
100
108
109
105
116
120
112
115
121
112
103
112
104
76
86
85
70
79
83
71
79
85
48
80
127
47
78
124
46
76
122
45
75
118
45
73
115
47
71
110
92
112
138
127
141
156
143
147
155
130
130
136
111
109
115
120
116
124
123
116
126
120
112
122
111
104
113
106
102
110
117
117
121
137
142
142
160
171
166
148
162
157
119
135
135
64
80
94
44
60
83
36
53
80
51
82
130
49
81
128
47
79
125
45
77
121
44
74
116
44
70
110
86
108
134
127
144
158
166
176
181
162
169
173
145
149
155
135
136
145
132
131
142
137
135
147
131
130
141
131
132
141
154
160
166
181
191
194
208
222
223
193
209
210
155
172
178
83
99
116
56
72
97
43
61
91
52
85
131
51
84
129
50
82
126
46
79
120
44
75
113
44
72
107
76
101
124
115
137
150
168
185
188
177
192
193
171
183
186
160
169
175
154
162
169
153
160
169
148
157
166
151
161
169
175
187
193
195
209
213
212
228
231
204
221
226
168
189
198
93
117
137
61
87
114
45
72
103
54
87
130
53
85
129
52
83
126
49
79
119
46
75
112
44
73
105
58
85
111
88
113
131
145
166
173
165
182
185
169
184
185
159
174
174
151
166
165
143
159
160
148
164
166
160
175
178
183
200
200
197
215
214
206
224
223
197
216
219
161
184
194
87
116
138
60
90
121
48
79
114
54
89
127
54
87
127
53
85
126
52
83
121
50
80
116
49
78
110
50
78
106
66
93
115
109
133
147
146
167
175
176
194
196
166
184
184
145
162
162
112
130
131
120
137
137
139
156
155
174
190
186
192
210
206
200
220
217
176
199
204
137
163
177
75
105
132
56
88
121
49
82
118
55
90
129
54
89
127
53
87
125
53
86
122
53
85
119
53
84
116
52
82
113
58
87
115
78
105
128
125
149
164
175
197
202
183
203
204
170
189
189
136
155
158
119
137
139
120
137
137
168
184
181
189
206
205
194
215
217
147
173
185
103
133
155
64
97
129
49
82
118
42
74
110
53
88
130
53
88
127
53
87
124
52
86
122
52
85
120
52
84
118
51
84
117
53
84
116
59
89
118
97
125
145
146
171
180
183
204
207
186
206
206
156
175
177
140
158
160
140
156
158
182
196
196
191
207
211
181
202
212
115
143
164
69
101
131
50
83
120
43
76
113
39
71
108
47
82
121
47
80
119
46
79
116
44
77
114
43
75
112
42
75
112
43
75
112
45
77
112
48
80
112
91
119
142
145
169
182
188
209
214
203
221
222
188
206
206
177
193
193
174
189
189
195
210
207
182
200
205
149
172
191
89
119
149
52
85
123
48
80
121
45
75
117
41
70
113
