P3 24 24 255
143
163
155
150
163
158
153
163
159
153
165
163
154
167
166
155
168
167
157
170
169
158
174
174
160
176
177
164
180
181
166
182
183
162
181
184
163
182
186
165
185
189
166
185
189
166
186
188
169
188
189
172
187
190
173
186
190
173
187
188
172
188
187
170
186
186
168
184
184
168
185
182
141
156
151
141
153
149
141
151
148
137
150
148
137
152
149
138
153
151
140
155
153
144
159
160
158
173
171
172
182
181
166
181
182
162
183
185
164
184
186
166
186
187
167
186
187
165
187
188
169
188
188
173
189
189
175
190
190
178
191
190
179
191
189
179
191
189
177
189
187
174
188
185
140
156
157
139
157
157
138
157
157
139
158
158
141
160
160
144
163
163
147
165
166
147
165
169
170
185
178
193
194
187
166
181
181
161
187
187
165
187
187
168
188
185
169
188
184
167
189
188
172
189
185
177
191
185
174
191
189
178
191
191
181
191
191
181
191
191
179
189
189
177
188
186
145
160
162
145
164
164
144
165
165
147
167
168
150
170
171
154
174
175
158
177
179
157
176
180
177
191
182
203
199
190
170
183
181
160
187
188
165
187
189
168
188
187
171
188
186
172
187
186
180
188
182
180
188
180
174
187
184
177
188
189
178
188
189
177
187
188
176
186
186
174
185
182
150
163
163
149
167
166
148
168
167
150
170
170
153
173
174
157
177
178
160
179
181
160
179
184
172
186
177
201
194
184
178
187
182
162
185
187
167
187
191
171
187
189
172
184
184
186
190
187
211
208
200
193
190
183
175
180
179
176
185
187
175
185
186
174
184
185
171
181
182
171
181
179
153
164
163
151
167
164
150
168
165
149
169
168
149
169
170
146
167
167
151
170
173
156
176
182
164
178
168
201
193
179
188
192
184
167
182
183
170
182
185
175
183
183
188
192
190
217
211
205
235
223
213
215
206
198
174
174
174
169
178
180
168
178
179
166
176
177
161
171
172
159
170
167
151
161
158
152
165
161
153
169
165
142
161
161
129
149
150
121
141
142
125
145
148
132
152
159
141
154
144
199
188
172
203
202
190
172
177
175
184
184
183
197
194
189
201
195
188
202
190
179
195
180
165
185
175
164
152
154
152
157
166
168
162
172
173
160
170
171
155
165
166
151
161
159
142
151
147
151
162
158
151
166
161
129
147
146
112
131
132
106
125
126
105
124
127
108
129
135
124
136
126
202
189
172
220
216
201
194
190
183
198
187
181
193
180
171
184
169
157
192
178
161
210
195
176
201
194
180
137
141
137
151
162
162
161
171
172
162
172
173
160
170
170
155
165
162
142
153
154
157
170
170
155
168
168
145
151
145
148
153
148
138
148
147
129
143
145
125
138
140
130
136
123
203
192
171
229
218
199
200
186
174
180
168
157
196
184
167
217
201
175
226
213
180
222
212
184
150
146
132
107
113
112
149
163
166
154
168
169
162
172
168
164
170
164
157
166
160
97
113
120
101
117
124
108
122
127
153
152
143
134
132
122
126
132
130
132
144
145
148
155
154
156
158
145
192
187
165
192
179
161
183
167
155
158
151
139
191
188
167
227
217
184
185
175
138
132
127
99
88
89
77
78
85
86
86
104
108
99
115
115
134
142
136
145
148
137
132
140
131
82
104
112
84
106
114
99
118
125
133
140
137
86
92
88
72
85
86
63
80
85
91
104
107
133
142
133
127
130
115
93
89
78
83
78
71
65
66
60
101
104
91
136
134
111
90
87
66
65
67
51
87
94
84
94
106
101
53
70
71
52
67
67
135
143
138
106
110
101
94
104
95
86
112
120
91
117
125
104
129
136
118
133
134
103
118
118
104
123
127
99
121
127
110
128
133
131
145
141
106
117
108
65
72
67
48
54
50
50
57
57
62
70
66
68
76
63
56
61
54
55
62
58
95
106
99
140
155
147
100
117
114
80
94
92
149
158
153
127
134
126
125
136
128
94
120
124
95
120
125
100
124
129
110
131
132
109
128
130
112
134
136
125
147
151
140
158
163
149
165
161
139
153
147
112
125
124
65
80
77
79
90
92
86
96
98
87
101
95
98
107
108
79
87
89
135
146
140
160
174
164
148
160
156
140
152
149
154
165
161
154
163
158
153
163
156
115
135
135
111
132
132
117
138
138
121
142
142
123
144
144
126
147
146
140
159
159
153
167
168
156
170
165
161
176
170
149
164
164
93
111
106
101
111
113
120
128
133
106
122
119
140
150
150
110
117
117
159
166
161
165
173
165
159
169
163
156
167
163
155
166
162
152
163
160
152
163
156
131
147
143
132
148
144
140
156
153
142
160
158
145
164
162
149
166
163
152
168
164
157
168
165
159
170
163
160
172
165
155
169
168
144
162
155
151
160
159
157
163
167
152
167
163
162
172
168
160
164
161
168
172
167
169
172
166
165
173
167
159
169
164
157
169
165
156
168
165
155
166
159
128
143
138
132
147
142
136
151
146
143
156
153
149
162
159
153
165
161
154
165
161
158
166
160
161
168
161
161
170
163
161
170
165
160
172
167
161
172
169
163
172
171
164
175
172
166
174
171
167
172
170
166
171
168
165
170
166
165
171
165
163
171
164
161
169
163
160
168
162
159
164
157
126
141
136
126
141
136
130
145
140
140
152
147
146
157
153
149
160
156
150
160
156
152
161
155
155
163
156
156
164
157
157
165
158
155
166
161
154
165
161
154
165
161
154
165
161
155
163
161
155
162
160
156
163
161
156
164
161
158
165
160
158
166
160
158
166
159
161
169
163
163
170
165
128
143
138
129
144
139
133
148
143
140
152
148
147
158
154
148
160
156
148
159
155
149
159
152
151
161
153
152
162
154
154
165
157
154
165
160
153
164
160
152
163
159
152
163
159
152
162
158
153
163
159
154
163
160
154
163
160
155
165
160
156
166
161
155
165
160
154
164
159
148
161
160
126
141
136
126
141
136
128
143
138
137
148
144
142
153
149
140
151
147
141
152
147
141
153
145
142
155
146
144
156
148
147
159
151
149
160
155
149
160
156
150
161
157
150
161
157
150
161
157
151
162
158
150
161
157
148
160
156
146
158
154
144
156
151
142
154
150
139
151
148
129
147
148
118
133
128
117
132
127
122
137
132
131
142
138
134
145
141
134
145
141
136
147
143
137
151
142
138
153
143
139
154
144
141
155
146
143
155
150
144
154
150
144
155
151
144
155
151
143
156
152
140
154
150
139
153
148
137
151
147
136
150
147
137
151
148
138
152
149
138
153
150
133
153
153
118
133
128
119
134
129
124
139
134
131
143
138
134
145
141
137
148
144
139
150
145
137
152
144
138
155
145
140
156
146
142
158
149
147
159
154
148
159
155
146
157
153
146
157
153
145
159
155
142
157
152
140
156
151
139
154
149
139
153
151
140
155
154
140
155
154
139
155
154
132
151
149
126
138
134
128
140
136
131
143
139
134
145
139
136
147
141
139
150
144
142
153
147
142
155
146
143
157
147
145
159
148
147
161
151
152
161
156
153
161
157
154
162
157
153
162
157
150
163
157
149
163
157
147
162
155
145
160
154
145
159
156
144
158
155
143
157
155
142
157
154
139
154
150
133
140
136
135
143
138
138
146
141
141
150
142
143
153
144
146
156
147
149
159
151
152
162
151
154
163
153
155
164
154
157
166
156
160
165
158
161
164
159
161
165
160
161
165
160
156
166
159
154
166
158
153
165
157
151
163
155
150
161
156
148
159
155
147
159
154
146
157
153
144
155
151
135
143
133
138
146
135
142
150
140
146
154
145
148
157
148
150
158
150
154
162
153
156
164
155
158
166
156
159
167
157
159
166
157
160
165
159
161
164
159
161
164
159
160
164
159
155
165
158
153
165
158
151
162
155
148
159
153
145
157
152
143
155
150
141
153
149
139
151
147
136
151
146
