P3 24 24 255
101
73
47
96
65
39
114
82
56
91
72
54
60
49
36
56
43
26
75
62
53
161
146
147
213
207
206
97
102
94
24
20
19
27
18
18
23
19
15
22
19
21
16
10
12
42
31
26
104
88
74
167
145
125
172
144
125
172
141
124
167
137
120
114
88
69
94
55
36
89
51
28
102
73
48
98
67
40
107
77
51
75
55
36
73
60
47
69
56
43
69
62
60
187
182
187
192
193
195
33
39
35
13
8
11
28
15
18
28
17
16
28
20
21
17
13
12
26
23
18
54
48
38
107
87
75
162
131
117
181
149
131
157
129
108
109
81
61
95
55
35
84
45
21
116
91
67
108
82
54
105
82
57
65
46
26
61
46
31
75
63
52
50
46
44
116
117
117
169
172
172
45
45
45
37
29
32
48
38
43
42
34
39
34
28
31
16
12
12
22
19
17
32
28
25
58
42
38
128
99
89
163
135
116
146
125
101
107
79
62
89
53
39
79
43
24
192
179
162
155
141
121
114
101
83
77
64
48
61
48
36
79
67
58
45
39
38
50
47
48
134
133
133
92
87
89
64
54
57
76
67
73
64
58
65
46
41
47
26
21
25
18
13
16
30
24
25
52
36
32
105
74
64
141
113
93
136
115
92
102
76
61
80
46
38
79
47
34
239
238
230
217
214
205
195
191
182
154
147
138
103
94
85
87
76
70
61
52
52
80
72
75
128
121
123
191
183
186
152
142
146
88
81
88
65
61
70
56
51
59
38
32
39
25
18
25
30
23
26
54
38
32
93
61
50
124
92
73
127
106
84
100
77
63
75
42
37
75
46
36
238
242
240
237
240
238
243
244
241
228
225
221
196
190
186
141
134
130
98
90
91
144
134
138
154
143
147
225
217
220
244
239
241
134
131
136
61
59
67
61
57
64
43
37
44
33
25
32
47
37
41
64
47
40
86
52
40
97
63
45
119
97
77
120
100
87
80
47
40
71
41
33
239
241
241
243
246
245
248
249
248
250
249
248
219
217
216
145
141
141
96
91
92
167
159
162
203
193
196
233
228
229
248
248
249
177
179
182
75
76
80
54
51
56
37
31
35
32
22
26
73
62
63
90
72
63
89
52
40
94
57
40
116
94
75
142
125
112
100
65
50
78
47
35
240
240
239
245
246
244
251
251
250
246
246
246
149
148
150
69
68
71
60
58
59
128
123
124
229
222
225
245
243
244
247
251
250
233
238
238
168
170
171
127
126
126
74
69
69
30
20
21
85
75
73
119
102
92
94
58
46
102
65
49
121
98
81
159
143
129
143
108
84
131
98
82
238
239
239
241
243
241
249
250
249
208
207
208
86
84
85
54
52
54
89
88
88
169
168
167
234
232
231
248
248
246
249
251
249
252
254
253
251
251
251
245
245
245
201
199
199
79
76
76
90
86
85
134
122
117
97
74
59
110
81
65
134
108
96
172
153
136
163
135
96
204
179
159
236
237
238
238
240
239
243
244
244
175
174
175
57
55
56
88
86
86
170
169
168
230
230
228
250
250
248
252
252
250
250
250
248
249
249
248
249
249
249
252
252
252
250
250
250
172
173
173
146
145
146
177
171
168
124
110
93
114
93
74
133
110
100
153
138
122
158
139
104
215
201
181
233
235
236
233
237
236
236
239
238
165
167
166
40
39
40
91
89
90
204
203
202
240
240
238
247
247
245
250
250
248
250
250
248
249
249
248
248
248
248
251
251
251
253
253
253
230
230
230
217
217
217
227
225
221
161
154
133
98
84
62
82
68
58
72
65
55
69
62
43
140
136
119
230
233
233
231
237
235
230
234
233
155
157
156
33
33
33
69
69
69
190
190
189
239
239
237
245
245
243
248
248
246
250
249
247
251
251
250
251
251
251
253
253
253
252
252
252
244
244
244
246
246
246
240
241
235
173
170
148
91
83
60
56
49
40
27
27
23
27
29
23
105
110
98
226
230
230
229
236
234
224
229
227
156
160
159
55
57
57
84
85
84
193
193
192
230
230
228
242
243
241
245
245
243
247
247
245
248
248
247
250
250
250
252
252
252
250
250
250
248
248
248
250
250
251
240
241
235
175
173
149
101
95
71
62
58
52
60
63
66
66
72
76
109
116
111
222
227
226
223
231
229
221
227
225
186
191
189
116
119
118
104
105
104
195
196
194
225
225
223
241
241
239
244
244
242
246
246
244
245
245
244
248
248
248
249
249
249
248
248
248
248
248
248
250
250
251
239
238
233
157
154
130
70
63
40
33
29
25
68
71
80
111
117
125
155
159
159
218
221
222
216
222
221
217
222
221
211
214
214
157
159
159
124
125
126
206
206
206
230
230
230
240
241
240
248
249
249
248
248
248
244
243
243
245
245
244
247
247
246
248
249
249
248
251
250
250
252
253
225
222
217
129
121
98
45
34
14
18
12
11
62
68
78
133
145
150
128
137
138
213
216
218
208
210
212
210
211
213
214
215
217
182
183
185
178
179
181
225
226
228
239
241
242
244
245
246
245
246
248
242
243
245
237
237
238
237
237
236
244
245
245
248
251
251
247
252
252
240
243
244
197
191
186
128
117
97
47
34
20
14
7
9
47
53
61
112
128
129
81
95
95
208
210
213
199
200
202
197
198
200
203
204
206
210
211
213
218
219
221
233
234
236
247
248
250
247
248
250
239
240
242
235
236
238
231
233
235
225
228
230
236
237
240
243
243
247
241
242
246
218
216
219
180
172
168
157
148
135
65
57
52
7
0
9
27
25
29
75
81
81
57
62
65
201
203
206
194
195
197
191
192
194
194
195
197
211
212
214
229
230
232
242
243
245
250
251
253
248
249
251
242
243
245
236
237
239
228
232
235
222
228
231
228
232
236
228
229
233
178
177
180
166
161
163
167
157
153
135
128
119
80
74
77
14
7
19
15
7
9
19
16
16
29
28
33
194
196
199
189
190
192
185
186
188
187
188
190
216
217
219
240
241
243
243
244
246
248
249
251
246
247
249
237
238
240
228
229
231
218
221
225
213
218
222
222
226
229
198
199
200
93
93
92
91
88
86
129
120
114
101
91
82
90
79
81
42
32
42
12
5
6
15
12
12
18
16
21
183
185
188
179
180
182
176
177
179
184
185
187
226
227
229
240
241
243
238
239
242
245
247
249
245
246
248
228
229
231
214
216
218
206
207
210
206
207
210
216
218
218
163
166
161
57
61
53
60
63
53
124
119
109
124
108
92
93
72
64
57
41
46
36
36
37
73
80
79
55
58
61
171
172
175
171
172
173
169
169
171
186
187
189
228
229
231
237
238
240
235
236
237
243
244
246
244
245
246
213
214
215
189
189
191
194
193
196
210
209
212
226
228
225
145
149
141
39
46
32
58
65
50
111
108
94
140
120
97
114
84
67
87
68
67
71
79
82
104
118
119
79
86
88
162
156
157
165
159
158
173
170
171
195
195
197
226
226
226
231
230
229
224
222
223
240
239
240
247
247
246
175
173
171
142
137
136
195
192
196
216
218
226
240
244
247
164
166
163
49
49
37
62
60
44
100
91
79
135
118
101
123
103
87
87
75
69
78
84
87
89
98
102
61
63
66
143
130
128
142
130
125
174
168
168
191
191
193
215
217
218
215
215
216
212
210
213
238
238
240
249
249
247
153
149
146
111
101
97
191
183
186
211
210
216
234
236
240
182
183
182
72
69
61
78
70
58
99
86
75
105
87
74
98
79
66
74
63
56
66
66
68
76
82
85
76
81
80
117
98
92
108
91
82
153
144
141
184
183
185
204
207
210
196
199
202
209
210
215
237
238
242
243
243
242
146
141
137
120
107
102
150
137
135
159
151
151
207
204
205
207
205
204
136
133
127
101
93
84
101
84
74
103
81
68
90
68
56
73
57
50
61
54
53
66
67
66
94
96
92
