P3 24 24 255
132
191
181
204
199
214
189
202
205
127
192
182
103
171
182
86
120
178
85
97
182
82
96
178
80
95
170
80
91
171
82
88
173
83
88
172
85
89
174
85
90
174
88
90
173
89
90
172
87
91
172
90
93
173
96
94
177
96
93
175
95
94
172
97
95
174
97
94
173
96
96
168
184
206
196
247
219
219
227
216
212
149
193
185
110
189
177
103
162
187
83
105
177
80
96
173
78
96
167
78
90
167
82
88
175
86
90
175
86
89
174
85
90
174
87
90
173
88
89
172
87
90
169
91
93
168
93
93
176
91
96
173
94
103
172
98
102
179
97
96
178
96
93
169
230
216
218
253
221
214
252
218
220
213
210
205
136
195
184
101
191
182
88
138
172
80
95
173
74
92
172
75
91
165
79
88
166
87
89
175
89
88
173
84
89
172
84
89
173
87
88
173
91
88
166
92
91
167
86
95
172
95
122
175
122
169
196
120
169
201
107
139
193
89
97
172
213
197
210
255
222
215
251
217
219
245
217
213
200
208
207
139
197
178
116
172
173
87
111
172
73
88
169
73
89
163
76
87
158
85
86
172
87
86
169
82
86
168
80
86
168
85
88
171
89
91
169
89
92
171
86
94
174
98
122
173
120
194
189
125
213
195
141
199
210
118
140
189
175
158
196
249
220
219
238
221
216
248
218
217
249
213
219
218
212
205
181
202
197
141
155
185
87
94
163
73
85
164
77
87
157
81
84
166
82
85
166
79
85
162
78
83
158
81
82
159
81
86
162
82
86
161
88
87
168
92
98
166
109
154
166
155
201
185
197
213
207
209
203
224
122
123
180
171
201
193
162
204
177
212
212
209
252
214
214
251
214
215
239
214
219
211
196
203
121
122
172
77
84
167
81
90
163
86
89
169
88
95
172
86
99
167
97
101
165
111
104
169
112
104
170
106
100
158
104
98
164
96
99
169
104
125
166
197
198
210
246
217
216
243
216
221
82
98
172
102
166
165
107
194
153
141
193
171
206
213
199
236
213
212
218
209
209
186
208
201
139
168
192
103
126
185
101
112
176
97
95
169
97
107
166
108
153
178
139
156
180
188
168
196
207
181
210
212
182
207
201
175
197
151
166
186
115
166
174
170
191
188
220
192
189
202
213
202
74
93
180
87
139
162
110
192
161
111
190
156
119
196
161
139
200
173
138
191
175
126
183
184
114
157
189
121
147
187
108
118
157
106
107
155
115
133
170
79
117
122
67
80
87
80
70
75
157
120
123
219
162
167
216
158
162
165
153
151
109
153
141
120
157
139
139
139
126
121
174
146
77
87
177
70
106
148
101
170
152
113
189
156
116
186
154
134
189
166
145
194
182
111
161
173
83
104
155
101
98
137
135
124
144
146
134
164
120
122
149
42
58
65
22
31
40
50
41
47
147
92
90
196
119
113
195
118
122
170
130
134
133
150
148
139
162
153
115
106
97
121
129
113
83
111
168
107
128
164
157
173
172
178
191
177
197
195
185
227
205
203
222
218
216
155
187
192
89
119
145
83
93
112
125
130
139
143
151
170
100
123
134
55
83
81
53
86
87
90
103
104
172
121
117
190
116
106
191
132
133
187
160
162
134
142
142
128
137
137
84
64
65
154
120
122
85
152
151
136
166
167
219
190
196
238
194
197
240
205
201
242
205
198
241
204
198
184
189
180
90
140
137
66
108
111
73
113
111
79
124
127
76
122
123
71
110
107
65
112
110
75
108
106
130
107
108
154
104
96
184
148
156
171
156
166
115
111
118
81
77
87
52
41
47
70
53
56
116
184
159
127
177
153
202
189
186
225
181
182
222
176
171
215
163
154
213
154
145
170
143
133
87
118
112
66
112
112
66
108
104
64
96
97
68
89
100
64
95
100
79
104
111
106
105
109
104
92
92
105
76
72
132
103
117
134
110
128
92
79
90
57
47
63
54
41
63
50
34
59
101
139
126
63
100
86
93
85
82
135
95
93
172
116
113
173
113
110
168
112
109
154
109
108
101
101
97
68
99
94
78
88
91
87
79
88
76
77
90
59
74
85
95
96
109
108
96
96
91
79
77
79
61
69
67
43
63
81
54
77
78
64
86
69
65
96
75
73
118
83
78
139
54
68
71
38
48
56
53
42
46
79
53
51
104
70
70
110
80
80
113
85
86
128
85
87
124
87
83
100
77
73
104
68
71
110
66
71
102
69
75
68
68
75
57
62
74
52
56
71
55
55
85
63
60
101
73
66
114
92
81
131
116
108
159
112
110
167
93
93
161
87
86
166
76
85
105
94
93
122
83
86
103
81
76
83
74
65
69
71
85
82
84
111
98
133
137
123
170
144
134
169
132
127
123
85
82
115
79
75
133
93
93
110
102
108
72
75
94
59
63
105
72
75
137
80
81
150
82
80
153
79
77
148
80
78
146
86
85
156
87
87
163
84
84
166
106
97
117
99
83
105
92
86
104
116
116
135
86
91
112
79
118
119
105
176
148
118
189
151
147
186
160
205
195
184
196
164
162
188
147
149
166
133
135
182
162
171
175
157
175
106
94
148
82
78
153
83
80
158
81
77
156
76
73
147
71
71
141
82
81
152
89
87
162
87
87
163
86
76
111
92
79
107
105
99
136
105
108
158
86
93
145
66
95
122
96
158
142
117
188
151
158
192
168
222
205
194
244
205
202
245
193
196
232
189
194
232
184
192
231
185
188
162
138
176
87
80
153
82
78
158
81
78
155
79
79
149
76
77
146
83
79
153
89
82
160
88
84
163
71
77
142
70
75
136
72
78
146
67
76
146
68
77
146
59
76
138
75
105
130
160
181
171
234
211
209
246
201
204
233
203
193
224
195
192
221
190
190
232
181
183
234
175
175
212
168
186
118
98
154
76
76
154
78
80
156
82
79
151
79
76
150
82
77
153
84
78
156
85
80
159
69
78
154
67
76
152
69
78
154
68
76
151
67
77
154
66
79
161
69
80
145
129
123
153
228
190
201
237
211
211
179
204
191
148
194
175
148
192
173
175
190
176
202
181
178
221
180
189
170
146
180
87
84
154
78
77
157
81
79
153
79
76
152
81
77
153
81
77
153
84
80
156
71
80
155
71
80
155
70
79
153
67
74
154
67
77
155
66
79
159
71
78
161
79
78
141
145
135
161
179
197
193
119
192
175
108
195
170
112
192
170
115
194
166
128
184
161
157
182
171
164
179
185
105
114
166
79
77
158
79
80
155
79
79
153
81
77
153
81
77
153
82
78
154
70
79
154
70
79
154
67
76
151
67
76
153
67
78
148
67
78
150
71
77
161
75
76
155
82
78
145
97
124
151
109
185
164
130
202
182
162
205
198
188
209
204
176
201
192
141
191
175
124
190
172
112
159
180
82
90
157
80
77
152
81
79
153
81
77
153
81
77
153
81
77
153
68
77
152
66
75
150
67
76
151
66
76
150
67
79
145
66
75
147
67
74
153
67
77
150
67
73
153
65
79
140
105
132
148
207
206
213
236
217
221
249
213
221
249
213
223
210
204
210
133
201
186
124
193
189
99
121
166
80
75
145
83
78
151
79
75
151
80
76
152
80
76
152
69
78
153
64
73
149
66
74
150
64
75
149
65
76
148
66
74
152
66
73
150
67
74
145
71
73
147
71
73
147
78
76
137
176
145
177
249
212
216
249
213
213
247
215
219
218
212
222
139
198
197
123
195
184
141
167
194
91
88
152
79
75
149
79
76
151
79
75
150
82
78
154
68
77
154
65
74
151
63
72
149
63
74
148
63
75
146
65
73
147
68
72
146
69
72
147
71
72
150
70
72
147
69
70
142
89
80
138
176
148
174
247
211
216
226
216
215
161
201
208
147
202
212
135
198
190
159
192
198
137
134
179
78
74
142
78
76
148
77
73
145
78
74
149
