P3 24 24 255
182
186
195
151
160
168
136
151
159
125
141
148
116
129
137
108
122
131
103
120
130
104
120
131
108
121
130
110
123
132
113
126
135
117
130
139
119
132
140
120
133
140
120
133
141
123
136
144
124
138
144
123
137
144
122
137
146
124
139
151
125
141
153
128
143
155
132
147
159
137
152
164
192
197
201
175
182
188
161
172
180
157
167
174
147
155
161
127
136
144
113
126
137
109
123
135
111
124
133
112
125
134
114
127
137
118
131
140
121
134
140
123
136
141
124
137
143
127
140
146
131
144
149
134
147
153
142
153
161
148
158
169
150
159
169
152
161
168
157
165
173
170
178
186
211
212
213
199
203
206
186
192
197
189
193
197
185
187
190
164
169
173
146
153
160
126
136
144
117
129
138
114
127
135
114
127
136
118
131
139
120
133
140
122
135
141
126
140
146
130
144
150
134
149
156
144
158
164
169
176
181
199
199
203
220
219
222
224
225
226
226
227
227
235
236
236
222
221
224
215
214
218
203
203
208
205
204
206
202
200
199
199
198
197
195
194
194
171
173
174
145
152
158
131
140
147
125
137
142
121
136
140
119
134
142
121
136
144
126
141
150
131
146
155
136
152
160
144
158
164
169
175
179
210
208
211
245
241
243
246
245
245
246
246
245
250
249
248
212
214
218
211
213
217
203
206
209
199
200
202
198
198
198
204
204
203
210
210
210
193
193
194
162
167
172
147
155
160
141
153
157
131
145
149
126
140
145
127
140
147
133
146
153
143
156
162
153
164
172
159
167
175
169
175
180
196
200
202
220
221
222
225
225
225
235
235
235
242
242
242
200
207
210
193
201
204
188
196
199
189
195
198
191
194
197
195
198
201
191
195
198
181
185
188
169
175
180
152
161
166
142
154
158
136
149
152
135
146
149
138
148
151
144
154
157
154
164
167
161
169
177
165
172
181
171
178
183
179
187
188
202
207
207
227
228
228
241
241
241
239
240
240
185
194
198
185
194
199
182
191
196
181
189
194
180
186
191
176
182
188
172
178
184
169
176
181
163
171
176
152
161
166
141
150
155
133
143
148
132
144
150
134
147
153
138
152
158
145
158
164
150
163
170
155
167
173
171
180
184
177
184
185
192
197
197
224
228
227
232
236
235
239
243
242
175
184
188
177
186
191
177
186
191
168
178
184
161
172
181
157
169
178
155
167
175
153
164
173
150
159
164
143
153
158
139
148
154
136
145
150
137
148
152
144
155
159
146
157
161
147
158
162
153
163
167
165
174
177
181
187
187
195
197
195
186
188
185
214
218
217
227
231
230
237
242
240
170
182
185
170
182
186
170
181
185
161
173
178
157
169
176
155
166
171
154
163
167
153
161
166
146
155
161
147
154
159
151
155
158
160
162
164
166
166
164
171
172
168
156
159
157
107
111
111
176
177
172
188
190
184
121
125
122
187
188
184
191
192
188
208
211
210
237
238
240
239
241
243
162
176
179
160
174
177
158
172
175
158
171
174
156
167
170
156
164
166
156
160
160
136
138
136
126
127
126
149
149
147
152
150
147
159
157
152
169
170
166
160
165
163
126
134
134
60
71
74
181
183
179
164
165
161
60
70
72
185
195
193
194
198
197
184
188
192
229
236
238
226
232
232
143
157
160
139
153
156
133
147
151
136
149
153
136
146
150
138
146
147
139
142
142
122
123
121
116
118
114
127
131
129
124
131
132
125
135
137
133
145
144
126
140
139
73
90
91
41
59
62
118
133
132
93
104
103
59
63
64
126
114
111
140
118
113
121
111
108
131
147
142
132
157
156
88
95
96
100
107
108
100
107
107
107
117
118
96
109
110
105
115
116
130
135
136
136
139
137
130
134
128
126
130
130
133
139
140
130
139
135
131
145
145
130
145
146
119
131
130
115
125
123
82
90
89
62
60
59
85
61
58
90
41
34
94
42
32
94
69
60
95
101
97
79
99
100
73
72
69
74
74
70
87
86
83
82
88
83
58
73
67
53
67
65
62
77
79
85
98
99
94
106
99
102
111
112
99
108
109
102
113
107
103
115
117
109
122
129
98
111
117
102
114
120
51
64
70
33
43
49
41
46
51
41
40
44
43
41
45
55
60
68
57
70
82
45
58
66
103
109
109
91
97
97
89
95
95
82
88
85
71
77
72
45
53
52
25
37
41
37
51
57
41
58
65
44
61
74
32
49
63
52
69
78
50
64
73
71
86
97
50
68
82
60
81
96
9
34
56
2
28
51
2
30
49
0
29
46
0
27
42
1
25
41
1
23
45
2
25
45
117
127
128
113
123
124
110
120
122
107
117
118
97
106
107
64
74
75
39
49
50
37
48
49
29
42
42
27
40
43
27
39
45
34
46
55
25
38
48
31
44
56
27
41
53
29
43
55
7
26
40
2
23
38
2
20
35
2
17
33
2
16
31
2
15
30
1
16
31
0
19
33
109
119
120
104
114
115
102
112
113
98
108
109
93
103
104
78
88
89
65
75
76
65
75
74
64
72
63
61
68
61
56
62
59
55
62
62
46
54
57
49
57
61
36
45
49
29
37
41
15
26
29
8
20
22
5
13
17
3
7
12
2
4
9
1
4
8
0
4
7
1
8
9
103
113
114
99
109
110
98
108
109
94
105
105
91
101
100
83
94
92
73
83
82
65
76
73
63
74
68
64
75
69
65
76
72
66
77
74
66
77
76
66
78
76
57
69
67
55
66
65
37
53
51
27
44
43
21
34
34
18
28
29
15
24
24
13
23
21
11
23
20
11
24
20
99
109
110
97
107
108
94
104
106
89
100
99
87
98
94
82
93
89
72
84
79
64
75
71
61
72
68
61
72
68
63
74
70
63
74
71
65
75
75
66
76
77
59
69
70
56
66
67
50
64
64
45
59
59
39
50
51
38
45
47
36
44
46
34
49
49
37
51
51
37
51
51
94
104
105
92
102
103
89
99
100
86
96
95
81
92
88
77
88
84
70
81
77
64
75
71
60
71
67
60
71
67
61
72
68
61
72
69
62
72
72
62
72
73
58
68
69
56
66
67
53
66
66
50
64
63
47
58
58
47
53
55
45
54
55
48
61
61
56
70
70
63
77
77
87
97
95
85
95
93
83
94
91
79
90
87
75
86
82
72
83
79
68
79
75
62
73
69
59
70
66
58
69
65
59
70
66
59
70
67
60
70
70
61
71
72
58
68
68
55
65
66
56
68
66
53
65
62
53
64
61
54
64
61
54
64
63
60
71
72
72
83
83
83
94
95
82
93
89
79
90
86
78
89
85
74
85
81
70
81
77
67
78
74
63
74
70
58
69
65
57
68
64
55
66
62
56
67
63
56
67
64
57
68
68
58
68
69
56
66
67
54
64
65
56
66
64
54
65
61
55
66
62
58
69
65
60
71
69
66
76
77
75
85
86
88
97
99
73
85
81
72
84
80
70
82
78
66
78
74
64
75
71
63
74
70
61
72
68
57
68
64
53
64
60
52
63
59
53
64
60
53
64
60
54
64
63
54
64
64
53
63
63
52
62
62
54
64
62
54
65
61
56
67
64
60
71
67
64
74
72
69
79
79
76
86
86
84
95
94
71
86
81
67
81
76
67
82
77
65
78
74
64
75
71
60
71
67
57
69
64
54
65
61
50
61
57
50
61
57
49
60
56
49
60
56
50
61
57
51
62
58
51
62
58
50
61
58
52
63
59
54
65
61
56
67
63
60
71
67
64
75
71
72
83
79
82
92
89
82
93
89
64
79
74
59
74
69
57
72
67
57
70
66
56
67
63
54
65
61
52
63
59
48
59
55
47
58
54
47
58
54
46
57
53
47
58
54
48
59
55
49
60
56
49
60
56
49
60
56
50
61
57
52
63
59
55
66
62
59
70
66
63
74
70
73
84
80
83
94
90
85
96
92
