P3 24 24 255
87
56
45
89
58
49
130
95
83
118
80
67
86
46
31
100
60
39
95
58
38
94
61
45
94
64
51
91
66
57
118
99
94
115
96
91
104
84
80
85
66
62
102
79
74
129
105
99
167
151
147
219
214
213
251
253
254
252
254
254
254
254
254
254
254
254
254
254
254
254
254
254
116
79
66
70
38
28
120
91
80
119
83
72
95
49
38
133
82
62
132
85
62
112
69
48
111
71
54
84
50
38
79
53
46
83
57
49
74
47
39
64
37
30
74
42
34
87
55
45
80
56
48
136
121
117
232
226
223
253
254
252
250
254
253
251
254
254
253
254
254
254
254
252
141
88
72
102
60
46
100
69
60
96
61
55
96
50
44
116
62
48
139
88
67
148
101
77
134
88
68
101
62
49
80
51
41
96
67
53
99
68
54
96
62
53
89
53
43
107
72
59
105
74
62
110
83
73
165
141
133
230
223
218
250
254
253
247
252
253
251
255
254
254
255
250
130
89
69
94
59
41
97
65
52
157
127
113
142
109
94
98
55
44
79
34
19
143
98
78
179
133
112
133
92
76
92
61
49
96
63
47
101
67
50
118
80
69
102
66
53
111
77
60
116
81
65
131
96
83
142
105
95
153
130
122
226
219
215
253
253
252
249
253
253
252
255
253
158
127
104
117
80
62
105
61
48
133
98
80
134
107
87
108
76
66
63
27
18
86
46
31
133
90
72
135
93
77
93
59
45
103
67
49
98
61
43
113
73
60
110
73
58
113
80
60
106
68
51
129
86
71
142
96
83
123
86
74
162
140
132
225
215
213
253
253
253
250
254
253
152
121
98
154
108
93
131
78
70
122
79
65
117
88
70
73
49
40
53
25
18
86
53
43
81
43
30
99
61
47
99
65
51
116
81
62
115
78
60
104
65
51
107
69
56
109
74
56
111
71
54
137
91
75
150
100
85
125
80
66
123
90
80
143
124
120
206
199
197
247
245
243
149
112
91
129
84
70
129
84
76
123
85
75
110
82
69
57
37
29
48
25
20
103
75
71
88
56
49
86
54
43
99
68
55
129
97
80
126
91
74
102
65
54
89
52
42
108
71
57
119
79
64
126
81
66
131
83
68
121
77
61
109
74
62
93
68
62
125
107
104
207
193
190
171
131
108
96
59
42
75
46
36
85
60
52
92
68
59
69
50
40
70
49
44
118
94
93
91
66
62
70
44
37
87
59
50
80
53
41
91
62
49
111
77
68
111
74
66
127
89
79
121
80
68
123
80
66
125
80
64
118
77
61
104
71
59
87
59
52
100
73
69
154
127
122
151
113
83
147
110
90
84
54
42
74
48
39
70
47
40
58
39
35
65
42
39
108
82
79
104
82
77
57
38
33
52
34
32
42
25
24
52
32
28
80
52
45
104
69
62
130
91
83
120
82
67
127
83
67
122
71
58
106
64
55
85
54
46
113
83
76
106
77
69
129
100
91
106
66
40
116
77
60
89
55
46
91
62
54
91
67
59
70
50
47
61
36
33
82
54
50
81
58
52
59
41
34
47
29
26
37
21
21
50
32
31
69
43
38
82
48
42
94
56
50
100
63
50
131
90
76
142
92
83
99
58
55
68
39
35
83
55
49
106
78
70
135
108
98
127
85
69
85
45
34
81
48
42
83
55
47
86
61
51
100
78
72
85
60
56
75
49
44
79
56
47
68
46
35
83
58
50
66
43
37
62
37
32
71
42
37
76
41
37
95
59
55
80
46
38
96
60
50
132
91
84
82
47
45
49
23
21
55
29
25
92
66
60
106
80
72
153
111
99
117
77
68
108
74
68
95
66
58
56
32
21
82
59
52
90
67
64
73
51
47
85
63
54
67
43
30
100
72
59
106
75
64
91
57
48
84
48
41
94
57
52
99
64
58
86
55
50
71
41
35
91
57
52
67
36
33
52
25
23
75
48
44
92
65
59
68
42
34
172
133
115
127
87
75
95
61
54
106
78
70
84
60
50
42
22
16
54
37
36
44
28
28
87
69
61
96
74
60
88
58
44
114
77
63
127
83
68
108
61
51
139
95
87
102
64
57
110
79
74
95
67
64
75
46
40
97
67
60
93
63
58
103
73
66
91
61
52
75
45
35
177
142
113
104
66
49
71
38
29
76
48
40
90
67
58
58
41
37
35
24
25
30
20
24
62
49
44
97
78
67
75
47
33
115
74
57
160
109
91
163
107
92
175
124
111
111
70
59
120
87
81
90
62
58
90
62
54
153
121
112
124
90
82
118
84
74
101
67
56
109
75
62
206
181
146
140
105
80
121
85
67
130
99
82
100
73
59
73
51
47
36
22
24
22
14
16
30
17
15
62
39
29
93
60
43
145
101
81
160
107
87
142
88
70
151
101
86
106
63
52
112
78
73
69
45
40
117
90
79
188
154
141
123
87
76
127
92
80
118
82
71
113
77
65
241
221
184
203
169
138
158
114
89
185
145
119
158
124
102
83
51
46
54
33
32
25
10
10
56
36
32
74
41
31
102
56
41
153
103
85
166
115
97
134
88
73
117
77
63
101
62
53
78
48
46
38
21
17
92
68
56
150
115
99
107
71
57
132
97
85
121
85
76
102
67
59
207
176
135
191
147
113
149
97
70
166
118
93
168
129
108
111
79
68
71
46
39
51
28
22
78
48
40
114
72
64
152
100
89
144
94
81
137
94
82
116
82
76
97
72
65
98
75
69
67
48
49
22
13
12
42
25
19
100
65
51
119
80
62
150
113
99
124
89
80
106
73
65
205
172
134
194
152
119
153
106
83
129
85
67
118
79
63
111
79
64
93
64
50
91
61
47
80
42
31
132
88
78
177
133
123
145
106
96
84
57
49
37
23
21
36
29
26
54
43
40
45
33
36
12
9
9
41
30
27
114
82
69
160
122
103
191
156
141
137
105
95
103
73
66
228
207
173
233
206
176
209
176
155
147
112
97
114
80
68
127
93
78
116
84
65
119
85
66
110
71
56
129
90
78
125
93
83
82
54
45
48
30
21
34
30
25
19
17
14
26
16
14
21
8
9
9
5
4
29
19
18
78
51
43
130
98
83
152
122
109
105
76
67
76
47
41
228
216
182
236
218
183
221
196
168
158
126
104
122
87
70
92
56
45
98
62
47
123
88
68
114
79
62
84
51
40
71
41
32
63
34
22
74
49
37
66
50
43
43
30
26
45
23
21
52
28
27
42
31
27
46
34
30
49
30
25
60
40
33
66
44
37
61
36
29
81
54
47
235
225
190
236
221
180
229
206
168
201
166
132
187
145
118
139
101
85
161
126
106
169
136
112
130
99
80
93
62
50
107
69
60
122
82
70
130
90
78
108
69
61
90
56
53
85
51
48
91
55
51
84
64
54
99
81
72
80
62
58
34
20
16
51
33
28
56
32
26
88
60
53
251
247
232
237
232
209
227
216
187
222
194
163
220
181
150
196
162
131
234
202
168
228
196
163
167
133
107
124
86
68
110
68
54
108
75
61
108
75
64
121
76
69
135
87
85
112
69
65
122
84
69
107
74
57
98
63
53
129
93
86
116
83
73
95
63
53
95
63
55
85
54
48
254
252
249
245
243
232
218
212
191
207
186
158
211
178
149
220
189
159
235
204
172
237
204
174
182
146
123
134
95
76
109
74
52
94
71
50
117
94
74
139
102
83
146
99
86
140
95
85
118
81
66
115
80
66
125
89
79
176
139
130
162
128
119
105
73
65
133
103
95
95
67
59
255
252
253
236
234
228
218
213
196
224
208
182
214
188
161
218
191
168
229
200
175
238
206
180
209
174
154
192
156
135
172
141
112
121
100
70
149
129
97
183
152
117
192
150
120
184
140
122
131
96
87
128
97
91
115
87
77
149
118
110
151
120
115
120
90
81
115
87
74
94
67
51
