P3 24 24 255
57
54
62
61
57
68
68
65
71
73
73
71
73
76
68
70
76
64
67
73
59
66
76
56
79
96
57
102
122
59
115
134
59
118
135
62
121
143
54
123
148
46
126
152
41
126
154
35
124
152
34
123
153
29
121
155
22
118
155
19
116
155
21
117
153
24
116
151
22
112
152
22
70
81
46
79
90
53
90
100
58
93
104
54
98
113
49
99
121
50
100
126
54
108
139
49
118
155
41
127
165
39
127
165
34
126
163
33
129
166
30
130
169
27
129
168
23
126
166
17
124
163
20
124
161
20
123
159
22
116
158
16
110
157
8
110
151
16
113
150
20
111
147
22
107
139
36
113
145
39
116
149
39
117
151
41
118
157
40
115
160
39
112
161
37
118
168
29
122
167
24
119
163
22
119
163
24
120
164
25
123
163
23
124
163
22
122
161
21
119
158
18
120
157
23
117
155
19
113
147
25
105
135
28
112
142
20
109
137
22
105
131
31
102
132
21
108
149
23
110
151
28
111
151
31
112
155
36
110
156
40
111
156
39
110
159
27
114
165
21
120
162
22
120
162
22
120
162
21
118
159
19
122
158
24
123
158
27
119
154
23
118
153
22
120
151
26
113
150
14
102
137
19
79
88
20
110
108
39
108
113
35
95
109
30
107
136
24
106
146
25
108
148
34
112
150
43
110
146
42
109
139
47
113
137
46
117
149
27
121
160
24
121
158
22
125
162
23
125
163
21
125
163
19
129
162
23
128
161
23
123
155
17
122
154
16
125
153
19
119
153
7
119
145
27
99
88
38
112
83
56
106
91
41
112
118
22
115
143
10
118
154
15
122
156
24
123
158
33
118
142
34
105
108
43
111
109
44
132
145
33
133
161
35
131
163
30
133
167
28
136
170
26
135
169
22
131
163
15
129
159
11
126
156
9
126
156
9
128
156
11
127
151
4
137
141
34
128
103
57
121
83
65
111
84
45
127
126
22
121
143
3
130
156
12
131
156
17
132
157
22
136
151
33
118
110
45
118
108
45
140
155
32
125
159
25
123
153
21
129
159
21
132
164
19
130
162
13
129
157
12
133
159
15
133
159
15
131
157
14
125
154
10
138
148
18
140
117
39
131
97
62
135
102
68
127
96
59
114
99
37
116
125
12
127
152
13
126
150
17
127
151
23
134
152
34
125
119
50
116
100
36
133
141
23
132
152
20
141
153
24
138
155
22
135
158
20
134
157
17
141
151
25
141
141
32
139
135
29
140
132
27
147
136
34
155
133
36
135
98
45
120
87
59
110
94
36
121
111
38
102
98
30
112
121
18
122
154
10
121
151
15
116
146
17
119
142
23
120
110
49
132
105
49
144
133
40
191
178
77
177
152
66
123
108
22
131
125
35
131
125
33
143
124
36
144
113
48
162
123
61
156
109
52
163
108
52
158
109
43
137
99
60
106
81
49
109
110
24
125
145
20
120
140
19
117
138
10
119
150
11
118
149
13
116
147
14
123
143
26
112
93
46
122
85
52
172
149
87
203
173
110
125
78
41
109
70
31
137
103
57
159
123
71
158
120
59
164
123
73
170
126
76
161
114
66
167
116
66
162
117
67
131
99
68
99
84
34
123
133
24
128
155
13
123
150
11
121
148
5
114
144
10
114
144
11
120
151
18
130
148
32
108
83
47
112
70
58
174
144
110
139
98
60
126
79
44
150
110
69
180
142
93
188
146
91
171
127
70
183
138
89
177
132
75
163
118
61
170
126
76
160
122
86
108
85
53
99
97
22
121
140
17
120
150
8
121
152
9
122
153
10
114
144
11
115
145
14
121
152
21
130
148
34
117
96
62
102
65
61
132
99
76
131
86
55
140
98
64
172
139
99
198
169
123
183
150
99
174
135
76
194
153
94
186
145
73
177
134
62
167
128
78
131
102
72
95
83
33
111
123
20
118
143
14
118
145
11
121
149
12
115
143
9
116
147
10
120
150
20
120
149
26
123
144
32
112
102
62
80
55
45
102
78
49
174
132
91
158
112
69
179
145
100
199
172
124
183
156
106
177
147
91
182
148
89
194
156
81
200
155
81
163
126
80
91
69
36
107
107
30
117
140
15
117
145
13
126
149
12
126
149
9
121
144
9
114
144
11
117
146
20
114
142
24
117
140
27
94
96
41
73
60
37
123
105
59
171
133
91
156
114
62
175
142
80
191
165
99
179
154
89
160
134
86
169
139
87
188
153
79
186
144
82
133
100
71
73
60
16
118
127
22
125
150
15
121
146
12
126
147
8
127
147
7
123
142
12
113
141
15
113
140
18
113
139
21
118
143
23
100
111
32
91
85
45
157
140
75
138
104
74
115
86
52
146
120
79
153
128
79
144
118
71
124
98
64
153
123
76
177
145
76
128
94
48
88
59
50
89
83
20
133
147
20
131
149
16
129
146
13
127
144
11
127
143
15
117
130
17
112
137
7
114
139
11
114
139
14
129
154
23
113
126
28
103
97
46
154
137
71
115
88
47
109
89
44
92
68
56
93
73
38
93
73
38
79
60
21
105
83
35
155
128
78
101
75
35
76
53
34
115
108
39
136
147
25
124
136
11
121
133
9
119
131
8
122
134
12
120
130
17
121
144
10
124
146
15
126
148
20
134
155
24
117
127
28
105
95
47
124
107
55
110
92
38
131
121
42
81
65
36
112
107
25
126
124
30
107
105
21
123
113
41
112
93
46
104
88
35
89
73
25
107
98
31
128
133
25
124
130
15
124
128
16
122
127
15
122
129
12
122
128
14
121
140
11
122
140
14
126
144
20
128
145
24
119
123
34
110
95
55
103
86
42
107
96
36
117
108
34
95
82
46
123
125
21
134
144
13
132
141
18
138
137
33
105
92
32
110
102
28
124
115
35
105
95
26
123
123
25
132
132
22
133
129
26
130
128
21
128
127
15
127
126
16
117
130
12
117
131
15
116
129
17
123
136
26
125
126
40
108
90
46
108
95
37
109
107
28
108
93
34
107
93
49
111
112
23
123
133
14
129
140
12
132
135
16
114
104
35
107
102
22
141
136
32
116
105
32
125
120
30
144
138
30
143
133
33
133
127
21
131
125
16
128
122
17
118
128
18
123
132
26
124
133
29
126
134
31
135
132
43
119
103
39
124
117
31
126
129
22
127
115
31
117
105
31
124
123
28
126
134
18
129
136
17
130
130
14
117
108
32
112
106
28
138
133
28
113
105
26
124
119
27
131
125
16
136
126
23
134
126
18
136
127
20
133
122
21
125
129
20
131
134
32
131
134
34
130
130
31
134
126
40
126
118
35
135
133
26
133
136
19
136
129
30
120
108
30
134
130
25
130
137
14
131
133
19
133
131
23
119
115
25
110
106
24
124
120
34
109
106
23
123
122
23
122
122
16
125
122
15
130
123
16
133
123
20
133
117
22
128
124
15
131
126
26
136
130
32
135
130
35
128
122
45
128
125
45
131
135
33
117
122
17
122
121
28
112
103
33
121
120
28
123
131
23
119
126
21
122
125
28
115
113
31
107
101
31
109
104
36
101
99
23
112
112
20
114
115
19
114
114
17
117
113
16
117
110
18
119
108
23
118
118
18
117
116
25
119
117
28
124
124
36
114
114
43
114
116
46
115
123
35
106
116
27
101
108
25
100
99
33
94
95
22
97
107
20
93
107
15
94
104
19
102
102
36
92
83
34
85
78
23
94
92
22
102
101
20
97
97
14
99
99
17
102
102
19
101
100
22
97
94
22
96
110
22
97
108
30
95
107
30
106
115
34
107
111
39
99
105
38
96
106
26
94
106
28
89
100
23
95
99
29
92
95
29
91
100
20
85
99
13
87
97
19
97
98
35
75
68
20
80
75
20
92
92
22
92
93
16
94
96
18
93
94
18
92
95
20
90
93
23
83
85
21
