P3 24 24 255
141
234
237
124
149
167
164
117
151
153
165
174
180
172
178
118
64
71
150
164
133
197
208
169
209
217
177
179
197
159
195
224
190
222
252
228
226
251
235
233
251
242
241
252
250
216
231
213
169
192
145
198
223
162
229
249
196
229
242
209
203
181
172
121
57
64
121
51
60
125
50
61
193
249
245
199
174
199
193
77
135
173
160
179
180
187
191
118
58
68
136
143
113
187
200
156
183
194
149
141
163
121
189
222
185
217
255
227
222
255
238
230
255
247
243
255
255
228
241
226
185
209
166
169
199
141
211
240
189
219
247
210
186
173
162
120
54
63
121
49
60
126
49
62
203
234
225
242
225
239
174
99
142
145
160
170
170
190
190
125
54
68
162
132
112
212
201
164
151
157
113
129
148
105
201
232
195
209
246
217
216
251
231
228
255
246
239
253
250
234
249
234
204
228
194
181
209
164
211
236
197
232
255
225
168
152
143
116
49
59
123
50
62
128
49
63
169
195
184
219
229
230
184
187
199
137
187
183
149
162
163
127
48
65
168
104
95
204
172
141
133
131
90
143
157
116
202
229
192
200
235
205
212
245
224
228
255
243
235
255
246
232
253
238
217
240
217
204
225
196
214
229
202
237
244
224
159
132
127
113
45
56
122
47
60
127
48
62
155
192
186
189
190
195
207
228
231
157
189
189
120
83
101
133
45
63
145
70
64
146
118
85
153
146
108
176
183
144
185
206
170
190
220
191
204
235
213
221
248
232
219
249
233
223
253
238
227
252
236
231
244
231
226
223
212
183
167
158
126
84
84
113
44
55
116
42
55
122
42
56
157
201
199
226
214
228
234
239
245
155
155
164
111
37
66
148
48
71
138
58
59
112
81
57
166
146
118
187
187
154
156
177
143
172
201
171
191
218
196
207
232
214
165
201
179
192
227
209
229
253
242
246
255
250
230
219
216
130
94
93
107
49
54
116
43
55
115
38
51
117
37
52
161
199
197
220
231
240
233
248
255
174
176
185
112
50
73
153
45
75
149
51
72
131
68
72
166
121
111
178
173
149
99
128
93
98
134
102
185
212
189
203
226
209
85
114
95
128
153
137
223
242
231
242
254
246
206
197
191
114
70
70
113
41
50
122
40
54
121
40
54
119
40
53
151
192
191
162
206
205
198
235
236
192
192
200
119
60
80
149
45
74
163
53
80
155
64
80
153
98
95
180
172
150
114
143
108
102
138
105
193
221
197
215
238
221
144
169
151
146
167
152
229
245
235
246
255
249
199
189
183
104
55
56
113
36
46
120
35
50
126
43
58
124
44
57
146
197
193
122
190
180
156
208
200
185
174
183
124
62
81
141
47
72
162
51
77
161
57
75
140
83
80
191
183
160
186
212
177
194
226
194
207
233
210
227
249
233
224
246
230
225
242
229
237
250
241
246
253
247
216
203
198
123
70
72
111
31
41
121
37
52
128
46
60
127
47
60
128
186
178
111
185
167
141
187
174
175
151
159
125
56
75
138
51
71
152
50
71
153
51
68
136
82
77
189
179
157
195
217
183
182
211
179
152
178
153
188
212
195
230
252
236
241
254
244
244
253
246
244
248
242
165
148
144
118
60
64
118
35
47
121
39
53
124
42
56
127
46
59
82
143
126
63
124
103
111
141
128
133
106
112
131
59
78
145
55
76
149
54
72
146
61
70
139
91
83
195
185
161
194
212
179
145
170
139
45
69
44
113
140
119
226
247
231
239
252
241
248
254
248
250
251
246
155
133
131
106
43
49
121
36
48
116
34
48
116
34
48
126
44
58
35
92
64
54
102
76
83
110
91
124
116
112
133
67
85
154
49
76
158
54
75
147
71
77
158
120
108
197
193
166
185
203
168
144
166
134
19
39
16
101
128
107
223
247
229
239
252
241
247
253
246
255
255
251
171
147
145
105
39
45
116
29
42
114
31
46
110
28
42
115
33
47
30
74
42
48
89
58
58
100
72
124
147
132
160
113
125
153
41
73
165
49
77
157
82
88
195
169
151
200
204
173
167
187
150
138
157
125
69
88
64
138
165
143
216
241
222
237
252
239
246
254
246
251
251
246
180
155
153
113
45
52
114
27
40
109
28
42
103
21
35
108
25
40
44
69
41
28
63
30
30
85
50
74
123
100
149
130
136
145
53
82
156
49
77
157
88
95
206
195
171
188
202
167
149
173
134
139
157
124
144
162
136
178
205
182
211
237
218
232
250
236
243
254
245
253
254
248
209
185
183
122
55
62
114
27
40
103
21
35
99
17
31
106
22
37
53
56
41
44
63
38
33
75
44
49
97
76
120
133
132
131
94
109
125
66
80
161
120
119
197
202
172
176
200
160
152
180
139
159
177
143
170
187
160
192
218
194
219
247
227
228
249
234
237
250
240
255
255
252
215
193
191
114
47
54
116
29
42
100
20
33
99
17
31
102
17
33
67
52
49
47
39
25
52
60
40
41
67
54
91
129
122
87
119
114
146
157
152
174
175
162
183
202
167
168
199
157
158
188
146
163
181
146
154
170
143
168
194
170
201
232
211
222
245
230
240
253
244
253
255
252
210
192
190
106
40
46
118
31
44
102
22
35
98
16
30
100
16
31
67
52
53
61
52
38
80
71
52
38
44
37
27
68
65
51
115
105
129
179
161
163
191
163
178
204
166
172
202
162
164
191
151
165
183
148
168
185
156
166
192
164
201
230
206
235
253
242
244
255
252
251
255
252
207
191
186
95
32
36
114
29
40
106
25
36
100
17
30
104
18
33
62
51
48
55
57
34
86
78
51
50
43
38
16
37
46
43
92
94
121
166
144
172
201
163
178
203
166
174
196
161
168
187
154
165
182
150
164
185
153
170
197
163
214
239
211
241
255
246
247
255
255
253
255
255
220
205
197
97
39
38
102
20
28
103
21
29
103
19
30
108
22
35
66
20
27
71
34
27
77
35
23
89
59
62
29
37
51
32
76
80
121
166
143
172
203
160
175
196
158
168
184
150
168
183
150
181
198
167
166
188
157
180
207
175
218
242
215
242
255
248
247
255
255
253
255
255
236
221
213
102
43
44
97
17
25
98
20
26
92
12
21
97
15
26
123
27
49
132
38
54
139
52
63
112
56
70
40
36
52
28
66
69
110
157
131
153
184
139
170
187
146
161
174
137
151
164
130
186
203
172
176
199
170
196
224
195
212
239
213
239
255
248
247
255
255
253
255
255
236
220
212
98
37
40
85
6
14
88
14
18
91
16
22
98
21
29
160
25
58
169
27
64
155
34
63
111
36
59
67
53
70
38
67
69
91
131
104
146
174
128
160
171
128
143
151
112
145
154
120
183
198
168
186
209
182
205
233
206
206
236
212
233
252
246
246
255
255
252
255
254
227
210
203
117
54
59
109
28
38
117
44
47
127
52
57
131
54
61
149
6
40
160
6
49
147
18
55
93
19
41
78
62
75
48
65
66
84
109
85
145
162
117
142
147
103
138
141
101
146
152
117
180
192
162
202
223
196
208
236
212
195
226
204
229
249
243
245
255
255
251
255
252
194
176
167
112
50
55
132
48
59
130
51
56
129
49
55
133
51
58
134
5
34
149
5
47
140
25
59
84
20
37
59
39
48
36
36
38
66
70
50
131
134
93
138
139
94
135
135
94
137
139
104
180
189
160
217
235
209
197
223
198
181
211
189
222
244
236
241
255
254
247
255
247
174
158
146
93
32
35
118
32
43
127
40
46
126
37
45
129
39
49
110
9
29
134
16
50
128
37
61
71
21
28
27
4
7
23
4
7
43
24
12
130
118
84
145
143
100
125
123
83
129
128
94
183
188
158
219
232
205
189
211
184
177
204
180
210
231
220
240
255
250
249
255
245
180
167
149
74
19
18
102
18
28
116
25
32
119
27
35
130
35
46
