P3 24 24 255
197
199
205
131
111
120
114
62
86
116
73
93
66
49
58
97
71
77
131
68
80
120
73
79
71
49
55
164
147
156
188
158
174
222
216
187
206
214
196
180
191
182
171
186
176
176
198
153
186
201
110
200
201
43
230
229
24
221
224
94
183
205
150
203
215
209
238
234
186
228
226
177
192
191
202
118
87
98
115
71
94
104
66
88
57
40
55
58
19
26
104
55
59
125
85
86
170
109
122
179
151
159
165
131
147
213
204
165
225
233
183
184
196
165
168
182
176
169
198
150
175
204
77
208
211
27
241
236
32
227
221
115
177
195
140
201
216
168
217
224
147
213
217
172
201
199
213
114
82
98
105
67
92
105
74
97
106
87
106
137
104
114
90
56
60
97
65
68
154
93
111
103
74
83
57
27
40
170
161
125
228
242
154
193
211
149
179
195
175
171
196
165
179
200
108
217
214
72
245
237
52
236
232
69
180
193
105
198
204
141
192
200
118
173
192
141
207
210
225
114
87
105
153
124
151
180
158
182
176
155
179
190
165
177
143
86
102
89
52
61
79
66
71
86
59
67
45
12
27
144
135
98
212
230
123
195
214
141
183
203
165
169
194
166
188
205
140
224
218
93
237
235
18
231
232
42
165
179
88
174
185
100
190
192
103
173
184
127
196
205
221
137
119
140
196
175
202
170
156
182
168
146
175
184
163
178
118
74
89
94
64
75
73
56
66
86
59
67
48
15
31
124
116
77
215
233
132
199
216
154
174
196
141
157
180
154
182
204
114
226
234
32
234
234
8
221
223
66
158
177
110
183
207
91
210
237
124
189
226
140
186
196
213
139
125
142
135
112
145
139
121
152
170
143
176
152
127
148
70
52
62
66
53
61
83
50
66
91
58
67
98
67
82
170
161
129
240
249
173
207
223
166
168
196
128
167
195
170
191
211
115
238
244
22
247
242
74
231
245
86
163
194
137
165
195
134
186
159
106
148
111
73
189
196
209
159
139
150
166
133
175
171
139
176
182
151
182
141
112
139
158
138
152
53
44
54
55
39
51
96
56
65
145
128
138
194
183
165
248
242
189
220
222
167
183
197
153
182
201
172
199
212
100
240
235
65
235
229
105
197
180
86
102
80
64
82
45
57
116
23
34
122
44
52
202
209
220
213
193
204
143
112
145
163
133
158
140
111
129
162
145
152
203
191
192
119
95
101
85
47
57
108
70
75
61
65
64
180
168
154
167
143
112
140
116
98
118
90
100
84
58
85
104
88
79
107
85
70
101
62
58
111
44
67
78
12
22
116
18
32
128
60
61
203
109
83
184
192
207
184
164
173
149
118
144
135
105
127
131
103
119
88
77
69
87
73
57
154
117
109
129
71
68
100
57
59
83
89
84
193
173
168
73
45
58
86
59
80
116
81
106
92
52
70
78
47
62
74
39
82
102
38
58
114
37
51
57
36
42
119
52
60
140
95
83
165
83
59
182
189
204
176
157
165
180
150
173
125
95
123
109
77
111
75
61
73
90
68
72
120
69
72
125
54
52
127
70
72
180
158
159
156
122
128
93
66
95
104
80
109
99
68
84
94
61
70
86
50
77
113
59
94
140
56
59
169
56
34
102
38
47
138
63
76
144
68
66
88
36
32
188
195
209
187
168
173
178
150
171
144
110
148
112
78
130
111
88
135
135
102
149
151
91
126
134
59
70
164
95
100
169
119
130
117
69
84
180
147
158
134
103
117
90
52
71
108
76
92
104
72
85
153
84
72
183
95
60
182
67
48
164
34
40
159
84
82
132
42
50
97
52
62
193
195
209
193
171
162
189
171
180
206
180
203
159
134
177
114
84
131
119
84
139
118
75
111
127
72
71
148
100
101
223
199
211
176
144
155
164
132
148
121
91
108
75
45
58
78
53
55
75
43
37
204
125
88
196
106
69
184
57
48
187
56
33
157
75
58
111
26
43
133
76
82
200
206
221
245
223
216
218
198
205
218
229
234
216
200
229
149
111
166
134
103
153
109
75
106
100
50
60
98
58
48
221
223
220
160
151
153
128
100
118
107
79
97
71
44
54
52
30
38
121
70
54
227
147
102
191
91
68
215
58
45
211
96
54
181
60
48
130
52
64
154
117
114
202
213
232
239
227
226
223
214
217
164
163
170
198
189
204
197
172
213
168
143
168
203
183
191
173
126
136
178
108
99
231
219
218
150
115
127
118
82
103
65
38
55
60
33
42
55
31
45
159
84
59
221
133
85
191
76
65
210
56
30
224
86
43
213
56
52
152
101
102
158
125
122
176
192
216
229
230
232
229
223
220
202
161
172
205
190
193
189
180
191
198
180
179
224
215
202
223
207
198
224
193
181
175
177
179
123
106
119
81
51
71
58
30
47
55
28
38
63
29
34
195
106
80
211
102
64
188
56
47
198
70
33
215
56
22
187
53
50
119
94
90
106
62
63
155
176
205
223
224
232
238
212
215
200
166
169
222
192
190
206
190
191
204
190
196
204
199
197
233
240
228
175
170
169
84
73
91
116
94
115
110
81
102
80
51
69
51
26
38
115
73
65
209
119
99
208
82
58
207
55
43
211
87
56
215
85
50
139
76
63
80
52
57
111
73
71
158
172
200
173
170
172
225
191
190
238
217
213
224
199
200
238
216
218
206
175
179
194
163
170
172
160
167
78
60
74
66
41
62
83
54
76
93
72
93
74
44
56
43
12
24
154
74
50
212
84
70
195
47
36
208
59
42
225
106
75
227
160
125
119
75
78
72
36
35
80
50
54
164
176
194
171
173
166
234
209
204
234
211
208
213
191
191
168
138
141
128
76
79
124
68
79
136
103
122
83
66
82
73
57
72
74
58
74
47
38
60
78
49
60
74
35
46
180
80
53
223
93
53
202
64
45
214
93
58
228
116
75
172
116
92
117
66
79
79
48
38
68
31
42
174
190
197
180
189
180
189
174
174
198
172
172
114
77
75
78
37
40
87
40
50
186
135
152
176
144
162
95
78
94
67
49
65
94
75
92
51
46
71
64
38
52
86
43
50
200
108
79
217
121
69
211
104
73
217
128
75
217
106
63
126
52
42
114
75
81
104
64
60
105
62
73
188
206
211
173
190
185
162
155
152
161
131
132
110
68
67
69
38
38
82
55
64
191
160
177
127
107
122
85
67
83
72
54
70
102
84
101
82
76
102
54
28
42
86
43
51
202
114
80
174
82
61
192
94
65
215
136
81
232
129
92
144
77
77
88
60
62
146
93
98
136
99
109
182
200
216
169
188
197
203
199
189
206
179
180
137
95
100
77
46
48
102
77
90
151
120
144
85
63
80
66
49
65
76
58
75
68
51
68
71
62
83
86
57
69
86
48
59
210
123
97
190
82
66
198
84
58
220
125
65
226
137
89
130
91
92
63
43
42
80
49
49
95
61
69
195
217
228
200
218
225
208
197
185
223
193
191
157
122
131
109
76
87
93
61
79
141
107
130
119
91
109
116
94
107
118
96
110
80
57
72
88
71
88
122
91
102
89
47
55
192
101
86
206
103
61
197
88
54
221
122
69
185
119
82
94
66
67
73
48
47
77
56
55
76
42
52
158
172
167
153
155
152
127
104
101
155
122
121
126
97
110
82
58
74
71
47
61
122
99
113
163
138
151
186
157
167
131
101
111
118
87
97
133
103
121
111
81
92
138
86
90
181
94
76
227
128
72
223
108
65
212
116
77
133
83
79
104
66
68
105
65
66
123
80
88
76
43
55
68
52
64
60
40
54
86
58
69
108
75
88
89
58
79
102
77
94
72
48
62
121
99
111
144
118
131
204
175
185
140
111
121
105
75
85
124
93
110
134
105
117
135
86
94
123
60
53
170
82
62
175
67
61
151
72
62
120
81
80
101
62
67
108
68
73
114
79
86
88
52
65
