P3 24 24 255
166
125
110
175
133
118
186
149
136
189
154
142
188
152
140
188
152
139
186
150
139
182
146
135
174
138
126
155
114
102
150
105
94
154
110
100
147
104
85
163
120
78
190
148
91
200
157
99
211
170
112
207
165
104
201
156
90
202
156
95
163
111
65
142
89
55
153
105
67
169
128
84
156
113
95
168
126
106
172
133
112
169
131
111
166
127
106
165
126
104
163
124
101
160
120
96
154
113
88
145
101
77
139
92
70
136
85
65
143
87
58
172
117
67
198
148
84
206
159
95
211
168
106
207
162
99
196
143
79
181
128
76
139
80
48
143
91
59
165
124
78
174
137
91
138
93
67
140
93
66
140
93
63
138
91
61
136
88
59
137
88
59
138
87
56
140
88
55
142
89
56
141
85
54
137
77
50
134
73
46
141
77
47
163
99
55
189
133
70
199
147
77
201
150
81
202
152
83
183
128
65
159
104
59
143
87
55
157
110
71
176
139
94
184
151
107
128
75
54
129
74
53
132
75
53
133
74
51
132
72
49
133
71
49
135
72
47
138
74
48
142
78
49
153
89
53
163
99
56
159
95
53
152
87
53
158
92
55
181
121
64
201
146
75
202
148
77
204
153
85
182
130
71
150
97
54
154
103
64
172
129
85
188
152
107
195
162
119
132
72
49
136
75
49
140
76
48
140
77
47
142
78
49
144
79
50
147
82
50
153
88
51
159
96
51
177
118
61
198
144
76
190
133
70
168
106
57
162
99
55
178
118
63
198
145
76
203
152
83
201
151
86
177
126
75
149
97
57
161
114
72
182
141
96
192
157
111
198
164
121
147
86
53
148
86
51
151
86
51
153
89
51
155
91
53
157
94
55
161
101
57
168
108
58
184
126
67
197
143
76
211
163
93
209
159
90
184
128
67
173
113
59
186
129
70
205
156
89
208
162
96
189
141
81
161
112
69
154
104
66
170
126
80
185
147
100
193
159
113
197
164
119
159
97
56
156
94
53
159
96
56
161
99
57
162
102
58
166
108
59
166
110
60
172
115
63
195
143
81
208
161
95
210
166
106
203
160
102
175
127
75
150
100
58
148
99
60
159
113
71
170
125
85
173
129
95
175
137
102
164
120
78
181
140
92
191
155
108
195
162
116
198
165
120
170
110
61
169
109
61
169
109
60
167
107
60
169
109
59
172
118
65
170
122
78
165
117
81
165
116
79
151
106
73
133
89
63
128
84
59
120
78
55
114
75
57
120
83
67
122
80
61
136
91
66
166
126
99
171
133
98
170
128
84
188
148
99
194
157
109
200
165
120
202
170
126
177
122
70
176
122
70
177
123
70
184
133
77
189
138
82
177
128
76
167
121
86
174
134
108
155
113
87
122
76
56
106
59
43
112
68
48
136
95
68
177
144
118
211
192
178
192
171
159
150
114
87
136
94
63
142
96
63
171
130
87
184
144
96
188
149
100
196
159
112
200
166
123
180
128
75
182
130
76
191
141
85
209
169
116
218
181
131
196
156
107
140
93
65
133
85
63
135
88
65
116
71
53
113
68
52
125
81
59
154
114
85
200
173
151
232
223
218
219
208
201
178
145
116
150
108
74
144
100
65
166
124
80
177
136
88
181
142
91
186
148
98
192
155
110
185
134
78
187
138
82
198
153
96
218
183
132
223
189
144
174
135
99
120
77
58
116
71
52
118
73
54
118
76
55
132
88
62
154
109
75
173
132
97
192
163
143
222
208
205
231
221
221
216
201
192
201
180
162
177
142
110
173
130
85
178
136
86
180
138
89
182
142
94
186
149
103
200
155
100
197
152
94
199
157
101
218
182
133
202
163
118
148
101
70
141
94
61
154
110
71
155
112
77
153
113
85
145
104
76
128
87
63
128
92
76
136
106
94
140
109
102
165
136
129
207
191
184
218
206
200
192
162
131
182
138
87
183
141
91
181
140
90
182
142
93
185
147
100
217
181
133
202
161
106
199
156
100
202
164
112
150
108
74
130
85
60
140
98
66
143
104
74
128
91
68
111
75
59
108
70
54
90
54
43
88
51
43
105
66
49
105
65
47
103
62
46
125
87
70
172
140
117
190
159
122
184
141
89
184
143
93
184
142
91
183
142
92
184
144
98
222
189
144
202
161
106
191
149
95
150
107
71
111
68
52
96
58
47
83
49
44
70
39
38
60
30
34
58
27
33
72
39
38
80
46
41
91
55
48
108
72
59
141
112
100
181
160
151
182
159
148
189
160
139
193
162
128
182
142
94
186
144
94
184
143
93
180
139
91
177
136
92
223
188
143
197
153
99
166
121
75
114
69
49
104
62
48
84
51
41
65
35
36
60
30
35
68
38
39
85
53
44
95
60
46
109
71
56
121
84
65
115
77
61
130
96
84
186
165
159
229
218
216
233
224
222
217
202
192
185
151
114
176
135
88
159
117
80
149
112
85
196
169
148
215
180
134
181
138
86
133
88
61
107
64
47
91
52
46
83
51
44
78
48
44
100
69
57
123
84
61
140
90
61
155
101
65
156
104
64
151
101
64
153
105
70
153
107
75
157
122
98
184
161
146
202
189
181
203
188
177
189
159
129
163
123
87
107
66
53
105
74
67
196
170
156
188
142
93
150
100
63
101
57
46
94
56
48
80
47
42
88
53
45
122
84
64
141
99
71
145
98
71
137
84
59
133
75
48
140
82
50
150
92
56
158
104
64
155
107
68
151
106
72
164
125
89
172
140
105
164
130
99
175
138
104
192
158
121
161
128
103
111
78
62
123
88
75
170
115
67
119
67
48
90
49
43
113
79
63
131
93
68
144
102
73
146
102
70
144
95
64
147
98
66
147
101
66
145
99
66
147
100
68
155
106
70
159
111
72
163
118
78
173
129
87
179
136
92
184
143
98
181
143
101
172
134
98
187
152
119
198
169
138
179
146
113
158
123
92
152
101
58
98
52
44
104
64
52
135
95
69
148
107
76
162
119
83
177
136
94
185
145
102
174
132
91
161
118
78
176
133
89
195
154
106
200
161
114
191
152
107
181
142
97
178
138
95
167
127
87
171
133
95
183
149
114
186
157
125
203
179
155
197
176
156
192
161
134
203
175
147
134
82
52
92
48
42
112
72
57
113
74
56
110
73
56
136
96
69
161
122
86
161
123
86
163
123
84
162
119
80
172
131
88
188
150
108
190
155
114
180
144
103
154
117
83
132
93
66
131
89
62
123
84
62
122
86
67
143
108
86
164
133
107
178
151
129
181
153
128
202
184
172
144
91
55
116
68
48
90
52
47
88
54
49
83
49
44
104
66
51
134
96
69
145
107
78
143
102
71
154
110
76
168
128
90
165
128
92
145
107
78
127
86
63
105
65
51
99
58
46
109
68
54
91
52
44
102
61
47
119
78
57
113
72
55
125
86
65
142
110
86
182
161
142
146
96
62
135
86
59
111
65
50
85
46
39
73
39
38
88
52
44
111
72
56
110
71
56
114
72
54
140
96
66
154
114
84
138
99
74
109
70
53
83
46
42
73
38
38
75
42
38
74
40
38
93
55
45
105
64
49
84
49
44
94
58
50
134
97
68
131
92
65
150
119
90
155
107
68
140
93
60
127
80
57
107
63
49
89
50
45
91
52
45
92
54
45
86
49
42
86
47
39
108
70
53
110
69
53
90
49
42
74
38
34
61
30
29
56
25
29
50
19
27
52
21
29
77
41
39
98
60
48
85
51
41
101
68
51
135
101
72
154
120
89
179
146
107
150
98
62
141
91
60
123
75
54
108
63
49
88
48
43
89
51
43
79
41
38
77
38
38
76
37
33
82
42
39
106
61
47
108
66
48
95
61
49
101
67
53
109
74
55
117
81
58
129
92
67
141
104
73
156
117
78
163
126
84
172
134
90
182
144
97
193
157
111
203
170
126
