P3 24 24 255
188
188
168
189
189
168
190
189
170
192
190
172
193
191
173
193
191
173
193
192
173
194
193
173
195
193
172
196
193
172
198
192
172
198
193
170
196
192
171
195
191
173
195
191
172
194
190
171
193
188
169
191
187
169
190
187
169
189
186
168
187
184
167
185
184
166
184
183
165
183
182
164
189
188
168
189
188
168
191
189
170
193
190
172
193
190
172
193
190
172
193
192
172
194
193
173
193
194
172
194
194
174
196
193
175
196
193
171
196
192
171
196
191
173
196
191
171
195
190
170
193
188
169
191
187
169
190
187
169
189
186
168
187
184
166
185
184
165
184
183
164
183
182
163
189
188
168
189
188
168
191
189
169
192
190
170
193
191
171
193
190
171
194
192
171
195
193
170
195
195
171
196
196
177
195
195
176
195
193
173
195
192
171
196
191
170
196
191
170
195
190
169
193
188
168
191
188
167
190
187
167
189
186
166
187
185
165
185
184
164
184
183
162
182
181
161
189
188
168
189
188
168
190
189
168
192
190
169
193
191
170
193
191
170
197
193
172
199
194
167
192
186
156
185
177
153
192
186
161
198
193
171
195
191
170
195
191
168
196
191
169
195
190
168
193
188
166
191
188
166
190
188
166
189
187
166
188
186
165
186
185
164
184
183
162
182
182
160
189
188
168
189
188
168
190
189
168
192
190
167
193
191
168
193
191
168
185
180
160
182
174
145
160
147
111
130
112
80
146
131
97
182
171
143
198
192
169
194
192
168
196
191
168
195
190
167
193
189
165
191
188
165
190
188
165
189
187
164
188
186
163
187
186
163
185
185
161
183
183
160
187
188
167
188
189
168
189
190
167
191
191
167
192
192
168
193
192
168
165
160
139
139
125
99
132
114
79
99
83
51
122
106
62
150
132
94
193
184
157
194
193
170
194
192
167
194
191
166
192
189
164
190
189
164
190
189
164
189
188
163
187
187
162
187
187
163
186
186
162
185
185
161
186
188
165
187
189
166
189
190
166
191
191
167
192
192
168
193
193
169
191
190
163
182
171
140
160
141
95
139
121
77
141
121
74
142
119
75
176
163
130
195
195
168
193
193
167
193
192
166
191
191
165
190
190
164
190
190
164
189
190
163
188
189
162
188
188
163
187
188
162
186
186
161
186
188
164
187
189
165
189
190
165
191
191
165
192
192
167
193
193
167
192
195
168
204
197
165
195
176
125
164
139
87
136
110
67
154
127
83
164
148
108
192
190
158
193
193
166
193
193
165
192
192
164
190
192
164
190
192
164
190
192
164
189
191
163
189
191
163
188
190
162
186
189
160
186
188
163
188
190
164
189
191
164
192
191
164
193
193
166
194
194
167
196
194
168
181
170
145
171
150
108
145
119
75
105
82
46
148
124
80
155
136
94
178
172
139
193
195
165
191
193
163
191
193
163
190
194
163
190
194
163
190
194
163
189
194
163
189
194
163
188
193
162
187
191
160
187
190
163
188
192
164
191
192
165
193
193
165
194
194
166
196
196
168
179
170
137
152
137
104
164
147
104
136
117
75
103
87
56
136
115
74
133
112
71
152
143
111
192
195
164
192
195
164
192
195
164
192
196
164
191
196
164
190
195
163
190
195
163
191
196
163
190
196
162
188
194
160
187
191
162
189
193
164
192
194
165
192
195
165
193
199
167
185
184
154
137
127
93
128
114
78
140
124
84
135
117
76
100
86
51
118
99
62
113
93
54
128
117
87
189
193
161
194
199
167
193
198
166
193
198
166
192
198
165
192
197
165
192
197
165
192
198
163
191
197
161
190
196
160
188
193
163
190
195
165
193
196
165
192
197
165
195
202
171
163
160
135
107
96
70
109
95
65
122
105
71
119
100
61
87
71
35
91
72
38
115
97
56
112
103
70
187
193
160
195
201
167
194
200
166
194
200
166
193
199
165
193
199
165
193
199
165
192
198
163
191
197
161
190
196
160
190
195
164
192
197
165
194
198
166
195
200
168
190
192
165
143
136
117
105
91
73
104
90
63
115
99
65
98
82
45
78
62
29
86
67
34
88
73
30
116
110
74
191
197
163
196
202
167
195
201
167
195
201
166
194
200
165
193
199
165
193
199
164
193
199
163
192
198
162
190
196
160
191
197
164
194
199
166
194
201
166
198
204
170
169
168
140
89
79
57
78
63
42
88
74
43
115
103
65
95
82
47
90
74
39
101
83
47
80
67
26
134
130
95
198
203
168
196
202
166
196
202
166
195
201
165
194
200
164
194
200
164
193
199
163
193
199
163
192
198
162
190
196
160
193
199
165
195
201
167
196
204
169
196
202
166
145
142
109
89
78
48
88
75
45
123
111
72
113
103
62
91
79
45
104
89
49
103
86
47
90
78
39
159
157
126
199
205
169
196
202
164
196
202
165
196
202
165
195
201
164
194
200
163
193
199
162
193
199
163
192
198
162
190
196
160
195
201
168
198
202
169
198
205
172
191
194
160
128
118
81
99
86
48
155
144
107
139
129
89
102
93
53
95
84
47
109
93
49
105
88
49
116
106
73
190
191
161
198
204
170
196
202
168
196
202
167
196
202
167
195
201
166
194
200
164
193
199
164
193
199
164
192
198
163
191
197
162
197
203
169
199
203
170
201
206
174
173
172
138
99
85
46
117
103
62
149
138
101
122
112
76
103
93
57
104
95
57
101
90
49
103
92
55
170
165
133
201
204
171
197
203
168
197
203
168
196
202
167
196
202
166
195
201
164
194
200
163
193
199
162
193
199
162
192
198
161
190
196
159
197
204
170
200
204
171
201
204
171
147
143
107
90
79
38
127
115
75
133
123
87
110
100
65
99
88
54
96
86
51
102
98
62
155
152
117
202
202
167
198
202
167
197
203
166
196
202
165
195
201
164
195
201
163
193
199
161
192
198
160
193
199
160
193
199
160
192
198
160
190
196
158
197
203
169
203
207
174
198
198
167
129
125
91
86
80
42
141
135
98
148
139
106
112
101
70
96
85
54
108
97
66
177
172
141
205
205
172
200
204
170
198
203
169
198
204
169
199
204
170
199
205
170
199
205
169
199
205
168
197
203
167
196
202
166
194
200
163
190
196
160
185
191
154
199
205
172
185
189
157
111
112
83
65
64
35
126
128
93
198
200
167
201
194
165
178
167
138
153
142
114
146
134
106
177
165
136
202
201
170
194
199
168
192
197
167
188
193
163
182
187
157
176
181
151
173
178
147
173
178
146
169
174
141
165
171
138
164
169
137
160
165
133
155
160
128
194
198
172
111
113
93
41
41
24
83
84
63
172
175
148
173
176
148
169
168
139
164
158
129
153
143
115
140
126
100
116
101
77
157
156
128
158
162
134
157
159
132
155
159
129
156
160
129
159
162
132
163
167
134
169
172
138
173
176
142
174
176
142
176
178
145
179
180
147
181
183
149
152
154
131
126
128
109
123
124
106
148
150
127
161
164
137
163
167
136
168
171
139
172
171
140
151
143
114
145
131
104
144
131
105
188
188
159
192
197
166
195
196
166
193
197
163
194
198
164
195
199
165
196
199
163
196
198
160
195
197
160
195
196
159
194
194
158
192
192
156
190
190
154
185
189
158
192
195
165
192
195
165
199
202
172
201
205
172
204
208
173
207
210
176
203
203
171
179
174
144
158
149
119
174
166
133
205
206
170
200
205
168
200
202
167
197
201
166
197
201
165
195
199
164
194
197
161
193
195
158
190
192
155
189
191
154
189
190
153
188
188
152
186
186
150
201
205
171
201
205
170
201
206
170
201
205
171
201
205
170
201
205
169
201
205
169
200
202
168
199
199
165
185
182
149
196
193
156
202
204
165
198
203
163
197
202
163
196
200
163
195
199
162
193
197
160
192
195
158
192
193
156
189
191
154
188
190
153
188
189
152
187
187
151
186
186
150
