P3 24 24 255
137
171
195
140
174
198
142
176
201
143
178
203
144
180
207
146
182
208
147
184
208
147
184
208
148
185
208
149
187
210
149
186
209
148
186
209
148
186
209
146
184
207
144
182
205
143
180
203
142
177
201
140
174
198
135
172
195
129
170
192
126
167
190
121
162
186
118
157
183
118
154
182
137
173
199
140
176
202
142
179
204
145
180
206
147
182
207
149
184
209
151
185
212
151
185
212
151
185
211
152
186
213
152
186
213
152
186
213
152
186
213
151
185
212
148
182
209
146
181
207
144
179
205
140
177
202
136
174
198
133
171
194
130
168
192
125
163
188
120
158
185
116
155
185
139
175
201
141
178
203
144
181
204
147
183
207
149
185
208
150
186
209
152
187
211
153
188
212
154
188
212
154
188
213
155
188
215
155
188
215
154
188
213
153
186
211
150
185
211
148
183
210
146
182
207
142
179
203
139
176
200
136
172
196
133
169
194
129
165
191
124
160
187
118
156
184
140
176
200
143
179
201
147
181
203
150
184
206
151
185
207
152
187
208
154
189
210
156
190
212
157
192
213
157
192
213
157
191
215
157
191
215
156
190
212
154
189
210
152
187
210
151
185
209
149
183
207
146
180
204
142
177
201
137
174
197
134
170
195
131
167
193
126
162
188
120
158
183
141
178
198
146
180
200
151
183
203
153
185
205
154
186
205
156
188
207
158
190
210
159
192
211
157
192
211
158
193
212
159
194
215
159
194
214
156
191
211
156
191
210
156
188
209
155
186
208
152
184
208
150
181
206
144
178
202
138
175
198
136
172
196
132
168
194
127
164
189
122
160
182
145
178
198
149
181
201
152
184
204
154
185
205
155
186
205
157
188
208
160
191
211
161
192
212
161
194
213
163
195
214
162
195
215
161
197
218
161
198
216
158
193
211
159
189
213
156
186
210
154
185
208
152
183
206
147
180
202
141
177
198
138
173
196
133
169
194
129
165
189
124
162
184
148
178
198
150
181
202
153
184
205
155
186
206
156
187
207
159
190
210
161
192
211
163
194
213
164
196
215
167
197
217
165
197
216
165
196
215
162
190
210
162
195
212
161
190
214
157
187
212
155
186
208
153
184
205
148
181
202
143
178
198
139
175
196
134
170
194
129
166
190
125
163
186
148
179
199
151
182
203
154
185
206
156
187
208
158
189
209
161
192
211
163
195
210
165
196
212
167
198
217
168
199
219
169
202
217
165
186
200
101
122
149
140
172
195
165
196
216
159
189
211
157
188
209
154
185
206
149
182
203
144
179
199
140
176
197
135
171
195
130
167
191
126
164
187
149
180
200
152
183
203
155
186
206
157
188
208
159
190
210
162
193
211
164
196
210
166
198
212
168
199
218
168
201
219
173
203
217
188
199
207
86
112
142
104
137
172
166
196
216
160
191
210
158
189
209
155
186
207
150
183
203
146
180
199
141
176
197
136
172
195
131
168
191
127
164
188
149
179
199
152
183
202
155
186
205
158
189
207
160
191
209
162
194
211
164
196
210
166
198
213
169
200
216
169
202
218
185
210
222
197
199
199
77
95
114
85
119
154
160
191
212
162
193
210
158
189
208
155
186
206
152
183
203
148
179
199
142
176
196
136
173
192
132
168
189
128
164
188
148
179
199
152
182
202
155
186
204
158
188
207
160
191
209
162
193
211
164
196
211
167
199
214
169
201
216
170
203
219
185
208
217
122
124
122
37
38
43
64
90
110
149
183
204
165
195
213
157
188
208
155
186
206
152
183
203
148
179
199
143
175
195
138
171
192
133
167
189
128
164
188
152
182
202
153
184
203
155
187
204
157
189
206
159
191
209
163
195
211
166
198
213
169
200
215
170
202
216
176
208
224
160
180
193
51
54
61
26
22
23
43
51
63
132
161
183
166
197
215
158
189
208
156
187
207
152
184
203
148
180
199
144
176
196
140
171
192
134
167
189
128
164
188
150
180
196
152
184
199
156
186
203
159
189
207
161
193
208
161
193
203
165
196
208
169
200
216
169
201
215
180
210
227
145
162
176
38
39
44
26
25
25
34
39
45
124
149
169
165
198
213
155
187
200
154
183
200
152
183
201
148
180
197
143
175
194
140
171
193
135
168
190
130
164
188
151
184
202
153
186
204
154
185
202
155
189
204
162
193
208
170
196
210
170
198
213
172
200
217
178
202
218
186
208
223
150
162
176
45
41
45
28
25
24
31
35
38
110
131
149
166
196
211
161
190
204
160
188
207
159
186
208
154
182
203
147
176
196
142
173
191
137
168
187
131
164
184
109
132
149
125
151
171
144
167
180
156
176
184
150
172
181
129
149
164
132
151
168
138
155
169
156
163
174
157
160
165
127
128
133
53
50
52
34
31
32
29
28
30
57
65
82
106
119
138
121
137
152
117
135
154
120
143
163
122
149
167
126
153
173
127
154
177
124
151
176
120
148
174
48
50
59
62
71
83
80
84
92
90
89
95
82
86
91
53
60
66
52
58
66
55
60
63
67
64
67
65
60
58
68
63
61
48
47
48
34
33
37
31
29
32
30
29
34
36
37
42
43
48
53
40
45
54
44
52
64
49
60
71
56
68
81
59
75
89
61
77
92
61
76
95
39
37
42
60
65
71
53
56
60
41
42
49
48
46
53
40
38
45
53
59
67
38
40
45
35
34
35
29
29
29
32
32
34
34
34
37
30
29
34
29
28
34
29
29
30
30
30
30
30
30
31
32
33
34
37
38
41
27
29
34
29
29
34
31
33
37
36
39
42
31
35
39
82
93
104
142
159
173
148
168
185
133
151
166
108
121
132
78
87
96
62
67
76
31
27
34
31
30
34
32
30
34
35
38
43
29
32
38
32
32
34
30
30
32
27
31
35
29
31
33
28
27
26
24
23
23
28
27
29
32
36
42
50
55
67
58
63
77
75
84
96
83
98
108
148
172
188
158
184
198
160
188
203
163
191
206
164
190
203
162
186
197
116
133
144
79
84
95
60
62
69
34
34
39
82
89
97
82
88
96
27
27
27
35
36
38
78
87
93
39
43
47
36
37
38
47
51
53
56
62
68
96
111
124
134
156
174
134
159
176
135
162
181
132
162
183
149
175
193
152
178
192
153
181
191
158
184
196
163
185
200
166
189
203
169
193
207
172
192
207
147
162
175
64
74
83
135
152
164
108
118
127
80
86
94
64
71
80
127
140
153
73
82
92
85
99
110
133
156
170
141
164
179
144
169
188
138
166
185
136
165
183
134
163
182
128
157
179
148
173
190
152
178
193
154
179
192
158
182
195
159
181
195
161
183
197
166
188
202
171
193
208
160
179
194
114
130
142
156
177
191
113
128
141
148
166
181
116
130
142
133
150
163
120
136
148
120
141
155
149
174
192
139
164
183
133
157
177
124
149
169
121
146
166
118
143
163
113
137
159
146
172
190
149
174
189
152
175
189
156
178
192
157
179
193
159
181
195
162
184
198
163
184
199
160
179
195
151
171
186
157
178
193
157
176
192
158
179
198
155
173
190
154
174
188
146
168
183
141
163
180
136
158
176
131
153
172
126
147
168
117
139
160
115
137
158
112
134
156
108
130
153
144
171
188
147
172
188
151
173
188
153
175
190
154
175
191
156
178
193
157
178
194
156
177
193
152
172
189
147
168
185
150
172
188
152
172
189
146
167
184
147
169
187
149
171
188
147
171
188
144
167
185
140
162
180
134
155
174
128
147
168
122
144
163
123
147
166
124
148
166
120
144
162
143
168
184
146
170
185
149
172
186
150
171
186
151
171
186
155
174
190
157
176
192
156
175
190
152
171
186
151
170
185
151
170
185
147
166
181
142
164
178
143
165
179
147
168
185
149
170
188
148
169
186
142
164
181
135
157
174
134
157
173
132
156
172
127
151
167
118
143
159
111
136
155
