P3 24 24 255
122
102
82
111
91
68
98
78
53
102
81
56
116
91
65
130
101
72
120
94
67
111
91
68
122
104
81
124
101
77
99
78
59
86
69
53
116
96
72
126
106
83
106
86
66
105
85
67
110
93
71
106
87
63
113
91
64
122
98
70
119
101
80
104
91
74
68
57
43
68
60
47
91
74
57
97
79
59
108
91
68
120
101
76
128
103
74
138
109
78
133
107
77
126
105
83
126
109
94
107
90
76
95
78
63
103
85
67
132
112
87
138
118
94
116
95
74
99
80
62
96
87
70
106
97
76
123
107
81
134
113
84
131
111
87
122
105
85
107
92
74
97
84
68
113
91
70
112
91
67
122
101
75
132
111
82
141
116
85
150
121
87
144
118
86
131
110
85
120
104
89
99
89
75
107
95
76
130
114
89
120
106
85
114
100
82
114
99
83
112
100
86
83
81
68
65
66
51
78
76
59
97
92
74
124
110
90
140
122
103
133
118
100
98
86
70
103
83
64
128
104
79
125
100
73
127
103
76
149
124
95
157
132
100
150
127
93
136
115
87
123
104
86
113
100
84
114
101
83
129
114
93
112
100
84
102
91
78
113
102
92
93
85
76
48
49
39
49
55
42
50
61
42
34
46
33
69
68
54
125
117
99
124
115
99
108
98
84
96
77
53
138
111
81
136
107
77
124
98
67
147
122
90
151
126
95
155
130
98
153
129
98
146
122
94
154
133
104
146
128
98
147
131
101
140
124
102
113
101
83
106
98
85
60
57
48
40
46
34
67
73
62
53
56
57
61
67
40
127
122
87
149
136
112
141
125
101
126
107
84
100
76
45
150
120
85
138
110
77
123
100
68
133
111
77
144
120
85
158
131
101
151
123
98
150
124
98
165
142
112
161
141
108
149
132
98
128
113
82
88
79
51
84
82
57
69
73
50
43
52
32
50
54
29
92
88
37
153
142
72
160
141
98
154
133
105
153
131
102
140
118
89
71
53
35
106
86
65
87
71
54
75
63
49
84
73
51
121
106
73
169
149
119
166
143
119
146
126
99
159
141
117
150
134
114
103
89
71
69
63
41
77
74
47
89
86
54
98
98
59
84
85
49
84
80
32
167
160
40
205
184
75
147
120
80
138
115
88
137
117
88
131
113
84
35
30
26
41
34
31
39
36
33
37
33
31
51
40
28
107
91
60
164
145
114
186
169
138
167
151
114
152
141
110
121
114
93
53
50
35
48
48
33
73
71
48
88
82
50
99
93
54
99
95
49
104
92
47
147
131
30
196
177
48
150
129
78
122
103
84
112
95
72
112
97
69
31
31
27
45
44
44
45
45
39
32
30
22
50
36
21
106
81
52
141
119
88
166
149
119
170
151
121
123
111
86
62
58
40
44
45
28
67
67
42
79
76
48
84
79
49
98
93
61
101
99
56
109
96
55
154
137
37
188
171
50
144
125
83
119
101
81
125
102
81
143
119
89
51
43
32
81
73
63
80
72
60
33
31
20
38
34
20
79
63
42
123
104
82
162
147
125
129
119
96
57
50
31
47
43
28
61
61
46
63
65
43
82
81
61
98
94
73
103
99
73
114
109
79
127
115
61
173
158
54
184
163
79
152
125
90
146
119
89
149
120
91
143
114
82
118
100
81
109
93
70
90
72
54
57
44
30
46
38
23
72
60
43
141
127
108
130
122
103
51
52
33
45
44
28
64
61
49
72
68
56
65
62
46
81
75
62
95
88
65
112
105
62
136
122
70
152
137
57
180
169
67
141
128
73
126
105
76
138
114
85
138
116
86
128
108
84
180
158
134
144
121
90
111
87
62
108
83
66
94
74
57
102
91
70
110
104
82
47
47
28
36
45
28
51
54
40
59
56
43
81
73
55
111
101
65
126
115
71
153
143
76
185
177
76
211
194
66
199
182
63
145
134
57
57
50
38
75
62
46
142
127
102
147
136
112
108
97
82
177
157
132
161
134
103
136
109
79
121
96
70
116
99
76
85
82
60
33
34
23
24
25
20
34
35
27
67
62
47
111
100
69
125
112
63
128
112
42
168
155
54
206
195
70
218
205
71
208
191
60
172
154
64
113
97
58
64
50
39
109
91
70
128
111
85
115
100
79
136
116
94
161
137
110
143
117
87
130
107
80
127
110
78
98
87
62
37
32
24
38
36
25
78
73
41
123
112
61
133
122
62
156
146
68
157
147
55
150
135
36
178
165
45
196
181
51
190
173
53
126
111
41
125
108
68
138
121
94
111
92
69
113
91
69
115
97
77
116
102
82
120
103
77
153
124
92
145
119
89
136
118
96
102
91
70
61
54
37
85
82
62
131
128
84
148
142
82
131
122
71
102
89
47
109
94
53
94
78
33
108
91
27
147
130
51
158
139
59
138
115
51
110
89
59
107
86
64
132
109
83
138
114
84
134
110
85
129
111
92
126
115
98
121
111
89
168
137
104
145
121
94
86
74
56
63
59
45
90
88
70
108
107
83
108
99
75
81
72
56
49
46
41
62
54
48
90
76
60
131
114
89
103
86
60
131
115
77
143
124
86
129
106
76
157
128
98
146
118
84
104
77
45
134
108
78
165
141
110
147
129
105
123
113
97
114
105
92
108
93
72
60
55
40
65
65
49
79
80
68
62
63
54
48
48
41
52
49
49
50
42
40
63
51
40
71
62
48
69
56
34
103
85
57
104
87
68
108
92
70
123
106
80
145
126
101
135
113
85
137
113
85
125
103
76
116
94
67
129
106
81
129
107
91
128
111
90
136
122
101
44
42
33
62
65
57
60
62
49
46
46
36
38
39
33
38
38
35
35
35
35
39
35
32
61
53
44
45
39
30
39
28
15
56
40
21
66
51
36
71
57
41
91
79
59
82
72
52
74
63
49
113
99
84
140
121
102
137
115
92
114
95
75
91
72
60
128
108
84
168
147
117
55
55
46
45
49
44
37
38
31
34
34
27
31
32
26
31
32
28
33
33
33
36
35
34
28
27
24
21
21
14
49
41
26
79
65
44
35
27
15
46
36
21
99
86
65
101
87
64
76
67
51
109
96
81
136
118
97
150
128
103
158
140
117
137
120
106
152
133
104
167
146
112
62
53
36
31
30
24
29
30
29
27
27
24
28
29
23
29
30
27
27
27
27
30
30
29
27
26
22
26
22
15
77
64
45
84
68
46
17
15
8
34
25
11
116
93
64
149
120
84
130
110
79
115
96
68
126
107
78
155
135
104
165
145
117
149
129
110
133
116
88
136
121
89
58
48
36
34
32
27
32
35
36
36
38
38
36
36
33
37
37
34
52
49
45
45
39
34
29
23
18
26
22
14
79
66
46
84
65
39
30
25
13
39
31
16
99
75
45
114
88
56
97
79
56
68
56
37
74
65
45
125
113
90
127
110
86
105
90
72
103
93
72
140
128
100
40
40
37
38
39
37
34
36
35
27
29
28
30
28
23
66
56
45
125
106
89
110
88
67
108
88
70
54
42
30
36
29
16
66
56
39
42
36
21
60
56
40
113
95
69
78
63
42
42
35
25
15
13
6
22
21
11
64
58
41
130
112
82
136
118
85
124
109
75
165
145
105
33
36
35
31
32
30
29
28
25
23
25
21
47
42
31
126
103
79
127
95
63
124
89
58
157
125
93
87
65
42
26
18
6
22
20
12
23
19
8
32
31
21
81
68
50
36
28
16
22
22
16
23
24
19
29
29
20
74
67
49
128
107
80
135
109
79
127
100
70
143
117
88
49
41
32
38
34
28
27
26
22
18
19
14
71
62
46
154
125
94
147
114
78
131
103
72
130
103
72
115
87
58
81
61
42
49
38
27
27
23
15
21
22
18
25
18
7
19
17
12
22
21
16
29
28
20
56
51
37
76
63
41
89
75
53
110
92
70
127
105
83
105
87
73
