P3 24 24 255
215
219
225
217
221
226
217
221
226
218
222
226
218
222
226
218
222
226
219
223
227
220
224
227
219
224
227
220
224
228
219
224
228
218
224
229
218
224
229
216
222
227
215
221
226
215
220
225
214
220
225
213
218
223
210
217
223
207
216
223
204
213
220
201
210
217
197
206
215
192
202
213
218
221
226
219
222
227
220
223
228
221
224
228
221
225
228
220
224
227
221
225
228
222
226
229
222
226
229
222
226
229
222
226
229
221
225
230
221
225
229
219
224
228
218
222
226
217
222
226
215
222
225
214
219
222
213
218
223
210
217
223
206
214
220
203
211
217
200
208
216
195
205
215
222
223
228
222
223
229
223
225
230
224
226
230
224
226
230
224
225
230
224
226
230
224
226
230
224
226
230
225
227
231
225
226
231
224
226
231
225
225
228
225
224
225
223
223
225
218
223
225
217
224
221
223
221
224
217
220
225
213
218
222
209
216
220
206
214
219
203
210
217
200
205
214
224
224
228
224
224
228
226
225
230
226
226
230
226
226
230
226
226
230
226
226
230
226
226
230
226
226
230
228
227
232
227
227
231
226
226
231
227
225
229
226
225
227
225
225
226
223
219
215
206
181
180
206
177
181
216
217
219
218
220
224
215
216
220
213
213
217
209
210
214
203
206
211
226
225
227
226
225
227
227
226
228
228
227
229
228
227
229
228
227
229
228
227
229
228
227
229
228
227
229
229
228
230
229
228
230
228
227
227
227
227
230
225
226
231
229
227
227
196
177
167
155
100
98
170
117
120
215
210
207
220
222
227
219
216
219
221
213
212
216
211
209
204
208
210
228
225
225
228
226
225
229
227
226
230
228
227
230
228
227
230
228
227
230
228
227
230
228
227
230
228
227
231
228
228
231
228
227
231
228
224
228
228
230
227
226
231
233
220
219
161
128
111
110
63
49
164
115
108
212
199
195
213
223
228
216
221
222
217
215
211
214
213
207
206
211
210
229
226
222
230
227
223
231
228
224
232
228
225
232
228
225
232
228
225
232
228
225
232
228
225
232
228
225
232
229
225
233
228
224
233
228
221
230
228
228
234
227
227
235
207
200
181
144
124
145
127
100
180
149
135
166
148
148
167
183
191
184
198
203
187
194
194
195
201
199
209
214
214
231
227
221
231
227
221
232
228
222
233
228
223
232
228
223
233
228
223
233
228
223
233
228
223
233
228
222
233
228
223
233
228
221
232
228
218
231
227
224
243
225
217
230
190
174
229
199
178
218
202
177
204
178
166
99
85
89
62
73
89
76
85
102
88
96
111
112
120
131
167
172
178
232
228
220
232
227
219
233
228
220
233
228
220
233
228
220
233
229
221
233
228
221
233
229
221
233
229
221
233
229
222
234
229
220
231
227
218
231
226
221
245
217
204
215
171
148
224
200
180
169
131
115
182
145
139
89
80
85
37
35
60
30
31
58
28
29
56
37
39
60
99
103
112
232
225
216
234
226
215
234
228
216
232
228
218
236
226
218
234
228
218
237
226
219
233
226
221
232
226
222
232
226
221
233
226
220
231
226
220
230
227
219
238
202
181
212
163
144
223
202
186
151
116
95
190
152
137
141
115
116
74
63
85
49
55
77
76
76
92
117
109
114
119
116
113
233
224
215
233
225
213
234
227
213
235
225
211
240
223
212
234
226
215
239
223
216
239
222
212
240
224
213
239
223
212
238
221
210
234
224
216
234
225
211
229
179
152
198
140
122
223
203
190
153
124
99
194
159
138
151
120
115
73
63
74
59
61
75
133
128
133
194
183
176
145
138
130
233
221
211
234
223
210
229
218
201
228
206
184
238
212
195
233
222
210
238
221
214
240
216
198
236
213
192
232
208
188
230
207
187
222
207
190
230
205
185
212
144
113
184
115
95
229
209
194
166
138
115
193
161
140
152
124
114
86
62
66
107
76
88
144
110
114
172
149
142
150
139
134
233
217
202
233
217
199
210
192
170
195
158
129
213
174
152
235
219
203
243
227
218
234
215
195
229
210
188
228
208
187
229
209
186
221
203
180
185
148
121
183
102
68
184
112
90
239
222
206
214
190
169
206
178
156
151
124
110
97
57
57
126
67
77
129
71
74
117
82
78
101
87
84
225
200
178
214
189
165
179
150
122
165
111
79
181
131
104
243
226
204
250
236
220
244
232
214
242
231
213
243
232
214
246
233
213
242
224
200
152
109
81
166
85
50
189
124
102
237
221
204
228
206
186
225
201
179
201
182
163
143
119
109
141
101
98
133
97
91
109
89
83
91
75
74
179
145
117
165
132
101
156
117
83
170
99
67
179
117
89
246
227
198
253
242
218
254
244
224
252
243
223
252
243
223
255
245
224
248
232
210
152
110
82
151
78
43
174
122
101
246
233
214
230
209
190
246
225
203
219
204
182
141
129
117
141
129
117
139
133
119
128
123
118
125
107
109
163
118
80
161
118
77
174
126
87
168
89
59
172
103
74
219
194
159
227
214
182
230
213
187
239
221
196
243
226
200
244
229
203
242
227
207
150
112
87
131
70
38
149
109
90
237
223
203
251
235
217
255
238
215
174
154
133
69
37
36
57
37
32
63
50
44
62
46
51
60
40
43
203
134
72
206
142
81
179
122
78
154
85
54
159
97
67
196
156
122
167
135
102
150
111
83
161
123
94
200
165
134
177
144
112
196
169
143
121
88
64
114
65
37
112
72
55
145
116
98
242
228
207
254
239
210
173
146
121
57
25
26
45
18
19
57
35
38
38
18
28
36
18
24
176
110
51
171
111
55
124
76
41
120
68
45
140
93
67
182
144
114
152
117
84
154
112
75
155
113
76
190
152
115
167
128
91
178
140
104
154
116
82
134
82
49
95
49
34
139
102
79
235
219
194
253
235
205
183
154
125
111
89
81
95
75
69
76
59
55
70
55
57
73
58
59
149
100
58
132
87
50
107
71
50
83
45
28
89
53
31
117
85
56
135
103
67
170
132
88
170
133
91
166
131
95
179
141
104
191
149
105
150
108
70
148
92
58
101
51
33
158
118
84
192
168
140
218
194
166
179
145
118
143
121
108
114
97
86
85
69
60
89
75
71
86
74
72
151
109
74
147
106
74
130
95
73
123
88
65
119
82
53
124
86
50
148
110
68
159
122
81
164
128
93
124
90
66
139
103
77
170
132
91
148
111
76
159
108
77
105
58
37
176
134
92
127
94
64
147
114
87
138
100
76
88
65
57
56
40
37
47
31
28
45
30
28
44
34
34
164
121
85
166
123
87
162
121
92
165
123
91
166
122
85
167
122
78
168
122
77
137
96
65
147
108
81
82
46
32
78
42
24
95
64
35
101
71
48
138
95
65
104
62
40
175
131
89
120
83
53
123
86
61
104
66
44
62
36
35
27
11
18
51
35
41
35
17
19
22
10
12
159
120
82
160
120
81
164
121
87
169
123
88
171
126
88
171
126
86
172
127
87
162
118
86
156
114
83
126
88
61
124
85
56
108
74
47
106
74
45
131
86
47
113
71
41
153
110
71
105
66
41
106
69
45
97
60
36
51
26
21
18
6
11
31
18
23
31
12
9
22
7
2
156
122
87
157
123
86
160
122
87
164
121
88
164
122
88
164
124
92
166
127
94
171
127
89
168
124
84
163
123
81
160
120
77
155
112
79
150
109
70
152
101
53
141
96
56
136
94
60
92
53
30
97
60
36
102
66
38
59
32
19
20
6
3
28
12
7
62
40
22
62
43
19
155
120
88
156
121
88
157
120
87
159
119
85
159
119
85
159
120
87
160
120
87
161
117
82
160
117
81
160
118
80
160
117
80
157
113
79
154
111
76
155
109
70
149
105
69
136
95
63
103
63
37
97
57
32
100
61
35
97
62
39
84
52
33
93
60
42
110
74
49
112
76
43
