P3 24 24 255
46
57
48
43
55
45
41
53
43
40
52
42
39
51
41
39
51
41
38
50
40
38
50
40
39
50
42
41
52
44
42
53
45
42
53
45
42
53
45
40
51
43
39
50
42
37
48
40
36
47
39
36
47
39
37
48
42
37
48
45
37
48
44
36
47
43
35
46
42
34
45
41
49
58
49
46
56
47
44
56
46
42
54
44
41
53
43
41
52
43
40
51
43
40
51
43
40
51
43
40
51
43
41
52
44
42
53
45
41
52
44
40
51
43
39
50
42
38
49
41
38
49
41
38
49
41
39
50
44
40
51
47
39
50
46
38
49
45
36
47
44
35
45
45
52
59
51
48
57
48
45
57
47
42
54
44
41
53
43
41
53
43
41
52
44
41
52
44
41
52
44
41
52
44
41
52
44
41
52
44
40
51
43
40
51
43
39
50
42
39
50
42
39
50
42
39
50
42
40
51
45
41
52
48
41
52
48
40
51
47
38
48
46
36
46
47
53
60
52
48
58
49
45
57
47
42
54
44
41
53
43
41
53
43
41
52
44
41
52
44
42
53
45
42
53
45
41
52
44
41
52
44
40
51
43
40
51
43
41
52
44
41
52
44
41
52
44
41
52
43
42
53
47
43
54
50
42
53
49
41
52
48
39
50
47
38
48
48
52
63
53
48
59
49
45
57
47
43
55
46
41
53
44
42
53
44
42
53
45
43
54
46
43
54
46
43
54
46
43
54
46
42
53
45
41
52
44
41
52
44
41
52
44
41
52
44
41
52
44
41
52
44
42
53
47
43
54
50
42
53
49
41
52
48
40
51
48
40
50
48
49
61
51
46
58
48
45
57
47
44
56
47
43
54
46
43
54
46
43
54
46
43
54
46
43
54
46
43
54
46
43
54
46
43
54
46
41
52
44
41
52
44
41
52
44
41
52
44
41
52
44
41
52
44
42
53
47
43
54
50
42
53
49
41
52
48
41
52
48
40
51
47
46
57
48
45
57
47
45
57
47
45
56
47
44
55
47
44
55
47
43
54
46
43
54
46
43
54
46
43
54
46
43
54
46
43
54
46
41
52
44
41
52
44
41
52
44
41
52
44
41
52
44
41
52
44
42
53
47
43
54
50
42
53
49
41
52
48
41
52
48
40
51
47
47
55
47
45
55
46
43
56
45
44
56
47
45
56
48
45
56
48
44
55
47
44
55
47
43
54
46
43
54
46
42
53
45
42
53
45
42
53
45
42
53
45
42
53
45
41
52
44
41
52
44
41
52
44
42
53
46
43
54
47
43
54
48
42
53
49
42
53
49
41
52
48
47
53
46
45
54
45
43
55
45
44
55
46
45
56
48
45
56
48
45
56
48
45
56
48
43
54
46
43
54
46
43
54
46
43
54
46
43
54
46
43
54
46
43
54
46
43
54
46
42
53
45
41
52
44
42
53
45
43
54
46
43
54
48
43
54
50
42
53
49
41
52
48
45
52
44
44
54
44
43
55
45
44
55
46
45
56
48
45
56
48
45
56
48
45
56
48
43
54
46
43
54
46
44
55
47
44
55
47
43
54
46
43
54
46
44
55
47
44
55
47
42
53
45
41
52
44
42
53
45
43
54
46
43
54
47
43
54
50
42
53
49
41
52
48
45
53
42
44
54
43
43
55
45
43
55
45
44
55
46
44
56
46
45
56
47
45
56
47
45
56
48
45
56
48
45
56
48
45
56
48
44
55
47
44
55
47
44
55
47
43
54
46
44
55
47
42
52
45
43
54
46
44
55
47
43
54
47
43
54
47
42
53
47
41
52
48
47
55
42
44
54
43
43
55
45
43
55
45
43
55
45
43
55
45
43
55
45
44
55
46
45
56
48
46
57
49
45
56
48
45
56
48
45
56
48
45
56
48
44
55
46
43
54
46
44
55
47
44
54
46
41
52
44
40
51
43
42
53
45
42
53
45
41
52
45
41
52
48
49
56
43
45
55
44
43
55
45
43
55
45
43
55
45
43
55
45
42
54
44
42
54
45
42
53
45
42
53
45
45
56
48
45
56
48
46
57
48
46
57
49
44
55
47
41
52
44
42
53
46
47
58
52
68
80
72
58
69
60
41
52
44
38
49
40
42
53
46
42
53
49
47
56
40
46
55
41
44
53
41
43
53
42
42
54
44
41
53
43
41
53
43
44
55
46
45
56
49
45
57
48
39
51
42
42
55
44
40
52
41
38
51
41
38
50
45
47
59
53
70
86
80
94
112
110
141
154
143
124
133
117
82
92
80
48
62
50
33
46
37
35
46
43
45
54
37
45
53
38
44
51
38
40
50
38
38
50
40
38
50
40
38
50
40
41
53
43
81
92
83
100
111
105
71
81
73
64
74
69
77
87
81
75
85
79
63
72
70
95
105
98
124
135
124
109
121
106
69
79
65
51
58
47
59
67
59
82
92
84
90
100
92
81
90
85
43
52
35
43
52
37
42
50
37
39
49
37
37
49
39
38
50
40
53
65
56
83
95
84
98
110
98
83
93
88
92
99
85
112
117
110
130
135
126
113
119
108
88
93
88
91
96
87
76
83
76
64
73
60
48
56
45
56
64
50
55
60
54
117
120
119
131
135
132
112
117
109
41
50
33
39
49
34
39
50
36
40
52
38
41
53
44
62
74
64
96
108
103
83
97
89
66
80
68
34
39
31
46
55
39
64
74
67
66
77
64
66
78
61
55
64
63
64
72
63
64
77
64
55
70
58
57
72
56
98
110
96
105
111
106
111
114
116
103
107
100
95
97
88
39
47
30
37
48
32
39
51
37
44
56
41
49
61
52
69
80
70
83
93
85
80
92
85
76
92
86
58
66
61
55
65
55
50
61
57
39
57
48
53
72
61
62
82
74
60
80
58
60
79
58
65
82
64
75
94
75
88
105
95
100
109
103
77
82
80
90
94
86
91
92
87
37
46
29
36
47
31
40
52
38
47
59
44
50
62
53
65
75
63
74
80
66
68
73
61
65
71
66
61
66
62
71
76
71
70
76
70
70
83
69
65
77
69
71
87
83
88
105
94
92
109
98
78
95
75
56
72
58
54
64
56
72
78
68
67
72
64
60
64
58
91
91
91
37
46
29
36
47
32
40
52
38
46
58
45
50
62
53
56
67
56
83
92
79
87
95
84
63
67
59
57
61
54
54
58
57
59
63
62
58
63
62
53
56
60
74
82
77
99
115
111
89
107
101
61
74
62
29
39
34
40
44
36
50
54
42
49
54
48
43
46
46
29
30
32
39
48
31
38
49
33
41
53
39
46
58
45
50
62
52
51
63
53
50
63
53
61
73
63
92
99
91
101
108
100
75
82
72
72
79
70
58
65
62
34
40
39
50
53
47
63
73
62
49
64
45
48
56
47
46
54
54
47
52
50
43
48
44
25
29
29
18
22
26
51
54
58
41
49
32
38
48
33
39
51
37
44
56
43
48
60
50
50
62
52
47
59
49
42
53
43
63
71
63
105
112
103
108
116
103
77
85
72
65
73
63
63
70
61
43
48
43
49
54
44
37
45
32
54
57
49
56
62
54
36
41
37
22
26
27
34
37
42
99
103
112
166
175
182
40
49
32
37
47
30
37
47
31
39
50
35
42
54
42
45
57
45
43
55
43
41
52
40
37
47
36
55
65
54
88
98
88
91
101
89
88
96
86
94
102
89
53
62
49
39
45
37
45
49
48
42
44
38
35
41
29
31
37
33
71
75
79
142
146
154
192
198
206
193
203
208
37
46
29
36
45
28
36
45
28
35
45
29
35
47
33
38
50
36
39
51
37
38
50
36
39
51
37
36
49
35
44
56
45
74
85
76
85
94
85
85
93
80
56
63
46
41
47
35
32
37
32
18
23
25
54
57
66
110
115
124
172
176
183
198
201
211
190
195
203
176
185
191
