P3 24 24 255
253
251
252
233
227
228
167
157
157
97
82
81
119
101
98
129
110
104
142
123
115
171
153
142
207
188
174
221
200
184
217
196
177
208
188
166
206
187
167
208
192
177
200
188
175
170
161
150
109
103
95
76
73
68
100
99
96
222
222
219
251
251
249
254
254
253
255
255
255
255
255
255
253
249
250
229
220
221
162
147
145
101
80
76
136
113
104
180
155
144
198
174
161
221
196
181
221
196
180
208
183
164
192
167
146
166
141
119
142
119
98
135
115
96
138
121
104
137
122
108
121
110
98
104
97
88
153
150
144
236
236
232
253
254
252
254
255
254
255
255
255
255
255
255
252
248
247
220
211
207
161
146
139
138
117
106
182
153
135
216
184
164
218
188
169
206
179
161
176
151
135
131
110
95
120
101
87
114
96
83
95
80
68
85
71
59
93
79
67
106
92
80
121
109
98
107
97
88
183
177
170
241
239
236
253
253
252
254
255
254
255
255
255
255
255
255
250
247
243
225
217
209
198
183
171
203
182
165
217
186
163
214
181
156
202
172
149
168
140
120
139
114
98
116
95
81
110
92
81
101
84
76
76
63
56
59
49
43
65
55
48
78
64
55
100
84
74
113
98
88
155
144
137
234
230
227
251
250
251
253
253
254
254
254
255
255
255
255
250
248
241
231
224
212
213
199
183
215
195
175
213
187
163
211
182
158
196
168
146
163
137
117
148
124
108
140
117
104
109
88
77
79
59
50
55
41
37
42
34
33
50
42
39
78
64
57
100
82
72
128
110
100
153
139
132
235
228
227
251
250
251
253
254
254
255
255
255
255
255
255
253
252
247
242
236
227
225
213
200
217
200
184
210
190
172
193
172
154
167
146
129
146
125
108
153
133
117
147
126
112
105
84
71
68
48
36
51
35
25
46
35
28
61
49
42
97
83
73
123
106
96
131
117
107
179
170
164
241
238
237
251
252
253
252
254
255
254
255
255
255
255
255
255
253
251
246
241
234
231
219
209
219
203
191
206
188
174
185
168
154
160
142
129
144
126
112
145
127
113
151
133
119
131
113
99
104
86
72
90
73
59
94
78
65
112
96
84
132
116
103
140
126
114
156
145
136
225
220
215
247
247
246
249
252
253
252
254
254
254
255
255
255
255
255
254
251
249
244
237
230
228
216
206
222
205
194
214
196
182
201
182
168
181
163
149
165
147
133
161
143
129
160
142
128
156
138
124
149
131
117
144
127
113
145
128
114
148
131
117
148
131
117
152
136
123
185
172
162
240
232
226
252
250
248
251
252
252
252
254
254
254
255
255
255
255
255
252
250
247
242
235
229
229
217
207
227
211
199
225
207
193
215
197
183
203
185
171
186
168
154
168
150
136
156
138
124
151
133
119
150
132
118
148
130
116
144
126
112
142
123
108
144
125
109
145
127
113
146
131
119
173
163
155
231
227
223
251
250
250
254
255
255
255
255
255
255
255
255
251
248
246
239
232
225
225
213
203
226
210
198
227
210
196
222
204
190
214
196
182
198
180
166
178
160
146
163
144
130
153
135
121
149
131
117
147
128
114
145
125
110
146
126
109
147
126
110
140
121
106
133
117
104
135
123
114
178
172
167
232
231
229
252
252
252
255
255
255
255
255
255
252
251
249
238
233
227
221
210
202
218
204
193
217
200
188
214
197
184
206
189
175
195
178
165
189
172
158
176
159
145
162
145
131
154
137
123
149
132
118
146
128
114
145
126
111
143
124
108
137
118
102
134
116
101
135
121
110
138
128
120
188
182
177
237
235
233
254
254
254
255
255
255
254
254
252
243
239
235
222
213
206
209
196
186
203
188
176
199
183
170
200
184
171
187
171
158
177
161
148
174
158
146
166
150
137
156
140
128
150
135
122
145
130
118
141
125
111
138
120
105
132
113
98
126
108
93
131
114
101
130
117
107
160
151
143
222
218
214
252
251
250
254
254
254
254
253
252
243
239
235
219
210
203
198
185
176
190
174
163
183
167
154
187
171
158
175
159
146
160
144
131
155
139
126
152
136
123
148
132
119
145
130
117
142
127
115
139
122
109
136
117
103
129
111
96
123
104
89
126
109
96
129
116
106
151
142
134
215
210
206
249
248
247
254
254
254
253
253
252
245
242
238
222
214
207
198
185
176
190
174
163
174
158
145
165
149
136
157
141
128
149
133
120
138
122
109
135
119
106
137
121
108
139
124
111
137
122
110
132
116
103
128
110
95
124
105
90
123
104
89
123
106
94
126
113
103
137
127
119
191
187
183
238
237
236
253
253
253
254
253
252
252
249
245
235
228
220
205
192
182
192
176
165
167
151
138
144
127
114
136
120
107
135
119
106
130
114
101
122
106
93
124
108
95
129
114
102
127
113
101
122
106
92
119
101
86
122
103
88
122
103
88
118
101
88
121
108
98
121
112
104
152
147
143
213
212
211
250
250
250
254
253
253
254
252
249
246
242
237
219
210
203
180
166
155
157
141
128
127
112
100
106
92
81
106
92
81
110
96
84
113
98
85
124
108
94
128
112
99
119
103
89
111
94
79
110
92
77
115
97
82
113
96
81
110
95
81
114
101
90
115
104
95
138
133
127
202
201
198
247
247
245
254
254
254
254
254
254
251
251
251
235
230
227
191
176
165
156
138
123
125
110
98
97
84
74
89
76
67
90
77
67
112
97
85
143
125
110
147
128
112
126
108
91
109
92
76
104
87
72
105
90
75
98
84
70
100
87
74
102
90
78
104
94
82
138
132
123
207
207
200
250
251
246
254
254
254
254
254
254
254
254
253
246
241
238
210
194
181
150
130
113
121
103
89
95
79
66
81
66
54
89
73
60
131
112
97
156
135
118
143
123
106
119
103
88
106
92
78
92
79
65
84
72
59
77
66
54
78
68
58
82
72
63
87
79
69
94
91
83
133
133
127
189
189
184
253
253
253
251
251
251
251
251
250
242
238
234
203
187
174
137
116
100
108
90
75
85
70
57
66
51
40
95
79
66
142
123
108
148
128
111
120
101
86
92
79
67
78
68
58
65
55
45
51
42
33
49
42
33
56
50
42
59
54
47
56
52
46
51
49
43
52
52
46
70
71
65
252
252
252
249
250
250
225
225
225
163
160
156
106
94
84
86
70
58
73
60
50
64
54
46
64
54
47
100
89
81
120
107
97
116
101
89
97
83
72
77
67
58
61
55
46
49
44
36
44
39
33
43
39
34
48
45
41
49
47
44
41
41
37
37
37
33
39
39
34
40
40
35
252
252
252
251
250
250
224
221
223
154
148
148
90
80
74
69
60
51
62
57
49
59
56
49
73
68
63
72
65
60
62
53
46
57
48
39
59
53
44
60
55
48
52
48
41
43
39
33
40
38
33
33
35
29
29
32
27
33
34
30
34
34
31
32
34
29
33
37
31
39
42
36
248
255
255
249
255
255
249
253
255
244
244
246
228
225
223
211
210
204
206
208
201
203
206
199
191
190
185
165
159
155
138
133
128
121
120
114
100
102
96
69
71
67
48
46
44
43
40
38
40
42
39
33
41
36
39
49
43
47
51
47
64
62
60
77
79
77
99
106
103
141
147
145
244
234
237
243
235
236
243
236
236
245
238
238
250
240
240
253
240
240
253
241
240
252
241
241
251
239
238
247
235
235
242
230
229
238
225
224
225
212
212
200
185
186
176
161
163
171
159
159
173
164
163
175
167
166
184
176
175
191
179
180
206
192
194
220
207
210
231
220
223
242
229
234
213
131
138
213
134
137
211
135
134
208
136
132
201
136
133
202
135
135
206
132
135
206
132
134
202
136
135
197
136
133
197
135
133
203
135
135
211
135
138
214
138
141
211
143
142
206
147
143
206
147
143
212
145
144
214
140
142
213
140
141
207
139
139
208
138
138
209
135
137
209
134
136
