P3 24 24 255
29
34
25
43
47
43
46
51
47
20
26
20
40
47
42
47
55
50
48
56
51
30
38
33
45
55
51
47
58
54
42
49
47
33
37
36
16
19
17
13
18
14
15
20
16
11
16
13
24
29
25
24
29
25
23
28
24
12
17
13
8
13
9
29
34
31
50
57
54
34
43
40
30
37
29
37
45
41
31
36
32
32
33
27
29
34
30
20
26
22
23
29
25
14
20
16
31
36
34
45
51
49
26
31
30
39
43
42
28
33
30
16
21
17
15
20
16
25
30
26
40
45
41
22
27
23
21
26
22
14
19
15
9
14
10
21
25
20
31
36
32
30
39
36
83
80
65
40
46
36
22
26
19
46
45
39
35
37
34
22
25
22
32
35
32
15
18
14
25
26
24
59
60
60
30
33
32
23
27
26
40
45
43
34
39
35
29
34
30
44
49
45
31
36
32
10
15
11
12
17
13
15
20
16
8
13
9
18
22
18
20
24
19
40
43
36
123
108
84
40
39
23
22
25
16
36
35
29
49
50
47
49
51
48
49
51
48
29
31
28
61
60
60
67
66
67
26
28
28
21
26
25
48
54
52
57
62
59
46
51
47
46
51
48
26
31
28
7
13
9
6
11
7
14
19
15
7
12
8
8
13
10
13
16
11
50
49
37
120
105
83
44
39
29
23
26
18
38
42
32
60
63
61
61
65
64
36
40
38
31
35
34
64
69
67
52
58
56
25
30
29
34
40
38
35
41
39
38
44
42
50
56
54
38
43
41
28
34
31
12
17
14
7
12
8
14
19
15
9
14
10
5
10
6
6
11
6
31
32
23
127
116
94
59
56
47
32
34
28
44
48
39
50
54
52
59
63
62
40
44
43
41
45
44
55
60
58
37
43
41
32
38
36
40
46
44
31
37
35
26
32
30
33
39
37
24
30
28
32
38
36
14
20
16
8
13
9
13
18
14
9
14
10
4
9
5
5
9
5
21
22
14
124
118
97
57
57
49
39
41
37
46
48
42
55
58
57
64
68
67
58
62
61
56
60
59
48
53
51
18
24
22
17
23
21
39
45
43
29
35
33
31
37
35
28
34
32
25
31
30
26
32
30
12
18
14
8
13
9
12
17
13
10
15
10
4
9
5
1
6
1
22
23
15
104
101
81
40
41
35
40
42
40
53
54
50
51
55
53
58
62
61
65
69
68
58
62
61
46
51
49
11
17
15
31
37
35
30
36
34
26
32
30
36
42
40
23
29
27
29
35
33
24
29
27
12
17
14
8
13
9
13
18
14
10
14
10
4
8
4
1
6
1
25
26
18
64
61
49
32
34
32
45
50
45
61
64
59
65
69
66
53
58
55
62
66
63
59
64
61
42
48
44
30
35
32
34
39
36
9
15
11
16
22
18
24
29
26
22
28
24
28
33
30
24
29
26
12
17
13
8
13
9
16
21
17
11
16
12
4
10
3
3
7
3
13
12
9
48
44
36
18
20
21
52
59
51
57
61
56
59
64
60
67
73
68
63
68
64
52
57
53
32
37
33
40
45
41
17
22
18
14
19
15
17
22
18
18
23
19
22
27
23
22
27
23
22
27
22
9
14
10
10
15
11
22
27
23
21
26
22
6
12
6
5
8
5
10
9
9
56
53
44
15
17
17
24
31
23
50
54
49
61
66
62
58
63
59
46
51
47
31
36
32
19
24
20
18
23
19
22
27
23
23
28
24
26
31
27
24
29
25
12
17
13
15
20
16
13
18
14
7
12
8
12
17
13
25
30
26
24
29
25
16
20
17
9
11
10
14
14
13
73
69
60
30
32
33
22
29
22
35
39
34
41
46
42
29
34
30
37
42
38
45
50
46
37
42
39
33
38
34
29
34
30
20
25
21
16
21
17
17
22
18
15
20
16
23
28
24
10
15
11
6
11
7
15
20
16
19
24
20
19
24
20
24
27
27
13
14
16
7
9
8
63
62
55
35
37
37
24
28
22
32
36
31
45
50
46
75
80
78
74
78
77
44
49
45
38
43
39
30
35
31
27
32
28
21
26
22
22
27
23
26
31
27
27
32
28
33
38
34
18
23
19
8
13
9
12
17
12
10
15
10
9
14
10
16
19
18
8
10
10
5
7
5
39
41
38
33
35
32
24
26
23
19
21
18
32
36
32
83
87
88
70
74
76
33
37
34
25
30
25
20
25
21
21
26
22
27
32
28
35
40
36
27
32
28
16
21
17
34
39
35
26
31
27
14
18
15
33
38
31
17
22
14
2
7
2
7
10
8
6
8
5
6
8
5
29
31
28
30
32
28
35
37
34
24
27
23
10
15
11
61
65
67
61
65
67
58
63
60
24
30
25
11
16
12
21
26
22
37
42
38
35
40
36
12
17
13
7
12
8
18
23
19
20
25
21
16
20
17
86
91
84
81
87
78
0
4
0
2
4
2
5
7
4
6
8
5
14
16
13
23
25
22
34
36
33
34
36
33
14
19
14
57
61
62
76
80
82
42
47
44
8
13
8
5
10
6
14
19
15
28
33
29
24
29
25
10
15
11
9
14
10
10
15
11
25
30
26
21
26
23
41
46
39
81
87
78
49
54
49
35
38
36
10
12
9
2
4
1
9
11
8
10
12
9
20
22
19
28
30
27
19
24
21
59
63
64
72
76
77
17
22
19
9
14
10
8
13
9
8
13
9
11
16
12
15
20
16
9
14
10
5
10
6
6
11
7
28
33
29
34
39
36
25
30
23
104
110
101
148
153
148
139
142
139
110
112
108
72
74
71
8
10
7
7
9
6
10
12
9
37
40
36
24
30
28
79
85
84
101
106
105
22
26
24
18
23
20
16
21
17
6
11
7
6
11
7
7
12
8
7
12
10
13
18
16
26
31
29
29
34
32
24
28
25
17
21
16
108
112
106
162
167
160
156
158
151
160
161
154
154
154
147
7
9
6
9
11
8
64
66
63
143
145
142
80
83
81
65
69
67
98
102
100
29
33
31
14
18
15
8
13
9
12
17
13
16
21
16
16
20
17
22
25
24
36
39
38
29
32
31
25
28
26
41
43
40
62
64
59
132
134
128
161
164
155
157
158
150
155
155
147
153
153
145
7
9
6
29
31
28
135
137
134
185
186
183
167
166
164
135
136
133
110
113
109
32
37
33
4
10
6
7
12
8
26
31
27
43
48
44
37
41
37
32
34
31
53
55
51
83
85
81
118
120
116
147
148
143
157
157
152
162
163
155
158
160
149
157
158
148
154
154
146
151
151
143
10
11
9
56
58
55
149
152
149
179
180
178
192
187
184
190
188
184
102
105
99
13
20
13
5
11
6
7
12
8
30
35
31
40
45
41
42
46
42
76
78
73
136
137
132
172
173
168
173
174
169
171
170
165
167
166
159
164
164
154
164
164
152
160
160
150
158
158
151
156
156
148
25
29
23
111
113
113
183
181
183
190
186
183
184
181
172
98
97
89
31
33
28
10
15
12
7
11
6
9
13
6
37
40
40
112
112
112
156
156
147
176
175
166
180
180
171
175
174
165
172
171
162
173
170
162
175
172
162
170
167
156
164
161
150
164
161
152
163
161
153
158
157
149
92
92
85
163
160
153
190
185
175
190
184
173
129
128
127
79
77
91
57
55
89
41
38
88
34
33
69
20
23
27
96
97
94
179
176
174
186
182
172
183
180
168
179
176
165
177
174
163
175
172
160
173
169
158
170
166
155
168
164
153
170
166
154
170
166
157
168
164
158
166
163
156
187
180
168
197
187
177
177
168
173
115
108
137
79
73
127
69
63
131
75
68
153
78
71
170
61
57
146
82
83
113
168
167
155
186
182
171
183
178
171
183
178
167
178
173
163
175
170
160
175
170
160
175
171
160
174
170
159
173
169
158
173
169
158
174
170
162
172
169
162
171
168
161
