P3 24 24 255
99
146
187
100
147
189
101
148
190
102
150
191
103
151
193
104
152
194
105
154
195
106
154
195
106
155
196
106
155
196
106
155
196
106
155
197
106
155
197
106
155
197
107
155
196
108
156
195
109
156
195
104
140
171
111
116
117
120
111
86
104
98
84
98
108
122
109
137
161
107
147
181
100
147
188
101
148
190
102
149
191
103
151
192
104
153
194
104
154
195
104
154
195
105
155
196
105
156
196
106
157
197
106
157
198
106
157
199
106
157
200
106
157
200
106
156
199
107
156
198
107
156
197
100
139
169
101
110
114
107
100
86
95
87
68
94
92
93
101
124
145
101
144
181
100
148
189
102
148
191
103
150
192
104
152
193
104
153
194
105
155
195
104
156
196
105
157
197
106
157
197
106
158
198
107
159
199
107
158
200
107
158
201
107
158
201
106
157
201
106
157
200
107
156
198
120
149
172
126
131
131
107
104
98
97
89
65
103
97
85
106
121
135
107
144
177
101
149
190
102
149
191
103
152
193
105
153
194
105
155
195
104
156
196
106
157
196
107
157
201
107
158
201
108
159
200
109
159
201
108
159
201
108
158
201
107
158
200
107
158
201
107
158
204
109
159
199
140
165
188
153
160
167
126
129
131
114
105
80
113
104
82
105
113
120
122
142
163
102
149
190
103
151
192
104
153
194
105
154
195
105
156
196
105
157
199
107
157
197
105
160
198
105
160
203
105
158
202
105
158
203
102
160
207
105
160
206
107
161
205
109
159
203
110
159
198
110
158
199
135
166
195
152
168
183
135
144
154
120
113
97
108
94
70
110
105
101
137
140
149
103
151
192
104
152
194
105
154
195
106
155
196
106
157
197
106
158
199
108
158
198
105
160
202
120
150
180
167
167
166
160
163
164
141
154
167
132
151
172
114
153
189
107
161
206
105
161
204
108
159
202
115
159
199
123
157
185
119
138
156
116
115
108
113
98
74
130
118
99
138
131
125
104
151
192
105
152
194
106
155
196
107
156
197
107
158
198
106
159
198
108
158
201
110
157
198
149
152
151
171
166
154
187
185
174
176
171
156
156
140
120
134
119
98
120
137
148
110
160
205
107
161
203
109
158
201
110
152
186
117
138
157
116
117
113
130
119
96
143
129
104
137
123
108
104
152
193
105
153
195
106
155
196
107
157
198
107
158
198
107
159
199
108
160
203
117
153
183
132
124
116
125
123
119
134
132
131
172
169
158
175
163
148
141
129
113
126
112
98
120
143
162
110
164
207
109
159
202
116
155
189
125
140
152
120
122
114
134
127
103
136
124
98
121
106
87
104
153
193
105
154
195
107
156
197
106
158
198
107
159
199
108
160
199
107
161
201
119
152
176
100
91
83
76
78
72
104
104
102
199
197
183
153
146
134
121
113
101
114
101
87
105
96
85
108
142
170
110
163
207
119
155
187
125
134
142
115
113
101
113
107
88
99
87
72
93
80
64
105
154
194
106
155
196
107
156
197
107
158
198
107
159
199
109
160
200
108
161
204
116
154
187
119
112
106
107
97
83
94
91
83
177
174
163
121
114
102
89
82
71
80
72
61
64
58
49
72
68
63
107
149
182
115
154
189
114
121
129
92
80
66
81
76
65
54
46
39
65
54
41
105
154
195
106
155
196
108
157
198
107
159
199
108
160
200
109
161
201
110
161
204
115
158
196
111
130
144
99
98
92
91
83
69
120
114
104
98
86
67
79
63
44
68
58
45
65
57
45
47
43
34
71
81
86
113
152
187
102
113
129
78
69
61
76
84
92
51
56
59
48
41
31
106
155
195
107
156
197
108
157
198
107
159
199
108
160
200
110
162
202
111
162
202
113
158
195
110
156
193
99
125
146
96
85
66
101
89
72
101
83
57
96
73
43
85
63
39
74
61
40
71
56
41
66
59
47
100
131
157
100
118
136
74
74
77
90
108
122
89
94
98
68
60
46
106
155
195
107
156
197
108
158
199
108
159
199
109
161
201
110
162
202
111
162
202
112
162
203
111
162
203
112
162
204
112
112
109
103
87
59
102
81
54
96
73
43
86
65
39
90
66
45
94
67
38
85
70
52
109
135
151
97
122
146
82
79
84
114
110
97
107
104
83
97
89
62
106
155
196
107
156
197
109
158
199
108
159
200
109
161
201
110
162
202
111
163
203
110
163
205
111
163
205
111
164
209
111
152
185
104
88
64
99
80
52
93
65
30
89
60
28
88
58
28
84
62
36
68
51
30
123
122
116
128
137
139
92
81
60
75
69
50
73
65
63
114
104
90
107
156
196
108
157
198
109
158
199
108
160
200
110
162
202
110
162
202
110
163
203
111
164
204
112
163
204
113
163
205
113
166
207
104
115
120
95
83
66
109
111
108
109
110
107
75
80
78
77
74
68
110
91
66
148
140
127
105
96
81
63
50
36
57
57
62
95
127
157
118
128
134
107
156
196
108
157
198
109
158
199
109
160
200
110
161
202
111
162
202
111
162
203
113
164
203
113
163
204
113
163
205
113
164
212
104
139
164
88
85
84
115
170
213
99
141
177
96
121
147
130
142
149
145
143
129
86
86
73
79
65
45
70
64
60
103
138
167
106
156
193
111
122
131
107
156
196
108
157
198
110
159
200
111
160
201
112
160
201
113
162
203
113
162
203
114
163
204
113
164
205
112
165
205
116
166
205
102
138
170
94
114
131
116
169
212
138
148
158
143
146
144
87
84
68
83
77
70
87
93
99
81
72
58
56
44
33
87
106
123
107
152
186
102
114
123
107
156
196
108
157
198
110
159
200
111
160
201
112
161
202
113
162
203
113
162
203
114
163
204
116
164
204
114
164
206
109
160
201
92
118
144
108
151
189
101
116
132
139
136
132
86
83
65
48
41
37
93
117
144
117
162
203
93
104
108
52
40
25
40
37
32
96
117
136
103
129
151
107
156
196
108
157
198
110
159
200
111
160
201
112
161
202
113
162
203
114
163
203
115
164
205
113
165
205
116
165
207
140
163
179
110
154
189
74
95
108
96
89
78
62
54
46
59
70
87
86
111
139
117
167
209
118
158
191
103
115
128
61
57
48
39
35
26
60
59
59
102
140
171
107
156
196
108
157
198
110
159
199
111
160
201
112
161
202
113
162
203
113
163
205
114
164
204
114
164
203
119
166
206
133
138
141
54
62
65
43
40
32
55
52
49
80
93
110
118
164
208
115
167
208
113
160
201
116
152
188
96
98
110
77
89
105
49
44
40
51
41
29
92
108
119
107
156
196
108
157
197
109
158
198
110
159
200
111
160
201
112
161
203
115
162
202
111
165
208
110
163
213
155
178
193
107
104
98
32
27
15
59
52
44
99
128
156
118
168
213
113
160
202
115
162
203
113
163
203
114
148
178
87
91
103
93
116
150
71
90
98
69
67
62
91
108
124
107
155
195
108
157
197
109
158
198
110
159
200
112
161
202
113
162
201
114
160
202
121
155
184
154
174
186
149
147
133
73
65
50
63
65
66
114
151
183
121
167
209
115
163
204
116
164
205
114
163
205
114
163
204
116
148
175
93
96
109
94
129
158
110
154
191
108
143
178
109
160
204
107
155
195
107
157
197
109
158
198
110
159
200
112
160
201
109
160
203
117
163
196
138
139
129
138
135
114
77
72
61
76
88
99
104
133
163
117
168
212
116
163
204
115
164
205
115
164
205
114
163
205
116
163
202
119
145
167
94
94
107
98
133
169
111
160
197
107
161
199
108
155
192
107
155
194
109
156
198
109
158
199
110
158
199
108
160
202
133
171
201
161
167
155
92
89
75
46
42
42
80
98
121
118
171
215
115
161
201
113
163
206
116
164
204
114
163
205
114
163
204
113
162
204
118
160
197
120
137
153
91
94
107
101
138
173
111
157
199
108
156
195
107
155
195
