P3 24 24 255
56
51
31
56
51
32
52
47
29
46
44
27
46
44
29
56
47
28
59
51
32
56
46
26
148
119
104
224
170
167
228
170
171
201
156
150
162
126
112
127
96
79
75
59
40
55
50
28
56
51
28
57
49
28
56
49
28
52
45
23
51
44
23
45
39
22
43
37
22
43
37
22
58
53
34
57
52
33
50
46
28
47
42
25
69
55
38
136
110
89
148
123
104
99
78
59
158
126
113
225
175
175
227
171
176
206
161
159
179
141
133
180
146
135
101
81
64
57
49
28
59
53
31
59
51
31
54
48
28
52
45
26
52
45
26
46
40
22
45
39
23
47
41
25
56
51
32
55
50
31
52
48
30
56
46
29
122
94
76
200
157
139
210
161
149
173
131
118
177
137
127
228
178
179
224
171
175
205
161
160
177
141
137
192
158
151
137
111
98
64
53
34
59
52
32
57
49
31
50
44
25
48
43
24
50
44
25
47
42
23
48
42
24
50
44
26
59
54
35
57
52
33
53
49
31
67
53
36
163
128
112
210
159
150
213
156
152
197
152
143
159
128
114
187
151
144
229
179
177
212
168
165
178
143
138
192
157
151
171
141
131
78
64
48
57
47
30
54
47
30
50
47
29
49
46
28
51
47
29
52
47
28
51
46
26
51
46
27
60
54
37
57
52
34
53
49
32
76
61
45
178
138
126
211
158
153
214
161
159
178
143
133
122
107
88
122
108
89
163
134
122
170
141
130
164
135
124
196
160
152
192
157
148
110
91
74
82
67
47
90
72
54
62
51
32
52
48
30
53
50
32
53
49
30
52
48
29
52
48
28
58
52
36
58
52
36
54
50
33
86
68
53
189
146
135
216
167
159
208
164
156
157
131
115
126
117
94
117
111
88
99
94
73
98
90
72
116
102
85
144
123
109
180
154
141
156
131
113
165
129
111
181
139
124
128
100
83
68
55
37
55
49
32
54
50
32
53
49
30
51
48
29
58
52
36
57
51
35
56
49
33
94
73
59
195
154
142
212
173
162
154
130
108
128
117
88
118
112
85
105
97
74
100
96
75
97
94
74
105
103
82
94
89
69
96
87
69
130
112
94
176
136
121
207
159
148
200
159
148
135
108
95
69
57
41
56
50
32
55
49
30
54
49
30
56
50
34
57
51
35
53
47
31
95
73
59
198
157
146
192
161
147
110
98
73
116
112
81
120
116
86
105
98
73
100
92
72
103
95
76
105
98
79
100
94
75
80
76
57
92
86
65
106
96
72
145
123
105
201
165
155
196
160
150
130
108
94
64
55
37
57
50
32
58
51
33
57
51
35
58
52
36
51
48
31
88
70
55
195
154
142
189
159
144
113
103
80
99
92
67
112
104
79
122
116
89
108
104
82
91
87
66
104
99
79
101
96
77
95
92
74
92
86
66
95
88
65
93
87
64
137
118
103
203
168
157
183
153
140
103
90
73
61
53
35
62
55
37
57
51
36
59
53
37
53
50
32
81
65
49
188
148
137
199
157
142
126
104
76
99
86
66
82
74
60
105
102
77
127
123
98
119
115
89
117
112
89
100
97
78
79
80
62
88
84
66
102
94
72
92
86
62
80
73
52
139
120
104
192
160
149
162
134
120
88
73
55
63
56
34
58
52
36
59
53
37
55
50
33
77
61
45
179
141
129
216
168
156
145
95
73
125
102
76
115
117
93
106
102
80
126
123
100
144
141
113
140
134
108
105
101
79
91
93
74
102
100
84
105
100
78
92
85
60
81
76
54
83
76
56
132
109
96
191
155
144
155
128
113
74
63
43
58
52
36
57
51
35
57
51
35
73
57
41
169
133
120
223
179
170
193
138
126
131
85
60
145
126
95
116
118
94
107
109
88
121
120
93
140
134
106
122
116
92
106
106
86
113
111
94
114
110
89
104
98
74
96
91
68
74
71
50
82
72
55
173
140
129
205
169
158
128
108
92
57
51
35
60
54
38
59
54
39
71
55
39
165
131
116
225
185
178
224
185
179
168
114
102
122
76
57
124
115
91
114
112
89
110
104
77
142
134
108
138
130
108
95
93
72
88
85
68
102
100
80
104
101
77
102
96
74
74
69
49
66
60
41
127
106
92
206
172
162
184
154
143
60
53
38
64
57
41
57
51
36
68
53
36
167
134
118
229
189
185
231
198
198
219
179
176
133
89
80
84
50
35
128
111
88
128
117
90
127
117
93
144
134
115
106
102
81
95
91
73
104
102
82
102
98
76
83
77
54
89
82
60
77
70
50
79
69
52
182
155
145
203
168
160
62
55
39
63
56
40
58
49
32
70
56
36
172
136
124
231
189
187
232
201
198
221
188
184
190
155
150
100
68
61
90
66
47
145
133
101
113
103
74
105
92
72
106
98
75
111
104
82
100
93
71
110
104
82
94
89
63
98
92
64
78
71
49
113
99
85
195
166
161
202
169
163
64
57
41
63
56
40
61
53
36
74
60
41
172
137
125
224
183
180
230
199
195
219
185
181
209
174
170
165
135
129
115
89
78
140
114
92
148
132
104
117
111
81
101
94
63
111
104
75
108
101
75
105
98
73
106
101
73
96
90
65
71
65
45
124
111
97
198
170
165
211
173
170
64
58
42
62
55
40
61
54
38
73
61
43
168
135
123
219
181
175
228
197
191
227
191
186
213
176
171
193
161
156
175
147
142
143
106
95
132
108
83
138
132
98
132
127
91
126
119
86
117
110
80
119
113
84
126
121
94
84
77
56
78
71
54
100
90
73
180
154
147
227
188
186
60
56
40
58
54
38
56
51
35
68
58
41
164
133
120
225
188
180
234
202
194
235
198
191
225
187
180
209
176
169
200
170
167
208
172
165
142
110
92
139
121
94
140
133
103
143
137
104
141
135
99
132
126
95
114
107
86
99
92
75
86
80
60
99
92
72
185
163
154
235
201
198
58
55
38
66
60
43
87
76
60
88
72
54
157
127
111
225
190
181
238
205
199
241
206
199
237
201
193
223
190
182
201
170
167
225
195
190
193
165
151
139
117
96
133
122
100
114
101
78
129
119
91
138
131
106
105
97
80
103
96
76
97
91
67
119
110
89
192
172
161
225
198
192
66
62
44
110
97
81
170
147
132
171
142
125
172
141
124
220
185
175
242
208
203
245
213
208
230
200
191
223
192
183
210
177
172
213
186
181
155
141
126
132
124
99
131
116
96
117
94
85
123
108
91
131
124
101
111
105
83
107
100
77
111
103
79
132
116
97
183
161
150
202
176
169
77
68
52
143
124
110
202
171
159
217
180
168
201
165
153
206
171
160
241
207
200
246
215
210
219
193
185
201
178
166
204
177
166
165
148
134
125
121
101
132
128
101
141
121
103
167
142
140
131
115
98
123
119
84
109
106
76
119
111
89
138
126
106
183
160
145
205
177
168
215
185
179
75
65
50
139
117
103
215
182
171
227
192
182
218
182
173
200
165
153
217
184
174
243
212
208
230
203
198
186
165
151
165
152
133
141
133
111
139
125
105
138
115
97
170
143
130
185
160
155
151
133
114
136
130
95
134
129
101
135
120
105
179
158
143
211
183
170
223
193
185
229
200
194
72
66
49
138
116
103
219
190
179
231
201
193
231
199
192
217
182
170
202
169
158
230
198
195
227
196
193
183
153
141
151
127
110
152
137
113
138
119
98
135
105
94
193
160
153
184
160
145
158
139
120
168
157
132
179
167
149
200
176
169
219
186
178
221
190
177
226
198
189
231
204
197
75
71
54
156
131
119
221
189
181
232
200
196
238
204
201
232
197
191
210
175
167
217
187
181
232
202
195
215
177
165
203
163
151
183
150
135
183
157
140
197
168
154
190
156
145
182
153
139
204
179
170
198
175
164
221
198
187
237
209
205
229
197
190
225
193
184
224
193
187
230
201
197
