P3 24 24 255
91
108
60
103
121
70
86
106
56
27
37
16
17
24
11
17
23
10
13
19
9
13
16
9
10
13
7
10
15
8
16
19
11
15
19
10
14
17
8
29
32
19
25
30
19
29
39
21
38
54
31
38
51
30
24
32
16
16
23
9
16
23
10
16
21
10
11
14
9
26
34
14
93
108
56
113
129
73
85
102
56
28
38
16
18
25
11
17
23
9
15
21
9
13
17
9
10
13
7
12
17
9
15
21
11
24
30
19
35
40
27
18
22
11
12
14
8
9
11
6
17
21
12
25
32
18
12
19
9
14
19
9
14
20
10
14
18
9
9
11
9
28
42
16
90
106
53
107
124
67
80
96
51
28
38
16
18
26
10
20
26
10
19
24
11
16
20
9
13
16
10
16
19
12
18
22
12
37
45
29
68
79
47
27
37
15
29
36
17
31
38
16
34
40
17
39
49
23
22
29
12
15
21
7
16
22
11
16
21
13
9
12
9
26
34
14
87
101
46
105
118
64
97
111
60
26
34
15
15
21
11
15
21
9
17
19
11
12
14
9
13
15
10
16
18
12
19
21
15
32
39
23
72
87
41
103
120
53
120
139
68
137
157
82
145
168
87
143
168
88
125
152
71
102
131
54
87
111
44
70
87
38
43
52
28
39
47
20
132
124
44
133
126
44
126
121
47
49
48
20
38
49
23
53
69
29
43
54
25
37
48
21
27
34
18
23
29
21
34
42
27
35
43
18
43
52
17
41
46
17
32
35
18
33
37
20
54
62
43
71
81
53
111
126
72
145
168
94
88
108
52
62
83
36
57
77
32
64
79
34
114
120
47
145
152
65
114
121
47
38
40
16
88
107
49
151
184
79
122
150
65
125
152
71
79
95
51
38
47
33
36
51
24
43
58
17
43
55
19
33
40
14
18
25
11
8
13
6
10
18
9
39
54
32
74
90
56
99
117
71
42
59
29
30
46
16
26
42
17
29
41
21
93
108
49
119
135
67
85
99
45
23
28
14
90
110
48
161
196
84
127
158
65
121
145
71
82
98
54
31
43
21
22
32
13
23
33
12
20
28
15
15
20
12
12
16
9
14
19
11
21
30
15
88
110
78
126
144
104
74
88
59
19
28
22
17
24
13
19
30
12
36
49
22
94
109
49
110
126
56
86
99
43
22
27
11
89
108
46
154
188
77
123
153
62
82
102
46
55
69
34
28
41
17
13
18
11
13
17
8
21
26
18
55
57
55
44
46
45
19
28
17
23
34
15
61
79
48
127
144
97
77
86
63
73
79
60
52
63
31
35
52
11
61
83
26
95
109
50
96
110
50
95
112
51
65
81
33
100
126
49
131
164
63
122
153
62
103
129
53
93
117
48
84
106
45
63
79
37
46
59
26
50
60
36
129
132
125
140
147
139
48
75
36
26
48
18
59
73
43
142
163
103
138
157
100
150
170
101
116
139
70
95
122
48
112
140
57
131
149
70
132
153
75
131
159
73
130
161
74
127
160
65
129
161
64
136
168
69
139
172
70
139
172
71
142
174
75
136
167
73
130
159
73
138
161
79
162
180
109
161
182
122
109
139
74
98
129
66
133
159
91
152
177
102
136
162
83
147
176
84
141
165
78
128
150
60
124
146
56
153
184
89
167
196
107
166
197
104
157
190
96
153
188
87
153
188
86
156
190
87
157
190
87
160
194
90
163
197
96
169
202
101
174
207
106
177
205
104
167
195
94
156
184
91
158
189
95
164
201
102
168
204
104
151
182
89
128
151
66
126
146
55
114
133
40
102
118
27
100
115
28
147
186
87
157
193
102
164
198
107
162
197
96
169
206
99
171
207
102
177
212
107
184
217
112
185
218
113
180
216
111
175
209
106
174
201
115
172
193
121
175
200
115
187
213
128
174
211
109
156
193
90
140
171
71
130
156
58
113
137
40
92
117
21
89
108
16
92
106
12
104
112
13
156
197
95
160
200
103
165
206
103
169
207
101
172
209
103
176
213
108
183
217
113
183
217
112
183
217
111
183
212
111
175
198
116
183
204
135
198
225
137
196
229
133
181
216
115
155
187
89
130
160
60
115
140
44
107
131
35
102
125
27
93
115
14
101
117
11
106
120
11
107
122
12
156
196
101
169
209
117
181
221
115
184
222
114
185
222
115
185
222
114
182
218
111
184
218
112
183
209
119
180
194
132
197
215
145
207
233
150
193
226
134
168
202
107
121
147
66
99
118
43
112
135
36
112
137
30
110
134
26
111
135
24
111
132
18
111
128
18
106
124
15
105
124
17
77
95
55
124
145
90
150
176
105
164
192
110
169
198
108
166
196
102
169
196
106
170
192
116
173
187
127
200
219
149
199
228
140
178
210
116
152
185
85
106
128
58
62
76
35
42
53
19
80
95
24
122
145
31
117
140
31
115
139
30
113
135
24
111
131
17
108
127
17
110
129
19
60
80
40
46
59
36
60
70
46
91
102
66
114
134
75
117
135
79
121
135
93
141
158
106
176
195
132
174
201
115
158
190
89
145
177
72
116
141
54
71
84
44
85
97
51
68
80
34
61
71
21
118
139
28
119
143
25
116
138
23
113
133
24
113
132
26
105
122
28
89
102
23
119
153
74
112
142
75
106
132
74
112
134
78
118
144
76
117
138
83
118
136
96
154
175
118
170
192
128
146
172
87
147
174
75
137
165
59
104
122
52
83
96
49
94
106
50
100
114
55
73
85
27
111
132
22
118
142
25
115
136
27
99
117
29
79
93
26
69
80
17
69
78
11
136
164
90
131
162
64
137
171
68
137
171
79
138
170
79
138
167
87
142
170
90
161
185
110
164
187
110
143
171
73
141
167
62
130
156
48
86
100
47
104
119
56
124
139
61
116
130
64
86
101
36
117
140
32
118
139
41
81
96
30
56
68
15
68
80
11
92
105
12
126
142
25
121
156
74
94
125
25
121
147
36
129
157
45
134
162
49
135
166
54
136
168
59
140
170
63
141
170
60
138
164
50
133
161
42
126
149
42
64
75
36
103
117
59
144
160
88
120
137
71
87
104
42
105
127
38
78
93
25
73
85
15
101
116
23
135
153
40
160
180
49
168
190
55
71
94
35
39
49
16
58
71
18
114
140
26
108
133
27
112
134
26
125
147
29
130
154
33
134
151
34
130
139
30
129
153
34
115
135
36
84
96
45
108
124
60
128
145
80
135
150
93
58
68
31
65
79
12
100
116
20
138
158
39
165
187
58
173
196
68
182
203
74
188
209
79
78
101
36
71
95
34
53
70
23
110
132
26
93
113
23
68
71
22
91
76
13
96
77
11
115
91
9
126
120
22
134
161
39
115
138
39
65
75
33
74
87
42
103
120
66
110
123
79
77
89
19
125
144
30
166
188
58
183
205
73
185
207
77
190
212
86
199
220
96
201
221
97
66
81
13
52
65
22
80
100
40
106
130
39
130
158
63
137
159
91
113
135
58
98
116
48
112
125
60
151
175
84
151
179
84
97
118
47
40
49
19
98
113
60
122
137
91
100
116
44
149
170
45
181
202
73
185
207
77
190
211
80
194
215
86
196
217
92
200
221
99
203
223
102
122
144
31
83
98
17
55
63
13
41
48
11
53
65
25
77
94
43
96
118
56
112
134
64
124
144
74
112
130
62
69
83
26
37
46
12
41
49
13
66
76
28
105
119
45
157
178
59
186
207
75
190
211
83
195
216
88
201
221
94
202
221
96
201
221
97
203
223
99
205
225
102
166
191
61
153
175
49
125
144
34
96
112
21
71
83
17
52
61
10
44
52
10
41
49
10
47
55
9
62
72
12
81
97
17
100
117
25
128
146
42
152
171
55
179
199
72
188
209
81
193
212
88
201
220
94
204
223
101
204
223
101
205
223
100
206
225
103
206
225
106
206
225
106
