P3 24 24 255
175
180
186
180
184
189
148
155
160
139
149
153
150
160
164
129
138
140
150
162
167
130
146
161
111
126
134
176
183
186
194
201
205
197
202
208
199
204
209
198
203
209
196
202
209
194
200
207
191
197
202
187
193
196
185
190
192
183
189
192
185
192
195
190
197
200
161
168
167
138
147
147
184
189
195
177
182
189
99
108
116
90
102
106
146
157
162
120
131
137
123
138
148
100
115
131
97
110
119
170
177
181
198
202
206
198
203
207
198
203
207
197
202
206
197
202
206
198
203
208
199
204
209
198
203
207
194
199
204
190
197
201
185
190
192
183
187
189
167
174
174
157
165
165
163
169
174
166
173
180
115
125
134
110
124
131
145
159
167
111
123
131
104
118
126
80
95
109
87
100
111
161
168
173
196
200
204
198
203
207
201
206
210
199
204
208
199
204
208
199
204
209
199
203
210
200
205
211
200
204
210
195
201
205
167
168
167
158
158
154
177
183
184
171
177
180
144
149
151
155
164
169
150
161
170
120
135
149
137
155
167
112
128
138
101
114
124
87
100
111
77
91
102
127
136
142
183
188
191
196
202
206
196
201
205
195
200
204
196
201
205
196
201
207
197
201
209
197
202
209
200
205
213
193
195
201
154
148
149
143
140
136
178
185
186
177
182
185
166
171
173
160
170
177
157
169
180
107
121
137
104
125
142
92
113
128
108
122
136
123
134
140
101
112
121
101
109
117
153
156
160
194
198
202
189
194
198
189
194
198
191
196
201
191
196
200
192
196
200
193
198
204
184
188
192
172
164
161
143
134
130
142
142
140
187
193
196
177
182
186
190
193
199
166
177
187
150
163
175
119
132
146
102
120
136
112
127
138
135
143
152
165
172
177
143
153
160
102
109
115
141
143
145
190
194
197
186
191
196
189
194
198
191
196
200
192
197
200
193
199
202
185
190
194
142
140
136
123
113
101
99
91
84
131
130
131
199
204
209
182
187
192
196
198
205
167
175
185
149
164
177
137
152
165
135
145
154
162
167
170
178
180
184
186
191
197
151
158
165
117
123
128
165
170
172
185
190
193
184
190
192
187
192
196
186
190
195
190
194
199
191
196
201
162
162
158
119
116
104
91
87
80
62
57
57
97
96
100
193
198
204
193
197
203
200
201
207
194
198
203
167
177
185
162
172
180
187
190
194
199
201
203
194
197
201
186
191
196
173
178
184
165
170
174
179
184
187
182
187
190
182
189
191
185
190
196
181
186
189
189
193
198
183
188
190
144
141
128
146
144
127
134
133
131
90
90
93
57
58
64
153
155
162
196
201
207
205
207
213
211
212
217
203
205
210
202
204
208
209
210
214
198
201
208
186
189
195
179
184
188
178
183
187
177
182
186
177
180
182
177
180
179
184
186
187
191
193
195
188
194
198
191
195
202
197
201
205
163
162
158
185
185
183
189
190
194
108
109
109
54
51
54
100
99
104
182
187
191
209
212
219
212
214
219
214
214
221
213
214
221
201
203
212
187
189
198
180
184
191
175
180
185
174
178
182
176
181
185
156
159
159
125
123
118
142
136
130
162
158
149
192
195
198
176
178
179
194
195
202
206
206
216
204
204
213
161
161
161
82
79
77
70
61
60
88
77
76
139
132
130
211
213
218
212
214
219
213
215
222
205
208
218
189
193
202
180
183
192
173
178
184
172
176
183
171
176
183
171
177
181
122
124
124
87
86
83
89
85
83
109
104
99
150
148
139
129
124
117
174
168
172
208
207
218
163
162
162
132
130
109
82
76
68
92
77
73
142
124
120
145
131
133
211
213
218
214
215
221
208
210
219
191
195
204
180
184
193
174
178
187
172
177
184
169
176
183
133
141
150
76
83
95
67
70
78
79
78
77
73
72
72
96
93
91
95
91
82
85
78
73
147
142
146
211
213
223
183
182
183
134
126
107
97
84
74
100
82
75
141
120
116
141
126
132
211
213
222
213
215
225
196
199
209
178
182
193
174
177
189
171
175
186
155
162
172
123
134
143
76
85
96
28
34
49
53
56
65
73
73
76
60
59
66
60
58
64
67
63
66
66
62
65
68
67
72
162
166
175
187
188
195
114
104
99
74
64
62
80
69
67
81
72
71
126
125
128
213
215
227
205
207
219
180
184
195
171
175
186
172
176
187
169
174
185
94
101
112
57
65
77
71
79
90
74
76
81
98
98
97
66
67
70
46
44
53
45
44
51
47
46
55
49
47
54
47
45
50
100
101
107
165
169
177
113
108
107
59
56
53
58
54
54
70
72
75
124
126
130
213
214
225
188
192
202
165
169
180
163
169
178
161
168
177
129
135
145
92
100
110
63
70
82
90
91
94
114
112
108
98
95
93
88
85
83
82
79
78
72
69
68
57
54
58
62
58
60
68
63
63
74
72
77
75
76
84
74
72
80
48
46
54
42
39
49
79
78
85
122
123
127
209
211
220
166
171
179
152
155
165
163
168
179
139
145
155
73
79
90
100
109
120
104
110
119
95
93
93
96
93
90
93
89
88
92
88
85
89
86
83
75
70
68
64
59
61
61
56
61
67
64
63
62
60
64
44
42
51
35
32
44
32
29
44
36
34
48
85
85
92
128
127
132
201
202
212
140
143
150
138
142
151
158
164
175
119
122
131
97
102
113
99
106
116
84
86
91
93
90
89
86
83
81
91
87
84
86
80
78
89
84
81
71
67
65
71
65
65
64
58
61
59
56
57
50
48
52
41
38
47
36
34
46
31
29
42
43
41
52
103
103
109
144
143
148
194
195
204
118
120
126
129
135
142
136
141
150
83
85
91
76
79
88
69
71
78
85
83
84
93
90
89
80
78
77
80
75
74
88
80
78
89
82
78
76
69
66
71
64
63
68
62
62
60
55
57
53
49
54
41
38
48
37
34
46
33
31
44
45
43
53
114
113
119
172
172
176
195
195
203
116
117
124
127
132
140
103
105
110
71
71
74
62
61
68
71
70
73
90
88
89
87
84
85
78
75
73
75
70
71
78
71
70
76
67
66
78
69
68
65
57
58
60
55
57
62
57
61
55
49
55
40
37
47
35
33
45
33
32
45
41
39
50
135
133
139
200
200
204
203
204
212
130
131
138
114
117
122
82
82
81
72
70
73
69
67
71
79
78
78
92
90
91
80
77
80
73
68
68
76
70
70
78
70
70
70
61
62
72
64
64
64
58
60
66
59
59
60
54
58
50
45
51
42
39
48
33
32
45
27
26
40
74
72
81
183
181
187
209
209
214
215
214
224
155
156
163
96
96
98
75
72
73
67
65
69
73
71
75
79
77
80
90
88
91
79
77
80
64
61
63
68
62
63
78
70
69
74
67
65
65
59
58
66
60
61
65
57
58
61
53
58
46
43
51
40
38
48
29
29
43
44
43
54
149
147
153
212
210
217
207
207
213
217
217
228
192
193
201
110
109
110
65
62
66
61
60
65
70
69
73
75
72
79
84
81
88
82
78
83
71
65
69
60
56
59
63
58
59
68
61
63
66
60
61
65
59
61
58
52
55
56
48
55
39
36
47
33
32
45
36
36
48
119
117
125
204
203
208
211
210
216
208
207
214
216
216
226
214
215
223
164
163
166
71
70
74
58
57
63
67
65
70
70
67
74
80
77
85
78
74
80
66
61
66
60
57
62
63
59
62
59
54
59
62
57
60
59
55
59
51
48
54
46
42
52
34
32
46
28
28
40
87
87
95
196
195
201
215
214
220
210
209
215
209
209
215
219
219
226
216
217
223
207
208
213
152
153
158
82
81
87
66
65
70
67
65
71
74
71
78
77
74
81
60
58
66
58
55
62
64
59
65
60
56
62
54
52
57
48
47
55
40
40
50
36
36
48
30
29
42
63
62
70
169
168
174
217
216
222
212
211
217
211
210
216
211
211
216
