P3 24 24 255
109
131
150
113
134
153
116
137
156
120
140
161
122
141
163
124
143
165
126
145
167
127
146
168
128
147
169
128
147
169
128
147
169
128
147
169
128
147
169
127
147
168
126
145
167
124
144
167
122
142
165
119
140
162
116
137
159
112
134
153
107
130
148
103
126
144
99
122
140
92
118
136
120
139
160
125
143
165
128
147
168
132
149
171
133
150
172
135
152
174
137
154
176
138
155
177
138
155
177
138
155
177
138
155
177
138
155
177
138
155
177
137
154
176
136
153
175
134
152
175
132
151
175
130
149
173
127
146
169
121
142
164
116
138
159
113
134
156
107
129
150
101
124
145
132
150
170
135
153
173
138
156
176
141
157
178
143
159
179
144
160
180
145
161
182
147
162
183
147
163
183
147
163
183
147
163
183
147
163
183
147
163
183
145
161
182
144
160
180
143
159
181
141
158
181
140
157
180
138
155
177
132
152
173
127
148
169
123
144
165
116
137
158
109
131
152
142
159
177
145
161
180
148
164
183
151
166
185
152
167
186
154
168
188
155
170
189
156
170
190
156
170
190
156
170
190
156
170
190
156
170
190
155
170
189
155
169
189
153
168
188
151
167
188
150
166
187
149
165
186
147
163
184
142
160
182
138
156
178
134
152
174
128
146
168
121
141
162
152
168
185
155
171
188
158
174
191
162
175
193
163
176
194
164
177
195
165
178
196
167
180
198
167
180
198
167
180
198
165
178
196
165
178
196
163
176
195
163
176
194
161
175
193
159
174
193
157
173
193
157
172
192
156
171
191
152
168
191
148
164
187
144
160
183
139
155
178
133
151
173
163
178
194
166
181
198
169
183
200
172
185
202
174
185
203
174
186
203
176
187
205
179
189
206
179
189
206
177
188
206
175
186
204
173
184
201
172
183
200
171
181
198
170
180
197
167
181
198
166
180
198
164
178
197
163
177
196
159
175
196
155
171
193
151
167
188
147
163
185
143
161
182
175
186
206
178
189
209
180
191
211
182
193
211
182
194
211
183
194
211
184
195
212
186
195
212
185
194
211
183
193
212
182
192
211
181
192
209
179
190
207
177
188
204
176
187
203
176
187
204
174
186
203
172
183
200
170
182
199
166
180
198
163
177
195
160
174
192
157
171
190
153
168
189
185
194
213
187
196
215
188
197
216
190
199
216
190
200
216
191
201
217
191
201
217
189
199
218
187
198
216
187
197
214
188
196
214
185
196
213
183
195
212
180
193
211
179
192
211
181
192
209
181
191
207
178
188
204
177
186
203
174
185
202
171
182
200
169
180
197
166
177
195
161
175
194
193
201
216
195
203
218
195
203
219
195
203
219
195
203
219
195
203
218
193
201
217
193
200
215
194
199
214
194
199
212
196
199
212
193
199
213
191
197
212
188
194
209
188
194
209
187
195
210
186
194
209
184
192
207
183
191
207
182
190
207
180
188
206
179
187
204
176
185
202
171
181
200
199
207
218
199
207
218
199
207
218
199
207
220
199
206
220
198
205
219
198
206
220
197
205
222
188
198
216
183
195
216
177
192
214
176
192
216
184
196
218
194
199
215
197
197
210
191
196
210
190
197
211
189
197
210
189
196
210
190
196
212
189
194
211
188
193
210
187
192
209
183
189
207
204
211
222
203
211
221
203
210
219
203
209
222
208
213
229
203
208
224
180
187
203
132
154
181
91
121
155
73
109
147
60
100
142
60
99
141
79
110
148
122
142
171
176
187
209
199
205
220
195
201
213
196
202
215
196
203
217
197
201
218
196
199
217
196
199
216
196
198
215
192
196
215
205
214
226
207
211
224
210
214
221
210
210
221
172
181
201
112
130
162
61
85
122
32
68
105
22
59
95
21
56
90
28
61
93
30
67
95
30
68
96
30
65
97
70
101
134
155
171
193
201
205
219
204
208
221
198
208
223
200
207
223
203
206
222
204
206
221
204
204
219
201
204
220
222
222
235
213
220
232
183
199
210
114
134
151
54
82
109
45
82
116
68
107
142
74
109
141
71
102
132
87
116
145
109
136
162
127
158
177
131
162
182
78
109
135
57
88
119
69
102
131
136
152
174
205
206
219
218
217
225
220
218
223
218
215
222
215
213
222
213
211
224
211
212
224
189
193
212
150
169
193
72
95
134
20
58
110
29
70
124
72
109
154
111
142
178
105
141
176
97
137
174
105
148
187
114
159
199
128
173
207
137
178
210
75
111
144
81
118
151
78
129
166
46
87
124
98
121
150
158
173
198
177
194
214
192
206
223
211
217
232
223
224
237
223
223
235
80
73
106
42
88
132
35
80
141
28
90
152
27
96
160
32
103
166
37
105
163
40
103
157
31
95
150
39
106
165
44
114
174
47
115
172
49
114
169
36
98
152
47
108
161
54
122
171
40
105
159
29
88
145
38
97
152
46
107
160
64
116
162
98
133
169
142
163
191
190
201
220
102
53
92
32
96
148
27
96
155
26
104
162
31
113
177
16
98
164
17
95
160
19
96
161
13
90
157
17
96
164
20
100
169
22
100
169
24
102
171
26
105
175
26
106
175
26
108
173
32
111
178
43
118
183
53
123
180
40
110
166
17
84
141
27
91
149
33
92
147
58
88
122
76
57
92
23
53
93
26
49
83
32
58
86
63
103
148
45
103
173
17
74
150
16
78
148
12
79
147
12
79
147
11
79
147
11
80
149
9
80
150
7
81
153
6
82
154
7
83
152
5
83
155
36
106
168
60
111
152
39
78
108
34
72
106
26
74
120
21
91
155
15
58
102
25
37
71
39
46
66
73
85
92
71
82
87
41
59
81
36
80
138
25
75
147
23
74
143
21
74
143
23
75
144
23
75
144
20
78
145
18
79
147
17
79
149
15
79
149
15
80
148
12
79
151
22
77
134
31
58
85
67
82
90
86
97
104
49
63
81
14
60
108
28
72
123
23
34
53
76
85
93
97
111
124
87
104
111
55
67
77
19
56
98
19
78
147
18
76
147
22
75
146
25
73
146
26
72
145
22
75
146
19
76
148
18
76
150
17
77
151
12
79
152
16
79
150
18
57
106
49
61
77
92
100
104
99
107
112
82
86
94
24
48
78
28
67
126
34
43
50
81
91
92
105
119
134
88
104
118
62
66
76
24
47
83
26
74
137
23
76
139
27
76
138
29
72
137
31
70
135
27
73
135
24
74
136
22
75
138
21
76
140
19
79
144
26
80
142
22
52
93
57
65
78
89
100
110
108
123
136
90
96
105
33
49
70
27
58
111
17
23
26
81
90
95
98
113
123
93
106
116
60
61
67
10
19
40
13
31
64
13
34
65
13
34
65
14
34
65
16
34
65
15
37
64
14
39
67
13
39
68
13
41
71
14
41
74
17
42
76
11
26
50
57
63
69
97
106
115
97
113
130
83
91
99
24
33
45
21
37
64
2
7
11
46
53
62
84
97
103
78
89
90
26
29
28
0
2
7
4
3
8
5
3
6
2
2
6
2
2
6
1
3
5
1
3
2
1
3
2
0
4
4
1
5
6
2
4
7
2
4
11
0
4
9
24
28
27
80
84
88
87
98
109
51
58
63
8
13
16
10
20
28
39
54
63
39
54
64
57
74
82
51
67
74
37
52
59
40
55
62
41
55
63
42
55
63
42
55
63
42
56
63
42
56
64
42
56
64
42
56
64
41
55
64
42
57
65
42
57
64
41
57
65
41
57
65
43
59
66
60
78
88
69
89
100
52
71
82
52
71
81
56
78
90
69
97
113
69
97
113
67
95
111
69
98
113
73
102
118
72
101
117
72
100
116
72
101
116
72
100
116
72
100
116
71
99
115
72
100
116
72
101
116
72
101
117
73
102
118
74
104
119
76
106
121
77
107
122
78
109
124
77
109
126
75
107
126
79
112
130
81
113
131
82
111
125
