P3 24 24 255
16
18
9
6
0
10
6
1
9
7
1
7
7
2
8
7
2
9
4
1
6
8
2
5
25
12
14
42
28
26
45
33
27
22
16
10
8
10
6
17
17
9
65
49
34
98
77
53
86
89
50
77
94
48
57
69
30
58
65
31
68
73
31
87
89
35
90
96
33
71
85
23
7
5
2
8
3
3
7
1
6
8
1
9
8
1
9
8
2
7
6
2
5
8
2
3
22
9
9
42
26
24
54
39
32
37
28
21
13
16
14
14
18
7
56
38
19
108
82
49
138
141
88
97
117
66
47
62
25
49
59
27
67
73
36
101
104
53
102
111
45
74
99
22
7
5
2
6
5
5
9
3
8
7
3
9
5
2
7
8
2
4
10
3
5
9
3
5
18
8
11
41
26
25
62
41
34
52
38
28
23
30
18
24
30
11
46
33
11
113
89
57
129
120
78
50
57
29
20
28
13
29
34
18
36
37
17
66
64
35
87
90
46
87
106
38
13
13
5
5
4
3
11
3
6
8
4
6
2
3
4
8
2
3
12
3
3
8
2
3
15
9
10
38
26
23
65
41
31
58
41
24
29
38
12
41
49
19
48
42
14
104
87
56
133
112
79
57
49
27
21
23
10
22
20
11
18
14
7
24
19
12
33
29
17
41
45
18
47
48
22
36
23
13
23
4
3
15
5
5
5
6
6
11
7
7
19
11
8
16
10
6
17
10
5
39
27
18
67
45
29
69
51
25
35
39
8
44
52
22
41
44
17
68
57
29
142
116
76
110
95
53
44
41
11
29
23
14
13
6
12
15
9
19
12
8
17
11
9
15
97
100
47
121
96
61
76
44
30
41
24
21
21
20
20
22
19
18
33
24
21
38
28
24
23
12
6
39
24
13
70
48
32
85
63
36
53
44
12
39
44
19
25
32
14
46
38
15
149
119
76
167
144
84
96
84
38
32
20
10
11
1
10
10
5
15
7
5
10
9
6
12
93
101
25
143
114
56
98
63
35
46
26
20
23
20
20
21
17
15
28
15
16
43
26
27
33
14
11
39
17
10
73
48
36
96
69
48
83
61
30
62
55
36
37
38
27
56
44
27
162
127
87
196
163
106
151
126
80
65
43
26
36
20
14
53
46
35
25
23
11
11
6
5
86
101
10
122
106
30
86
59
22
38
21
14
18
13
14
20
13
10
38
18
17
54
28
25
65
34
25
55
24
14
72
42
29
100
68
45
104
72
43
69
48
29
58
43
28
70
48
24
145
107
68
185
145
94
157
122
74
131
101
60
151
130
86
202
189
134
135
125
83
28
16
17
87
110
8
108
110
21
71
57
15
32
20
14
22
17
18
34
23
17
61
36
25
87
53
36
110
71
45
116
78
46
117
84
51
112
79
43
122
86
47
107
74
37
94
63
29
113
80
37
122
85
36
152
111
53
171
132
66
178
144
70
213
187
107
233
212
132
198
177
116
80
62
45
92
120
11
112
131
20
87
88
22
39
33
15
26
17
15
51
34
21
87
56
31
125
85
53
153
110
69
150
107
60
156
120
70
150
114
65
152
109
61
149
105
52
154
112
53
173
133
68
176
139
70
164
128
53
177
140
55
205
173
79
214
188
96
209
183
103
208
182
114
166
148
95
95
124
15
114
147
10
147
164
42
107
102
46
60
39
25
96
68
41
128
89
49
146
100
60
155
108
65
152
106
58
149
105
55
169
124
72
168
119
64
172
123
61
181
136
66
182
141
66
202
165
86
193
164
79
198
170
81
210
184
98
183
165
92
177
158
94
199
173
106
201
183
114
95
114
30
120
145
28
170
182
58
154
141
63
115
83
50
139
101
62
155
112
63
149
103
56
133
87
39
142
96
48
151
105
58
163
120
66
171
134
68
183
148
78
196
162
92
204
169
99
214
184
113
214
188
114
214
186
109
212
187
116
167
153
96
156
143
91
211
189
126
211
190
123
63
64
24
84
90
31
142
137
48
147
123
46
143
101
53
146
100
51
165
122
66
172
130
74
169
129
74
181
141
89
202
161
112
205
171
116
207
185
118
207
185
116
212
187
121
226
199
135
214
188
124
203
175
112
209
176
111
213
185
122
182
168
115
179
169
118
225
207
144
221
198
134
47
30
15
59
45
22
117
95
37
151
116
45
161
114
55
162
111
56
190
149
88
197
160
99
202
165
107
198
161
106
189
151
100
213
183
134
221
201
152
210
189
136
209
183
124
221
192
128
207
176
107
204
173
110
211
179
116
212
185
123
217
205
151
227
220
164
226
208
144
199
172
113
79
49
29
92
63
42
133
98
55
158
117
56
181
136
74
187
142
83
206
171
111
199
166
106
195
161
103
197
164
109
160
125
72
167
133
88
176
145
112
175
144
104
190
158
105
196
161
96
191
157
82
224
196
128
226
200
135
219
197
134
237
227
176
224
215
163
184
162
104
149
117
68
125
87
46
115
78
46
148
108
71
168
126
78
191
158
101
201
173
117
178
147
94
189
157
104
189
156
103
189
157
104
186
153
100
162
127
79
160
125
85
180
146
102
197
164
111
205
173
112
196
166
98
220
200
137
234
215
156
236
218
164
209
198
160
158
141
107
129
99
59
122
90
51
176
133
69
155
115
65
188
145
108
204
167
126
173
146
94
173
149
96
177
148
100
202
172
125
202
170
122
182
152
100
215
186
132
219
189
132
212
185
125
217
193
134
225
201
144
232
209
155
225
204
151
226
214
163
216
203
154
147
129
92
75
59
41
75
51
38
125
89
68
131
99
68
202
154
87
175
132
79
170
125
78
167
124
74
189
156
100
195
171
113
181
160
104
195
172
123
213
190
143
198
177
122
221
200
145
235
216
162
213
196
135
206
190
131
215
199
144
228
212
162
240
226
179
236
225
172
200
188
141
115
99
75
37
19
10
59
34
21
128
96
67
135
104
68
198
150
88
189
147
96
173
130
79
184
142
88
191
158
102
200
176
119
196
175
116
206
184
134
221
201
156
215
197
142
214
197
144
228
212
166
212
197
146
208
192
141
204
187
139
218
201
156
227
210
166
216
199
149
189
173
129
150
133
107
101
81
63
119
92
69
127
96
64
118
88
52
199
157
97
194
158
108
161
123
75
182
145
99
188
155
108
197
167
117
203
176
123
201
174
131
201
175
136
204
181
132
184
162
115
181
158
120
184
163
123
195
172
132
184
161
123
167
144
108
157
133
99
141
115
81
131
106
72
110
88
56
107
83
55
116
86
64
123
88
68
119
90
63
206
172
117
206
176
128
153
120
77
160
124
86
177
141
103
187
153
112
187
157
112
201
171
135
201
172
141
198
170
129
181
154
114
108
79
52
108
79
52
139
110
83
160
131
105
142
113
87
123
94
69
123
89
69
118
85
60
111
85
49
119
94
58
126
92
71
128
91
79
142
112
94
201
172
127
199
170
126
130
100
67
120
88
60
145
111
82
159
126
94
170
136
98
172
135
106
165
130
106
155
123
89
158
126
94
117
85
63
122
89
71
134
102
84
147
116
97
145
113
93
136
104
84
119
82
68
125
89
70
147
119
84
153
126
90
153
120
98
125
88
78
135
104
89
148
122
90
193
160
122
135
105
80
88
60
42
93
64
44
114
83
58
128
93
63
120
83
60
123
86
68
135
102
73
131
100
73
119
87
71
125
93
80
114
83
68
124
93
76
132
102
83
126
95
75
118
81
66
129
92
74
151
121
94
144
118
89
142
112
90
132
98
83
152
117
99
92
67
46
163
127
93
125
94
70
89
63
49
71
46
31
80
53
32
97
64
37
110
74
55
127
93
77
144
112
87
137
107
84
118
88
75
105
75
64
97
68
54
105
76
59
112
84
64
110
82
60
119
83
64
123
87
69
142
113
93
153
128
106
155
129
105
174
144
121
188
152
129
