P3 24 24 255
250
250
254
247
249
253
246
248
253
250
251
253
239
237
236
138
135
130
96
96
98
97
99
103
96
96
98
96
96
98
96
96
97
97
96
96
95
93
96
97
94
98
97
96
98
98
98
99
103
102
102
158
158
160
241
241
245
253
252
255
254
253
254
254
254
254
254
253
254
253
251
254
247
249
253
244
248
252
246
249
253
250
250
252
237
237
235
147
143
135
108
107
107
108
109
110
106
107
105
104
104
104
103
102
104
108
106
103
107
106
104
105
106
105
109
108
105
111
111
108
112
112
108
110
113
117
189
193
200
243
243
248
249
248
252
251
250
253
250
249
252
247
246
250
250
251
254
245
248
253
245
247
251
245
245
250
232
232
233
145
141
134
110
107
102
107
106
105
104
103
103
104
103
102
107
106
104
110
109
105
108
107
105
105
104
104
108
107
105
111
110
107
109
107
105
84
89
94
115
120
129
211
211
215
249
249
253
244
244
248
243
243
248
240
242
247
250
250
250
247
247
250
249
250
251
249
248
250
246
245
247
161
159
153
110
107
100
107
104
101
103
103
98
103
101
96
106
104
99
116
117
113
117
117
115
109
108
105
112
110
106
114
113
109
89
88
87
82
85
89
82
87
91
175
175
177
249
250
254
234
237
242
232
235
238
228
232
236
242
242
246
245
245
249
248
248
248
244
244
245
242
242
240
165
164
158
113
110
104
111
109
104
101
101
96
103
102
96
112
110
105
125
126
125
122
123
122
112
110
105
110
107
101
111
111
106
88
88
89
89
89
93
88
91
93
114
116
117
194
195
199
204
208
216
201
206
212
200
206
212
205
209
210
203
206
202
194
197
189
187
192
182
163
168
147
126
126
110
111
107
101
108
105
102
106
105
103
108
106
99
116
114
109
126
125
125
121
122
120
118
118
114
110
108
103
111
110
106
94
94
94
90
91
96
93
95
97
86
88
90
147
150
153
185
189
194
179
182
189
177
180
185
123
132
124
114
122
107
105
112
96
108
115
100
99
107
83
109
110
91
114
110
102
111
108
102
111
108
102
110
106
100
119
115
110
130
127
123
136
135
134
126
125
121
114
113
109
118
116
112
98
98
98
91
92
95
95
95
98
84
86
88
102
105
107
118
120
121
113
114
116
110
111
112
83
90
81
78
85
74
80
85
76
78
81
73
75
80
68
100
99
86
120
116
103
119
115
106
117
113
103
116
113
104
124
119
112
137
133
123
143
142
139
127
126
122
118
117
113
126
124
121
100
101
100
91
92
94
98
99
100
86
87
88
73
75
76
74
75
75
76
77
75
76
77
76
87
91
85
86
90
82
88
90
84
88
89
84
83
85
78
104
101
89
127
121
102
128
120
104
121
115
102
118
114
103
130
124
113
142
133
114
129
126
117
119
117
112
114
110
101
122
117
111
102
101
101
89
90
92
106
108
107
93
95
95
62
64
68
55
59
62
57
60
64
58
61
66
73
77
75
67
71
70
64
68
66
62
65
63
58
60
58
93
88
78
128
117
99
129
119
98
124
115
96
121
113
102
142
133
117
151
139
109
133
124
108
128
122
113
116
112
102
116
110
101
104
103
100
90
91
93
106
108
108
101
103
104
110
112
116
137
140
145
148
151
155
155
157
162
37
41
45
35
38
44
33
37
43
36
39
42
36
39
40
84
80
66
125
115
97
122
113
104
121
113
102
122
115
105
138
131
115
141
134
121
135
131
126
132
127
120
122
119
114
120
114
106
102
101
96
90
92
92
103
106
106
101
104
104
179
179
184
232
233
239
229
230
233
232
232
235
36
39
46
38
42
44
46
49
48
71
72
62
67
71
56
92
87
66
130
117
90
129
117
95
128
119
94
133
121
102
142
132
112
139
136
122
150
151
151
145
141
136
117
114
107
122
118
109
103
101
94
84
85
85
103
105
105
98
102
101
173
175
172
238
240
238
239
239
243
237
237
242
51
61
48
56
62
47
73
77
58
92
95
75
72
77
57
103
96
64
141
122
76
138
120
77
135
119
78
141
124
87
148
135
110
157
152
142
161
159
155
140
137
130
114
110
99
115
110
99
106
103
96
81
81
83
89
91
94
91
93
95
98
102
87
161
165
150
219
220
221
212
214
211
72
86
49
72
82
50
69
77
53
69
77
54
72
83
52
106
104
69
146
126
81
138
121
83
129
115
91
137
124
94
148
137
108
150
146
140
161
160
158
158
157
152
126
120
110
116
108
96
103
100
92
81
82
82
71
73
76
75
76
77
65
67
65
51
59
61
78
83
87
105
109
95
69
81
48
66
76
47
62
71
49
62
71
49
66
77
46
98
97
76
136
115
93
137
108
85
130
110
93
131
121
106
146
140
127
150
147
140
174
171
169
172
159
152
145
124
113
124
112
100
100
98
92
79
81
80
74
76
77
76
75
76
73
70
66
49
54
58
49
54
59
75
83
71
63
74
45
59
70
44
57
68
45
61
72
48
61
70
46
94
92
73
134
108
88
141
101
72
132
103
86
135
127
119
142
139
131
148
146
142
167
163
161
153
134
126
141
114
101
125
110
98
101
98
92
78
78
77
74
75
75
75
75
75
77
69
65
57
57
60
60
63
66
68
78
71
58
71
42
51
63
40
52
63
42
54
65
43
55
63
43
82
81
65
101
85
75
101
81
71
106
93
83
117
112
105
116
113
105
123
121
115
135
134
131
126
120
115
112
103
100
103
96
91
97
95
89
82
81
79
78
78
77
71
72
72
72
66
64
57
55
55
61
61
60
76
82
74
54
68
38
47
59
37
48
58
39
52
62
41
52
61
42
77
77
65
88
77
69
87
75
67
93
88
77
103
99
90
106
102
93
118
115
110
130
129
125
125
124
117
108
101
97
96
91
83
97
94
86
88
88
86
80
80
81
65
66
69
61
60
62
50
48
47
48
47
47
100
101
97
50
63
37
40
52
32
45
54
36
53
60
43
51
57
42
83
82
72
89
84
77
89
83
77
92
88
81
103
100
96
110
107
103
120
119
117
122
122
119
126
124
120
115
113
109
100
96
90
94
90
85
61
61
63
52
53
57
72
74
77
63
65
66
52
52
52
42
43
46
94
95
95
50
63
37
40
51
34
49
58
41
58
64
50
62
67
57
90
87
80
107
104
98
106
104
99
85
81
76
92
88
84
103
101
98
96
95
94
106
103
100
112
107
103
107
102
99
95
91
87
78
76
74
54
56
60
45
47
52
61
63
64
67
68
69
91
91
90
99
100
99
99
100
96
71
78
60
68
71
63
71
74
65
69
73
63
69
71
62
75
73
62
84
82
70
80
77
67
58
57
52
48
48
46
62
61
60
55
55
55
58
55
52
68
63
59
49
48
49
49
49
51
60
61
61
58
62
64
55
58
61
62
63
62
73
74
72
144
143
138
148
146
140
134
134
129
69
70
59
67
69
55
75
75
61
90
90
72
82
81
66
87
83
72
84
79
72
66
62
56
72
70
66
88
86
82
86
85
82
92
92
90
99
97
93
74
71
68
43
40
42
47
45
49
57
58
59
54
56
58
41
45
48
49
51
54
65
66
68
117
117
115
115
115
111
116
118
114
79
82
66
86
86
72
87
84
74
97
92
83
102
96
87
109
102
92
104
100
91
77
76
71
75
74
71
88
86
83
92
91
88
119
118
115
130
125
122
87
81
82
63
56
56
72
65
65
61
61
61
55
57
60
44
47
51
53
56
60
85
88
91
87
89
90
89
91
90
96
99
96
95
91
81
105
101
92
109
105
96
108
103
93
112
106
97
121
116
106
120
117
108
68
69
67
32
34
37
32
34
37
41
42
44
67
67
68
65
64
65
51
49
52
45
42
46
45
42
45
40
41
44
47
50
55
65
68
72
81
84
86
84
87
88
81
84
86
85
89
88
90
94
93
