P3 24 24 255
211
201
178
213
206
182
203
199
174
206
203
178
204
196
175
203
192
172
164
159
129
143
144
105
116
119
79
98
97
60
91
86
53
91
82
51
102
95
64
126
126
99
143
147
126
133
137
116
122
126
103
113
120
96
127
137
114
136
142
123
131
133
117
128
124
109
98
91
72
132
121
100
193
188
159
182
180
151
169
167
141
173
170
145
167
167
140
170
172
142
160
161
126
134
133
95
114
112
77
101
98
62
100
96
59
94
90
53
100
96
67
126
127
100
140
146
118
130
138
112
122
128
103
122
129
105
122
130
110
94
100
84
65
63
54
74
62
50
68
58
38
96
90
73
167
165
139
158
160
133
158
157
133
158
158
135
149
156
129
148
159
128
146
152
119
121
119
88
111
106
76
116
111
80
110
106
72
101
97
63
103
100
77
131
131
107
140
144
116
127
135
111
131
138
115
109
114
94
71
75
60
36
39
29
28
26
23
62
48
38
85
63
44
79
67
54
156
158
136
155
160
135
157
158
133
158
159
134
149
156
130
143
153
125
147
154
125
136
137
108
111
107
74
114
109
77
105
101
71
97
91
64
94
88
63
124
121
94
141
142
115
132
136
115
112
116
100
63
66
54
35
38
29
32
34
29
26
28
28
54
42
35
95
62
46
84
58
46
151
158
128
153
162
127
160
163
127
161
162
126
158
161
126
159
162
126
162
166
131
156
158
122
122
120
76
108
104
63
115
111
74
116
111
77
108
103
67
132
129
91
152
153
119
120
124
98
56
59
46
31
34
28
34
36
32
36
38
35
24
29
29
46
38
30
102
66
50
100
68
55
156
164
122
156
164
121
168
169
126
169
164
121
162
155
112
154
145
104
150
144
104
155
153
112
148
146
100
130
128
83
127
124
81
133
130
89
136
132
90
147
146
104
129
132
97
63
67
44
26
28
20
27
29
27
34
36
33
27
29
27
21
26
24
39
38
24
77
55
33
91
66
51
158
164
123
145
149
111
123
118
84
123
108
74
105
82
47
99
73
41
94
73
43
93
81
51
101
96
65
110
105
73
120
115
81
127
123
88
127
125
92
109
110
80
54
57
37
21
26
21
22
26
25
26
28
25
25
27
23
23
25
20
26
30
23
65
68
47
76
73
43
60
50
31
161
166
133
101
104
79
69
54
33
101
70
45
102
65
35
103
68
39
95
65
40
70
48
28
59
49
31
70
59
39
80
67
47
88
77
58
89
82
64
64
59
41
28
28
17
18
26
28
19
24
28
21
23
19
18
22
19
20
22
20
46
49
36
122
129
98
127
135
96
88
90
60
142
147
119
47
51
33
100
77
58
154
108
82
152
106
73
129
91
58
102
68
41
84
56
38
61
46
31
76
56
39
73
51
35
64
45
33
58
42
30
57
42
28
38
31
19
16
22
18
17
21
24
17
20
16
14
19
18
20
22
21
87
90
69
148
156
118
141
149
106
129
138
97
115
120
93
60
60
41
145
118
95
185
137
108
171
123
92
125
82
52
101
63
39
91
60
44
68
46
32
100
73
54
100
72
50
93
68
47
82
61
42
78
59
41
59
46
31
26
22
12
19
19
17
17
20
14
12
18
13
43
45
36
133
137
109
150
158
120
133
142
100
129
138
97
113
116
91
85
82
63
135
107
81
158
112
81
168
119
90
125
78
51
102
62
40
86
55
40
84
56
41
135
103
79
123
90
61
99
70
41
90
64
40
86
63
42
79
60
42
58
43
29
42
32
24
27
25
14
22
25
16
85
87
70
155
160
125
144
152
113
131
139
100
127
135
96
109
112
88
62
59
42
92
69
46
110
72
41
155
111
82
142
95
69
94
56
36
79
51
35
93
63
44
131
96
69
134
99
67
105
71
41
93
65
39
84
60
39
84
61
43
105
80
63
125
101
85
87
73
56
46
42
30
110
112
90
153
160
118
133
141
101
127
135
99
129
137
100
95
98
75
37
35
23
69
55
36
90
62
35
138
98
70
137
93
68
89
55
34
79
57
38
115
87
62
113
78
49
138
101
73
107
73
47
92
65
40
83
60
39
81
58
41
111
82
64
142
105
82
132
102
78
71
58
46
100
102
80
140
148
105
130
138
98
122
130
95
125
133
96
71
74
52
35
35
25
65
55
38
79
59
34
131
94
68
134
88
63
83
55
33
102
80
59
142
112
85
109
75
47
135
102
76
106
75
53
90
66
43
73
54
36
69
48
36
97
68
51
110
70
46
110
77
54
67
53
39
102
102
79
139
146
105
125
133
93
102
107
74
109
113
81
62
63
43
32
33
23
65
54
37
68
51
26
119
81
60
126
80
59
70
52
31
126
98
75
141
101
75
113
77
51
124
93
67
96
68
43
81
61
38
57
43
28
55
40
29
92
66
48
99
67
42
84
61
41
57
47
31
101
101
76
122
127
89
121
125
87
104
101
70
95
92
64
74
75
56
34
33
24
77
65
50
72
50
27
103
65
45
92
61
47
72
66
52
152
127
104
151
110
83
126
88
62
105
71
46
83
53
29
68
52
29
42
35
18
58
50
34
90
71
48
84
56
30
66
45
26
58
52
37
111
114
93
108
112
83
119
117
85
112
105
74
114
106
74
88
88
66
41
39
28
88
74
61
90
62
43
106
73
53
75
64
51
73
77
67
123
105
84
149
120
98
122
96
76
80
56
37
62
41
24
47
37
23
32
31
20
55
53
40
80
67
49
82
57
36
81
61
43
82
76
61
94
96
78
82
86
65
79
78
57
95
89
65
116
110
81
97
96
69
62
59
42
86
71
56
92
63
47
99
75
53
90
89
67
90
95
78
94
86
60
98
88
67
83
73
56
59
51
35
49
41
27
45
40
31
42
44
36
54
55
46
57
46
38
90
68
54
92
74
57
94
86
69
89
85
66
77
75
58
61
60
45
88
81
63
103
97
72
112
110
76
90
87
61
81
65
45
74
47
34
102
87
63
130
130
91
129
128
96
108
107
73
87
87
57
78
78
50
80
79
53
86
84
60
82
81
59
74
79
57
75
79
60
58
48
37
62
42
31
77
60
45
94
83
62
101
87
64
97
83
60
91
78
56
117
98
75
131
111
84
131
130
93
102
101
70
75
60
37
67
45
32
119
111
84
141
140
89
136
130
85
114
113
73
114
113
71
115
113
73
114
110
74
117
114
77
117
116
76
112
117
75
114
116
82
77
68
48
54
38
26
90
73
57
135
119
92
140
118
90
138
114
84
150
123
89
162
129
95
159
127
92
143
147
109
101
103
73
59
48
27
75
61
43
129
126
92
139
136
86
133
127
77
119
113
70
118
113
70
120
115
76
117
111
76
115
109
71
119
113
68
126
118
70
138
129
88
85
74
52
51
38
28
93
77
57
146
125
93
144
121
89
139
117
86
151
126
89
164
133
93
164
134
97
137
144
105
103
105
75
50
40
22
96
83
63
149
144
106
143
138
88
134
127
75
124
114
69
121
111
67
114
104
66
111
101
65
124
113
75
135
118
79
146
124
84
155
133
98
84
66
47
52
39
27
87
70
49
139
116
83
136
112
79
136
113
82
153
128
93
165
135
97
169
138
102
125
132
93
98
97
68
107
97
79
153
141
118
160
152
112
146
138
89
142
134
84
134
125
79
125
113
70
114
101
65
112
99
65
125
112
75
133
114
81
146
123
91
154
132
103
118
103
83
99
89
73
98
82
59
140
118
86
142
119
86
141
119
88
141
119
87
140
114
81
147
117
85
107
112
77
122
118
90
183
174
151
171
161
135
153
144
108
147
140
99
141
135
94
131
125
86
125
117
81
110
101
72
99
90
63
94
86
56
91
84
54
95
85
56
125
115
88
146
143
119
162
156
133
137
123
97
106
88
60
107
90
64
107
94
68
107
95
69
109
94
68
128
107
80
