P3 24 24 255
174
198
224
174
198
224
174
198
224
174
199
225
175
199
224
177
200
224
178
200
224
178
201
224
176
199
225
175
199
225
176
200
225
175
200
225
174
200
225
175
200
225
176
200
226
176
200
226
175
200
225
174
200
224
175
201
227
144
162
179
171
190
205
187
203
221
183
202
225
178
199
221
176
199
223
176
199
223
176
199
223
175
199
224
175
199
225
175
200
226
175
200
226
175
200
226
176
200
226
176
200
226
176
200
226
176
200
225
176
200
224
176
200
224
175
199
225
175
199
225
175
199
225
175
199
224
177
202
228
126
149
171
142
167
190
177
200
228
175
198
224
173
198
223
178
199
223
178
200
224
178
200
224
177
200
223
178
200
224
178
200
225
178
200
224
178
200
224
178
200
224
178
200
224
178
200
224
177
200
224
176
200
224
176
200
224
175
199
225
175
199
225
175
199
224
175
199
224
178
201
227
124
147
167
128
149
171
178
203
227
175
199
223
174
199
224
178
200
223
178
200
224
178
200
223
178
200
223
178
200
224
178
200
224
178
200
224
178
199
223
178
199
224
178
200
224
179
201
225
177
200
224
177
200
224
177
199
224
178
200
225
179
200
226
179
200
224
179
200
225
182
202
227
124
144
164
107
126
150
182
203
229
180
201
225
179
199
224
178
200
223
179
200
224
177
199
222
178
199
224
178
199
224
179
200
225
179
200
225
178
200
224
178
200
224
179
200
223
179
200
224
180
200
224
185
203
223
190
206
223
185
203
222
181
201
224
180
201
223
181
202
223
183
204
227
127
147
167
87
107
127
183
203
226
179
199
223
179
199
223
180
201
223
180
200
224
180
199
224
179
199
224
180
200
224
177
198
221
177
198
219
180
200
225
179
199
223
180
200
224
180
200
224
181
200
222
188
205
223
194
208
224
188
205
223
180
200
222
178
200
222
179
201
222
181
203
226
133
153
174
73
91
109
182
201
223
180
200
224
180
200
224
181
202
224
181
201
226
181
201
228
181
201
226
181
201
225
175
196
217
139
161
174
181
201
224
181
202
224
179
202
224
180
202
225
179
202
225
178
201
226
178
200
226
179
201
226
179
202
229
179
202
228
180
202
229
183
205
231
148
168
190
59
76
95
177
196
218
180
200
223
180
201
223
173
194
210
157
181
197
133
157
172
161
180
194
185
203
224
183
202
221
127
148
159
141
162
174
183
203
222
185
199
219
184
196
211
184
197
207
188
197
201
188
193
194
185
191
189
185
189
186
184
188
185
183
187
187
169
182
190
157
183
194
125
137
143
185
203
216
184
203
226
180
203
224
98
118
124
77
106
110
79
104
107
139
156
167
188
204
221
188
205
221
150
167
177
106
128
130
155
178
180
183
184
172
194
183
164
194
186
169
192
183
163
182
175
157
167
160
138
159
150
127
155
144
120
144
132
107
92
98
86
100
122
116
171
177
160
175
189
167
165
183
180
178
198
217
72
97
102
76
105
109
82
107
111
108
129
132
137
157
162
125
147
150
120
146
144
124
154
154
127
162
168
128
162
169
157
167
165
156
153
143
141
137
126
112
113
103
89
91
88
94
95
93
96
97
96
81
87
87
48
58
60
23
41
45
24
34
32
49
64
59
62
79
68
168
183
198
123
141
138
116
141
139
116
140
136
106
134
129
92
122
119
88
118
119
89
119
122
83
113
119
95
129
139
81
116
130
66
96
110
68
81
87
59
68
70
48
55
63
63
71
72
51
57
59
38
42
47
31
33
33
34
34
30
30
36
30
42
47
34
54
60
42
128
141
139
202
213
225
96
115
109
73
102
102
64
93
94
60
86
89
64
89
94
71
94
102
71
96
107
65
88
100
45
68
78
32
57
62
30
53
60
25
49
62
33
50
58
43
53
60
29
39
42
35
37
45
43
43
43
35
40
33
36
39
34
35
40
30
51
56
44
119
132
134
195
209
226
191
204
219
43
63
72
46
68
77
47
69
78
44
69
76
46
69
78
47
68
78
41
65
75
35
58
70
30
53
63
30
53
61
29
51
60
29
47
57
30
47
55
30
46
48
39
43
43
40
42
42
47
42
39
76
64
55
60
44
42
89
95
92
100
110
117
125
136
148
184
206
222
184
203
219
39
60
71
38
58
70
41
61
71
37
59
68
36
59
69
36
58
69
31
55
64
23
46
53
20
40
46
25
45
52
37
55
62
38
59
64
25
45
54
23
37
44
26
35
39
26
29
30
41
42
44
119
91
76
94
69
59
103
115
126
116
128
133
113
122
128
197
209
227
188
202
220
36
54
62
35
54
62
40
58
66
37
55
63
32
52
60
21
42
51
30
50
55
69
89
90
109
131
132
125
156
159
127
156
158
117
141
134
88
116
106
26
47
54
23
35
44
66
48
57
37
41
52
59
93
114
103
109
118
108
107
114
86
95
95
98
107
107
165
192
216
191
202
219
38
52
54
35
53
54
29
47
54
21
42
50
51
72
78
112
132
137
159
180
187
158
184
193
129
156
164
99
121
124
70
86
85
65
68
60
64
69
62
25
37
43
29
38
49
101
40
50
82
87
129
81
111
175
61
68
100
82
40
33
62
45
41
87
105
112
80
93
109
183
199
218
29
43
41
27
47
53
72
92
95
139
154
155
167
180
179
132
146
144
80
95
92
52
61
52
38
44
27
31
36
17
35
43
26
43
54
36
62
70
46
42
51
45
32
44
44
87
29
39
92
91
139
50
64
125
59
63
100
101
55
33
128
102
86
34
56
76
55
55
50
174
186
189
67
84
92
169
185
185
196
199
198
106
109
98
43
47
33
25
29
16
24
28
14
33
40
25
36
44
28
39
46
29
52
60
41
28
35
28
28
36
31
55
70
55
36
45
46
78
32
34
56
64
93
26
54
95
40
39
43
62
33
21
66
66
72
35
65
83
94
100
93
124
132
106
210
209
196
180
181
173
64
69
54
28
32
15
30
35
20
28
33
22
23
28
23
25
32
23
30
39
27
29
39
29
28
39
30
38
49
41
56
68
47
64
78
55
46
53
46
52
21
24
62
88
136
51
92
160
23
31
37
46
28
24
26
34
41
20
47
60
47
57
47
70
78
51
78
82
68
45
49
33
34
35
19
36
39
24
31
36
24
29
34
23
24
28
22
26
31
27
48
56
41
57
69
49
36
51
39
34
51
41
47
57
51
64
73
53
49
53
47
37
17
21
24
44
77
12
48
98
30
33
46
58
44
36
46
53
53
32
49
60
25
36
46
44
53
44
82
85
53
77
78
51
37
43
29
32
38
28
28
35
25
23
32
23
19
28
20
61
64
47
101
101
70
107
106
72
105
103
73
51
60
44
42
55
51
83
90
63
72
71
50
40
21
23
26
39
69
7
32
66
20
35
54
32
38
43
68
74
77
36
50
46
32
41
41
39
51
45
115
118
75
114
115
77
76
78
57
50
54
38
53
57
39
55
59
41
81
85
57
109
111
71
111
115
75
103
106
69
113
116
72
51
60
46
38
54
51
80
87
67
96
95
62
49
35
28
27
52
79
10
35
71
37
49
59
31
45
53
51
60
61
24
43
48
43
47
52
68
74
54
138
145
93
140
144
92
141
145
95
140
145
95
142
147
95
146
149
97
148
149
100
141
145
94
137
144
92
138
141
92
108
109
77
30
38
38
37
52
50
53
65
59
114
116
79
75
69
47
62
80
103
44
63
93
64
75
71
36
48
52
23
34
35
13
34
47
35
41
63
87
90
78
115
124
71
116
123
73
120
130
75
117
128
75
111
120
72
116
124
75
121
129
76
119
127
74
123
132
76
130
140
86
81
92
59
30
43
42
36
51
48
40
54
54
79
86
57
76
76
50
64
78
104
56
72
76
47
59
64
41
48
59
23
32
35
18
40
52
43
50
73
94
79
61
