P3 24 24 255
255
255
255
254
254
254
254
254
254
223
221
221
158
150
149
105
93
93
43
32
32
31
22
22
29
19
20
26
14
17
25
13
15
25
14
16
26
14
16
24
13
14
24
15
15
24
17
17
23
18
18
24
20
21
26
20
20
23
9
9
105
86
88
232
228
228
255
255
255
254
254
254
251
252
252
254
254
255
229
228
230
155
153
156
139
138
140
93
88
90
34
24
25
36
25
24
37
24
26
30
18
20
25
14
13
24
12
10
23
11
9
21
10
8
21
11
8
20
13
9
19
10
9
23
9
14
20
11
14
41
35
36
173
167
168
224
222
222
245
246
246
253
255
254
251
252
252
236
236
236
164
163
166
150
148
154
189
187
193
86
83
88
25
20
23
31
24
26
30
25
26
30
26
26
28
24
22
27
22
19
28
22
20
28
21
20
28
19
19
30
19
20
27
15
17
34
23
24
59
51
52
127
123
122
214
213
211
225
221
223
227
225
228
252
252
253
250
249
250
179
178
181
145
146
150
210
211
217
205
203
209
67
62
68
22
18
24
30
28
34
32
30
31
31
27
26
28
25
23
26
25
22
26
25
24
34
31
33
31
25
28
32
24
27
31
23
25
41
34
34
85
82
81
146
146
144
204
204
202
233
231
233
223
222
224
240
240
242
227
225
228
151
150
155
193
194
199
236
239
244
175
175
179
47
41
43
23
17
21
34
33
40
40
45
46
53
56
57
47
51
52
32
42
40
25
31
31
68
68
71
36
35
38
22
22
24
27
25
26
31
27
25
66
64
61
117
117
113
172
173
169
217
221
219
228
232
231
221
224
223
192
191
195
179
178
183
228
228
234
233
231
238
155
144
148
55
34
33
45
20
20
38
20
23
29
25
21
51
46
43
48
44
43
23
29
26
26
22
23
59
47
50
33
25
27
22
18
19
27
25
24
33
30
26
53
50
46
101
98
94
145
143
139
192
194
189
228
228
223
225
223
219
177
178
182
209
209
214
231
229
237
222
212
220
163
135
139
109
67
64
112
66
64
115
71
73
102
55
54
96
37
38
85
21
24
67
14
13
56
10
14
53
13
19
41
10
13
35
11
11
39
22
20
48
34
31
58
44
40
87
72
69
117
101
98
165
147
143
210
190
187
213
197
194
180
176
178
216
219
221
232
226
234
220
195
200
176
135
129
169
116
104
167
129
118
196
158
154
191
143
144
192
102
105
184
42
43
183
30
21
167
28
24
143
29
26
127
27
19
124
26
18
120
33
24
125
40
35
134
44
41
139
52
48
151
61
57
172
78
77
180
102
102
168
136
130
159
134
141
228
220
225
234
220
229
212
165
167
190
113
98
203
112
91
189
99
88
211
123
115
209
126
114
215
105
92
208
44
35
215
24
16
215
33
26
204
48
36
204
55
41
209
57
45
205
62
49
206
62
53
206
61
54
202
61
55
201
60
54
201
56
52
199
69
66
198
123
110
186
150
161
236
218
227
228
203
215
207
139
141
223
124
103
234
123
92
201
55
40
231
99
80
243
125
95
232
87
62
213
35
23
207
26
23
206
43
35
207
56
44
211
59
51
211
58
52
207
59
49
207
58
47
205
59
49
204
57
50
202
56
49
205
55
44
215
63
53
220
97
79
225
203
209
227
212
220
226
190
204
207
118
124
215
99
80
223
103
70
199
48
28
218
87
60
224
102
71
220
67
46
211
30
21
192
27
20
174
39
26
169
43
34
162
44
42
154
45
43
154
43
39
158
46
37
162
50
39
175
42
37
171
33
26
185
42
31
206
57
44
221
80
62
226
217
219
222
213
220
216
178
190
205
105
112
196
46
41
199
44
25
197
34
23
191
39
25
185
42
28
182
38
22
189
28
16
190
25
18
187
49
39
168
60
54
111
44
41
88
45
44
94
44
45
94
47
42
112
50
40
169
50
46
175
35
29
182
36
29
189
51
39
188
55
41
219
202
206
213
203
211
210
173
183
197
100
103
198
39
36
209
31
21
199
25
21
202
25
22
198
31
22
195
32
20
198
25
17
195
30
24
205
58
48
180
70
64
91
55
48
62
65
58
60
55
55
56
54
50
86
52
41
180
60
54
202
43
37
200
37
31
194
54
43
188
58
46
172
133
142
184
160
170
207
168
174
193
95
98
193
36
31
204
29
20
196
23
19
202
20
18
202
21
13
203
20
12
204
20
14
196
28
19
213
51
44
186
68
65
103
68
63
80
85
81
73
77
77
65
78
73
89
63
51
185
60
55
209
43
35
202
37
30
197
46
38
189
45
37
131
84
92
164
132
142
207
163
169
199
96
102
193
33
31
200
28
20
194
23
20
197
21
17
200
22
16
200
22
17
200
25
19
194
27
18
211
48
40
193
66
60
118
46
41
91
43
39
93
44
45
89
46
47
108
45
37
189
57
53
205
48
39
197
41
33
198
43
37
196
43
38
133
88
91
170
138
144
215
166
172
200
96
103
198
36
35
203
29
21
196
27
23
199
29
23
202
36
29
204
37
32
204
37
32
202
39
32
205
48
39
197
54
46
170
46
42
160
45
40
162
44
42
161
45
46
163
48
41
194
49
44
198
47
39
193
43
33
193
41
33
192
39
34
131
88
89
138
106
107
199
142
148
200
94
102
197
36
34
204
29
22
198
29
25
195
30
23
192
36
27
194
36
30
195
33
28
195
35
29
193
36
30
193
34
32
193
35
35
188
38
33
187
38
30
187
36
29
182
36
27
185
32
26
183
32
25
181
32
23
182
32
23
179
27
21
132
95
95
126
93
91
177
110
114
200
91
97
193
36
33
200
26
18
197
27
24
189
25
17
181
23
14
182
23
17
186
23
18
187
27
20
188
30
25
192
31
29
192
31
29
187
34
29
184
36
27
187
37
24
188
37
26
190
37
30
191
37
31
190
38
30
189
39
31
189
40
33
131
101
101
127
95
91
177
102
104
192
80
82
189
38
33
199
26
19
198
27
24
196
28
22
196
33
24
199
35
27
202
36
30
204
42
34
203
48
36
204
50
37
203
49
40
203
49
43
202
50
42
201
51
39
203
49
41
201
49
42
202
48
42
200
47
40
198
47
40
195
47
40
115
97
95
117
92
89
177
111
110
186
78
76
184
41
34
199
37
31
205
39
37
203
40
39
204
41
35
206
46
36
208
48
40
201
47
44
194
50
42
191
51
38
183
50
43
184
51
46
195
50
39
189
53
39
176
50
44
181
46
42
172
51
44
172
48
46
173
48
44
184
49
46
102
93
91
108
89
88
171
117
114
188
88
83
183
46
40
194
47
39
198
49
42
194
50
45
195
49
49
173
45
44
131
41
34
115
42
36
110
38
37
105
37
35
99
36
41
107
30
38
145
35
36
132
42
39
82
42
39
92
41
40
84
44
41
82
43
38
90
38
28
132
40
31
143
138
138
91
77
75
147
104
99
190
100
96
188
49
49
193
47
42
194
47
40
191
49
43
156
41
40
97
34
34
63
39
38
58
39
35
49
39
31
46
44
32
49
43
36
67
28
29
113
26
28
95
28
29
48
42
37
67
46
42
78
42
47
74
42
47
74
35
32
110
35
30
176
175
177
70
62
60
88
60
53
158
94
89
175
66
68
176
54
52
184
50
48
184
50
48
129
40
31
79
38
33
62
47
48
80
47
49
87
41
38
87
47
35
85
47
36
105
38
34
141
42
36
114
38
31
89
43
36
108
45
40
119
43
49
113
40
54
126
63
73
178
116
124
195
195
195
69
67
64
43
32
26
65
40
35
85
47
42
96
46
38
111
44
40
118
41
41
111
41
34
91
43
38
80
49
48
84
46
45
91
37
44
94
37
42
89
39
42
94
36
42
101
32
32
85
32
31
71
28
31
65
26
23
53
25
25
56
29
28
164
146
143
252
242
244
