P3 24 24 255
149
147
150
131
130
133
135
133
136
132
130
133
132
129
134
130
128
134
130
127
134
131
128
136
133
130
137
135
133
141
133
132
140
132
131
140
135
133
146
134
132
141
135
133
139
135
132
139
136
133
140
140
137
144
143
139
145
135
127
132
127
118
124
135
126
135
134
124
136
124
114
125
161
159
163
172
170
173
186
184
187
186
184
187
183
181
185
179
176
183
181
178
186
183
180
187
185
182
190
186
186
186
187
187
195
190
189
204
190
191
196
190
190
198
188
186
195
188
184
191
186
183
190
185
182
189
188
184
191
178
169
178
163
152
163
166
155
168
169
158
174
137
127
141
180
177
181
204
202
205
215
213
216
214
212
215
213
211
215
210
207
214
212
209
216
214
211
218
211
208
215
216
212
217
217
211
222
178
176
167
164
166
130
184
180
177
221
216
229
217
214
221
213
210
217
210
206
214
214
211
218
216
214
217
217
214
218
216
212
219
216
212
222
171
167
177
177
175
178
198
196
199
208
207
210
207
206
208
208
207
211
206
204
211
207
205
212
209
206
213
205
203
210
211
207
214
209
201
211
131
124
99
107
105
42
153
145
129
217
211
223
210
208
214
207
205
212
208
206
212
209
208
213
208
209
211
208
209
211
209
210
213
212
213
217
168
168
174
173
173
175
198
198
200
207
207
209
202
202
204
207
206
210
209
208
214
210
209
215
210
209
215
209
208
214
211
213
215
206
205
210
126
119
100
111
105
52
163
154
135
217
212
220
210
210
215
209
208
214
212
211
217
214
213
219
213
212
218
211
210
216
211
210
216
212
212
218
168
166
172
171
171
173
199
199
201
208
208
210
203
203
205
194
194
197
174
173
179
174
173
179
181
180
186
168
167
173
173
172
176
182
180
184
169
166
156
162
158
129
164
156
146
186
182
189
189
188
194
172
171
177
178
177
183
181
180
186
186
185
191
209
208
214
210
209
215
210
209
215
168
167
172
172
172
174
200
200
202
208
207
209
211
211
213
177
176
179
106
105
111
126
124
131
139
138
144
118
117
123
124
119
126
117
114
117
190
191
190
185
184
184
145
139
142
138
135
141
157
156
162
121
120
126
132
131
137
128
127
133
139
138
144
204
203
209
210
209
215
213
212
218
171
171
175
166
168
168
200
202
202
209
210
212
209
209
212
203
203
206
187
188
192
181
181
186
174
173
178
171
170
175
186
179
186
160
155
157
180
182
185
190
190
203
166
162
170
177
175
180
177
176
182
172
171
177
170
169
175
184
183
189
195
194
200
209
208
214
214
213
219
217
216
222
174
174
179
167
169
168
199
199
200
210
208
213
209
206
214
210
210
216
211
215
216
183
184
186
167
165
168
170
166
170
175
170
173
167
163
164
186
182
184
198
195
197
175
172
174
187
185
190
171
170
176
175
174
180
185
184
190
204
203
209
215
214
220
214
213
219
216
215
221
216
215
221
173
172
177
170
163
170
203
194
203
212
206
215
208
204
214
209
208
216
210
212
213
199
200
202
193
193
195
198
195
198
195
192
197
195
193
199
200
198
204
206
204
210
200
198
204
202
201
207
202
201
207
201
200
206
206
205
211
209
208
214
214
213
219
214
213
219
216
215
221
215
214
220
167
166
172
163
163
169
199
199
204
211
211
215
212
211
214
215
213
216
215
213
216
199
198
201
158
158
160
154
155
157
168
169
173
172
172
178
149
150
155
148
148
154
170
170
176
168
167
173
164
162
169
168
167
173
196
195
201
215
214
220
214
213
219
214
213
219
213
212
218
213
212
218
161
160
166
176
172
175
202
190
193
187
167
169
170
142
143
184
162
163
195
189
193
209
206
209
200
201
203
156
161
162
112
116
116
118
121
120
130
134
133
125
129
128
120
124
122
117
118
121
117
116
122
165
164
170
212
211
217
214
213
219
214
213
219
214
213
219
212
211
217
211
210
216
161
160
166
172
160
162
158
116
125
159
103
110
133
76
77
141
99
101
187
175
181
218
212
216
217
216
219
147
152
153
104
106
104
127
126
124
111
111
113
115
117
117
88
93
88
80
85
80
79
84
81
150
152
153
221
221
224
216
215
220
216
215
221
215
214
220
214
213
219
213
212
218
168
166
172
156
140
137
136
93
98
155
111
116
168
135
136
196
172
174
212
203
208
216
211
215
214
213
216
142
145
146
126
126
127
144
140
144
69
67
75
75
75
82
84
88
88
88
95
89
88
94
88
149
153
151
220
220
222
217
215
220
217
215
221
216
215
221
214
213
219
213
212
218
166
164
171
178
165
160
189
163
164
189
174
176
201
201
202
214
213
216
213
211
214
212
211
214
213
214
216
137
139
141
87
86
89
120
116
123
106
104
114
98
98
107
101
104
107
102
108
104
90
96
91
150
153
152
221
222
224
216
215
220
216
215
221
215
214
220
211
210
216
211
210
216
163
162
168
169
170
168
208
199
201
212
212
213
205
211
213
210
211
214
209
212
214
210
214
215
214
215
217
140
141
143
65
64
64
68
65
66
77
76
81
85
86
89
56
60
58
69
76
69
79
85
80
148
151
150
224
224
226
218
216
221
217
215
221
213
212
218
211
210
216
213
212
218
166
165
171
166
172
173
198
197
201
211
210
213
207
209
210
208
208
211
205
207
209
206
208
210
210
211
213
153
153
155
93
94
93
90
91
90
85
87
87
98
101
100
90
94
91
87
91
88
96
98
98
162
163
164
219
219
221
212
212
215
212
210
214
211
210
214
212
211
215
214
212
217
166
164
170
167
167
169
192
187
191
179
171
176
201
198
201
209
209
211
206
206
208
206
206
208
206
206
208
198
198
200
190
191
192
183
186
185
159
162
161
172
175
174
166
168
168
167
167
168
198
198
200
201
201
203
206
206
208
206
206
208
209
208
210
211
208
211
198
196
199
188
186
189
158
157
163
126
122
125
180
171
176
128
116
122
168
161
165
207
205
208
211
211
213
210
210
213
208
208
210
207
207
209
211
211
212
211
211
211
164
164
164
148
148
148
159
159
159
157
157
158
204
204
206
180
180
182
191
191
193
211
211
213
213
211
214
208
206
209
198
196
199
188
186
189
157
155
160
52
52
54
89
84
88
83
76
80
84
82
85
96
97
98
101
101
102
107
107
109
110
109
111
112
112
114
119
118
119
113
110
111
91
89
89
73
71
72
87
85
85
97
97
98
107
107
109
99
99
101
118
118
120
125
125
127
125
123
126
119
117
120
125
123
126
124
122
125
98
96
101
19
14
18
20
14
18
25
20
24
20
20
22
23
26
30
39
42
50
44
46
52
38
39
43
36
37
39
38
37
38
26
23
25
28
25
27
34
31
33
27
24
26
28
26
29
37
35
39
27
27
30
28
29
31
33
34
36
38
36
39
42
40
43
47
43
47
46
42
45
47
42
47
36
22
29
37
24
31
70
62
67
52
50
52
72
73
79
149
152
164
146
147
157
130
130
134
66
64
64
69
66
66
71
67
67
68
64
64
70
67
67
68
63
64
62
56
58
53
46
50
34
29
32
30
28
30
37
36
38
41
40
42
46
43
46
80
74
78
68
59
64
51
44
49
42
32
38
42
34
39
58
52
56
48
46
49
61
60
63
99
96
101
97
92
95
92
85
86
66
58
56
63
55
51
64
56
52
61
53
49
62
54
50
61
52
49
62
50
50
53
42
42
46
37
36
46
39
37
50
45
43
51
48
50
52
50
53
74
68
72
67
58
63
56
49
53
45
42
45
44
41
44
42
39
42
37
35
38
35
32
34
35
33
32
38
33
33
43
35
36
54
44
45
54
46
45
47
41
38
47
40
38
49
42
40
47
40
38
48
39
39
52
42
43
50
42
43
49
45
44
52
48
48
50
48
50
53
50
54
58
52
56
61
52
57
62
54
59
