P3 24 24 255
232
216
208
238
222
214
242
226
217
246
229
221
250
233
225
248
234
225
246
236
226
246
239
229
245
241
237
248
244
240
248
244
240
247
244
240
247
247
243
249
250
245
250
251
246
248
249
244
246
247
248
246
249
252
244
251
253
242
253
254
242
254
253
244
253
250
248
250
247
251
247
242
232
216
205
237
220
210
240
223
214
246
228
219
249
233
223
249
235
225
248
237
225
245
237
227
245
241
239
248
244
243
248
244
243
248
244
243
248
247
243
250
249
244
250
251
246
247
248
243
247
247
248
246
249
252
245
251
252
244
253
253
244
253
251
246
252
248
249
250
245
251
247
241
229
216
199
235
218
207
240
220
214
245
227
220
246
232
221
247
235
223
248
236
224
247
236
225
247
240
235
249
242
238
249
242
239
250
244
240
252
245
239
252
247
240
249
248
242
245
246
241
246
248
246
248
249
249
249
251
251
248
252
251
249
251
247
250
249
241
250
247
239
250
246
237
225
213
195
232
216
205
239
220
213
243
225
218
242
230
217
244
232
219
246
233
221
246
234
221
250
240
224
250
240
224
250
242
226
253
245
229
249
240
228
248
240
231
251
247
239
247
246
240
247
248
243
248
249
245
250
251
247
250
251
247
251
249
243
251
246
236
249
244
235
247
242
233
221
212
196
229
214
202
235
217
209
240
223
213
240
227
213
241
229
214
244
231
216
236
230
218
206
222
218
198
217
216
200
219
219
218
234
231
226
221
210
231
221
209
251
243
233
248
242
234
248
244
237
249
247
239
248
246
238
248
246
238
249
244
235
248
241
231
246
239
229
243
236
226
217
209
195
223
212
198
231
215
203
235
221
206
237
225
208
239
228
211
247
234
216
203
201
192
70
105
128
55
94
121
58
99
126
83
119
141
175
176
168
242
230
213
250
238
226
252
239
230
251
243
232
254
249
236
251
246
233
250
245
232
251
244
232
249
239
229
247
237
227
242
233
223
170
164
151
181
172
158
191
178
163
195
183
165
199
188
169
202
191
172
212
201
180
173
167
153
84
93
102
79
90
101
79
90
102
70
80
89
163
159
145
229
218
197
230
215
199
237
217
206
236
223
208
235
227
209
237
228
211
237
228
211
237
227
212
236
225
213
234
223
211
230
218
207
137
132
121
147
140
125
151
142
123
152
141
121
157
146
124
163
152
130
169
158
136
146
136
115
127
120
103
118
111
96
136
129
114
153
146
130
154
144
120
172
157
134
180
160
143
184
159
147
180
162
145
176
165
144
174
163
141
172
161
139
171
159
141
169
156
143
167
155
141
164
152
138
142
138
124
146
139
123
151
142
121
150
138
118
158
145
128
160
148
128
167
158
132
147
141
114
113
112
93
76
77
58
113
116
97
147
150
129
144
135
108
168
152
125
172
151
129
177
153
135
169
151
131
163
151
127
160
147
124
156
143
120
153
140
119
154
141
124
151
138
122
149
135
120
148
143
127
150
142
124
155
145
124
158
147
130
162
151
138
158
149
127
169
162
129
196
191
156
171
166
148
118
117
100
117
120
103
119
125
105
143
133
103
172
155
123
172
154
127
176
158
133
171
155
131
163
148
125
159
145
122
158
143
120
161
148
124
157
145
122
150
137
116
154
137
121
145
139
126
149
141
126
157
146
129
161
155
134
151
152
126
157
153
124
178
166
135
221
207
177
229
220
196
210
204
183
174
172
154
124
124
107
161
149
120
173
156
123
174
157
129
173
155
130
164
148
124
162
148
125
155
140
117
158
143
120
162
147
124
155
141
117
153
138
118
153
137
121
136
130
122
149
139
130
159
147
135
151
137
115
151
136
102
167
151
120
182
165
140
203
188
164
230
220
191
236
227
203
236
229
211
206
199
184
198
183
156
191
174
143
185
168
142
173
155
132
160
144
121
155
140
117
154
139
116
160
145
122
158
142
120
157
141
121
159
143
126
153
139
123
113
107
100
125
115
107
138
127
117
161
126
109
186
128
103
176
137
114
208
192
173
207
203
184
231
224
198
237
229
206
229
220
204
238
227
213
213
198
173
181
163
135
190
172
148
178
160
140
165
149
127
158
143
120
153
138
115
153
138
115
158
142
120
158
138
121
151
135
119
146
134
119
135
130
119
153
144
132
170
160
146
173
133
117
167
98
81
171
129
114
110
100
88
60
65
53
125
124
110
183
178
163
126
119
106
173
162
147
165
150
125
167
149
124
166
149
127
160
142
123
148
131
111
143
128
105
141
126
103
127
113
90
137
119
99
140
118
104
137
120
106
141
130
118
206
202
185
208
200
183
217
208
188
200
177
156
179
145
125
199
179
163
100
96
86
60
64
58
69
71
70
136
135
129
75
70
60
125
117
100
128
113
88
147
129
105
123
104
85
167
149
132
157
140
120
133
118
95
131
116
93
114
100
76
132
112
94
164
140
128
154
137
125
161
152
140
193
191
175
213
208
188
223
216
191
232
222
196
225
215
191
213
205
183
209
203
184
202
197
183
190
188
182
206
203
194
182
177
163
169
161
142
130
114
91
112
93
72
94
76
59
163
146
131
179
164
144
158
145
118
159
146
117
148
134
107
124
107
89
177
159
149
210
197
187
211
202
192
138
137
124
164
161
141
188
183
156
205
196
169
219
206
182
221
208
182
236
223
194
244
233
205
245
235
215
244
233
215
239
229
210
208
197
177
190
176
157
163
150
132
130
119
105
160
152
139
199
187
172
162
147
124
174
160
133
144
129
106
120
107
93
160
151
141
193
184
174
177
169
158
149
147
133
157
153
134
166
160
134
174
164
137
187
173
146
195
181
151
200
187
153
208
196
161
215
201
172
223
209
181
221
207
179
221
207
180
229
221
199
235
231
212
227
225
209
223
224
210
236
229
220
218
205
194
204
190
173
163
149
138
181
169
161
174
166
155
200
192
181
175
168
157
159
156
140
166
161
141
160
151
129
177
165
139
186
172
143
189
176
144
195
182
147
198
185
148
202
187
152
206
190
156
207
191
157
203
188
154
200
189
158
203
195
167
206
201
175
207
205
181
212
204
190
223
212
198
221
211
190
223
212
198
227
217
207
215
208
196
221
213
200
222
215
202
184
178
160
173
165
146
127
116
97
148
134
113
171
157
130
185
171
141
192
179
145
195
183
148
197
184
151
199
186
153
200
187
155
200
186
153
203
185
148
201
184
146
197
184
148
197
186
154
199
189
164
199
190
162
201
193
160
202
193
165
199
190
171
195
188
172
196
189
173
199
192
176
179
172
153
197
187
169
160
146
129
143
128
110
149
134
113
158
143
120
158
144
117
154
141
113
156
147
123
162
154
130
170
162
138
177
168
143
187
173
142
190
176
143
191
181
151
194
186
159
197
190
165
200
194
163
196
191
154
191
184
153
190
183
161
189
182
164
194
187
169
194
187
169
166
157
138
199
187
170
203
187
172
191
174
161
181
165
151
170
155
137
159
144
123
140
127
106
133
128
113
111
107
92
94
90
74
93
89
73
95
93
74
100
99
81
109
112
96
117
123
109
150
148
134
177
170
150
153
147
122
158
151
131
156
148
132
144
137
119
151
144
126
180
173
154
184
172
155
203
188
173
210
194
179
213
197
183
219
203
189
218
202
187
216
200
184
207
192
176
206
196
181
168
159
143
139
131
111
128
120
97
119
114
91
101
99
77
88
90
71
89
94
76
143
140
126
173
165
149
172
165
146
190
182
166
195
187
174
180
172
161
154
145
134
151
143
132
200
184
169
205
189
174
206
190
175
209
193
178
224
208
193
236
220
205
242
227
212
242
226
210
249
233
216
202
187
166
173
159
132
165
152
122
160
148
122
146
135
113
129
122
102
136
132
114
145
140
122
148
141
122
157
150
132
146
139
120
197
189
174
236
226
218
222
211
204
220
210
203
