P3 24 24 255
124
179
220
119
173
215
125
180
221
125
181
222
123
179
217
126
174
208
143
184
212
154
193
219
150
183
213
143
189
223
133
189
226
133
189
226
133
188
225
132
187
224
132
187
227
132
187
228
132
187
228
132
187
228
130
185
226
129
184
225
129
184
225
129
184
225
128
183
224
127
182
223
127
183
223
123
180
220
124
180
220
128
186
225
127
186
223
130
182
216
138
181
212
146
181
206
134
155
181
154
193
225
138
193
228
134
191
228
132
189
227
131
189
227
132
187
228
131
186
228
132
186
228
133
186
228
130
185
226
128
184
225
127
183
224
126
182
223
126
182
223
126
181
223
104
166
202
111
171
208
113
169
205
118
173
207
116
177
211
124
180
212
130
176
209
134
175
212
141
179
213
137
183
218
126
184
220
130
187
226
129
188
225
127
187
223
128
187
225
130
188
227
131
186
226
132
185
225
130
185
226
127
184
226
126
183
225
125
182
224
125
182
224
126
183
225
55
124
171
59
128
176
64
129
175
69
132
175
61
133
175
83
148
189
115
166
203
139
174
207
153
189
218
144
181
210
138
179
213
121
170
205
112
164
197
109
160
193
112
165
199
118
171
206
117
171
205
120
175
209
113
167
202
114
167
203
116
168
204
109
162
198
106
158
194
110
163
199
45
131
184
42
131
183
42
130
179
52
130
178
47
127
173
72
138
181
114
160
196
155
184
207
180
202
219
183
205
222
163
190
211
103
157
195
67
138
184
68
141
187
68
141
183
69
142
182
76
145
187
81
147
190
75
140
182
76
141
182
77
141
182
70
135
176
65
130
171
67
132
173
42
125
178
42
126
179
42
126
177
48
127
175
55
126
170
74
136
177
90
145
187
112
158
192
123
168
197
116
166
200
100
155
195
85
145
191
57
135
183
43
133
183
45
133
185
44
131
184
48
133
186
48
133
185
50
133
184
51
132
182
50
131
182
50
130
182
48
128
180
47
127
179
40
121
171
41
123
173
42
123
174
44
124
173
61
126
167
82
138
177
70
133
177
82
140
182
84
142
184
74
136
183
82
139
184
80
140
185
68
137
180
51
130
177
48
127
184
53
127
186
52
127
183
50
130
184
48
129
182
47
130
180
46
128
180
46
127
181
45
126
180
43
125
178
42
124
174
43
125
175
43
126
175
45
126
176
58
125
169
89
140
175
70
137
184
68
135
182
79
144
185
78
142
183
89
147
188
74
138
183
79
142
183
80
143
184
48
126
178
43
126
180
48
129
181
49
130
183
49
131
182
48
130
179
47
129
179
47
127
180
46
127
180
45
126
178
42
124
174
42
124
174
42
123
173
42
124
174
50
121
167
85
128
155
69
129
170
73
136
182
102
158
191
111
161
193
142
181
213
175
203
223
186
211
225
189
209
225
128
173
201
64
136
181
46
130
182
49
130
182
50
132
183
45
127
178
44
126
178
45
127
180
45
126
179
44
125
179
41
121
172
41
122
173
41
121
172
40
123
173
47
125
167
90
128
143
121
145
162
168
196
222
190
210
226
188
209
228
194
211
231
223
232
236
225
230
233
221
226
236
193
212
224
114
164
198
43
129
182
45
128
179
46
127
177
49
128
180
48
129
182
47
130
183
47
129
181
47
126
177
40
120
171
39
119
170
40
119
171
39
121
170
50
127
175
93
141
175
122
155
177
161
185
207
172
200
218
185
210
226
157
190
214
141
171
198
130
152
172
140
176
205
142
173
206
109
154
193
55
131
180
47
129
180
46
129
181
46
129
181
46
128
177
43
127
175
43
126
174
41
122
169
37
117
168
36
116
167
37
117
168
37
118
167
51
125
175
64
131
180
53
126
175
80
136
178
95
154
191
93
151
190
77
136
181
72
108
139
76
91
107
156
182
205
135
155
180
144
169
191
111
162
193
53
131
176
56
130
176
71
136
180
84
143
180
91
149
183
92
152
186
85
146
181
36
116
167
35
115
166
36
116
166
36
116
168
52
125
172
57
129
176
34
118
173
59
129
176
93
146
180
90
142
180
89
128
160
81
107
125
76
90
105
152
165
180
111
126
141
107
125
137
164
190
209
131
171
201
153
183
206
182
202
219
191
207
218
199
214
224
203
218
228
200
216
226
34
115
166
36
115
166
35
115
166
35
115
168
58
128
174
57
129
177
38
117
171
89
143
180
135
169
196
117
152
180
102
129
150
84
105
122
59
76
93
88
102
117
132
154
174
139
161
178
181
202
219
193
213
230
214
225
235
230
235
242
232
236
240
242
244
246
244
247
248
238
241
243
31
112
163
34
114
165
35
115
166
35
114
166
60
126
171
57
124
170
88
145
186
151
182
204
149
175
200
120
156
180
99
125
144
74
92
107
71
90
108
135
153
169
187
210
234
199
220
241
193
213
235
195
214
235
214
224
236
230
236
242
238
243
247
237
239
242
209
212
214
147
160
167
37
116
167
37
116
167
36
116
166
38
115
166
63
127
170
96
147
181
187
210
229
172
199
221
155
184
205
137
163
184
93
113
129
120
136
149
175
196
215
192
214
232
201
218
239
208
219
236
216
227
243
224
233
247
230
235
243
211
216
222
168
176
183
107
119
127
48
58
68
31
62
84
41
117
167
37
117
169
42
118
170
41
114
167
86
139
176
177
201
215
215
226
235
177
196
217
178
200
218
172
191
208
157
174
186
198
213
227
212
228
245
206
222
238
213
225
236
215
224
231
198
205
211
167
173
176
113
121
126
60
71
79
24
36
45
11
24
31
8
24
34
25
79
114
63
130
177
56
130
178
52
126
174
55
121
167
114
151
178
216
226
232
207
218
229
178
193
210
189
204
221
209
224
239
211
225
235
218
231
242
215
225
236
193
202
212
155
166
176
112
123
133
63
76
86
28
42
52
15
29
38
12
25
34
10
22
31
13
21
31
19
40
57
38
100
141
152
188
216
136
176
205
121
164
194
127
160
186
140
155
169
210
218
229
200
211
225
191
206
220
201
213
231
210
222
239
222
233
243
205
216
221
140
151
160
82
93
105
41
53
70
21
34
53
15
30
46
12
28
44
12
25
37
12
25
33
13
25
35
16
31
45
24
59
87
39
106
151
188
197
213
183
192
208
174
187
199
170
176
183
163
166
171
210
220
231
200
212
224
201
212
222
206
215
230
198
202
213
198
196
199
131
141
150
39
57
75
19
35
54
17
33
54
15
33
55
13
31
49
14
27
41
13
25
35
14
30
40
20
37
50
26
43
55
30
81
114
39
110
159
158
155
165
159
160
171
153
161
170
118
122
126
154
159
164
212
220
227
184
185
189
173
168
174
149
143
152
112
108
117
83
88
98
79
98
122
57
84
108
38
60
82
35
54
78
31
56
78
24
51
72
20
41
59
29
46
60
31
45
57
23
35
46
23
51
70
35
98
136
38
107
154
87
99
112
106
111
121
121
116
117
132
129
130
163
172
179
184
195
207
147
154
170
96
106
120
59
78
94
46
70
92
46
74
99
112
137
164
153
178
198
161
180
198
169
186
205
142
164
183
114
142
163
100
130
154
62
87
110
23
36
52
21
32
43
27
76
107
33
101
143
32
97
136
69
89
99
54
75
90
80
88
102
162
168
178
205
217
226
211
226
239
203
220
236
169
194
209
161
188
205
183
206
220
199
215
224
214
224
234
221
232
242
232
240
250
237
242
252
225
235
245
207
225
239
182
209
231
120
151
174
53
85
109
27
66
90
26
79
106
23
83
117
20
84
117
66
91
106
78
93
98
108
129
150
196
215
231
218
233
244
220
235
246
225
238
247
226
239
248
232
240
248
234
239
246
235
239
245
236
239
246
233
238
245
233
237
243
231
236
241
227
236
244
217
231
244
205
224
243
175
203
226
127
163
190
51
97
123
21
71
92
18
69
97
14
74
105
