P3 24 24 255
71
84
88
53
120
150
41
154
198
39
156
201
43
154
198
42
156
202
45
156
203
46
156
203
46
156
203
46
156
203
46
156
203
46
156
203
46
157
203
45
156
203
45
156
202
44
155
201
44
159
206
43
132
166
53
69
61
108
78
62
94
66
53
43
47
42
82
74
70
74
80
80
162
153
151
87
84
87
73
109
124
61
149
187
59
161
204
58
160
202
59
159
204
60
160
205
59
159
204
59
159
204
59
159
204
59
159
204
59
161
205
58
160
204
58
160
205
57
161
201
59
160
203
58
158
203
83
106
113
104
78
62
57
53
43
36
36
35
68
53
46
71
84
82
132
130
127
96
79
70
103
77
63
75
92
96
65
139
169
74
168
211
72
162
203
73
163
204
74
164
205
74
163
205
74
163
205
74
164
205
73
165
206
71
164
205
68
164
202
72
155
188
71
163
206
70
169
211
80
144
175
78
71
64
36
35
30
37
41
36
82
66
53
101
87
73
80
64
50
112
79
60
114
86
69
79
67
53
49
67
69
74
126
149
87
166
203
86
167
208
87
167
207
86
167
207
86
167
207
86
168
207
86
168
206
85
168
205
84
166
203
78
138
170
83
163
195
88
146
169
74
112
123
63
53
56
51
42
39
38
53
44
79
72
56
113
83
66
102
76
57
114
81
61
115
83
65
82
71
61
38
49
45
42
58
55
67
108
121
95
165
196
99
174
212
98
171
207
97
170
205
97
173
209
98
173
211
98
171
206
97
154
179
88
108
116
103
109
109
104
85
75
69
61
50
61
54
51
68
53
47
52
67
64
81
78
70
108
81
63
102
94
89
109
78
58
112
82
64
88
70
60
48
57
52
42
56
48
37
50
36
64
92
99
103
165
193
107
181
216
106
180
215
107
176
206
111
163
188
107
130
135
109
103
94
108
93
80
99
71
59
90
61
48
81
76
71
118
105
101
89
78
77
92
135
155
105
151
177
97
123
131
110
145
168
108
87
71
111
81
61
107
81
65
98
78
61
95
79
63
91
77
59
88
72
53
100
98
93
116
153
169
117
161
184
122
144
155
119
126
125
94
90
81
94
88
77
88
83
78
88
67
60
79
64
53
116
108
103
134
133
135
115
148
167
115
178
212
111
177
212
109
176
207
126
179
213
113
127
135
108
81
63
111
85
62
115
86
64
108
85
66
111
85
66
118
88
64
118
84
58
104
95
87
120
125
129
126
122
119
103
101
92
75
78
74
64
66
66
64
62
55
86
65
55
89
70
54
110
107
103
131
163
179
129
184
212
126
181
213
126
180
211
122
179
212
137
185
213
135
175
200
113
106
103
110
83
63
107
83
62
70
66
52
68
65
51
109
81
63
109
88
67
105
99
89
115
114
112
93
95
90
75
78
71
56
60
55
48
48
47
62
59
48
88
68
54
102
88
77
130
156
168
139
189
214
137
185
211
137
185
212
134
184
211
132
183
212
150
184
202
151
194
218
137
154
167
105
88
77
80
71
56
41
56
47
40
56
45
73
68
52
75
72
60
108
110
104
98
101
95
56
61
55
52
53
48
59
52
45
58
53
45
73
62
51
88
69
59
134
147
156
153
194
219
149
191
218
149
189
215
147
189
213
145
188
212
143
188
213
145
171
186
161
199
220
160
191
213
134
141
147
60
65
60
47
56
46
71
69
54
86
80
64
83
80
71
74
77
71
53
56
52
29
36
31
31
35
28
47
44
38
53
53
46
71
58
50
113
110
111
167
196
217
162
197
218
161
196
218
159
195
217
158
193
216
156
192
215
155
192
216
135
159
172
176
205
222
173
199
217
140
158
167
72
77
75
77
73
64
109
97
90
118
100
91
99
82
74
54
51
43
64
63
61
49
52
49
23
30
26
34
45
40
49
56
47
89
85
75
160
179
187
176
206
222
174
201
217
172
201
218
171
200
217
170
199
216
168
198
215
165
197
216
145
160
169
179
197
207
126
133
135
91
94
91
96
92
85
108
100
93
107
91
84
87
69
60
69
54
47
50
42
37
54
54
51
52
51
45
61
58
48
58
62
51
37
48
43
59
69
65
163
181
191
189
211
223
184
207
219
184
206
219
181
204
218
180
204
218
179
203
217
178
202
217
142
151
155
128
120
118
93
80
74
112
107
102
116
112
104
85
83
79
59
56
50
52
46
39
47
45
42
40
38
34
47
46
40
62
58
49
58
49
44
40
38
30
48
45
35
43
42
34
81
90
92
183
198
207
194
211
223
192
209
220
191
209
221
190
209
222
189
207
220
189
205
219
95
75
74
98
86
80
136
130
123
119
115
110
60
61
55
44
58
57
38
48
46
34
42
37
50
51
46
80
74
65
60
59
52
32
36
32
34
39
34
78
64
51
110
81
63
101
78
60
53
60
49
102
111
111
191
200
207
202
216
224
200
213
223
200
212
223
198
211
222
197
211
221
133
72
72
121
108
106
125
123
119
48
57
48
52
56
48
72
74
72
56
61
58
40
44
39
91
88
82
100
96
86
51
57
52
36
49
45
41
55
48
60
65
54
92
77
61
109
81
64
59
65
54
44
54
48
113
121
119
201
211
215
210
219
226
207
215
223
206
215
223
204
215
223
183
77
83
104
60
62
69
68
64
81
84
78
118
116
113
101
101
96
97
92
86
108
102
99
112
111
107
64
69
64
50
58
53
44
55
48
40
52
43
39
52
43
82
71
55
106
80
66
53
61
52
44
55
49
43
56
50
127
135
133
213
216
221
215
220
225
212
219
224
211
218
225
161
36
49
107
56
60
113
112
109
113
109
106
99
82
79
130
93
93
183
162
160
216
214
214
211
209
210
98
101
99
63
68
64
44
52
47
40
53
44
58
62
49
106
80
60
105
81
65
52
59
52
43
55
49
42
55
47
52
62
56
141
144
145
220
222
224
221
223
227
218
222
226
152
96
96
108
86
82
124
112
111
111
72
71
160
97
101
215
185
186
233
233
232
231
230
233
234
230
233
191
189
190
171
170
170
102
102
102
36
47
41
68
66
52
116
83
62
99
77
60
49
56
47
40
54
46
44
57
47
42
55
46
49
61
54
155
160
160
229
229
235
225
224
227
202
196
194
116
99
99
167
138
142
208
176
178
231
213
213
233
235
232
230
230
230
233
231
232
234
232
233
234
232
234
236
234
235
211
208
209
125
126
124
84
76
68
110
77
59
112
81
60
88
72
56
83
71
55
89
77
60
90
78
61
80
70
56
87
83
73
178
179
174
232
231
231
233
231
232
183
178
177
207
202
205
237
235
237
232
232
232
235
232
232
234
232
233
236
234
235
236
234
235
234
232
233
233
231
232
237
235
235
228
228
225
184
179
176
127
103
94
109
74
54
115
83
60
117
86
63
119
87
65
121
90
67
119
89
67
103
79
59
116
100
84
205
198
195
235
235
233
216
216
212
187
185
182
231
229
227
236
234
232
236
235
234
236
235
234
237
236
234
236
235
234
236
235
234
236
234
233
235
233
232
237
237
235
243
242
240
214
209
207
144
127
116
108
81
61
115
83
59
120
86
63
113
82
61
95
80
68
109
99
91
98
84
76
129
111
103
233
232
230
235
234
232
192
192
189
208
208
206
238
238
236
236
236
233
237
236
234
237
236
234
237
236
234
237
236
234
236
236
233
237
236
234
237
236
234
237
236
234
240
239
237
226
225
222
170
161
155
121
98
82
118
83
62
100
72
58
115
113
113
197
198
196
163
161
159
80
72
69
233
232
230
236
235
233
218
217
215
191
189
186
234
232
230
237
235
234
237
236
234
237
236
234
237
236
234
237
236
234
238
236
235
238
237
235
239
237
236
239
238
236
239
237
235
239
236
235
242
238
237
204
195
190
134
114
101
87
67
51
103
102
98
170
170
168
153
152
151
64
68
70
