P3 24 24 255
73
47
13
111
72
34
120
81
52
53
38
17
53
44
15
59
53
15
55
50
15
45
41
11
50
46
13
54
47
14
65
50
24
67
51
19
67
56
16
72
64
20
62
56
13
55
49
11
69
60
21
77
68
24
71
62
19
68
59
20
73
63
22
82
70
27
68
58
16
55
50
14
162
107
53
147
96
54
148
104
78
64
49
28
47
39
14
46
40
10
41
39
8
51
45
14
45
39
7
41
36
9
91
64
40
115
80
47
61
50
11
64
57
14
67
61
16
69
63
18
74
64
21
67
59
18
41
35
4
42
33
8
61
52
16
72
64
22
60
52
14
59
53
19
77
58
15
95
69
31
144
109
75
65
51
22
36
28
8
45
38
15
43
38
12
46
39
9
48
46
14
41
39
15
110
73
48
144
96
63
50
40
11
50
44
12
61
56
17
64
59
16
60
50
9
60
54
17
46
42
12
44
35
12
46
40
10
58
55
19
60
56
18
61
56
15
33
42
11
73
64
32
142
109
80
66
49
24
28
23
7
41
34
15
51
42
21
39
32
8
41
44
13
33
28
6
119
80
55
137
93
63
28
20
5
36
32
12
53
50
19
55
52
17
52
48
14
51
48
13
54
49
14
61
54
19
44
42
12
39
41
9
51
50
12
51
50
7
45
34
11
66
50
26
142
111
90
76
59
36
28
24
6
57
50
29
71
62
38
59
51
25
44
43
11
54
39
10
149
109
81
109
75
48
25
20
4
32
30
9
47
47
15
51
51
15
49
49
17
46
44
10
57
53
13
64
60
16
52
57
15
43
51
11
45
49
10
46
46
10
40
36
17
41
35
9
120
101
69
114
93
61
84
69
40
96
79
49
85
67
36
84
66
32
61
45
7
107
80
39
165
129
95
63
44
17
40
38
12
44
43
12
50
50
13
54
55
15
48
50
15
50
50
13
58
57
14
66
67
19
66
76
23
54
65
14
47
51
11
50
49
18
40
42
16
26
31
5
39
35
15
111
82
56
181
139
103
159
119
82
130
91
54
164
127
86
140
105
58
171
131
83
117
86
51
33
30
4
45
43
13
52
49
16
55
52
18
58
56
20
59
61
21
60
59
18
63
62
19
62
68
21
58
69
19
58
68
19
57
61
17
64
61
21
43
36
5
28
30
8
20
20
12
53
33
19
154
107
82
180
122
87
179
124
75
197
145
99
140
102
60
119
92
48
77
57
19
45
41
14
51
49
20
54
51
20
51
48
16
51
48
15
56
57
18
60
60
19
63
62
19
59
61
16
54
58
17
59
64
23
60
64
19
63
66
17
56
55
20
40
44
14
37
38
15
26
26
5
74
52
31
156
105
74
182
127
79
133
88
48
52
37
8
39
42
8
53
55
15
32
32
5
39
36
13
44
41
14
44
39
11
49
44
15
46
43
11
52
50
16
54
53
13
53
52
9
45
43
8
43
43
9
51
55
15
56
65
19
67
74
28
60
71
25
58
67
23
49
59
15
51
58
19
118
91
56
161
112
79
85
58
28
41
38
10
47
47
19
54
53
17
33
39
10
37
37
11
42
41
13
37
34
8
44
40
16
47
44
15
52
50
17
51
52
15
52
55
15
53
55
16
44
47
9
48
54
14
48
57
16
55
68
24
52
66
19
58
72
23
66
78
30
54
74
29
122
109
66
178
131
90
90
73
30
47
57
17
62
64
27
63
63
20
53
69
25
56
69
27
56
67
26
46
54
19
46
54
19
57
68
26
59
69
25
57
65
19
63
69
22
71
78
28
62
70
20
53
63
15
53
64
18
30
45
12
41
54
19
40
54
17
48
57
23
41
55
19
144
135
88
227
183
122
122
96
32
77
80
27
78
74
26
72
64
12
65
73
22
64
76
24
73
83
32
67
74
27
60
67
21
60
73
19
67
79
24
68
78
23
73
81
26
76
87
28
66
79
19
61
74
18
64
77
24
30
44
14
31
39
15
27
37
16
19
29
8
28
33
11
132
122
80
239
203
136
160
105
41
111
64
20
107
61
23
109
59
20
92
54
20
77
55
18
87
65
27
92
67
29
92
66
27
93
69
27
87
73
27
68
70
18
65
79
24
62
78
22
60
74
20
57
71
18
57
70
19
51
67
29
34
45
16
20
31
11
13
26
8
31
38
19
101
97
64
232
209
150
210
153
90
144
73
30
121
56
20
130
64
28
109
44
16
103
45
17
99
43
17
106
52
25
117
56
22
134
69
34
150
107
71
107
96
56
55
69
21
54
72
22
55
70
23
55
69
22
55
69
21
50
68
22
48
64
24
39
55
25
18
32
12
19
31
13
54
56
34
196
183
138
240
199
133
182
106
51
153
77
30
149
79
34
136
60
19
135
59
21
118
48
17
119
56
28
148
75
30
173
92
41
209
157
116
164
147
110
59
69
23
56
71
21
50
66
19
54
70
23
64
80
28
43
59
9
48
63
21
39
53
23
15
25
8
4
12
1
6
7
0
115
105
80
235
197
142
201
120
59
188
103
45
171
92
36
154
69
18
160
76
28
144
66
24
144
76
38
176
101
47
213
134
71
241
196
141
166
154
106
61
73
19
53
68
15
54
70
23
55
71
23
67
84
30
61
76
23
52
65
19
34
44
11
22
29
11
16
22
11
4
6
0
41
35
26
184
152
114
216
140
80
220
139
74
213
139
73
205
127
68
202
120
59
185
101
42
173
95
41
201
119
55
235
156
90
230
191
134
125
119
69
56
70
17
54
69
18
56
72
25
52
68
21
64
81
28
61
78
24
58
72
22
52
62
22
34
42
16
27
35
14
24
28
15
15
15
8
114
96
69
204
150
97
206
146
82
211
162
93
204
152
91
217
153
86
217
141
70
197
118
52
212
130
59
230
151
88
187
151
99
81
81
37
46
61
15
60
73
24
56
72
25
48
64
16
55
72
18
51
72
18
61
79
24
61
74
25
51
63
25
35
47
12
32
41
13
25
29
12
49
44
26
158
133
97
156
128
69
134
122
55
100
89
33
128
99
39
198
144
76
187
122
58
214
141
74
233
154
91
160
127
73
71
77
32
45
61
17
50
63
15
53
69
21
53
69
21
54
70
17
52
77
23
60
79
23
61
76
22
57
73
25
49
65
17
45
57
16
41
50
20
31
37
13
71
70
40
87
86
36
62
75
20
52
69
20
70
72
24
120
98
42
145
108
52
172
122
63
184
125
65
131
110
58
63
75
30
55
73
24
52
65
15
58
73
26
53
69
24
57
74
23
53
74
24
56
71
21
59
72
22
53
70
21
50
65
17
56
67
23
41
53
15
41
54
18
43
53
15
45
55
18
38
52
20
41
55
16
50
57
16
63
65
20
88
85
35
102
90
39
93
80
31
67
70
35
43
60
27
54
72
23
59
72
21
50
63
22
42
57
20
37
54
14
38
55
14
49
59
17
56
64
19
49
61
21
47
58
24
53
61
24
52
63
22
59
73
31
61
75
33
47
60
24
37
49
22
41
53
17
43
50
14
48
58
19
63
72
27
61
65
16
57
64
14
41
55
21
25
43
15
47
63
18
46
60
16
42
55
19
34
46
16
28
40
10
29
40
11
48
52
18
55
57
17
42
50
12
38
46
16
41
47
17
48
56
22
44
56
19
49
63
22
44
56
17
38
46
17
45
53
21
39
47
19
36
50
16
45
59
20
63
74
29
56
70
17
42
59
19
23
39
9
49
63
22
45
60
18
48
63
25
40
49
17
45
50
22
35
37
14
49
46
16
59
57
19
59
65
19
41
48
9
29
32
7
33
37
15
31
38
12
50
60
19
50
58
17
42
45
17
46
48
19
40
44
20
38
49
21
31
46
14
43
57
20
61
77
26
52
68
24
38
52
16
50
61
21
55
70
23
57
71
25
53
62
21
48
51
16
