P3 24 24 255
13
25
21
37
55
48
23
46
35
41
77
70
49
100
100
42
92
90
70
117
114
91
141
137
80
141
145
98
158
170
78
137
148
75
132
135
88
139
134
90
141
137
83
141
137
67
130
119
66
131
117
56
118
111
46
104
103
60
114
109
58
106
98
45
85
82
37
79
76
49
102
96
15
29
24
28
41
38
18
31
23
39
71
63
40
83
78
37
87
81
61
112
109
83
135
126
71
135
129
85
147
137
74
130
119
68
117
113
75
121
113
55
108
98
46
105
95
56
108
98
81
134
121
59
119
111
38
97
97
43
94
91
52
100
92
58
102
95
62
97
94
63
113
104
17
33
27
17
29
29
17
27
23
31
61
51
39
77
65
37
88
76
49
100
97
91
138
127
89
139
133
78
139
119
76
138
116
75
128
120
62
108
103
39
92
84
33
92
82
59
110
103
93
142
130
75
133
122
60
119
116
45
87
87
46
86
81
61
105
95
78
106
100
75
117
105
21
37
32
15
28
27
15
31
26
34
63
52
44
81
66
39
83
70
52
89
85
139
161
148
152
170
164
82
135
126
64
137
122
63
125
108
84
125
113
60
97
88
42
89
81
60
124
112
79
142
126
67
126
114
70
126
120
45
83
83
41
70
69
52
84
79
56
90
82
84
127
112
17
32
29
12
30
29
20
44
38
38
65
56
40
75
59
46
83
68
68
91
87
168
173
157
165
172
157
75
122
116
71
131
120
103
143
120
138
161
143
88
106
96
79
110
102
43
106
94
74
137
123
62
114
101
62
111
103
47
83
82
35
60
61
32
59
56
59
98
87
96
136
120
14
26
26
19
44
43
35
68
61
35
59
53
38
69
56
39
70
57
123
137
133
157
156
138
102
113
90
82
115
101
88
115
97
170
169
139
194
192
169
179
182
169
136
151
144
73
115
109
106
145
140
78
110
103
58
96
86
43
82
77
38
71
70
49
82
77
82
121
109
112
143
126
17
29
30
36
71
68
35
76
68
35
55
53
42
69
61
31
59
49
101
114
111
121
120
103
128
130
108
183
189
165
130
124
88
176
149
105
172
149
120
173
165
148
148
151
144
193
201
206
201
203
211
152
159
159
75
100
91
48
92
84
45
98
92
70
118
109
111
145
133
121
142
125
36
56
59
52
84
83
24
62
54
29
48
46
45
71
68
32
61
56
69
85
84
138
136
123
205
198
170
217
203
166
168
144
96
155
130
78
126
106
80
100
91
78
130
125
120
209
194
199
207
187
195
195
185
184
124
138
127
65
107
95
52
111
98
73
125
110
106
137
124
109
128
113
55
91
93
51
78
80
19
54
47
33
56
51
40
72
67
34
70
69
47
70
70
127
132
120
201
196
154
168
147
105
158
131
86
147
130
82
109
105
87
98
94
91
161
149
146
197
176
170
193
174
166
178
164
154
151
152
136
96
123
106
78
120
101
90
127
105
114
143
126
106
130
116
48
95
91
23
56
56
45
88
84
58
89
82
39
73
63
35
76
69
49
81
75
129
144
129
162
159
127
112
101
76
124
105
75
165
144
100
152
146
120
167
160
151
190
173
167
190
166
158
193
176
165
167
153
140
150
142
125
129
141
125
109
134
115
113
137
116
129
152
133
112
135
119
44
112
100
30
76
73
76
133
130
39
74
69
35
61
47
29
61
49
44
73
63
117
133
121
116
116
102
69
71
66
92
83
66
168
143
101
217
203
165
233
221
199
199
180
168
180
156
149
176
160
150
171
156
142
154
137
121
151
148
132
155
163
147
152
161
145
130
142
124
124
141
123
56
144
129
69
134
128
90
160
154
42
80
75
44
60
47
35
53
41
58
73
65
108
116
113
93
93
92
83
88
87
117
113
96
163
141
99
195
177
133
217
201
171
183
164
148
167
146
136
157
144
132
170
154
138
167
145
127
155
142
123
142
138
121
121
119
104
116
117
100
136
142
122
52
149
136
80
152
146
71
148
137
54
100
90
56
77
62
53
70
56
68
79
75
98
104
109
92
93
93
115
112
100
137
128
98
149
135
91
162
145
101
181
164
133
159
143
125
145
130
116
152
141
128
159
141
125
171
148
126
151
137
113
110
105
85
101
93
79
113
106
89
126
119
100
53
153
144
63
140
132
73
152
138
81
139
126
86
128
110
93
126
109
69
91
88
76
88
98
105
105
104
140
131
105
165
154
111
158
152
107
146
131
91
157
139
108
152
138
119
139
130
113
158
147
132
153
134
117
165
144
120
143
133
104
108
104
80
105
95
81
111
97
81
119
102
84
45
136
131
46
133
121
70
155
140
88
166
154
108
177
165
111
173
157
86
132
131
69
82
104
117
116
118
166
174
150
189
201
167
183
174
134
147
127
88
149
128
92
154
142
119
133
126
108
162
148
128
156
140
118
155
139
112
152
140
107
123
113
86
114
102
86
123
107
92
132
111
96
29
114
111
31
120
108
53
139
124
80
158
147
112
178
165
133
196
173
101
153
138
70
84
90
141
142
134
178
197
181
183
209
189
181
178
142
155
136
95
154
131
91
157
145
119
132
123
105
158
144
122
152
141
116
140
130
102
151
141
109
144
138
110
118
115
94
105
97
78
119
105
88
23
102
101
19
105
97
55
139
126
80
151
135
130
185
161
157
214
175
142
197
155
113
140
109
146
155
129
180
199
187
182
210
203
173
182
150
161
147
102
160
138
95
152
141
114
133
125
108
151
142
120
137
134
110
113
110
84
134
130
102
158
158
130
132
135
110
103
101
77
112
103
81
25
96
97
18
102
98
53
132
121
83
152
130
133
191
154
159
220
167
154
224
155
154
202
139
147
166
124
168
186
171
175
205
202
172
189
162
167
159
115
156
137
94
140
133
107
125
120
106
133
128
108
117
118
96
80
81
59
98
99
78
140
139
117
134
130
107
129
121
99
117
104
84
26
90
93
31
111
112
49
125
116
71
139
113
106
167
126
122
183
129
114
187
113
143
201
129
144
172
125
142
161
132
156
182
169
164
183
160
169
167
126
147
135
94
115
115
94
98
100
92
108
107
90
104
105
86
81
82
66
82
83
69
113
109
95
119
109
93
120
112
95
114
109
92
40
99
105
32
109
113
52
126
118
79
144
118
110
164
127
124
172
128
110
169
107
131
181
118
135
168
122
134
154
110
138
160
134
150
164
145
158
161
125
134
130
92
83
90
73
67
76
73
93
94
81
103
103
86
97
96
84
83
82
73
102
98
89
106
103
89
108
114
97
115
132
112
70
127
135
41
108
118
60
128
127
90
154
138
110
162
137
120
157
129
111
148
108
115
150
106
137
165
129
130
154
112
115
138
105
125
134
110
140
137
106
113
119
86
62
70
56
52
66
63
89
98
87
123
120
106
131
126
112
109
108
95
126
128
114
120
130
111
103
131
109
108
155
131
73
130
141
48
106
122
66
128
138
91
154
150
89
139
127
90
125
109
97
133
109
96
138
105
115
144
114
98
132
100
91
119
88
94
103
75
108
113
83
101
125
95
65
73
59
55
64
61
85
98
90
103
99
87
128
120
104
121
118
101
126
130
111
128
144
119
102
144
118
94
159
134
43
102
116
33
92
110
52
116
129
67
126
130
81
129
125
86
131
121
91
149
127
97
163
132
112
159
127
88
134
102
76
109
83
62
74
56
66
94
65
84
131
100
71
85
75
54
58
61
85
102
97
90
96
85
95
95
80
107
105
92
112
113
97
111
126
101
90
131
107
78
141
123
47
107
123
41
103
119
62
127
142
66
132
139
71
133
132
84
143
137
89
153
140
86
155
134
78
138
109
71
128
101
76
113
95
58
73
63
63
94
72
78
128
101
57
80
70
45
68
66
71
111
102
83
115
100
89
115
96
96
114
100
105
119
102
109
130
106
90
134
113
85
148
133
