P3 24 24 255
74
26
21
91
43
39
96
49
44
95
51
46
72
31
24
74
31
23
101
56
47
124
77
67
141
95
87
85
45
37
67
36
27
59
31
25
58
24
23
55
26
26
57
37
38
159
148
149
74
53
62
52
26
38
49
22
34
49
23
35
44
24
34
34
20
27
41
27
34
44
30
37
64
16
10
83
37
32
62
18
15
66
24
20
70
29
25
65
24
19
77
34
28
80
35
28
73
26
19
65
26
18
64
33
26
63
37
32
66
38
35
57
33
32
71
53
53
166
156
158
63
41
53
62
35
52
65
38
55
66
39
55
59
41
51
51
42
46
49
40
43
55
46
50
81
33
26
68
24
18
55
14
10
71
30
28
70
28
27
64
22
21
71
30
29
72
27
25
78
28
23
71
28
23
76
44
39
86
61
56
89
66
62
102
83
80
113
97
97
172
158
160
109
87
95
126
100
111
69
43
54
63
37
48
61
41
47
63
48
50
84
69
70
116
101
103
83
36
28
70
28
22
55
17
14
56
16
18
64
22
26
86
46
50
90
51
57
95
52
56
69
17
16
91
48
45
91
60
57
96
73
69
89
75
68
111
97
93
180
165
165
197
182
185
148
127
126
188
164
161
154
131
127
123
99
96
99
72
71
102
73
76
217
193
196
205
179
183
73
26
16
75
29
21
77
32
27
89
38
35
112
56
55
138
81
82
148
93
96
146
86
88
145
75
72
144
82
78
135
85
80
88
48
43
119
96
86
121
102
98
187
169
170
213
192
193
139
113
107
155
128
119
209
184
174
199
176
165
202
172
169
199
157
160
224
172
172
248
199
197
98
44
34
127
59
47
155
75
61
189
96
75
204
99
76
214
102
84
223
112
96
223
112
97
234
113
100
227
109
96
212
101
91
181
81
74
163
92
80
160
112
111
210
175
178
214
175
169
175
133
135
197
161
167
233
207
210
227
205
207
242
224
226
253
216
214
222
122
108
227
108
87
171
69
67
199
81
76
217
84
76
221
91
69
225
96
65
231
95
70
232
97
74
232
101
80
235
101
85
237
104
88
234
106
95
237
116
107
226
123
111
216
139
140
239
181
185
237
183
175
222
181
173
254
238
231
255
247
237
255
253
241
255
250
244
250
199
192
222
98
79
226
80
53
202
68
64
232
86
80
230
74
66
227
84
63
224
91
62
229
88
66
228
90
69
226
96
76
226
101
84
229
106
91
234
115
103
249
138
127
253
143
130
249
155
153
247
158
160
235
141
134
231
143
131
234
159
146
238
169
154
243
183
166
229
173
161
217
132
122
212
78
59
221
77
55
218
84
67
225
84
65
232
84
64
226
82
58
226
84
58
233
86
66
239
98
79
245
113
93
250
128
108
252
135
119
250
134
118
236
115
100
236
102
87
220
94
89
214
88
87
222
86
77
235
78
74
233
72
70
232
77
73
229
80
73
199
80
70
201
90
73
224
85
65
224
87
70
225
91
66
232
91
65
236
88
62
230
83
56
239
90
67
248
99
80
243
101
84
239
101
80
235
93
69
223
87
67
219
83
63
221
78
56
221
72
52
217
75
63
219
77
68
226
75
61
231
73
60
231
75
63
230
78
65
235
88
74
232
110
93
235
111
89
242
102
82
220
95
83
208
62
41
233
76
54
242
73
51
245
84
61
238
83
62
232
76
58
222
72
55
219
71
50
226
70
43
221
71
50
227
75
53
231
73
45
224
77
53
218
77
58
220
75
57
229
76
54
222
89
66
229
108
84
235
118
93
234
117
92
230
109
84
227
84
59
220
67
47
184
68
60
177
55
35
203
60
39
235
73
51
231
69
47
224
67
46
223
64
48
219
71
53
219
75
54
220
70
45
212
68
51
213
65
44
228
72
42
219
78
53
224
85
62
233
92
68
242
99
72
235
99
79
228
96
79
218
87
70
210
81
63
215
77
55
222
71
45
213
69
49
155
60
54
106
35
13
164
60
36
210
75
49
220
69
45
225
67
47
226
68
51
215
69
51
207
73
53
214
91
73
225
111
101
225
105
90
217
82
56
228
90
70
230
92
71
222
83
58
219
80
53
219
76
57
219
73
59
220
73
59
221
74
60
218
73
53
218
71
45
198
67
47
129
56
51
96
49
35
141
51
32
202
71
50
218
68
45
222
65
44
220
63
46
213
69
49
218
97
77
189
106
96
149
79
79
184
109
104
215
116
97
215
77
65
215
72
56
214
74
51
217
81
55
215
77
52
217
75
51
217
74
50
214
68
45
209
65
40
206
64
37
185
65
45
99
44
38
122
64
64
178
74
70
213
57
48
224
58
42
218
62
41
219
64
46
210
74
55
162
62
49
70
21
19
42
4
9
57
15
16
151
79
67
213
72
66
216
66
55
217
72
53
211
72
51
213
69
41
213
66
38
210
64
37
206
62
35
199
64
41
194
69
47
166
63
47
81
39
36
74
36
36
131
60
58
194
54
44
219
54
39
219
58
38
215
60
41
172
65
51
65
11
8
44
12
14
53
22
25
51
15
15
87
32
28
218
67
64
218
57
50
209
54
43
211
62
48
215
63
41
206
62
37
192
65
41
185
73
50
177
84
71
156
80
77
107
49
47
71
41
44
47
22
21
104
54
51
185
66
53
209
55
37
212
55
36
208
61
41
129
43
33
45
12
11
77
48
51
104
72
73
63
29
27
68
18
15
198
55
46
208
55
43
200
55
41
199
61
45
194
62
45
191
71
55
191
91
77
173
92
79
117
53
49
79
29
33
55
16
20
70
44
48
47
21
20
139
94
90
191
87
74
198
58
39
204
59
38
196
63
44
99
26
19
50
23
24
113
85
88
100
69
70
84
50
49
67
21
16
177
56
37
190
63
43
181
65
44
185
77
57
186
91
80
171
88
83
133
65
61
86
32
30
54
7
9
51
9
12
51
17
18
76
50
49
43
18
18
120
82
78
163
79
65
176
57
36
185
55
33
170
57
40
72
12
9
62
42
44
79
54
56
62
32
32
93
61
59
74
32
27
168
72
50
175
80
57
163
80
59
153
80
62
121
65
60
74
28
30
47
9
14
41
13
20
42
13
19
51
20
21
47
19
16
46
23
17
39
15
16
77
45
41
127
64
52
141
45
25
147
37
16
138
47
32
53
8
6
71
56
58
71
46
49
68
41
40
99
69
66
77
39
34
146
74
59
128
60
46
91
37
25
63
21
11
42
14
11
36
15
16
40
20
24
36
19
27
37
18
23
39
17
16
60
38
30
99
76
64
39
13
16
50
21
18
101
53
44
138
63
46
154
67
48
115
44
34
47
13
11
89
76
79
68
45
47
101
75
74
102
73
70
63
29
25
71
19
17
55
9
8
43
10
11
39
16
18
38
23
18
37
25
18
35
22
19
33
18
18
50
35
33
113
96
90
194
175
163
239
218
201
36
11
14
39
11
10
54
16
11
89
31
21
105
38
25
75
23
16
42
14
13
101
86
88
69
48
49
113
89
87
112
84
81
53
22
19
43
6
13
43
11
20
41
17
26
36
20
26
37
23
14
48
33
19
76
59
47
124
104
93
191
174
163
236
219
208
244
225
211
246
225
207
36
11
14
40
10
12
42
9
10
50
6
4
54
5
0
44
7
3
43
18
16
109
89
90
62
42
42
72
49
47
125
99
95
51
22
20
42
14
24
41
16
25
38
18
23
53
36
37
86
67
55
149
128
111
212
190
173
247
224
207
249
228
211
241
222
206
246
225
209
245
223
206
37
11
14
39
7
11
42
10
16
43
8
12
48
11
11
42
14
14
43
16
15
114
88
87
88
67
68
123
102
100
131
106
102
51
24
20
40
17
22
46
23
24
78
55
47
155
132
119
217
193
178
248
225
209
252
229
212
248
224
205
247
223
202
249
224
203
247
223
205
246
223
207
